G04 #@! TF.GenerationSoftware,KiCad,Pcbnew,(5.1.5)-2*
G04 #@! TF.CreationDate,2020-08-01T22:44:24+08:00*
G04 #@! TF.ProjectId,Module_ADS1263,4d6f6475-6c65-45f4-9144-53313236332e,rev?*
G04 #@! TF.SameCoordinates,Original*
G04 #@! TF.FileFunction,Copper,L4,Bot*
G04 #@! TF.FilePolarity,Positive*
%FSLAX46Y46*%
G04 Gerber Fmt 4.6, Leading zero omitted, Abs format (unit mm)*
G04 Created by KiCad (PCBNEW (5.1.5)-2) date 2020-08-01 22:44:24*
%MOMM*%
%LPD*%
G04 APERTURE LIST*
%ADD10C,0.203200*%
%ADD11O,1.700000X1.700000*%
%ADD12R,1.700000X1.700000*%
%ADD13O,1.950000X1.700000*%
%ADD14C,0.100000*%
%ADD15R,4.200000X1.350000*%
%ADD16O,3.600000X1.800000*%
%ADD17O,1.800000X3.600000*%
%ADD18C,0.558800*%
%ADD19C,0.025400*%
%ADD20C,0.254000*%
G04 APERTURE END LIST*
D10*
X111865228Y-130167742D02*
X111865228Y-130980542D01*
X111574942Y-129703285D02*
X111284657Y-130574142D01*
X112039400Y-130574142D01*
D11*
X147320000Y-105410000D03*
X144780000Y-105410000D03*
X147320000Y-102870000D03*
D12*
X144780000Y-102870000D03*
D13*
X147320000Y-92790000D03*
X147320000Y-95290000D03*
G04 #@! TA.AperFunction,ComponentPad*
D14*
G36*
X148069504Y-96941204D02*
G01*
X148093773Y-96944804D01*
X148117571Y-96950765D01*
X148140671Y-96959030D01*
X148162849Y-96969520D01*
X148183893Y-96982133D01*
X148203598Y-96996747D01*
X148221777Y-97013223D01*
X148238253Y-97031402D01*
X148252867Y-97051107D01*
X148265480Y-97072151D01*
X148275970Y-97094329D01*
X148284235Y-97117429D01*
X148290196Y-97141227D01*
X148293796Y-97165496D01*
X148295000Y-97190000D01*
X148295000Y-98390000D01*
X148293796Y-98414504D01*
X148290196Y-98438773D01*
X148284235Y-98462571D01*
X148275970Y-98485671D01*
X148265480Y-98507849D01*
X148252867Y-98528893D01*
X148238253Y-98548598D01*
X148221777Y-98566777D01*
X148203598Y-98583253D01*
X148183893Y-98597867D01*
X148162849Y-98610480D01*
X148140671Y-98620970D01*
X148117571Y-98629235D01*
X148093773Y-98635196D01*
X148069504Y-98638796D01*
X148045000Y-98640000D01*
X146595000Y-98640000D01*
X146570496Y-98638796D01*
X146546227Y-98635196D01*
X146522429Y-98629235D01*
X146499329Y-98620970D01*
X146477151Y-98610480D01*
X146456107Y-98597867D01*
X146436402Y-98583253D01*
X146418223Y-98566777D01*
X146401747Y-98548598D01*
X146387133Y-98528893D01*
X146374520Y-98507849D01*
X146364030Y-98485671D01*
X146355765Y-98462571D01*
X146349804Y-98438773D01*
X146346204Y-98414504D01*
X146345000Y-98390000D01*
X146345000Y-97190000D01*
X146346204Y-97165496D01*
X146349804Y-97141227D01*
X146355765Y-97117429D01*
X146364030Y-97094329D01*
X146374520Y-97072151D01*
X146387133Y-97051107D01*
X146401747Y-97031402D01*
X146418223Y-97013223D01*
X146436402Y-96996747D01*
X146456107Y-96982133D01*
X146477151Y-96969520D01*
X146499329Y-96959030D01*
X146522429Y-96950765D01*
X146546227Y-96944804D01*
X146570496Y-96941204D01*
X146595000Y-96940000D01*
X148045000Y-96940000D01*
X148069504Y-96941204D01*
G37*
G04 #@! TD.AperFunction*
D15*
X103959000Y-107600000D03*
X103959000Y-101950000D03*
X103959000Y-94900000D03*
X103959000Y-89250000D03*
D11*
X143510000Y-128270000D03*
X140970000Y-128270000D03*
X138430000Y-128270000D03*
X135890000Y-128270000D03*
X133350000Y-128270000D03*
D12*
X130810000Y-128270000D03*
D11*
X143510000Y-125730000D03*
X140970000Y-125730000D03*
X138430000Y-125730000D03*
X135890000Y-125730000D03*
X133350000Y-125730000D03*
D12*
X130810000Y-125730000D03*
D16*
X109982000Y-123190000D03*
X109982000Y-119380000D03*
G04 #@! TA.AperFunction,ComponentPad*
D14*
G36*
X111556504Y-114671204D02*
G01*
X111580773Y-114674804D01*
X111604571Y-114680765D01*
X111627671Y-114689030D01*
X111649849Y-114699520D01*
X111670893Y-114712133D01*
X111690598Y-114726747D01*
X111708777Y-114743223D01*
X111725253Y-114761402D01*
X111739867Y-114781107D01*
X111752480Y-114802151D01*
X111762970Y-114824329D01*
X111771235Y-114847429D01*
X111777196Y-114871227D01*
X111780796Y-114895496D01*
X111782000Y-114920000D01*
X111782000Y-116220000D01*
X111780796Y-116244504D01*
X111777196Y-116268773D01*
X111771235Y-116292571D01*
X111762970Y-116315671D01*
X111752480Y-116337849D01*
X111739867Y-116358893D01*
X111725253Y-116378598D01*
X111708777Y-116396777D01*
X111690598Y-116413253D01*
X111670893Y-116427867D01*
X111649849Y-116440480D01*
X111627671Y-116450970D01*
X111604571Y-116459235D01*
X111580773Y-116465196D01*
X111556504Y-116468796D01*
X111532000Y-116470000D01*
X108432000Y-116470000D01*
X108407496Y-116468796D01*
X108383227Y-116465196D01*
X108359429Y-116459235D01*
X108336329Y-116450970D01*
X108314151Y-116440480D01*
X108293107Y-116427867D01*
X108273402Y-116413253D01*
X108255223Y-116396777D01*
X108238747Y-116378598D01*
X108224133Y-116358893D01*
X108211520Y-116337849D01*
X108201030Y-116315671D01*
X108192765Y-116292571D01*
X108186804Y-116268773D01*
X108183204Y-116244504D01*
X108182000Y-116220000D01*
X108182000Y-114920000D01*
X108183204Y-114895496D01*
X108186804Y-114871227D01*
X108192765Y-114847429D01*
X108201030Y-114824329D01*
X108211520Y-114802151D01*
X108224133Y-114781107D01*
X108238747Y-114761402D01*
X108255223Y-114743223D01*
X108273402Y-114726747D01*
X108293107Y-114712133D01*
X108314151Y-114699520D01*
X108336329Y-114689030D01*
X108359429Y-114680765D01*
X108383227Y-114674804D01*
X108407496Y-114671204D01*
X108432000Y-114670000D01*
X111532000Y-114670000D01*
X111556504Y-114671204D01*
G37*
G04 #@! TD.AperFunction*
D17*
X113538000Y-90932000D03*
X117348000Y-90932000D03*
X121158000Y-90932000D03*
X124968000Y-90932000D03*
X128778000Y-90932000D03*
X132588000Y-90932000D03*
X136398000Y-90932000D03*
G04 #@! TA.AperFunction,ComponentPad*
D14*
G36*
X140882504Y-89133204D02*
G01*
X140906773Y-89136804D01*
X140930571Y-89142765D01*
X140953671Y-89151030D01*
X140975849Y-89161520D01*
X140996893Y-89174133D01*
X141016598Y-89188747D01*
X141034777Y-89205223D01*
X141051253Y-89223402D01*
X141065867Y-89243107D01*
X141078480Y-89264151D01*
X141088970Y-89286329D01*
X141097235Y-89309429D01*
X141103196Y-89333227D01*
X141106796Y-89357496D01*
X141108000Y-89382000D01*
X141108000Y-92482000D01*
X141106796Y-92506504D01*
X141103196Y-92530773D01*
X141097235Y-92554571D01*
X141088970Y-92577671D01*
X141078480Y-92599849D01*
X141065867Y-92620893D01*
X141051253Y-92640598D01*
X141034777Y-92658777D01*
X141016598Y-92675253D01*
X140996893Y-92689867D01*
X140975849Y-92702480D01*
X140953671Y-92712970D01*
X140930571Y-92721235D01*
X140906773Y-92727196D01*
X140882504Y-92730796D01*
X140858000Y-92732000D01*
X139558000Y-92732000D01*
X139533496Y-92730796D01*
X139509227Y-92727196D01*
X139485429Y-92721235D01*
X139462329Y-92712970D01*
X139440151Y-92702480D01*
X139419107Y-92689867D01*
X139399402Y-92675253D01*
X139381223Y-92658777D01*
X139364747Y-92640598D01*
X139350133Y-92620893D01*
X139337520Y-92599849D01*
X139327030Y-92577671D01*
X139318765Y-92554571D01*
X139312804Y-92530773D01*
X139309204Y-92506504D01*
X139308000Y-92482000D01*
X139308000Y-89382000D01*
X139309204Y-89357496D01*
X139312804Y-89333227D01*
X139318765Y-89309429D01*
X139327030Y-89286329D01*
X139337520Y-89264151D01*
X139350133Y-89243107D01*
X139364747Y-89223402D01*
X139381223Y-89205223D01*
X139399402Y-89188747D01*
X139419107Y-89174133D01*
X139440151Y-89161520D01*
X139462329Y-89151030D01*
X139485429Y-89142765D01*
X139509227Y-89136804D01*
X139533496Y-89133204D01*
X139558000Y-89132000D01*
X140858000Y-89132000D01*
X140882504Y-89133204D01*
G37*
G04 #@! TD.AperFunction*
D11*
X125730000Y-118110000D03*
X125730000Y-120650000D03*
D12*
X125730000Y-123190000D03*
D18*
X104648000Y-107569000D03*
X103124000Y-107569000D03*
X104648000Y-101981000D03*
X103124000Y-101981000D03*
X104648000Y-94869000D03*
X103124000Y-94869000D03*
X104648000Y-89281000D03*
X103124000Y-89281000D03*
X114173000Y-97790000D03*
X114173000Y-99060000D03*
X137668000Y-95885000D03*
X137668000Y-97155000D03*
X130048000Y-100330000D03*
X131318000Y-100330000D03*
X137668000Y-103505000D03*
X137668000Y-104775000D03*
X122428000Y-100330000D03*
X123698000Y-100330000D03*
X113284000Y-117602000D03*
X114554000Y-117602000D03*
X117856000Y-116840000D03*
X119126000Y-116840000D03*
X120396000Y-116840000D03*
X117856000Y-124968000D03*
X119126000Y-124968000D03*
X114808000Y-107696000D03*
X116840000Y-107696000D03*
X118364000Y-108712000D03*
X120142000Y-108712000D03*
X123190000Y-117602000D03*
X124968000Y-113538000D03*
X124460000Y-115697000D03*
X123444000Y-129413000D03*
X124714000Y-129413000D03*
X123444000Y-130683000D03*
X124714000Y-130683000D03*
X148844000Y-109982000D03*
X148844000Y-108712000D03*
X150114000Y-109982000D03*
X150114000Y-108712000D03*
X103124000Y-97155000D03*
X103124000Y-98425000D03*
X103124000Y-99695000D03*
X106807000Y-107569000D03*
X108077000Y-107569000D03*
X109347000Y-107569000D03*
X106807000Y-89281000D03*
X108077000Y-89281000D03*
X109347000Y-89281000D03*
X133985000Y-118364000D03*
X126682500Y-115316000D03*
X126682500Y-116078000D03*
X126682500Y-108839000D03*
X117602000Y-129413000D03*
X118872000Y-129413000D03*
X118872000Y-130683000D03*
X117602000Y-130683000D03*
X132588000Y-118364000D03*
X126682500Y-112776000D03*
X114300000Y-129413000D03*
X115570000Y-129413000D03*
X114300000Y-130683000D03*
X115570000Y-130683000D03*
X123571000Y-113030000D03*
X123571000Y-114173000D03*
X122428000Y-115443000D03*
X128270000Y-105918000D03*
X136398000Y-108839000D03*
X139192000Y-107822994D03*
X126746000Y-129413000D03*
X128016000Y-129413000D03*
X128016000Y-130683000D03*
X126746000Y-130683000D03*
X148844000Y-111887000D03*
X150114000Y-111887000D03*
X148844000Y-113157000D03*
X150114000Y-113157000D03*
X148463000Y-115316000D03*
X149606000Y-115316000D03*
X143256000Y-111506000D03*
X143256000Y-109982000D03*
X141986000Y-116205000D03*
X142367000Y-114173000D03*
X143637000Y-114173000D03*
X143637000Y-115443000D03*
X142367000Y-115443000D03*
X145034000Y-119888000D03*
X143510000Y-118745000D03*
X137795000Y-118872000D03*
X133223000Y-120015000D03*
X138557000Y-117221000D03*
X136016996Y-120015000D03*
X140208000Y-116205000D03*
X136398000Y-116205000D03*
X137160000Y-120015000D03*
X135001000Y-118491000D03*
X140589000Y-120523000D03*
X115693500Y-118494500D03*
X115697000Y-121793000D03*
X115693500Y-109096500D03*
X115697000Y-112395000D03*
D10*
X128270000Y-105918000D02*
X129286000Y-104902000D01*
X140208000Y-97663000D02*
X140208000Y-90932000D01*
X132969000Y-104902000D02*
X140208000Y-97663000D01*
X129286000Y-104902000D02*
X132969000Y-104902000D01*
X137795000Y-120650000D02*
X137795000Y-118872000D01*
X137287000Y-121158000D02*
X137795000Y-120650000D01*
X135255000Y-121158000D02*
X137287000Y-121158000D01*
X133223000Y-120015000D02*
X134112000Y-120015000D01*
X134112000Y-120015000D02*
X135255000Y-121158000D01*
X136398000Y-117221000D02*
X136016996Y-117602004D01*
X138557000Y-117221000D02*
X136398000Y-117221000D01*
X136016996Y-119619869D02*
X136016996Y-120015000D01*
X136016996Y-117602004D02*
X136016996Y-119619869D01*
X140208000Y-116205000D02*
X136398000Y-116205000D01*
X136398000Y-116205000D02*
X136398000Y-116205000D01*
X135001000Y-118886131D02*
X135001000Y-118491000D01*
X135001000Y-120269000D02*
X135001000Y-118886131D01*
X137160000Y-120015000D02*
X136525000Y-120650000D01*
X135382000Y-120650000D02*
X135001000Y-120269000D01*
X136525000Y-120650000D02*
X135382000Y-120650000D01*
X138938000Y-120523000D02*
X140589000Y-120523000D01*
X137160000Y-118364000D02*
X137414000Y-118110000D01*
X138430000Y-118110000D02*
X138684000Y-118364000D01*
X138684000Y-120269000D02*
X138938000Y-120523000D01*
X137160000Y-120015000D02*
X137160000Y-118364000D01*
X137414000Y-118110000D02*
X138430000Y-118110000D01*
X138684000Y-118364000D02*
X138684000Y-120269000D01*
X115693500Y-118494500D02*
X115693500Y-121789500D01*
X115693500Y-109096500D02*
X115693500Y-112391500D01*
D19*
G36*
X128627709Y-105686627D02*
G01*
X128617604Y-105697459D01*
X128616999Y-105698156D01*
X128600498Y-105718644D01*
X128599917Y-105719425D01*
X128585389Y-105740599D01*
X128584848Y-105741458D01*
X128572292Y-105763317D01*
X128571809Y-105764246D01*
X128561225Y-105786792D01*
X128560813Y-105787775D01*
X128552202Y-105811006D01*
X128551873Y-105812023D01*
X128545233Y-105835941D01*
X128544993Y-105836971D01*
X128540326Y-105861574D01*
X128540175Y-105862595D01*
X128537480Y-105887884D01*
X128537413Y-105888877D01*
X128536954Y-105905396D01*
X128189197Y-105998803D01*
X128282605Y-105651046D01*
X128299122Y-105650586D01*
X128300115Y-105650519D01*
X128325404Y-105647824D01*
X128326425Y-105647673D01*
X128351028Y-105643006D01*
X128352058Y-105642766D01*
X128375976Y-105636126D01*
X128376993Y-105635797D01*
X128400224Y-105627186D01*
X128401207Y-105626774D01*
X128423753Y-105616190D01*
X128424682Y-105615707D01*
X128446541Y-105603151D01*
X128447400Y-105602610D01*
X128468574Y-105588082D01*
X128469355Y-105587501D01*
X128489843Y-105571000D01*
X128490540Y-105570396D01*
X128501373Y-105560291D01*
X128627709Y-105686627D01*
G37*
X128627709Y-105686627D02*
X128617604Y-105697459D01*
X128616999Y-105698156D01*
X128600498Y-105718644D01*
X128599917Y-105719425D01*
X128585389Y-105740599D01*
X128584848Y-105741458D01*
X128572292Y-105763317D01*
X128571809Y-105764246D01*
X128561225Y-105786792D01*
X128560813Y-105787775D01*
X128552202Y-105811006D01*
X128551873Y-105812023D01*
X128545233Y-105835941D01*
X128544993Y-105836971D01*
X128540326Y-105861574D01*
X128540175Y-105862595D01*
X128537480Y-105887884D01*
X128537413Y-105888877D01*
X128536954Y-105905396D01*
X128189197Y-105998803D01*
X128282605Y-105651046D01*
X128299122Y-105650586D01*
X128300115Y-105650519D01*
X128325404Y-105647824D01*
X128326425Y-105647673D01*
X128351028Y-105643006D01*
X128352058Y-105642766D01*
X128375976Y-105636126D01*
X128376993Y-105635797D01*
X128400224Y-105627186D01*
X128401207Y-105626774D01*
X128423753Y-105616190D01*
X128424682Y-105615707D01*
X128446541Y-105603151D01*
X128447400Y-105602610D01*
X128468574Y-105588082D01*
X128469355Y-105587501D01*
X128489843Y-105571000D01*
X128490540Y-105570396D01*
X128501373Y-105560291D01*
X128627709Y-105686627D01*
G36*
X140822271Y-91572871D02*
G01*
X140728379Y-91672074D01*
X140727729Y-91672817D01*
X140637901Y-91783871D01*
X140637288Y-91784695D01*
X140558028Y-91900727D01*
X140557470Y-91901620D01*
X140488778Y-92022630D01*
X140488291Y-92023580D01*
X140430167Y-92149568D01*
X140429762Y-92150553D01*
X140382206Y-92281519D01*
X140381889Y-92282520D01*
X140344901Y-92418463D01*
X140344672Y-92419457D01*
X140318252Y-92560379D01*
X140318109Y-92561347D01*
X140302257Y-92707247D01*
X140302191Y-92708175D01*
X140297337Y-92846797D01*
X140118663Y-92846797D01*
X140113808Y-92708174D01*
X140113742Y-92707247D01*
X140097890Y-92561347D01*
X140097747Y-92560379D01*
X140071327Y-92419457D01*
X140071098Y-92418463D01*
X140034110Y-92282520D01*
X140033793Y-92281519D01*
X139986237Y-92150553D01*
X139985832Y-92149568D01*
X139927708Y-92023580D01*
X139927221Y-92022630D01*
X139858529Y-91901620D01*
X139857971Y-91900727D01*
X139778711Y-91784695D01*
X139778098Y-91783871D01*
X139688270Y-91672817D01*
X139687620Y-91672074D01*
X139593729Y-91572871D01*
X140208000Y-90507426D01*
X140822271Y-91572871D01*
G37*
X140822271Y-91572871D02*
X140728379Y-91672074D01*
X140727729Y-91672817D01*
X140637901Y-91783871D01*
X140637288Y-91784695D01*
X140558028Y-91900727D01*
X140557470Y-91901620D01*
X140488778Y-92022630D01*
X140488291Y-92023580D01*
X140430167Y-92149568D01*
X140429762Y-92150553D01*
X140382206Y-92281519D01*
X140381889Y-92282520D01*
X140344901Y-92418463D01*
X140344672Y-92419457D01*
X140318252Y-92560379D01*
X140318109Y-92561347D01*
X140302257Y-92707247D01*
X140302191Y-92708175D01*
X140297337Y-92846797D01*
X140118663Y-92846797D01*
X140113808Y-92708174D01*
X140113742Y-92707247D01*
X140097890Y-92561347D01*
X140097747Y-92560379D01*
X140071327Y-92419457D01*
X140071098Y-92418463D01*
X140034110Y-92282520D01*
X140033793Y-92281519D01*
X139986237Y-92150553D01*
X139985832Y-92149568D01*
X139927708Y-92023580D01*
X139927221Y-92022630D01*
X139858529Y-91901620D01*
X139857971Y-91900727D01*
X139778711Y-91784695D01*
X139778098Y-91783871D01*
X139688270Y-91672817D01*
X139687620Y-91672074D01*
X139593729Y-91572871D01*
X140208000Y-90507426D01*
X140822271Y-91572871D01*
G36*
X137974852Y-119069677D02*
G01*
X137963497Y-119081682D01*
X137962842Y-119082431D01*
X137946865Y-119102219D01*
X137946249Y-119103048D01*
X137932152Y-119123746D01*
X137931594Y-119124644D01*
X137919377Y-119146251D01*
X137918890Y-119147203D01*
X137908552Y-119169719D01*
X137908149Y-119170705D01*
X137899691Y-119194131D01*
X137899376Y-119195130D01*
X137892797Y-119219466D01*
X137892571Y-119220456D01*
X137887872Y-119245701D01*
X137887731Y-119246664D01*
X137884912Y-119272818D01*
X137884847Y-119273739D01*
X137884333Y-119288544D01*
X137705666Y-119288544D01*
X137705152Y-119273738D01*
X137705087Y-119272818D01*
X137702268Y-119246664D01*
X137702127Y-119245701D01*
X137697428Y-119220456D01*
X137697202Y-119219466D01*
X137690623Y-119195130D01*
X137690308Y-119194131D01*
X137681850Y-119170705D01*
X137681447Y-119169719D01*
X137671109Y-119147203D01*
X137670622Y-119146251D01*
X137658405Y-119124644D01*
X137657847Y-119123746D01*
X137643750Y-119103048D01*
X137643134Y-119102219D01*
X137627157Y-119082431D01*
X137626503Y-119081682D01*
X137615148Y-119069677D01*
X137795000Y-118757726D01*
X137974852Y-119069677D01*
G37*
X137974852Y-119069677D02*
X137963497Y-119081682D01*
X137962842Y-119082431D01*
X137946865Y-119102219D01*
X137946249Y-119103048D01*
X137932152Y-119123746D01*
X137931594Y-119124644D01*
X137919377Y-119146251D01*
X137918890Y-119147203D01*
X137908552Y-119169719D01*
X137908149Y-119170705D01*
X137899691Y-119194131D01*
X137899376Y-119195130D01*
X137892797Y-119219466D01*
X137892571Y-119220456D01*
X137887872Y-119245701D01*
X137887731Y-119246664D01*
X137884912Y-119272818D01*
X137884847Y-119273739D01*
X137884333Y-119288544D01*
X137705666Y-119288544D01*
X137705152Y-119273738D01*
X137705087Y-119272818D01*
X137702268Y-119246664D01*
X137702127Y-119245701D01*
X137697428Y-119220456D01*
X137697202Y-119219466D01*
X137690623Y-119195130D01*
X137690308Y-119194131D01*
X137681850Y-119170705D01*
X137681447Y-119169719D01*
X137671109Y-119147203D01*
X137670622Y-119146251D01*
X137658405Y-119124644D01*
X137657847Y-119123746D01*
X137643750Y-119103048D01*
X137643134Y-119102219D01*
X137627157Y-119082431D01*
X137626503Y-119081682D01*
X137615148Y-119069677D01*
X137795000Y-118757726D01*
X137974852Y-119069677D01*
G36*
X133432682Y-119846503D02*
G01*
X133433431Y-119847157D01*
X133453219Y-119863134D01*
X133454048Y-119863750D01*
X133474746Y-119877847D01*
X133475644Y-119878405D01*
X133497251Y-119890622D01*
X133498203Y-119891109D01*
X133520719Y-119901447D01*
X133521705Y-119901850D01*
X133545131Y-119910308D01*
X133546130Y-119910623D01*
X133570466Y-119917202D01*
X133571456Y-119917428D01*
X133596701Y-119922127D01*
X133597664Y-119922268D01*
X133623818Y-119925087D01*
X133624738Y-119925152D01*
X133639544Y-119925666D01*
X133639544Y-120104333D01*
X133624739Y-120104847D01*
X133623818Y-120104912D01*
X133597664Y-120107731D01*
X133596701Y-120107872D01*
X133571456Y-120112571D01*
X133570466Y-120112797D01*
X133546130Y-120119376D01*
X133545131Y-120119691D01*
X133521705Y-120128149D01*
X133520719Y-120128552D01*
X133498203Y-120138890D01*
X133497251Y-120139377D01*
X133475644Y-120151594D01*
X133474746Y-120152152D01*
X133454048Y-120166249D01*
X133453219Y-120166865D01*
X133433431Y-120182842D01*
X133432682Y-120183497D01*
X133420677Y-120194852D01*
X133108726Y-120015000D01*
X133420677Y-119835148D01*
X133432682Y-119846503D01*
G37*
X133432682Y-119846503D02*
X133433431Y-119847157D01*
X133453219Y-119863134D01*
X133454048Y-119863750D01*
X133474746Y-119877847D01*
X133475644Y-119878405D01*
X133497251Y-119890622D01*
X133498203Y-119891109D01*
X133520719Y-119901447D01*
X133521705Y-119901850D01*
X133545131Y-119910308D01*
X133546130Y-119910623D01*
X133570466Y-119917202D01*
X133571456Y-119917428D01*
X133596701Y-119922127D01*
X133597664Y-119922268D01*
X133623818Y-119925087D01*
X133624738Y-119925152D01*
X133639544Y-119925666D01*
X133639544Y-120104333D01*
X133624739Y-120104847D01*
X133623818Y-120104912D01*
X133597664Y-120107731D01*
X133596701Y-120107872D01*
X133571456Y-120112571D01*
X133570466Y-120112797D01*
X133546130Y-120119376D01*
X133545131Y-120119691D01*
X133521705Y-120128149D01*
X133520719Y-120128552D01*
X133498203Y-120138890D01*
X133497251Y-120139377D01*
X133475644Y-120151594D01*
X133474746Y-120152152D01*
X133454048Y-120166249D01*
X133453219Y-120166865D01*
X133433431Y-120182842D01*
X133432682Y-120183497D01*
X133420677Y-120194852D01*
X133108726Y-120015000D01*
X133420677Y-119835148D01*
X133432682Y-119846503D01*
G36*
X138671274Y-117221000D02*
G01*
X138359323Y-117400852D01*
X138347317Y-117389496D01*
X138346568Y-117388842D01*
X138326780Y-117372865D01*
X138325951Y-117372249D01*
X138305253Y-117358152D01*
X138304355Y-117357594D01*
X138282748Y-117345377D01*
X138281796Y-117344890D01*
X138259280Y-117334552D01*
X138258294Y-117334149D01*
X138234868Y-117325691D01*
X138233869Y-117325376D01*
X138209533Y-117318797D01*
X138208543Y-117318571D01*
X138183298Y-117313872D01*
X138182335Y-117313731D01*
X138156181Y-117310912D01*
X138155260Y-117310847D01*
X138140456Y-117310333D01*
X138140456Y-117131666D01*
X138155261Y-117131152D01*
X138156181Y-117131087D01*
X138182335Y-117128268D01*
X138183298Y-117128127D01*
X138208543Y-117123428D01*
X138209533Y-117123202D01*
X138233869Y-117116623D01*
X138234868Y-117116308D01*
X138258294Y-117107850D01*
X138259280Y-117107447D01*
X138281796Y-117097109D01*
X138282748Y-117096622D01*
X138304355Y-117084405D01*
X138305253Y-117083847D01*
X138325951Y-117069750D01*
X138326780Y-117069134D01*
X138346568Y-117053157D01*
X138347317Y-117052503D01*
X138359323Y-117041148D01*
X138671274Y-117221000D01*
G37*
X138671274Y-117221000D02*
X138359323Y-117400852D01*
X138347317Y-117389496D01*
X138346568Y-117388842D01*
X138326780Y-117372865D01*
X138325951Y-117372249D01*
X138305253Y-117358152D01*
X138304355Y-117357594D01*
X138282748Y-117345377D01*
X138281796Y-117344890D01*
X138259280Y-117334552D01*
X138258294Y-117334149D01*
X138234868Y-117325691D01*
X138233869Y-117325376D01*
X138209533Y-117318797D01*
X138208543Y-117318571D01*
X138183298Y-117313872D01*
X138182335Y-117313731D01*
X138156181Y-117310912D01*
X138155260Y-117310847D01*
X138140456Y-117310333D01*
X138140456Y-117131666D01*
X138155261Y-117131152D01*
X138156181Y-117131087D01*
X138182335Y-117128268D01*
X138183298Y-117128127D01*
X138208543Y-117123428D01*
X138209533Y-117123202D01*
X138233869Y-117116623D01*
X138234868Y-117116308D01*
X138258294Y-117107850D01*
X138259280Y-117107447D01*
X138281796Y-117097109D01*
X138282748Y-117096622D01*
X138304355Y-117084405D01*
X138305253Y-117083847D01*
X138325951Y-117069750D01*
X138326780Y-117069134D01*
X138346568Y-117053157D01*
X138347317Y-117052503D01*
X138359323Y-117041148D01*
X138671274Y-117221000D01*
G36*
X136106848Y-119641030D02*
G01*
X136106955Y-119642193D01*
X136109774Y-119662548D01*
X136109987Y-119663693D01*
X136114686Y-119683822D01*
X136114995Y-119684921D01*
X136121574Y-119704821D01*
X136121965Y-119705851D01*
X136130423Y-119725525D01*
X136130876Y-119726471D01*
X136141214Y-119745917D01*
X136141710Y-119746768D01*
X136153927Y-119765988D01*
X136154447Y-119766745D01*
X136168544Y-119785736D01*
X136169072Y-119786399D01*
X136185049Y-119805164D01*
X136185572Y-119805742D01*
X136196803Y-119817401D01*
X136016996Y-120129274D01*
X135837189Y-119817400D01*
X135848419Y-119805741D01*
X135848942Y-119805164D01*
X135864919Y-119786399D01*
X135865447Y-119785736D01*
X135879544Y-119766745D01*
X135880064Y-119765988D01*
X135892281Y-119746768D01*
X135892777Y-119745917D01*
X135903115Y-119726471D01*
X135903568Y-119725525D01*
X135912026Y-119705851D01*
X135912417Y-119704821D01*
X135918996Y-119684921D01*
X135919305Y-119683822D01*
X135924004Y-119663693D01*
X135924217Y-119662548D01*
X135927036Y-119642193D01*
X135927143Y-119641030D01*
X135927529Y-119632569D01*
X136106462Y-119632569D01*
X136106848Y-119641030D01*
G37*
X136106848Y-119641030D02*
X136106955Y-119642193D01*
X136109774Y-119662548D01*
X136109987Y-119663693D01*
X136114686Y-119683822D01*
X136114995Y-119684921D01*
X136121574Y-119704821D01*
X136121965Y-119705851D01*
X136130423Y-119725525D01*
X136130876Y-119726471D01*
X136141214Y-119745917D01*
X136141710Y-119746768D01*
X136153927Y-119765988D01*
X136154447Y-119766745D01*
X136168544Y-119785736D01*
X136169072Y-119786399D01*
X136185049Y-119805164D01*
X136185572Y-119805742D01*
X136196803Y-119817401D01*
X136016996Y-120129274D01*
X135837189Y-119817400D01*
X135848419Y-119805741D01*
X135848942Y-119805164D01*
X135864919Y-119786399D01*
X135865447Y-119785736D01*
X135879544Y-119766745D01*
X135880064Y-119765988D01*
X135892281Y-119746768D01*
X135892777Y-119745917D01*
X135903115Y-119726471D01*
X135903568Y-119725525D01*
X135912026Y-119705851D01*
X135912417Y-119704821D01*
X135918996Y-119684921D01*
X135919305Y-119683822D01*
X135924004Y-119663693D01*
X135924217Y-119662548D01*
X135927036Y-119642193D01*
X135927143Y-119641030D01*
X135927529Y-119632569D01*
X136106462Y-119632569D01*
X136106848Y-119641030D01*
G36*
X140322274Y-116205000D02*
G01*
X140010323Y-116384852D01*
X139998317Y-116373496D01*
X139997568Y-116372842D01*
X139977780Y-116356865D01*
X139976951Y-116356249D01*
X139956253Y-116342152D01*
X139955355Y-116341594D01*
X139933748Y-116329377D01*
X139932796Y-116328890D01*
X139910280Y-116318552D01*
X139909294Y-116318149D01*
X139885868Y-116309691D01*
X139884869Y-116309376D01*
X139860533Y-116302797D01*
X139859543Y-116302571D01*
X139834298Y-116297872D01*
X139833335Y-116297731D01*
X139807181Y-116294912D01*
X139806260Y-116294847D01*
X139791456Y-116294333D01*
X139791456Y-116115666D01*
X139806261Y-116115152D01*
X139807181Y-116115087D01*
X139833335Y-116112268D01*
X139834298Y-116112127D01*
X139859543Y-116107428D01*
X139860533Y-116107202D01*
X139884869Y-116100623D01*
X139885868Y-116100308D01*
X139909294Y-116091850D01*
X139910280Y-116091447D01*
X139932796Y-116081109D01*
X139933748Y-116080622D01*
X139955355Y-116068405D01*
X139956253Y-116067847D01*
X139976951Y-116053750D01*
X139977780Y-116053134D01*
X139997568Y-116037157D01*
X139998317Y-116036503D01*
X140010323Y-116025148D01*
X140322274Y-116205000D01*
G37*
X140322274Y-116205000D02*
X140010323Y-116384852D01*
X139998317Y-116373496D01*
X139997568Y-116372842D01*
X139977780Y-116356865D01*
X139976951Y-116356249D01*
X139956253Y-116342152D01*
X139955355Y-116341594D01*
X139933748Y-116329377D01*
X139932796Y-116328890D01*
X139910280Y-116318552D01*
X139909294Y-116318149D01*
X139885868Y-116309691D01*
X139884869Y-116309376D01*
X139860533Y-116302797D01*
X139859543Y-116302571D01*
X139834298Y-116297872D01*
X139833335Y-116297731D01*
X139807181Y-116294912D01*
X139806260Y-116294847D01*
X139791456Y-116294333D01*
X139791456Y-116115666D01*
X139806261Y-116115152D01*
X139807181Y-116115087D01*
X139833335Y-116112268D01*
X139834298Y-116112127D01*
X139859543Y-116107428D01*
X139860533Y-116107202D01*
X139884869Y-116100623D01*
X139885868Y-116100308D01*
X139909294Y-116091850D01*
X139910280Y-116091447D01*
X139932796Y-116081109D01*
X139933748Y-116080622D01*
X139955355Y-116068405D01*
X139956253Y-116067847D01*
X139976951Y-116053750D01*
X139977780Y-116053134D01*
X139997568Y-116037157D01*
X139998317Y-116036503D01*
X140010323Y-116025148D01*
X140322274Y-116205000D01*
G36*
X136607682Y-116036503D02*
G01*
X136608431Y-116037157D01*
X136628219Y-116053134D01*
X136629048Y-116053750D01*
X136649746Y-116067847D01*
X136650644Y-116068405D01*
X136672251Y-116080622D01*
X136673203Y-116081109D01*
X136695719Y-116091447D01*
X136696705Y-116091850D01*
X136720131Y-116100308D01*
X136721130Y-116100623D01*
X136745466Y-116107202D01*
X136746456Y-116107428D01*
X136771701Y-116112127D01*
X136772664Y-116112268D01*
X136798818Y-116115087D01*
X136799738Y-116115152D01*
X136814544Y-116115666D01*
X136814544Y-116294333D01*
X136799739Y-116294847D01*
X136798818Y-116294912D01*
X136772664Y-116297731D01*
X136771701Y-116297872D01*
X136746456Y-116302571D01*
X136745466Y-116302797D01*
X136721130Y-116309376D01*
X136720131Y-116309691D01*
X136696705Y-116318149D01*
X136695719Y-116318552D01*
X136673203Y-116328890D01*
X136672251Y-116329377D01*
X136650644Y-116341594D01*
X136649746Y-116342152D01*
X136629048Y-116356249D01*
X136628219Y-116356865D01*
X136608431Y-116372842D01*
X136607682Y-116373497D01*
X136595677Y-116384852D01*
X136283726Y-116205000D01*
X136595677Y-116025148D01*
X136607682Y-116036503D01*
G37*
X136607682Y-116036503D02*
X136608431Y-116037157D01*
X136628219Y-116053134D01*
X136629048Y-116053750D01*
X136649746Y-116067847D01*
X136650644Y-116068405D01*
X136672251Y-116080622D01*
X136673203Y-116081109D01*
X136695719Y-116091447D01*
X136696705Y-116091850D01*
X136720131Y-116100308D01*
X136721130Y-116100623D01*
X136745466Y-116107202D01*
X136746456Y-116107428D01*
X136771701Y-116112127D01*
X136772664Y-116112268D01*
X136798818Y-116115087D01*
X136799738Y-116115152D01*
X136814544Y-116115666D01*
X136814544Y-116294333D01*
X136799739Y-116294847D01*
X136798818Y-116294912D01*
X136772664Y-116297731D01*
X136771701Y-116297872D01*
X136746456Y-116302571D01*
X136745466Y-116302797D01*
X136721130Y-116309376D01*
X136720131Y-116309691D01*
X136696705Y-116318149D01*
X136695719Y-116318552D01*
X136673203Y-116328890D01*
X136672251Y-116329377D01*
X136650644Y-116341594D01*
X136649746Y-116342152D01*
X136629048Y-116356249D01*
X136628219Y-116356865D01*
X136608431Y-116372842D01*
X136607682Y-116373497D01*
X136595677Y-116384852D01*
X136283726Y-116205000D01*
X136595677Y-116025148D01*
X136607682Y-116036503D01*
G36*
X135180807Y-118688599D02*
G01*
X135169577Y-118700257D01*
X135169053Y-118700835D01*
X135153076Y-118719600D01*
X135152548Y-118720263D01*
X135138451Y-118739254D01*
X135137931Y-118740011D01*
X135125714Y-118759231D01*
X135125218Y-118760082D01*
X135114880Y-118779528D01*
X135114427Y-118780474D01*
X135105969Y-118800148D01*
X135105578Y-118801178D01*
X135098999Y-118821078D01*
X135098690Y-118822177D01*
X135093991Y-118842306D01*
X135093778Y-118843451D01*
X135090959Y-118863806D01*
X135090852Y-118864969D01*
X135090466Y-118873431D01*
X134911533Y-118873431D01*
X134911147Y-118864969D01*
X134911040Y-118863806D01*
X134908221Y-118843451D01*
X134908008Y-118842306D01*
X134903309Y-118822177D01*
X134903000Y-118821078D01*
X134896421Y-118801178D01*
X134896030Y-118800148D01*
X134887572Y-118780474D01*
X134887119Y-118779528D01*
X134876781Y-118760082D01*
X134876285Y-118759231D01*
X134864068Y-118740011D01*
X134863548Y-118739254D01*
X134849451Y-118720263D01*
X134848923Y-118719600D01*
X134832946Y-118700835D01*
X134832423Y-118700257D01*
X134821193Y-118688599D01*
X135001000Y-118376726D01*
X135180807Y-118688599D01*
G37*
X135180807Y-118688599D02*
X135169577Y-118700257D01*
X135169053Y-118700835D01*
X135153076Y-118719600D01*
X135152548Y-118720263D01*
X135138451Y-118739254D01*
X135137931Y-118740011D01*
X135125714Y-118759231D01*
X135125218Y-118760082D01*
X135114880Y-118779528D01*
X135114427Y-118780474D01*
X135105969Y-118800148D01*
X135105578Y-118801178D01*
X135098999Y-118821078D01*
X135098690Y-118822177D01*
X135093991Y-118842306D01*
X135093778Y-118843451D01*
X135090959Y-118863806D01*
X135090852Y-118864969D01*
X135090466Y-118873431D01*
X134911533Y-118873431D01*
X134911147Y-118864969D01*
X134911040Y-118863806D01*
X134908221Y-118843451D01*
X134908008Y-118842306D01*
X134903309Y-118822177D01*
X134903000Y-118821078D01*
X134896421Y-118801178D01*
X134896030Y-118800148D01*
X134887572Y-118780474D01*
X134887119Y-118779528D01*
X134876781Y-118760082D01*
X134876285Y-118759231D01*
X134864068Y-118740011D01*
X134863548Y-118739254D01*
X134849451Y-118720263D01*
X134848923Y-118719600D01*
X134832946Y-118700835D01*
X134832423Y-118700257D01*
X134821193Y-118688599D01*
X135001000Y-118376726D01*
X135180807Y-118688599D01*
G36*
X137147396Y-120281954D02*
G01*
X137130877Y-120282413D01*
X137129884Y-120282480D01*
X137104595Y-120285175D01*
X137103574Y-120285326D01*
X137078971Y-120289993D01*
X137077941Y-120290233D01*
X137054023Y-120296873D01*
X137053006Y-120297202D01*
X137029775Y-120305813D01*
X137028792Y-120306225D01*
X137006246Y-120316809D01*
X137005317Y-120317292D01*
X136983458Y-120329848D01*
X136982599Y-120330389D01*
X136961425Y-120344917D01*
X136960644Y-120345498D01*
X136940156Y-120361999D01*
X136939459Y-120362604D01*
X136928627Y-120372709D01*
X136802291Y-120246373D01*
X136812396Y-120235540D01*
X136813000Y-120234843D01*
X136829501Y-120214355D01*
X136830082Y-120213574D01*
X136844610Y-120192400D01*
X136845151Y-120191541D01*
X136857707Y-120169682D01*
X136858190Y-120168753D01*
X136868774Y-120146207D01*
X136869186Y-120145224D01*
X136877797Y-120121993D01*
X136878126Y-120120976D01*
X136884766Y-120097058D01*
X136885006Y-120096028D01*
X136889673Y-120071425D01*
X136889824Y-120070404D01*
X136892519Y-120045115D01*
X136892586Y-120044122D01*
X136893046Y-120027605D01*
X137240803Y-119934197D01*
X137147396Y-120281954D01*
G37*
X137147396Y-120281954D02*
X137130877Y-120282413D01*
X137129884Y-120282480D01*
X137104595Y-120285175D01*
X137103574Y-120285326D01*
X137078971Y-120289993D01*
X137077941Y-120290233D01*
X137054023Y-120296873D01*
X137053006Y-120297202D01*
X137029775Y-120305813D01*
X137028792Y-120306225D01*
X137006246Y-120316809D01*
X137005317Y-120317292D01*
X136983458Y-120329848D01*
X136982599Y-120330389D01*
X136961425Y-120344917D01*
X136960644Y-120345498D01*
X136940156Y-120361999D01*
X136939459Y-120362604D01*
X136928627Y-120372709D01*
X136802291Y-120246373D01*
X136812396Y-120235540D01*
X136813000Y-120234843D01*
X136829501Y-120214355D01*
X136830082Y-120213574D01*
X136844610Y-120192400D01*
X136845151Y-120191541D01*
X136857707Y-120169682D01*
X136858190Y-120168753D01*
X136868774Y-120146207D01*
X136869186Y-120145224D01*
X136877797Y-120121993D01*
X136878126Y-120120976D01*
X136884766Y-120097058D01*
X136885006Y-120096028D01*
X136889673Y-120071425D01*
X136889824Y-120070404D01*
X136892519Y-120045115D01*
X136892586Y-120044122D01*
X136893046Y-120027605D01*
X137240803Y-119934197D01*
X137147396Y-120281954D01*
G36*
X140703274Y-120523000D02*
G01*
X140391323Y-120702852D01*
X140379317Y-120691496D01*
X140378568Y-120690842D01*
X140358780Y-120674865D01*
X140357951Y-120674249D01*
X140337253Y-120660152D01*
X140336355Y-120659594D01*
X140314748Y-120647377D01*
X140313796Y-120646890D01*
X140291280Y-120636552D01*
X140290294Y-120636149D01*
X140266868Y-120627691D01*
X140265869Y-120627376D01*
X140241533Y-120620797D01*
X140240543Y-120620571D01*
X140215298Y-120615872D01*
X140214335Y-120615731D01*
X140188181Y-120612912D01*
X140187260Y-120612847D01*
X140172456Y-120612333D01*
X140172456Y-120433666D01*
X140187261Y-120433152D01*
X140188181Y-120433087D01*
X140214335Y-120430268D01*
X140215298Y-120430127D01*
X140240543Y-120425428D01*
X140241533Y-120425202D01*
X140265869Y-120418623D01*
X140266868Y-120418308D01*
X140290294Y-120409850D01*
X140291280Y-120409447D01*
X140313796Y-120399109D01*
X140314748Y-120398622D01*
X140336355Y-120386405D01*
X140337253Y-120385847D01*
X140357951Y-120371750D01*
X140358780Y-120371134D01*
X140378568Y-120355157D01*
X140379317Y-120354503D01*
X140391323Y-120343148D01*
X140703274Y-120523000D01*
G37*
X140703274Y-120523000D02*
X140391323Y-120702852D01*
X140379317Y-120691496D01*
X140378568Y-120690842D01*
X140358780Y-120674865D01*
X140357951Y-120674249D01*
X140337253Y-120660152D01*
X140336355Y-120659594D01*
X140314748Y-120647377D01*
X140313796Y-120646890D01*
X140291280Y-120636552D01*
X140290294Y-120636149D01*
X140266868Y-120627691D01*
X140265869Y-120627376D01*
X140241533Y-120620797D01*
X140240543Y-120620571D01*
X140215298Y-120615872D01*
X140214335Y-120615731D01*
X140188181Y-120612912D01*
X140187260Y-120612847D01*
X140172456Y-120612333D01*
X140172456Y-120433666D01*
X140187261Y-120433152D01*
X140188181Y-120433087D01*
X140214335Y-120430268D01*
X140215298Y-120430127D01*
X140240543Y-120425428D01*
X140241533Y-120425202D01*
X140265869Y-120418623D01*
X140266868Y-120418308D01*
X140290294Y-120409850D01*
X140291280Y-120409447D01*
X140313796Y-120399109D01*
X140314748Y-120398622D01*
X140336355Y-120386405D01*
X140337253Y-120385847D01*
X140357951Y-120371750D01*
X140358780Y-120371134D01*
X140378568Y-120355157D01*
X140379317Y-120354503D01*
X140391323Y-120343148D01*
X140703274Y-120523000D01*
G36*
X137249847Y-119613260D02*
G01*
X137249912Y-119614181D01*
X137252731Y-119640335D01*
X137252872Y-119641298D01*
X137257571Y-119666543D01*
X137257797Y-119667533D01*
X137264376Y-119691869D01*
X137264691Y-119692868D01*
X137273149Y-119716294D01*
X137273552Y-119717280D01*
X137283890Y-119739796D01*
X137284377Y-119740748D01*
X137296594Y-119762355D01*
X137297152Y-119763253D01*
X137311249Y-119783951D01*
X137311865Y-119784780D01*
X137327842Y-119804568D01*
X137328496Y-119805317D01*
X137339852Y-119817323D01*
X137160000Y-120129274D01*
X136980148Y-119817323D01*
X136991503Y-119805317D01*
X136992157Y-119804568D01*
X137008134Y-119784780D01*
X137008750Y-119783951D01*
X137022847Y-119763253D01*
X137023405Y-119762355D01*
X137035622Y-119740748D01*
X137036109Y-119739796D01*
X137046447Y-119717280D01*
X137046850Y-119716294D01*
X137055308Y-119692868D01*
X137055623Y-119691869D01*
X137062202Y-119667533D01*
X137062428Y-119666543D01*
X137067127Y-119641298D01*
X137067268Y-119640335D01*
X137070087Y-119614181D01*
X137070152Y-119613261D01*
X137070666Y-119598456D01*
X137249333Y-119598456D01*
X137249847Y-119613260D01*
G37*
X137249847Y-119613260D02*
X137249912Y-119614181D01*
X137252731Y-119640335D01*
X137252872Y-119641298D01*
X137257571Y-119666543D01*
X137257797Y-119667533D01*
X137264376Y-119691869D01*
X137264691Y-119692868D01*
X137273149Y-119716294D01*
X137273552Y-119717280D01*
X137283890Y-119739796D01*
X137284377Y-119740748D01*
X137296594Y-119762355D01*
X137297152Y-119763253D01*
X137311249Y-119783951D01*
X137311865Y-119784780D01*
X137327842Y-119804568D01*
X137328496Y-119805317D01*
X137339852Y-119817323D01*
X137160000Y-120129274D01*
X136980148Y-119817323D01*
X136991503Y-119805317D01*
X136992157Y-119804568D01*
X137008134Y-119784780D01*
X137008750Y-119783951D01*
X137022847Y-119763253D01*
X137023405Y-119762355D01*
X137035622Y-119740748D01*
X137036109Y-119739796D01*
X137046447Y-119717280D01*
X137046850Y-119716294D01*
X137055308Y-119692868D01*
X137055623Y-119691869D01*
X137062202Y-119667533D01*
X137062428Y-119666543D01*
X137067127Y-119641298D01*
X137067268Y-119640335D01*
X137070087Y-119614181D01*
X137070152Y-119613261D01*
X137070666Y-119598456D01*
X137249333Y-119598456D01*
X137249847Y-119613260D01*
G36*
X115873352Y-118692177D02*
G01*
X115861997Y-118704182D01*
X115861342Y-118704931D01*
X115845365Y-118724719D01*
X115844749Y-118725548D01*
X115830652Y-118746246D01*
X115830094Y-118747144D01*
X115817877Y-118768751D01*
X115817390Y-118769703D01*
X115807052Y-118792219D01*
X115806649Y-118793205D01*
X115798191Y-118816631D01*
X115797876Y-118817630D01*
X115791297Y-118841966D01*
X115791071Y-118842956D01*
X115786372Y-118868201D01*
X115786231Y-118869164D01*
X115783412Y-118895318D01*
X115783347Y-118896239D01*
X115782833Y-118911044D01*
X115604166Y-118911044D01*
X115603652Y-118896238D01*
X115603587Y-118895318D01*
X115600768Y-118869164D01*
X115600627Y-118868201D01*
X115595928Y-118842956D01*
X115595702Y-118841966D01*
X115589123Y-118817630D01*
X115588808Y-118816631D01*
X115580350Y-118793205D01*
X115579947Y-118792219D01*
X115569609Y-118769703D01*
X115569122Y-118768751D01*
X115556905Y-118747144D01*
X115556347Y-118746246D01*
X115542250Y-118725548D01*
X115541634Y-118724719D01*
X115525657Y-118704931D01*
X115525003Y-118704182D01*
X115513648Y-118692177D01*
X115693500Y-118380226D01*
X115873352Y-118692177D01*
G37*
X115873352Y-118692177D02*
X115861997Y-118704182D01*
X115861342Y-118704931D01*
X115845365Y-118724719D01*
X115844749Y-118725548D01*
X115830652Y-118746246D01*
X115830094Y-118747144D01*
X115817877Y-118768751D01*
X115817390Y-118769703D01*
X115807052Y-118792219D01*
X115806649Y-118793205D01*
X115798191Y-118816631D01*
X115797876Y-118817630D01*
X115791297Y-118841966D01*
X115791071Y-118842956D01*
X115786372Y-118868201D01*
X115786231Y-118869164D01*
X115783412Y-118895318D01*
X115783347Y-118896239D01*
X115782833Y-118911044D01*
X115604166Y-118911044D01*
X115603652Y-118896238D01*
X115603587Y-118895318D01*
X115600768Y-118869164D01*
X115600627Y-118868201D01*
X115595928Y-118842956D01*
X115595702Y-118841966D01*
X115589123Y-118817630D01*
X115588808Y-118816631D01*
X115580350Y-118793205D01*
X115579947Y-118792219D01*
X115569609Y-118769703D01*
X115569122Y-118768751D01*
X115556905Y-118747144D01*
X115556347Y-118746246D01*
X115542250Y-118725548D01*
X115541634Y-118724719D01*
X115525657Y-118704931D01*
X115525003Y-118704182D01*
X115513648Y-118692177D01*
X115693500Y-118380226D01*
X115873352Y-118692177D01*
G36*
X115784025Y-121388718D02*
G01*
X115784106Y-121389593D01*
X115787520Y-121416342D01*
X115787671Y-121417257D01*
X115792895Y-121443027D01*
X115793124Y-121443971D01*
X115800158Y-121468762D01*
X115800471Y-121469716D01*
X115809314Y-121493527D01*
X115809710Y-121494476D01*
X115820363Y-121517307D01*
X115820840Y-121518229D01*
X115833302Y-121540081D01*
X115833850Y-121540957D01*
X115848122Y-121561830D01*
X115848730Y-121562646D01*
X115864812Y-121582539D01*
X115865462Y-121583283D01*
X115876852Y-121595323D01*
X115697000Y-121907274D01*
X115517138Y-121595306D01*
X115528484Y-121583264D01*
X115529168Y-121582476D01*
X115545040Y-121562583D01*
X115545678Y-121561709D01*
X115559600Y-121540836D01*
X115560173Y-121539891D01*
X115572145Y-121518039D01*
X115572636Y-121517042D01*
X115582659Y-121494211D01*
X115583058Y-121493184D01*
X115591131Y-121469373D01*
X115591432Y-121468341D01*
X115597556Y-121443550D01*
X115597764Y-121442535D01*
X115601938Y-121416765D01*
X115602057Y-121415786D01*
X115604281Y-121389037D01*
X115604324Y-121388111D01*
X115604474Y-121372956D01*
X115783113Y-121372956D01*
X115784025Y-121388718D01*
G37*
X115784025Y-121388718D02*
X115784106Y-121389593D01*
X115787520Y-121416342D01*
X115787671Y-121417257D01*
X115792895Y-121443027D01*
X115793124Y-121443971D01*
X115800158Y-121468762D01*
X115800471Y-121469716D01*
X115809314Y-121493527D01*
X115809710Y-121494476D01*
X115820363Y-121517307D01*
X115820840Y-121518229D01*
X115833302Y-121540081D01*
X115833850Y-121540957D01*
X115848122Y-121561830D01*
X115848730Y-121562646D01*
X115864812Y-121582539D01*
X115865462Y-121583283D01*
X115876852Y-121595323D01*
X115697000Y-121907274D01*
X115517138Y-121595306D01*
X115528484Y-121583264D01*
X115529168Y-121582476D01*
X115545040Y-121562583D01*
X115545678Y-121561709D01*
X115559600Y-121540836D01*
X115560173Y-121539891D01*
X115572145Y-121518039D01*
X115572636Y-121517042D01*
X115582659Y-121494211D01*
X115583058Y-121493184D01*
X115591131Y-121469373D01*
X115591432Y-121468341D01*
X115597556Y-121443550D01*
X115597764Y-121442535D01*
X115601938Y-121416765D01*
X115602057Y-121415786D01*
X115604281Y-121389037D01*
X115604324Y-121388111D01*
X115604474Y-121372956D01*
X115783113Y-121372956D01*
X115784025Y-121388718D01*
G36*
X115873352Y-109294177D02*
G01*
X115861997Y-109306182D01*
X115861342Y-109306931D01*
X115845365Y-109326719D01*
X115844749Y-109327548D01*
X115830652Y-109348246D01*
X115830094Y-109349144D01*
X115817877Y-109370751D01*
X115817390Y-109371703D01*
X115807052Y-109394219D01*
X115806649Y-109395205D01*
X115798191Y-109418631D01*
X115797876Y-109419630D01*
X115791297Y-109443966D01*
X115791071Y-109444956D01*
X115786372Y-109470201D01*
X115786231Y-109471164D01*
X115783412Y-109497318D01*
X115783347Y-109498239D01*
X115782833Y-109513044D01*
X115604166Y-109513044D01*
X115603652Y-109498238D01*
X115603587Y-109497318D01*
X115600768Y-109471164D01*
X115600627Y-109470201D01*
X115595928Y-109444956D01*
X115595702Y-109443966D01*
X115589123Y-109419630D01*
X115588808Y-109418631D01*
X115580350Y-109395205D01*
X115579947Y-109394219D01*
X115569609Y-109371703D01*
X115569122Y-109370751D01*
X115556905Y-109349144D01*
X115556347Y-109348246D01*
X115542250Y-109327548D01*
X115541634Y-109326719D01*
X115525657Y-109306931D01*
X115525003Y-109306182D01*
X115513648Y-109294177D01*
X115693500Y-108982226D01*
X115873352Y-109294177D01*
G37*
X115873352Y-109294177D02*
X115861997Y-109306182D01*
X115861342Y-109306931D01*
X115845365Y-109326719D01*
X115844749Y-109327548D01*
X115830652Y-109348246D01*
X115830094Y-109349144D01*
X115817877Y-109370751D01*
X115817390Y-109371703D01*
X115807052Y-109394219D01*
X115806649Y-109395205D01*
X115798191Y-109418631D01*
X115797876Y-109419630D01*
X115791297Y-109443966D01*
X115791071Y-109444956D01*
X115786372Y-109470201D01*
X115786231Y-109471164D01*
X115783412Y-109497318D01*
X115783347Y-109498239D01*
X115782833Y-109513044D01*
X115604166Y-109513044D01*
X115603652Y-109498238D01*
X115603587Y-109497318D01*
X115600768Y-109471164D01*
X115600627Y-109470201D01*
X115595928Y-109444956D01*
X115595702Y-109443966D01*
X115589123Y-109419630D01*
X115588808Y-109418631D01*
X115580350Y-109395205D01*
X115579947Y-109394219D01*
X115569609Y-109371703D01*
X115569122Y-109370751D01*
X115556905Y-109349144D01*
X115556347Y-109348246D01*
X115542250Y-109327548D01*
X115541634Y-109326719D01*
X115525657Y-109306931D01*
X115525003Y-109306182D01*
X115513648Y-109294177D01*
X115693500Y-108982226D01*
X115873352Y-109294177D01*
G36*
X115784025Y-111990718D02*
G01*
X115784106Y-111991593D01*
X115787520Y-112018342D01*
X115787671Y-112019257D01*
X115792895Y-112045027D01*
X115793124Y-112045971D01*
X115800158Y-112070762D01*
X115800471Y-112071716D01*
X115809314Y-112095527D01*
X115809710Y-112096476D01*
X115820363Y-112119307D01*
X115820840Y-112120229D01*
X115833302Y-112142081D01*
X115833850Y-112142957D01*
X115848122Y-112163830D01*
X115848730Y-112164646D01*
X115864812Y-112184539D01*
X115865462Y-112185283D01*
X115876852Y-112197323D01*
X115697000Y-112509274D01*
X115517138Y-112197306D01*
X115528484Y-112185264D01*
X115529168Y-112184476D01*
X115545040Y-112164583D01*
X115545678Y-112163709D01*
X115559600Y-112142836D01*
X115560173Y-112141891D01*
X115572145Y-112120039D01*
X115572636Y-112119042D01*
X115582659Y-112096211D01*
X115583058Y-112095184D01*
X115591131Y-112071373D01*
X115591432Y-112070341D01*
X115597556Y-112045550D01*
X115597764Y-112044535D01*
X115601938Y-112018765D01*
X115602057Y-112017786D01*
X115604281Y-111991037D01*
X115604324Y-111990111D01*
X115604474Y-111974956D01*
X115783113Y-111974956D01*
X115784025Y-111990718D01*
G37*
X115784025Y-111990718D02*
X115784106Y-111991593D01*
X115787520Y-112018342D01*
X115787671Y-112019257D01*
X115792895Y-112045027D01*
X115793124Y-112045971D01*
X115800158Y-112070762D01*
X115800471Y-112071716D01*
X115809314Y-112095527D01*
X115809710Y-112096476D01*
X115820363Y-112119307D01*
X115820840Y-112120229D01*
X115833302Y-112142081D01*
X115833850Y-112142957D01*
X115848122Y-112163830D01*
X115848730Y-112164646D01*
X115864812Y-112184539D01*
X115865462Y-112185283D01*
X115876852Y-112197323D01*
X115697000Y-112509274D01*
X115517138Y-112197306D01*
X115528484Y-112185264D01*
X115529168Y-112184476D01*
X115545040Y-112164583D01*
X115545678Y-112163709D01*
X115559600Y-112142836D01*
X115560173Y-112141891D01*
X115572145Y-112120039D01*
X115572636Y-112119042D01*
X115582659Y-112096211D01*
X115583058Y-112095184D01*
X115591131Y-112071373D01*
X115591432Y-112070341D01*
X115597556Y-112045550D01*
X115597764Y-112044535D01*
X115601938Y-112018765D01*
X115602057Y-112017786D01*
X115604281Y-111991037D01*
X115604324Y-111990111D01*
X115604474Y-111974956D01*
X115783113Y-111974956D01*
X115784025Y-111990718D01*
D20*
G36*
X106553000Y-95885000D02*
G01*
X103886000Y-95885000D01*
X103861224Y-95887440D01*
X103837399Y-95894667D01*
X103815443Y-95906403D01*
X103796197Y-95922197D01*
X103780403Y-95941443D01*
X103768667Y-95963399D01*
X103761440Y-95987224D01*
X103759000Y-96012000D01*
X103759000Y-100584000D01*
X103761440Y-100608776D01*
X103768667Y-100632601D01*
X103780403Y-100654557D01*
X103796197Y-100673803D01*
X103815443Y-100689597D01*
X103837399Y-100701333D01*
X103861224Y-100708560D01*
X103886000Y-100711000D01*
X106553000Y-100711000D01*
X106553000Y-102997000D01*
X102489000Y-102997000D01*
X102489000Y-93853000D01*
X106553000Y-93853000D01*
X106553000Y-95885000D01*
G37*
X106553000Y-95885000D02*
X103886000Y-95885000D01*
X103861224Y-95887440D01*
X103837399Y-95894667D01*
X103815443Y-95906403D01*
X103796197Y-95922197D01*
X103780403Y-95941443D01*
X103768667Y-95963399D01*
X103761440Y-95987224D01*
X103759000Y-96012000D01*
X103759000Y-100584000D01*
X103761440Y-100608776D01*
X103768667Y-100632601D01*
X103780403Y-100654557D01*
X103796197Y-100673803D01*
X103815443Y-100689597D01*
X103837399Y-100701333D01*
X103861224Y-100708560D01*
X103886000Y-100711000D01*
X106553000Y-100711000D01*
X106553000Y-102997000D01*
X102489000Y-102997000D01*
X102489000Y-93853000D01*
X106553000Y-93853000D01*
X106553000Y-95885000D01*
G36*
X110363000Y-90297000D02*
G01*
X102489000Y-90297000D01*
X102489000Y-88011000D01*
X110363000Y-88011000D01*
X110363000Y-90297000D01*
G37*
X110363000Y-90297000D02*
X102489000Y-90297000D01*
X102489000Y-88011000D01*
X110363000Y-88011000D01*
X110363000Y-90297000D01*
G36*
X110333847Y-108839000D02*
G01*
X102459847Y-108839000D01*
X102459847Y-106553000D01*
X110333847Y-106553000D01*
X110333847Y-108839000D01*
G37*
X110333847Y-108839000D02*
X102459847Y-108839000D01*
X102459847Y-106553000D01*
X110333847Y-106553000D01*
X110333847Y-108839000D01*
G36*
X103759000Y-108839000D02*
G01*
X102489000Y-108839000D01*
X102489000Y-88011000D01*
X103759000Y-88011000D01*
X103759000Y-108839000D01*
G37*
X103759000Y-108839000D02*
X102489000Y-108839000D01*
X102489000Y-88011000D01*
X103759000Y-88011000D01*
X103759000Y-108839000D01*
M02*
