G04 #@! TF.GenerationSoftware,KiCad,Pcbnew,(5.1.5)-2*
G04 #@! TF.CreationDate,2020-08-01T22:44:24+08:00*
G04 #@! TF.ProjectId,Module_ADS1263,4d6f6475-6c65-45f4-9144-53313236332e,rev?*
G04 #@! TF.SameCoordinates,Original*
G04 #@! TF.FileFunction,Soldermask,Top*
G04 #@! TF.FilePolarity,Negative*
%FSLAX46Y46*%
G04 Gerber Fmt 4.6, Leading zero omitted, Abs format (unit mm)*
G04 Created by KiCad (PCBNEW (5.1.5)-2) date 2020-08-01 22:44:24*
%MOMM*%
%LPD*%
G04 APERTURE LIST*
%ADD10C,0.100000*%
%ADD11C,1.000000*%
G04 APERTURE END LIST*
D10*
G36*
X112649000Y-131318000D02*
G01*
X106934000Y-131318000D01*
X106934000Y-129413000D01*
X112649000Y-129413000D01*
X112649000Y-131318000D01*
G37*
X112649000Y-131318000D02*
X106934000Y-131318000D01*
X106934000Y-129413000D01*
X112649000Y-129413000D01*
X112649000Y-131318000D01*
D11*
X105640000Y-85090000D02*
G75*
G03X105640000Y-85090000I-1500000J0D01*
G01*
X105640000Y-129540000D02*
G75*
G03X105640000Y-129540000I-1500000J0D01*
G01*
X150090000Y-129540000D02*
G75*
G03X150090000Y-129540000I-1500000J0D01*
G01*
X150090000Y-85090000D02*
G75*
G03X150090000Y-85090000I-1500000J0D01*
G01*
D10*
G36*
X138543512Y-127373927D02*
G01*
X138692812Y-127403624D01*
X138856784Y-127471544D01*
X139004354Y-127570147D01*
X139129853Y-127695646D01*
X139228456Y-127843216D01*
X139296376Y-128007188D01*
X139331000Y-128181259D01*
X139331000Y-128358741D01*
X139296376Y-128532812D01*
X139228456Y-128696784D01*
X139129853Y-128844354D01*
X139004354Y-128969853D01*
X138856784Y-129068456D01*
X138692812Y-129136376D01*
X138543512Y-129166073D01*
X138518742Y-129171000D01*
X138341258Y-129171000D01*
X138316488Y-129166073D01*
X138167188Y-129136376D01*
X138003216Y-129068456D01*
X137855646Y-128969853D01*
X137730147Y-128844354D01*
X137631544Y-128696784D01*
X137563624Y-128532812D01*
X137529000Y-128358741D01*
X137529000Y-128181259D01*
X137563624Y-128007188D01*
X137631544Y-127843216D01*
X137730147Y-127695646D01*
X137855646Y-127570147D01*
X138003216Y-127471544D01*
X138167188Y-127403624D01*
X138316488Y-127373927D01*
X138341258Y-127369000D01*
X138518742Y-127369000D01*
X138543512Y-127373927D01*
G37*
G36*
X141083512Y-127373927D02*
G01*
X141232812Y-127403624D01*
X141396784Y-127471544D01*
X141544354Y-127570147D01*
X141669853Y-127695646D01*
X141768456Y-127843216D01*
X141836376Y-128007188D01*
X141871000Y-128181259D01*
X141871000Y-128358741D01*
X141836376Y-128532812D01*
X141768456Y-128696784D01*
X141669853Y-128844354D01*
X141544354Y-128969853D01*
X141396784Y-129068456D01*
X141232812Y-129136376D01*
X141083512Y-129166073D01*
X141058742Y-129171000D01*
X140881258Y-129171000D01*
X140856488Y-129166073D01*
X140707188Y-129136376D01*
X140543216Y-129068456D01*
X140395646Y-128969853D01*
X140270147Y-128844354D01*
X140171544Y-128696784D01*
X140103624Y-128532812D01*
X140069000Y-128358741D01*
X140069000Y-128181259D01*
X140103624Y-128007188D01*
X140171544Y-127843216D01*
X140270147Y-127695646D01*
X140395646Y-127570147D01*
X140543216Y-127471544D01*
X140707188Y-127403624D01*
X140856488Y-127373927D01*
X140881258Y-127369000D01*
X141058742Y-127369000D01*
X141083512Y-127373927D01*
G37*
G36*
X143623512Y-127373927D02*
G01*
X143772812Y-127403624D01*
X143936784Y-127471544D01*
X144084354Y-127570147D01*
X144209853Y-127695646D01*
X144308456Y-127843216D01*
X144376376Y-128007188D01*
X144411000Y-128181259D01*
X144411000Y-128358741D01*
X144376376Y-128532812D01*
X144308456Y-128696784D01*
X144209853Y-128844354D01*
X144084354Y-128969853D01*
X143936784Y-129068456D01*
X143772812Y-129136376D01*
X143623512Y-129166073D01*
X143598742Y-129171000D01*
X143421258Y-129171000D01*
X143396488Y-129166073D01*
X143247188Y-129136376D01*
X143083216Y-129068456D01*
X142935646Y-128969853D01*
X142810147Y-128844354D01*
X142711544Y-128696784D01*
X142643624Y-128532812D01*
X142609000Y-128358741D01*
X142609000Y-128181259D01*
X142643624Y-128007188D01*
X142711544Y-127843216D01*
X142810147Y-127695646D01*
X142935646Y-127570147D01*
X143083216Y-127471544D01*
X143247188Y-127403624D01*
X143396488Y-127373927D01*
X143421258Y-127369000D01*
X143598742Y-127369000D01*
X143623512Y-127373927D01*
G37*
G36*
X131711000Y-129171000D02*
G01*
X129909000Y-129171000D01*
X129909000Y-127369000D01*
X131711000Y-127369000D01*
X131711000Y-129171000D01*
G37*
G36*
X136003512Y-127373927D02*
G01*
X136152812Y-127403624D01*
X136316784Y-127471544D01*
X136464354Y-127570147D01*
X136589853Y-127695646D01*
X136688456Y-127843216D01*
X136756376Y-128007188D01*
X136791000Y-128181259D01*
X136791000Y-128358741D01*
X136756376Y-128532812D01*
X136688456Y-128696784D01*
X136589853Y-128844354D01*
X136464354Y-128969853D01*
X136316784Y-129068456D01*
X136152812Y-129136376D01*
X136003512Y-129166073D01*
X135978742Y-129171000D01*
X135801258Y-129171000D01*
X135776488Y-129166073D01*
X135627188Y-129136376D01*
X135463216Y-129068456D01*
X135315646Y-128969853D01*
X135190147Y-128844354D01*
X135091544Y-128696784D01*
X135023624Y-128532812D01*
X134989000Y-128358741D01*
X134989000Y-128181259D01*
X135023624Y-128007188D01*
X135091544Y-127843216D01*
X135190147Y-127695646D01*
X135315646Y-127570147D01*
X135463216Y-127471544D01*
X135627188Y-127403624D01*
X135776488Y-127373927D01*
X135801258Y-127369000D01*
X135978742Y-127369000D01*
X136003512Y-127373927D01*
G37*
G36*
X133463512Y-127373927D02*
G01*
X133612812Y-127403624D01*
X133776784Y-127471544D01*
X133924354Y-127570147D01*
X134049853Y-127695646D01*
X134148456Y-127843216D01*
X134216376Y-128007188D01*
X134251000Y-128181259D01*
X134251000Y-128358741D01*
X134216376Y-128532812D01*
X134148456Y-128696784D01*
X134049853Y-128844354D01*
X133924354Y-128969853D01*
X133776784Y-129068456D01*
X133612812Y-129136376D01*
X133463512Y-129166073D01*
X133438742Y-129171000D01*
X133261258Y-129171000D01*
X133236488Y-129166073D01*
X133087188Y-129136376D01*
X132923216Y-129068456D01*
X132775646Y-128969853D01*
X132650147Y-128844354D01*
X132551544Y-128696784D01*
X132483624Y-128532812D01*
X132449000Y-128358741D01*
X132449000Y-128181259D01*
X132483624Y-128007188D01*
X132551544Y-127843216D01*
X132650147Y-127695646D01*
X132775646Y-127570147D01*
X132923216Y-127471544D01*
X133087188Y-127403624D01*
X133236488Y-127373927D01*
X133261258Y-127369000D01*
X133438742Y-127369000D01*
X133463512Y-127373927D01*
G37*
G36*
X124848604Y-126840347D02*
G01*
X124885144Y-126851432D01*
X124918821Y-126869433D01*
X124948341Y-126893659D01*
X124972567Y-126923179D01*
X124990568Y-126956856D01*
X125001653Y-126993396D01*
X125006000Y-127037538D01*
X125006000Y-128486462D01*
X125001653Y-128530604D01*
X124990568Y-128567144D01*
X124972567Y-128600821D01*
X124948341Y-128630341D01*
X124918821Y-128654567D01*
X124885144Y-128672568D01*
X124848604Y-128683653D01*
X124804462Y-128688000D01*
X123855538Y-128688000D01*
X123811396Y-128683653D01*
X123774856Y-128672568D01*
X123741179Y-128654567D01*
X123711659Y-128630341D01*
X123687433Y-128600821D01*
X123669432Y-128567144D01*
X123658347Y-128530604D01*
X123654000Y-128486462D01*
X123654000Y-127037538D01*
X123658347Y-126993396D01*
X123669432Y-126956856D01*
X123687433Y-126923179D01*
X123711659Y-126893659D01*
X123741179Y-126869433D01*
X123774856Y-126851432D01*
X123811396Y-126840347D01*
X123855538Y-126836000D01*
X124804462Y-126836000D01*
X124848604Y-126840347D01*
G37*
G36*
X127648604Y-126840347D02*
G01*
X127685144Y-126851432D01*
X127718821Y-126869433D01*
X127748341Y-126893659D01*
X127772567Y-126923179D01*
X127790568Y-126956856D01*
X127801653Y-126993396D01*
X127806000Y-127037538D01*
X127806000Y-128486462D01*
X127801653Y-128530604D01*
X127790568Y-128567144D01*
X127772567Y-128600821D01*
X127748341Y-128630341D01*
X127718821Y-128654567D01*
X127685144Y-128672568D01*
X127648604Y-128683653D01*
X127604462Y-128688000D01*
X126655538Y-128688000D01*
X126611396Y-128683653D01*
X126574856Y-128672568D01*
X126541179Y-128654567D01*
X126511659Y-128630341D01*
X126487433Y-128600821D01*
X126469432Y-128567144D01*
X126458347Y-128530604D01*
X126454000Y-128486462D01*
X126454000Y-127037538D01*
X126458347Y-126993396D01*
X126469432Y-126956856D01*
X126487433Y-126923179D01*
X126511659Y-126893659D01*
X126541179Y-126869433D01*
X126574856Y-126851432D01*
X126611396Y-126840347D01*
X126655538Y-126836000D01*
X127604462Y-126836000D01*
X127648604Y-126840347D01*
G37*
G36*
X112133000Y-128413000D02*
G01*
X111131000Y-128413000D01*
X111131000Y-127111000D01*
X112133000Y-127111000D01*
X112133000Y-128413000D01*
G37*
G36*
X108833000Y-128413000D02*
G01*
X107831000Y-128413000D01*
X107831000Y-127111000D01*
X108833000Y-127111000D01*
X108833000Y-128413000D01*
G37*
G36*
X115437000Y-128413000D02*
G01*
X114435000Y-128413000D01*
X114435000Y-127111000D01*
X115437000Y-127111000D01*
X115437000Y-128413000D01*
G37*
G36*
X118737000Y-128413000D02*
G01*
X117735000Y-128413000D01*
X117735000Y-127111000D01*
X118737000Y-127111000D01*
X118737000Y-128413000D01*
G37*
G36*
X133463512Y-124833927D02*
G01*
X133612812Y-124863624D01*
X133776784Y-124931544D01*
X133924354Y-125030147D01*
X134049853Y-125155646D01*
X134148456Y-125303216D01*
X134216376Y-125467188D01*
X134251000Y-125641259D01*
X134251000Y-125818741D01*
X134216376Y-125992812D01*
X134148456Y-126156784D01*
X134049853Y-126304354D01*
X133924354Y-126429853D01*
X133776784Y-126528456D01*
X133612812Y-126596376D01*
X133463512Y-126626073D01*
X133438742Y-126631000D01*
X133261258Y-126631000D01*
X133236488Y-126626073D01*
X133087188Y-126596376D01*
X132923216Y-126528456D01*
X132775646Y-126429853D01*
X132650147Y-126304354D01*
X132551544Y-126156784D01*
X132483624Y-125992812D01*
X132449000Y-125818741D01*
X132449000Y-125641259D01*
X132483624Y-125467188D01*
X132551544Y-125303216D01*
X132650147Y-125155646D01*
X132775646Y-125030147D01*
X132923216Y-124931544D01*
X133087188Y-124863624D01*
X133236488Y-124833927D01*
X133261258Y-124829000D01*
X133438742Y-124829000D01*
X133463512Y-124833927D01*
G37*
G36*
X131711000Y-126631000D02*
G01*
X129909000Y-126631000D01*
X129909000Y-124829000D01*
X131711000Y-124829000D01*
X131711000Y-126631000D01*
G37*
G36*
X138543512Y-124833927D02*
G01*
X138692812Y-124863624D01*
X138856784Y-124931544D01*
X139004354Y-125030147D01*
X139129853Y-125155646D01*
X139228456Y-125303216D01*
X139296376Y-125467188D01*
X139331000Y-125641259D01*
X139331000Y-125818741D01*
X139296376Y-125992812D01*
X139228456Y-126156784D01*
X139129853Y-126304354D01*
X139004354Y-126429853D01*
X138856784Y-126528456D01*
X138692812Y-126596376D01*
X138543512Y-126626073D01*
X138518742Y-126631000D01*
X138341258Y-126631000D01*
X138316488Y-126626073D01*
X138167188Y-126596376D01*
X138003216Y-126528456D01*
X137855646Y-126429853D01*
X137730147Y-126304354D01*
X137631544Y-126156784D01*
X137563624Y-125992812D01*
X137529000Y-125818741D01*
X137529000Y-125641259D01*
X137563624Y-125467188D01*
X137631544Y-125303216D01*
X137730147Y-125155646D01*
X137855646Y-125030147D01*
X138003216Y-124931544D01*
X138167188Y-124863624D01*
X138316488Y-124833927D01*
X138341258Y-124829000D01*
X138518742Y-124829000D01*
X138543512Y-124833927D01*
G37*
G36*
X141083512Y-124833927D02*
G01*
X141232812Y-124863624D01*
X141396784Y-124931544D01*
X141544354Y-125030147D01*
X141669853Y-125155646D01*
X141768456Y-125303216D01*
X141836376Y-125467188D01*
X141871000Y-125641259D01*
X141871000Y-125818741D01*
X141836376Y-125992812D01*
X141768456Y-126156784D01*
X141669853Y-126304354D01*
X141544354Y-126429853D01*
X141396784Y-126528456D01*
X141232812Y-126596376D01*
X141083512Y-126626073D01*
X141058742Y-126631000D01*
X140881258Y-126631000D01*
X140856488Y-126626073D01*
X140707188Y-126596376D01*
X140543216Y-126528456D01*
X140395646Y-126429853D01*
X140270147Y-126304354D01*
X140171544Y-126156784D01*
X140103624Y-125992812D01*
X140069000Y-125818741D01*
X140069000Y-125641259D01*
X140103624Y-125467188D01*
X140171544Y-125303216D01*
X140270147Y-125155646D01*
X140395646Y-125030147D01*
X140543216Y-124931544D01*
X140707188Y-124863624D01*
X140856488Y-124833927D01*
X140881258Y-124829000D01*
X141058742Y-124829000D01*
X141083512Y-124833927D01*
G37*
G36*
X143623512Y-124833927D02*
G01*
X143772812Y-124863624D01*
X143936784Y-124931544D01*
X144084354Y-125030147D01*
X144209853Y-125155646D01*
X144308456Y-125303216D01*
X144376376Y-125467188D01*
X144411000Y-125641259D01*
X144411000Y-125818741D01*
X144376376Y-125992812D01*
X144308456Y-126156784D01*
X144209853Y-126304354D01*
X144084354Y-126429853D01*
X143936784Y-126528456D01*
X143772812Y-126596376D01*
X143623512Y-126626073D01*
X143598742Y-126631000D01*
X143421258Y-126631000D01*
X143396488Y-126626073D01*
X143247188Y-126596376D01*
X143083216Y-126528456D01*
X142935646Y-126429853D01*
X142810147Y-126304354D01*
X142711544Y-126156784D01*
X142643624Y-125992812D01*
X142609000Y-125818741D01*
X142609000Y-125641259D01*
X142643624Y-125467188D01*
X142711544Y-125303216D01*
X142810147Y-125155646D01*
X142935646Y-125030147D01*
X143083216Y-124931544D01*
X143247188Y-124863624D01*
X143396488Y-124833927D01*
X143421258Y-124829000D01*
X143598742Y-124829000D01*
X143623512Y-124833927D01*
G37*
G36*
X136003512Y-124833927D02*
G01*
X136152812Y-124863624D01*
X136316784Y-124931544D01*
X136464354Y-125030147D01*
X136589853Y-125155646D01*
X136688456Y-125303216D01*
X136756376Y-125467188D01*
X136791000Y-125641259D01*
X136791000Y-125818741D01*
X136756376Y-125992812D01*
X136688456Y-126156784D01*
X136589853Y-126304354D01*
X136464354Y-126429853D01*
X136316784Y-126528456D01*
X136152812Y-126596376D01*
X136003512Y-126626073D01*
X135978742Y-126631000D01*
X135801258Y-126631000D01*
X135776488Y-126626073D01*
X135627188Y-126596376D01*
X135463216Y-126528456D01*
X135315646Y-126429853D01*
X135190147Y-126304354D01*
X135091544Y-126156784D01*
X135023624Y-125992812D01*
X134989000Y-125818741D01*
X134989000Y-125641259D01*
X135023624Y-125467188D01*
X135091544Y-125303216D01*
X135190147Y-125155646D01*
X135315646Y-125030147D01*
X135463216Y-124931544D01*
X135627188Y-124863624D01*
X135776488Y-124833927D01*
X135801258Y-124829000D01*
X135978742Y-124829000D01*
X136003512Y-124833927D01*
G37*
G36*
X111068425Y-122252760D02*
G01*
X111068428Y-122252761D01*
X111068429Y-122252761D01*
X111247693Y-122307140D01*
X111247696Y-122307142D01*
X111247697Y-122307142D01*
X111412903Y-122395446D01*
X111557712Y-122514288D01*
X111676554Y-122659097D01*
X111764858Y-122824303D01*
X111764860Y-122824307D01*
X111819239Y-123003571D01*
X111819240Y-123003575D01*
X111837601Y-123190000D01*
X111819240Y-123376425D01*
X111819239Y-123376428D01*
X111819239Y-123376429D01*
X111764860Y-123555693D01*
X111764858Y-123555696D01*
X111764858Y-123555697D01*
X111676554Y-123720903D01*
X111557712Y-123865712D01*
X111412903Y-123984554D01*
X111252241Y-124070429D01*
X111247693Y-124072860D01*
X111068429Y-124127239D01*
X111068428Y-124127239D01*
X111068425Y-124127240D01*
X110928718Y-124141000D01*
X109035282Y-124141000D01*
X108895575Y-124127240D01*
X108895572Y-124127239D01*
X108895571Y-124127239D01*
X108716307Y-124072860D01*
X108711759Y-124070429D01*
X108551097Y-123984554D01*
X108406288Y-123865712D01*
X108287446Y-123720903D01*
X108199142Y-123555697D01*
X108199142Y-123555696D01*
X108199140Y-123555693D01*
X108144761Y-123376429D01*
X108144761Y-123376428D01*
X108144760Y-123376425D01*
X108126399Y-123190000D01*
X108144760Y-123003575D01*
X108144761Y-123003571D01*
X108199140Y-122824307D01*
X108199142Y-122824303D01*
X108287446Y-122659097D01*
X108406288Y-122514288D01*
X108551097Y-122395446D01*
X108716303Y-122307142D01*
X108716304Y-122307142D01*
X108716307Y-122307140D01*
X108895571Y-122252761D01*
X108895572Y-122252761D01*
X108895575Y-122252760D01*
X109035282Y-122239000D01*
X110928718Y-122239000D01*
X111068425Y-122252760D01*
G37*
G36*
X120022604Y-122268347D02*
G01*
X120059144Y-122279432D01*
X120092821Y-122297433D01*
X120122341Y-122321659D01*
X120146567Y-122351179D01*
X120164568Y-122384856D01*
X120175653Y-122421396D01*
X120180000Y-122465538D01*
X120180000Y-123914462D01*
X120175653Y-123958604D01*
X120164568Y-123995144D01*
X120146567Y-124028821D01*
X120122341Y-124058341D01*
X120092821Y-124082567D01*
X120059144Y-124100568D01*
X120022604Y-124111653D01*
X119978462Y-124116000D01*
X119029538Y-124116000D01*
X118985396Y-124111653D01*
X118948856Y-124100568D01*
X118915179Y-124082567D01*
X118885659Y-124058341D01*
X118861433Y-124028821D01*
X118843432Y-123995144D01*
X118832347Y-123958604D01*
X118828000Y-123914462D01*
X118828000Y-122465538D01*
X118832347Y-122421396D01*
X118843432Y-122384856D01*
X118861433Y-122351179D01*
X118885659Y-122321659D01*
X118915179Y-122297433D01*
X118948856Y-122279432D01*
X118985396Y-122268347D01*
X119029538Y-122264000D01*
X119978462Y-122264000D01*
X120022604Y-122268347D01*
G37*
G36*
X122822604Y-122268347D02*
G01*
X122859144Y-122279432D01*
X122892821Y-122297433D01*
X122922341Y-122321659D01*
X122946567Y-122351179D01*
X122964568Y-122384856D01*
X122975653Y-122421396D01*
X122980000Y-122465538D01*
X122980000Y-123914462D01*
X122975653Y-123958604D01*
X122964568Y-123995144D01*
X122946567Y-124028821D01*
X122922341Y-124058341D01*
X122892821Y-124082567D01*
X122859144Y-124100568D01*
X122822604Y-124111653D01*
X122778462Y-124116000D01*
X121829538Y-124116000D01*
X121785396Y-124111653D01*
X121748856Y-124100568D01*
X121715179Y-124082567D01*
X121685659Y-124058341D01*
X121661433Y-124028821D01*
X121643432Y-123995144D01*
X121632347Y-123958604D01*
X121628000Y-123914462D01*
X121628000Y-122465538D01*
X121632347Y-122421396D01*
X121643432Y-122384856D01*
X121661433Y-122351179D01*
X121685659Y-122321659D01*
X121715179Y-122297433D01*
X121748856Y-122279432D01*
X121785396Y-122268347D01*
X121829538Y-122264000D01*
X122778462Y-122264000D01*
X122822604Y-122268347D01*
G37*
G36*
X118250604Y-122268347D02*
G01*
X118287144Y-122279432D01*
X118320821Y-122297433D01*
X118350341Y-122321659D01*
X118374567Y-122351179D01*
X118392568Y-122384856D01*
X118403653Y-122421396D01*
X118408000Y-122465538D01*
X118408000Y-123914462D01*
X118403653Y-123958604D01*
X118392568Y-123995144D01*
X118374567Y-124028821D01*
X118350341Y-124058341D01*
X118320821Y-124082567D01*
X118287144Y-124100568D01*
X118250604Y-124111653D01*
X118206462Y-124116000D01*
X117257538Y-124116000D01*
X117213396Y-124111653D01*
X117176856Y-124100568D01*
X117143179Y-124082567D01*
X117113659Y-124058341D01*
X117089433Y-124028821D01*
X117071432Y-123995144D01*
X117060347Y-123958604D01*
X117056000Y-123914462D01*
X117056000Y-122465538D01*
X117060347Y-122421396D01*
X117071432Y-122384856D01*
X117089433Y-122351179D01*
X117113659Y-122321659D01*
X117143179Y-122297433D01*
X117176856Y-122279432D01*
X117213396Y-122268347D01*
X117257538Y-122264000D01*
X118206462Y-122264000D01*
X118250604Y-122268347D01*
G37*
G36*
X115450604Y-122268347D02*
G01*
X115487144Y-122279432D01*
X115520821Y-122297433D01*
X115550341Y-122321659D01*
X115574567Y-122351179D01*
X115592568Y-122384856D01*
X115603653Y-122421396D01*
X115608000Y-122465538D01*
X115608000Y-123914462D01*
X115603653Y-123958604D01*
X115592568Y-123995144D01*
X115574567Y-124028821D01*
X115550341Y-124058341D01*
X115520821Y-124082567D01*
X115487144Y-124100568D01*
X115450604Y-124111653D01*
X115406462Y-124116000D01*
X114457538Y-124116000D01*
X114413396Y-124111653D01*
X114376856Y-124100568D01*
X114343179Y-124082567D01*
X114313659Y-124058341D01*
X114289433Y-124028821D01*
X114271432Y-123995144D01*
X114260347Y-123958604D01*
X114256000Y-123914462D01*
X114256000Y-122465538D01*
X114260347Y-122421396D01*
X114271432Y-122384856D01*
X114289433Y-122351179D01*
X114313659Y-122321659D01*
X114343179Y-122297433D01*
X114376856Y-122279432D01*
X114413396Y-122268347D01*
X114457538Y-122264000D01*
X115406462Y-122264000D01*
X115450604Y-122268347D01*
G37*
G36*
X126631000Y-124091000D02*
G01*
X124829000Y-124091000D01*
X124829000Y-122289000D01*
X126631000Y-122289000D01*
X126631000Y-124091000D01*
G37*
G36*
X132331000Y-123260000D02*
G01*
X130979000Y-123260000D01*
X130979000Y-122358000D01*
X132331000Y-122358000D01*
X132331000Y-123260000D01*
G37*
G36*
X137411000Y-123260000D02*
G01*
X136059000Y-123260000D01*
X136059000Y-122358000D01*
X137411000Y-122358000D01*
X137411000Y-123260000D01*
G37*
G36*
X133981000Y-123260000D02*
G01*
X132629000Y-123260000D01*
X132629000Y-122358000D01*
X133981000Y-122358000D01*
X133981000Y-123260000D01*
G37*
G36*
X139061000Y-123260000D02*
G01*
X137709000Y-123260000D01*
X137709000Y-122358000D01*
X139061000Y-122358000D01*
X139061000Y-123260000D01*
G37*
G36*
X146553000Y-122571000D02*
G01*
X145551000Y-122571000D01*
X145551000Y-121269000D01*
X146553000Y-121269000D01*
X146553000Y-122571000D01*
G37*
G36*
X149853000Y-122571000D02*
G01*
X148851000Y-122571000D01*
X148851000Y-121269000D01*
X149853000Y-121269000D01*
X149853000Y-122571000D01*
G37*
G36*
X144094468Y-121307565D02*
G01*
X144133138Y-121319296D01*
X144168777Y-121338346D01*
X144200017Y-121363983D01*
X144225654Y-121395223D01*
X144244704Y-121430862D01*
X144256435Y-121469532D01*
X144261000Y-121515888D01*
X144261000Y-122167112D01*
X144256435Y-122213468D01*
X144244704Y-122252138D01*
X144225654Y-122287777D01*
X144200017Y-122319017D01*
X144168777Y-122344654D01*
X144133138Y-122363704D01*
X144094468Y-122375435D01*
X144048112Y-122380000D01*
X142971888Y-122380000D01*
X142925532Y-122375435D01*
X142886862Y-122363704D01*
X142851223Y-122344654D01*
X142819983Y-122319017D01*
X142794346Y-122287777D01*
X142775296Y-122252138D01*
X142763565Y-122213468D01*
X142759000Y-122167112D01*
X142759000Y-121515888D01*
X142763565Y-121469532D01*
X142775296Y-121430862D01*
X142794346Y-121395223D01*
X142819983Y-121363983D01*
X142851223Y-121338346D01*
X142886862Y-121319296D01*
X142925532Y-121307565D01*
X142971888Y-121303000D01*
X144048112Y-121303000D01*
X144094468Y-121307565D01*
G37*
G36*
X121947938Y-121045716D02*
G01*
X121968557Y-121051971D01*
X121987553Y-121062124D01*
X122004208Y-121075792D01*
X122017876Y-121092447D01*
X122028029Y-121111443D01*
X122034284Y-121132062D01*
X122037000Y-121159640D01*
X122037000Y-121618360D01*
X122034284Y-121645938D01*
X122028029Y-121666557D01*
X122017876Y-121685553D01*
X122004208Y-121702208D01*
X121987553Y-121715876D01*
X121968557Y-121726029D01*
X121947938Y-121732284D01*
X121920360Y-121735000D01*
X121411640Y-121735000D01*
X121384062Y-121732284D01*
X121363443Y-121726029D01*
X121344447Y-121715876D01*
X121327792Y-121702208D01*
X121314124Y-121685553D01*
X121303971Y-121666557D01*
X121297716Y-121645938D01*
X121295000Y-121618360D01*
X121295000Y-121159640D01*
X121297716Y-121132062D01*
X121303971Y-121111443D01*
X121314124Y-121092447D01*
X121327792Y-121075792D01*
X121344447Y-121062124D01*
X121363443Y-121051971D01*
X121384062Y-121045716D01*
X121411640Y-121043000D01*
X121920360Y-121043000D01*
X121947938Y-121045716D01*
G37*
G36*
X122963938Y-121045716D02*
G01*
X122984557Y-121051971D01*
X123003553Y-121062124D01*
X123020208Y-121075792D01*
X123033876Y-121092447D01*
X123044029Y-121111443D01*
X123050284Y-121132062D01*
X123053000Y-121159640D01*
X123053000Y-121618360D01*
X123050284Y-121645938D01*
X123044029Y-121666557D01*
X123033876Y-121685553D01*
X123020208Y-121702208D01*
X123003553Y-121715876D01*
X122984557Y-121726029D01*
X122963938Y-121732284D01*
X122936360Y-121735000D01*
X122427640Y-121735000D01*
X122400062Y-121732284D01*
X122379443Y-121726029D01*
X122360447Y-121715876D01*
X122343792Y-121702208D01*
X122330124Y-121685553D01*
X122319971Y-121666557D01*
X122313716Y-121645938D01*
X122311000Y-121618360D01*
X122311000Y-121159640D01*
X122313716Y-121132062D01*
X122319971Y-121111443D01*
X122330124Y-121092447D01*
X122343792Y-121075792D01*
X122360447Y-121062124D01*
X122379443Y-121051971D01*
X122400062Y-121045716D01*
X122427640Y-121043000D01*
X122936360Y-121043000D01*
X122963938Y-121045716D01*
G37*
G36*
X125843512Y-119753927D02*
G01*
X125992812Y-119783624D01*
X126156784Y-119851544D01*
X126304354Y-119950147D01*
X126429853Y-120075646D01*
X126528456Y-120223216D01*
X126596376Y-120387188D01*
X126631000Y-120561259D01*
X126631000Y-120738741D01*
X126596376Y-120912812D01*
X126528456Y-121076784D01*
X126429853Y-121224354D01*
X126304354Y-121349853D01*
X126156784Y-121448456D01*
X125992812Y-121516376D01*
X125843512Y-121546073D01*
X125818742Y-121551000D01*
X125641258Y-121551000D01*
X125616488Y-121546073D01*
X125467188Y-121516376D01*
X125303216Y-121448456D01*
X125155646Y-121349853D01*
X125030147Y-121224354D01*
X124931544Y-121076784D01*
X124863624Y-120912812D01*
X124829000Y-120738741D01*
X124829000Y-120561259D01*
X124863624Y-120387188D01*
X124931544Y-120223216D01*
X125030147Y-120075646D01*
X125155646Y-119950147D01*
X125303216Y-119851544D01*
X125467188Y-119783624D01*
X125616488Y-119753927D01*
X125641258Y-119749000D01*
X125818742Y-119749000D01*
X125843512Y-119753927D01*
G37*
G36*
X137411000Y-121460000D02*
G01*
X136059000Y-121460000D01*
X136059000Y-120558000D01*
X137411000Y-120558000D01*
X137411000Y-121460000D01*
G37*
G36*
X132331000Y-121460000D02*
G01*
X130979000Y-121460000D01*
X130979000Y-120558000D01*
X132331000Y-120558000D01*
X132331000Y-121460000D01*
G37*
G36*
X139061000Y-121460000D02*
G01*
X137709000Y-121460000D01*
X137709000Y-120558000D01*
X139061000Y-120558000D01*
X139061000Y-121460000D01*
G37*
G36*
X133981000Y-121460000D02*
G01*
X132629000Y-121460000D01*
X132629000Y-120558000D01*
X133981000Y-120558000D01*
X133981000Y-121460000D01*
G37*
G36*
X120731170Y-118917803D02*
G01*
X120742875Y-118921354D01*
X120753665Y-118927121D01*
X120763119Y-118934881D01*
X120770879Y-118944335D01*
X120776646Y-118955125D01*
X120780197Y-118966830D01*
X120782000Y-118985138D01*
X120782000Y-119348862D01*
X120780197Y-119367170D01*
X120776646Y-119378875D01*
X120770879Y-119389665D01*
X120759370Y-119403688D01*
X120750355Y-119412704D01*
X120736741Y-119433078D01*
X120727365Y-119455717D01*
X120722585Y-119479751D01*
X120722585Y-119504255D01*
X120727366Y-119528288D01*
X120736744Y-119550926D01*
X120750358Y-119571301D01*
X120759374Y-119580317D01*
X120770879Y-119594335D01*
X120776646Y-119605125D01*
X120780197Y-119616830D01*
X120782000Y-119635138D01*
X120782000Y-119998862D01*
X120780197Y-120017170D01*
X120776646Y-120028875D01*
X120770879Y-120039665D01*
X120759370Y-120053688D01*
X120750355Y-120062704D01*
X120736741Y-120083078D01*
X120727365Y-120105717D01*
X120722585Y-120129751D01*
X120722585Y-120154255D01*
X120727366Y-120178288D01*
X120736744Y-120200926D01*
X120750358Y-120221301D01*
X120759374Y-120230317D01*
X120770879Y-120244335D01*
X120776646Y-120255125D01*
X120780197Y-120266830D01*
X120782000Y-120285138D01*
X120782000Y-120648862D01*
X120780197Y-120667170D01*
X120776646Y-120678875D01*
X120770879Y-120689665D01*
X120759370Y-120703688D01*
X120750355Y-120712704D01*
X120736741Y-120733078D01*
X120727365Y-120755717D01*
X120722585Y-120779751D01*
X120722585Y-120804255D01*
X120727366Y-120828288D01*
X120736744Y-120850926D01*
X120750358Y-120871301D01*
X120759374Y-120880317D01*
X120770879Y-120894335D01*
X120776646Y-120905125D01*
X120780197Y-120916830D01*
X120782000Y-120935138D01*
X120782000Y-121298862D01*
X120780197Y-121317170D01*
X120776646Y-121328875D01*
X120770879Y-121339665D01*
X120763119Y-121349119D01*
X120753665Y-121356879D01*
X120742875Y-121362646D01*
X120731170Y-121366197D01*
X120712862Y-121368000D01*
X119324138Y-121368000D01*
X119305830Y-121366197D01*
X119294125Y-121362646D01*
X119283335Y-121356879D01*
X119273881Y-121349119D01*
X119266121Y-121339665D01*
X119260354Y-121328875D01*
X119256803Y-121317170D01*
X119255000Y-121298862D01*
X119255000Y-120935138D01*
X119256803Y-120916830D01*
X119260354Y-120905125D01*
X119266121Y-120894335D01*
X119277630Y-120880312D01*
X119286645Y-120871296D01*
X119300259Y-120850922D01*
X119309635Y-120828283D01*
X119314415Y-120804249D01*
X119314415Y-120779745D01*
X119309634Y-120755712D01*
X119300256Y-120733074D01*
X119286642Y-120712699D01*
X119277626Y-120703683D01*
X119266121Y-120689665D01*
X119260354Y-120678875D01*
X119256803Y-120667170D01*
X119255000Y-120648862D01*
X119255000Y-120285138D01*
X119256803Y-120266830D01*
X119260354Y-120255125D01*
X119266121Y-120244335D01*
X119277630Y-120230312D01*
X119286645Y-120221296D01*
X119300259Y-120200922D01*
X119309635Y-120178283D01*
X119314415Y-120154249D01*
X119314415Y-120129745D01*
X119309634Y-120105712D01*
X119300256Y-120083074D01*
X119286642Y-120062699D01*
X119277626Y-120053683D01*
X119266121Y-120039665D01*
X119260354Y-120028875D01*
X119256803Y-120017170D01*
X119255000Y-119998862D01*
X119255000Y-119635138D01*
X119256803Y-119616830D01*
X119260354Y-119605125D01*
X119266121Y-119594335D01*
X119277630Y-119580312D01*
X119286645Y-119571296D01*
X119300259Y-119550922D01*
X119309635Y-119528283D01*
X119314415Y-119504249D01*
X119314415Y-119479745D01*
X119309634Y-119455712D01*
X119300256Y-119433074D01*
X119286642Y-119412699D01*
X119277626Y-119403683D01*
X119266121Y-119389665D01*
X119260354Y-119378875D01*
X119256803Y-119367170D01*
X119255000Y-119348862D01*
X119255000Y-118985138D01*
X119256803Y-118966830D01*
X119260354Y-118955125D01*
X119266121Y-118944335D01*
X119273881Y-118934881D01*
X119283335Y-118927121D01*
X119294125Y-118921354D01*
X119305830Y-118917803D01*
X119324138Y-118916000D01*
X120712862Y-118916000D01*
X120731170Y-118917803D01*
G37*
G36*
X116406170Y-118917803D02*
G01*
X116417875Y-118921354D01*
X116428665Y-118927121D01*
X116438119Y-118934881D01*
X116445879Y-118944335D01*
X116451646Y-118955125D01*
X116455197Y-118966830D01*
X116457000Y-118985138D01*
X116457000Y-119348862D01*
X116455197Y-119367170D01*
X116451646Y-119378875D01*
X116445879Y-119389665D01*
X116434370Y-119403688D01*
X116425355Y-119412704D01*
X116411741Y-119433078D01*
X116402365Y-119455717D01*
X116397585Y-119479751D01*
X116397585Y-119504255D01*
X116402366Y-119528288D01*
X116411744Y-119550926D01*
X116425358Y-119571301D01*
X116434374Y-119580317D01*
X116445879Y-119594335D01*
X116451646Y-119605125D01*
X116455197Y-119616830D01*
X116457000Y-119635138D01*
X116457000Y-119998862D01*
X116455197Y-120017170D01*
X116451646Y-120028875D01*
X116445879Y-120039665D01*
X116434370Y-120053688D01*
X116425355Y-120062704D01*
X116411741Y-120083078D01*
X116402365Y-120105717D01*
X116397585Y-120129751D01*
X116397585Y-120154255D01*
X116402366Y-120178288D01*
X116411744Y-120200926D01*
X116425358Y-120221301D01*
X116434374Y-120230317D01*
X116445879Y-120244335D01*
X116451646Y-120255125D01*
X116455197Y-120266830D01*
X116457000Y-120285138D01*
X116457000Y-120648862D01*
X116455197Y-120667170D01*
X116451646Y-120678875D01*
X116445879Y-120689665D01*
X116434370Y-120703688D01*
X116425355Y-120712704D01*
X116411741Y-120733078D01*
X116402365Y-120755717D01*
X116397585Y-120779751D01*
X116397585Y-120804255D01*
X116402366Y-120828288D01*
X116411744Y-120850926D01*
X116425358Y-120871301D01*
X116434374Y-120880317D01*
X116445879Y-120894335D01*
X116451646Y-120905125D01*
X116455197Y-120916830D01*
X116457000Y-120935138D01*
X116457000Y-121298862D01*
X116455197Y-121317170D01*
X116451646Y-121328875D01*
X116445879Y-121339665D01*
X116438119Y-121349119D01*
X116428665Y-121356879D01*
X116417875Y-121362646D01*
X116406170Y-121366197D01*
X116387862Y-121368000D01*
X114999138Y-121368000D01*
X114980830Y-121366197D01*
X114969125Y-121362646D01*
X114958335Y-121356879D01*
X114948881Y-121349119D01*
X114941121Y-121339665D01*
X114935354Y-121328875D01*
X114931803Y-121317170D01*
X114930000Y-121298862D01*
X114930000Y-120935138D01*
X114931803Y-120916830D01*
X114935354Y-120905125D01*
X114941121Y-120894335D01*
X114952630Y-120880312D01*
X114961645Y-120871296D01*
X114975259Y-120850922D01*
X114984635Y-120828283D01*
X114989415Y-120804249D01*
X114989415Y-120779745D01*
X114984634Y-120755712D01*
X114975256Y-120733074D01*
X114961642Y-120712699D01*
X114952626Y-120703683D01*
X114941121Y-120689665D01*
X114935354Y-120678875D01*
X114931803Y-120667170D01*
X114930000Y-120648862D01*
X114930000Y-120285138D01*
X114931803Y-120266830D01*
X114935354Y-120255125D01*
X114941121Y-120244335D01*
X114952630Y-120230312D01*
X114961645Y-120221296D01*
X114975259Y-120200922D01*
X114984635Y-120178283D01*
X114989415Y-120154249D01*
X114989415Y-120129745D01*
X114984634Y-120105712D01*
X114975256Y-120083074D01*
X114961642Y-120062699D01*
X114952626Y-120053683D01*
X114941121Y-120039665D01*
X114935354Y-120028875D01*
X114931803Y-120017170D01*
X114930000Y-119998862D01*
X114930000Y-119635138D01*
X114931803Y-119616830D01*
X114935354Y-119605125D01*
X114941121Y-119594335D01*
X114952630Y-119580312D01*
X114961645Y-119571296D01*
X114975259Y-119550922D01*
X114984635Y-119528283D01*
X114989415Y-119504249D01*
X114989415Y-119479745D01*
X114984634Y-119455712D01*
X114975256Y-119433074D01*
X114961642Y-119412699D01*
X114952626Y-119403683D01*
X114941121Y-119389665D01*
X114935354Y-119378875D01*
X114931803Y-119367170D01*
X114930000Y-119348862D01*
X114930000Y-118985138D01*
X114931803Y-118966830D01*
X114935354Y-118955125D01*
X114941121Y-118944335D01*
X114948881Y-118934881D01*
X114958335Y-118927121D01*
X114969125Y-118921354D01*
X114980830Y-118917803D01*
X114999138Y-118916000D01*
X116387862Y-118916000D01*
X116406170Y-118917803D01*
G37*
G36*
X118630322Y-119169972D02*
G01*
X118663206Y-119179947D01*
X118693502Y-119196141D01*
X118720062Y-119217938D01*
X118741859Y-119244498D01*
X118758053Y-119274794D01*
X118768028Y-119307678D01*
X118772000Y-119348008D01*
X118772000Y-120935992D01*
X118768028Y-120976322D01*
X118758053Y-121009206D01*
X118741859Y-121039502D01*
X118720062Y-121066062D01*
X118693502Y-121087859D01*
X118663206Y-121104053D01*
X118630322Y-121114028D01*
X118589992Y-121118000D01*
X117122008Y-121118000D01*
X117081678Y-121114028D01*
X117048794Y-121104053D01*
X117018498Y-121087859D01*
X116991938Y-121066062D01*
X116970141Y-121039502D01*
X116953947Y-121009206D01*
X116943972Y-120976322D01*
X116940000Y-120935992D01*
X116940000Y-119348008D01*
X116943972Y-119307678D01*
X116953947Y-119274794D01*
X116970141Y-119244498D01*
X116991938Y-119217938D01*
X117018498Y-119196141D01*
X117048794Y-119179947D01*
X117081678Y-119169972D01*
X117122008Y-119166000D01*
X118589992Y-119166000D01*
X118630322Y-119169972D01*
G37*
G36*
X122963938Y-120075716D02*
G01*
X122984557Y-120081971D01*
X123003553Y-120092124D01*
X123020208Y-120105792D01*
X123033876Y-120122447D01*
X123044029Y-120141443D01*
X123050284Y-120162062D01*
X123053000Y-120189640D01*
X123053000Y-120648360D01*
X123050284Y-120675938D01*
X123044029Y-120696557D01*
X123033876Y-120715553D01*
X123020208Y-120732208D01*
X123003553Y-120745876D01*
X122984557Y-120756029D01*
X122963938Y-120762284D01*
X122936360Y-120765000D01*
X122427640Y-120765000D01*
X122400062Y-120762284D01*
X122379443Y-120756029D01*
X122360447Y-120745876D01*
X122343792Y-120732208D01*
X122330124Y-120715553D01*
X122319971Y-120696557D01*
X122313716Y-120675938D01*
X122311000Y-120648360D01*
X122311000Y-120189640D01*
X122313716Y-120162062D01*
X122319971Y-120141443D01*
X122330124Y-120122447D01*
X122343792Y-120105792D01*
X122360447Y-120092124D01*
X122379443Y-120081971D01*
X122400062Y-120075716D01*
X122427640Y-120073000D01*
X122936360Y-120073000D01*
X122963938Y-120075716D01*
G37*
G36*
X121947938Y-120075716D02*
G01*
X121968557Y-120081971D01*
X121987553Y-120092124D01*
X122004208Y-120105792D01*
X122017876Y-120122447D01*
X122028029Y-120141443D01*
X122034284Y-120162062D01*
X122037000Y-120189640D01*
X122037000Y-120648360D01*
X122034284Y-120675938D01*
X122028029Y-120696557D01*
X122017876Y-120715553D01*
X122004208Y-120732208D01*
X121987553Y-120745876D01*
X121968557Y-120756029D01*
X121947938Y-120762284D01*
X121920360Y-120765000D01*
X121411640Y-120765000D01*
X121384062Y-120762284D01*
X121363443Y-120756029D01*
X121344447Y-120745876D01*
X121327792Y-120732208D01*
X121314124Y-120715553D01*
X121303971Y-120696557D01*
X121297716Y-120675938D01*
X121295000Y-120648360D01*
X121295000Y-120189640D01*
X121297716Y-120162062D01*
X121303971Y-120141443D01*
X121314124Y-120122447D01*
X121327792Y-120105792D01*
X121344447Y-120092124D01*
X121363443Y-120081971D01*
X121384062Y-120075716D01*
X121411640Y-120073000D01*
X121920360Y-120073000D01*
X121947938Y-120075716D01*
G37*
G36*
X149870604Y-118712347D02*
G01*
X149907144Y-118723432D01*
X149940821Y-118741433D01*
X149970341Y-118765659D01*
X149994567Y-118795179D01*
X150012568Y-118828856D01*
X150023653Y-118865396D01*
X150028000Y-118909538D01*
X150028000Y-120358462D01*
X150023653Y-120402604D01*
X150012568Y-120439144D01*
X149994567Y-120472821D01*
X149970341Y-120502341D01*
X149940821Y-120526567D01*
X149907144Y-120544568D01*
X149870604Y-120555653D01*
X149826462Y-120560000D01*
X148877538Y-120560000D01*
X148833396Y-120555653D01*
X148796856Y-120544568D01*
X148763179Y-120526567D01*
X148733659Y-120502341D01*
X148709433Y-120472821D01*
X148691432Y-120439144D01*
X148680347Y-120402604D01*
X148676000Y-120358462D01*
X148676000Y-118909538D01*
X148680347Y-118865396D01*
X148691432Y-118828856D01*
X148709433Y-118795179D01*
X148733659Y-118765659D01*
X148763179Y-118741433D01*
X148796856Y-118723432D01*
X148833396Y-118712347D01*
X148877538Y-118708000D01*
X149826462Y-118708000D01*
X149870604Y-118712347D01*
G37*
G36*
X147070604Y-118712347D02*
G01*
X147107144Y-118723432D01*
X147140821Y-118741433D01*
X147170341Y-118765659D01*
X147194567Y-118795179D01*
X147212568Y-118828856D01*
X147223653Y-118865396D01*
X147228000Y-118909538D01*
X147228000Y-120358462D01*
X147223653Y-120402604D01*
X147212568Y-120439144D01*
X147194567Y-120472821D01*
X147170341Y-120502341D01*
X147140821Y-120526567D01*
X147107144Y-120544568D01*
X147070604Y-120555653D01*
X147026462Y-120560000D01*
X146077538Y-120560000D01*
X146033396Y-120555653D01*
X145996856Y-120544568D01*
X145963179Y-120526567D01*
X145933659Y-120502341D01*
X145909433Y-120472821D01*
X145891432Y-120439144D01*
X145880347Y-120402604D01*
X145876000Y-120358462D01*
X145876000Y-118909538D01*
X145880347Y-118865396D01*
X145891432Y-118828856D01*
X145909433Y-118795179D01*
X145933659Y-118765659D01*
X145963179Y-118741433D01*
X145996856Y-118723432D01*
X146033396Y-118712347D01*
X146077538Y-118708000D01*
X147026462Y-118708000D01*
X147070604Y-118712347D01*
G37*
G36*
X144094468Y-119432565D02*
G01*
X144133138Y-119444296D01*
X144168777Y-119463346D01*
X144200017Y-119488983D01*
X144225654Y-119520223D01*
X144244704Y-119555862D01*
X144256435Y-119594532D01*
X144261000Y-119640888D01*
X144261000Y-120292112D01*
X144256435Y-120338468D01*
X144244704Y-120377138D01*
X144225654Y-120412777D01*
X144200017Y-120444017D01*
X144168777Y-120469654D01*
X144133138Y-120488704D01*
X144094468Y-120500435D01*
X144048112Y-120505000D01*
X142971888Y-120505000D01*
X142925532Y-120500435D01*
X142886862Y-120488704D01*
X142851223Y-120469654D01*
X142819983Y-120444017D01*
X142794346Y-120412777D01*
X142775296Y-120377138D01*
X142763565Y-120338468D01*
X142759000Y-120292112D01*
X142759000Y-119640888D01*
X142763565Y-119594532D01*
X142775296Y-119555862D01*
X142794346Y-119520223D01*
X142819983Y-119488983D01*
X142851223Y-119463346D01*
X142886862Y-119444296D01*
X142925532Y-119432565D01*
X142971888Y-119428000D01*
X144048112Y-119428000D01*
X144094468Y-119432565D01*
G37*
G36*
X111068425Y-118442760D02*
G01*
X111068428Y-118442761D01*
X111068429Y-118442761D01*
X111247693Y-118497140D01*
X111247696Y-118497142D01*
X111247697Y-118497142D01*
X111412903Y-118585446D01*
X111557712Y-118704288D01*
X111676554Y-118849097D01*
X111763475Y-119011716D01*
X111764860Y-119014307D01*
X111816988Y-119186152D01*
X111819240Y-119193575D01*
X111837601Y-119380000D01*
X111819240Y-119566425D01*
X111819239Y-119566428D01*
X111819239Y-119566429D01*
X111764860Y-119745693D01*
X111764858Y-119745696D01*
X111764858Y-119745697D01*
X111676554Y-119910903D01*
X111557712Y-120055712D01*
X111412904Y-120174553D01*
X111262164Y-120255125D01*
X111247693Y-120262860D01*
X111068429Y-120317239D01*
X111068428Y-120317239D01*
X111068425Y-120317240D01*
X110928718Y-120331000D01*
X109035282Y-120331000D01*
X108895575Y-120317240D01*
X108895572Y-120317239D01*
X108895571Y-120317239D01*
X108716307Y-120262860D01*
X108701836Y-120255125D01*
X108551096Y-120174553D01*
X108406288Y-120055712D01*
X108287446Y-119910903D01*
X108199142Y-119745697D01*
X108199142Y-119745696D01*
X108199140Y-119745693D01*
X108144761Y-119566429D01*
X108144761Y-119566428D01*
X108144760Y-119566425D01*
X108126399Y-119380000D01*
X108144760Y-119193575D01*
X108147012Y-119186152D01*
X108199140Y-119014307D01*
X108200525Y-119011716D01*
X108287446Y-118849097D01*
X108406288Y-118704288D01*
X108551097Y-118585446D01*
X108716303Y-118497142D01*
X108716304Y-118497142D01*
X108716307Y-118497140D01*
X108895571Y-118442761D01*
X108895572Y-118442761D01*
X108895575Y-118442760D01*
X109035282Y-118429000D01*
X110928718Y-118429000D01*
X111068425Y-118442760D01*
G37*
G36*
X114327938Y-119468516D02*
G01*
X114348557Y-119474771D01*
X114367553Y-119484924D01*
X114384208Y-119498592D01*
X114397876Y-119515247D01*
X114408029Y-119534243D01*
X114414284Y-119554862D01*
X114417000Y-119582440D01*
X114417000Y-120041160D01*
X114414284Y-120068738D01*
X114408029Y-120089357D01*
X114397876Y-120108353D01*
X114384208Y-120125008D01*
X114367553Y-120138676D01*
X114348557Y-120148829D01*
X114327938Y-120155084D01*
X114300360Y-120157800D01*
X113791640Y-120157800D01*
X113764062Y-120155084D01*
X113743443Y-120148829D01*
X113724447Y-120138676D01*
X113707792Y-120125008D01*
X113694124Y-120108353D01*
X113683971Y-120089357D01*
X113677716Y-120068738D01*
X113675000Y-120041160D01*
X113675000Y-119582440D01*
X113677716Y-119554862D01*
X113683971Y-119534243D01*
X113694124Y-119515247D01*
X113707792Y-119498592D01*
X113724447Y-119484924D01*
X113743443Y-119474771D01*
X113764062Y-119468516D01*
X113791640Y-119465800D01*
X114300360Y-119465800D01*
X114327938Y-119468516D01*
G37*
G36*
X141838938Y-119011716D02*
G01*
X141859557Y-119017971D01*
X141878553Y-119028124D01*
X141895208Y-119041792D01*
X141908876Y-119058447D01*
X141919029Y-119077443D01*
X141925284Y-119098062D01*
X141928000Y-119125640D01*
X141928000Y-119634360D01*
X141925284Y-119661938D01*
X141919029Y-119682557D01*
X141908876Y-119701553D01*
X141895208Y-119718208D01*
X141878553Y-119731876D01*
X141859557Y-119742029D01*
X141838938Y-119748284D01*
X141811360Y-119751000D01*
X141352640Y-119751000D01*
X141325062Y-119748284D01*
X141304443Y-119742029D01*
X141285447Y-119731876D01*
X141268792Y-119718208D01*
X141255124Y-119701553D01*
X141244971Y-119682557D01*
X141238716Y-119661938D01*
X141236000Y-119634360D01*
X141236000Y-119125640D01*
X141238716Y-119098062D01*
X141244971Y-119077443D01*
X141255124Y-119058447D01*
X141268792Y-119041792D01*
X141285447Y-119028124D01*
X141304443Y-119017971D01*
X141325062Y-119011716D01*
X141352640Y-119009000D01*
X141811360Y-119009000D01*
X141838938Y-119011716D01*
G37*
G36*
X140868938Y-119011716D02*
G01*
X140889557Y-119017971D01*
X140908553Y-119028124D01*
X140925208Y-119041792D01*
X140938876Y-119058447D01*
X140949029Y-119077443D01*
X140955284Y-119098062D01*
X140958000Y-119125640D01*
X140958000Y-119634360D01*
X140955284Y-119661938D01*
X140949029Y-119682557D01*
X140938876Y-119701553D01*
X140925208Y-119718208D01*
X140908553Y-119731876D01*
X140889557Y-119742029D01*
X140868938Y-119748284D01*
X140841360Y-119751000D01*
X140382640Y-119751000D01*
X140355062Y-119748284D01*
X140334443Y-119742029D01*
X140315447Y-119731876D01*
X140298792Y-119718208D01*
X140285124Y-119701553D01*
X140274971Y-119682557D01*
X140268716Y-119661938D01*
X140266000Y-119634360D01*
X140266000Y-119125640D01*
X140268716Y-119098062D01*
X140274971Y-119077443D01*
X140285124Y-119058447D01*
X140298792Y-119041792D01*
X140315447Y-119028124D01*
X140334443Y-119017971D01*
X140355062Y-119011716D01*
X140382640Y-119009000D01*
X140841360Y-119009000D01*
X140868938Y-119011716D01*
G37*
G36*
X121947938Y-119013716D02*
G01*
X121968557Y-119019971D01*
X121987553Y-119030124D01*
X122004208Y-119043792D01*
X122017876Y-119060447D01*
X122028029Y-119079443D01*
X122034284Y-119100062D01*
X122037000Y-119127640D01*
X122037000Y-119586360D01*
X122034284Y-119613938D01*
X122028029Y-119634557D01*
X122017876Y-119653553D01*
X122004208Y-119670208D01*
X121987553Y-119683876D01*
X121968557Y-119694029D01*
X121947938Y-119700284D01*
X121920360Y-119703000D01*
X121411640Y-119703000D01*
X121384062Y-119700284D01*
X121363443Y-119694029D01*
X121344447Y-119683876D01*
X121327792Y-119670208D01*
X121314124Y-119653553D01*
X121303971Y-119634557D01*
X121297716Y-119613938D01*
X121295000Y-119586360D01*
X121295000Y-119127640D01*
X121297716Y-119100062D01*
X121303971Y-119079443D01*
X121314124Y-119060447D01*
X121327792Y-119043792D01*
X121344447Y-119030124D01*
X121363443Y-119019971D01*
X121384062Y-119013716D01*
X121411640Y-119011000D01*
X121920360Y-119011000D01*
X121947938Y-119013716D01*
G37*
G36*
X114327938Y-118498516D02*
G01*
X114348557Y-118504771D01*
X114367553Y-118514924D01*
X114384208Y-118528592D01*
X114397876Y-118545247D01*
X114408029Y-118564243D01*
X114414284Y-118584862D01*
X114417000Y-118612440D01*
X114417000Y-119071160D01*
X114414284Y-119098738D01*
X114408029Y-119119357D01*
X114397876Y-119138353D01*
X114384208Y-119155008D01*
X114367553Y-119168676D01*
X114348557Y-119178829D01*
X114327938Y-119185084D01*
X114300360Y-119187800D01*
X113791640Y-119187800D01*
X113764062Y-119185084D01*
X113743443Y-119178829D01*
X113724447Y-119168676D01*
X113707792Y-119155008D01*
X113694124Y-119138353D01*
X113683971Y-119119357D01*
X113677716Y-119098738D01*
X113675000Y-119071160D01*
X113675000Y-118612440D01*
X113677716Y-118584862D01*
X113683971Y-118564243D01*
X113694124Y-118545247D01*
X113707792Y-118528592D01*
X113724447Y-118514924D01*
X113743443Y-118504771D01*
X113764062Y-118498516D01*
X113791640Y-118495800D01*
X114300360Y-118495800D01*
X114327938Y-118498516D01*
G37*
G36*
X125843512Y-117213927D02*
G01*
X125992812Y-117243624D01*
X126156784Y-117311544D01*
X126304354Y-117410147D01*
X126429853Y-117535646D01*
X126528456Y-117683216D01*
X126596376Y-117847188D01*
X126622661Y-117979337D01*
X126628120Y-118006777D01*
X126631000Y-118021259D01*
X126631000Y-118198741D01*
X126596376Y-118372812D01*
X126528456Y-118536784D01*
X126429853Y-118684354D01*
X126304354Y-118809853D01*
X126156784Y-118908456D01*
X125992812Y-118976376D01*
X125843512Y-119006073D01*
X125818742Y-119011000D01*
X125641258Y-119011000D01*
X125616488Y-119006073D01*
X125467188Y-118976376D01*
X125303216Y-118908456D01*
X125155646Y-118809853D01*
X125030147Y-118684354D01*
X124931544Y-118536784D01*
X124863624Y-118372812D01*
X124829000Y-118198741D01*
X124829000Y-118021259D01*
X124831881Y-118006777D01*
X124837339Y-117979337D01*
X124863624Y-117847188D01*
X124931544Y-117683216D01*
X125030147Y-117535646D01*
X125155646Y-117410147D01*
X125303216Y-117311544D01*
X125467188Y-117243624D01*
X125616488Y-117213927D01*
X125641258Y-117209000D01*
X125818742Y-117209000D01*
X125843512Y-117213927D01*
G37*
G36*
X141838938Y-117995716D02*
G01*
X141859557Y-118001971D01*
X141878553Y-118012124D01*
X141895208Y-118025792D01*
X141908876Y-118042447D01*
X141919029Y-118061443D01*
X141925284Y-118082062D01*
X141928000Y-118109640D01*
X141928000Y-118618360D01*
X141925284Y-118645938D01*
X141919029Y-118666557D01*
X141908876Y-118685553D01*
X141895208Y-118702208D01*
X141878553Y-118715876D01*
X141859557Y-118726029D01*
X141838938Y-118732284D01*
X141811360Y-118735000D01*
X141352640Y-118735000D01*
X141325062Y-118732284D01*
X141304443Y-118726029D01*
X141285447Y-118715876D01*
X141268792Y-118702208D01*
X141255124Y-118685553D01*
X141244971Y-118666557D01*
X141238716Y-118645938D01*
X141236000Y-118618360D01*
X141236000Y-118109640D01*
X141238716Y-118082062D01*
X141244971Y-118061443D01*
X141255124Y-118042447D01*
X141268792Y-118025792D01*
X141285447Y-118012124D01*
X141304443Y-118001971D01*
X141325062Y-117995716D01*
X141352640Y-117993000D01*
X141811360Y-117993000D01*
X141838938Y-117995716D01*
G37*
G36*
X140868938Y-117995716D02*
G01*
X140889557Y-118001971D01*
X140908553Y-118012124D01*
X140925208Y-118025792D01*
X140938876Y-118042447D01*
X140949029Y-118061443D01*
X140955284Y-118082062D01*
X140958000Y-118109640D01*
X140958000Y-118618360D01*
X140955284Y-118645938D01*
X140949029Y-118666557D01*
X140938876Y-118685553D01*
X140925208Y-118702208D01*
X140908553Y-118715876D01*
X140889557Y-118726029D01*
X140868938Y-118732284D01*
X140841360Y-118735000D01*
X140382640Y-118735000D01*
X140355062Y-118732284D01*
X140334443Y-118726029D01*
X140315447Y-118715876D01*
X140298792Y-118702208D01*
X140285124Y-118685553D01*
X140274971Y-118666557D01*
X140268716Y-118645938D01*
X140266000Y-118618360D01*
X140266000Y-118109640D01*
X140268716Y-118082062D01*
X140274971Y-118061443D01*
X140285124Y-118042447D01*
X140298792Y-118025792D01*
X140315447Y-118012124D01*
X140334443Y-118001971D01*
X140355062Y-117995716D01*
X140382640Y-117993000D01*
X140841360Y-117993000D01*
X140868938Y-117995716D01*
G37*
G36*
X121947938Y-118043716D02*
G01*
X121968557Y-118049971D01*
X121987553Y-118060124D01*
X122004208Y-118073792D01*
X122017876Y-118090447D01*
X122028029Y-118109443D01*
X122034284Y-118130062D01*
X122037000Y-118157640D01*
X122037000Y-118616360D01*
X122034284Y-118643938D01*
X122028029Y-118664557D01*
X122017876Y-118683553D01*
X122004208Y-118700208D01*
X121987553Y-118713876D01*
X121968557Y-118724029D01*
X121947938Y-118730284D01*
X121920360Y-118733000D01*
X121411640Y-118733000D01*
X121384062Y-118730284D01*
X121363443Y-118724029D01*
X121344447Y-118713876D01*
X121327792Y-118700208D01*
X121314124Y-118683553D01*
X121303971Y-118664557D01*
X121297716Y-118643938D01*
X121295000Y-118616360D01*
X121295000Y-118157640D01*
X121297716Y-118130062D01*
X121303971Y-118109443D01*
X121314124Y-118090447D01*
X121327792Y-118073792D01*
X121344447Y-118060124D01*
X121363443Y-118049971D01*
X121384062Y-118043716D01*
X121411640Y-118041000D01*
X121920360Y-118041000D01*
X121947938Y-118043716D01*
G37*
G36*
X145756968Y-116601565D02*
G01*
X145795638Y-116613296D01*
X145831277Y-116632346D01*
X145862517Y-116657983D01*
X145888154Y-116689223D01*
X145907204Y-116724862D01*
X145918935Y-116763532D01*
X145923500Y-116809888D01*
X145923500Y-117886112D01*
X145918935Y-117932468D01*
X145907204Y-117971138D01*
X145888154Y-118006777D01*
X145862517Y-118038017D01*
X145831277Y-118063654D01*
X145795638Y-118082704D01*
X145756968Y-118094435D01*
X145710612Y-118099000D01*
X145059388Y-118099000D01*
X145013032Y-118094435D01*
X144974362Y-118082704D01*
X144938723Y-118063654D01*
X144907483Y-118038017D01*
X144881846Y-118006777D01*
X144862796Y-117971138D01*
X144851065Y-117932468D01*
X144846500Y-117886112D01*
X144846500Y-116809888D01*
X144851065Y-116763532D01*
X144862796Y-116724862D01*
X144881846Y-116689223D01*
X144907483Y-116657983D01*
X144938723Y-116632346D01*
X144974362Y-116613296D01*
X145013032Y-116601565D01*
X145059388Y-116597000D01*
X145710612Y-116597000D01*
X145756968Y-116601565D01*
G37*
G36*
X143881968Y-116601565D02*
G01*
X143920638Y-116613296D01*
X143956277Y-116632346D01*
X143987517Y-116657983D01*
X144013154Y-116689223D01*
X144032204Y-116724862D01*
X144043935Y-116763532D01*
X144048500Y-116809888D01*
X144048500Y-117886112D01*
X144043935Y-117932468D01*
X144032204Y-117971138D01*
X144013154Y-118006777D01*
X143987517Y-118038017D01*
X143956277Y-118063654D01*
X143920638Y-118082704D01*
X143881968Y-118094435D01*
X143835612Y-118099000D01*
X143184388Y-118099000D01*
X143138032Y-118094435D01*
X143099362Y-118082704D01*
X143063723Y-118063654D01*
X143032483Y-118038017D01*
X143006846Y-118006777D01*
X142987796Y-117971138D01*
X142976065Y-117932468D01*
X142971500Y-117886112D01*
X142971500Y-116809888D01*
X142976065Y-116763532D01*
X142987796Y-116724862D01*
X143006846Y-116689223D01*
X143032483Y-116657983D01*
X143063723Y-116632346D01*
X143099362Y-116613296D01*
X143138032Y-116601565D01*
X143184388Y-116597000D01*
X143835612Y-116597000D01*
X143881968Y-116601565D01*
G37*
G36*
X147848968Y-116601565D02*
G01*
X147887638Y-116613296D01*
X147923277Y-116632346D01*
X147954517Y-116657983D01*
X147980154Y-116689223D01*
X147999204Y-116724862D01*
X148010935Y-116763532D01*
X148015500Y-116809888D01*
X148015500Y-117886112D01*
X148010935Y-117932468D01*
X147999204Y-117971138D01*
X147980154Y-118006777D01*
X147954517Y-118038017D01*
X147923277Y-118063654D01*
X147887638Y-118082704D01*
X147848968Y-118094435D01*
X147802612Y-118099000D01*
X147151388Y-118099000D01*
X147105032Y-118094435D01*
X147066362Y-118082704D01*
X147030723Y-118063654D01*
X146999483Y-118038017D01*
X146973846Y-118006777D01*
X146954796Y-117971138D01*
X146943065Y-117932468D01*
X146938500Y-117886112D01*
X146938500Y-116809888D01*
X146943065Y-116763532D01*
X146954796Y-116724862D01*
X146973846Y-116689223D01*
X146999483Y-116657983D01*
X147030723Y-116632346D01*
X147066362Y-116613296D01*
X147105032Y-116601565D01*
X147151388Y-116597000D01*
X147802612Y-116597000D01*
X147848968Y-116601565D01*
G37*
G36*
X149723968Y-116601565D02*
G01*
X149762638Y-116613296D01*
X149798277Y-116632346D01*
X149829517Y-116657983D01*
X149855154Y-116689223D01*
X149874204Y-116724862D01*
X149885935Y-116763532D01*
X149890500Y-116809888D01*
X149890500Y-117886112D01*
X149885935Y-117932468D01*
X149874204Y-117971138D01*
X149855154Y-118006777D01*
X149829517Y-118038017D01*
X149798277Y-118063654D01*
X149762638Y-118082704D01*
X149723968Y-118094435D01*
X149677612Y-118099000D01*
X149026388Y-118099000D01*
X148980032Y-118094435D01*
X148941362Y-118082704D01*
X148905723Y-118063654D01*
X148874483Y-118038017D01*
X148848846Y-118006777D01*
X148829796Y-117971138D01*
X148818065Y-117932468D01*
X148813500Y-117886112D01*
X148813500Y-116809888D01*
X148818065Y-116763532D01*
X148829796Y-116724862D01*
X148848846Y-116689223D01*
X148874483Y-116657983D01*
X148905723Y-116632346D01*
X148941362Y-116613296D01*
X148980032Y-116601565D01*
X149026388Y-116597000D01*
X149677612Y-116597000D01*
X149723968Y-116601565D01*
G37*
G36*
X141838938Y-116979716D02*
G01*
X141859557Y-116985971D01*
X141878553Y-116996124D01*
X141895208Y-117009792D01*
X141908876Y-117026447D01*
X141919029Y-117045443D01*
X141925284Y-117066062D01*
X141928000Y-117093640D01*
X141928000Y-117602360D01*
X141925284Y-117629938D01*
X141919029Y-117650557D01*
X141908876Y-117669553D01*
X141895208Y-117686208D01*
X141878553Y-117699876D01*
X141859557Y-117710029D01*
X141838938Y-117716284D01*
X141811360Y-117719000D01*
X141352640Y-117719000D01*
X141325062Y-117716284D01*
X141304443Y-117710029D01*
X141285447Y-117699876D01*
X141268792Y-117686208D01*
X141255124Y-117669553D01*
X141244971Y-117650557D01*
X141238716Y-117629938D01*
X141236000Y-117602360D01*
X141236000Y-117093640D01*
X141238716Y-117066062D01*
X141244971Y-117045443D01*
X141255124Y-117026447D01*
X141268792Y-117009792D01*
X141285447Y-116996124D01*
X141304443Y-116985971D01*
X141325062Y-116979716D01*
X141352640Y-116977000D01*
X141811360Y-116977000D01*
X141838938Y-116979716D01*
G37*
G36*
X140868938Y-116979716D02*
G01*
X140889557Y-116985971D01*
X140908553Y-116996124D01*
X140925208Y-117009792D01*
X140938876Y-117026447D01*
X140949029Y-117045443D01*
X140955284Y-117066062D01*
X140958000Y-117093640D01*
X140958000Y-117602360D01*
X140955284Y-117629938D01*
X140949029Y-117650557D01*
X140938876Y-117669553D01*
X140925208Y-117686208D01*
X140908553Y-117699876D01*
X140889557Y-117710029D01*
X140868938Y-117716284D01*
X140841360Y-117719000D01*
X140382640Y-117719000D01*
X140355062Y-117716284D01*
X140334443Y-117710029D01*
X140315447Y-117699876D01*
X140298792Y-117686208D01*
X140285124Y-117669553D01*
X140274971Y-117650557D01*
X140268716Y-117629938D01*
X140266000Y-117602360D01*
X140266000Y-117093640D01*
X140268716Y-117066062D01*
X140274971Y-117045443D01*
X140285124Y-117026447D01*
X140298792Y-117009792D01*
X140315447Y-116996124D01*
X140334443Y-116985971D01*
X140355062Y-116979716D01*
X140382640Y-116977000D01*
X140841360Y-116977000D01*
X140868938Y-116979716D01*
G37*
G36*
X135241591Y-116445085D02*
G01*
X135275569Y-116455393D01*
X135306890Y-116472134D01*
X135334339Y-116494661D01*
X135356866Y-116522110D01*
X135373607Y-116553431D01*
X135383915Y-116587409D01*
X135388000Y-116628890D01*
X135388000Y-117305110D01*
X135383915Y-117346591D01*
X135373607Y-117380569D01*
X135356866Y-117411890D01*
X135334339Y-117439339D01*
X135306890Y-117461866D01*
X135275569Y-117478607D01*
X135241591Y-117488915D01*
X135200110Y-117493000D01*
X134598890Y-117493000D01*
X134557409Y-117488915D01*
X134523431Y-117478607D01*
X134492110Y-117461866D01*
X134464661Y-117439339D01*
X134442134Y-117411890D01*
X134425393Y-117380569D01*
X134415085Y-117346591D01*
X134411000Y-117305110D01*
X134411000Y-116628890D01*
X134415085Y-116587409D01*
X134425393Y-116553431D01*
X134442134Y-116522110D01*
X134464661Y-116494661D01*
X134492110Y-116472134D01*
X134523431Y-116455393D01*
X134557409Y-116445085D01*
X134598890Y-116441000D01*
X135200110Y-116441000D01*
X135241591Y-116445085D01*
G37*
G36*
X133666591Y-116445085D02*
G01*
X133700569Y-116455393D01*
X133731890Y-116472134D01*
X133759339Y-116494661D01*
X133781866Y-116522110D01*
X133798607Y-116553431D01*
X133808915Y-116587409D01*
X133813000Y-116628890D01*
X133813000Y-117305110D01*
X133808915Y-117346591D01*
X133798607Y-117380569D01*
X133781866Y-117411890D01*
X133759339Y-117439339D01*
X133731890Y-117461866D01*
X133700569Y-117478607D01*
X133666591Y-117488915D01*
X133625110Y-117493000D01*
X133023890Y-117493000D01*
X132982409Y-117488915D01*
X132948431Y-117478607D01*
X132917110Y-117461866D01*
X132889661Y-117439339D01*
X132867134Y-117411890D01*
X132850393Y-117380569D01*
X132840085Y-117346591D01*
X132836000Y-117305110D01*
X132836000Y-116628890D01*
X132840085Y-116587409D01*
X132850393Y-116553431D01*
X132867134Y-116522110D01*
X132889661Y-116494661D01*
X132917110Y-116472134D01*
X132948431Y-116455393D01*
X132982409Y-116445085D01*
X133023890Y-116441000D01*
X133625110Y-116441000D01*
X133666591Y-116445085D01*
G37*
G36*
X111692915Y-114622934D02*
G01*
X111725424Y-114632795D01*
X111755382Y-114648809D01*
X111781641Y-114670359D01*
X111803191Y-114696618D01*
X111819205Y-114726576D01*
X111829066Y-114759085D01*
X111833000Y-114799029D01*
X111833000Y-116340971D01*
X111829066Y-116380915D01*
X111819205Y-116413424D01*
X111803191Y-116443382D01*
X111781641Y-116469641D01*
X111755382Y-116491191D01*
X111725424Y-116507205D01*
X111692915Y-116517066D01*
X111652971Y-116521000D01*
X108311029Y-116521000D01*
X108271085Y-116517066D01*
X108238576Y-116507205D01*
X108208618Y-116491191D01*
X108182359Y-116469641D01*
X108160809Y-116443382D01*
X108144795Y-116413424D01*
X108134934Y-116380915D01*
X108131000Y-116340971D01*
X108131000Y-114799029D01*
X108134934Y-114759085D01*
X108144795Y-114726576D01*
X108160809Y-114696618D01*
X108182359Y-114670359D01*
X108208618Y-114648809D01*
X108238576Y-114632795D01*
X108271085Y-114622934D01*
X108311029Y-114619000D01*
X111652971Y-114619000D01*
X111692915Y-114622934D01*
G37*
G36*
X133666591Y-114921085D02*
G01*
X133700569Y-114931393D01*
X133731890Y-114948134D01*
X133759339Y-114970661D01*
X133781866Y-114998110D01*
X133798607Y-115029431D01*
X133808915Y-115063409D01*
X133813000Y-115104890D01*
X133813000Y-115781110D01*
X133808915Y-115822591D01*
X133798607Y-115856569D01*
X133781866Y-115887890D01*
X133759339Y-115915339D01*
X133731890Y-115937866D01*
X133700569Y-115954607D01*
X133666591Y-115964915D01*
X133625110Y-115969000D01*
X133023890Y-115969000D01*
X132982409Y-115964915D01*
X132948431Y-115954607D01*
X132917110Y-115937866D01*
X132889661Y-115915339D01*
X132867134Y-115887890D01*
X132850393Y-115856569D01*
X132840085Y-115822591D01*
X132836000Y-115781110D01*
X132836000Y-115104890D01*
X132840085Y-115063409D01*
X132850393Y-115029431D01*
X132867134Y-114998110D01*
X132889661Y-114970661D01*
X132917110Y-114948134D01*
X132948431Y-114931393D01*
X132982409Y-114921085D01*
X133023890Y-114917000D01*
X133625110Y-114917000D01*
X133666591Y-114921085D01*
G37*
G36*
X135241591Y-114921085D02*
G01*
X135275569Y-114931393D01*
X135306890Y-114948134D01*
X135334339Y-114970661D01*
X135356866Y-114998110D01*
X135373607Y-115029431D01*
X135383915Y-115063409D01*
X135388000Y-115104890D01*
X135388000Y-115781110D01*
X135383915Y-115822591D01*
X135373607Y-115856569D01*
X135356866Y-115887890D01*
X135334339Y-115915339D01*
X135306890Y-115937866D01*
X135275569Y-115954607D01*
X135241591Y-115964915D01*
X135200110Y-115969000D01*
X134598890Y-115969000D01*
X134557409Y-115964915D01*
X134523431Y-115954607D01*
X134492110Y-115937866D01*
X134464661Y-115915339D01*
X134442134Y-115887890D01*
X134425393Y-115856569D01*
X134415085Y-115822591D01*
X134411000Y-115781110D01*
X134411000Y-115104890D01*
X134415085Y-115063409D01*
X134425393Y-115029431D01*
X134442134Y-114998110D01*
X134464661Y-114970661D01*
X134492110Y-114948134D01*
X134523431Y-114931393D01*
X134557409Y-114921085D01*
X134598890Y-114917000D01*
X135200110Y-114917000D01*
X135241591Y-114921085D01*
G37*
G36*
X132313938Y-115074716D02*
G01*
X132334557Y-115080971D01*
X132353553Y-115091124D01*
X132370208Y-115104792D01*
X132383876Y-115121447D01*
X132394029Y-115140443D01*
X132400284Y-115161062D01*
X132403000Y-115188640D01*
X132403000Y-115697360D01*
X132400284Y-115724938D01*
X132394029Y-115745557D01*
X132383876Y-115764553D01*
X132370208Y-115781208D01*
X132353553Y-115794876D01*
X132334557Y-115805029D01*
X132313938Y-115811284D01*
X132286360Y-115814000D01*
X131827640Y-115814000D01*
X131800062Y-115811284D01*
X131779443Y-115805029D01*
X131760447Y-115794876D01*
X131743792Y-115781208D01*
X131730124Y-115764553D01*
X131719971Y-115745557D01*
X131713716Y-115724938D01*
X131711000Y-115697360D01*
X131711000Y-115188640D01*
X131713716Y-115161062D01*
X131719971Y-115140443D01*
X131730124Y-115121447D01*
X131743792Y-115104792D01*
X131760447Y-115091124D01*
X131779443Y-115080971D01*
X131800062Y-115074716D01*
X131827640Y-115072000D01*
X132286360Y-115072000D01*
X132313938Y-115074716D01*
G37*
G36*
X131343938Y-115074716D02*
G01*
X131364557Y-115080971D01*
X131383553Y-115091124D01*
X131400208Y-115104792D01*
X131413876Y-115121447D01*
X131424029Y-115140443D01*
X131430284Y-115161062D01*
X131433000Y-115188640D01*
X131433000Y-115697360D01*
X131430284Y-115724938D01*
X131424029Y-115745557D01*
X131413876Y-115764553D01*
X131400208Y-115781208D01*
X131383553Y-115794876D01*
X131364557Y-115805029D01*
X131343938Y-115811284D01*
X131316360Y-115814000D01*
X130857640Y-115814000D01*
X130830062Y-115811284D01*
X130809443Y-115805029D01*
X130790447Y-115794876D01*
X130773792Y-115781208D01*
X130760124Y-115764553D01*
X130749971Y-115745557D01*
X130743716Y-115724938D01*
X130741000Y-115697360D01*
X130741000Y-115188640D01*
X130743716Y-115161062D01*
X130749971Y-115140443D01*
X130760124Y-115121447D01*
X130773792Y-115104792D01*
X130790447Y-115091124D01*
X130809443Y-115080971D01*
X130830062Y-115074716D01*
X130857640Y-115072000D01*
X131316360Y-115072000D01*
X131343938Y-115074716D01*
G37*
G36*
X126011938Y-114695716D02*
G01*
X126032557Y-114701971D01*
X126051553Y-114712124D01*
X126068208Y-114725792D01*
X126081876Y-114742447D01*
X126092029Y-114761443D01*
X126098284Y-114782062D01*
X126101000Y-114809640D01*
X126101000Y-115268360D01*
X126098284Y-115295938D01*
X126092029Y-115316557D01*
X126081876Y-115335553D01*
X126068208Y-115352208D01*
X126051553Y-115365876D01*
X126032557Y-115376029D01*
X126011938Y-115382284D01*
X125984360Y-115385000D01*
X125475640Y-115385000D01*
X125448062Y-115382284D01*
X125427443Y-115376029D01*
X125408447Y-115365876D01*
X125391792Y-115352208D01*
X125378124Y-115335553D01*
X125367971Y-115316557D01*
X125361716Y-115295938D01*
X125359000Y-115268360D01*
X125359000Y-114809640D01*
X125361716Y-114782062D01*
X125367971Y-114761443D01*
X125378124Y-114742447D01*
X125391792Y-114725792D01*
X125408447Y-114712124D01*
X125427443Y-114701971D01*
X125448062Y-114695716D01*
X125475640Y-114693000D01*
X125984360Y-114693000D01*
X126011938Y-114695716D01*
G37*
G36*
X115450604Y-112870347D02*
G01*
X115487144Y-112881432D01*
X115520821Y-112899433D01*
X115550341Y-112923659D01*
X115574567Y-112953179D01*
X115592568Y-112986856D01*
X115603653Y-113023396D01*
X115608000Y-113067538D01*
X115608000Y-114516462D01*
X115603653Y-114560604D01*
X115592568Y-114597144D01*
X115574567Y-114630821D01*
X115550341Y-114660341D01*
X115520821Y-114684567D01*
X115487144Y-114702568D01*
X115450604Y-114713653D01*
X115406462Y-114718000D01*
X114457538Y-114718000D01*
X114413396Y-114713653D01*
X114376856Y-114702568D01*
X114343179Y-114684567D01*
X114313659Y-114660341D01*
X114289433Y-114630821D01*
X114271432Y-114597144D01*
X114260347Y-114560604D01*
X114256000Y-114516462D01*
X114256000Y-113067538D01*
X114260347Y-113023396D01*
X114271432Y-112986856D01*
X114289433Y-112953179D01*
X114313659Y-112923659D01*
X114343179Y-112899433D01*
X114376856Y-112881432D01*
X114413396Y-112870347D01*
X114457538Y-112866000D01*
X115406462Y-112866000D01*
X115450604Y-112870347D01*
G37*
G36*
X118250604Y-112870347D02*
G01*
X118287144Y-112881432D01*
X118320821Y-112899433D01*
X118350341Y-112923659D01*
X118374567Y-112953179D01*
X118392568Y-112986856D01*
X118403653Y-113023396D01*
X118408000Y-113067538D01*
X118408000Y-114516462D01*
X118403653Y-114560604D01*
X118392568Y-114597144D01*
X118374567Y-114630821D01*
X118350341Y-114660341D01*
X118320821Y-114684567D01*
X118287144Y-114702568D01*
X118250604Y-114713653D01*
X118206462Y-114718000D01*
X117257538Y-114718000D01*
X117213396Y-114713653D01*
X117176856Y-114702568D01*
X117143179Y-114684567D01*
X117113659Y-114660341D01*
X117089433Y-114630821D01*
X117071432Y-114597144D01*
X117060347Y-114560604D01*
X117056000Y-114516462D01*
X117056000Y-113067538D01*
X117060347Y-113023396D01*
X117071432Y-112986856D01*
X117089433Y-112953179D01*
X117113659Y-112923659D01*
X117143179Y-112899433D01*
X117176856Y-112881432D01*
X117213396Y-112870347D01*
X117257538Y-112866000D01*
X118206462Y-112866000D01*
X118250604Y-112870347D01*
G37*
G36*
X120022604Y-112870347D02*
G01*
X120059144Y-112881432D01*
X120092821Y-112899433D01*
X120122341Y-112923659D01*
X120146567Y-112953179D01*
X120164568Y-112986856D01*
X120175653Y-113023396D01*
X120180000Y-113067538D01*
X120180000Y-114516462D01*
X120175653Y-114560604D01*
X120164568Y-114597144D01*
X120146567Y-114630821D01*
X120122341Y-114660341D01*
X120092821Y-114684567D01*
X120059144Y-114702568D01*
X120022604Y-114713653D01*
X119978462Y-114718000D01*
X119029538Y-114718000D01*
X118985396Y-114713653D01*
X118948856Y-114702568D01*
X118915179Y-114684567D01*
X118885659Y-114660341D01*
X118861433Y-114630821D01*
X118843432Y-114597144D01*
X118832347Y-114560604D01*
X118828000Y-114516462D01*
X118828000Y-113067538D01*
X118832347Y-113023396D01*
X118843432Y-112986856D01*
X118861433Y-112953179D01*
X118885659Y-112923659D01*
X118915179Y-112899433D01*
X118948856Y-112881432D01*
X118985396Y-112870347D01*
X119029538Y-112866000D01*
X119978462Y-112866000D01*
X120022604Y-112870347D01*
G37*
G36*
X122822604Y-112870347D02*
G01*
X122859144Y-112881432D01*
X122892821Y-112899433D01*
X122922341Y-112923659D01*
X122946567Y-112953179D01*
X122964568Y-112986856D01*
X122975653Y-113023396D01*
X122980000Y-113067538D01*
X122980000Y-114516462D01*
X122975653Y-114560604D01*
X122964568Y-114597144D01*
X122946567Y-114630821D01*
X122922341Y-114660341D01*
X122892821Y-114684567D01*
X122859144Y-114702568D01*
X122822604Y-114713653D01*
X122778462Y-114718000D01*
X121829538Y-114718000D01*
X121785396Y-114713653D01*
X121748856Y-114702568D01*
X121715179Y-114684567D01*
X121685659Y-114660341D01*
X121661433Y-114630821D01*
X121643432Y-114597144D01*
X121632347Y-114560604D01*
X121628000Y-114516462D01*
X121628000Y-113067538D01*
X121632347Y-113023396D01*
X121643432Y-112986856D01*
X121661433Y-112953179D01*
X121685659Y-112923659D01*
X121715179Y-112899433D01*
X121748856Y-112881432D01*
X121785396Y-112870347D01*
X121829538Y-112866000D01*
X122778462Y-112866000D01*
X122822604Y-112870347D01*
G37*
G36*
X126011938Y-113725716D02*
G01*
X126032557Y-113731971D01*
X126051553Y-113742124D01*
X126068208Y-113755792D01*
X126081876Y-113772447D01*
X126092029Y-113791443D01*
X126098284Y-113812062D01*
X126101000Y-113839640D01*
X126101000Y-114298360D01*
X126098284Y-114325938D01*
X126092029Y-114346557D01*
X126081876Y-114365553D01*
X126068208Y-114382208D01*
X126051553Y-114395876D01*
X126032557Y-114406029D01*
X126011938Y-114412284D01*
X125984360Y-114415000D01*
X125475640Y-114415000D01*
X125448062Y-114412284D01*
X125427443Y-114406029D01*
X125408447Y-114395876D01*
X125391792Y-114382208D01*
X125378124Y-114365553D01*
X125367971Y-114346557D01*
X125361716Y-114325938D01*
X125359000Y-114298360D01*
X125359000Y-113839640D01*
X125361716Y-113812062D01*
X125367971Y-113791443D01*
X125378124Y-113772447D01*
X125391792Y-113755792D01*
X125408447Y-113742124D01*
X125427443Y-113731971D01*
X125448062Y-113725716D01*
X125475640Y-113723000D01*
X125984360Y-113723000D01*
X126011938Y-113725716D01*
G37*
G36*
X138461000Y-113814000D02*
G01*
X129509000Y-113814000D01*
X129509000Y-112612000D01*
X138461000Y-112612000D01*
X138461000Y-113814000D01*
G37*
G36*
X126011938Y-112663716D02*
G01*
X126032557Y-112669971D01*
X126051553Y-112680124D01*
X126068208Y-112693792D01*
X126081876Y-112710447D01*
X126092029Y-112729443D01*
X126098284Y-112750062D01*
X126101000Y-112777640D01*
X126101000Y-113236360D01*
X126098284Y-113263938D01*
X126092029Y-113284557D01*
X126081876Y-113303553D01*
X126068208Y-113320208D01*
X126051553Y-113333876D01*
X126032557Y-113344029D01*
X126011938Y-113350284D01*
X125984360Y-113353000D01*
X125475640Y-113353000D01*
X125448062Y-113350284D01*
X125427443Y-113344029D01*
X125408447Y-113333876D01*
X125391792Y-113320208D01*
X125378124Y-113303553D01*
X125367971Y-113284557D01*
X125361716Y-113263938D01*
X125359000Y-113236360D01*
X125359000Y-112777640D01*
X125361716Y-112750062D01*
X125367971Y-112729443D01*
X125378124Y-112710447D01*
X125391792Y-112693792D01*
X125408447Y-112680124D01*
X125427443Y-112669971D01*
X125448062Y-112663716D01*
X125475640Y-112661000D01*
X125984360Y-112661000D01*
X126011938Y-112663716D01*
G37*
G36*
X148088604Y-111726347D02*
G01*
X148125144Y-111737432D01*
X148158821Y-111755433D01*
X148188341Y-111779659D01*
X148212567Y-111809179D01*
X148230568Y-111842856D01*
X148241653Y-111879396D01*
X148246000Y-111923538D01*
X148246000Y-112872462D01*
X148241653Y-112916604D01*
X148230568Y-112953144D01*
X148212567Y-112986821D01*
X148188341Y-113016341D01*
X148158821Y-113040567D01*
X148125144Y-113058568D01*
X148088604Y-113069653D01*
X148044462Y-113074000D01*
X146595538Y-113074000D01*
X146551396Y-113069653D01*
X146514856Y-113058568D01*
X146481179Y-113040567D01*
X146451659Y-113016341D01*
X146427433Y-112986821D01*
X146409432Y-112953144D01*
X146398347Y-112916604D01*
X146394000Y-112872462D01*
X146394000Y-111923538D01*
X146398347Y-111879396D01*
X146409432Y-111842856D01*
X146427433Y-111809179D01*
X146451659Y-111779659D01*
X146481179Y-111755433D01*
X146514856Y-111737432D01*
X146551396Y-111726347D01*
X146595538Y-111722000D01*
X148044462Y-111722000D01*
X148088604Y-111726347D01*
G37*
G36*
X126011938Y-111693716D02*
G01*
X126032557Y-111699971D01*
X126051553Y-111710124D01*
X126068208Y-111723792D01*
X126081876Y-111740447D01*
X126092029Y-111759443D01*
X126098284Y-111780062D01*
X126101000Y-111807640D01*
X126101000Y-112266360D01*
X126098284Y-112293938D01*
X126092029Y-112314557D01*
X126081876Y-112333553D01*
X126068208Y-112350208D01*
X126051553Y-112363876D01*
X126032557Y-112374029D01*
X126011938Y-112380284D01*
X125984360Y-112383000D01*
X125475640Y-112383000D01*
X125448062Y-112380284D01*
X125427443Y-112374029D01*
X125408447Y-112363876D01*
X125391792Y-112350208D01*
X125378124Y-112333553D01*
X125367971Y-112314557D01*
X125361716Y-112293938D01*
X125359000Y-112266360D01*
X125359000Y-111807640D01*
X125361716Y-111780062D01*
X125367971Y-111759443D01*
X125378124Y-111740447D01*
X125391792Y-111723792D01*
X125408447Y-111710124D01*
X125427443Y-111699971D01*
X125448062Y-111693716D01*
X125475640Y-111691000D01*
X125984360Y-111691000D01*
X126011938Y-111693716D01*
G37*
G36*
X121947938Y-111647716D02*
G01*
X121968557Y-111653971D01*
X121987553Y-111664124D01*
X122004208Y-111677792D01*
X122017876Y-111694447D01*
X122028029Y-111713443D01*
X122034284Y-111734062D01*
X122037000Y-111761640D01*
X122037000Y-112220360D01*
X122034284Y-112247938D01*
X122028029Y-112268557D01*
X122017876Y-112287553D01*
X122004208Y-112304208D01*
X121987553Y-112317876D01*
X121968557Y-112328029D01*
X121947938Y-112334284D01*
X121920360Y-112337000D01*
X121411640Y-112337000D01*
X121384062Y-112334284D01*
X121363443Y-112328029D01*
X121344447Y-112317876D01*
X121327792Y-112304208D01*
X121314124Y-112287553D01*
X121303971Y-112268557D01*
X121297716Y-112247938D01*
X121295000Y-112220360D01*
X121295000Y-111761640D01*
X121297716Y-111734062D01*
X121303971Y-111713443D01*
X121314124Y-111694447D01*
X121327792Y-111677792D01*
X121344447Y-111664124D01*
X121363443Y-111653971D01*
X121384062Y-111647716D01*
X121411640Y-111645000D01*
X121920360Y-111645000D01*
X121947938Y-111647716D01*
G37*
G36*
X122963938Y-111647716D02*
G01*
X122984557Y-111653971D01*
X123003553Y-111664124D01*
X123020208Y-111677792D01*
X123033876Y-111694447D01*
X123044029Y-111713443D01*
X123050284Y-111734062D01*
X123053000Y-111761640D01*
X123053000Y-112220360D01*
X123050284Y-112247938D01*
X123044029Y-112268557D01*
X123033876Y-112287553D01*
X123020208Y-112304208D01*
X123003553Y-112317876D01*
X122984557Y-112328029D01*
X122963938Y-112334284D01*
X122936360Y-112337000D01*
X122427640Y-112337000D01*
X122400062Y-112334284D01*
X122379443Y-112328029D01*
X122360447Y-112317876D01*
X122343792Y-112304208D01*
X122330124Y-112287553D01*
X122319971Y-112268557D01*
X122313716Y-112247938D01*
X122311000Y-112220360D01*
X122311000Y-111761640D01*
X122313716Y-111734062D01*
X122319971Y-111713443D01*
X122330124Y-111694447D01*
X122343792Y-111677792D01*
X122360447Y-111664124D01*
X122379443Y-111653971D01*
X122400062Y-111647716D01*
X122427640Y-111645000D01*
X122936360Y-111645000D01*
X122963938Y-111647716D01*
G37*
G36*
X142353591Y-110984085D02*
G01*
X142387569Y-110994393D01*
X142418890Y-111011134D01*
X142446339Y-111033661D01*
X142468866Y-111061110D01*
X142485607Y-111092431D01*
X142495915Y-111126409D01*
X142500000Y-111167890D01*
X142500000Y-111844110D01*
X142495915Y-111885591D01*
X142485607Y-111919569D01*
X142468866Y-111950890D01*
X142446339Y-111978339D01*
X142418890Y-112000866D01*
X142387569Y-112017607D01*
X142353591Y-112027915D01*
X142312110Y-112032000D01*
X141710890Y-112032000D01*
X141669409Y-112027915D01*
X141635431Y-112017607D01*
X141604110Y-112000866D01*
X141576661Y-111978339D01*
X141554134Y-111950890D01*
X141537393Y-111919569D01*
X141527085Y-111885591D01*
X141523000Y-111844110D01*
X141523000Y-111167890D01*
X141527085Y-111126409D01*
X141537393Y-111092431D01*
X141554134Y-111061110D01*
X141576661Y-111033661D01*
X141604110Y-111011134D01*
X141635431Y-110994393D01*
X141669409Y-110984085D01*
X141710890Y-110980000D01*
X142312110Y-110980000D01*
X142353591Y-110984085D01*
G37*
G36*
X140778591Y-110984085D02*
G01*
X140812569Y-110994393D01*
X140843890Y-111011134D01*
X140871339Y-111033661D01*
X140893866Y-111061110D01*
X140910607Y-111092431D01*
X140920915Y-111126409D01*
X140925000Y-111167890D01*
X140925000Y-111844110D01*
X140920915Y-111885591D01*
X140910607Y-111919569D01*
X140893866Y-111950890D01*
X140871339Y-111978339D01*
X140843890Y-112000866D01*
X140812569Y-112017607D01*
X140778591Y-112027915D01*
X140737110Y-112032000D01*
X140135890Y-112032000D01*
X140094409Y-112027915D01*
X140060431Y-112017607D01*
X140029110Y-112000866D01*
X140001661Y-111978339D01*
X139979134Y-111950890D01*
X139962393Y-111919569D01*
X139952085Y-111885591D01*
X139948000Y-111844110D01*
X139948000Y-111167890D01*
X139952085Y-111126409D01*
X139962393Y-111092431D01*
X139979134Y-111061110D01*
X140001661Y-111033661D01*
X140029110Y-111011134D01*
X140060431Y-110994393D01*
X140094409Y-110984085D01*
X140135890Y-110980000D01*
X140737110Y-110980000D01*
X140778591Y-110984085D01*
G37*
G36*
X120731170Y-109519803D02*
G01*
X120742875Y-109523354D01*
X120753665Y-109529121D01*
X120763119Y-109536881D01*
X120770879Y-109546335D01*
X120776646Y-109557125D01*
X120780197Y-109568830D01*
X120782000Y-109587138D01*
X120782000Y-109950862D01*
X120780197Y-109969170D01*
X120776646Y-109980875D01*
X120770879Y-109991665D01*
X120759370Y-110005688D01*
X120750355Y-110014704D01*
X120736741Y-110035078D01*
X120727365Y-110057717D01*
X120722585Y-110081751D01*
X120722585Y-110106255D01*
X120727366Y-110130288D01*
X120736744Y-110152926D01*
X120750358Y-110173301D01*
X120759374Y-110182317D01*
X120770879Y-110196335D01*
X120776646Y-110207125D01*
X120780197Y-110218830D01*
X120782000Y-110237138D01*
X120782000Y-110600862D01*
X120780197Y-110619170D01*
X120776646Y-110630875D01*
X120770879Y-110641665D01*
X120759370Y-110655688D01*
X120750355Y-110664704D01*
X120736741Y-110685078D01*
X120727365Y-110707717D01*
X120722585Y-110731751D01*
X120722585Y-110756255D01*
X120727366Y-110780288D01*
X120736744Y-110802926D01*
X120750358Y-110823301D01*
X120759374Y-110832317D01*
X120770879Y-110846335D01*
X120776646Y-110857125D01*
X120780197Y-110868830D01*
X120782000Y-110887138D01*
X120782000Y-111250862D01*
X120780197Y-111269170D01*
X120776646Y-111280875D01*
X120770879Y-111291665D01*
X120759370Y-111305688D01*
X120750355Y-111314704D01*
X120736741Y-111335078D01*
X120727365Y-111357717D01*
X120722585Y-111381751D01*
X120722585Y-111406255D01*
X120727366Y-111430288D01*
X120736744Y-111452926D01*
X120750358Y-111473301D01*
X120759374Y-111482317D01*
X120770879Y-111496335D01*
X120776646Y-111507125D01*
X120780197Y-111518830D01*
X120782000Y-111537138D01*
X120782000Y-111900862D01*
X120780197Y-111919170D01*
X120776646Y-111930875D01*
X120770879Y-111941665D01*
X120763119Y-111951119D01*
X120753665Y-111958879D01*
X120742875Y-111964646D01*
X120731170Y-111968197D01*
X120712862Y-111970000D01*
X119324138Y-111970000D01*
X119305830Y-111968197D01*
X119294125Y-111964646D01*
X119283335Y-111958879D01*
X119273881Y-111951119D01*
X119266121Y-111941665D01*
X119260354Y-111930875D01*
X119256803Y-111919170D01*
X119255000Y-111900862D01*
X119255000Y-111537138D01*
X119256803Y-111518830D01*
X119260354Y-111507125D01*
X119266121Y-111496335D01*
X119277630Y-111482312D01*
X119286645Y-111473296D01*
X119300259Y-111452922D01*
X119309635Y-111430283D01*
X119314415Y-111406249D01*
X119314415Y-111381745D01*
X119309634Y-111357712D01*
X119300256Y-111335074D01*
X119286642Y-111314699D01*
X119277626Y-111305683D01*
X119266121Y-111291665D01*
X119260354Y-111280875D01*
X119256803Y-111269170D01*
X119255000Y-111250862D01*
X119255000Y-110887138D01*
X119256803Y-110868830D01*
X119260354Y-110857125D01*
X119266121Y-110846335D01*
X119277630Y-110832312D01*
X119286645Y-110823296D01*
X119300259Y-110802922D01*
X119309635Y-110780283D01*
X119314415Y-110756249D01*
X119314415Y-110731745D01*
X119309634Y-110707712D01*
X119300256Y-110685074D01*
X119286642Y-110664699D01*
X119277626Y-110655683D01*
X119266121Y-110641665D01*
X119260354Y-110630875D01*
X119256803Y-110619170D01*
X119255000Y-110600862D01*
X119255000Y-110237138D01*
X119256803Y-110218830D01*
X119260354Y-110207125D01*
X119266121Y-110196335D01*
X119277630Y-110182312D01*
X119286645Y-110173296D01*
X119300259Y-110152922D01*
X119309635Y-110130283D01*
X119314415Y-110106249D01*
X119314415Y-110081745D01*
X119309634Y-110057712D01*
X119300256Y-110035074D01*
X119286642Y-110014699D01*
X119277626Y-110005683D01*
X119266121Y-109991665D01*
X119260354Y-109980875D01*
X119256803Y-109969170D01*
X119255000Y-109950862D01*
X119255000Y-109587138D01*
X119256803Y-109568830D01*
X119260354Y-109557125D01*
X119266121Y-109546335D01*
X119273881Y-109536881D01*
X119283335Y-109529121D01*
X119294125Y-109523354D01*
X119305830Y-109519803D01*
X119324138Y-109518000D01*
X120712862Y-109518000D01*
X120731170Y-109519803D01*
G37*
G36*
X116406170Y-109519803D02*
G01*
X116417875Y-109523354D01*
X116428665Y-109529121D01*
X116438119Y-109536881D01*
X116445879Y-109546335D01*
X116451646Y-109557125D01*
X116455197Y-109568830D01*
X116457000Y-109587138D01*
X116457000Y-109950862D01*
X116455197Y-109969170D01*
X116451646Y-109980875D01*
X116445879Y-109991665D01*
X116434370Y-110005688D01*
X116425355Y-110014704D01*
X116411741Y-110035078D01*
X116402365Y-110057717D01*
X116397585Y-110081751D01*
X116397585Y-110106255D01*
X116402366Y-110130288D01*
X116411744Y-110152926D01*
X116425358Y-110173301D01*
X116434374Y-110182317D01*
X116445879Y-110196335D01*
X116451646Y-110207125D01*
X116455197Y-110218830D01*
X116457000Y-110237138D01*
X116457000Y-110600862D01*
X116455197Y-110619170D01*
X116451646Y-110630875D01*
X116445879Y-110641665D01*
X116434370Y-110655688D01*
X116425355Y-110664704D01*
X116411741Y-110685078D01*
X116402365Y-110707717D01*
X116397585Y-110731751D01*
X116397585Y-110756255D01*
X116402366Y-110780288D01*
X116411744Y-110802926D01*
X116425358Y-110823301D01*
X116434374Y-110832317D01*
X116445879Y-110846335D01*
X116451646Y-110857125D01*
X116455197Y-110868830D01*
X116457000Y-110887138D01*
X116457000Y-111250862D01*
X116455197Y-111269170D01*
X116451646Y-111280875D01*
X116445879Y-111291665D01*
X116434370Y-111305688D01*
X116425355Y-111314704D01*
X116411741Y-111335078D01*
X116402365Y-111357717D01*
X116397585Y-111381751D01*
X116397585Y-111406255D01*
X116402366Y-111430288D01*
X116411744Y-111452926D01*
X116425358Y-111473301D01*
X116434374Y-111482317D01*
X116445879Y-111496335D01*
X116451646Y-111507125D01*
X116455197Y-111518830D01*
X116457000Y-111537138D01*
X116457000Y-111900862D01*
X116455197Y-111919170D01*
X116451646Y-111930875D01*
X116445879Y-111941665D01*
X116438119Y-111951119D01*
X116428665Y-111958879D01*
X116417875Y-111964646D01*
X116406170Y-111968197D01*
X116387862Y-111970000D01*
X114999138Y-111970000D01*
X114980830Y-111968197D01*
X114969125Y-111964646D01*
X114958335Y-111958879D01*
X114948881Y-111951119D01*
X114941121Y-111941665D01*
X114935354Y-111930875D01*
X114931803Y-111919170D01*
X114930000Y-111900862D01*
X114930000Y-111537138D01*
X114931803Y-111518830D01*
X114935354Y-111507125D01*
X114941121Y-111496335D01*
X114952630Y-111482312D01*
X114961645Y-111473296D01*
X114975259Y-111452922D01*
X114984635Y-111430283D01*
X114989415Y-111406249D01*
X114989415Y-111381745D01*
X114984634Y-111357712D01*
X114975256Y-111335074D01*
X114961642Y-111314699D01*
X114952626Y-111305683D01*
X114941121Y-111291665D01*
X114935354Y-111280875D01*
X114931803Y-111269170D01*
X114930000Y-111250862D01*
X114930000Y-110887138D01*
X114931803Y-110868830D01*
X114935354Y-110857125D01*
X114941121Y-110846335D01*
X114952630Y-110832312D01*
X114961645Y-110823296D01*
X114975259Y-110802922D01*
X114984635Y-110780283D01*
X114989415Y-110756249D01*
X114989415Y-110731745D01*
X114984634Y-110707712D01*
X114975256Y-110685074D01*
X114961642Y-110664699D01*
X114952626Y-110655683D01*
X114941121Y-110641665D01*
X114935354Y-110630875D01*
X114931803Y-110619170D01*
X114930000Y-110600862D01*
X114930000Y-110237138D01*
X114931803Y-110218830D01*
X114935354Y-110207125D01*
X114941121Y-110196335D01*
X114952630Y-110182312D01*
X114961645Y-110173296D01*
X114975259Y-110152922D01*
X114984635Y-110130283D01*
X114989415Y-110106249D01*
X114989415Y-110081745D01*
X114984634Y-110057712D01*
X114975256Y-110035074D01*
X114961642Y-110014699D01*
X114952626Y-110005683D01*
X114941121Y-109991665D01*
X114935354Y-109980875D01*
X114931803Y-109969170D01*
X114930000Y-109950862D01*
X114930000Y-109587138D01*
X114931803Y-109568830D01*
X114935354Y-109557125D01*
X114941121Y-109546335D01*
X114948881Y-109536881D01*
X114958335Y-109529121D01*
X114969125Y-109523354D01*
X114980830Y-109519803D01*
X114999138Y-109518000D01*
X116387862Y-109518000D01*
X116406170Y-109519803D01*
G37*
G36*
X118630322Y-109771972D02*
G01*
X118663206Y-109781947D01*
X118693502Y-109798141D01*
X118720062Y-109819938D01*
X118741859Y-109846498D01*
X118758053Y-109876794D01*
X118768028Y-109909678D01*
X118772000Y-109950008D01*
X118772000Y-111537992D01*
X118768028Y-111578322D01*
X118758053Y-111611206D01*
X118741859Y-111641502D01*
X118720062Y-111668062D01*
X118693502Y-111689859D01*
X118663206Y-111706053D01*
X118630322Y-111716028D01*
X118589992Y-111720000D01*
X117122008Y-111720000D01*
X117081678Y-111716028D01*
X117048794Y-111706053D01*
X117018498Y-111689859D01*
X116991938Y-111668062D01*
X116970141Y-111641502D01*
X116953947Y-111611206D01*
X116943972Y-111578322D01*
X116940000Y-111537992D01*
X116940000Y-109950008D01*
X116943972Y-109909678D01*
X116953947Y-109876794D01*
X116970141Y-109846498D01*
X116991938Y-109819938D01*
X117018498Y-109798141D01*
X117048794Y-109781947D01*
X117081678Y-109771972D01*
X117122008Y-109768000D01*
X118589992Y-109768000D01*
X118630322Y-109771972D01*
G37*
G36*
X112133000Y-111649000D02*
G01*
X111131000Y-111649000D01*
X111131000Y-110347000D01*
X112133000Y-110347000D01*
X112133000Y-111649000D01*
G37*
G36*
X108833000Y-111649000D02*
G01*
X107831000Y-111649000D01*
X107831000Y-110347000D01*
X108833000Y-110347000D01*
X108833000Y-111649000D01*
G37*
G36*
X121947938Y-110677716D02*
G01*
X121968557Y-110683971D01*
X121987553Y-110694124D01*
X122004208Y-110707792D01*
X122017876Y-110724447D01*
X122028029Y-110743443D01*
X122034284Y-110764062D01*
X122037000Y-110791640D01*
X122037000Y-111250360D01*
X122034284Y-111277938D01*
X122028029Y-111298557D01*
X122017876Y-111317553D01*
X122004208Y-111334208D01*
X121987553Y-111347876D01*
X121968557Y-111358029D01*
X121947938Y-111364284D01*
X121920360Y-111367000D01*
X121411640Y-111367000D01*
X121384062Y-111364284D01*
X121363443Y-111358029D01*
X121344447Y-111347876D01*
X121327792Y-111334208D01*
X121314124Y-111317553D01*
X121303971Y-111298557D01*
X121297716Y-111277938D01*
X121295000Y-111250360D01*
X121295000Y-110791640D01*
X121297716Y-110764062D01*
X121303971Y-110743443D01*
X121314124Y-110724447D01*
X121327792Y-110707792D01*
X121344447Y-110694124D01*
X121363443Y-110683971D01*
X121384062Y-110677716D01*
X121411640Y-110675000D01*
X121920360Y-110675000D01*
X121947938Y-110677716D01*
G37*
G36*
X122963938Y-110677716D02*
G01*
X122984557Y-110683971D01*
X123003553Y-110694124D01*
X123020208Y-110707792D01*
X123033876Y-110724447D01*
X123044029Y-110743443D01*
X123050284Y-110764062D01*
X123053000Y-110791640D01*
X123053000Y-111250360D01*
X123050284Y-111277938D01*
X123044029Y-111298557D01*
X123033876Y-111317553D01*
X123020208Y-111334208D01*
X123003553Y-111347876D01*
X122984557Y-111358029D01*
X122963938Y-111364284D01*
X122936360Y-111367000D01*
X122427640Y-111367000D01*
X122400062Y-111364284D01*
X122379443Y-111358029D01*
X122360447Y-111347876D01*
X122343792Y-111334208D01*
X122330124Y-111317553D01*
X122319971Y-111298557D01*
X122313716Y-111277938D01*
X122311000Y-111250360D01*
X122311000Y-110791640D01*
X122313716Y-110764062D01*
X122319971Y-110743443D01*
X122330124Y-110724447D01*
X122343792Y-110707792D01*
X122360447Y-110694124D01*
X122379443Y-110683971D01*
X122400062Y-110677716D01*
X122427640Y-110675000D01*
X122936360Y-110675000D01*
X122963938Y-110677716D01*
G37*
G36*
X114327938Y-110070516D02*
G01*
X114348557Y-110076771D01*
X114367553Y-110086924D01*
X114384208Y-110100592D01*
X114397876Y-110117247D01*
X114408029Y-110136243D01*
X114414284Y-110156862D01*
X114417000Y-110184440D01*
X114417000Y-110643160D01*
X114414284Y-110670738D01*
X114408029Y-110691357D01*
X114397876Y-110710353D01*
X114384208Y-110727008D01*
X114367553Y-110740676D01*
X114348557Y-110750829D01*
X114327938Y-110757084D01*
X114300360Y-110759800D01*
X113791640Y-110759800D01*
X113764062Y-110757084D01*
X113743443Y-110750829D01*
X113724447Y-110740676D01*
X113707792Y-110727008D01*
X113694124Y-110710353D01*
X113683971Y-110691357D01*
X113677716Y-110670738D01*
X113675000Y-110643160D01*
X113675000Y-110184440D01*
X113677716Y-110156862D01*
X113683971Y-110136243D01*
X113694124Y-110117247D01*
X113707792Y-110100592D01*
X113724447Y-110086924D01*
X113743443Y-110076771D01*
X113764062Y-110070516D01*
X113791640Y-110067800D01*
X114300360Y-110067800D01*
X114327938Y-110070516D01*
G37*
G36*
X140778591Y-109460085D02*
G01*
X140812569Y-109470393D01*
X140843890Y-109487134D01*
X140871339Y-109509661D01*
X140893866Y-109537110D01*
X140910607Y-109568431D01*
X140920915Y-109602409D01*
X140925000Y-109643890D01*
X140925000Y-110320110D01*
X140920915Y-110361591D01*
X140910607Y-110395569D01*
X140893866Y-110426890D01*
X140871339Y-110454339D01*
X140843890Y-110476866D01*
X140812569Y-110493607D01*
X140778591Y-110503915D01*
X140737110Y-110508000D01*
X140135890Y-110508000D01*
X140094409Y-110503915D01*
X140060431Y-110493607D01*
X140029110Y-110476866D01*
X140001661Y-110454339D01*
X139979134Y-110426890D01*
X139962393Y-110395569D01*
X139952085Y-110361591D01*
X139948000Y-110320110D01*
X139948000Y-109643890D01*
X139952085Y-109602409D01*
X139962393Y-109568431D01*
X139979134Y-109537110D01*
X140001661Y-109509661D01*
X140029110Y-109487134D01*
X140060431Y-109470393D01*
X140094409Y-109460085D01*
X140135890Y-109456000D01*
X140737110Y-109456000D01*
X140778591Y-109460085D01*
G37*
G36*
X142353591Y-109460085D02*
G01*
X142387569Y-109470393D01*
X142418890Y-109487134D01*
X142446339Y-109509661D01*
X142468866Y-109537110D01*
X142485607Y-109568431D01*
X142495915Y-109602409D01*
X142500000Y-109643890D01*
X142500000Y-110320110D01*
X142495915Y-110361591D01*
X142485607Y-110395569D01*
X142468866Y-110426890D01*
X142446339Y-110454339D01*
X142418890Y-110476866D01*
X142387569Y-110493607D01*
X142353591Y-110503915D01*
X142312110Y-110508000D01*
X141710890Y-110508000D01*
X141669409Y-110503915D01*
X141635431Y-110493607D01*
X141604110Y-110476866D01*
X141576661Y-110454339D01*
X141554134Y-110426890D01*
X141537393Y-110395569D01*
X141527085Y-110361591D01*
X141523000Y-110320110D01*
X141523000Y-109643890D01*
X141527085Y-109602409D01*
X141537393Y-109568431D01*
X141554134Y-109537110D01*
X141576661Y-109509661D01*
X141604110Y-109487134D01*
X141635431Y-109470393D01*
X141669409Y-109460085D01*
X141710890Y-109456000D01*
X142312110Y-109456000D01*
X142353591Y-109460085D01*
G37*
G36*
X121947938Y-109615716D02*
G01*
X121968557Y-109621971D01*
X121987553Y-109632124D01*
X122004208Y-109645792D01*
X122017876Y-109662447D01*
X122028029Y-109681443D01*
X122034284Y-109702062D01*
X122037000Y-109729640D01*
X122037000Y-110188360D01*
X122034284Y-110215938D01*
X122028029Y-110236557D01*
X122017876Y-110255553D01*
X122004208Y-110272208D01*
X121987553Y-110285876D01*
X121968557Y-110296029D01*
X121947938Y-110302284D01*
X121920360Y-110305000D01*
X121411640Y-110305000D01*
X121384062Y-110302284D01*
X121363443Y-110296029D01*
X121344447Y-110285876D01*
X121327792Y-110272208D01*
X121314124Y-110255553D01*
X121303971Y-110236557D01*
X121297716Y-110215938D01*
X121295000Y-110188360D01*
X121295000Y-109729640D01*
X121297716Y-109702062D01*
X121303971Y-109681443D01*
X121314124Y-109662447D01*
X121327792Y-109645792D01*
X121344447Y-109632124D01*
X121363443Y-109621971D01*
X121384062Y-109615716D01*
X121411640Y-109613000D01*
X121920360Y-109613000D01*
X121947938Y-109615716D01*
G37*
G36*
X148088604Y-108926347D02*
G01*
X148125144Y-108937432D01*
X148158821Y-108955433D01*
X148188341Y-108979659D01*
X148212567Y-109009179D01*
X148230568Y-109042856D01*
X148241653Y-109079396D01*
X148246000Y-109123538D01*
X148246000Y-110072462D01*
X148241653Y-110116604D01*
X148230568Y-110153144D01*
X148212567Y-110186821D01*
X148188341Y-110216341D01*
X148158821Y-110240567D01*
X148125144Y-110258568D01*
X148088604Y-110269653D01*
X148044462Y-110274000D01*
X146595538Y-110274000D01*
X146551396Y-110269653D01*
X146514856Y-110258568D01*
X146481179Y-110240567D01*
X146451659Y-110216341D01*
X146427433Y-110186821D01*
X146409432Y-110153144D01*
X146398347Y-110116604D01*
X146394000Y-110072462D01*
X146394000Y-109123538D01*
X146398347Y-109079396D01*
X146409432Y-109042856D01*
X146427433Y-109009179D01*
X146451659Y-108979659D01*
X146481179Y-108955433D01*
X146514856Y-108937432D01*
X146551396Y-108926347D01*
X146595538Y-108922000D01*
X148044462Y-108922000D01*
X148088604Y-108926347D01*
G37*
G36*
X114327938Y-109100516D02*
G01*
X114348557Y-109106771D01*
X114367553Y-109116924D01*
X114384208Y-109130592D01*
X114397876Y-109147247D01*
X114408029Y-109166243D01*
X114414284Y-109186862D01*
X114417000Y-109214440D01*
X114417000Y-109673160D01*
X114414284Y-109700738D01*
X114408029Y-109721357D01*
X114397876Y-109740353D01*
X114384208Y-109757008D01*
X114367553Y-109770676D01*
X114348557Y-109780829D01*
X114327938Y-109787084D01*
X114300360Y-109789800D01*
X113791640Y-109789800D01*
X113764062Y-109787084D01*
X113743443Y-109780829D01*
X113724447Y-109770676D01*
X113707792Y-109757008D01*
X113694124Y-109740353D01*
X113683971Y-109721357D01*
X113677716Y-109700738D01*
X113675000Y-109673160D01*
X113675000Y-109214440D01*
X113677716Y-109186862D01*
X113683971Y-109166243D01*
X113694124Y-109147247D01*
X113707792Y-109130592D01*
X113724447Y-109116924D01*
X113743443Y-109106771D01*
X113764062Y-109100516D01*
X113791640Y-109097800D01*
X114300360Y-109097800D01*
X114327938Y-109100516D01*
G37*
G36*
X121947938Y-108645716D02*
G01*
X121968557Y-108651971D01*
X121987553Y-108662124D01*
X122004208Y-108675792D01*
X122017876Y-108692447D01*
X122028029Y-108711443D01*
X122034284Y-108732062D01*
X122037000Y-108759640D01*
X122037000Y-109218360D01*
X122034284Y-109245938D01*
X122028029Y-109266557D01*
X122017876Y-109285553D01*
X122004208Y-109302208D01*
X121987553Y-109315876D01*
X121968557Y-109326029D01*
X121947938Y-109332284D01*
X121920360Y-109335000D01*
X121411640Y-109335000D01*
X121384062Y-109332284D01*
X121363443Y-109326029D01*
X121344447Y-109315876D01*
X121327792Y-109302208D01*
X121314124Y-109285553D01*
X121303971Y-109266557D01*
X121297716Y-109245938D01*
X121295000Y-109218360D01*
X121295000Y-108759640D01*
X121297716Y-108732062D01*
X121303971Y-108711443D01*
X121314124Y-108692447D01*
X121327792Y-108675792D01*
X121344447Y-108662124D01*
X121363443Y-108651971D01*
X121384062Y-108645716D01*
X121411640Y-108643000D01*
X121920360Y-108643000D01*
X121947938Y-108645716D01*
G37*
G36*
X140778591Y-107936085D02*
G01*
X140812569Y-107946393D01*
X140843890Y-107963134D01*
X140871339Y-107985661D01*
X140893866Y-108013110D01*
X140910607Y-108044431D01*
X140920915Y-108078409D01*
X140925000Y-108119890D01*
X140925000Y-108796110D01*
X140920915Y-108837591D01*
X140910607Y-108871569D01*
X140893866Y-108902890D01*
X140871339Y-108930339D01*
X140843890Y-108952866D01*
X140812569Y-108969607D01*
X140778591Y-108979915D01*
X140737110Y-108984000D01*
X140135890Y-108984000D01*
X140094409Y-108979915D01*
X140060431Y-108969607D01*
X140029110Y-108952866D01*
X140001661Y-108930339D01*
X139979134Y-108902890D01*
X139962393Y-108871569D01*
X139952085Y-108837591D01*
X139948000Y-108796110D01*
X139948000Y-108119890D01*
X139952085Y-108078409D01*
X139962393Y-108044431D01*
X139979134Y-108013110D01*
X140001661Y-107985661D01*
X140029110Y-107963134D01*
X140060431Y-107946393D01*
X140094409Y-107936085D01*
X140135890Y-107932000D01*
X140737110Y-107932000D01*
X140778591Y-107936085D01*
G37*
G36*
X142353591Y-107936085D02*
G01*
X142387569Y-107946393D01*
X142418890Y-107963134D01*
X142446339Y-107985661D01*
X142468866Y-108013110D01*
X142485607Y-108044431D01*
X142495915Y-108078409D01*
X142500000Y-108119890D01*
X142500000Y-108796110D01*
X142495915Y-108837591D01*
X142485607Y-108871569D01*
X142468866Y-108902890D01*
X142446339Y-108930339D01*
X142418890Y-108952866D01*
X142387569Y-108969607D01*
X142353591Y-108979915D01*
X142312110Y-108984000D01*
X141710890Y-108984000D01*
X141669409Y-108979915D01*
X141635431Y-108969607D01*
X141604110Y-108952866D01*
X141576661Y-108930339D01*
X141554134Y-108902890D01*
X141537393Y-108871569D01*
X141527085Y-108837591D01*
X141523000Y-108796110D01*
X141523000Y-108119890D01*
X141527085Y-108078409D01*
X141537393Y-108044431D01*
X141554134Y-108013110D01*
X141576661Y-107985661D01*
X141604110Y-107963134D01*
X141635431Y-107946393D01*
X141669409Y-107936085D01*
X141710890Y-107932000D01*
X142312110Y-107932000D01*
X142353591Y-107936085D01*
G37*
G36*
X106110000Y-108326000D02*
G01*
X101808000Y-108326000D01*
X101808000Y-106874000D01*
X106110000Y-106874000D01*
X106110000Y-108326000D01*
G37*
G36*
X138461000Y-108114000D02*
G01*
X129509000Y-108114000D01*
X129509000Y-106912000D01*
X138461000Y-106912000D01*
X138461000Y-108114000D01*
G37*
G36*
X126554591Y-106920085D02*
G01*
X126588569Y-106930393D01*
X126619890Y-106947134D01*
X126647339Y-106969661D01*
X126669866Y-106997110D01*
X126686607Y-107028431D01*
X126696915Y-107062409D01*
X126701000Y-107103890D01*
X126701000Y-107780110D01*
X126696915Y-107821591D01*
X126686607Y-107855569D01*
X126669866Y-107886890D01*
X126647339Y-107914339D01*
X126619890Y-107936866D01*
X126588569Y-107953607D01*
X126554591Y-107963915D01*
X126513110Y-107968000D01*
X125911890Y-107968000D01*
X125870409Y-107963915D01*
X125836431Y-107953607D01*
X125805110Y-107936866D01*
X125777661Y-107914339D01*
X125755134Y-107886890D01*
X125738393Y-107855569D01*
X125728085Y-107821591D01*
X125724000Y-107780110D01*
X125724000Y-107103890D01*
X125728085Y-107062409D01*
X125738393Y-107028431D01*
X125755134Y-106997110D01*
X125777661Y-106969661D01*
X125805110Y-106947134D01*
X125836431Y-106930393D01*
X125870409Y-106920085D01*
X125911890Y-106916000D01*
X126513110Y-106916000D01*
X126554591Y-106920085D01*
G37*
G36*
X128129591Y-106920085D02*
G01*
X128163569Y-106930393D01*
X128194890Y-106947134D01*
X128222339Y-106969661D01*
X128244866Y-106997110D01*
X128261607Y-107028431D01*
X128271915Y-107062409D01*
X128276000Y-107103890D01*
X128276000Y-107780110D01*
X128271915Y-107821591D01*
X128261607Y-107855569D01*
X128244866Y-107886890D01*
X128222339Y-107914339D01*
X128194890Y-107936866D01*
X128163569Y-107953607D01*
X128129591Y-107963915D01*
X128088110Y-107968000D01*
X127486890Y-107968000D01*
X127445409Y-107963915D01*
X127411431Y-107953607D01*
X127380110Y-107936866D01*
X127352661Y-107914339D01*
X127330134Y-107886890D01*
X127313393Y-107855569D01*
X127303085Y-107821591D01*
X127299000Y-107780110D01*
X127299000Y-107103890D01*
X127303085Y-107062409D01*
X127313393Y-107028431D01*
X127330134Y-106997110D01*
X127352661Y-106969661D01*
X127380110Y-106947134D01*
X127411431Y-106930393D01*
X127445409Y-106920085D01*
X127486890Y-106916000D01*
X128088110Y-106916000D01*
X128129591Y-106920085D01*
G37*
G36*
X147433512Y-104513927D02*
G01*
X147582812Y-104543624D01*
X147746784Y-104611544D01*
X147894354Y-104710147D01*
X148019853Y-104835646D01*
X148118456Y-104983216D01*
X148186376Y-105147188D01*
X148221000Y-105321259D01*
X148221000Y-105498741D01*
X148186376Y-105672812D01*
X148118456Y-105836784D01*
X148019853Y-105984354D01*
X147894354Y-106109853D01*
X147746784Y-106208456D01*
X147582812Y-106276376D01*
X147433512Y-106306073D01*
X147408742Y-106311000D01*
X147231258Y-106311000D01*
X147206488Y-106306073D01*
X147057188Y-106276376D01*
X146893216Y-106208456D01*
X146745646Y-106109853D01*
X146620147Y-105984354D01*
X146521544Y-105836784D01*
X146453624Y-105672812D01*
X146419000Y-105498741D01*
X146419000Y-105321259D01*
X146453624Y-105147188D01*
X146521544Y-104983216D01*
X146620147Y-104835646D01*
X146745646Y-104710147D01*
X146893216Y-104611544D01*
X147057188Y-104543624D01*
X147206488Y-104513927D01*
X147231258Y-104509000D01*
X147408742Y-104509000D01*
X147433512Y-104513927D01*
G37*
G36*
X144893512Y-104513927D02*
G01*
X145042812Y-104543624D01*
X145206784Y-104611544D01*
X145354354Y-104710147D01*
X145479853Y-104835646D01*
X145578456Y-104983216D01*
X145646376Y-105147188D01*
X145681000Y-105321259D01*
X145681000Y-105498741D01*
X145646376Y-105672812D01*
X145578456Y-105836784D01*
X145479853Y-105984354D01*
X145354354Y-106109853D01*
X145206784Y-106208456D01*
X145042812Y-106276376D01*
X144893512Y-106306073D01*
X144868742Y-106311000D01*
X144691258Y-106311000D01*
X144666488Y-106306073D01*
X144517188Y-106276376D01*
X144353216Y-106208456D01*
X144205646Y-106109853D01*
X144080147Y-105984354D01*
X143981544Y-105836784D01*
X143913624Y-105672812D01*
X143879000Y-105498741D01*
X143879000Y-105321259D01*
X143913624Y-105147188D01*
X143981544Y-104983216D01*
X144080147Y-104835646D01*
X144205646Y-104710147D01*
X144353216Y-104611544D01*
X144517188Y-104543624D01*
X144666488Y-104513927D01*
X144691258Y-104509000D01*
X144868742Y-104509000D01*
X144893512Y-104513927D01*
G37*
G36*
X105610000Y-105461000D02*
G01*
X101908000Y-105461000D01*
X101908000Y-104089000D01*
X105610000Y-104089000D01*
X105610000Y-105461000D01*
G37*
G36*
X139190591Y-104443085D02*
G01*
X139224569Y-104453393D01*
X139255890Y-104470134D01*
X139283339Y-104492661D01*
X139305866Y-104520110D01*
X139322607Y-104551431D01*
X139332915Y-104585409D01*
X139337000Y-104626890D01*
X139337000Y-105228110D01*
X139332915Y-105269591D01*
X139322607Y-105303569D01*
X139305866Y-105334890D01*
X139283339Y-105362339D01*
X139255890Y-105384866D01*
X139224569Y-105401607D01*
X139190591Y-105411915D01*
X139149110Y-105416000D01*
X138472890Y-105416000D01*
X138431409Y-105411915D01*
X138397431Y-105401607D01*
X138366110Y-105384866D01*
X138338661Y-105362339D01*
X138316134Y-105334890D01*
X138299393Y-105303569D01*
X138289085Y-105269591D01*
X138285000Y-105228110D01*
X138285000Y-104626890D01*
X138289085Y-104585409D01*
X138299393Y-104551431D01*
X138316134Y-104520110D01*
X138338661Y-104492661D01*
X138366110Y-104470134D01*
X138397431Y-104453393D01*
X138431409Y-104443085D01*
X138472890Y-104439000D01*
X139149110Y-104439000D01*
X139190591Y-104443085D01*
G37*
G36*
X137139938Y-104406716D02*
G01*
X137160557Y-104412971D01*
X137179553Y-104423124D01*
X137196208Y-104436792D01*
X137209876Y-104453447D01*
X137220029Y-104472443D01*
X137226284Y-104493062D01*
X137229000Y-104520640D01*
X137229000Y-105029360D01*
X137226284Y-105056938D01*
X137220029Y-105077557D01*
X137209876Y-105096553D01*
X137196208Y-105113208D01*
X137179553Y-105126876D01*
X137160557Y-105137029D01*
X137139938Y-105143284D01*
X137112360Y-105146000D01*
X136653640Y-105146000D01*
X136626062Y-105143284D01*
X136605443Y-105137029D01*
X136586447Y-105126876D01*
X136569792Y-105113208D01*
X136556124Y-105096553D01*
X136545971Y-105077557D01*
X136539716Y-105056938D01*
X136537000Y-105029360D01*
X136537000Y-104520640D01*
X136539716Y-104493062D01*
X136545971Y-104472443D01*
X136556124Y-104453447D01*
X136569792Y-104436792D01*
X136586447Y-104423124D01*
X136605443Y-104412971D01*
X136626062Y-104406716D01*
X136653640Y-104404000D01*
X137112360Y-104404000D01*
X137139938Y-104406716D01*
G37*
G36*
X140360938Y-104406716D02*
G01*
X140381557Y-104412971D01*
X140400553Y-104423124D01*
X140417208Y-104436792D01*
X140430876Y-104453447D01*
X140441029Y-104472443D01*
X140447284Y-104493062D01*
X140450000Y-104520640D01*
X140450000Y-105029360D01*
X140447284Y-105056938D01*
X140441029Y-105077557D01*
X140430876Y-105096553D01*
X140417208Y-105113208D01*
X140400553Y-105126876D01*
X140381557Y-105137029D01*
X140360938Y-105143284D01*
X140333360Y-105146000D01*
X139874640Y-105146000D01*
X139847062Y-105143284D01*
X139826443Y-105137029D01*
X139807447Y-105126876D01*
X139790792Y-105113208D01*
X139777124Y-105096553D01*
X139766971Y-105077557D01*
X139760716Y-105056938D01*
X139758000Y-105029360D01*
X139758000Y-104520640D01*
X139760716Y-104493062D01*
X139766971Y-104472443D01*
X139777124Y-104453447D01*
X139790792Y-104436792D01*
X139807447Y-104423124D01*
X139826443Y-104412971D01*
X139847062Y-104406716D01*
X139874640Y-104404000D01*
X140333360Y-104404000D01*
X140360938Y-104406716D01*
G37*
G36*
X141330938Y-104406716D02*
G01*
X141351557Y-104412971D01*
X141370553Y-104423124D01*
X141387208Y-104436792D01*
X141400876Y-104453447D01*
X141411029Y-104472443D01*
X141417284Y-104493062D01*
X141420000Y-104520640D01*
X141420000Y-105029360D01*
X141417284Y-105056938D01*
X141411029Y-105077557D01*
X141400876Y-105096553D01*
X141387208Y-105113208D01*
X141370553Y-105126876D01*
X141351557Y-105137029D01*
X141330938Y-105143284D01*
X141303360Y-105146000D01*
X140844640Y-105146000D01*
X140817062Y-105143284D01*
X140796443Y-105137029D01*
X140777447Y-105126876D01*
X140760792Y-105113208D01*
X140747124Y-105096553D01*
X140736971Y-105077557D01*
X140730716Y-105056938D01*
X140728000Y-105029360D01*
X140728000Y-104520640D01*
X140730716Y-104493062D01*
X140736971Y-104472443D01*
X140747124Y-104453447D01*
X140760792Y-104436792D01*
X140777447Y-104423124D01*
X140796443Y-104412971D01*
X140817062Y-104406716D01*
X140844640Y-104404000D01*
X141303360Y-104404000D01*
X141330938Y-104406716D01*
G37*
G36*
X136169938Y-104406716D02*
G01*
X136190557Y-104412971D01*
X136209553Y-104423124D01*
X136226208Y-104436792D01*
X136239876Y-104453447D01*
X136250029Y-104472443D01*
X136256284Y-104493062D01*
X136259000Y-104520640D01*
X136259000Y-105029360D01*
X136256284Y-105056938D01*
X136250029Y-105077557D01*
X136239876Y-105096553D01*
X136226208Y-105113208D01*
X136209553Y-105126876D01*
X136190557Y-105137029D01*
X136169938Y-105143284D01*
X136142360Y-105146000D01*
X135683640Y-105146000D01*
X135656062Y-105143284D01*
X135635443Y-105137029D01*
X135616447Y-105126876D01*
X135599792Y-105113208D01*
X135586124Y-105096553D01*
X135575971Y-105077557D01*
X135569716Y-105056938D01*
X135567000Y-105029360D01*
X135567000Y-104520640D01*
X135569716Y-104493062D01*
X135575971Y-104472443D01*
X135586124Y-104453447D01*
X135599792Y-104436792D01*
X135616447Y-104423124D01*
X135635443Y-104412971D01*
X135656062Y-104406716D01*
X135683640Y-104404000D01*
X136142360Y-104404000D01*
X136169938Y-104406716D01*
G37*
G36*
X142521938Y-104281716D02*
G01*
X142542557Y-104287971D01*
X142561553Y-104298124D01*
X142578208Y-104311792D01*
X142591876Y-104328447D01*
X142602029Y-104347443D01*
X142608284Y-104368062D01*
X142611000Y-104395640D01*
X142611000Y-104854360D01*
X142608284Y-104881938D01*
X142602029Y-104902557D01*
X142591876Y-104921553D01*
X142578208Y-104938208D01*
X142561553Y-104951876D01*
X142542557Y-104962029D01*
X142521938Y-104968284D01*
X142494360Y-104971000D01*
X141985640Y-104971000D01*
X141958062Y-104968284D01*
X141937443Y-104962029D01*
X141918447Y-104951876D01*
X141901792Y-104938208D01*
X141888124Y-104921553D01*
X141877971Y-104902557D01*
X141871716Y-104881938D01*
X141869000Y-104854360D01*
X141869000Y-104395640D01*
X141871716Y-104368062D01*
X141877971Y-104347443D01*
X141888124Y-104328447D01*
X141901792Y-104311792D01*
X141918447Y-104298124D01*
X141937443Y-104287971D01*
X141958062Y-104281716D01*
X141985640Y-104279000D01*
X142494360Y-104279000D01*
X142521938Y-104281716D01*
G37*
G36*
X142521938Y-103311716D02*
G01*
X142542557Y-103317971D01*
X142561553Y-103328124D01*
X142578208Y-103341792D01*
X142591876Y-103358447D01*
X142602029Y-103377443D01*
X142608284Y-103398062D01*
X142611000Y-103425640D01*
X142611000Y-103884360D01*
X142608284Y-103911938D01*
X142602029Y-103932557D01*
X142591876Y-103951553D01*
X142578208Y-103968208D01*
X142561553Y-103981876D01*
X142542557Y-103992029D01*
X142521938Y-103998284D01*
X142494360Y-104001000D01*
X141985640Y-104001000D01*
X141958062Y-103998284D01*
X141937443Y-103992029D01*
X141918447Y-103981876D01*
X141901792Y-103968208D01*
X141888124Y-103951553D01*
X141877971Y-103932557D01*
X141871716Y-103911938D01*
X141869000Y-103884360D01*
X141869000Y-103425640D01*
X141871716Y-103398062D01*
X141877971Y-103377443D01*
X141888124Y-103358447D01*
X141901792Y-103341792D01*
X141918447Y-103328124D01*
X141937443Y-103317971D01*
X141958062Y-103311716D01*
X141985640Y-103309000D01*
X142494360Y-103309000D01*
X142521938Y-103311716D01*
G37*
G36*
X136169938Y-103136716D02*
G01*
X136190557Y-103142971D01*
X136209553Y-103153124D01*
X136226208Y-103166792D01*
X136239876Y-103183447D01*
X136250029Y-103202443D01*
X136256284Y-103223062D01*
X136259000Y-103250640D01*
X136259000Y-103759360D01*
X136256284Y-103786938D01*
X136250029Y-103807557D01*
X136239876Y-103826553D01*
X136226208Y-103843208D01*
X136209553Y-103856876D01*
X136190557Y-103867029D01*
X136169938Y-103873284D01*
X136142360Y-103876000D01*
X135683640Y-103876000D01*
X135656062Y-103873284D01*
X135635443Y-103867029D01*
X135616447Y-103856876D01*
X135599792Y-103843208D01*
X135586124Y-103826553D01*
X135575971Y-103807557D01*
X135569716Y-103786938D01*
X135567000Y-103759360D01*
X135567000Y-103250640D01*
X135569716Y-103223062D01*
X135575971Y-103202443D01*
X135586124Y-103183447D01*
X135599792Y-103166792D01*
X135616447Y-103153124D01*
X135635443Y-103142971D01*
X135656062Y-103136716D01*
X135683640Y-103134000D01*
X136142360Y-103134000D01*
X136169938Y-103136716D01*
G37*
G36*
X141330938Y-103136716D02*
G01*
X141351557Y-103142971D01*
X141370553Y-103153124D01*
X141387208Y-103166792D01*
X141400876Y-103183447D01*
X141411029Y-103202443D01*
X141417284Y-103223062D01*
X141420000Y-103250640D01*
X141420000Y-103759360D01*
X141417284Y-103786938D01*
X141411029Y-103807557D01*
X141400876Y-103826553D01*
X141387208Y-103843208D01*
X141370553Y-103856876D01*
X141351557Y-103867029D01*
X141330938Y-103873284D01*
X141303360Y-103876000D01*
X140844640Y-103876000D01*
X140817062Y-103873284D01*
X140796443Y-103867029D01*
X140777447Y-103856876D01*
X140760792Y-103843208D01*
X140747124Y-103826553D01*
X140736971Y-103807557D01*
X140730716Y-103786938D01*
X140728000Y-103759360D01*
X140728000Y-103250640D01*
X140730716Y-103223062D01*
X140736971Y-103202443D01*
X140747124Y-103183447D01*
X140760792Y-103166792D01*
X140777447Y-103153124D01*
X140796443Y-103142971D01*
X140817062Y-103136716D01*
X140844640Y-103134000D01*
X141303360Y-103134000D01*
X141330938Y-103136716D01*
G37*
G36*
X137139938Y-103136716D02*
G01*
X137160557Y-103142971D01*
X137179553Y-103153124D01*
X137196208Y-103166792D01*
X137209876Y-103183447D01*
X137220029Y-103202443D01*
X137226284Y-103223062D01*
X137229000Y-103250640D01*
X137229000Y-103759360D01*
X137226284Y-103786938D01*
X137220029Y-103807557D01*
X137209876Y-103826553D01*
X137196208Y-103843208D01*
X137179553Y-103856876D01*
X137160557Y-103867029D01*
X137139938Y-103873284D01*
X137112360Y-103876000D01*
X136653640Y-103876000D01*
X136626062Y-103873284D01*
X136605443Y-103867029D01*
X136586447Y-103856876D01*
X136569792Y-103843208D01*
X136556124Y-103826553D01*
X136545971Y-103807557D01*
X136539716Y-103786938D01*
X136537000Y-103759360D01*
X136537000Y-103250640D01*
X136539716Y-103223062D01*
X136545971Y-103202443D01*
X136556124Y-103183447D01*
X136569792Y-103166792D01*
X136586447Y-103153124D01*
X136605443Y-103142971D01*
X136626062Y-103136716D01*
X136653640Y-103134000D01*
X137112360Y-103134000D01*
X137139938Y-103136716D01*
G37*
G36*
X140360938Y-103136716D02*
G01*
X140381557Y-103142971D01*
X140400553Y-103153124D01*
X140417208Y-103166792D01*
X140430876Y-103183447D01*
X140441029Y-103202443D01*
X140447284Y-103223062D01*
X140450000Y-103250640D01*
X140450000Y-103759360D01*
X140447284Y-103786938D01*
X140441029Y-103807557D01*
X140430876Y-103826553D01*
X140417208Y-103843208D01*
X140400553Y-103856876D01*
X140381557Y-103867029D01*
X140360938Y-103873284D01*
X140333360Y-103876000D01*
X139874640Y-103876000D01*
X139847062Y-103873284D01*
X139826443Y-103867029D01*
X139807447Y-103856876D01*
X139790792Y-103843208D01*
X139777124Y-103826553D01*
X139766971Y-103807557D01*
X139760716Y-103786938D01*
X139758000Y-103759360D01*
X139758000Y-103250640D01*
X139760716Y-103223062D01*
X139766971Y-103202443D01*
X139777124Y-103183447D01*
X139790792Y-103166792D01*
X139807447Y-103153124D01*
X139826443Y-103142971D01*
X139847062Y-103136716D01*
X139874640Y-103134000D01*
X140333360Y-103134000D01*
X140360938Y-103136716D01*
G37*
G36*
X139190591Y-102868085D02*
G01*
X139224569Y-102878393D01*
X139255890Y-102895134D01*
X139283339Y-102917661D01*
X139305866Y-102945110D01*
X139322607Y-102976431D01*
X139332915Y-103010409D01*
X139337000Y-103051890D01*
X139337000Y-103653110D01*
X139332915Y-103694591D01*
X139322607Y-103728569D01*
X139305866Y-103759890D01*
X139283339Y-103787339D01*
X139255890Y-103809866D01*
X139224569Y-103826607D01*
X139190591Y-103836915D01*
X139149110Y-103841000D01*
X138472890Y-103841000D01*
X138431409Y-103836915D01*
X138397431Y-103826607D01*
X138366110Y-103809866D01*
X138338661Y-103787339D01*
X138316134Y-103759890D01*
X138299393Y-103728569D01*
X138289085Y-103694591D01*
X138285000Y-103653110D01*
X138285000Y-103051890D01*
X138289085Y-103010409D01*
X138299393Y-102976431D01*
X138316134Y-102945110D01*
X138338661Y-102917661D01*
X138366110Y-102895134D01*
X138397431Y-102878393D01*
X138431409Y-102868085D01*
X138472890Y-102864000D01*
X139149110Y-102864000D01*
X139190591Y-102868085D01*
G37*
G36*
X145681000Y-103771000D02*
G01*
X143879000Y-103771000D01*
X143879000Y-101969000D01*
X145681000Y-101969000D01*
X145681000Y-103771000D01*
G37*
G36*
X147433512Y-101973927D02*
G01*
X147582812Y-102003624D01*
X147746784Y-102071544D01*
X147894354Y-102170147D01*
X148019853Y-102295646D01*
X148118456Y-102443216D01*
X148186376Y-102607188D01*
X148221000Y-102781259D01*
X148221000Y-102958741D01*
X148186376Y-103132812D01*
X148118456Y-103296784D01*
X148019853Y-103444354D01*
X147894354Y-103569853D01*
X147746784Y-103668456D01*
X147582812Y-103736376D01*
X147433512Y-103766073D01*
X147408742Y-103771000D01*
X147231258Y-103771000D01*
X147206488Y-103766073D01*
X147057188Y-103736376D01*
X146893216Y-103668456D01*
X146745646Y-103569853D01*
X146620147Y-103444354D01*
X146521544Y-103296784D01*
X146453624Y-103132812D01*
X146419000Y-102958741D01*
X146419000Y-102781259D01*
X146453624Y-102607188D01*
X146521544Y-102443216D01*
X146620147Y-102295646D01*
X146745646Y-102170147D01*
X146893216Y-102071544D01*
X147057188Y-102003624D01*
X147206488Y-101973927D01*
X147231258Y-101969000D01*
X147408742Y-101969000D01*
X147433512Y-101973927D01*
G37*
G36*
X106110000Y-102676000D02*
G01*
X101808000Y-102676000D01*
X101808000Y-101224000D01*
X106110000Y-101224000D01*
X106110000Y-102676000D01*
G37*
G36*
X123979938Y-101741716D02*
G01*
X124000557Y-101747971D01*
X124019553Y-101758124D01*
X124036208Y-101771792D01*
X124049876Y-101788447D01*
X124060029Y-101807443D01*
X124066284Y-101828062D01*
X124069000Y-101855640D01*
X124069000Y-102314360D01*
X124066284Y-102341938D01*
X124060029Y-102362557D01*
X124049876Y-102381553D01*
X124036208Y-102398208D01*
X124019553Y-102411876D01*
X124000557Y-102422029D01*
X123979938Y-102428284D01*
X123952360Y-102431000D01*
X123443640Y-102431000D01*
X123416062Y-102428284D01*
X123395443Y-102422029D01*
X123376447Y-102411876D01*
X123359792Y-102398208D01*
X123346124Y-102381553D01*
X123335971Y-102362557D01*
X123329716Y-102341938D01*
X123327000Y-102314360D01*
X123327000Y-101855640D01*
X123329716Y-101828062D01*
X123335971Y-101807443D01*
X123346124Y-101788447D01*
X123359792Y-101771792D01*
X123376447Y-101758124D01*
X123395443Y-101747971D01*
X123416062Y-101741716D01*
X123443640Y-101739000D01*
X123952360Y-101739000D01*
X123979938Y-101741716D01*
G37*
G36*
X130329938Y-101741716D02*
G01*
X130350557Y-101747971D01*
X130369553Y-101758124D01*
X130386208Y-101771792D01*
X130399876Y-101788447D01*
X130410029Y-101807443D01*
X130416284Y-101828062D01*
X130419000Y-101855640D01*
X130419000Y-102314360D01*
X130416284Y-102341938D01*
X130410029Y-102362557D01*
X130399876Y-102381553D01*
X130386208Y-102398208D01*
X130369553Y-102411876D01*
X130350557Y-102422029D01*
X130329938Y-102428284D01*
X130302360Y-102431000D01*
X129793640Y-102431000D01*
X129766062Y-102428284D01*
X129745443Y-102422029D01*
X129726447Y-102411876D01*
X129709792Y-102398208D01*
X129696124Y-102381553D01*
X129685971Y-102362557D01*
X129679716Y-102341938D01*
X129677000Y-102314360D01*
X129677000Y-101855640D01*
X129679716Y-101828062D01*
X129685971Y-101807443D01*
X129696124Y-101788447D01*
X129709792Y-101771792D01*
X129726447Y-101758124D01*
X129745443Y-101747971D01*
X129766062Y-101741716D01*
X129793640Y-101739000D01*
X130302360Y-101739000D01*
X130329938Y-101741716D01*
G37*
G36*
X131599938Y-101741716D02*
G01*
X131620557Y-101747971D01*
X131639553Y-101758124D01*
X131656208Y-101771792D01*
X131669876Y-101788447D01*
X131680029Y-101807443D01*
X131686284Y-101828062D01*
X131689000Y-101855640D01*
X131689000Y-102314360D01*
X131686284Y-102341938D01*
X131680029Y-102362557D01*
X131669876Y-102381553D01*
X131656208Y-102398208D01*
X131639553Y-102411876D01*
X131620557Y-102422029D01*
X131599938Y-102428284D01*
X131572360Y-102431000D01*
X131063640Y-102431000D01*
X131036062Y-102428284D01*
X131015443Y-102422029D01*
X130996447Y-102411876D01*
X130979792Y-102398208D01*
X130966124Y-102381553D01*
X130955971Y-102362557D01*
X130949716Y-102341938D01*
X130947000Y-102314360D01*
X130947000Y-101855640D01*
X130949716Y-101828062D01*
X130955971Y-101807443D01*
X130966124Y-101788447D01*
X130979792Y-101771792D01*
X130996447Y-101758124D01*
X131015443Y-101747971D01*
X131036062Y-101741716D01*
X131063640Y-101739000D01*
X131572360Y-101739000D01*
X131599938Y-101741716D01*
G37*
G36*
X122709938Y-101741716D02*
G01*
X122730557Y-101747971D01*
X122749553Y-101758124D01*
X122766208Y-101771792D01*
X122779876Y-101788447D01*
X122790029Y-101807443D01*
X122796284Y-101828062D01*
X122799000Y-101855640D01*
X122799000Y-102314360D01*
X122796284Y-102341938D01*
X122790029Y-102362557D01*
X122779876Y-102381553D01*
X122766208Y-102398208D01*
X122749553Y-102411876D01*
X122730557Y-102422029D01*
X122709938Y-102428284D01*
X122682360Y-102431000D01*
X122173640Y-102431000D01*
X122146062Y-102428284D01*
X122125443Y-102422029D01*
X122106447Y-102411876D01*
X122089792Y-102398208D01*
X122076124Y-102381553D01*
X122065971Y-102362557D01*
X122059716Y-102341938D01*
X122057000Y-102314360D01*
X122057000Y-101855640D01*
X122059716Y-101828062D01*
X122065971Y-101807443D01*
X122076124Y-101788447D01*
X122089792Y-101771792D01*
X122106447Y-101758124D01*
X122125443Y-101747971D01*
X122146062Y-101741716D01*
X122173640Y-101739000D01*
X122682360Y-101739000D01*
X122709938Y-101741716D01*
G37*
G36*
X123979938Y-100771716D02*
G01*
X124000557Y-100777971D01*
X124019553Y-100788124D01*
X124036208Y-100801792D01*
X124049876Y-100818447D01*
X124060029Y-100837443D01*
X124066284Y-100858062D01*
X124069000Y-100885640D01*
X124069000Y-101344360D01*
X124066284Y-101371938D01*
X124060029Y-101392557D01*
X124049876Y-101411553D01*
X124036208Y-101428208D01*
X124019553Y-101441876D01*
X124000557Y-101452029D01*
X123979938Y-101458284D01*
X123952360Y-101461000D01*
X123443640Y-101461000D01*
X123416062Y-101458284D01*
X123395443Y-101452029D01*
X123376447Y-101441876D01*
X123359792Y-101428208D01*
X123346124Y-101411553D01*
X123335971Y-101392557D01*
X123329716Y-101371938D01*
X123327000Y-101344360D01*
X123327000Y-100885640D01*
X123329716Y-100858062D01*
X123335971Y-100837443D01*
X123346124Y-100818447D01*
X123359792Y-100801792D01*
X123376447Y-100788124D01*
X123395443Y-100777971D01*
X123416062Y-100771716D01*
X123443640Y-100769000D01*
X123952360Y-100769000D01*
X123979938Y-100771716D01*
G37*
G36*
X130329938Y-100771716D02*
G01*
X130350557Y-100777971D01*
X130369553Y-100788124D01*
X130386208Y-100801792D01*
X130399876Y-100818447D01*
X130410029Y-100837443D01*
X130416284Y-100858062D01*
X130419000Y-100885640D01*
X130419000Y-101344360D01*
X130416284Y-101371938D01*
X130410029Y-101392557D01*
X130399876Y-101411553D01*
X130386208Y-101428208D01*
X130369553Y-101441876D01*
X130350557Y-101452029D01*
X130329938Y-101458284D01*
X130302360Y-101461000D01*
X129793640Y-101461000D01*
X129766062Y-101458284D01*
X129745443Y-101452029D01*
X129726447Y-101441876D01*
X129709792Y-101428208D01*
X129696124Y-101411553D01*
X129685971Y-101392557D01*
X129679716Y-101371938D01*
X129677000Y-101344360D01*
X129677000Y-100885640D01*
X129679716Y-100858062D01*
X129685971Y-100837443D01*
X129696124Y-100818447D01*
X129709792Y-100801792D01*
X129726447Y-100788124D01*
X129745443Y-100777971D01*
X129766062Y-100771716D01*
X129793640Y-100769000D01*
X130302360Y-100769000D01*
X130329938Y-100771716D01*
G37*
G36*
X131599938Y-100771716D02*
G01*
X131620557Y-100777971D01*
X131639553Y-100788124D01*
X131656208Y-100801792D01*
X131669876Y-100818447D01*
X131680029Y-100837443D01*
X131686284Y-100858062D01*
X131689000Y-100885640D01*
X131689000Y-101344360D01*
X131686284Y-101371938D01*
X131680029Y-101392557D01*
X131669876Y-101411553D01*
X131656208Y-101428208D01*
X131639553Y-101441876D01*
X131620557Y-101452029D01*
X131599938Y-101458284D01*
X131572360Y-101461000D01*
X131063640Y-101461000D01*
X131036062Y-101458284D01*
X131015443Y-101452029D01*
X130996447Y-101441876D01*
X130979792Y-101428208D01*
X130966124Y-101411553D01*
X130955971Y-101392557D01*
X130949716Y-101371938D01*
X130947000Y-101344360D01*
X130947000Y-100885640D01*
X130949716Y-100858062D01*
X130955971Y-100837443D01*
X130966124Y-100818447D01*
X130979792Y-100801792D01*
X130996447Y-100788124D01*
X131015443Y-100777971D01*
X131036062Y-100771716D01*
X131063640Y-100769000D01*
X131572360Y-100769000D01*
X131599938Y-100771716D01*
G37*
G36*
X122709938Y-100771716D02*
G01*
X122730557Y-100777971D01*
X122749553Y-100788124D01*
X122766208Y-100801792D01*
X122779876Y-100818447D01*
X122790029Y-100837443D01*
X122796284Y-100858062D01*
X122799000Y-100885640D01*
X122799000Y-101344360D01*
X122796284Y-101371938D01*
X122790029Y-101392557D01*
X122779876Y-101411553D01*
X122766208Y-101428208D01*
X122749553Y-101441876D01*
X122730557Y-101452029D01*
X122709938Y-101458284D01*
X122682360Y-101461000D01*
X122173640Y-101461000D01*
X122146062Y-101458284D01*
X122125443Y-101452029D01*
X122106447Y-101441876D01*
X122089792Y-101428208D01*
X122076124Y-101411553D01*
X122065971Y-101392557D01*
X122059716Y-101371938D01*
X122057000Y-101344360D01*
X122057000Y-100885640D01*
X122059716Y-100858062D01*
X122065971Y-100837443D01*
X122076124Y-100818447D01*
X122089792Y-100801792D01*
X122106447Y-100788124D01*
X122125443Y-100777971D01*
X122146062Y-100771716D01*
X122173640Y-100769000D01*
X122682360Y-100769000D01*
X122709938Y-100771716D01*
G37*
G36*
X131812591Y-98665085D02*
G01*
X131846569Y-98675393D01*
X131877890Y-98692134D01*
X131905339Y-98714661D01*
X131927866Y-98742110D01*
X131944607Y-98773431D01*
X131954915Y-98807409D01*
X131959000Y-98848890D01*
X131959000Y-99525110D01*
X131954915Y-99566591D01*
X131944607Y-99600569D01*
X131927866Y-99631890D01*
X131905339Y-99659339D01*
X131877890Y-99681866D01*
X131846569Y-99698607D01*
X131812591Y-99708915D01*
X131771110Y-99713000D01*
X131169890Y-99713000D01*
X131128409Y-99708915D01*
X131094431Y-99698607D01*
X131063110Y-99681866D01*
X131035661Y-99659339D01*
X131013134Y-99631890D01*
X130996393Y-99600569D01*
X130986085Y-99566591D01*
X130982000Y-99525110D01*
X130982000Y-98848890D01*
X130986085Y-98807409D01*
X130996393Y-98773431D01*
X131013134Y-98742110D01*
X131035661Y-98714661D01*
X131063110Y-98692134D01*
X131094431Y-98675393D01*
X131128409Y-98665085D01*
X131169890Y-98661000D01*
X131771110Y-98661000D01*
X131812591Y-98665085D01*
G37*
G36*
X122617591Y-98665085D02*
G01*
X122651569Y-98675393D01*
X122682890Y-98692134D01*
X122710339Y-98714661D01*
X122732866Y-98742110D01*
X122749607Y-98773431D01*
X122759915Y-98807409D01*
X122764000Y-98848890D01*
X122764000Y-99525110D01*
X122759915Y-99566591D01*
X122749607Y-99600569D01*
X122732866Y-99631890D01*
X122710339Y-99659339D01*
X122682890Y-99681866D01*
X122651569Y-99698607D01*
X122617591Y-99708915D01*
X122576110Y-99713000D01*
X121974890Y-99713000D01*
X121933409Y-99708915D01*
X121899431Y-99698607D01*
X121868110Y-99681866D01*
X121840661Y-99659339D01*
X121818134Y-99631890D01*
X121801393Y-99600569D01*
X121791085Y-99566591D01*
X121787000Y-99525110D01*
X121787000Y-98848890D01*
X121791085Y-98807409D01*
X121801393Y-98773431D01*
X121818134Y-98742110D01*
X121840661Y-98714661D01*
X121868110Y-98692134D01*
X121899431Y-98675393D01*
X121933409Y-98665085D01*
X121974890Y-98661000D01*
X122576110Y-98661000D01*
X122617591Y-98665085D01*
G37*
G36*
X124192591Y-98665085D02*
G01*
X124226569Y-98675393D01*
X124257890Y-98692134D01*
X124285339Y-98714661D01*
X124307866Y-98742110D01*
X124324607Y-98773431D01*
X124334915Y-98807409D01*
X124339000Y-98848890D01*
X124339000Y-99525110D01*
X124334915Y-99566591D01*
X124324607Y-99600569D01*
X124307866Y-99631890D01*
X124285339Y-99659339D01*
X124257890Y-99681866D01*
X124226569Y-99698607D01*
X124192591Y-99708915D01*
X124151110Y-99713000D01*
X123549890Y-99713000D01*
X123508409Y-99708915D01*
X123474431Y-99698607D01*
X123443110Y-99681866D01*
X123415661Y-99659339D01*
X123393134Y-99631890D01*
X123376393Y-99600569D01*
X123366085Y-99566591D01*
X123362000Y-99525110D01*
X123362000Y-98848890D01*
X123366085Y-98807409D01*
X123376393Y-98773431D01*
X123393134Y-98742110D01*
X123415661Y-98714661D01*
X123443110Y-98692134D01*
X123474431Y-98675393D01*
X123508409Y-98665085D01*
X123549890Y-98661000D01*
X124151110Y-98661000D01*
X124192591Y-98665085D01*
G37*
G36*
X130237591Y-98665085D02*
G01*
X130271569Y-98675393D01*
X130302890Y-98692134D01*
X130330339Y-98714661D01*
X130352866Y-98742110D01*
X130369607Y-98773431D01*
X130379915Y-98807409D01*
X130384000Y-98848890D01*
X130384000Y-99525110D01*
X130379915Y-99566591D01*
X130369607Y-99600569D01*
X130352866Y-99631890D01*
X130330339Y-99659339D01*
X130302890Y-99681866D01*
X130271569Y-99698607D01*
X130237591Y-99708915D01*
X130196110Y-99713000D01*
X129594890Y-99713000D01*
X129553409Y-99708915D01*
X129519431Y-99698607D01*
X129488110Y-99681866D01*
X129460661Y-99659339D01*
X129438134Y-99631890D01*
X129421393Y-99600569D01*
X129411085Y-99566591D01*
X129407000Y-99525110D01*
X129407000Y-98848890D01*
X129411085Y-98807409D01*
X129421393Y-98773431D01*
X129438134Y-98742110D01*
X129460661Y-98714661D01*
X129488110Y-98692134D01*
X129519431Y-98675393D01*
X129553409Y-98665085D01*
X129594890Y-98661000D01*
X130196110Y-98661000D01*
X130237591Y-98665085D01*
G37*
G36*
X113409591Y-98728085D02*
G01*
X113443569Y-98738393D01*
X113474890Y-98755134D01*
X113502339Y-98777661D01*
X113524866Y-98805110D01*
X113541607Y-98836431D01*
X113551915Y-98870409D01*
X113556000Y-98911890D01*
X113556000Y-99513110D01*
X113551915Y-99554591D01*
X113541607Y-99588569D01*
X113524866Y-99619890D01*
X113502339Y-99647339D01*
X113474890Y-99669866D01*
X113443569Y-99686607D01*
X113409591Y-99696915D01*
X113368110Y-99701000D01*
X112691890Y-99701000D01*
X112650409Y-99696915D01*
X112616431Y-99686607D01*
X112585110Y-99669866D01*
X112557661Y-99647339D01*
X112535134Y-99619890D01*
X112518393Y-99588569D01*
X112508085Y-99554591D01*
X112504000Y-99513110D01*
X112504000Y-98911890D01*
X112508085Y-98870409D01*
X112518393Y-98836431D01*
X112535134Y-98805110D01*
X112557661Y-98777661D01*
X112585110Y-98755134D01*
X112616431Y-98738393D01*
X112650409Y-98728085D01*
X112691890Y-98724000D01*
X113368110Y-98724000D01*
X113409591Y-98728085D01*
G37*
G36*
X115214938Y-98691716D02*
G01*
X115235557Y-98697971D01*
X115254553Y-98708124D01*
X115271208Y-98721792D01*
X115284876Y-98738447D01*
X115295029Y-98757443D01*
X115301284Y-98778062D01*
X115304000Y-98805640D01*
X115304000Y-99314360D01*
X115301284Y-99341938D01*
X115295029Y-99362557D01*
X115284876Y-99381553D01*
X115271208Y-99398208D01*
X115254553Y-99411876D01*
X115235557Y-99422029D01*
X115214938Y-99428284D01*
X115187360Y-99431000D01*
X114728640Y-99431000D01*
X114701062Y-99428284D01*
X114680443Y-99422029D01*
X114661447Y-99411876D01*
X114644792Y-99398208D01*
X114631124Y-99381553D01*
X114620971Y-99362557D01*
X114614716Y-99341938D01*
X114612000Y-99314360D01*
X114612000Y-98805640D01*
X114614716Y-98778062D01*
X114620971Y-98757443D01*
X114631124Y-98738447D01*
X114644792Y-98721792D01*
X114661447Y-98708124D01*
X114680443Y-98697971D01*
X114701062Y-98691716D01*
X114728640Y-98689000D01*
X115187360Y-98689000D01*
X115214938Y-98691716D01*
G37*
G36*
X116184938Y-98691716D02*
G01*
X116205557Y-98697971D01*
X116224553Y-98708124D01*
X116241208Y-98721792D01*
X116254876Y-98738447D01*
X116265029Y-98757443D01*
X116271284Y-98778062D01*
X116274000Y-98805640D01*
X116274000Y-99314360D01*
X116271284Y-99341938D01*
X116265029Y-99362557D01*
X116254876Y-99381553D01*
X116241208Y-99398208D01*
X116224553Y-99411876D01*
X116205557Y-99422029D01*
X116184938Y-99428284D01*
X116157360Y-99431000D01*
X115698640Y-99431000D01*
X115671062Y-99428284D01*
X115650443Y-99422029D01*
X115631447Y-99411876D01*
X115614792Y-99398208D01*
X115601124Y-99381553D01*
X115590971Y-99362557D01*
X115584716Y-99341938D01*
X115582000Y-99314360D01*
X115582000Y-98805640D01*
X115584716Y-98778062D01*
X115590971Y-98757443D01*
X115601124Y-98738447D01*
X115614792Y-98721792D01*
X115631447Y-98708124D01*
X115650443Y-98697971D01*
X115671062Y-98691716D01*
X115698640Y-98689000D01*
X116157360Y-98689000D01*
X116184938Y-98691716D01*
G37*
G36*
X111023938Y-98691716D02*
G01*
X111044557Y-98697971D01*
X111063553Y-98708124D01*
X111080208Y-98721792D01*
X111093876Y-98738447D01*
X111104029Y-98757443D01*
X111110284Y-98778062D01*
X111113000Y-98805640D01*
X111113000Y-99314360D01*
X111110284Y-99341938D01*
X111104029Y-99362557D01*
X111093876Y-99381553D01*
X111080208Y-99398208D01*
X111063553Y-99411876D01*
X111044557Y-99422029D01*
X111023938Y-99428284D01*
X110996360Y-99431000D01*
X110537640Y-99431000D01*
X110510062Y-99428284D01*
X110489443Y-99422029D01*
X110470447Y-99411876D01*
X110453792Y-99398208D01*
X110440124Y-99381553D01*
X110429971Y-99362557D01*
X110423716Y-99341938D01*
X110421000Y-99314360D01*
X110421000Y-98805640D01*
X110423716Y-98778062D01*
X110429971Y-98757443D01*
X110440124Y-98738447D01*
X110453792Y-98721792D01*
X110470447Y-98708124D01*
X110489443Y-98697971D01*
X110510062Y-98691716D01*
X110537640Y-98689000D01*
X110996360Y-98689000D01*
X111023938Y-98691716D01*
G37*
G36*
X111993938Y-98691716D02*
G01*
X112014557Y-98697971D01*
X112033553Y-98708124D01*
X112050208Y-98721792D01*
X112063876Y-98738447D01*
X112074029Y-98757443D01*
X112080284Y-98778062D01*
X112083000Y-98805640D01*
X112083000Y-99314360D01*
X112080284Y-99341938D01*
X112074029Y-99362557D01*
X112063876Y-99381553D01*
X112050208Y-99398208D01*
X112033553Y-99411876D01*
X112014557Y-99422029D01*
X111993938Y-99428284D01*
X111966360Y-99431000D01*
X111507640Y-99431000D01*
X111480062Y-99428284D01*
X111459443Y-99422029D01*
X111440447Y-99411876D01*
X111423792Y-99398208D01*
X111410124Y-99381553D01*
X111399971Y-99362557D01*
X111393716Y-99341938D01*
X111391000Y-99314360D01*
X111391000Y-98805640D01*
X111393716Y-98778062D01*
X111399971Y-98757443D01*
X111410124Y-98738447D01*
X111423792Y-98721792D01*
X111440447Y-98708124D01*
X111459443Y-98697971D01*
X111480062Y-98691716D01*
X111507640Y-98689000D01*
X111966360Y-98689000D01*
X111993938Y-98691716D01*
G37*
G36*
X109882938Y-98566716D02*
G01*
X109903557Y-98572971D01*
X109922553Y-98583124D01*
X109939208Y-98596792D01*
X109952876Y-98613447D01*
X109963029Y-98632443D01*
X109969284Y-98653062D01*
X109972000Y-98680640D01*
X109972000Y-99139360D01*
X109969284Y-99166938D01*
X109963029Y-99187557D01*
X109952876Y-99206553D01*
X109939208Y-99223208D01*
X109922553Y-99236876D01*
X109903557Y-99247029D01*
X109882938Y-99253284D01*
X109855360Y-99256000D01*
X109346640Y-99256000D01*
X109319062Y-99253284D01*
X109298443Y-99247029D01*
X109279447Y-99236876D01*
X109262792Y-99223208D01*
X109249124Y-99206553D01*
X109238971Y-99187557D01*
X109232716Y-99166938D01*
X109230000Y-99139360D01*
X109230000Y-98680640D01*
X109232716Y-98653062D01*
X109238971Y-98632443D01*
X109249124Y-98613447D01*
X109262792Y-98596792D01*
X109279447Y-98583124D01*
X109298443Y-98572971D01*
X109319062Y-98566716D01*
X109346640Y-98564000D01*
X109855360Y-98564000D01*
X109882938Y-98566716D01*
G37*
G36*
X148203600Y-96892989D02*
G01*
X148236652Y-96903015D01*
X148267103Y-96919292D01*
X148293799Y-96941201D01*
X148315708Y-96967897D01*
X148331985Y-96998348D01*
X148342011Y-97031400D01*
X148346000Y-97071903D01*
X148346000Y-98508097D01*
X148342011Y-98548600D01*
X148331985Y-98581652D01*
X148315708Y-98612103D01*
X148293799Y-98638799D01*
X148267103Y-98660708D01*
X148236652Y-98676985D01*
X148203600Y-98687011D01*
X148163097Y-98691000D01*
X146476903Y-98691000D01*
X146436400Y-98687011D01*
X146403348Y-98676985D01*
X146372897Y-98660708D01*
X146346201Y-98638799D01*
X146324292Y-98612103D01*
X146308015Y-98581652D01*
X146297989Y-98548600D01*
X146294000Y-98508097D01*
X146294000Y-97071903D01*
X146297989Y-97031400D01*
X146308015Y-96998348D01*
X146324292Y-96967897D01*
X146346201Y-96941201D01*
X146372897Y-96919292D01*
X146403348Y-96903015D01*
X146436400Y-96892989D01*
X146476903Y-96889000D01*
X148163097Y-96889000D01*
X148203600Y-96892989D01*
G37*
G36*
X109882938Y-97596716D02*
G01*
X109903557Y-97602971D01*
X109922553Y-97613124D01*
X109939208Y-97626792D01*
X109952876Y-97643447D01*
X109963029Y-97662443D01*
X109969284Y-97683062D01*
X109972000Y-97710640D01*
X109972000Y-98169360D01*
X109969284Y-98196938D01*
X109963029Y-98217557D01*
X109952876Y-98236553D01*
X109939208Y-98253208D01*
X109922553Y-98266876D01*
X109903557Y-98277029D01*
X109882938Y-98283284D01*
X109855360Y-98286000D01*
X109346640Y-98286000D01*
X109319062Y-98283284D01*
X109298443Y-98277029D01*
X109279447Y-98266876D01*
X109262792Y-98253208D01*
X109249124Y-98236553D01*
X109238971Y-98217557D01*
X109232716Y-98196938D01*
X109230000Y-98169360D01*
X109230000Y-97710640D01*
X109232716Y-97683062D01*
X109238971Y-97662443D01*
X109249124Y-97643447D01*
X109262792Y-97626792D01*
X109279447Y-97613124D01*
X109298443Y-97602971D01*
X109319062Y-97596716D01*
X109346640Y-97594000D01*
X109855360Y-97594000D01*
X109882938Y-97596716D01*
G37*
G36*
X130329938Y-97550716D02*
G01*
X130350557Y-97556971D01*
X130369553Y-97567124D01*
X130386208Y-97580792D01*
X130399876Y-97597447D01*
X130410029Y-97616443D01*
X130416284Y-97637062D01*
X130419000Y-97664640D01*
X130419000Y-98123360D01*
X130416284Y-98150938D01*
X130410029Y-98171557D01*
X130399876Y-98190553D01*
X130386208Y-98207208D01*
X130369553Y-98220876D01*
X130350557Y-98231029D01*
X130329938Y-98237284D01*
X130302360Y-98240000D01*
X129793640Y-98240000D01*
X129766062Y-98237284D01*
X129745443Y-98231029D01*
X129726447Y-98220876D01*
X129709792Y-98207208D01*
X129696124Y-98190553D01*
X129685971Y-98171557D01*
X129679716Y-98150938D01*
X129677000Y-98123360D01*
X129677000Y-97664640D01*
X129679716Y-97637062D01*
X129685971Y-97616443D01*
X129696124Y-97597447D01*
X129709792Y-97580792D01*
X129726447Y-97567124D01*
X129745443Y-97556971D01*
X129766062Y-97550716D01*
X129793640Y-97548000D01*
X130302360Y-97548000D01*
X130329938Y-97550716D01*
G37*
G36*
X123979938Y-97550716D02*
G01*
X124000557Y-97556971D01*
X124019553Y-97567124D01*
X124036208Y-97580792D01*
X124049876Y-97597447D01*
X124060029Y-97616443D01*
X124066284Y-97637062D01*
X124069000Y-97664640D01*
X124069000Y-98123360D01*
X124066284Y-98150938D01*
X124060029Y-98171557D01*
X124049876Y-98190553D01*
X124036208Y-98207208D01*
X124019553Y-98220876D01*
X124000557Y-98231029D01*
X123979938Y-98237284D01*
X123952360Y-98240000D01*
X123443640Y-98240000D01*
X123416062Y-98237284D01*
X123395443Y-98231029D01*
X123376447Y-98220876D01*
X123359792Y-98207208D01*
X123346124Y-98190553D01*
X123335971Y-98171557D01*
X123329716Y-98150938D01*
X123327000Y-98123360D01*
X123327000Y-97664640D01*
X123329716Y-97637062D01*
X123335971Y-97616443D01*
X123346124Y-97597447D01*
X123359792Y-97580792D01*
X123376447Y-97567124D01*
X123395443Y-97556971D01*
X123416062Y-97550716D01*
X123443640Y-97548000D01*
X123952360Y-97548000D01*
X123979938Y-97550716D01*
G37*
G36*
X131599938Y-97550716D02*
G01*
X131620557Y-97556971D01*
X131639553Y-97567124D01*
X131656208Y-97580792D01*
X131669876Y-97597447D01*
X131680029Y-97616443D01*
X131686284Y-97637062D01*
X131689000Y-97664640D01*
X131689000Y-98123360D01*
X131686284Y-98150938D01*
X131680029Y-98171557D01*
X131669876Y-98190553D01*
X131656208Y-98207208D01*
X131639553Y-98220876D01*
X131620557Y-98231029D01*
X131599938Y-98237284D01*
X131572360Y-98240000D01*
X131063640Y-98240000D01*
X131036062Y-98237284D01*
X131015443Y-98231029D01*
X130996447Y-98220876D01*
X130979792Y-98207208D01*
X130966124Y-98190553D01*
X130955971Y-98171557D01*
X130949716Y-98150938D01*
X130947000Y-98123360D01*
X130947000Y-97664640D01*
X130949716Y-97637062D01*
X130955971Y-97616443D01*
X130966124Y-97597447D01*
X130979792Y-97580792D01*
X130996447Y-97567124D01*
X131015443Y-97556971D01*
X131036062Y-97550716D01*
X131063640Y-97548000D01*
X131572360Y-97548000D01*
X131599938Y-97550716D01*
G37*
G36*
X122709938Y-97550716D02*
G01*
X122730557Y-97556971D01*
X122749553Y-97567124D01*
X122766208Y-97580792D01*
X122779876Y-97597447D01*
X122790029Y-97616443D01*
X122796284Y-97637062D01*
X122799000Y-97664640D01*
X122799000Y-98123360D01*
X122796284Y-98150938D01*
X122790029Y-98171557D01*
X122779876Y-98190553D01*
X122766208Y-98207208D01*
X122749553Y-98220876D01*
X122730557Y-98231029D01*
X122709938Y-98237284D01*
X122682360Y-98240000D01*
X122173640Y-98240000D01*
X122146062Y-98237284D01*
X122125443Y-98231029D01*
X122106447Y-98220876D01*
X122089792Y-98207208D01*
X122076124Y-98190553D01*
X122065971Y-98171557D01*
X122059716Y-98150938D01*
X122057000Y-98123360D01*
X122057000Y-97664640D01*
X122059716Y-97637062D01*
X122065971Y-97616443D01*
X122076124Y-97597447D01*
X122089792Y-97580792D01*
X122106447Y-97567124D01*
X122125443Y-97556971D01*
X122146062Y-97550716D01*
X122173640Y-97548000D01*
X122682360Y-97548000D01*
X122709938Y-97550716D01*
G37*
G36*
X111993938Y-97421716D02*
G01*
X112014557Y-97427971D01*
X112033553Y-97438124D01*
X112050208Y-97451792D01*
X112063876Y-97468447D01*
X112074029Y-97487443D01*
X112080284Y-97508062D01*
X112083000Y-97535640D01*
X112083000Y-98044360D01*
X112080284Y-98071938D01*
X112074029Y-98092557D01*
X112063876Y-98111553D01*
X112050208Y-98128208D01*
X112033553Y-98141876D01*
X112014557Y-98152029D01*
X111993938Y-98158284D01*
X111966360Y-98161000D01*
X111507640Y-98161000D01*
X111480062Y-98158284D01*
X111459443Y-98152029D01*
X111440447Y-98141876D01*
X111423792Y-98128208D01*
X111410124Y-98111553D01*
X111399971Y-98092557D01*
X111393716Y-98071938D01*
X111391000Y-98044360D01*
X111391000Y-97535640D01*
X111393716Y-97508062D01*
X111399971Y-97487443D01*
X111410124Y-97468447D01*
X111423792Y-97451792D01*
X111440447Y-97438124D01*
X111459443Y-97427971D01*
X111480062Y-97421716D01*
X111507640Y-97419000D01*
X111966360Y-97419000D01*
X111993938Y-97421716D01*
G37*
G36*
X116184938Y-97421716D02*
G01*
X116205557Y-97427971D01*
X116224553Y-97438124D01*
X116241208Y-97451792D01*
X116254876Y-97468447D01*
X116265029Y-97487443D01*
X116271284Y-97508062D01*
X116274000Y-97535640D01*
X116274000Y-98044360D01*
X116271284Y-98071938D01*
X116265029Y-98092557D01*
X116254876Y-98111553D01*
X116241208Y-98128208D01*
X116224553Y-98141876D01*
X116205557Y-98152029D01*
X116184938Y-98158284D01*
X116157360Y-98161000D01*
X115698640Y-98161000D01*
X115671062Y-98158284D01*
X115650443Y-98152029D01*
X115631447Y-98141876D01*
X115614792Y-98128208D01*
X115601124Y-98111553D01*
X115590971Y-98092557D01*
X115584716Y-98071938D01*
X115582000Y-98044360D01*
X115582000Y-97535640D01*
X115584716Y-97508062D01*
X115590971Y-97487443D01*
X115601124Y-97468447D01*
X115614792Y-97451792D01*
X115631447Y-97438124D01*
X115650443Y-97427971D01*
X115671062Y-97421716D01*
X115698640Y-97419000D01*
X116157360Y-97419000D01*
X116184938Y-97421716D01*
G37*
G36*
X111023938Y-97421716D02*
G01*
X111044557Y-97427971D01*
X111063553Y-97438124D01*
X111080208Y-97451792D01*
X111093876Y-97468447D01*
X111104029Y-97487443D01*
X111110284Y-97508062D01*
X111113000Y-97535640D01*
X111113000Y-98044360D01*
X111110284Y-98071938D01*
X111104029Y-98092557D01*
X111093876Y-98111553D01*
X111080208Y-98128208D01*
X111063553Y-98141876D01*
X111044557Y-98152029D01*
X111023938Y-98158284D01*
X110996360Y-98161000D01*
X110537640Y-98161000D01*
X110510062Y-98158284D01*
X110489443Y-98152029D01*
X110470447Y-98141876D01*
X110453792Y-98128208D01*
X110440124Y-98111553D01*
X110429971Y-98092557D01*
X110423716Y-98071938D01*
X110421000Y-98044360D01*
X110421000Y-97535640D01*
X110423716Y-97508062D01*
X110429971Y-97487443D01*
X110440124Y-97468447D01*
X110453792Y-97451792D01*
X110470447Y-97438124D01*
X110489443Y-97427971D01*
X110510062Y-97421716D01*
X110537640Y-97419000D01*
X110996360Y-97419000D01*
X111023938Y-97421716D01*
G37*
G36*
X115214938Y-97421716D02*
G01*
X115235557Y-97427971D01*
X115254553Y-97438124D01*
X115271208Y-97451792D01*
X115284876Y-97468447D01*
X115295029Y-97487443D01*
X115301284Y-97508062D01*
X115304000Y-97535640D01*
X115304000Y-98044360D01*
X115301284Y-98071938D01*
X115295029Y-98092557D01*
X115284876Y-98111553D01*
X115271208Y-98128208D01*
X115254553Y-98141876D01*
X115235557Y-98152029D01*
X115214938Y-98158284D01*
X115187360Y-98161000D01*
X114728640Y-98161000D01*
X114701062Y-98158284D01*
X114680443Y-98152029D01*
X114661447Y-98141876D01*
X114644792Y-98128208D01*
X114631124Y-98111553D01*
X114620971Y-98092557D01*
X114614716Y-98071938D01*
X114612000Y-98044360D01*
X114612000Y-97535640D01*
X114614716Y-97508062D01*
X114620971Y-97487443D01*
X114631124Y-97468447D01*
X114644792Y-97451792D01*
X114661447Y-97438124D01*
X114680443Y-97427971D01*
X114701062Y-97421716D01*
X114728640Y-97419000D01*
X115187360Y-97419000D01*
X115214938Y-97421716D01*
G37*
G36*
X113409591Y-97153085D02*
G01*
X113443569Y-97163393D01*
X113474890Y-97180134D01*
X113502339Y-97202661D01*
X113524866Y-97230110D01*
X113541607Y-97261431D01*
X113551915Y-97295409D01*
X113556000Y-97336890D01*
X113556000Y-97938110D01*
X113551915Y-97979591D01*
X113541607Y-98013569D01*
X113524866Y-98044890D01*
X113502339Y-98072339D01*
X113474890Y-98094866D01*
X113443569Y-98111607D01*
X113409591Y-98121915D01*
X113368110Y-98126000D01*
X112691890Y-98126000D01*
X112650409Y-98121915D01*
X112616431Y-98111607D01*
X112585110Y-98094866D01*
X112557661Y-98072339D01*
X112535134Y-98044890D01*
X112518393Y-98013569D01*
X112508085Y-97979591D01*
X112504000Y-97938110D01*
X112504000Y-97336890D01*
X112508085Y-97295409D01*
X112518393Y-97261431D01*
X112535134Y-97230110D01*
X112557661Y-97202661D01*
X112585110Y-97180134D01*
X112616431Y-97163393D01*
X112650409Y-97153085D01*
X112691890Y-97149000D01*
X113368110Y-97149000D01*
X113409591Y-97153085D01*
G37*
G36*
X139190591Y-96823085D02*
G01*
X139224569Y-96833393D01*
X139255890Y-96850134D01*
X139283339Y-96872661D01*
X139305866Y-96900110D01*
X139322607Y-96931431D01*
X139332915Y-96965409D01*
X139337000Y-97006890D01*
X139337000Y-97608110D01*
X139332915Y-97649591D01*
X139322607Y-97683569D01*
X139305866Y-97714890D01*
X139283339Y-97742339D01*
X139255890Y-97764866D01*
X139224569Y-97781607D01*
X139190591Y-97791915D01*
X139149110Y-97796000D01*
X138472890Y-97796000D01*
X138431409Y-97791915D01*
X138397431Y-97781607D01*
X138366110Y-97764866D01*
X138338661Y-97742339D01*
X138316134Y-97714890D01*
X138299393Y-97683569D01*
X138289085Y-97649591D01*
X138285000Y-97608110D01*
X138285000Y-97006890D01*
X138289085Y-96965409D01*
X138299393Y-96931431D01*
X138316134Y-96900110D01*
X138338661Y-96872661D01*
X138366110Y-96850134D01*
X138397431Y-96833393D01*
X138431409Y-96823085D01*
X138472890Y-96819000D01*
X139149110Y-96819000D01*
X139190591Y-96823085D01*
G37*
G36*
X141330938Y-96786716D02*
G01*
X141351557Y-96792971D01*
X141370553Y-96803124D01*
X141387208Y-96816792D01*
X141400876Y-96833447D01*
X141411029Y-96852443D01*
X141417284Y-96873062D01*
X141420000Y-96900640D01*
X141420000Y-97409360D01*
X141417284Y-97436938D01*
X141411029Y-97457557D01*
X141400876Y-97476553D01*
X141387208Y-97493208D01*
X141370553Y-97506876D01*
X141351557Y-97517029D01*
X141330938Y-97523284D01*
X141303360Y-97526000D01*
X140844640Y-97526000D01*
X140817062Y-97523284D01*
X140796443Y-97517029D01*
X140777447Y-97506876D01*
X140760792Y-97493208D01*
X140747124Y-97476553D01*
X140736971Y-97457557D01*
X140730716Y-97436938D01*
X140728000Y-97409360D01*
X140728000Y-96900640D01*
X140730716Y-96873062D01*
X140736971Y-96852443D01*
X140747124Y-96833447D01*
X140760792Y-96816792D01*
X140777447Y-96803124D01*
X140796443Y-96792971D01*
X140817062Y-96786716D01*
X140844640Y-96784000D01*
X141303360Y-96784000D01*
X141330938Y-96786716D01*
G37*
G36*
X137139938Y-96786716D02*
G01*
X137160557Y-96792971D01*
X137179553Y-96803124D01*
X137196208Y-96816792D01*
X137209876Y-96833447D01*
X137220029Y-96852443D01*
X137226284Y-96873062D01*
X137229000Y-96900640D01*
X137229000Y-97409360D01*
X137226284Y-97436938D01*
X137220029Y-97457557D01*
X137209876Y-97476553D01*
X137196208Y-97493208D01*
X137179553Y-97506876D01*
X137160557Y-97517029D01*
X137139938Y-97523284D01*
X137112360Y-97526000D01*
X136653640Y-97526000D01*
X136626062Y-97523284D01*
X136605443Y-97517029D01*
X136586447Y-97506876D01*
X136569792Y-97493208D01*
X136556124Y-97476553D01*
X136545971Y-97457557D01*
X136539716Y-97436938D01*
X136537000Y-97409360D01*
X136537000Y-96900640D01*
X136539716Y-96873062D01*
X136545971Y-96852443D01*
X136556124Y-96833447D01*
X136569792Y-96816792D01*
X136586447Y-96803124D01*
X136605443Y-96792971D01*
X136626062Y-96786716D01*
X136653640Y-96784000D01*
X137112360Y-96784000D01*
X137139938Y-96786716D01*
G37*
G36*
X136169938Y-96786716D02*
G01*
X136190557Y-96792971D01*
X136209553Y-96803124D01*
X136226208Y-96816792D01*
X136239876Y-96833447D01*
X136250029Y-96852443D01*
X136256284Y-96873062D01*
X136259000Y-96900640D01*
X136259000Y-97409360D01*
X136256284Y-97436938D01*
X136250029Y-97457557D01*
X136239876Y-97476553D01*
X136226208Y-97493208D01*
X136209553Y-97506876D01*
X136190557Y-97517029D01*
X136169938Y-97523284D01*
X136142360Y-97526000D01*
X135683640Y-97526000D01*
X135656062Y-97523284D01*
X135635443Y-97517029D01*
X135616447Y-97506876D01*
X135599792Y-97493208D01*
X135586124Y-97476553D01*
X135575971Y-97457557D01*
X135569716Y-97436938D01*
X135567000Y-97409360D01*
X135567000Y-96900640D01*
X135569716Y-96873062D01*
X135575971Y-96852443D01*
X135586124Y-96833447D01*
X135599792Y-96816792D01*
X135616447Y-96803124D01*
X135635443Y-96792971D01*
X135656062Y-96786716D01*
X135683640Y-96784000D01*
X136142360Y-96784000D01*
X136169938Y-96786716D01*
G37*
G36*
X140360938Y-96786716D02*
G01*
X140381557Y-96792971D01*
X140400553Y-96803124D01*
X140417208Y-96816792D01*
X140430876Y-96833447D01*
X140441029Y-96852443D01*
X140447284Y-96873062D01*
X140450000Y-96900640D01*
X140450000Y-97409360D01*
X140447284Y-97436938D01*
X140441029Y-97457557D01*
X140430876Y-97476553D01*
X140417208Y-97493208D01*
X140400553Y-97506876D01*
X140381557Y-97517029D01*
X140360938Y-97523284D01*
X140333360Y-97526000D01*
X139874640Y-97526000D01*
X139847062Y-97523284D01*
X139826443Y-97517029D01*
X139807447Y-97506876D01*
X139790792Y-97493208D01*
X139777124Y-97476553D01*
X139766971Y-97457557D01*
X139760716Y-97436938D01*
X139758000Y-97409360D01*
X139758000Y-96900640D01*
X139760716Y-96873062D01*
X139766971Y-96852443D01*
X139777124Y-96833447D01*
X139790792Y-96816792D01*
X139807447Y-96803124D01*
X139826443Y-96792971D01*
X139847062Y-96786716D01*
X139874640Y-96784000D01*
X140333360Y-96784000D01*
X140360938Y-96786716D01*
G37*
G36*
X142521938Y-96661716D02*
G01*
X142542557Y-96667971D01*
X142561553Y-96678124D01*
X142578208Y-96691792D01*
X142591876Y-96708447D01*
X142602029Y-96727443D01*
X142608284Y-96748062D01*
X142611000Y-96775640D01*
X142611000Y-97234360D01*
X142608284Y-97261938D01*
X142602029Y-97282557D01*
X142591876Y-97301553D01*
X142578208Y-97318208D01*
X142561553Y-97331876D01*
X142542557Y-97342029D01*
X142521938Y-97348284D01*
X142494360Y-97351000D01*
X141985640Y-97351000D01*
X141958062Y-97348284D01*
X141937443Y-97342029D01*
X141918447Y-97331876D01*
X141901792Y-97318208D01*
X141888124Y-97301553D01*
X141877971Y-97282557D01*
X141871716Y-97261938D01*
X141869000Y-97234360D01*
X141869000Y-96775640D01*
X141871716Y-96748062D01*
X141877971Y-96727443D01*
X141888124Y-96708447D01*
X141901792Y-96691792D01*
X141918447Y-96678124D01*
X141937443Y-96667971D01*
X141958062Y-96661716D01*
X141985640Y-96659000D01*
X142494360Y-96659000D01*
X142521938Y-96661716D01*
G37*
G36*
X130329938Y-96580716D02*
G01*
X130350557Y-96586971D01*
X130369553Y-96597124D01*
X130386208Y-96610792D01*
X130399876Y-96627447D01*
X130410029Y-96646443D01*
X130416284Y-96667062D01*
X130419000Y-96694640D01*
X130419000Y-97153360D01*
X130416284Y-97180938D01*
X130410029Y-97201557D01*
X130399876Y-97220553D01*
X130386208Y-97237208D01*
X130369553Y-97250876D01*
X130350557Y-97261029D01*
X130329938Y-97267284D01*
X130302360Y-97270000D01*
X129793640Y-97270000D01*
X129766062Y-97267284D01*
X129745443Y-97261029D01*
X129726447Y-97250876D01*
X129709792Y-97237208D01*
X129696124Y-97220553D01*
X129685971Y-97201557D01*
X129679716Y-97180938D01*
X129677000Y-97153360D01*
X129677000Y-96694640D01*
X129679716Y-96667062D01*
X129685971Y-96646443D01*
X129696124Y-96627447D01*
X129709792Y-96610792D01*
X129726447Y-96597124D01*
X129745443Y-96586971D01*
X129766062Y-96580716D01*
X129793640Y-96578000D01*
X130302360Y-96578000D01*
X130329938Y-96580716D01*
G37*
G36*
X123979938Y-96580716D02*
G01*
X124000557Y-96586971D01*
X124019553Y-96597124D01*
X124036208Y-96610792D01*
X124049876Y-96627447D01*
X124060029Y-96646443D01*
X124066284Y-96667062D01*
X124069000Y-96694640D01*
X124069000Y-97153360D01*
X124066284Y-97180938D01*
X124060029Y-97201557D01*
X124049876Y-97220553D01*
X124036208Y-97237208D01*
X124019553Y-97250876D01*
X124000557Y-97261029D01*
X123979938Y-97267284D01*
X123952360Y-97270000D01*
X123443640Y-97270000D01*
X123416062Y-97267284D01*
X123395443Y-97261029D01*
X123376447Y-97250876D01*
X123359792Y-97237208D01*
X123346124Y-97220553D01*
X123335971Y-97201557D01*
X123329716Y-97180938D01*
X123327000Y-97153360D01*
X123327000Y-96694640D01*
X123329716Y-96667062D01*
X123335971Y-96646443D01*
X123346124Y-96627447D01*
X123359792Y-96610792D01*
X123376447Y-96597124D01*
X123395443Y-96586971D01*
X123416062Y-96580716D01*
X123443640Y-96578000D01*
X123952360Y-96578000D01*
X123979938Y-96580716D01*
G37*
G36*
X131599938Y-96580716D02*
G01*
X131620557Y-96586971D01*
X131639553Y-96597124D01*
X131656208Y-96610792D01*
X131669876Y-96627447D01*
X131680029Y-96646443D01*
X131686284Y-96667062D01*
X131689000Y-96694640D01*
X131689000Y-97153360D01*
X131686284Y-97180938D01*
X131680029Y-97201557D01*
X131669876Y-97220553D01*
X131656208Y-97237208D01*
X131639553Y-97250876D01*
X131620557Y-97261029D01*
X131599938Y-97267284D01*
X131572360Y-97270000D01*
X131063640Y-97270000D01*
X131036062Y-97267284D01*
X131015443Y-97261029D01*
X130996447Y-97250876D01*
X130979792Y-97237208D01*
X130966124Y-97220553D01*
X130955971Y-97201557D01*
X130949716Y-97180938D01*
X130947000Y-97153360D01*
X130947000Y-96694640D01*
X130949716Y-96667062D01*
X130955971Y-96646443D01*
X130966124Y-96627447D01*
X130979792Y-96610792D01*
X130996447Y-96597124D01*
X131015443Y-96586971D01*
X131036062Y-96580716D01*
X131063640Y-96578000D01*
X131572360Y-96578000D01*
X131599938Y-96580716D01*
G37*
G36*
X122709938Y-96580716D02*
G01*
X122730557Y-96586971D01*
X122749553Y-96597124D01*
X122766208Y-96610792D01*
X122779876Y-96627447D01*
X122790029Y-96646443D01*
X122796284Y-96667062D01*
X122799000Y-96694640D01*
X122799000Y-97153360D01*
X122796284Y-97180938D01*
X122790029Y-97201557D01*
X122779876Y-97220553D01*
X122766208Y-97237208D01*
X122749553Y-97250876D01*
X122730557Y-97261029D01*
X122709938Y-97267284D01*
X122682360Y-97270000D01*
X122173640Y-97270000D01*
X122146062Y-97267284D01*
X122125443Y-97261029D01*
X122106447Y-97250876D01*
X122089792Y-97237208D01*
X122076124Y-97220553D01*
X122065971Y-97201557D01*
X122059716Y-97180938D01*
X122057000Y-97153360D01*
X122057000Y-96694640D01*
X122059716Y-96667062D01*
X122065971Y-96646443D01*
X122076124Y-96627447D01*
X122089792Y-96610792D01*
X122106447Y-96597124D01*
X122125443Y-96586971D01*
X122146062Y-96580716D01*
X122173640Y-96578000D01*
X122682360Y-96578000D01*
X122709938Y-96580716D01*
G37*
G36*
X142521938Y-95691716D02*
G01*
X142542557Y-95697971D01*
X142561553Y-95708124D01*
X142578208Y-95721792D01*
X142591876Y-95738447D01*
X142602029Y-95757443D01*
X142608284Y-95778062D01*
X142611000Y-95805640D01*
X142611000Y-96264360D01*
X142608284Y-96291938D01*
X142602029Y-96312557D01*
X142591876Y-96331553D01*
X142578208Y-96348208D01*
X142561553Y-96361876D01*
X142542557Y-96372029D01*
X142521938Y-96378284D01*
X142494360Y-96381000D01*
X141985640Y-96381000D01*
X141958062Y-96378284D01*
X141937443Y-96372029D01*
X141918447Y-96361876D01*
X141901792Y-96348208D01*
X141888124Y-96331553D01*
X141877971Y-96312557D01*
X141871716Y-96291938D01*
X141869000Y-96264360D01*
X141869000Y-95805640D01*
X141871716Y-95778062D01*
X141877971Y-95757443D01*
X141888124Y-95738447D01*
X141901792Y-95721792D01*
X141918447Y-95708124D01*
X141937443Y-95697971D01*
X141958062Y-95691716D01*
X141985640Y-95689000D01*
X142494360Y-95689000D01*
X142521938Y-95691716D01*
G37*
G36*
X137139938Y-95516716D02*
G01*
X137160557Y-95522971D01*
X137179553Y-95533124D01*
X137196208Y-95546792D01*
X137209876Y-95563447D01*
X137220029Y-95582443D01*
X137226284Y-95603062D01*
X137229000Y-95630640D01*
X137229000Y-96139360D01*
X137226284Y-96166938D01*
X137220029Y-96187557D01*
X137209876Y-96206553D01*
X137196208Y-96223208D01*
X137179553Y-96236876D01*
X137160557Y-96247029D01*
X137139938Y-96253284D01*
X137112360Y-96256000D01*
X136653640Y-96256000D01*
X136626062Y-96253284D01*
X136605443Y-96247029D01*
X136586447Y-96236876D01*
X136569792Y-96223208D01*
X136556124Y-96206553D01*
X136545971Y-96187557D01*
X136539716Y-96166938D01*
X136537000Y-96139360D01*
X136537000Y-95630640D01*
X136539716Y-95603062D01*
X136545971Y-95582443D01*
X136556124Y-95563447D01*
X136569792Y-95546792D01*
X136586447Y-95533124D01*
X136605443Y-95522971D01*
X136626062Y-95516716D01*
X136653640Y-95514000D01*
X137112360Y-95514000D01*
X137139938Y-95516716D01*
G37*
G36*
X136169938Y-95516716D02*
G01*
X136190557Y-95522971D01*
X136209553Y-95533124D01*
X136226208Y-95546792D01*
X136239876Y-95563447D01*
X136250029Y-95582443D01*
X136256284Y-95603062D01*
X136259000Y-95630640D01*
X136259000Y-96139360D01*
X136256284Y-96166938D01*
X136250029Y-96187557D01*
X136239876Y-96206553D01*
X136226208Y-96223208D01*
X136209553Y-96236876D01*
X136190557Y-96247029D01*
X136169938Y-96253284D01*
X136142360Y-96256000D01*
X135683640Y-96256000D01*
X135656062Y-96253284D01*
X135635443Y-96247029D01*
X135616447Y-96236876D01*
X135599792Y-96223208D01*
X135586124Y-96206553D01*
X135575971Y-96187557D01*
X135569716Y-96166938D01*
X135567000Y-96139360D01*
X135567000Y-95630640D01*
X135569716Y-95603062D01*
X135575971Y-95582443D01*
X135586124Y-95563447D01*
X135599792Y-95546792D01*
X135616447Y-95533124D01*
X135635443Y-95522971D01*
X135656062Y-95516716D01*
X135683640Y-95514000D01*
X136142360Y-95514000D01*
X136169938Y-95516716D01*
G37*
G36*
X141330938Y-95516716D02*
G01*
X141351557Y-95522971D01*
X141370553Y-95533124D01*
X141387208Y-95546792D01*
X141400876Y-95563447D01*
X141411029Y-95582443D01*
X141417284Y-95603062D01*
X141420000Y-95630640D01*
X141420000Y-96139360D01*
X141417284Y-96166938D01*
X141411029Y-96187557D01*
X141400876Y-96206553D01*
X141387208Y-96223208D01*
X141370553Y-96236876D01*
X141351557Y-96247029D01*
X141330938Y-96253284D01*
X141303360Y-96256000D01*
X140844640Y-96256000D01*
X140817062Y-96253284D01*
X140796443Y-96247029D01*
X140777447Y-96236876D01*
X140760792Y-96223208D01*
X140747124Y-96206553D01*
X140736971Y-96187557D01*
X140730716Y-96166938D01*
X140728000Y-96139360D01*
X140728000Y-95630640D01*
X140730716Y-95603062D01*
X140736971Y-95582443D01*
X140747124Y-95563447D01*
X140760792Y-95546792D01*
X140777447Y-95533124D01*
X140796443Y-95522971D01*
X140817062Y-95516716D01*
X140844640Y-95514000D01*
X141303360Y-95514000D01*
X141330938Y-95516716D01*
G37*
G36*
X140360938Y-95516716D02*
G01*
X140381557Y-95522971D01*
X140400553Y-95533124D01*
X140417208Y-95546792D01*
X140430876Y-95563447D01*
X140441029Y-95582443D01*
X140447284Y-95603062D01*
X140450000Y-95630640D01*
X140450000Y-96139360D01*
X140447284Y-96166938D01*
X140441029Y-96187557D01*
X140430876Y-96206553D01*
X140417208Y-96223208D01*
X140400553Y-96236876D01*
X140381557Y-96247029D01*
X140360938Y-96253284D01*
X140333360Y-96256000D01*
X139874640Y-96256000D01*
X139847062Y-96253284D01*
X139826443Y-96247029D01*
X139807447Y-96236876D01*
X139790792Y-96223208D01*
X139777124Y-96206553D01*
X139766971Y-96187557D01*
X139760716Y-96166938D01*
X139758000Y-96139360D01*
X139758000Y-95630640D01*
X139760716Y-95603062D01*
X139766971Y-95582443D01*
X139777124Y-95563447D01*
X139790792Y-95546792D01*
X139807447Y-95533124D01*
X139826443Y-95522971D01*
X139847062Y-95516716D01*
X139874640Y-95514000D01*
X140333360Y-95514000D01*
X140360938Y-95516716D01*
G37*
G36*
X139190591Y-95248085D02*
G01*
X139224569Y-95258393D01*
X139255890Y-95275134D01*
X139283339Y-95297661D01*
X139305866Y-95325110D01*
X139322607Y-95356431D01*
X139332915Y-95390409D01*
X139337000Y-95431890D01*
X139337000Y-96033110D01*
X139332915Y-96074591D01*
X139322607Y-96108569D01*
X139305866Y-96139890D01*
X139283339Y-96167339D01*
X139255890Y-96189866D01*
X139224569Y-96206607D01*
X139190591Y-96216915D01*
X139149110Y-96221000D01*
X138472890Y-96221000D01*
X138431409Y-96216915D01*
X138397431Y-96206607D01*
X138366110Y-96189866D01*
X138338661Y-96167339D01*
X138316134Y-96139890D01*
X138299393Y-96108569D01*
X138289085Y-96074591D01*
X138285000Y-96033110D01*
X138285000Y-95431890D01*
X138289085Y-95390409D01*
X138299393Y-95356431D01*
X138316134Y-95325110D01*
X138338661Y-95297661D01*
X138366110Y-95275134D01*
X138397431Y-95258393D01*
X138431409Y-95248085D01*
X138472890Y-95244000D01*
X139149110Y-95244000D01*
X139190591Y-95248085D01*
G37*
G36*
X147555443Y-94395519D02*
G01*
X147621627Y-94402037D01*
X147791466Y-94453557D01*
X147947991Y-94537222D01*
X147983729Y-94566552D01*
X148085186Y-94649814D01*
X148168448Y-94751271D01*
X148197778Y-94787009D01*
X148281443Y-94943534D01*
X148332963Y-95113373D01*
X148350359Y-95290000D01*
X148332963Y-95466627D01*
X148281443Y-95636466D01*
X148197778Y-95792991D01*
X148187397Y-95805640D01*
X148085186Y-95930186D01*
X147985055Y-96012360D01*
X147947991Y-96042778D01*
X147881480Y-96078329D01*
X147791764Y-96126284D01*
X147791466Y-96126443D01*
X147621627Y-96177963D01*
X147555443Y-96184481D01*
X147489260Y-96191000D01*
X147150740Y-96191000D01*
X147084558Y-96184482D01*
X147018373Y-96177963D01*
X146848534Y-96126443D01*
X146848237Y-96126284D01*
X146758520Y-96078329D01*
X146692009Y-96042778D01*
X146654945Y-96012360D01*
X146554814Y-95930186D01*
X146452603Y-95805640D01*
X146442222Y-95792991D01*
X146358557Y-95636466D01*
X146307037Y-95466627D01*
X146289641Y-95290000D01*
X146307037Y-95113373D01*
X146358557Y-94943534D01*
X146442222Y-94787009D01*
X146471552Y-94751271D01*
X146554814Y-94649814D01*
X146656271Y-94566552D01*
X146692009Y-94537222D01*
X146848534Y-94453557D01*
X147018373Y-94402037D01*
X147084558Y-94395518D01*
X147150740Y-94389000D01*
X147489260Y-94389000D01*
X147555443Y-94395519D01*
G37*
G36*
X131424938Y-95389716D02*
G01*
X131445557Y-95395971D01*
X131464553Y-95406124D01*
X131481208Y-95419792D01*
X131494876Y-95436447D01*
X131505029Y-95455443D01*
X131511284Y-95476062D01*
X131514000Y-95503640D01*
X131514000Y-96012360D01*
X131511284Y-96039938D01*
X131505029Y-96060557D01*
X131494876Y-96079553D01*
X131481208Y-96096208D01*
X131464553Y-96109876D01*
X131445557Y-96120029D01*
X131424938Y-96126284D01*
X131397360Y-96129000D01*
X130938640Y-96129000D01*
X130911062Y-96126284D01*
X130890443Y-96120029D01*
X130871447Y-96109876D01*
X130854792Y-96096208D01*
X130841124Y-96079553D01*
X130830971Y-96060557D01*
X130824716Y-96039938D01*
X130822000Y-96012360D01*
X130822000Y-95503640D01*
X130824716Y-95476062D01*
X130830971Y-95455443D01*
X130841124Y-95436447D01*
X130854792Y-95419792D01*
X130871447Y-95406124D01*
X130890443Y-95395971D01*
X130911062Y-95389716D01*
X130938640Y-95387000D01*
X131397360Y-95387000D01*
X131424938Y-95389716D01*
G37*
G36*
X123804938Y-95389716D02*
G01*
X123825557Y-95395971D01*
X123844553Y-95406124D01*
X123861208Y-95419792D01*
X123874876Y-95436447D01*
X123885029Y-95455443D01*
X123891284Y-95476062D01*
X123894000Y-95503640D01*
X123894000Y-96012360D01*
X123891284Y-96039938D01*
X123885029Y-96060557D01*
X123874876Y-96079553D01*
X123861208Y-96096208D01*
X123844553Y-96109876D01*
X123825557Y-96120029D01*
X123804938Y-96126284D01*
X123777360Y-96129000D01*
X123318640Y-96129000D01*
X123291062Y-96126284D01*
X123270443Y-96120029D01*
X123251447Y-96109876D01*
X123234792Y-96096208D01*
X123221124Y-96079553D01*
X123210971Y-96060557D01*
X123204716Y-96039938D01*
X123202000Y-96012360D01*
X123202000Y-95503640D01*
X123204716Y-95476062D01*
X123210971Y-95455443D01*
X123221124Y-95436447D01*
X123234792Y-95419792D01*
X123251447Y-95406124D01*
X123270443Y-95395971D01*
X123291062Y-95389716D01*
X123318640Y-95387000D01*
X123777360Y-95387000D01*
X123804938Y-95389716D01*
G37*
G36*
X130454938Y-95389716D02*
G01*
X130475557Y-95395971D01*
X130494553Y-95406124D01*
X130511208Y-95419792D01*
X130524876Y-95436447D01*
X130535029Y-95455443D01*
X130541284Y-95476062D01*
X130544000Y-95503640D01*
X130544000Y-96012360D01*
X130541284Y-96039938D01*
X130535029Y-96060557D01*
X130524876Y-96079553D01*
X130511208Y-96096208D01*
X130494553Y-96109876D01*
X130475557Y-96120029D01*
X130454938Y-96126284D01*
X130427360Y-96129000D01*
X129968640Y-96129000D01*
X129941062Y-96126284D01*
X129920443Y-96120029D01*
X129901447Y-96109876D01*
X129884792Y-96096208D01*
X129871124Y-96079553D01*
X129860971Y-96060557D01*
X129854716Y-96039938D01*
X129852000Y-96012360D01*
X129852000Y-95503640D01*
X129854716Y-95476062D01*
X129860971Y-95455443D01*
X129871124Y-95436447D01*
X129884792Y-95419792D01*
X129901447Y-95406124D01*
X129920443Y-95395971D01*
X129941062Y-95389716D01*
X129968640Y-95387000D01*
X130427360Y-95387000D01*
X130454938Y-95389716D01*
G37*
G36*
X122834938Y-95389716D02*
G01*
X122855557Y-95395971D01*
X122874553Y-95406124D01*
X122891208Y-95419792D01*
X122904876Y-95436447D01*
X122915029Y-95455443D01*
X122921284Y-95476062D01*
X122924000Y-95503640D01*
X122924000Y-96012360D01*
X122921284Y-96039938D01*
X122915029Y-96060557D01*
X122904876Y-96079553D01*
X122891208Y-96096208D01*
X122874553Y-96109876D01*
X122855557Y-96120029D01*
X122834938Y-96126284D01*
X122807360Y-96129000D01*
X122348640Y-96129000D01*
X122321062Y-96126284D01*
X122300443Y-96120029D01*
X122281447Y-96109876D01*
X122264792Y-96096208D01*
X122251124Y-96079553D01*
X122240971Y-96060557D01*
X122234716Y-96039938D01*
X122232000Y-96012360D01*
X122232000Y-95503640D01*
X122234716Y-95476062D01*
X122240971Y-95455443D01*
X122251124Y-95436447D01*
X122264792Y-95419792D01*
X122281447Y-95406124D01*
X122300443Y-95395971D01*
X122321062Y-95389716D01*
X122348640Y-95387000D01*
X122807360Y-95387000D01*
X122834938Y-95389716D01*
G37*
G36*
X106110000Y-95626000D02*
G01*
X101808000Y-95626000D01*
X101808000Y-94174000D01*
X106110000Y-94174000D01*
X106110000Y-95626000D01*
G37*
G36*
X147555442Y-91895518D02*
G01*
X147621627Y-91902037D01*
X147791466Y-91953557D01*
X147947991Y-92037222D01*
X147983729Y-92066552D01*
X148085186Y-92149814D01*
X148168448Y-92251271D01*
X148197778Y-92287009D01*
X148281443Y-92443534D01*
X148332963Y-92613373D01*
X148350359Y-92790000D01*
X148332963Y-92966627D01*
X148281443Y-93136466D01*
X148197778Y-93292991D01*
X148168448Y-93328729D01*
X148085186Y-93430186D01*
X147983729Y-93513448D01*
X147947991Y-93542778D01*
X147791466Y-93626443D01*
X147621627Y-93677963D01*
X147555443Y-93684481D01*
X147489260Y-93691000D01*
X147150740Y-93691000D01*
X147084558Y-93684482D01*
X147018373Y-93677963D01*
X146848534Y-93626443D01*
X146692009Y-93542778D01*
X146656271Y-93513448D01*
X146554814Y-93430186D01*
X146471552Y-93328729D01*
X146442222Y-93292991D01*
X146358557Y-93136466D01*
X146307037Y-92966627D01*
X146289641Y-92790000D01*
X146307037Y-92613373D01*
X146358557Y-92443534D01*
X146442222Y-92287009D01*
X146471552Y-92251271D01*
X146554814Y-92149814D01*
X146656271Y-92066552D01*
X146692009Y-92037222D01*
X146848534Y-91953557D01*
X147018373Y-91902037D01*
X147084558Y-91895518D01*
X147150740Y-91889000D01*
X147489260Y-91889000D01*
X147555442Y-91895518D01*
G37*
G36*
X136584425Y-89094760D02*
G01*
X136584428Y-89094761D01*
X136584429Y-89094761D01*
X136763693Y-89149140D01*
X136763696Y-89149142D01*
X136763697Y-89149142D01*
X136928903Y-89237446D01*
X137073712Y-89356288D01*
X137192554Y-89501097D01*
X137280858Y-89666303D01*
X137280860Y-89666307D01*
X137335239Y-89845571D01*
X137335240Y-89845575D01*
X137349000Y-89985282D01*
X137349000Y-91878718D01*
X137335240Y-92018425D01*
X137335239Y-92018428D01*
X137335239Y-92018429D01*
X137280860Y-92197693D01*
X137280858Y-92197696D01*
X137280858Y-92197697D01*
X137192554Y-92362903D01*
X137073712Y-92507712D01*
X136928903Y-92626554D01*
X136780964Y-92705628D01*
X136763692Y-92714860D01*
X136584428Y-92769239D01*
X136584427Y-92769239D01*
X136584424Y-92769240D01*
X136398000Y-92787601D01*
X136211575Y-92769240D01*
X136211572Y-92769239D01*
X136211571Y-92769239D01*
X136032307Y-92714860D01*
X136014575Y-92705382D01*
X135867097Y-92626554D01*
X135722288Y-92507712D01*
X135603446Y-92362903D01*
X135515142Y-92197696D01*
X135515141Y-92197693D01*
X135515140Y-92197692D01*
X135460761Y-92018428D01*
X135460761Y-92018427D01*
X135460760Y-92018424D01*
X135447000Y-91878717D01*
X135447000Y-89985283D01*
X135460761Y-89845575D01*
X135460762Y-89845571D01*
X135515141Y-89666307D01*
X135515143Y-89666303D01*
X135603447Y-89501097D01*
X135722289Y-89356288D01*
X135867098Y-89237446D01*
X136032304Y-89149142D01*
X136032305Y-89149142D01*
X136032308Y-89149140D01*
X136211572Y-89094761D01*
X136211573Y-89094761D01*
X136211576Y-89094760D01*
X136398000Y-89076399D01*
X136584425Y-89094760D01*
G37*
G36*
X132774425Y-89094760D02*
G01*
X132774428Y-89094761D01*
X132774429Y-89094761D01*
X132953693Y-89149140D01*
X132953696Y-89149142D01*
X132953697Y-89149142D01*
X133118903Y-89237446D01*
X133263712Y-89356288D01*
X133382554Y-89501097D01*
X133470858Y-89666303D01*
X133470860Y-89666307D01*
X133525239Y-89845571D01*
X133525240Y-89845575D01*
X133539000Y-89985282D01*
X133539000Y-91878718D01*
X133525240Y-92018425D01*
X133525239Y-92018428D01*
X133525239Y-92018429D01*
X133470860Y-92197693D01*
X133470858Y-92197696D01*
X133470858Y-92197697D01*
X133382554Y-92362903D01*
X133263712Y-92507712D01*
X133118903Y-92626554D01*
X132970964Y-92705628D01*
X132953692Y-92714860D01*
X132774428Y-92769239D01*
X132774427Y-92769239D01*
X132774424Y-92769240D01*
X132588000Y-92787601D01*
X132401575Y-92769240D01*
X132401572Y-92769239D01*
X132401571Y-92769239D01*
X132222307Y-92714860D01*
X132204575Y-92705382D01*
X132057097Y-92626554D01*
X131912288Y-92507712D01*
X131793446Y-92362903D01*
X131705142Y-92197696D01*
X131705141Y-92197693D01*
X131705140Y-92197692D01*
X131650761Y-92018428D01*
X131650761Y-92018427D01*
X131650760Y-92018424D01*
X131637000Y-91878717D01*
X131637000Y-89985283D01*
X131650761Y-89845575D01*
X131650762Y-89845571D01*
X131705141Y-89666307D01*
X131705143Y-89666303D01*
X131793447Y-89501097D01*
X131912289Y-89356288D01*
X132057098Y-89237446D01*
X132222304Y-89149142D01*
X132222305Y-89149142D01*
X132222308Y-89149140D01*
X132401572Y-89094761D01*
X132401573Y-89094761D01*
X132401576Y-89094760D01*
X132588000Y-89076399D01*
X132774425Y-89094760D01*
G37*
G36*
X128964425Y-89094760D02*
G01*
X128964428Y-89094761D01*
X128964429Y-89094761D01*
X129143693Y-89149140D01*
X129143696Y-89149142D01*
X129143697Y-89149142D01*
X129308903Y-89237446D01*
X129453712Y-89356288D01*
X129572554Y-89501097D01*
X129660858Y-89666303D01*
X129660860Y-89666307D01*
X129715239Y-89845571D01*
X129715240Y-89845575D01*
X129729000Y-89985282D01*
X129729000Y-91878718D01*
X129715240Y-92018425D01*
X129715239Y-92018428D01*
X129715239Y-92018429D01*
X129660860Y-92197693D01*
X129660858Y-92197696D01*
X129660858Y-92197697D01*
X129572554Y-92362903D01*
X129453712Y-92507712D01*
X129308903Y-92626554D01*
X129160964Y-92705628D01*
X129143692Y-92714860D01*
X128964428Y-92769239D01*
X128964427Y-92769239D01*
X128964424Y-92769240D01*
X128778000Y-92787601D01*
X128591575Y-92769240D01*
X128591572Y-92769239D01*
X128591571Y-92769239D01*
X128412307Y-92714860D01*
X128394575Y-92705382D01*
X128247097Y-92626554D01*
X128102288Y-92507712D01*
X127983446Y-92362903D01*
X127895142Y-92197696D01*
X127895141Y-92197693D01*
X127895140Y-92197692D01*
X127840761Y-92018428D01*
X127840761Y-92018427D01*
X127840760Y-92018424D01*
X127827000Y-91878717D01*
X127827000Y-89985283D01*
X127840761Y-89845575D01*
X127840762Y-89845571D01*
X127895141Y-89666307D01*
X127895143Y-89666303D01*
X127983447Y-89501097D01*
X128102289Y-89356288D01*
X128247098Y-89237446D01*
X128412304Y-89149142D01*
X128412305Y-89149142D01*
X128412308Y-89149140D01*
X128591572Y-89094761D01*
X128591573Y-89094761D01*
X128591576Y-89094760D01*
X128778000Y-89076399D01*
X128964425Y-89094760D01*
G37*
G36*
X125154425Y-89094760D02*
G01*
X125154428Y-89094761D01*
X125154429Y-89094761D01*
X125333693Y-89149140D01*
X125333696Y-89149142D01*
X125333697Y-89149142D01*
X125498903Y-89237446D01*
X125643712Y-89356288D01*
X125762554Y-89501097D01*
X125850858Y-89666303D01*
X125850860Y-89666307D01*
X125905239Y-89845571D01*
X125905240Y-89845575D01*
X125919000Y-89985282D01*
X125919000Y-91878718D01*
X125905240Y-92018425D01*
X125905239Y-92018428D01*
X125905239Y-92018429D01*
X125850860Y-92197693D01*
X125850858Y-92197696D01*
X125850858Y-92197697D01*
X125762554Y-92362903D01*
X125643712Y-92507712D01*
X125498903Y-92626554D01*
X125350964Y-92705628D01*
X125333692Y-92714860D01*
X125154428Y-92769239D01*
X125154427Y-92769239D01*
X125154424Y-92769240D01*
X124968000Y-92787601D01*
X124781575Y-92769240D01*
X124781572Y-92769239D01*
X124781571Y-92769239D01*
X124602307Y-92714860D01*
X124584575Y-92705382D01*
X124437097Y-92626554D01*
X124292288Y-92507712D01*
X124173446Y-92362903D01*
X124085142Y-92197696D01*
X124085141Y-92197693D01*
X124085140Y-92197692D01*
X124030761Y-92018428D01*
X124030761Y-92018427D01*
X124030760Y-92018424D01*
X124017000Y-91878717D01*
X124017000Y-89985283D01*
X124030761Y-89845575D01*
X124030762Y-89845571D01*
X124085141Y-89666307D01*
X124085143Y-89666303D01*
X124173447Y-89501097D01*
X124292289Y-89356288D01*
X124437098Y-89237446D01*
X124602304Y-89149142D01*
X124602305Y-89149142D01*
X124602308Y-89149140D01*
X124781572Y-89094761D01*
X124781573Y-89094761D01*
X124781576Y-89094760D01*
X124968000Y-89076399D01*
X125154425Y-89094760D01*
G37*
G36*
X121344425Y-89094760D02*
G01*
X121344428Y-89094761D01*
X121344429Y-89094761D01*
X121523693Y-89149140D01*
X121523696Y-89149142D01*
X121523697Y-89149142D01*
X121688903Y-89237446D01*
X121833712Y-89356288D01*
X121952554Y-89501097D01*
X122040858Y-89666303D01*
X122040860Y-89666307D01*
X122095239Y-89845571D01*
X122095240Y-89845575D01*
X122109000Y-89985282D01*
X122109000Y-91878718D01*
X122095240Y-92018425D01*
X122095239Y-92018428D01*
X122095239Y-92018429D01*
X122040860Y-92197693D01*
X122040858Y-92197696D01*
X122040858Y-92197697D01*
X121952554Y-92362903D01*
X121833712Y-92507712D01*
X121688903Y-92626554D01*
X121540964Y-92705628D01*
X121523692Y-92714860D01*
X121344428Y-92769239D01*
X121344427Y-92769239D01*
X121344424Y-92769240D01*
X121158000Y-92787601D01*
X120971575Y-92769240D01*
X120971572Y-92769239D01*
X120971571Y-92769239D01*
X120792307Y-92714860D01*
X120774575Y-92705382D01*
X120627097Y-92626554D01*
X120482288Y-92507712D01*
X120363446Y-92362903D01*
X120275142Y-92197696D01*
X120275141Y-92197693D01*
X120275140Y-92197692D01*
X120220761Y-92018428D01*
X120220761Y-92018427D01*
X120220760Y-92018424D01*
X120207000Y-91878717D01*
X120207000Y-89985283D01*
X120220761Y-89845575D01*
X120220762Y-89845571D01*
X120275141Y-89666307D01*
X120275143Y-89666303D01*
X120363447Y-89501097D01*
X120482289Y-89356288D01*
X120627098Y-89237446D01*
X120792304Y-89149142D01*
X120792305Y-89149142D01*
X120792308Y-89149140D01*
X120971572Y-89094761D01*
X120971573Y-89094761D01*
X120971576Y-89094760D01*
X121158000Y-89076399D01*
X121344425Y-89094760D01*
G37*
G36*
X117534425Y-89094760D02*
G01*
X117534428Y-89094761D01*
X117534429Y-89094761D01*
X117713693Y-89149140D01*
X117713696Y-89149142D01*
X117713697Y-89149142D01*
X117878903Y-89237446D01*
X118023712Y-89356288D01*
X118142554Y-89501097D01*
X118230858Y-89666303D01*
X118230860Y-89666307D01*
X118285239Y-89845571D01*
X118285240Y-89845575D01*
X118299000Y-89985282D01*
X118299000Y-91878718D01*
X118285240Y-92018425D01*
X118285239Y-92018428D01*
X118285239Y-92018429D01*
X118230860Y-92197693D01*
X118230858Y-92197696D01*
X118230858Y-92197697D01*
X118142554Y-92362903D01*
X118023712Y-92507712D01*
X117878903Y-92626554D01*
X117730964Y-92705628D01*
X117713692Y-92714860D01*
X117534428Y-92769239D01*
X117534427Y-92769239D01*
X117534424Y-92769240D01*
X117348000Y-92787601D01*
X117161575Y-92769240D01*
X117161572Y-92769239D01*
X117161571Y-92769239D01*
X116982307Y-92714860D01*
X116964575Y-92705382D01*
X116817097Y-92626554D01*
X116672288Y-92507712D01*
X116553446Y-92362903D01*
X116465142Y-92197696D01*
X116465141Y-92197693D01*
X116465140Y-92197692D01*
X116410761Y-92018428D01*
X116410761Y-92018427D01*
X116410760Y-92018424D01*
X116397000Y-91878717D01*
X116397000Y-89985283D01*
X116410761Y-89845575D01*
X116410762Y-89845571D01*
X116465141Y-89666307D01*
X116465143Y-89666303D01*
X116553447Y-89501097D01*
X116672289Y-89356288D01*
X116817098Y-89237446D01*
X116982304Y-89149142D01*
X116982305Y-89149142D01*
X116982308Y-89149140D01*
X117161572Y-89094761D01*
X117161573Y-89094761D01*
X117161576Y-89094760D01*
X117348000Y-89076399D01*
X117534425Y-89094760D01*
G37*
G36*
X113724425Y-89094760D02*
G01*
X113724428Y-89094761D01*
X113724429Y-89094761D01*
X113903693Y-89149140D01*
X113903696Y-89149142D01*
X113903697Y-89149142D01*
X114068903Y-89237446D01*
X114213712Y-89356288D01*
X114332554Y-89501097D01*
X114420858Y-89666303D01*
X114420860Y-89666307D01*
X114475239Y-89845571D01*
X114475240Y-89845575D01*
X114489000Y-89985282D01*
X114489000Y-91878718D01*
X114475240Y-92018425D01*
X114475239Y-92018428D01*
X114475239Y-92018429D01*
X114420860Y-92197693D01*
X114420858Y-92197696D01*
X114420858Y-92197697D01*
X114332554Y-92362903D01*
X114213712Y-92507712D01*
X114068903Y-92626554D01*
X113920964Y-92705628D01*
X113903692Y-92714860D01*
X113724428Y-92769239D01*
X113724427Y-92769239D01*
X113724424Y-92769240D01*
X113538000Y-92787601D01*
X113351575Y-92769240D01*
X113351572Y-92769239D01*
X113351571Y-92769239D01*
X113172307Y-92714860D01*
X113154575Y-92705382D01*
X113007097Y-92626554D01*
X112862288Y-92507712D01*
X112743446Y-92362903D01*
X112655142Y-92197696D01*
X112655141Y-92197693D01*
X112655140Y-92197692D01*
X112600761Y-92018428D01*
X112600761Y-92018427D01*
X112600760Y-92018424D01*
X112587000Y-91878717D01*
X112587000Y-89985283D01*
X112600761Y-89845575D01*
X112600762Y-89845571D01*
X112655141Y-89666307D01*
X112655143Y-89666303D01*
X112743447Y-89501097D01*
X112862289Y-89356288D01*
X113007098Y-89237446D01*
X113172304Y-89149142D01*
X113172305Y-89149142D01*
X113172308Y-89149140D01*
X113351572Y-89094761D01*
X113351573Y-89094761D01*
X113351576Y-89094760D01*
X113538000Y-89076399D01*
X113724425Y-89094760D01*
G37*
G36*
X141018915Y-89084934D02*
G01*
X141051424Y-89094795D01*
X141081382Y-89110809D01*
X141107641Y-89132359D01*
X141129191Y-89158618D01*
X141145205Y-89188576D01*
X141155066Y-89221085D01*
X141159000Y-89261029D01*
X141159000Y-92602971D01*
X141155066Y-92642915D01*
X141145205Y-92675424D01*
X141129191Y-92705382D01*
X141107641Y-92731641D01*
X141081382Y-92753191D01*
X141051424Y-92769205D01*
X141018915Y-92779066D01*
X140978971Y-92783000D01*
X139437029Y-92783000D01*
X139397085Y-92779066D01*
X139364576Y-92769205D01*
X139334618Y-92753191D01*
X139308359Y-92731641D01*
X139286809Y-92705382D01*
X139270795Y-92675424D01*
X139260934Y-92642915D01*
X139257000Y-92602971D01*
X139257000Y-89261029D01*
X139260934Y-89221085D01*
X139270795Y-89188576D01*
X139286809Y-89158618D01*
X139308359Y-89132359D01*
X139334618Y-89110809D01*
X139364576Y-89094795D01*
X139397085Y-89084934D01*
X139437029Y-89081000D01*
X140978971Y-89081000D01*
X141018915Y-89084934D01*
G37*
G36*
X105610000Y-92761000D02*
G01*
X101908000Y-92761000D01*
X101908000Y-91389000D01*
X105610000Y-91389000D01*
X105610000Y-92761000D01*
G37*
G36*
X106110000Y-89976000D02*
G01*
X101808000Y-89976000D01*
X101808000Y-88524000D01*
X106110000Y-88524000D01*
X106110000Y-89976000D01*
G37*
M02*
