M48
; DRILL file {KiCad (5.1.5)-2} date 2020/8/1 22:44:27
; FORMAT={-:-/ absolute / metric / decimal}
; #@! TF.CreationDate,2020-08-01T22:44:27+08:00
; #@! TF.GenerationSoftware,Kicad,Pcbnew,(5.1.5)-2
; #@! TF.FileFunction,Plated,1,4,PTH
FMAT,2
METRIC
T1C0.305
T2C0.950
T3C1.000
T4C1.200
%
G90
G05
T1
X103.124Y-89.281
X103.124Y-94.869
X103.124Y-97.155
X103.124Y-98.425
X103.124Y-99.695
X103.124Y-101.981
X103.124Y-107.569
X104.648Y-89.281
X104.648Y-94.869
X104.648Y-101.981
X104.648Y-107.569
X106.807Y-89.281
X106.807Y-107.569
X108.077Y-89.281
X108.077Y-107.569
X109.347Y-89.281
X109.347Y-107.569
X113.284Y-117.602
X114.173Y-97.79
X114.173Y-99.06
X114.3Y-129.413
X114.3Y-130.683
X114.554Y-117.602
X114.808Y-107.696
X115.57Y-129.413
X115.57Y-130.683
X115.694Y-109.096
X115.694Y-118.494
X115.697Y-112.395
X115.697Y-121.793
X116.84Y-107.696
X117.602Y-129.413
X117.602Y-130.683
X117.856Y-116.84
X117.856Y-124.968
X118.364Y-108.712
X118.872Y-129.413
X118.872Y-130.683
X119.126Y-116.84
X119.126Y-124.968
X120.142Y-108.712
X120.396Y-116.84
X122.428Y-100.33
X122.428Y-115.443
X123.19Y-117.602
X123.444Y-129.413
X123.444Y-130.683
X123.571Y-113.03
X123.571Y-114.173
X123.698Y-100.33
X124.46Y-115.697
X124.714Y-129.413
X124.714Y-130.683
X124.968Y-113.538
X126.682Y-108.839
X126.682Y-112.776
X126.682Y-115.316
X126.682Y-116.078
X126.746Y-129.413
X126.746Y-130.683
X128.016Y-129.413
X128.016Y-130.683
X128.27Y-105.918
X130.048Y-100.33
X131.318Y-100.33
X132.588Y-118.364
X133.223Y-120.015
X133.985Y-118.364
X135.001Y-118.491
X136.017Y-120.015
X136.398Y-108.839
X136.398Y-116.205
X137.16Y-120.015
X137.668Y-95.885
X137.668Y-97.155
X137.668Y-103.505
X137.668Y-104.775
X137.795Y-118.872
X138.557Y-117.221
X139.192Y-107.823
X140.208Y-116.205
X140.589Y-120.523
X141.986Y-116.205
X142.367Y-114.173
X142.367Y-115.443
X143.256Y-109.982
X143.256Y-111.506
X143.51Y-118.745
X143.637Y-114.173
X143.637Y-115.443
X145.034Y-119.888
X148.463Y-115.316
X148.844Y-108.712
X148.844Y-109.982
X148.844Y-111.887
X148.844Y-113.157
X149.606Y-115.316
X150.114Y-108.712
X150.114Y-109.982
X150.114Y-111.887
X150.114Y-113.157
T2
X147.32Y-92.79
X147.32Y-95.29
X147.32Y-97.79
T3
X130.81Y-128.27
X133.35Y-128.27
X135.89Y-128.27
X138.43Y-128.27
X140.97Y-128.27
X143.51Y-128.27
X130.81Y-125.73
X133.35Y-125.73
X135.89Y-125.73
X138.43Y-125.73
X140.97Y-125.73
X143.51Y-125.73
X125.73Y-118.11
X125.73Y-120.65
X125.73Y-123.19
X144.78Y-102.87
X144.78Y-105.41
X147.32Y-102.87
X147.32Y-105.41
T4
X109.982Y-115.57
X109.982Y-119.38
X109.982Y-123.19
X113.538Y-90.932
X117.348Y-90.932
X121.158Y-90.932
X124.968Y-90.932
X128.778Y-90.932
X132.588Y-90.932
X136.398Y-90.932
X140.208Y-90.932
T0
M30
