G04 #@! TF.GenerationSoftware,KiCad,Pcbnew,(5.1.5)-2*
G04 #@! TF.CreationDate,2020-08-01T22:44:24+08:00*
G04 #@! TF.ProjectId,Module_ADS1263,4d6f6475-6c65-45f4-9144-53313236332e,rev?*
G04 #@! TF.SameCoordinates,Original*
G04 #@! TF.FileFunction,Copper,L3,Inr*
G04 #@! TF.FilePolarity,Positive*
%FSLAX46Y46*%
G04 Gerber Fmt 4.6, Leading zero omitted, Abs format (unit mm)*
G04 Created by KiCad (PCBNEW (5.1.5)-2) date 2020-08-01 22:44:24*
%MOMM*%
%LPD*%
G04 APERTURE LIST*
%ADD10C,0.203200*%
%ADD11O,1.700000X1.700000*%
%ADD12R,1.700000X1.700000*%
%ADD13O,1.950000X1.700000*%
%ADD14C,0.100000*%
%ADD15O,3.600000X1.800000*%
%ADD16O,1.800000X3.600000*%
%ADD17C,0.558800*%
%ADD18C,0.254000*%
G04 APERTURE END LIST*
D10*
X109956600Y-129761342D02*
X110711342Y-129761342D01*
X110304942Y-130225800D01*
X110479114Y-130225800D01*
X110595228Y-130283857D01*
X110653285Y-130341914D01*
X110711342Y-130458028D01*
X110711342Y-130748314D01*
X110653285Y-130864428D01*
X110595228Y-130922485D01*
X110479114Y-130980542D01*
X110130771Y-130980542D01*
X110014657Y-130922485D01*
X109956600Y-130864428D01*
D11*
X147320000Y-105410000D03*
X144780000Y-105410000D03*
X147320000Y-102870000D03*
D12*
X144780000Y-102870000D03*
D13*
X147320000Y-92790000D03*
X147320000Y-95290000D03*
G04 #@! TA.AperFunction,ViaPad*
D14*
G36*
X148069504Y-96941204D02*
G01*
X148093773Y-96944804D01*
X148117571Y-96950765D01*
X148140671Y-96959030D01*
X148162849Y-96969520D01*
X148183893Y-96982133D01*
X148203598Y-96996747D01*
X148221777Y-97013223D01*
X148238253Y-97031402D01*
X148252867Y-97051107D01*
X148265480Y-97072151D01*
X148275970Y-97094329D01*
X148284235Y-97117429D01*
X148290196Y-97141227D01*
X148293796Y-97165496D01*
X148295000Y-97190000D01*
X148295000Y-98390000D01*
X148293796Y-98414504D01*
X148290196Y-98438773D01*
X148284235Y-98462571D01*
X148275970Y-98485671D01*
X148265480Y-98507849D01*
X148252867Y-98528893D01*
X148238253Y-98548598D01*
X148221777Y-98566777D01*
X148203598Y-98583253D01*
X148183893Y-98597867D01*
X148162849Y-98610480D01*
X148140671Y-98620970D01*
X148117571Y-98629235D01*
X148093773Y-98635196D01*
X148069504Y-98638796D01*
X148045000Y-98640000D01*
X146595000Y-98640000D01*
X146570496Y-98638796D01*
X146546227Y-98635196D01*
X146522429Y-98629235D01*
X146499329Y-98620970D01*
X146477151Y-98610480D01*
X146456107Y-98597867D01*
X146436402Y-98583253D01*
X146418223Y-98566777D01*
X146401747Y-98548598D01*
X146387133Y-98528893D01*
X146374520Y-98507849D01*
X146364030Y-98485671D01*
X146355765Y-98462571D01*
X146349804Y-98438773D01*
X146346204Y-98414504D01*
X146345000Y-98390000D01*
X146345000Y-97190000D01*
X146346204Y-97165496D01*
X146349804Y-97141227D01*
X146355765Y-97117429D01*
X146364030Y-97094329D01*
X146374520Y-97072151D01*
X146387133Y-97051107D01*
X146401747Y-97031402D01*
X146418223Y-97013223D01*
X146436402Y-96996747D01*
X146456107Y-96982133D01*
X146477151Y-96969520D01*
X146499329Y-96959030D01*
X146522429Y-96950765D01*
X146546227Y-96944804D01*
X146570496Y-96941204D01*
X146595000Y-96940000D01*
X148045000Y-96940000D01*
X148069504Y-96941204D01*
G37*
G04 #@! TD.AperFunction*
D11*
X143510000Y-128270000D03*
X140970000Y-128270000D03*
X138430000Y-128270000D03*
X135890000Y-128270000D03*
X133350000Y-128270000D03*
D12*
X130810000Y-128270000D03*
D11*
X143510000Y-125730000D03*
X140970000Y-125730000D03*
X138430000Y-125730000D03*
X135890000Y-125730000D03*
X133350000Y-125730000D03*
D12*
X130810000Y-125730000D03*
D15*
X109982000Y-123190000D03*
X109982000Y-119380000D03*
G04 #@! TA.AperFunction,ViaPad*
D14*
G36*
X111556504Y-114671204D02*
G01*
X111580773Y-114674804D01*
X111604571Y-114680765D01*
X111627671Y-114689030D01*
X111649849Y-114699520D01*
X111670893Y-114712133D01*
X111690598Y-114726747D01*
X111708777Y-114743223D01*
X111725253Y-114761402D01*
X111739867Y-114781107D01*
X111752480Y-114802151D01*
X111762970Y-114824329D01*
X111771235Y-114847429D01*
X111777196Y-114871227D01*
X111780796Y-114895496D01*
X111782000Y-114920000D01*
X111782000Y-116220000D01*
X111780796Y-116244504D01*
X111777196Y-116268773D01*
X111771235Y-116292571D01*
X111762970Y-116315671D01*
X111752480Y-116337849D01*
X111739867Y-116358893D01*
X111725253Y-116378598D01*
X111708777Y-116396777D01*
X111690598Y-116413253D01*
X111670893Y-116427867D01*
X111649849Y-116440480D01*
X111627671Y-116450970D01*
X111604571Y-116459235D01*
X111580773Y-116465196D01*
X111556504Y-116468796D01*
X111532000Y-116470000D01*
X108432000Y-116470000D01*
X108407496Y-116468796D01*
X108383227Y-116465196D01*
X108359429Y-116459235D01*
X108336329Y-116450970D01*
X108314151Y-116440480D01*
X108293107Y-116427867D01*
X108273402Y-116413253D01*
X108255223Y-116396777D01*
X108238747Y-116378598D01*
X108224133Y-116358893D01*
X108211520Y-116337849D01*
X108201030Y-116315671D01*
X108192765Y-116292571D01*
X108186804Y-116268773D01*
X108183204Y-116244504D01*
X108182000Y-116220000D01*
X108182000Y-114920000D01*
X108183204Y-114895496D01*
X108186804Y-114871227D01*
X108192765Y-114847429D01*
X108201030Y-114824329D01*
X108211520Y-114802151D01*
X108224133Y-114781107D01*
X108238747Y-114761402D01*
X108255223Y-114743223D01*
X108273402Y-114726747D01*
X108293107Y-114712133D01*
X108314151Y-114699520D01*
X108336329Y-114689030D01*
X108359429Y-114680765D01*
X108383227Y-114674804D01*
X108407496Y-114671204D01*
X108432000Y-114670000D01*
X111532000Y-114670000D01*
X111556504Y-114671204D01*
G37*
G04 #@! TD.AperFunction*
D16*
X113538000Y-90932000D03*
X117348000Y-90932000D03*
X121158000Y-90932000D03*
X124968000Y-90932000D03*
X128778000Y-90932000D03*
X132588000Y-90932000D03*
X136398000Y-90932000D03*
G04 #@! TA.AperFunction,ViaPad*
D14*
G36*
X140882504Y-89133204D02*
G01*
X140906773Y-89136804D01*
X140930571Y-89142765D01*
X140953671Y-89151030D01*
X140975849Y-89161520D01*
X140996893Y-89174133D01*
X141016598Y-89188747D01*
X141034777Y-89205223D01*
X141051253Y-89223402D01*
X141065867Y-89243107D01*
X141078480Y-89264151D01*
X141088970Y-89286329D01*
X141097235Y-89309429D01*
X141103196Y-89333227D01*
X141106796Y-89357496D01*
X141108000Y-89382000D01*
X141108000Y-92482000D01*
X141106796Y-92506504D01*
X141103196Y-92530773D01*
X141097235Y-92554571D01*
X141088970Y-92577671D01*
X141078480Y-92599849D01*
X141065867Y-92620893D01*
X141051253Y-92640598D01*
X141034777Y-92658777D01*
X141016598Y-92675253D01*
X140996893Y-92689867D01*
X140975849Y-92702480D01*
X140953671Y-92712970D01*
X140930571Y-92721235D01*
X140906773Y-92727196D01*
X140882504Y-92730796D01*
X140858000Y-92732000D01*
X139558000Y-92732000D01*
X139533496Y-92730796D01*
X139509227Y-92727196D01*
X139485429Y-92721235D01*
X139462329Y-92712970D01*
X139440151Y-92702480D01*
X139419107Y-92689867D01*
X139399402Y-92675253D01*
X139381223Y-92658777D01*
X139364747Y-92640598D01*
X139350133Y-92620893D01*
X139337520Y-92599849D01*
X139327030Y-92577671D01*
X139318765Y-92554571D01*
X139312804Y-92530773D01*
X139309204Y-92506504D01*
X139308000Y-92482000D01*
X139308000Y-89382000D01*
X139309204Y-89357496D01*
X139312804Y-89333227D01*
X139318765Y-89309429D01*
X139327030Y-89286329D01*
X139337520Y-89264151D01*
X139350133Y-89243107D01*
X139364747Y-89223402D01*
X139381223Y-89205223D01*
X139399402Y-89188747D01*
X139419107Y-89174133D01*
X139440151Y-89161520D01*
X139462329Y-89151030D01*
X139485429Y-89142765D01*
X139509227Y-89136804D01*
X139533496Y-89133204D01*
X139558000Y-89132000D01*
X140858000Y-89132000D01*
X140882504Y-89133204D01*
G37*
G04 #@! TD.AperFunction*
D11*
X125730000Y-118110000D03*
X125730000Y-120650000D03*
D12*
X125730000Y-123190000D03*
D17*
X104648000Y-107569000D03*
X103124000Y-107569000D03*
X104648000Y-101981000D03*
X103124000Y-101981000D03*
X104648000Y-94869000D03*
X103124000Y-94869000D03*
X104648000Y-89281000D03*
X103124000Y-89281000D03*
X114173000Y-97790000D03*
X114173000Y-99060000D03*
X137668000Y-95885000D03*
X137668000Y-97155000D03*
X130048000Y-100330000D03*
X131318000Y-100330000D03*
X137668000Y-103505000D03*
X137668000Y-104775000D03*
X122428000Y-100330000D03*
X123698000Y-100330000D03*
X113284000Y-117602000D03*
X114554000Y-117602000D03*
X117856000Y-116840000D03*
X119126000Y-116840000D03*
X120396000Y-116840000D03*
X117856000Y-124968000D03*
X119126000Y-124968000D03*
X114808000Y-107696000D03*
X116840000Y-107696000D03*
X118364000Y-108712000D03*
X120142000Y-108712000D03*
X123190000Y-117602000D03*
X124968000Y-113538000D03*
X124460000Y-115697000D03*
X123444000Y-129413000D03*
X124714000Y-129413000D03*
X123444000Y-130683000D03*
X124714000Y-130683000D03*
X148844000Y-109982000D03*
X148844000Y-108712000D03*
X150114000Y-109982000D03*
X150114000Y-108712000D03*
X103124000Y-97155000D03*
X103124000Y-98425000D03*
X103124000Y-99695000D03*
X106807000Y-107569000D03*
X108077000Y-107569000D03*
X109347000Y-107569000D03*
X106807000Y-89281000D03*
X108077000Y-89281000D03*
X109347000Y-89281000D03*
X133985000Y-118364000D03*
X126682500Y-115316000D03*
X126682500Y-116078000D03*
X126682500Y-108839000D03*
X117602000Y-129413000D03*
X118872000Y-129413000D03*
X118872000Y-130683000D03*
X117602000Y-130683000D03*
X132588000Y-118364000D03*
X126682500Y-112776000D03*
X114300000Y-129413000D03*
X115570000Y-129413000D03*
X114300000Y-130683000D03*
X115570000Y-130683000D03*
X123571000Y-113030000D03*
X123571000Y-114173000D03*
X122428000Y-115443000D03*
X128270000Y-105918000D03*
X136398000Y-108839000D03*
X139192000Y-107822994D03*
X126746000Y-129413000D03*
X128016000Y-129413000D03*
X128016000Y-130683000D03*
X126746000Y-130683000D03*
X148844000Y-111887000D03*
X150114000Y-111887000D03*
X148844000Y-113157000D03*
X150114000Y-113157000D03*
X148463000Y-115316000D03*
X149606000Y-115316000D03*
X143256000Y-111506000D03*
X143256000Y-109982000D03*
X141986000Y-116205000D03*
X142367000Y-114173000D03*
X143637000Y-114173000D03*
X143637000Y-115443000D03*
X142367000Y-115443000D03*
X145034000Y-119888000D03*
X143510000Y-118745000D03*
X137795000Y-118872000D03*
X133223000Y-120015000D03*
X138557000Y-117221000D03*
X136016996Y-120015000D03*
X140208000Y-116205000D03*
X136398000Y-116205000D03*
X137160000Y-120015000D03*
X135001000Y-118491000D03*
X140589000Y-120523000D03*
X115693500Y-118494500D03*
X115697000Y-121793000D03*
X115693500Y-109096500D03*
X115697000Y-112395000D03*
D18*
G36*
X128016000Y-115749606D02*
G01*
X128016000Y-128701800D01*
X127945953Y-128701800D01*
X127808551Y-128729131D01*
X127679121Y-128782743D01*
X127562637Y-128860575D01*
X127463575Y-128959637D01*
X127385743Y-129076121D01*
X127381000Y-129087572D01*
X127376257Y-129076121D01*
X127298425Y-128959637D01*
X127199363Y-128860575D01*
X127082879Y-128782743D01*
X126953449Y-128729131D01*
X126816047Y-128701800D01*
X126675953Y-128701800D01*
X126538551Y-128729131D01*
X126409121Y-128782743D01*
X126292637Y-128860575D01*
X126193575Y-128959637D01*
X126115743Y-129076121D01*
X126062131Y-129205551D01*
X126034800Y-129342953D01*
X126034800Y-129483047D01*
X126062131Y-129620449D01*
X126115743Y-129749879D01*
X126193575Y-129866363D01*
X126292637Y-129965425D01*
X126409121Y-130043257D01*
X126420572Y-130048000D01*
X126409121Y-130052743D01*
X126292637Y-130130575D01*
X126193575Y-130229637D01*
X126115743Y-130346121D01*
X126062131Y-130475551D01*
X126034800Y-130612953D01*
X126034800Y-130753047D01*
X126062131Y-130890449D01*
X126115743Y-131019879D01*
X126193575Y-131136363D01*
X126248212Y-131191000D01*
X125211788Y-131191000D01*
X125266425Y-131136363D01*
X125344257Y-131019879D01*
X125397869Y-130890449D01*
X125425200Y-130753047D01*
X125425200Y-130612953D01*
X125397869Y-130475551D01*
X125344257Y-130346121D01*
X125266425Y-130229637D01*
X125167363Y-130130575D01*
X125050879Y-130052743D01*
X125039428Y-130048000D01*
X125050879Y-130043257D01*
X125167363Y-129965425D01*
X125266425Y-129866363D01*
X125344257Y-129749879D01*
X125397869Y-129620449D01*
X125425200Y-129483047D01*
X125425200Y-129342953D01*
X125397869Y-129205551D01*
X125344257Y-129076121D01*
X125266425Y-128959637D01*
X125167363Y-128860575D01*
X125050879Y-128782743D01*
X124921449Y-128729131D01*
X124784047Y-128701800D01*
X124643953Y-128701800D01*
X124506551Y-128729131D01*
X124377121Y-128782743D01*
X124260637Y-128860575D01*
X124161575Y-128959637D01*
X124083743Y-129076121D01*
X124079000Y-129087572D01*
X124074257Y-129076121D01*
X123996425Y-128959637D01*
X123897363Y-128860575D01*
X123780879Y-128782743D01*
X123651449Y-128729131D01*
X123514047Y-128701800D01*
X123373953Y-128701800D01*
X123236551Y-128729131D01*
X123107121Y-128782743D01*
X122990637Y-128860575D01*
X122891575Y-128959637D01*
X122813743Y-129076121D01*
X122760131Y-129205551D01*
X122732800Y-129342953D01*
X122732800Y-129483047D01*
X122760131Y-129620449D01*
X122813743Y-129749879D01*
X122891575Y-129866363D01*
X122990637Y-129965425D01*
X123107121Y-130043257D01*
X123118572Y-130048000D01*
X123107121Y-130052743D01*
X122990637Y-130130575D01*
X122891575Y-130229637D01*
X122813743Y-130346121D01*
X122760131Y-130475551D01*
X122732800Y-130612953D01*
X122732800Y-130753047D01*
X122760131Y-130890449D01*
X122813743Y-131019879D01*
X122891575Y-131136363D01*
X122946212Y-131191000D01*
X117221000Y-131191000D01*
X117221000Y-128905000D01*
X119507000Y-128905000D01*
X119531776Y-128902560D01*
X119555601Y-128895333D01*
X119577557Y-128883597D01*
X119596803Y-128867803D01*
X119606170Y-128857336D01*
X120114170Y-128222336D01*
X120127743Y-128201465D01*
X120136982Y-128178346D01*
X120142000Y-128143000D01*
X120142000Y-122340000D01*
X124446111Y-122340000D01*
X124446111Y-124040000D01*
X124454448Y-124124648D01*
X124479139Y-124206042D01*
X124519234Y-124281056D01*
X124573194Y-124346806D01*
X124638944Y-124400766D01*
X124713958Y-124440861D01*
X124795352Y-124465552D01*
X124880000Y-124473889D01*
X126580000Y-124473889D01*
X126664648Y-124465552D01*
X126746042Y-124440861D01*
X126821056Y-124400766D01*
X126886806Y-124346806D01*
X126940766Y-124281056D01*
X126980861Y-124206042D01*
X127005552Y-124124648D01*
X127013889Y-124040000D01*
X127013889Y-122340000D01*
X127005552Y-122255352D01*
X126980861Y-122173958D01*
X126940766Y-122098944D01*
X126886806Y-122033194D01*
X126821056Y-121979234D01*
X126746042Y-121939139D01*
X126664648Y-121914448D01*
X126580000Y-121906111D01*
X124880000Y-121906111D01*
X124795352Y-121914448D01*
X124713958Y-121939139D01*
X124638944Y-121979234D01*
X124573194Y-122033194D01*
X124519234Y-122098944D01*
X124479139Y-122173958D01*
X124454448Y-122255352D01*
X124446111Y-122340000D01*
X120142000Y-122340000D01*
X120142000Y-121210606D01*
X121972606Y-119380000D01*
X123698000Y-119380000D01*
X123722776Y-119377560D01*
X123746601Y-119370333D01*
X123768557Y-119358597D01*
X123792921Y-119337374D01*
X124514661Y-118525416D01*
X124594084Y-118717160D01*
X124734361Y-118927100D01*
X124912900Y-119105639D01*
X125122840Y-119245916D01*
X125356113Y-119342541D01*
X125603754Y-119391800D01*
X125856246Y-119391800D01*
X126103887Y-119342541D01*
X126337160Y-119245916D01*
X126547100Y-119105639D01*
X126725639Y-118927100D01*
X126865916Y-118717160D01*
X126962541Y-118483887D01*
X127011800Y-118236246D01*
X127011800Y-117983754D01*
X126962541Y-117736113D01*
X126865916Y-117502840D01*
X126725639Y-117292900D01*
X126547100Y-117114361D01*
X126337160Y-116974084D01*
X126103887Y-116877459D01*
X125856246Y-116828200D01*
X125603754Y-116828200D01*
X125356113Y-116877459D01*
X125122840Y-116974084D01*
X124912900Y-117114361D01*
X124841000Y-117186261D01*
X124841000Y-116297776D01*
X124913363Y-116249425D01*
X125012425Y-116150363D01*
X125090257Y-116033879D01*
X125143869Y-115904449D01*
X125171200Y-115767047D01*
X125171200Y-115626953D01*
X125143869Y-115489551D01*
X125116245Y-115422862D01*
X125534413Y-114935000D01*
X127201394Y-114935000D01*
X128016000Y-115749606D01*
G37*
X128016000Y-115749606D02*
X128016000Y-128701800D01*
X127945953Y-128701800D01*
X127808551Y-128729131D01*
X127679121Y-128782743D01*
X127562637Y-128860575D01*
X127463575Y-128959637D01*
X127385743Y-129076121D01*
X127381000Y-129087572D01*
X127376257Y-129076121D01*
X127298425Y-128959637D01*
X127199363Y-128860575D01*
X127082879Y-128782743D01*
X126953449Y-128729131D01*
X126816047Y-128701800D01*
X126675953Y-128701800D01*
X126538551Y-128729131D01*
X126409121Y-128782743D01*
X126292637Y-128860575D01*
X126193575Y-128959637D01*
X126115743Y-129076121D01*
X126062131Y-129205551D01*
X126034800Y-129342953D01*
X126034800Y-129483047D01*
X126062131Y-129620449D01*
X126115743Y-129749879D01*
X126193575Y-129866363D01*
X126292637Y-129965425D01*
X126409121Y-130043257D01*
X126420572Y-130048000D01*
X126409121Y-130052743D01*
X126292637Y-130130575D01*
X126193575Y-130229637D01*
X126115743Y-130346121D01*
X126062131Y-130475551D01*
X126034800Y-130612953D01*
X126034800Y-130753047D01*
X126062131Y-130890449D01*
X126115743Y-131019879D01*
X126193575Y-131136363D01*
X126248212Y-131191000D01*
X125211788Y-131191000D01*
X125266425Y-131136363D01*
X125344257Y-131019879D01*
X125397869Y-130890449D01*
X125425200Y-130753047D01*
X125425200Y-130612953D01*
X125397869Y-130475551D01*
X125344257Y-130346121D01*
X125266425Y-130229637D01*
X125167363Y-130130575D01*
X125050879Y-130052743D01*
X125039428Y-130048000D01*
X125050879Y-130043257D01*
X125167363Y-129965425D01*
X125266425Y-129866363D01*
X125344257Y-129749879D01*
X125397869Y-129620449D01*
X125425200Y-129483047D01*
X125425200Y-129342953D01*
X125397869Y-129205551D01*
X125344257Y-129076121D01*
X125266425Y-128959637D01*
X125167363Y-128860575D01*
X125050879Y-128782743D01*
X124921449Y-128729131D01*
X124784047Y-128701800D01*
X124643953Y-128701800D01*
X124506551Y-128729131D01*
X124377121Y-128782743D01*
X124260637Y-128860575D01*
X124161575Y-128959637D01*
X124083743Y-129076121D01*
X124079000Y-129087572D01*
X124074257Y-129076121D01*
X123996425Y-128959637D01*
X123897363Y-128860575D01*
X123780879Y-128782743D01*
X123651449Y-128729131D01*
X123514047Y-128701800D01*
X123373953Y-128701800D01*
X123236551Y-128729131D01*
X123107121Y-128782743D01*
X122990637Y-128860575D01*
X122891575Y-128959637D01*
X122813743Y-129076121D01*
X122760131Y-129205551D01*
X122732800Y-129342953D01*
X122732800Y-129483047D01*
X122760131Y-129620449D01*
X122813743Y-129749879D01*
X122891575Y-129866363D01*
X122990637Y-129965425D01*
X123107121Y-130043257D01*
X123118572Y-130048000D01*
X123107121Y-130052743D01*
X122990637Y-130130575D01*
X122891575Y-130229637D01*
X122813743Y-130346121D01*
X122760131Y-130475551D01*
X122732800Y-130612953D01*
X122732800Y-130753047D01*
X122760131Y-130890449D01*
X122813743Y-131019879D01*
X122891575Y-131136363D01*
X122946212Y-131191000D01*
X117221000Y-131191000D01*
X117221000Y-128905000D01*
X119507000Y-128905000D01*
X119531776Y-128902560D01*
X119555601Y-128895333D01*
X119577557Y-128883597D01*
X119596803Y-128867803D01*
X119606170Y-128857336D01*
X120114170Y-128222336D01*
X120127743Y-128201465D01*
X120136982Y-128178346D01*
X120142000Y-128143000D01*
X120142000Y-122340000D01*
X124446111Y-122340000D01*
X124446111Y-124040000D01*
X124454448Y-124124648D01*
X124479139Y-124206042D01*
X124519234Y-124281056D01*
X124573194Y-124346806D01*
X124638944Y-124400766D01*
X124713958Y-124440861D01*
X124795352Y-124465552D01*
X124880000Y-124473889D01*
X126580000Y-124473889D01*
X126664648Y-124465552D01*
X126746042Y-124440861D01*
X126821056Y-124400766D01*
X126886806Y-124346806D01*
X126940766Y-124281056D01*
X126980861Y-124206042D01*
X127005552Y-124124648D01*
X127013889Y-124040000D01*
X127013889Y-122340000D01*
X127005552Y-122255352D01*
X126980861Y-122173958D01*
X126940766Y-122098944D01*
X126886806Y-122033194D01*
X126821056Y-121979234D01*
X126746042Y-121939139D01*
X126664648Y-121914448D01*
X126580000Y-121906111D01*
X124880000Y-121906111D01*
X124795352Y-121914448D01*
X124713958Y-121939139D01*
X124638944Y-121979234D01*
X124573194Y-122033194D01*
X124519234Y-122098944D01*
X124479139Y-122173958D01*
X124454448Y-122255352D01*
X124446111Y-122340000D01*
X120142000Y-122340000D01*
X120142000Y-121210606D01*
X121972606Y-119380000D01*
X123698000Y-119380000D01*
X123722776Y-119377560D01*
X123746601Y-119370333D01*
X123768557Y-119358597D01*
X123792921Y-119337374D01*
X124514661Y-118525416D01*
X124594084Y-118717160D01*
X124734361Y-118927100D01*
X124912900Y-119105639D01*
X125122840Y-119245916D01*
X125356113Y-119342541D01*
X125603754Y-119391800D01*
X125856246Y-119391800D01*
X126103887Y-119342541D01*
X126337160Y-119245916D01*
X126547100Y-119105639D01*
X126725639Y-118927100D01*
X126865916Y-118717160D01*
X126962541Y-118483887D01*
X127011800Y-118236246D01*
X127011800Y-117983754D01*
X126962541Y-117736113D01*
X126865916Y-117502840D01*
X126725639Y-117292900D01*
X126547100Y-117114361D01*
X126337160Y-116974084D01*
X126103887Y-116877459D01*
X125856246Y-116828200D01*
X125603754Y-116828200D01*
X125356113Y-116877459D01*
X125122840Y-116974084D01*
X124912900Y-117114361D01*
X124841000Y-117186261D01*
X124841000Y-116297776D01*
X124913363Y-116249425D01*
X125012425Y-116150363D01*
X125090257Y-116033879D01*
X125143869Y-115904449D01*
X125171200Y-115767047D01*
X125171200Y-115626953D01*
X125143869Y-115489551D01*
X125116245Y-115422862D01*
X125534413Y-114935000D01*
X127201394Y-114935000D01*
X128016000Y-115749606D01*
G36*
X115360121Y-111764743D02*
G01*
X115243637Y-111842575D01*
X115144575Y-111941637D01*
X115066743Y-112058121D01*
X115013131Y-112187551D01*
X114985800Y-112324953D01*
X114985800Y-112465047D01*
X115013131Y-112602449D01*
X115066743Y-112731879D01*
X115144575Y-112848363D01*
X115243637Y-112947425D01*
X115360121Y-113025257D01*
X115489551Y-113078869D01*
X115626953Y-113106200D01*
X115767047Y-113106200D01*
X115904449Y-113078869D01*
X116033879Y-113025257D01*
X116150363Y-112947425D01*
X116249425Y-112848363D01*
X116327257Y-112731879D01*
X116380869Y-112602449D01*
X116408200Y-112465047D01*
X116408200Y-112324953D01*
X116380869Y-112187551D01*
X116327257Y-112058121D01*
X116249425Y-111941637D01*
X116150363Y-111842575D01*
X116033879Y-111764743D01*
X116022428Y-111760000D01*
X126312394Y-111760000D01*
X126873000Y-112320606D01*
X126873000Y-113792000D01*
X125632587Y-113792000D01*
X125651869Y-113745449D01*
X125679200Y-113608047D01*
X125679200Y-113467953D01*
X125651869Y-113330551D01*
X125598257Y-113201121D01*
X125520425Y-113084637D01*
X125421363Y-112985575D01*
X125304879Y-112907743D01*
X125175449Y-112854131D01*
X125038047Y-112826800D01*
X124897953Y-112826800D01*
X124760551Y-112854131D01*
X124631121Y-112907743D01*
X124514637Y-112985575D01*
X124415575Y-113084637D01*
X124337743Y-113201121D01*
X124284131Y-113330551D01*
X124256800Y-113467953D01*
X124256800Y-113608047D01*
X124284131Y-113745449D01*
X124337743Y-113874879D01*
X124415575Y-113991363D01*
X124417652Y-113993440D01*
X123999664Y-114327830D01*
X123981841Y-114345213D01*
X123967752Y-114365739D01*
X123957938Y-114388620D01*
X123952777Y-114412975D01*
X123952000Y-114427000D01*
X123952000Y-115199212D01*
X123907575Y-115243637D01*
X123829743Y-115360121D01*
X123776131Y-115489551D01*
X123748800Y-115626953D01*
X123748800Y-115767047D01*
X123776131Y-115904449D01*
X123829743Y-116033879D01*
X123907575Y-116150363D01*
X123952000Y-116194788D01*
X123952000Y-117676394D01*
X123887507Y-117740887D01*
X123901200Y-117672047D01*
X123901200Y-117531953D01*
X123873869Y-117394551D01*
X123820257Y-117265121D01*
X123742425Y-117148637D01*
X123643363Y-117049575D01*
X123526879Y-116971743D01*
X123397449Y-116918131D01*
X123260047Y-116890800D01*
X123119953Y-116890800D01*
X122982551Y-116918131D01*
X122853121Y-116971743D01*
X122736637Y-117049575D01*
X122637575Y-117148637D01*
X122559743Y-117265121D01*
X122506131Y-117394551D01*
X122478800Y-117531953D01*
X122478800Y-117672047D01*
X122506131Y-117809449D01*
X122559743Y-117938879D01*
X122637575Y-118055363D01*
X122736637Y-118154425D01*
X122853121Y-118232257D01*
X122982551Y-118285869D01*
X123119953Y-118313200D01*
X123260047Y-118313200D01*
X123328887Y-118299507D01*
X123137394Y-118491000D01*
X121539000Y-118491000D01*
X121514224Y-118493440D01*
X121490399Y-118500667D01*
X121468443Y-118512403D01*
X121446669Y-118530799D01*
X119287669Y-120816799D01*
X119272431Y-120836487D01*
X119261327Y-120858770D01*
X119254783Y-120882791D01*
X119253000Y-120904000D01*
X119253000Y-124268129D01*
X119196047Y-124256800D01*
X119055953Y-124256800D01*
X118918551Y-124284131D01*
X118789121Y-124337743D01*
X118672637Y-124415575D01*
X118573575Y-124514637D01*
X118495743Y-124631121D01*
X118491000Y-124642572D01*
X118486257Y-124631121D01*
X118408425Y-124514637D01*
X118309363Y-124415575D01*
X118192879Y-124337743D01*
X118063449Y-124284131D01*
X117926047Y-124256800D01*
X117785953Y-124256800D01*
X117648551Y-124284131D01*
X117519121Y-124337743D01*
X117402637Y-124415575D01*
X117303575Y-124514637D01*
X117225743Y-124631121D01*
X117172131Y-124760551D01*
X117144800Y-124897953D01*
X117144800Y-125038047D01*
X117172131Y-125175449D01*
X117225743Y-125304879D01*
X117303575Y-125421363D01*
X117402637Y-125520425D01*
X117519121Y-125598257D01*
X117648551Y-125651869D01*
X117785953Y-125679200D01*
X117926047Y-125679200D01*
X118063449Y-125651869D01*
X118192879Y-125598257D01*
X118309363Y-125520425D01*
X118408425Y-125421363D01*
X118486257Y-125304879D01*
X118491000Y-125293428D01*
X118495743Y-125304879D01*
X118573575Y-125421363D01*
X118672637Y-125520425D01*
X118789121Y-125598257D01*
X118918551Y-125651869D01*
X119055953Y-125679200D01*
X119196047Y-125679200D01*
X119253000Y-125667871D01*
X119253000Y-127719667D01*
X118935500Y-128143000D01*
X116586000Y-128143000D01*
X116561224Y-128145440D01*
X116537399Y-128152667D01*
X116515443Y-128164403D01*
X116496197Y-128180197D01*
X115988197Y-128688197D01*
X115972403Y-128707443D01*
X115960667Y-128729399D01*
X115953440Y-128753224D01*
X115951000Y-128778000D01*
X115951000Y-131191000D01*
X113919000Y-131191000D01*
X113919000Y-121722953D01*
X114985800Y-121722953D01*
X114985800Y-121863047D01*
X115013131Y-122000449D01*
X115066743Y-122129879D01*
X115144575Y-122246363D01*
X115243637Y-122345425D01*
X115360121Y-122423257D01*
X115489551Y-122476869D01*
X115626953Y-122504200D01*
X115767047Y-122504200D01*
X115904449Y-122476869D01*
X116033879Y-122423257D01*
X116150363Y-122345425D01*
X116249425Y-122246363D01*
X116327257Y-122129879D01*
X116380869Y-122000449D01*
X116408200Y-121863047D01*
X116408200Y-121722953D01*
X116380869Y-121585551D01*
X116327257Y-121456121D01*
X116249425Y-121339637D01*
X116150363Y-121240575D01*
X116033879Y-121162743D01*
X115904449Y-121109131D01*
X115767047Y-121081800D01*
X115626953Y-121081800D01*
X115489551Y-121109131D01*
X115360121Y-121162743D01*
X115243637Y-121240575D01*
X115144575Y-121339637D01*
X115066743Y-121456121D01*
X115013131Y-121585551D01*
X114985800Y-121722953D01*
X113919000Y-121722953D01*
X113919000Y-118424453D01*
X114982300Y-118424453D01*
X114982300Y-118564547D01*
X115009631Y-118701949D01*
X115063243Y-118831379D01*
X115141075Y-118947863D01*
X115240137Y-119046925D01*
X115356621Y-119124757D01*
X115486051Y-119178369D01*
X115623453Y-119205700D01*
X115763547Y-119205700D01*
X115900949Y-119178369D01*
X116030379Y-119124757D01*
X116146863Y-119046925D01*
X116245925Y-118947863D01*
X116323757Y-118831379D01*
X116377369Y-118701949D01*
X116404700Y-118564547D01*
X116404700Y-118424453D01*
X116377369Y-118287051D01*
X116323757Y-118157621D01*
X116245925Y-118041137D01*
X116146863Y-117942075D01*
X116030379Y-117864243D01*
X115900949Y-117810631D01*
X115763547Y-117783300D01*
X115623453Y-117783300D01*
X115486051Y-117810631D01*
X115356621Y-117864243D01*
X115240137Y-117942075D01*
X115141075Y-118041137D01*
X115063243Y-118157621D01*
X115009631Y-118287051D01*
X114982300Y-118424453D01*
X113919000Y-118424453D01*
X113919000Y-117927428D01*
X113923743Y-117938879D01*
X114001575Y-118055363D01*
X114100637Y-118154425D01*
X114217121Y-118232257D01*
X114346551Y-118285869D01*
X114483953Y-118313200D01*
X114624047Y-118313200D01*
X114761449Y-118285869D01*
X114890879Y-118232257D01*
X115007363Y-118154425D01*
X115106425Y-118055363D01*
X115184257Y-117938879D01*
X115237869Y-117809449D01*
X115265200Y-117672047D01*
X115265200Y-117531953D01*
X115237869Y-117394551D01*
X115184257Y-117265121D01*
X115106425Y-117148637D01*
X115007363Y-117049575D01*
X114890879Y-116971743D01*
X114761449Y-116918131D01*
X114624047Y-116890800D01*
X114483953Y-116890800D01*
X114346551Y-116918131D01*
X114217121Y-116971743D01*
X114100637Y-117049575D01*
X114001575Y-117148637D01*
X113923743Y-117265121D01*
X113919000Y-117276572D01*
X113919000Y-116769953D01*
X117144800Y-116769953D01*
X117144800Y-116910047D01*
X117172131Y-117047449D01*
X117225743Y-117176879D01*
X117303575Y-117293363D01*
X117402637Y-117392425D01*
X117519121Y-117470257D01*
X117648551Y-117523869D01*
X117785953Y-117551200D01*
X117926047Y-117551200D01*
X118063449Y-117523869D01*
X118192879Y-117470257D01*
X118309363Y-117392425D01*
X118408425Y-117293363D01*
X118486257Y-117176879D01*
X118491000Y-117165428D01*
X118495743Y-117176879D01*
X118573575Y-117293363D01*
X118672637Y-117392425D01*
X118789121Y-117470257D01*
X118918551Y-117523869D01*
X119055953Y-117551200D01*
X119196047Y-117551200D01*
X119333449Y-117523869D01*
X119462879Y-117470257D01*
X119579363Y-117392425D01*
X119678425Y-117293363D01*
X119756257Y-117176879D01*
X119761000Y-117165428D01*
X119765743Y-117176879D01*
X119843575Y-117293363D01*
X119942637Y-117392425D01*
X120059121Y-117470257D01*
X120188551Y-117523869D01*
X120325953Y-117551200D01*
X120466047Y-117551200D01*
X120603449Y-117523869D01*
X120732879Y-117470257D01*
X120849363Y-117392425D01*
X120948425Y-117293363D01*
X121026257Y-117176879D01*
X121079869Y-117047449D01*
X121107200Y-116910047D01*
X121107200Y-116769953D01*
X121079869Y-116632551D01*
X121026257Y-116503121D01*
X120948425Y-116386637D01*
X120849363Y-116287575D01*
X120732879Y-116209743D01*
X120603449Y-116156131D01*
X120466047Y-116128800D01*
X120325953Y-116128800D01*
X120188551Y-116156131D01*
X120059121Y-116209743D01*
X119942637Y-116287575D01*
X119843575Y-116386637D01*
X119765743Y-116503121D01*
X119761000Y-116514572D01*
X119756257Y-116503121D01*
X119678425Y-116386637D01*
X119579363Y-116287575D01*
X119462879Y-116209743D01*
X119333449Y-116156131D01*
X119196047Y-116128800D01*
X119055953Y-116128800D01*
X118918551Y-116156131D01*
X118789121Y-116209743D01*
X118672637Y-116287575D01*
X118573575Y-116386637D01*
X118495743Y-116503121D01*
X118491000Y-116514572D01*
X118486257Y-116503121D01*
X118408425Y-116386637D01*
X118309363Y-116287575D01*
X118192879Y-116209743D01*
X118063449Y-116156131D01*
X117926047Y-116128800D01*
X117785953Y-116128800D01*
X117648551Y-116156131D01*
X117519121Y-116209743D01*
X117402637Y-116287575D01*
X117303575Y-116386637D01*
X117225743Y-116503121D01*
X117172131Y-116632551D01*
X117144800Y-116769953D01*
X113919000Y-116769953D01*
X113919000Y-112447606D01*
X114606606Y-111760000D01*
X115371572Y-111760000D01*
X115360121Y-111764743D01*
G37*
X115360121Y-111764743D02*
X115243637Y-111842575D01*
X115144575Y-111941637D01*
X115066743Y-112058121D01*
X115013131Y-112187551D01*
X114985800Y-112324953D01*
X114985800Y-112465047D01*
X115013131Y-112602449D01*
X115066743Y-112731879D01*
X115144575Y-112848363D01*
X115243637Y-112947425D01*
X115360121Y-113025257D01*
X115489551Y-113078869D01*
X115626953Y-113106200D01*
X115767047Y-113106200D01*
X115904449Y-113078869D01*
X116033879Y-113025257D01*
X116150363Y-112947425D01*
X116249425Y-112848363D01*
X116327257Y-112731879D01*
X116380869Y-112602449D01*
X116408200Y-112465047D01*
X116408200Y-112324953D01*
X116380869Y-112187551D01*
X116327257Y-112058121D01*
X116249425Y-111941637D01*
X116150363Y-111842575D01*
X116033879Y-111764743D01*
X116022428Y-111760000D01*
X126312394Y-111760000D01*
X126873000Y-112320606D01*
X126873000Y-113792000D01*
X125632587Y-113792000D01*
X125651869Y-113745449D01*
X125679200Y-113608047D01*
X125679200Y-113467953D01*
X125651869Y-113330551D01*
X125598257Y-113201121D01*
X125520425Y-113084637D01*
X125421363Y-112985575D01*
X125304879Y-112907743D01*
X125175449Y-112854131D01*
X125038047Y-112826800D01*
X124897953Y-112826800D01*
X124760551Y-112854131D01*
X124631121Y-112907743D01*
X124514637Y-112985575D01*
X124415575Y-113084637D01*
X124337743Y-113201121D01*
X124284131Y-113330551D01*
X124256800Y-113467953D01*
X124256800Y-113608047D01*
X124284131Y-113745449D01*
X124337743Y-113874879D01*
X124415575Y-113991363D01*
X124417652Y-113993440D01*
X123999664Y-114327830D01*
X123981841Y-114345213D01*
X123967752Y-114365739D01*
X123957938Y-114388620D01*
X123952777Y-114412975D01*
X123952000Y-114427000D01*
X123952000Y-115199212D01*
X123907575Y-115243637D01*
X123829743Y-115360121D01*
X123776131Y-115489551D01*
X123748800Y-115626953D01*
X123748800Y-115767047D01*
X123776131Y-115904449D01*
X123829743Y-116033879D01*
X123907575Y-116150363D01*
X123952000Y-116194788D01*
X123952000Y-117676394D01*
X123887507Y-117740887D01*
X123901200Y-117672047D01*
X123901200Y-117531953D01*
X123873869Y-117394551D01*
X123820257Y-117265121D01*
X123742425Y-117148637D01*
X123643363Y-117049575D01*
X123526879Y-116971743D01*
X123397449Y-116918131D01*
X123260047Y-116890800D01*
X123119953Y-116890800D01*
X122982551Y-116918131D01*
X122853121Y-116971743D01*
X122736637Y-117049575D01*
X122637575Y-117148637D01*
X122559743Y-117265121D01*
X122506131Y-117394551D01*
X122478800Y-117531953D01*
X122478800Y-117672047D01*
X122506131Y-117809449D01*
X122559743Y-117938879D01*
X122637575Y-118055363D01*
X122736637Y-118154425D01*
X122853121Y-118232257D01*
X122982551Y-118285869D01*
X123119953Y-118313200D01*
X123260047Y-118313200D01*
X123328887Y-118299507D01*
X123137394Y-118491000D01*
X121539000Y-118491000D01*
X121514224Y-118493440D01*
X121490399Y-118500667D01*
X121468443Y-118512403D01*
X121446669Y-118530799D01*
X119287669Y-120816799D01*
X119272431Y-120836487D01*
X119261327Y-120858770D01*
X119254783Y-120882791D01*
X119253000Y-120904000D01*
X119253000Y-124268129D01*
X119196047Y-124256800D01*
X119055953Y-124256800D01*
X118918551Y-124284131D01*
X118789121Y-124337743D01*
X118672637Y-124415575D01*
X118573575Y-124514637D01*
X118495743Y-124631121D01*
X118491000Y-124642572D01*
X118486257Y-124631121D01*
X118408425Y-124514637D01*
X118309363Y-124415575D01*
X118192879Y-124337743D01*
X118063449Y-124284131D01*
X117926047Y-124256800D01*
X117785953Y-124256800D01*
X117648551Y-124284131D01*
X117519121Y-124337743D01*
X117402637Y-124415575D01*
X117303575Y-124514637D01*
X117225743Y-124631121D01*
X117172131Y-124760551D01*
X117144800Y-124897953D01*
X117144800Y-125038047D01*
X117172131Y-125175449D01*
X117225743Y-125304879D01*
X117303575Y-125421363D01*
X117402637Y-125520425D01*
X117519121Y-125598257D01*
X117648551Y-125651869D01*
X117785953Y-125679200D01*
X117926047Y-125679200D01*
X118063449Y-125651869D01*
X118192879Y-125598257D01*
X118309363Y-125520425D01*
X118408425Y-125421363D01*
X118486257Y-125304879D01*
X118491000Y-125293428D01*
X118495743Y-125304879D01*
X118573575Y-125421363D01*
X118672637Y-125520425D01*
X118789121Y-125598257D01*
X118918551Y-125651869D01*
X119055953Y-125679200D01*
X119196047Y-125679200D01*
X119253000Y-125667871D01*
X119253000Y-127719667D01*
X118935500Y-128143000D01*
X116586000Y-128143000D01*
X116561224Y-128145440D01*
X116537399Y-128152667D01*
X116515443Y-128164403D01*
X116496197Y-128180197D01*
X115988197Y-128688197D01*
X115972403Y-128707443D01*
X115960667Y-128729399D01*
X115953440Y-128753224D01*
X115951000Y-128778000D01*
X115951000Y-131191000D01*
X113919000Y-131191000D01*
X113919000Y-121722953D01*
X114985800Y-121722953D01*
X114985800Y-121863047D01*
X115013131Y-122000449D01*
X115066743Y-122129879D01*
X115144575Y-122246363D01*
X115243637Y-122345425D01*
X115360121Y-122423257D01*
X115489551Y-122476869D01*
X115626953Y-122504200D01*
X115767047Y-122504200D01*
X115904449Y-122476869D01*
X116033879Y-122423257D01*
X116150363Y-122345425D01*
X116249425Y-122246363D01*
X116327257Y-122129879D01*
X116380869Y-122000449D01*
X116408200Y-121863047D01*
X116408200Y-121722953D01*
X116380869Y-121585551D01*
X116327257Y-121456121D01*
X116249425Y-121339637D01*
X116150363Y-121240575D01*
X116033879Y-121162743D01*
X115904449Y-121109131D01*
X115767047Y-121081800D01*
X115626953Y-121081800D01*
X115489551Y-121109131D01*
X115360121Y-121162743D01*
X115243637Y-121240575D01*
X115144575Y-121339637D01*
X115066743Y-121456121D01*
X115013131Y-121585551D01*
X114985800Y-121722953D01*
X113919000Y-121722953D01*
X113919000Y-118424453D01*
X114982300Y-118424453D01*
X114982300Y-118564547D01*
X115009631Y-118701949D01*
X115063243Y-118831379D01*
X115141075Y-118947863D01*
X115240137Y-119046925D01*
X115356621Y-119124757D01*
X115486051Y-119178369D01*
X115623453Y-119205700D01*
X115763547Y-119205700D01*
X115900949Y-119178369D01*
X116030379Y-119124757D01*
X116146863Y-119046925D01*
X116245925Y-118947863D01*
X116323757Y-118831379D01*
X116377369Y-118701949D01*
X116404700Y-118564547D01*
X116404700Y-118424453D01*
X116377369Y-118287051D01*
X116323757Y-118157621D01*
X116245925Y-118041137D01*
X116146863Y-117942075D01*
X116030379Y-117864243D01*
X115900949Y-117810631D01*
X115763547Y-117783300D01*
X115623453Y-117783300D01*
X115486051Y-117810631D01*
X115356621Y-117864243D01*
X115240137Y-117942075D01*
X115141075Y-118041137D01*
X115063243Y-118157621D01*
X115009631Y-118287051D01*
X114982300Y-118424453D01*
X113919000Y-118424453D01*
X113919000Y-117927428D01*
X113923743Y-117938879D01*
X114001575Y-118055363D01*
X114100637Y-118154425D01*
X114217121Y-118232257D01*
X114346551Y-118285869D01*
X114483953Y-118313200D01*
X114624047Y-118313200D01*
X114761449Y-118285869D01*
X114890879Y-118232257D01*
X115007363Y-118154425D01*
X115106425Y-118055363D01*
X115184257Y-117938879D01*
X115237869Y-117809449D01*
X115265200Y-117672047D01*
X115265200Y-117531953D01*
X115237869Y-117394551D01*
X115184257Y-117265121D01*
X115106425Y-117148637D01*
X115007363Y-117049575D01*
X114890879Y-116971743D01*
X114761449Y-116918131D01*
X114624047Y-116890800D01*
X114483953Y-116890800D01*
X114346551Y-116918131D01*
X114217121Y-116971743D01*
X114100637Y-117049575D01*
X114001575Y-117148637D01*
X113923743Y-117265121D01*
X113919000Y-117276572D01*
X113919000Y-116769953D01*
X117144800Y-116769953D01*
X117144800Y-116910047D01*
X117172131Y-117047449D01*
X117225743Y-117176879D01*
X117303575Y-117293363D01*
X117402637Y-117392425D01*
X117519121Y-117470257D01*
X117648551Y-117523869D01*
X117785953Y-117551200D01*
X117926047Y-117551200D01*
X118063449Y-117523869D01*
X118192879Y-117470257D01*
X118309363Y-117392425D01*
X118408425Y-117293363D01*
X118486257Y-117176879D01*
X118491000Y-117165428D01*
X118495743Y-117176879D01*
X118573575Y-117293363D01*
X118672637Y-117392425D01*
X118789121Y-117470257D01*
X118918551Y-117523869D01*
X119055953Y-117551200D01*
X119196047Y-117551200D01*
X119333449Y-117523869D01*
X119462879Y-117470257D01*
X119579363Y-117392425D01*
X119678425Y-117293363D01*
X119756257Y-117176879D01*
X119761000Y-117165428D01*
X119765743Y-117176879D01*
X119843575Y-117293363D01*
X119942637Y-117392425D01*
X120059121Y-117470257D01*
X120188551Y-117523869D01*
X120325953Y-117551200D01*
X120466047Y-117551200D01*
X120603449Y-117523869D01*
X120732879Y-117470257D01*
X120849363Y-117392425D01*
X120948425Y-117293363D01*
X121026257Y-117176879D01*
X121079869Y-117047449D01*
X121107200Y-116910047D01*
X121107200Y-116769953D01*
X121079869Y-116632551D01*
X121026257Y-116503121D01*
X120948425Y-116386637D01*
X120849363Y-116287575D01*
X120732879Y-116209743D01*
X120603449Y-116156131D01*
X120466047Y-116128800D01*
X120325953Y-116128800D01*
X120188551Y-116156131D01*
X120059121Y-116209743D01*
X119942637Y-116287575D01*
X119843575Y-116386637D01*
X119765743Y-116503121D01*
X119761000Y-116514572D01*
X119756257Y-116503121D01*
X119678425Y-116386637D01*
X119579363Y-116287575D01*
X119462879Y-116209743D01*
X119333449Y-116156131D01*
X119196047Y-116128800D01*
X119055953Y-116128800D01*
X118918551Y-116156131D01*
X118789121Y-116209743D01*
X118672637Y-116287575D01*
X118573575Y-116386637D01*
X118495743Y-116503121D01*
X118491000Y-116514572D01*
X118486257Y-116503121D01*
X118408425Y-116386637D01*
X118309363Y-116287575D01*
X118192879Y-116209743D01*
X118063449Y-116156131D01*
X117926047Y-116128800D01*
X117785953Y-116128800D01*
X117648551Y-116156131D01*
X117519121Y-116209743D01*
X117402637Y-116287575D01*
X117303575Y-116386637D01*
X117225743Y-116503121D01*
X117172131Y-116632551D01*
X117144800Y-116769953D01*
X113919000Y-116769953D01*
X113919000Y-112447606D01*
X114606606Y-111760000D01*
X115371572Y-111760000D01*
X115360121Y-111764743D01*
G36*
X132969000Y-114357628D02*
G01*
X132969000Y-118438394D01*
X132789394Y-118618000D01*
X131624606Y-118618000D01*
X131445000Y-118438394D01*
X131445000Y-116078000D01*
X131442560Y-116053224D01*
X131435333Y-116029399D01*
X131423597Y-116007443D01*
X131407803Y-115988197D01*
X129248803Y-113829197D01*
X129229557Y-113813403D01*
X129207601Y-113801667D01*
X129183776Y-113794440D01*
X129159000Y-113792000D01*
X125730000Y-113792000D01*
X125730000Y-111760000D01*
X130000282Y-111760000D01*
X132969000Y-114357628D01*
G37*
X132969000Y-114357628D02*
X132969000Y-118438394D01*
X132789394Y-118618000D01*
X131624606Y-118618000D01*
X131445000Y-118438394D01*
X131445000Y-116078000D01*
X131442560Y-116053224D01*
X131435333Y-116029399D01*
X131423597Y-116007443D01*
X131407803Y-115988197D01*
X129248803Y-113829197D01*
X129229557Y-113813403D01*
X129207601Y-113801667D01*
X129183776Y-113794440D01*
X129159000Y-113792000D01*
X125730000Y-113792000D01*
X125730000Y-111760000D01*
X130000282Y-111760000D01*
X132969000Y-114357628D01*
G36*
X136398000Y-107875606D02*
G01*
X136398000Y-108127800D01*
X136327953Y-108127800D01*
X136190551Y-108155131D01*
X136061121Y-108208743D01*
X135944637Y-108286575D01*
X135845575Y-108385637D01*
X135767743Y-108502121D01*
X135714131Y-108631551D01*
X135686800Y-108768953D01*
X135686800Y-108909047D01*
X135714131Y-109046449D01*
X135767743Y-109175879D01*
X135845575Y-109292363D01*
X135944637Y-109391425D01*
X136061121Y-109469257D01*
X136190551Y-109522869D01*
X136327953Y-109550200D01*
X136398000Y-109550200D01*
X136398000Y-115493800D01*
X136327953Y-115493800D01*
X136190551Y-115521131D01*
X136061121Y-115574743D01*
X135944637Y-115652575D01*
X135845575Y-115751637D01*
X135767743Y-115868121D01*
X135714131Y-115997551D01*
X135686800Y-116134953D01*
X135686800Y-116275047D01*
X135714131Y-116412449D01*
X135767743Y-116541879D01*
X135845575Y-116658363D01*
X135944637Y-116757425D01*
X136061121Y-116835257D01*
X136190551Y-116888869D01*
X136327953Y-116916200D01*
X136398000Y-116916200D01*
X136398000Y-119414226D01*
X136353875Y-119384743D01*
X136224445Y-119331131D01*
X136087043Y-119303800D01*
X135946949Y-119303800D01*
X135809547Y-119331131D01*
X135680117Y-119384743D01*
X135563633Y-119462575D01*
X135464571Y-119561637D01*
X135386739Y-119678121D01*
X135333127Y-119807551D01*
X135305796Y-119944953D01*
X135305796Y-120085047D01*
X135333127Y-120222449D01*
X135386739Y-120351879D01*
X135464571Y-120468363D01*
X135563633Y-120567425D01*
X135680117Y-120645257D01*
X135809547Y-120698869D01*
X135946949Y-120726200D01*
X136087043Y-120726200D01*
X136224445Y-120698869D01*
X136353875Y-120645257D01*
X136398000Y-120615774D01*
X136398000Y-120973372D01*
X134445282Y-122682000D01*
X128905000Y-122682000D01*
X128880224Y-122684440D01*
X128856399Y-122691667D01*
X128834443Y-122703403D01*
X128815197Y-122719197D01*
X128087152Y-123447242D01*
X127013889Y-123514321D01*
X127013889Y-122340000D01*
X127005552Y-122255352D01*
X126980861Y-122173958D01*
X126940766Y-122098944D01*
X126886806Y-122033194D01*
X126821056Y-121979234D01*
X126746042Y-121939139D01*
X126664648Y-121914448D01*
X126580000Y-121906111D01*
X126238000Y-121906111D01*
X126238000Y-119286989D01*
X126337160Y-119245916D01*
X126547100Y-119105639D01*
X126725639Y-118927100D01*
X126865916Y-118717160D01*
X126962541Y-118483887D01*
X127011800Y-118236246D01*
X127011800Y-117983754D01*
X126962541Y-117736113D01*
X126865916Y-117502840D01*
X126725639Y-117292900D01*
X126547100Y-117114361D01*
X126337160Y-116974084D01*
X126238000Y-116933011D01*
X126238000Y-114935000D01*
X128982345Y-114935000D01*
X130556000Y-116387605D01*
X130556000Y-118745000D01*
X130558440Y-118769776D01*
X130565667Y-118793601D01*
X130577403Y-118815557D01*
X130593197Y-118834803D01*
X131228197Y-119469803D01*
X131247443Y-119485597D01*
X131269399Y-119497333D01*
X131293224Y-119504560D01*
X131318000Y-119507000D01*
X132725212Y-119507000D01*
X132670575Y-119561637D01*
X132592743Y-119678121D01*
X132539131Y-119807551D01*
X132511800Y-119944953D01*
X132511800Y-120085047D01*
X132539131Y-120222449D01*
X132592743Y-120351879D01*
X132670575Y-120468363D01*
X132769637Y-120567425D01*
X132886121Y-120645257D01*
X133015551Y-120698869D01*
X133152953Y-120726200D01*
X133293047Y-120726200D01*
X133430449Y-120698869D01*
X133559879Y-120645257D01*
X133676363Y-120567425D01*
X133775425Y-120468363D01*
X133853257Y-120351879D01*
X133906869Y-120222449D01*
X133934200Y-120085047D01*
X133934200Y-119944953D01*
X133906869Y-119807551D01*
X133853257Y-119678121D01*
X133775425Y-119561637D01*
X133676363Y-119462575D01*
X133559879Y-119384743D01*
X133535119Y-119374487D01*
X133693803Y-119215803D01*
X133709597Y-119196557D01*
X133721333Y-119174601D01*
X133728560Y-119150776D01*
X133731000Y-119126000D01*
X133731000Y-118420953D01*
X134289800Y-118420953D01*
X134289800Y-118561047D01*
X134317131Y-118698449D01*
X134370743Y-118827879D01*
X134448575Y-118944363D01*
X134547637Y-119043425D01*
X134664121Y-119121257D01*
X134793551Y-119174869D01*
X134930953Y-119202200D01*
X135071047Y-119202200D01*
X135208449Y-119174869D01*
X135337879Y-119121257D01*
X135454363Y-119043425D01*
X135553425Y-118944363D01*
X135631257Y-118827879D01*
X135684869Y-118698449D01*
X135712200Y-118561047D01*
X135712200Y-118420953D01*
X135684869Y-118283551D01*
X135631257Y-118154121D01*
X135553425Y-118037637D01*
X135454363Y-117938575D01*
X135337879Y-117860743D01*
X135208449Y-117807131D01*
X135071047Y-117779800D01*
X134930953Y-117779800D01*
X134793551Y-117807131D01*
X134664121Y-117860743D01*
X134547637Y-117938575D01*
X134448575Y-118037637D01*
X134370743Y-118154121D01*
X134317131Y-118283551D01*
X134289800Y-118420953D01*
X133731000Y-118420953D01*
X133731000Y-113792000D01*
X133728560Y-113767224D01*
X133721333Y-113743399D01*
X133709597Y-113721443D01*
X133688147Y-113696877D01*
X130386147Y-110775877D01*
X130365973Y-110761289D01*
X130343340Y-110750917D01*
X130319118Y-110745159D01*
X130302000Y-110744000D01*
X125655606Y-110744000D01*
X125222000Y-110310394D01*
X125222000Y-107503039D01*
X125774549Y-107061000D01*
X135583394Y-107061000D01*
X136398000Y-107875606D01*
G37*
X136398000Y-107875606D02*
X136398000Y-108127800D01*
X136327953Y-108127800D01*
X136190551Y-108155131D01*
X136061121Y-108208743D01*
X135944637Y-108286575D01*
X135845575Y-108385637D01*
X135767743Y-108502121D01*
X135714131Y-108631551D01*
X135686800Y-108768953D01*
X135686800Y-108909047D01*
X135714131Y-109046449D01*
X135767743Y-109175879D01*
X135845575Y-109292363D01*
X135944637Y-109391425D01*
X136061121Y-109469257D01*
X136190551Y-109522869D01*
X136327953Y-109550200D01*
X136398000Y-109550200D01*
X136398000Y-115493800D01*
X136327953Y-115493800D01*
X136190551Y-115521131D01*
X136061121Y-115574743D01*
X135944637Y-115652575D01*
X135845575Y-115751637D01*
X135767743Y-115868121D01*
X135714131Y-115997551D01*
X135686800Y-116134953D01*
X135686800Y-116275047D01*
X135714131Y-116412449D01*
X135767743Y-116541879D01*
X135845575Y-116658363D01*
X135944637Y-116757425D01*
X136061121Y-116835257D01*
X136190551Y-116888869D01*
X136327953Y-116916200D01*
X136398000Y-116916200D01*
X136398000Y-119414226D01*
X136353875Y-119384743D01*
X136224445Y-119331131D01*
X136087043Y-119303800D01*
X135946949Y-119303800D01*
X135809547Y-119331131D01*
X135680117Y-119384743D01*
X135563633Y-119462575D01*
X135464571Y-119561637D01*
X135386739Y-119678121D01*
X135333127Y-119807551D01*
X135305796Y-119944953D01*
X135305796Y-120085047D01*
X135333127Y-120222449D01*
X135386739Y-120351879D01*
X135464571Y-120468363D01*
X135563633Y-120567425D01*
X135680117Y-120645257D01*
X135809547Y-120698869D01*
X135946949Y-120726200D01*
X136087043Y-120726200D01*
X136224445Y-120698869D01*
X136353875Y-120645257D01*
X136398000Y-120615774D01*
X136398000Y-120973372D01*
X134445282Y-122682000D01*
X128905000Y-122682000D01*
X128880224Y-122684440D01*
X128856399Y-122691667D01*
X128834443Y-122703403D01*
X128815197Y-122719197D01*
X128087152Y-123447242D01*
X127013889Y-123514321D01*
X127013889Y-122340000D01*
X127005552Y-122255352D01*
X126980861Y-122173958D01*
X126940766Y-122098944D01*
X126886806Y-122033194D01*
X126821056Y-121979234D01*
X126746042Y-121939139D01*
X126664648Y-121914448D01*
X126580000Y-121906111D01*
X126238000Y-121906111D01*
X126238000Y-119286989D01*
X126337160Y-119245916D01*
X126547100Y-119105639D01*
X126725639Y-118927100D01*
X126865916Y-118717160D01*
X126962541Y-118483887D01*
X127011800Y-118236246D01*
X127011800Y-117983754D01*
X126962541Y-117736113D01*
X126865916Y-117502840D01*
X126725639Y-117292900D01*
X126547100Y-117114361D01*
X126337160Y-116974084D01*
X126238000Y-116933011D01*
X126238000Y-114935000D01*
X128982345Y-114935000D01*
X130556000Y-116387605D01*
X130556000Y-118745000D01*
X130558440Y-118769776D01*
X130565667Y-118793601D01*
X130577403Y-118815557D01*
X130593197Y-118834803D01*
X131228197Y-119469803D01*
X131247443Y-119485597D01*
X131269399Y-119497333D01*
X131293224Y-119504560D01*
X131318000Y-119507000D01*
X132725212Y-119507000D01*
X132670575Y-119561637D01*
X132592743Y-119678121D01*
X132539131Y-119807551D01*
X132511800Y-119944953D01*
X132511800Y-120085047D01*
X132539131Y-120222449D01*
X132592743Y-120351879D01*
X132670575Y-120468363D01*
X132769637Y-120567425D01*
X132886121Y-120645257D01*
X133015551Y-120698869D01*
X133152953Y-120726200D01*
X133293047Y-120726200D01*
X133430449Y-120698869D01*
X133559879Y-120645257D01*
X133676363Y-120567425D01*
X133775425Y-120468363D01*
X133853257Y-120351879D01*
X133906869Y-120222449D01*
X133934200Y-120085047D01*
X133934200Y-119944953D01*
X133906869Y-119807551D01*
X133853257Y-119678121D01*
X133775425Y-119561637D01*
X133676363Y-119462575D01*
X133559879Y-119384743D01*
X133535119Y-119374487D01*
X133693803Y-119215803D01*
X133709597Y-119196557D01*
X133721333Y-119174601D01*
X133728560Y-119150776D01*
X133731000Y-119126000D01*
X133731000Y-118420953D01*
X134289800Y-118420953D01*
X134289800Y-118561047D01*
X134317131Y-118698449D01*
X134370743Y-118827879D01*
X134448575Y-118944363D01*
X134547637Y-119043425D01*
X134664121Y-119121257D01*
X134793551Y-119174869D01*
X134930953Y-119202200D01*
X135071047Y-119202200D01*
X135208449Y-119174869D01*
X135337879Y-119121257D01*
X135454363Y-119043425D01*
X135553425Y-118944363D01*
X135631257Y-118827879D01*
X135684869Y-118698449D01*
X135712200Y-118561047D01*
X135712200Y-118420953D01*
X135684869Y-118283551D01*
X135631257Y-118154121D01*
X135553425Y-118037637D01*
X135454363Y-117938575D01*
X135337879Y-117860743D01*
X135208449Y-117807131D01*
X135071047Y-117779800D01*
X134930953Y-117779800D01*
X134793551Y-117807131D01*
X134664121Y-117860743D01*
X134547637Y-117938575D01*
X134448575Y-118037637D01*
X134370743Y-118154121D01*
X134317131Y-118283551D01*
X134289800Y-118420953D01*
X133731000Y-118420953D01*
X133731000Y-113792000D01*
X133728560Y-113767224D01*
X133721333Y-113743399D01*
X133709597Y-113721443D01*
X133688147Y-113696877D01*
X130386147Y-110775877D01*
X130365973Y-110761289D01*
X130343340Y-110750917D01*
X130319118Y-110745159D01*
X130302000Y-110744000D01*
X125655606Y-110744000D01*
X125222000Y-110310394D01*
X125222000Y-107503039D01*
X125774549Y-107061000D01*
X135583394Y-107061000D01*
X136398000Y-107875606D01*
G36*
X150495000Y-107880628D02*
G01*
X150495000Y-108111224D01*
X150450879Y-108081743D01*
X150321449Y-108028131D01*
X150184047Y-108000800D01*
X150043953Y-108000800D01*
X149906551Y-108028131D01*
X149777121Y-108081743D01*
X149660637Y-108159575D01*
X149561575Y-108258637D01*
X149483743Y-108375121D01*
X149479000Y-108386572D01*
X149474257Y-108375121D01*
X149396425Y-108258637D01*
X149297363Y-108159575D01*
X149180879Y-108081743D01*
X149051449Y-108028131D01*
X148914047Y-108000800D01*
X148773953Y-108000800D01*
X148636551Y-108028131D01*
X148507121Y-108081743D01*
X148390637Y-108159575D01*
X148291575Y-108258637D01*
X148213743Y-108375121D01*
X148160131Y-108504551D01*
X148132800Y-108641953D01*
X148132800Y-108782047D01*
X148160131Y-108919449D01*
X148213743Y-109048879D01*
X148291575Y-109165363D01*
X148390637Y-109264425D01*
X148507121Y-109342257D01*
X148518572Y-109347000D01*
X148507121Y-109351743D01*
X148390637Y-109429575D01*
X148291575Y-109528637D01*
X148213743Y-109645121D01*
X148160131Y-109774551D01*
X148132800Y-109911953D01*
X148132800Y-110052047D01*
X148160131Y-110189449D01*
X148213743Y-110318879D01*
X148291575Y-110435363D01*
X148390637Y-110534425D01*
X148507121Y-110612257D01*
X148636551Y-110665869D01*
X148773953Y-110693200D01*
X148914047Y-110693200D01*
X149051449Y-110665869D01*
X149180879Y-110612257D01*
X149297363Y-110534425D01*
X149396425Y-110435363D01*
X149474257Y-110318879D01*
X149479000Y-110307428D01*
X149483743Y-110318879D01*
X149561575Y-110435363D01*
X149660637Y-110534425D01*
X149777121Y-110612257D01*
X149906551Y-110665869D01*
X150043953Y-110693200D01*
X150184047Y-110693200D01*
X150321449Y-110665869D01*
X150450879Y-110612257D01*
X150495000Y-110582776D01*
X150495000Y-111286224D01*
X150450879Y-111256743D01*
X150321449Y-111203131D01*
X150184047Y-111175800D01*
X150043953Y-111175800D01*
X149906551Y-111203131D01*
X149777121Y-111256743D01*
X149660637Y-111334575D01*
X149561575Y-111433637D01*
X149483743Y-111550121D01*
X149479000Y-111561572D01*
X149474257Y-111550121D01*
X149396425Y-111433637D01*
X149297363Y-111334575D01*
X149180879Y-111256743D01*
X149051449Y-111203131D01*
X148914047Y-111175800D01*
X148773953Y-111175800D01*
X148636551Y-111203131D01*
X148507121Y-111256743D01*
X148390637Y-111334575D01*
X148291575Y-111433637D01*
X148213743Y-111550121D01*
X148160131Y-111679551D01*
X148132800Y-111816953D01*
X148132800Y-111957047D01*
X148160131Y-112094449D01*
X148213743Y-112223879D01*
X148291575Y-112340363D01*
X148390637Y-112439425D01*
X148507121Y-112517257D01*
X148518572Y-112522000D01*
X148507121Y-112526743D01*
X148390637Y-112604575D01*
X148291575Y-112703637D01*
X148213743Y-112820121D01*
X148160131Y-112949551D01*
X148132800Y-113086953D01*
X148132800Y-113227047D01*
X148160131Y-113364449D01*
X148213743Y-113493879D01*
X148291575Y-113610363D01*
X148390637Y-113709425D01*
X148507121Y-113787257D01*
X148636551Y-113840869D01*
X148773953Y-113868200D01*
X148914047Y-113868200D01*
X149051449Y-113840869D01*
X149180879Y-113787257D01*
X149297363Y-113709425D01*
X149396425Y-113610363D01*
X149474257Y-113493879D01*
X149479000Y-113482428D01*
X149483743Y-113493879D01*
X149561575Y-113610363D01*
X149660637Y-113709425D01*
X149777121Y-113787257D01*
X149906551Y-113840869D01*
X150043953Y-113868200D01*
X150184047Y-113868200D01*
X150321449Y-113840869D01*
X150450879Y-113787257D01*
X150495000Y-113757776D01*
X150495000Y-131191000D01*
X129032000Y-131191000D01*
X129032000Y-124880000D01*
X129526111Y-124880000D01*
X129526111Y-126580000D01*
X129534448Y-126664648D01*
X129559139Y-126746042D01*
X129599234Y-126821056D01*
X129653194Y-126886806D01*
X129718944Y-126940766D01*
X129793958Y-126980861D01*
X129857050Y-127000000D01*
X129793958Y-127019139D01*
X129718944Y-127059234D01*
X129653194Y-127113194D01*
X129599234Y-127178944D01*
X129559139Y-127253958D01*
X129534448Y-127335352D01*
X129526111Y-127420000D01*
X129526111Y-129120000D01*
X129534448Y-129204648D01*
X129559139Y-129286042D01*
X129599234Y-129361056D01*
X129653194Y-129426806D01*
X129718944Y-129480766D01*
X129793958Y-129520861D01*
X129875352Y-129545552D01*
X129960000Y-129553889D01*
X131660000Y-129553889D01*
X131744648Y-129545552D01*
X131826042Y-129520861D01*
X131901056Y-129480766D01*
X131966806Y-129426806D01*
X132020766Y-129361056D01*
X132060861Y-129286042D01*
X132085552Y-129204648D01*
X132093889Y-129120000D01*
X132093889Y-128525393D01*
X132117459Y-128643887D01*
X132214084Y-128877160D01*
X132354361Y-129087100D01*
X132532900Y-129265639D01*
X132742840Y-129405916D01*
X132976113Y-129502541D01*
X133223754Y-129551800D01*
X133476246Y-129551800D01*
X133723887Y-129502541D01*
X133957160Y-129405916D01*
X134167100Y-129265639D01*
X134345639Y-129087100D01*
X134485916Y-128877160D01*
X134582541Y-128643887D01*
X134620000Y-128455568D01*
X134657459Y-128643887D01*
X134754084Y-128877160D01*
X134894361Y-129087100D01*
X135072900Y-129265639D01*
X135282840Y-129405916D01*
X135516113Y-129502541D01*
X135763754Y-129551800D01*
X136016246Y-129551800D01*
X136263887Y-129502541D01*
X136497160Y-129405916D01*
X136707100Y-129265639D01*
X136885639Y-129087100D01*
X137025916Y-128877160D01*
X137122541Y-128643887D01*
X137160000Y-128455568D01*
X137197459Y-128643887D01*
X137294084Y-128877160D01*
X137434361Y-129087100D01*
X137612900Y-129265639D01*
X137822840Y-129405916D01*
X138056113Y-129502541D01*
X138303754Y-129551800D01*
X138556246Y-129551800D01*
X138803887Y-129502541D01*
X139037160Y-129405916D01*
X139247100Y-129265639D01*
X139425639Y-129087100D01*
X139565916Y-128877160D01*
X139662541Y-128643887D01*
X139700000Y-128455568D01*
X139737459Y-128643887D01*
X139834084Y-128877160D01*
X139974361Y-129087100D01*
X140152900Y-129265639D01*
X140362840Y-129405916D01*
X140596113Y-129502541D01*
X140843754Y-129551800D01*
X141096246Y-129551800D01*
X141343887Y-129502541D01*
X141577160Y-129405916D01*
X141787100Y-129265639D01*
X141965639Y-129087100D01*
X142105916Y-128877160D01*
X142202541Y-128643887D01*
X142240000Y-128455568D01*
X142277459Y-128643887D01*
X142374084Y-128877160D01*
X142514361Y-129087100D01*
X142692900Y-129265639D01*
X142902840Y-129405916D01*
X143136113Y-129502541D01*
X143383754Y-129551800D01*
X143636246Y-129551800D01*
X143883887Y-129502541D01*
X144117160Y-129405916D01*
X144159032Y-129377938D01*
X146944562Y-129377938D01*
X146944562Y-129702062D01*
X147007795Y-130019957D01*
X147131831Y-130319407D01*
X147311905Y-130588906D01*
X147541094Y-130818095D01*
X147810593Y-130998169D01*
X148110043Y-131122205D01*
X148427938Y-131185438D01*
X148752062Y-131185438D01*
X149069957Y-131122205D01*
X149369407Y-130998169D01*
X149638906Y-130818095D01*
X149868095Y-130588906D01*
X150048169Y-130319407D01*
X150172205Y-130019957D01*
X150235438Y-129702062D01*
X150235438Y-129377938D01*
X150172205Y-129060043D01*
X150048169Y-128760593D01*
X149868095Y-128491094D01*
X149638906Y-128261905D01*
X149369407Y-128081831D01*
X149069957Y-127957795D01*
X148752062Y-127894562D01*
X148427938Y-127894562D01*
X148110043Y-127957795D01*
X147810593Y-128081831D01*
X147541094Y-128261905D01*
X147311905Y-128491094D01*
X147131831Y-128760593D01*
X147007795Y-129060043D01*
X146944562Y-129377938D01*
X144159032Y-129377938D01*
X144327100Y-129265639D01*
X144505639Y-129087100D01*
X144645916Y-128877160D01*
X144742541Y-128643887D01*
X144791800Y-128396246D01*
X144791800Y-128143754D01*
X144742541Y-127896113D01*
X144645916Y-127662840D01*
X144505639Y-127452900D01*
X144327100Y-127274361D01*
X144117160Y-127134084D01*
X143883887Y-127037459D01*
X143695568Y-127000000D01*
X143883887Y-126962541D01*
X144117160Y-126865916D01*
X144327100Y-126725639D01*
X144505639Y-126547100D01*
X144645916Y-126337160D01*
X144742541Y-126103887D01*
X144791800Y-125856246D01*
X144791800Y-125603754D01*
X144742541Y-125356113D01*
X144645916Y-125122840D01*
X144505639Y-124912900D01*
X144327100Y-124734361D01*
X144117160Y-124594084D01*
X143883887Y-124497459D01*
X143636246Y-124448200D01*
X143383754Y-124448200D01*
X143136113Y-124497459D01*
X142902840Y-124594084D01*
X142692900Y-124734361D01*
X142514361Y-124912900D01*
X142374084Y-125122840D01*
X142277459Y-125356113D01*
X142240000Y-125544432D01*
X142202541Y-125356113D01*
X142105916Y-125122840D01*
X141965639Y-124912900D01*
X141787100Y-124734361D01*
X141577160Y-124594084D01*
X141343887Y-124497459D01*
X141096246Y-124448200D01*
X140843754Y-124448200D01*
X140596113Y-124497459D01*
X140362840Y-124594084D01*
X140152900Y-124734361D01*
X139974361Y-124912900D01*
X139834084Y-125122840D01*
X139737459Y-125356113D01*
X139700000Y-125544432D01*
X139662541Y-125356113D01*
X139565916Y-125122840D01*
X139425639Y-124912900D01*
X139247100Y-124734361D01*
X139037160Y-124594084D01*
X138803887Y-124497459D01*
X138556246Y-124448200D01*
X138303754Y-124448200D01*
X138056113Y-124497459D01*
X137822840Y-124594084D01*
X137612900Y-124734361D01*
X137434361Y-124912900D01*
X137294084Y-125122840D01*
X137197459Y-125356113D01*
X137160000Y-125544432D01*
X137122541Y-125356113D01*
X137025916Y-125122840D01*
X136885639Y-124912900D01*
X136707100Y-124734361D01*
X136497160Y-124594084D01*
X136263887Y-124497459D01*
X136016246Y-124448200D01*
X135763754Y-124448200D01*
X135516113Y-124497459D01*
X135282840Y-124594084D01*
X135072900Y-124734361D01*
X134894361Y-124912900D01*
X134754084Y-125122840D01*
X134657459Y-125356113D01*
X134620000Y-125544432D01*
X134582541Y-125356113D01*
X134485916Y-125122840D01*
X134345639Y-124912900D01*
X134167100Y-124734361D01*
X133957160Y-124594084D01*
X133723887Y-124497459D01*
X133476246Y-124448200D01*
X133223754Y-124448200D01*
X132976113Y-124497459D01*
X132742840Y-124594084D01*
X132532900Y-124734361D01*
X132354361Y-124912900D01*
X132214084Y-125122840D01*
X132117459Y-125356113D01*
X132093889Y-125474607D01*
X132093889Y-124880000D01*
X132085552Y-124795352D01*
X132060861Y-124713958D01*
X132020766Y-124638944D01*
X131966806Y-124573194D01*
X131901056Y-124519234D01*
X131826042Y-124479139D01*
X131744648Y-124454448D01*
X131660000Y-124446111D01*
X129960000Y-124446111D01*
X129875352Y-124454448D01*
X129793958Y-124479139D01*
X129718944Y-124519234D01*
X129653194Y-124573194D01*
X129599234Y-124638944D01*
X129559139Y-124713958D01*
X129534448Y-124795352D01*
X129526111Y-124880000D01*
X129032000Y-124880000D01*
X129032000Y-124131606D01*
X129338606Y-123825000D01*
X135128000Y-123825000D01*
X135152776Y-123822560D01*
X135176601Y-123815333D01*
X135198557Y-123803597D01*
X135212374Y-123792921D01*
X137498374Y-121760921D01*
X137515271Y-121742637D01*
X137528276Y-121721407D01*
X137536890Y-121698048D01*
X137541000Y-121666000D01*
X137541000Y-120615776D01*
X137613363Y-120567425D01*
X137712425Y-120468363D01*
X137722721Y-120452953D01*
X139877800Y-120452953D01*
X139877800Y-120593047D01*
X139905131Y-120730449D01*
X139958743Y-120859879D01*
X140036575Y-120976363D01*
X140135637Y-121075425D01*
X140252121Y-121153257D01*
X140381551Y-121206869D01*
X140518953Y-121234200D01*
X140659047Y-121234200D01*
X140796449Y-121206869D01*
X140925879Y-121153257D01*
X141042363Y-121075425D01*
X141141425Y-120976363D01*
X141219257Y-120859879D01*
X141272869Y-120730449D01*
X141300200Y-120593047D01*
X141300200Y-120452953D01*
X141272869Y-120315551D01*
X141219257Y-120186121D01*
X141141425Y-120069637D01*
X141042363Y-119970575D01*
X140925879Y-119892743D01*
X140796449Y-119839131D01*
X140659047Y-119811800D01*
X140518953Y-119811800D01*
X140381551Y-119839131D01*
X140252121Y-119892743D01*
X140135637Y-119970575D01*
X140036575Y-120069637D01*
X139958743Y-120186121D01*
X139905131Y-120315551D01*
X139877800Y-120452953D01*
X137722721Y-120452953D01*
X137790257Y-120351879D01*
X137843869Y-120222449D01*
X137871200Y-120085047D01*
X137871200Y-119944953D01*
X137843869Y-119807551D01*
X137790257Y-119678121D01*
X137726833Y-119583200D01*
X137865047Y-119583200D01*
X138002449Y-119555869D01*
X138131879Y-119502257D01*
X138248363Y-119424425D01*
X138347425Y-119325363D01*
X138425257Y-119208879D01*
X138478869Y-119079449D01*
X138506200Y-118942047D01*
X138506200Y-118801953D01*
X138478869Y-118664551D01*
X138425257Y-118535121D01*
X138347425Y-118418637D01*
X138248363Y-118319575D01*
X138131879Y-118241743D01*
X138002449Y-118188131D01*
X137865047Y-118160800D01*
X137724953Y-118160800D01*
X137587551Y-118188131D01*
X137541000Y-118207413D01*
X137541000Y-117150953D01*
X137845800Y-117150953D01*
X137845800Y-117291047D01*
X137873131Y-117428449D01*
X137926743Y-117557879D01*
X138004575Y-117674363D01*
X138103637Y-117773425D01*
X138220121Y-117851257D01*
X138349551Y-117904869D01*
X138486953Y-117932200D01*
X138627047Y-117932200D01*
X138764449Y-117904869D01*
X138893879Y-117851257D01*
X139010363Y-117773425D01*
X139109425Y-117674363D01*
X139187257Y-117557879D01*
X139240869Y-117428449D01*
X139268200Y-117291047D01*
X139268200Y-117150953D01*
X139240869Y-117013551D01*
X139187257Y-116884121D01*
X139109425Y-116767637D01*
X139010363Y-116668575D01*
X138893879Y-116590743D01*
X138764449Y-116537131D01*
X138627047Y-116509800D01*
X138486953Y-116509800D01*
X138349551Y-116537131D01*
X138220121Y-116590743D01*
X138103637Y-116668575D01*
X138004575Y-116767637D01*
X137926743Y-116884121D01*
X137873131Y-117013551D01*
X137845800Y-117150953D01*
X137541000Y-117150953D01*
X137541000Y-116134953D01*
X139496800Y-116134953D01*
X139496800Y-116275047D01*
X139524131Y-116412449D01*
X139577743Y-116541879D01*
X139655575Y-116658363D01*
X139754637Y-116757425D01*
X139871121Y-116835257D01*
X140000551Y-116888869D01*
X140137953Y-116916200D01*
X140278047Y-116916200D01*
X140415449Y-116888869D01*
X140544879Y-116835257D01*
X140661363Y-116757425D01*
X140760425Y-116658363D01*
X140838257Y-116541879D01*
X140891869Y-116412449D01*
X140919200Y-116275047D01*
X140919200Y-116134953D01*
X140891869Y-115997551D01*
X140838257Y-115868121D01*
X140760425Y-115751637D01*
X140661363Y-115652575D01*
X140544879Y-115574743D01*
X140415449Y-115521131D01*
X140278047Y-115493800D01*
X140137953Y-115493800D01*
X140000551Y-115521131D01*
X139871121Y-115574743D01*
X139754637Y-115652575D01*
X139655575Y-115751637D01*
X139577743Y-115868121D01*
X139524131Y-115997551D01*
X139496800Y-116134953D01*
X137541000Y-116134953D01*
X137541000Y-115245953D01*
X147751800Y-115245953D01*
X147751800Y-115386047D01*
X147779131Y-115523449D01*
X147832743Y-115652879D01*
X147910575Y-115769363D01*
X148009637Y-115868425D01*
X148126121Y-115946257D01*
X148255551Y-115999869D01*
X148392953Y-116027200D01*
X148533047Y-116027200D01*
X148670449Y-115999869D01*
X148799879Y-115946257D01*
X148916363Y-115868425D01*
X149015425Y-115769363D01*
X149034500Y-115740815D01*
X149053575Y-115769363D01*
X149152637Y-115868425D01*
X149269121Y-115946257D01*
X149398551Y-115999869D01*
X149535953Y-116027200D01*
X149676047Y-116027200D01*
X149813449Y-115999869D01*
X149942879Y-115946257D01*
X150059363Y-115868425D01*
X150158425Y-115769363D01*
X150236257Y-115652879D01*
X150289869Y-115523449D01*
X150317200Y-115386047D01*
X150317200Y-115245953D01*
X150289869Y-115108551D01*
X150236257Y-114979121D01*
X150158425Y-114862637D01*
X150059363Y-114763575D01*
X149942879Y-114685743D01*
X149813449Y-114632131D01*
X149676047Y-114604800D01*
X149535953Y-114604800D01*
X149398551Y-114632131D01*
X149269121Y-114685743D01*
X149152637Y-114763575D01*
X149053575Y-114862637D01*
X149034500Y-114891185D01*
X149015425Y-114862637D01*
X148916363Y-114763575D01*
X148799879Y-114685743D01*
X148670449Y-114632131D01*
X148533047Y-114604800D01*
X148392953Y-114604800D01*
X148255551Y-114632131D01*
X148126121Y-114685743D01*
X148009637Y-114763575D01*
X147910575Y-114862637D01*
X147832743Y-114979121D01*
X147779131Y-115108551D01*
X147751800Y-115245953D01*
X137541000Y-115245953D01*
X137541000Y-111435953D01*
X142544800Y-111435953D01*
X142544800Y-111576047D01*
X142572131Y-111713449D01*
X142625743Y-111842879D01*
X142703575Y-111959363D01*
X142802637Y-112058425D01*
X142919121Y-112136257D01*
X143048551Y-112189869D01*
X143185953Y-112217200D01*
X143326047Y-112217200D01*
X143463449Y-112189869D01*
X143592879Y-112136257D01*
X143709363Y-112058425D01*
X143808425Y-111959363D01*
X143886257Y-111842879D01*
X143939869Y-111713449D01*
X143967200Y-111576047D01*
X143967200Y-111435953D01*
X143939869Y-111298551D01*
X143886257Y-111169121D01*
X143808425Y-111052637D01*
X143709363Y-110953575D01*
X143592879Y-110875743D01*
X143463449Y-110822131D01*
X143326047Y-110794800D01*
X143185953Y-110794800D01*
X143048551Y-110822131D01*
X142919121Y-110875743D01*
X142802637Y-110953575D01*
X142703575Y-111052637D01*
X142625743Y-111169121D01*
X142572131Y-111298551D01*
X142544800Y-111435953D01*
X137541000Y-111435953D01*
X137541000Y-109911953D01*
X142544800Y-109911953D01*
X142544800Y-110052047D01*
X142572131Y-110189449D01*
X142625743Y-110318879D01*
X142703575Y-110435363D01*
X142802637Y-110534425D01*
X142919121Y-110612257D01*
X143048551Y-110665869D01*
X143185953Y-110693200D01*
X143326047Y-110693200D01*
X143463449Y-110665869D01*
X143592879Y-110612257D01*
X143709363Y-110534425D01*
X143808425Y-110435363D01*
X143886257Y-110318879D01*
X143939869Y-110189449D01*
X143967200Y-110052047D01*
X143967200Y-109911953D01*
X143939869Y-109774551D01*
X143886257Y-109645121D01*
X143808425Y-109528637D01*
X143709363Y-109429575D01*
X143592879Y-109351743D01*
X143463449Y-109298131D01*
X143326047Y-109270800D01*
X143185953Y-109270800D01*
X143048551Y-109298131D01*
X142919121Y-109351743D01*
X142802637Y-109429575D01*
X142703575Y-109528637D01*
X142625743Y-109645121D01*
X142572131Y-109774551D01*
X142544800Y-109911953D01*
X137541000Y-109911953D01*
X137541000Y-107875606D01*
X137663659Y-107752947D01*
X138480800Y-107752947D01*
X138480800Y-107893041D01*
X138508131Y-108030443D01*
X138561743Y-108159873D01*
X138639575Y-108276357D01*
X138738637Y-108375419D01*
X138855121Y-108453251D01*
X138984551Y-108506863D01*
X139121953Y-108534194D01*
X139262047Y-108534194D01*
X139399449Y-108506863D01*
X139528879Y-108453251D01*
X139645363Y-108375419D01*
X139744425Y-108276357D01*
X139822257Y-108159873D01*
X139875869Y-108030443D01*
X139903200Y-107893041D01*
X139903200Y-107752947D01*
X139875869Y-107615545D01*
X139822257Y-107486115D01*
X139744425Y-107369631D01*
X139645363Y-107270569D01*
X139528879Y-107192737D01*
X139399449Y-107139125D01*
X139262047Y-107111794D01*
X139121953Y-107111794D01*
X138984551Y-107139125D01*
X138855121Y-107192737D01*
X138738637Y-107270569D01*
X138639575Y-107369631D01*
X138561743Y-107486115D01*
X138508131Y-107615545D01*
X138480800Y-107752947D01*
X137663659Y-107752947D01*
X138355606Y-107061000D01*
X149558282Y-107061000D01*
X150495000Y-107880628D01*
G37*
X150495000Y-107880628D02*
X150495000Y-108111224D01*
X150450879Y-108081743D01*
X150321449Y-108028131D01*
X150184047Y-108000800D01*
X150043953Y-108000800D01*
X149906551Y-108028131D01*
X149777121Y-108081743D01*
X149660637Y-108159575D01*
X149561575Y-108258637D01*
X149483743Y-108375121D01*
X149479000Y-108386572D01*
X149474257Y-108375121D01*
X149396425Y-108258637D01*
X149297363Y-108159575D01*
X149180879Y-108081743D01*
X149051449Y-108028131D01*
X148914047Y-108000800D01*
X148773953Y-108000800D01*
X148636551Y-108028131D01*
X148507121Y-108081743D01*
X148390637Y-108159575D01*
X148291575Y-108258637D01*
X148213743Y-108375121D01*
X148160131Y-108504551D01*
X148132800Y-108641953D01*
X148132800Y-108782047D01*
X148160131Y-108919449D01*
X148213743Y-109048879D01*
X148291575Y-109165363D01*
X148390637Y-109264425D01*
X148507121Y-109342257D01*
X148518572Y-109347000D01*
X148507121Y-109351743D01*
X148390637Y-109429575D01*
X148291575Y-109528637D01*
X148213743Y-109645121D01*
X148160131Y-109774551D01*
X148132800Y-109911953D01*
X148132800Y-110052047D01*
X148160131Y-110189449D01*
X148213743Y-110318879D01*
X148291575Y-110435363D01*
X148390637Y-110534425D01*
X148507121Y-110612257D01*
X148636551Y-110665869D01*
X148773953Y-110693200D01*
X148914047Y-110693200D01*
X149051449Y-110665869D01*
X149180879Y-110612257D01*
X149297363Y-110534425D01*
X149396425Y-110435363D01*
X149474257Y-110318879D01*
X149479000Y-110307428D01*
X149483743Y-110318879D01*
X149561575Y-110435363D01*
X149660637Y-110534425D01*
X149777121Y-110612257D01*
X149906551Y-110665869D01*
X150043953Y-110693200D01*
X150184047Y-110693200D01*
X150321449Y-110665869D01*
X150450879Y-110612257D01*
X150495000Y-110582776D01*
X150495000Y-111286224D01*
X150450879Y-111256743D01*
X150321449Y-111203131D01*
X150184047Y-111175800D01*
X150043953Y-111175800D01*
X149906551Y-111203131D01*
X149777121Y-111256743D01*
X149660637Y-111334575D01*
X149561575Y-111433637D01*
X149483743Y-111550121D01*
X149479000Y-111561572D01*
X149474257Y-111550121D01*
X149396425Y-111433637D01*
X149297363Y-111334575D01*
X149180879Y-111256743D01*
X149051449Y-111203131D01*
X148914047Y-111175800D01*
X148773953Y-111175800D01*
X148636551Y-111203131D01*
X148507121Y-111256743D01*
X148390637Y-111334575D01*
X148291575Y-111433637D01*
X148213743Y-111550121D01*
X148160131Y-111679551D01*
X148132800Y-111816953D01*
X148132800Y-111957047D01*
X148160131Y-112094449D01*
X148213743Y-112223879D01*
X148291575Y-112340363D01*
X148390637Y-112439425D01*
X148507121Y-112517257D01*
X148518572Y-112522000D01*
X148507121Y-112526743D01*
X148390637Y-112604575D01*
X148291575Y-112703637D01*
X148213743Y-112820121D01*
X148160131Y-112949551D01*
X148132800Y-113086953D01*
X148132800Y-113227047D01*
X148160131Y-113364449D01*
X148213743Y-113493879D01*
X148291575Y-113610363D01*
X148390637Y-113709425D01*
X148507121Y-113787257D01*
X148636551Y-113840869D01*
X148773953Y-113868200D01*
X148914047Y-113868200D01*
X149051449Y-113840869D01*
X149180879Y-113787257D01*
X149297363Y-113709425D01*
X149396425Y-113610363D01*
X149474257Y-113493879D01*
X149479000Y-113482428D01*
X149483743Y-113493879D01*
X149561575Y-113610363D01*
X149660637Y-113709425D01*
X149777121Y-113787257D01*
X149906551Y-113840869D01*
X150043953Y-113868200D01*
X150184047Y-113868200D01*
X150321449Y-113840869D01*
X150450879Y-113787257D01*
X150495000Y-113757776D01*
X150495000Y-131191000D01*
X129032000Y-131191000D01*
X129032000Y-124880000D01*
X129526111Y-124880000D01*
X129526111Y-126580000D01*
X129534448Y-126664648D01*
X129559139Y-126746042D01*
X129599234Y-126821056D01*
X129653194Y-126886806D01*
X129718944Y-126940766D01*
X129793958Y-126980861D01*
X129857050Y-127000000D01*
X129793958Y-127019139D01*
X129718944Y-127059234D01*
X129653194Y-127113194D01*
X129599234Y-127178944D01*
X129559139Y-127253958D01*
X129534448Y-127335352D01*
X129526111Y-127420000D01*
X129526111Y-129120000D01*
X129534448Y-129204648D01*
X129559139Y-129286042D01*
X129599234Y-129361056D01*
X129653194Y-129426806D01*
X129718944Y-129480766D01*
X129793958Y-129520861D01*
X129875352Y-129545552D01*
X129960000Y-129553889D01*
X131660000Y-129553889D01*
X131744648Y-129545552D01*
X131826042Y-129520861D01*
X131901056Y-129480766D01*
X131966806Y-129426806D01*
X132020766Y-129361056D01*
X132060861Y-129286042D01*
X132085552Y-129204648D01*
X132093889Y-129120000D01*
X132093889Y-128525393D01*
X132117459Y-128643887D01*
X132214084Y-128877160D01*
X132354361Y-129087100D01*
X132532900Y-129265639D01*
X132742840Y-129405916D01*
X132976113Y-129502541D01*
X133223754Y-129551800D01*
X133476246Y-129551800D01*
X133723887Y-129502541D01*
X133957160Y-129405916D01*
X134167100Y-129265639D01*
X134345639Y-129087100D01*
X134485916Y-128877160D01*
X134582541Y-128643887D01*
X134620000Y-128455568D01*
X134657459Y-128643887D01*
X134754084Y-128877160D01*
X134894361Y-129087100D01*
X135072900Y-129265639D01*
X135282840Y-129405916D01*
X135516113Y-129502541D01*
X135763754Y-129551800D01*
X136016246Y-129551800D01*
X136263887Y-129502541D01*
X136497160Y-129405916D01*
X136707100Y-129265639D01*
X136885639Y-129087100D01*
X137025916Y-128877160D01*
X137122541Y-128643887D01*
X137160000Y-128455568D01*
X137197459Y-128643887D01*
X137294084Y-128877160D01*
X137434361Y-129087100D01*
X137612900Y-129265639D01*
X137822840Y-129405916D01*
X138056113Y-129502541D01*
X138303754Y-129551800D01*
X138556246Y-129551800D01*
X138803887Y-129502541D01*
X139037160Y-129405916D01*
X139247100Y-129265639D01*
X139425639Y-129087100D01*
X139565916Y-128877160D01*
X139662541Y-128643887D01*
X139700000Y-128455568D01*
X139737459Y-128643887D01*
X139834084Y-128877160D01*
X139974361Y-129087100D01*
X140152900Y-129265639D01*
X140362840Y-129405916D01*
X140596113Y-129502541D01*
X140843754Y-129551800D01*
X141096246Y-129551800D01*
X141343887Y-129502541D01*
X141577160Y-129405916D01*
X141787100Y-129265639D01*
X141965639Y-129087100D01*
X142105916Y-128877160D01*
X142202541Y-128643887D01*
X142240000Y-128455568D01*
X142277459Y-128643887D01*
X142374084Y-128877160D01*
X142514361Y-129087100D01*
X142692900Y-129265639D01*
X142902840Y-129405916D01*
X143136113Y-129502541D01*
X143383754Y-129551800D01*
X143636246Y-129551800D01*
X143883887Y-129502541D01*
X144117160Y-129405916D01*
X144159032Y-129377938D01*
X146944562Y-129377938D01*
X146944562Y-129702062D01*
X147007795Y-130019957D01*
X147131831Y-130319407D01*
X147311905Y-130588906D01*
X147541094Y-130818095D01*
X147810593Y-130998169D01*
X148110043Y-131122205D01*
X148427938Y-131185438D01*
X148752062Y-131185438D01*
X149069957Y-131122205D01*
X149369407Y-130998169D01*
X149638906Y-130818095D01*
X149868095Y-130588906D01*
X150048169Y-130319407D01*
X150172205Y-130019957D01*
X150235438Y-129702062D01*
X150235438Y-129377938D01*
X150172205Y-129060043D01*
X150048169Y-128760593D01*
X149868095Y-128491094D01*
X149638906Y-128261905D01*
X149369407Y-128081831D01*
X149069957Y-127957795D01*
X148752062Y-127894562D01*
X148427938Y-127894562D01*
X148110043Y-127957795D01*
X147810593Y-128081831D01*
X147541094Y-128261905D01*
X147311905Y-128491094D01*
X147131831Y-128760593D01*
X147007795Y-129060043D01*
X146944562Y-129377938D01*
X144159032Y-129377938D01*
X144327100Y-129265639D01*
X144505639Y-129087100D01*
X144645916Y-128877160D01*
X144742541Y-128643887D01*
X144791800Y-128396246D01*
X144791800Y-128143754D01*
X144742541Y-127896113D01*
X144645916Y-127662840D01*
X144505639Y-127452900D01*
X144327100Y-127274361D01*
X144117160Y-127134084D01*
X143883887Y-127037459D01*
X143695568Y-127000000D01*
X143883887Y-126962541D01*
X144117160Y-126865916D01*
X144327100Y-126725639D01*
X144505639Y-126547100D01*
X144645916Y-126337160D01*
X144742541Y-126103887D01*
X144791800Y-125856246D01*
X144791800Y-125603754D01*
X144742541Y-125356113D01*
X144645916Y-125122840D01*
X144505639Y-124912900D01*
X144327100Y-124734361D01*
X144117160Y-124594084D01*
X143883887Y-124497459D01*
X143636246Y-124448200D01*
X143383754Y-124448200D01*
X143136113Y-124497459D01*
X142902840Y-124594084D01*
X142692900Y-124734361D01*
X142514361Y-124912900D01*
X142374084Y-125122840D01*
X142277459Y-125356113D01*
X142240000Y-125544432D01*
X142202541Y-125356113D01*
X142105916Y-125122840D01*
X141965639Y-124912900D01*
X141787100Y-124734361D01*
X141577160Y-124594084D01*
X141343887Y-124497459D01*
X141096246Y-124448200D01*
X140843754Y-124448200D01*
X140596113Y-124497459D01*
X140362840Y-124594084D01*
X140152900Y-124734361D01*
X139974361Y-124912900D01*
X139834084Y-125122840D01*
X139737459Y-125356113D01*
X139700000Y-125544432D01*
X139662541Y-125356113D01*
X139565916Y-125122840D01*
X139425639Y-124912900D01*
X139247100Y-124734361D01*
X139037160Y-124594084D01*
X138803887Y-124497459D01*
X138556246Y-124448200D01*
X138303754Y-124448200D01*
X138056113Y-124497459D01*
X137822840Y-124594084D01*
X137612900Y-124734361D01*
X137434361Y-124912900D01*
X137294084Y-125122840D01*
X137197459Y-125356113D01*
X137160000Y-125544432D01*
X137122541Y-125356113D01*
X137025916Y-125122840D01*
X136885639Y-124912900D01*
X136707100Y-124734361D01*
X136497160Y-124594084D01*
X136263887Y-124497459D01*
X136016246Y-124448200D01*
X135763754Y-124448200D01*
X135516113Y-124497459D01*
X135282840Y-124594084D01*
X135072900Y-124734361D01*
X134894361Y-124912900D01*
X134754084Y-125122840D01*
X134657459Y-125356113D01*
X134620000Y-125544432D01*
X134582541Y-125356113D01*
X134485916Y-125122840D01*
X134345639Y-124912900D01*
X134167100Y-124734361D01*
X133957160Y-124594084D01*
X133723887Y-124497459D01*
X133476246Y-124448200D01*
X133223754Y-124448200D01*
X132976113Y-124497459D01*
X132742840Y-124594084D01*
X132532900Y-124734361D01*
X132354361Y-124912900D01*
X132214084Y-125122840D01*
X132117459Y-125356113D01*
X132093889Y-125474607D01*
X132093889Y-124880000D01*
X132085552Y-124795352D01*
X132060861Y-124713958D01*
X132020766Y-124638944D01*
X131966806Y-124573194D01*
X131901056Y-124519234D01*
X131826042Y-124479139D01*
X131744648Y-124454448D01*
X131660000Y-124446111D01*
X129960000Y-124446111D01*
X129875352Y-124454448D01*
X129793958Y-124479139D01*
X129718944Y-124519234D01*
X129653194Y-124573194D01*
X129599234Y-124638944D01*
X129559139Y-124713958D01*
X129534448Y-124795352D01*
X129526111Y-124880000D01*
X129032000Y-124880000D01*
X129032000Y-124131606D01*
X129338606Y-123825000D01*
X135128000Y-123825000D01*
X135152776Y-123822560D01*
X135176601Y-123815333D01*
X135198557Y-123803597D01*
X135212374Y-123792921D01*
X137498374Y-121760921D01*
X137515271Y-121742637D01*
X137528276Y-121721407D01*
X137536890Y-121698048D01*
X137541000Y-121666000D01*
X137541000Y-120615776D01*
X137613363Y-120567425D01*
X137712425Y-120468363D01*
X137722721Y-120452953D01*
X139877800Y-120452953D01*
X139877800Y-120593047D01*
X139905131Y-120730449D01*
X139958743Y-120859879D01*
X140036575Y-120976363D01*
X140135637Y-121075425D01*
X140252121Y-121153257D01*
X140381551Y-121206869D01*
X140518953Y-121234200D01*
X140659047Y-121234200D01*
X140796449Y-121206869D01*
X140925879Y-121153257D01*
X141042363Y-121075425D01*
X141141425Y-120976363D01*
X141219257Y-120859879D01*
X141272869Y-120730449D01*
X141300200Y-120593047D01*
X141300200Y-120452953D01*
X141272869Y-120315551D01*
X141219257Y-120186121D01*
X141141425Y-120069637D01*
X141042363Y-119970575D01*
X140925879Y-119892743D01*
X140796449Y-119839131D01*
X140659047Y-119811800D01*
X140518953Y-119811800D01*
X140381551Y-119839131D01*
X140252121Y-119892743D01*
X140135637Y-119970575D01*
X140036575Y-120069637D01*
X139958743Y-120186121D01*
X139905131Y-120315551D01*
X139877800Y-120452953D01*
X137722721Y-120452953D01*
X137790257Y-120351879D01*
X137843869Y-120222449D01*
X137871200Y-120085047D01*
X137871200Y-119944953D01*
X137843869Y-119807551D01*
X137790257Y-119678121D01*
X137726833Y-119583200D01*
X137865047Y-119583200D01*
X138002449Y-119555869D01*
X138131879Y-119502257D01*
X138248363Y-119424425D01*
X138347425Y-119325363D01*
X138425257Y-119208879D01*
X138478869Y-119079449D01*
X138506200Y-118942047D01*
X138506200Y-118801953D01*
X138478869Y-118664551D01*
X138425257Y-118535121D01*
X138347425Y-118418637D01*
X138248363Y-118319575D01*
X138131879Y-118241743D01*
X138002449Y-118188131D01*
X137865047Y-118160800D01*
X137724953Y-118160800D01*
X137587551Y-118188131D01*
X137541000Y-118207413D01*
X137541000Y-117150953D01*
X137845800Y-117150953D01*
X137845800Y-117291047D01*
X137873131Y-117428449D01*
X137926743Y-117557879D01*
X138004575Y-117674363D01*
X138103637Y-117773425D01*
X138220121Y-117851257D01*
X138349551Y-117904869D01*
X138486953Y-117932200D01*
X138627047Y-117932200D01*
X138764449Y-117904869D01*
X138893879Y-117851257D01*
X139010363Y-117773425D01*
X139109425Y-117674363D01*
X139187257Y-117557879D01*
X139240869Y-117428449D01*
X139268200Y-117291047D01*
X139268200Y-117150953D01*
X139240869Y-117013551D01*
X139187257Y-116884121D01*
X139109425Y-116767637D01*
X139010363Y-116668575D01*
X138893879Y-116590743D01*
X138764449Y-116537131D01*
X138627047Y-116509800D01*
X138486953Y-116509800D01*
X138349551Y-116537131D01*
X138220121Y-116590743D01*
X138103637Y-116668575D01*
X138004575Y-116767637D01*
X137926743Y-116884121D01*
X137873131Y-117013551D01*
X137845800Y-117150953D01*
X137541000Y-117150953D01*
X137541000Y-116134953D01*
X139496800Y-116134953D01*
X139496800Y-116275047D01*
X139524131Y-116412449D01*
X139577743Y-116541879D01*
X139655575Y-116658363D01*
X139754637Y-116757425D01*
X139871121Y-116835257D01*
X140000551Y-116888869D01*
X140137953Y-116916200D01*
X140278047Y-116916200D01*
X140415449Y-116888869D01*
X140544879Y-116835257D01*
X140661363Y-116757425D01*
X140760425Y-116658363D01*
X140838257Y-116541879D01*
X140891869Y-116412449D01*
X140919200Y-116275047D01*
X140919200Y-116134953D01*
X140891869Y-115997551D01*
X140838257Y-115868121D01*
X140760425Y-115751637D01*
X140661363Y-115652575D01*
X140544879Y-115574743D01*
X140415449Y-115521131D01*
X140278047Y-115493800D01*
X140137953Y-115493800D01*
X140000551Y-115521131D01*
X139871121Y-115574743D01*
X139754637Y-115652575D01*
X139655575Y-115751637D01*
X139577743Y-115868121D01*
X139524131Y-115997551D01*
X139496800Y-116134953D01*
X137541000Y-116134953D01*
X137541000Y-115245953D01*
X147751800Y-115245953D01*
X147751800Y-115386047D01*
X147779131Y-115523449D01*
X147832743Y-115652879D01*
X147910575Y-115769363D01*
X148009637Y-115868425D01*
X148126121Y-115946257D01*
X148255551Y-115999869D01*
X148392953Y-116027200D01*
X148533047Y-116027200D01*
X148670449Y-115999869D01*
X148799879Y-115946257D01*
X148916363Y-115868425D01*
X149015425Y-115769363D01*
X149034500Y-115740815D01*
X149053575Y-115769363D01*
X149152637Y-115868425D01*
X149269121Y-115946257D01*
X149398551Y-115999869D01*
X149535953Y-116027200D01*
X149676047Y-116027200D01*
X149813449Y-115999869D01*
X149942879Y-115946257D01*
X150059363Y-115868425D01*
X150158425Y-115769363D01*
X150236257Y-115652879D01*
X150289869Y-115523449D01*
X150317200Y-115386047D01*
X150317200Y-115245953D01*
X150289869Y-115108551D01*
X150236257Y-114979121D01*
X150158425Y-114862637D01*
X150059363Y-114763575D01*
X149942879Y-114685743D01*
X149813449Y-114632131D01*
X149676047Y-114604800D01*
X149535953Y-114604800D01*
X149398551Y-114632131D01*
X149269121Y-114685743D01*
X149152637Y-114763575D01*
X149053575Y-114862637D01*
X149034500Y-114891185D01*
X149015425Y-114862637D01*
X148916363Y-114763575D01*
X148799879Y-114685743D01*
X148670449Y-114632131D01*
X148533047Y-114604800D01*
X148392953Y-114604800D01*
X148255551Y-114632131D01*
X148126121Y-114685743D01*
X148009637Y-114763575D01*
X147910575Y-114862637D01*
X147832743Y-114979121D01*
X147779131Y-115108551D01*
X147751800Y-115245953D01*
X137541000Y-115245953D01*
X137541000Y-111435953D01*
X142544800Y-111435953D01*
X142544800Y-111576047D01*
X142572131Y-111713449D01*
X142625743Y-111842879D01*
X142703575Y-111959363D01*
X142802637Y-112058425D01*
X142919121Y-112136257D01*
X143048551Y-112189869D01*
X143185953Y-112217200D01*
X143326047Y-112217200D01*
X143463449Y-112189869D01*
X143592879Y-112136257D01*
X143709363Y-112058425D01*
X143808425Y-111959363D01*
X143886257Y-111842879D01*
X143939869Y-111713449D01*
X143967200Y-111576047D01*
X143967200Y-111435953D01*
X143939869Y-111298551D01*
X143886257Y-111169121D01*
X143808425Y-111052637D01*
X143709363Y-110953575D01*
X143592879Y-110875743D01*
X143463449Y-110822131D01*
X143326047Y-110794800D01*
X143185953Y-110794800D01*
X143048551Y-110822131D01*
X142919121Y-110875743D01*
X142802637Y-110953575D01*
X142703575Y-111052637D01*
X142625743Y-111169121D01*
X142572131Y-111298551D01*
X142544800Y-111435953D01*
X137541000Y-111435953D01*
X137541000Y-109911953D01*
X142544800Y-109911953D01*
X142544800Y-110052047D01*
X142572131Y-110189449D01*
X142625743Y-110318879D01*
X142703575Y-110435363D01*
X142802637Y-110534425D01*
X142919121Y-110612257D01*
X143048551Y-110665869D01*
X143185953Y-110693200D01*
X143326047Y-110693200D01*
X143463449Y-110665869D01*
X143592879Y-110612257D01*
X143709363Y-110534425D01*
X143808425Y-110435363D01*
X143886257Y-110318879D01*
X143939869Y-110189449D01*
X143967200Y-110052047D01*
X143967200Y-109911953D01*
X143939869Y-109774551D01*
X143886257Y-109645121D01*
X143808425Y-109528637D01*
X143709363Y-109429575D01*
X143592879Y-109351743D01*
X143463449Y-109298131D01*
X143326047Y-109270800D01*
X143185953Y-109270800D01*
X143048551Y-109298131D01*
X142919121Y-109351743D01*
X142802637Y-109429575D01*
X142703575Y-109528637D01*
X142625743Y-109645121D01*
X142572131Y-109774551D01*
X142544800Y-109911953D01*
X137541000Y-109911953D01*
X137541000Y-107875606D01*
X137663659Y-107752947D01*
X138480800Y-107752947D01*
X138480800Y-107893041D01*
X138508131Y-108030443D01*
X138561743Y-108159873D01*
X138639575Y-108276357D01*
X138738637Y-108375419D01*
X138855121Y-108453251D01*
X138984551Y-108506863D01*
X139121953Y-108534194D01*
X139262047Y-108534194D01*
X139399449Y-108506863D01*
X139528879Y-108453251D01*
X139645363Y-108375419D01*
X139744425Y-108276357D01*
X139822257Y-108159873D01*
X139875869Y-108030443D01*
X139903200Y-107893041D01*
X139903200Y-107752947D01*
X139875869Y-107615545D01*
X139822257Y-107486115D01*
X139744425Y-107369631D01*
X139645363Y-107270569D01*
X139528879Y-107192737D01*
X139399449Y-107139125D01*
X139262047Y-107111794D01*
X139121953Y-107111794D01*
X138984551Y-107139125D01*
X138855121Y-107192737D01*
X138738637Y-107270569D01*
X138639575Y-107369631D01*
X138561743Y-107486115D01*
X138508131Y-107615545D01*
X138480800Y-107752947D01*
X137663659Y-107752947D01*
X138355606Y-107061000D01*
X149558282Y-107061000D01*
X150495000Y-107880628D01*
G36*
X150495000Y-105225372D02*
G01*
X149558282Y-106045000D01*
X148437314Y-106045000D01*
X148455916Y-106017160D01*
X148552541Y-105783887D01*
X148601800Y-105536246D01*
X148601800Y-105283754D01*
X148552541Y-105036113D01*
X148455916Y-104802840D01*
X148315639Y-104592900D01*
X148137100Y-104414361D01*
X147927160Y-104274084D01*
X147693887Y-104177459D01*
X147505568Y-104140000D01*
X147693887Y-104102541D01*
X147927160Y-104005916D01*
X148137100Y-103865639D01*
X148315639Y-103687100D01*
X148455916Y-103477160D01*
X148552541Y-103243887D01*
X148601800Y-102996246D01*
X148601800Y-102743754D01*
X148552541Y-102496113D01*
X148455916Y-102262840D01*
X148315639Y-102052900D01*
X148137100Y-101874361D01*
X147927160Y-101734084D01*
X147693887Y-101637459D01*
X147446246Y-101588200D01*
X147193754Y-101588200D01*
X146946113Y-101637459D01*
X146712840Y-101734084D01*
X146502900Y-101874361D01*
X146324361Y-102052900D01*
X146184084Y-102262840D01*
X146087459Y-102496113D01*
X146063889Y-102614607D01*
X146063889Y-102020000D01*
X146055552Y-101935352D01*
X146030861Y-101853958D01*
X145990766Y-101778944D01*
X145936806Y-101713194D01*
X145871056Y-101659234D01*
X145796042Y-101619139D01*
X145714648Y-101594448D01*
X145630000Y-101586111D01*
X143930000Y-101586111D01*
X143845352Y-101594448D01*
X143763958Y-101619139D01*
X143688944Y-101659234D01*
X143623194Y-101713194D01*
X143569234Y-101778944D01*
X143529139Y-101853958D01*
X143504448Y-101935352D01*
X143496111Y-102020000D01*
X143496111Y-103720000D01*
X143504448Y-103804648D01*
X143529139Y-103886042D01*
X143569234Y-103961056D01*
X143623194Y-104026806D01*
X143688944Y-104080766D01*
X143763958Y-104120861D01*
X143845352Y-104145552D01*
X143930000Y-104153889D01*
X144524607Y-104153889D01*
X144406113Y-104177459D01*
X144172840Y-104274084D01*
X143962900Y-104414361D01*
X143784361Y-104592900D01*
X143644084Y-104802840D01*
X143547459Y-105036113D01*
X143498200Y-105283754D01*
X143498200Y-105536246D01*
X143547459Y-105783887D01*
X143644084Y-106017160D01*
X143662686Y-106045000D01*
X137287000Y-106045000D01*
X137262224Y-106047440D01*
X137238399Y-106054667D01*
X137216443Y-106066403D01*
X137197197Y-106082197D01*
X136435197Y-106844197D01*
X136419403Y-106863443D01*
X136407667Y-106885399D01*
X136400440Y-106909224D01*
X136398000Y-106934000D01*
X136398000Y-108127800D01*
X136327953Y-108127800D01*
X136190551Y-108155131D01*
X136061121Y-108208743D01*
X135944637Y-108286575D01*
X135845575Y-108385637D01*
X135767743Y-108502121D01*
X135714131Y-108631551D01*
X135686800Y-108768953D01*
X135686800Y-108909047D01*
X135714131Y-109046449D01*
X135767743Y-109175879D01*
X135845575Y-109292363D01*
X135944637Y-109391425D01*
X136061121Y-109469257D01*
X136190551Y-109522869D01*
X136327953Y-109550200D01*
X136398000Y-109550200D01*
X136398000Y-110236000D01*
X125222000Y-110236000D01*
X125222000Y-105847953D01*
X127558800Y-105847953D01*
X127558800Y-105988047D01*
X127586131Y-106125449D01*
X127639743Y-106254879D01*
X127717575Y-106371363D01*
X127816637Y-106470425D01*
X127933121Y-106548257D01*
X128062551Y-106601869D01*
X128199953Y-106629200D01*
X128340047Y-106629200D01*
X128477449Y-106601869D01*
X128606879Y-106548257D01*
X128723363Y-106470425D01*
X128822425Y-106371363D01*
X128900257Y-106254879D01*
X128953869Y-106125449D01*
X128981200Y-105988047D01*
X128981200Y-105847953D01*
X128953869Y-105710551D01*
X128900257Y-105581121D01*
X128822425Y-105464637D01*
X128723363Y-105365575D01*
X128606879Y-105287743D01*
X128477449Y-105234131D01*
X128340047Y-105206800D01*
X128199953Y-105206800D01*
X128062551Y-105234131D01*
X127933121Y-105287743D01*
X127816637Y-105365575D01*
X127717575Y-105464637D01*
X127639743Y-105581121D01*
X127586131Y-105710551D01*
X127558800Y-105847953D01*
X125222000Y-105847953D01*
X125222000Y-103434953D01*
X136956800Y-103434953D01*
X136956800Y-103575047D01*
X136984131Y-103712449D01*
X137037743Y-103841879D01*
X137115575Y-103958363D01*
X137214637Y-104057425D01*
X137331121Y-104135257D01*
X137342572Y-104140000D01*
X137331121Y-104144743D01*
X137214637Y-104222575D01*
X137115575Y-104321637D01*
X137037743Y-104438121D01*
X136984131Y-104567551D01*
X136956800Y-104704953D01*
X136956800Y-104845047D01*
X136984131Y-104982449D01*
X137037743Y-105111879D01*
X137115575Y-105228363D01*
X137214637Y-105327425D01*
X137331121Y-105405257D01*
X137460551Y-105458869D01*
X137597953Y-105486200D01*
X137738047Y-105486200D01*
X137875449Y-105458869D01*
X138004879Y-105405257D01*
X138121363Y-105327425D01*
X138220425Y-105228363D01*
X138298257Y-105111879D01*
X138351869Y-104982449D01*
X138379200Y-104845047D01*
X138379200Y-104704953D01*
X138351869Y-104567551D01*
X138298257Y-104438121D01*
X138220425Y-104321637D01*
X138121363Y-104222575D01*
X138004879Y-104144743D01*
X137993428Y-104140000D01*
X138004879Y-104135257D01*
X138121363Y-104057425D01*
X138220425Y-103958363D01*
X138298257Y-103841879D01*
X138351869Y-103712449D01*
X138379200Y-103575047D01*
X138379200Y-103434953D01*
X138351869Y-103297551D01*
X138298257Y-103168121D01*
X138220425Y-103051637D01*
X138121363Y-102952575D01*
X138004879Y-102874743D01*
X137875449Y-102821131D01*
X137738047Y-102793800D01*
X137597953Y-102793800D01*
X137460551Y-102821131D01*
X137331121Y-102874743D01*
X137214637Y-102952575D01*
X137115575Y-103051637D01*
X137037743Y-103168121D01*
X136984131Y-103297551D01*
X136956800Y-103434953D01*
X125222000Y-103434953D01*
X125222000Y-100259953D01*
X129336800Y-100259953D01*
X129336800Y-100400047D01*
X129364131Y-100537449D01*
X129417743Y-100666879D01*
X129495575Y-100783363D01*
X129594637Y-100882425D01*
X129711121Y-100960257D01*
X129840551Y-101013869D01*
X129977953Y-101041200D01*
X130118047Y-101041200D01*
X130255449Y-101013869D01*
X130384879Y-100960257D01*
X130501363Y-100882425D01*
X130600425Y-100783363D01*
X130678257Y-100666879D01*
X130683000Y-100655428D01*
X130687743Y-100666879D01*
X130765575Y-100783363D01*
X130864637Y-100882425D01*
X130981121Y-100960257D01*
X131110551Y-101013869D01*
X131247953Y-101041200D01*
X131388047Y-101041200D01*
X131525449Y-101013869D01*
X131654879Y-100960257D01*
X131771363Y-100882425D01*
X131870425Y-100783363D01*
X131948257Y-100666879D01*
X132001869Y-100537449D01*
X132029200Y-100400047D01*
X132029200Y-100259953D01*
X132001869Y-100122551D01*
X131948257Y-99993121D01*
X131870425Y-99876637D01*
X131771363Y-99777575D01*
X131654879Y-99699743D01*
X131525449Y-99646131D01*
X131388047Y-99618800D01*
X131247953Y-99618800D01*
X131110551Y-99646131D01*
X130981121Y-99699743D01*
X130864637Y-99777575D01*
X130765575Y-99876637D01*
X130687743Y-99993121D01*
X130683000Y-100004572D01*
X130678257Y-99993121D01*
X130600425Y-99876637D01*
X130501363Y-99777575D01*
X130384879Y-99699743D01*
X130255449Y-99646131D01*
X130118047Y-99618800D01*
X129977953Y-99618800D01*
X129840551Y-99646131D01*
X129711121Y-99699743D01*
X129594637Y-99777575D01*
X129495575Y-99876637D01*
X129417743Y-99993121D01*
X129364131Y-100122551D01*
X129336800Y-100259953D01*
X125222000Y-100259953D01*
X125222000Y-95814953D01*
X136956800Y-95814953D01*
X136956800Y-95955047D01*
X136984131Y-96092449D01*
X137037743Y-96221879D01*
X137115575Y-96338363D01*
X137214637Y-96437425D01*
X137331121Y-96515257D01*
X137342572Y-96520000D01*
X137331121Y-96524743D01*
X137214637Y-96602575D01*
X137115575Y-96701637D01*
X137037743Y-96818121D01*
X136984131Y-96947551D01*
X136956800Y-97084953D01*
X136956800Y-97225047D01*
X136984131Y-97362449D01*
X137037743Y-97491879D01*
X137115575Y-97608363D01*
X137214637Y-97707425D01*
X137331121Y-97785257D01*
X137460551Y-97838869D01*
X137597953Y-97866200D01*
X137738047Y-97866200D01*
X137875449Y-97838869D01*
X138004879Y-97785257D01*
X138121363Y-97707425D01*
X138220425Y-97608363D01*
X138298257Y-97491879D01*
X138351869Y-97362449D01*
X138379200Y-97225047D01*
X138379200Y-97084953D01*
X138351869Y-96947551D01*
X138298257Y-96818121D01*
X138220425Y-96701637D01*
X138121363Y-96602575D01*
X138004879Y-96524743D01*
X137993428Y-96520000D01*
X138004879Y-96515257D01*
X138121363Y-96437425D01*
X138220425Y-96338363D01*
X138298257Y-96221879D01*
X138351869Y-96092449D01*
X138379200Y-95955047D01*
X138379200Y-95814953D01*
X138351869Y-95677551D01*
X138298257Y-95548121D01*
X138220425Y-95431637D01*
X138121363Y-95332575D01*
X138004879Y-95254743D01*
X137875449Y-95201131D01*
X137738047Y-95173800D01*
X137597953Y-95173800D01*
X137460551Y-95201131D01*
X137331121Y-95254743D01*
X137214637Y-95332575D01*
X137115575Y-95431637D01*
X137037743Y-95548121D01*
X136984131Y-95677551D01*
X136956800Y-95814953D01*
X125222000Y-95814953D01*
X125222000Y-93145227D01*
X125229077Y-93144530D01*
X125480123Y-93068376D01*
X125711488Y-92944709D01*
X125914281Y-92778281D01*
X126080709Y-92575489D01*
X126204376Y-92344124D01*
X126280530Y-92093078D01*
X126299800Y-91897427D01*
X126299800Y-89966573D01*
X127446200Y-89966573D01*
X127446200Y-91897426D01*
X127465470Y-92093077D01*
X127541624Y-92344123D01*
X127665291Y-92575488D01*
X127831719Y-92778281D01*
X128034511Y-92944709D01*
X128265876Y-93068376D01*
X128516922Y-93144530D01*
X128778000Y-93170244D01*
X129039077Y-93144530D01*
X129290123Y-93068376D01*
X129521488Y-92944709D01*
X129724281Y-92778281D01*
X129890709Y-92575489D01*
X130014376Y-92344124D01*
X130090530Y-92093078D01*
X130109800Y-91897427D01*
X130109800Y-89966573D01*
X131256200Y-89966573D01*
X131256200Y-91897426D01*
X131275470Y-92093077D01*
X131351624Y-92344123D01*
X131475291Y-92575488D01*
X131641719Y-92778281D01*
X131844511Y-92944709D01*
X132075876Y-93068376D01*
X132326922Y-93144530D01*
X132588000Y-93170244D01*
X132849077Y-93144530D01*
X133100123Y-93068376D01*
X133331488Y-92944709D01*
X133534281Y-92778281D01*
X133700709Y-92575489D01*
X133824376Y-92344124D01*
X133900530Y-92093078D01*
X133919800Y-91897427D01*
X133919800Y-89966573D01*
X135066200Y-89966573D01*
X135066200Y-91897426D01*
X135085470Y-92093077D01*
X135161624Y-92344123D01*
X135285291Y-92575488D01*
X135451719Y-92778281D01*
X135654511Y-92944709D01*
X135885876Y-93068376D01*
X136136922Y-93144530D01*
X136398000Y-93170244D01*
X136659077Y-93144530D01*
X136910123Y-93068376D01*
X137141488Y-92944709D01*
X137344281Y-92778281D01*
X137510709Y-92575489D01*
X137634376Y-92344124D01*
X137710530Y-92093078D01*
X137729800Y-91897427D01*
X137729800Y-89966573D01*
X137710530Y-89770922D01*
X137634376Y-89519876D01*
X137560680Y-89382000D01*
X138874111Y-89382000D01*
X138874111Y-92482000D01*
X138887252Y-92615420D01*
X138926169Y-92743713D01*
X138989367Y-92861948D01*
X139074417Y-92965583D01*
X139178052Y-93050633D01*
X139296287Y-93113831D01*
X139424580Y-93152748D01*
X139558000Y-93165889D01*
X140858000Y-93165889D01*
X140991420Y-93152748D01*
X141119713Y-93113831D01*
X141237948Y-93050633D01*
X141341583Y-92965583D01*
X141426633Y-92861948D01*
X141465090Y-92790000D01*
X145906998Y-92790000D01*
X145931747Y-93041277D01*
X146005041Y-93282897D01*
X146124065Y-93505576D01*
X146284245Y-93700755D01*
X146479424Y-93860935D01*
X146702103Y-93979959D01*
X146900033Y-94040000D01*
X146702103Y-94100041D01*
X146479424Y-94219065D01*
X146284245Y-94379245D01*
X146124065Y-94574424D01*
X146005041Y-94797103D01*
X145931747Y-95038723D01*
X145906998Y-95290000D01*
X145931747Y-95541277D01*
X146005041Y-95782897D01*
X146124065Y-96005576D01*
X146284245Y-96200755D01*
X146479424Y-96360935D01*
X146702103Y-96479959D01*
X146788315Y-96506111D01*
X146595000Y-96506111D01*
X146461580Y-96519252D01*
X146333287Y-96558169D01*
X146215052Y-96621367D01*
X146111417Y-96706417D01*
X146026367Y-96810052D01*
X145963169Y-96928287D01*
X145924252Y-97056580D01*
X145911111Y-97190000D01*
X145911111Y-98390000D01*
X145924252Y-98523420D01*
X145963169Y-98651713D01*
X146026367Y-98769948D01*
X146111417Y-98873583D01*
X146215052Y-98958633D01*
X146333287Y-99021831D01*
X146461580Y-99060748D01*
X146595000Y-99073889D01*
X148045000Y-99073889D01*
X148178420Y-99060748D01*
X148306713Y-99021831D01*
X148424948Y-98958633D01*
X148528583Y-98873583D01*
X148613633Y-98769948D01*
X148676831Y-98651713D01*
X148715748Y-98523420D01*
X148728889Y-98390000D01*
X148728889Y-97190000D01*
X148715748Y-97056580D01*
X148676831Y-96928287D01*
X148613633Y-96810052D01*
X148528583Y-96706417D01*
X148424948Y-96621367D01*
X148306713Y-96558169D01*
X148178420Y-96519252D01*
X148045000Y-96506111D01*
X147851685Y-96506111D01*
X147937897Y-96479959D01*
X148160576Y-96360935D01*
X148355755Y-96200755D01*
X148515935Y-96005576D01*
X148634959Y-95782897D01*
X148708253Y-95541277D01*
X148733002Y-95290000D01*
X148708253Y-95038723D01*
X148634959Y-94797103D01*
X148515935Y-94574424D01*
X148355755Y-94379245D01*
X148160576Y-94219065D01*
X147937897Y-94100041D01*
X147739967Y-94040000D01*
X147937897Y-93979959D01*
X148160576Y-93860935D01*
X148355755Y-93700755D01*
X148515935Y-93505576D01*
X148634959Y-93282897D01*
X148708253Y-93041277D01*
X148733002Y-92790000D01*
X148708253Y-92538723D01*
X148634959Y-92297103D01*
X148515935Y-92074424D01*
X148355755Y-91879245D01*
X148160576Y-91719065D01*
X147937897Y-91600041D01*
X147696277Y-91526747D01*
X147507969Y-91508200D01*
X147132031Y-91508200D01*
X146943723Y-91526747D01*
X146702103Y-91600041D01*
X146479424Y-91719065D01*
X146284245Y-91879245D01*
X146124065Y-92074424D01*
X146005041Y-92297103D01*
X145931747Y-92538723D01*
X145906998Y-92790000D01*
X141465090Y-92790000D01*
X141489831Y-92743713D01*
X141528748Y-92615420D01*
X141541889Y-92482000D01*
X141541889Y-89382000D01*
X141528748Y-89248580D01*
X141489831Y-89120287D01*
X141426633Y-89002052D01*
X141341583Y-88898417D01*
X141237948Y-88813367D01*
X141119713Y-88750169D01*
X140991420Y-88711252D01*
X140858000Y-88698111D01*
X139558000Y-88698111D01*
X139424580Y-88711252D01*
X139296287Y-88750169D01*
X139178052Y-88813367D01*
X139074417Y-88898417D01*
X138989367Y-89002052D01*
X138926169Y-89120287D01*
X138887252Y-89248580D01*
X138874111Y-89382000D01*
X137560680Y-89382000D01*
X137510709Y-89288511D01*
X137344281Y-89085719D01*
X137141489Y-88919291D01*
X136910124Y-88795624D01*
X136659078Y-88719470D01*
X136398000Y-88693756D01*
X136136923Y-88719470D01*
X135885877Y-88795624D01*
X135654512Y-88919291D01*
X135451720Y-89085719D01*
X135285292Y-89288511D01*
X135161625Y-89519876D01*
X135085471Y-89770922D01*
X135066200Y-89966573D01*
X133919800Y-89966573D01*
X133900530Y-89770922D01*
X133824376Y-89519876D01*
X133700709Y-89288511D01*
X133534281Y-89085719D01*
X133331489Y-88919291D01*
X133100124Y-88795624D01*
X132849078Y-88719470D01*
X132588000Y-88693756D01*
X132326923Y-88719470D01*
X132075877Y-88795624D01*
X131844512Y-88919291D01*
X131641720Y-89085719D01*
X131475292Y-89288511D01*
X131351625Y-89519876D01*
X131275471Y-89770922D01*
X131256200Y-89966573D01*
X130109800Y-89966573D01*
X130090530Y-89770922D01*
X130014376Y-89519876D01*
X129890709Y-89288511D01*
X129724281Y-89085719D01*
X129521489Y-88919291D01*
X129290124Y-88795624D01*
X129039078Y-88719470D01*
X128778000Y-88693756D01*
X128516923Y-88719470D01*
X128265877Y-88795624D01*
X128034512Y-88919291D01*
X127831720Y-89085719D01*
X127665292Y-89288511D01*
X127541625Y-89519876D01*
X127465471Y-89770922D01*
X127446200Y-89966573D01*
X126299800Y-89966573D01*
X126280530Y-89770922D01*
X126204376Y-89519876D01*
X126080709Y-89288511D01*
X125914281Y-89085719D01*
X125711489Y-88919291D01*
X125480124Y-88795624D01*
X125229078Y-88719470D01*
X125222000Y-88718773D01*
X125222000Y-84927938D01*
X146944562Y-84927938D01*
X146944562Y-85252062D01*
X147007795Y-85569957D01*
X147131831Y-85869407D01*
X147311905Y-86138906D01*
X147541094Y-86368095D01*
X147810593Y-86548169D01*
X148110043Y-86672205D01*
X148427938Y-86735438D01*
X148752062Y-86735438D01*
X149069957Y-86672205D01*
X149369407Y-86548169D01*
X149638906Y-86368095D01*
X149868095Y-86138906D01*
X150048169Y-85869407D01*
X150172205Y-85569957D01*
X150235438Y-85252062D01*
X150235438Y-84927938D01*
X150172205Y-84610043D01*
X150048169Y-84310593D01*
X149868095Y-84041094D01*
X149638906Y-83811905D01*
X149369407Y-83631831D01*
X149069957Y-83507795D01*
X148752062Y-83444562D01*
X148427938Y-83444562D01*
X148110043Y-83507795D01*
X147810593Y-83631831D01*
X147541094Y-83811905D01*
X147311905Y-84041094D01*
X147131831Y-84310593D01*
X147007795Y-84610043D01*
X146944562Y-84927938D01*
X125222000Y-84927938D01*
X125222000Y-83185000D01*
X150495000Y-83185000D01*
X150495000Y-105225372D01*
G37*
X150495000Y-105225372D02*
X149558282Y-106045000D01*
X148437314Y-106045000D01*
X148455916Y-106017160D01*
X148552541Y-105783887D01*
X148601800Y-105536246D01*
X148601800Y-105283754D01*
X148552541Y-105036113D01*
X148455916Y-104802840D01*
X148315639Y-104592900D01*
X148137100Y-104414361D01*
X147927160Y-104274084D01*
X147693887Y-104177459D01*
X147505568Y-104140000D01*
X147693887Y-104102541D01*
X147927160Y-104005916D01*
X148137100Y-103865639D01*
X148315639Y-103687100D01*
X148455916Y-103477160D01*
X148552541Y-103243887D01*
X148601800Y-102996246D01*
X148601800Y-102743754D01*
X148552541Y-102496113D01*
X148455916Y-102262840D01*
X148315639Y-102052900D01*
X148137100Y-101874361D01*
X147927160Y-101734084D01*
X147693887Y-101637459D01*
X147446246Y-101588200D01*
X147193754Y-101588200D01*
X146946113Y-101637459D01*
X146712840Y-101734084D01*
X146502900Y-101874361D01*
X146324361Y-102052900D01*
X146184084Y-102262840D01*
X146087459Y-102496113D01*
X146063889Y-102614607D01*
X146063889Y-102020000D01*
X146055552Y-101935352D01*
X146030861Y-101853958D01*
X145990766Y-101778944D01*
X145936806Y-101713194D01*
X145871056Y-101659234D01*
X145796042Y-101619139D01*
X145714648Y-101594448D01*
X145630000Y-101586111D01*
X143930000Y-101586111D01*
X143845352Y-101594448D01*
X143763958Y-101619139D01*
X143688944Y-101659234D01*
X143623194Y-101713194D01*
X143569234Y-101778944D01*
X143529139Y-101853958D01*
X143504448Y-101935352D01*
X143496111Y-102020000D01*
X143496111Y-103720000D01*
X143504448Y-103804648D01*
X143529139Y-103886042D01*
X143569234Y-103961056D01*
X143623194Y-104026806D01*
X143688944Y-104080766D01*
X143763958Y-104120861D01*
X143845352Y-104145552D01*
X143930000Y-104153889D01*
X144524607Y-104153889D01*
X144406113Y-104177459D01*
X144172840Y-104274084D01*
X143962900Y-104414361D01*
X143784361Y-104592900D01*
X143644084Y-104802840D01*
X143547459Y-105036113D01*
X143498200Y-105283754D01*
X143498200Y-105536246D01*
X143547459Y-105783887D01*
X143644084Y-106017160D01*
X143662686Y-106045000D01*
X137287000Y-106045000D01*
X137262224Y-106047440D01*
X137238399Y-106054667D01*
X137216443Y-106066403D01*
X137197197Y-106082197D01*
X136435197Y-106844197D01*
X136419403Y-106863443D01*
X136407667Y-106885399D01*
X136400440Y-106909224D01*
X136398000Y-106934000D01*
X136398000Y-108127800D01*
X136327953Y-108127800D01*
X136190551Y-108155131D01*
X136061121Y-108208743D01*
X135944637Y-108286575D01*
X135845575Y-108385637D01*
X135767743Y-108502121D01*
X135714131Y-108631551D01*
X135686800Y-108768953D01*
X135686800Y-108909047D01*
X135714131Y-109046449D01*
X135767743Y-109175879D01*
X135845575Y-109292363D01*
X135944637Y-109391425D01*
X136061121Y-109469257D01*
X136190551Y-109522869D01*
X136327953Y-109550200D01*
X136398000Y-109550200D01*
X136398000Y-110236000D01*
X125222000Y-110236000D01*
X125222000Y-105847953D01*
X127558800Y-105847953D01*
X127558800Y-105988047D01*
X127586131Y-106125449D01*
X127639743Y-106254879D01*
X127717575Y-106371363D01*
X127816637Y-106470425D01*
X127933121Y-106548257D01*
X128062551Y-106601869D01*
X128199953Y-106629200D01*
X128340047Y-106629200D01*
X128477449Y-106601869D01*
X128606879Y-106548257D01*
X128723363Y-106470425D01*
X128822425Y-106371363D01*
X128900257Y-106254879D01*
X128953869Y-106125449D01*
X128981200Y-105988047D01*
X128981200Y-105847953D01*
X128953869Y-105710551D01*
X128900257Y-105581121D01*
X128822425Y-105464637D01*
X128723363Y-105365575D01*
X128606879Y-105287743D01*
X128477449Y-105234131D01*
X128340047Y-105206800D01*
X128199953Y-105206800D01*
X128062551Y-105234131D01*
X127933121Y-105287743D01*
X127816637Y-105365575D01*
X127717575Y-105464637D01*
X127639743Y-105581121D01*
X127586131Y-105710551D01*
X127558800Y-105847953D01*
X125222000Y-105847953D01*
X125222000Y-103434953D01*
X136956800Y-103434953D01*
X136956800Y-103575047D01*
X136984131Y-103712449D01*
X137037743Y-103841879D01*
X137115575Y-103958363D01*
X137214637Y-104057425D01*
X137331121Y-104135257D01*
X137342572Y-104140000D01*
X137331121Y-104144743D01*
X137214637Y-104222575D01*
X137115575Y-104321637D01*
X137037743Y-104438121D01*
X136984131Y-104567551D01*
X136956800Y-104704953D01*
X136956800Y-104845047D01*
X136984131Y-104982449D01*
X137037743Y-105111879D01*
X137115575Y-105228363D01*
X137214637Y-105327425D01*
X137331121Y-105405257D01*
X137460551Y-105458869D01*
X137597953Y-105486200D01*
X137738047Y-105486200D01*
X137875449Y-105458869D01*
X138004879Y-105405257D01*
X138121363Y-105327425D01*
X138220425Y-105228363D01*
X138298257Y-105111879D01*
X138351869Y-104982449D01*
X138379200Y-104845047D01*
X138379200Y-104704953D01*
X138351869Y-104567551D01*
X138298257Y-104438121D01*
X138220425Y-104321637D01*
X138121363Y-104222575D01*
X138004879Y-104144743D01*
X137993428Y-104140000D01*
X138004879Y-104135257D01*
X138121363Y-104057425D01*
X138220425Y-103958363D01*
X138298257Y-103841879D01*
X138351869Y-103712449D01*
X138379200Y-103575047D01*
X138379200Y-103434953D01*
X138351869Y-103297551D01*
X138298257Y-103168121D01*
X138220425Y-103051637D01*
X138121363Y-102952575D01*
X138004879Y-102874743D01*
X137875449Y-102821131D01*
X137738047Y-102793800D01*
X137597953Y-102793800D01*
X137460551Y-102821131D01*
X137331121Y-102874743D01*
X137214637Y-102952575D01*
X137115575Y-103051637D01*
X137037743Y-103168121D01*
X136984131Y-103297551D01*
X136956800Y-103434953D01*
X125222000Y-103434953D01*
X125222000Y-100259953D01*
X129336800Y-100259953D01*
X129336800Y-100400047D01*
X129364131Y-100537449D01*
X129417743Y-100666879D01*
X129495575Y-100783363D01*
X129594637Y-100882425D01*
X129711121Y-100960257D01*
X129840551Y-101013869D01*
X129977953Y-101041200D01*
X130118047Y-101041200D01*
X130255449Y-101013869D01*
X130384879Y-100960257D01*
X130501363Y-100882425D01*
X130600425Y-100783363D01*
X130678257Y-100666879D01*
X130683000Y-100655428D01*
X130687743Y-100666879D01*
X130765575Y-100783363D01*
X130864637Y-100882425D01*
X130981121Y-100960257D01*
X131110551Y-101013869D01*
X131247953Y-101041200D01*
X131388047Y-101041200D01*
X131525449Y-101013869D01*
X131654879Y-100960257D01*
X131771363Y-100882425D01*
X131870425Y-100783363D01*
X131948257Y-100666879D01*
X132001869Y-100537449D01*
X132029200Y-100400047D01*
X132029200Y-100259953D01*
X132001869Y-100122551D01*
X131948257Y-99993121D01*
X131870425Y-99876637D01*
X131771363Y-99777575D01*
X131654879Y-99699743D01*
X131525449Y-99646131D01*
X131388047Y-99618800D01*
X131247953Y-99618800D01*
X131110551Y-99646131D01*
X130981121Y-99699743D01*
X130864637Y-99777575D01*
X130765575Y-99876637D01*
X130687743Y-99993121D01*
X130683000Y-100004572D01*
X130678257Y-99993121D01*
X130600425Y-99876637D01*
X130501363Y-99777575D01*
X130384879Y-99699743D01*
X130255449Y-99646131D01*
X130118047Y-99618800D01*
X129977953Y-99618800D01*
X129840551Y-99646131D01*
X129711121Y-99699743D01*
X129594637Y-99777575D01*
X129495575Y-99876637D01*
X129417743Y-99993121D01*
X129364131Y-100122551D01*
X129336800Y-100259953D01*
X125222000Y-100259953D01*
X125222000Y-95814953D01*
X136956800Y-95814953D01*
X136956800Y-95955047D01*
X136984131Y-96092449D01*
X137037743Y-96221879D01*
X137115575Y-96338363D01*
X137214637Y-96437425D01*
X137331121Y-96515257D01*
X137342572Y-96520000D01*
X137331121Y-96524743D01*
X137214637Y-96602575D01*
X137115575Y-96701637D01*
X137037743Y-96818121D01*
X136984131Y-96947551D01*
X136956800Y-97084953D01*
X136956800Y-97225047D01*
X136984131Y-97362449D01*
X137037743Y-97491879D01*
X137115575Y-97608363D01*
X137214637Y-97707425D01*
X137331121Y-97785257D01*
X137460551Y-97838869D01*
X137597953Y-97866200D01*
X137738047Y-97866200D01*
X137875449Y-97838869D01*
X138004879Y-97785257D01*
X138121363Y-97707425D01*
X138220425Y-97608363D01*
X138298257Y-97491879D01*
X138351869Y-97362449D01*
X138379200Y-97225047D01*
X138379200Y-97084953D01*
X138351869Y-96947551D01*
X138298257Y-96818121D01*
X138220425Y-96701637D01*
X138121363Y-96602575D01*
X138004879Y-96524743D01*
X137993428Y-96520000D01*
X138004879Y-96515257D01*
X138121363Y-96437425D01*
X138220425Y-96338363D01*
X138298257Y-96221879D01*
X138351869Y-96092449D01*
X138379200Y-95955047D01*
X138379200Y-95814953D01*
X138351869Y-95677551D01*
X138298257Y-95548121D01*
X138220425Y-95431637D01*
X138121363Y-95332575D01*
X138004879Y-95254743D01*
X137875449Y-95201131D01*
X137738047Y-95173800D01*
X137597953Y-95173800D01*
X137460551Y-95201131D01*
X137331121Y-95254743D01*
X137214637Y-95332575D01*
X137115575Y-95431637D01*
X137037743Y-95548121D01*
X136984131Y-95677551D01*
X136956800Y-95814953D01*
X125222000Y-95814953D01*
X125222000Y-93145227D01*
X125229077Y-93144530D01*
X125480123Y-93068376D01*
X125711488Y-92944709D01*
X125914281Y-92778281D01*
X126080709Y-92575489D01*
X126204376Y-92344124D01*
X126280530Y-92093078D01*
X126299800Y-91897427D01*
X126299800Y-89966573D01*
X127446200Y-89966573D01*
X127446200Y-91897426D01*
X127465470Y-92093077D01*
X127541624Y-92344123D01*
X127665291Y-92575488D01*
X127831719Y-92778281D01*
X128034511Y-92944709D01*
X128265876Y-93068376D01*
X128516922Y-93144530D01*
X128778000Y-93170244D01*
X129039077Y-93144530D01*
X129290123Y-93068376D01*
X129521488Y-92944709D01*
X129724281Y-92778281D01*
X129890709Y-92575489D01*
X130014376Y-92344124D01*
X130090530Y-92093078D01*
X130109800Y-91897427D01*
X130109800Y-89966573D01*
X131256200Y-89966573D01*
X131256200Y-91897426D01*
X131275470Y-92093077D01*
X131351624Y-92344123D01*
X131475291Y-92575488D01*
X131641719Y-92778281D01*
X131844511Y-92944709D01*
X132075876Y-93068376D01*
X132326922Y-93144530D01*
X132588000Y-93170244D01*
X132849077Y-93144530D01*
X133100123Y-93068376D01*
X133331488Y-92944709D01*
X133534281Y-92778281D01*
X133700709Y-92575489D01*
X133824376Y-92344124D01*
X133900530Y-92093078D01*
X133919800Y-91897427D01*
X133919800Y-89966573D01*
X135066200Y-89966573D01*
X135066200Y-91897426D01*
X135085470Y-92093077D01*
X135161624Y-92344123D01*
X135285291Y-92575488D01*
X135451719Y-92778281D01*
X135654511Y-92944709D01*
X135885876Y-93068376D01*
X136136922Y-93144530D01*
X136398000Y-93170244D01*
X136659077Y-93144530D01*
X136910123Y-93068376D01*
X137141488Y-92944709D01*
X137344281Y-92778281D01*
X137510709Y-92575489D01*
X137634376Y-92344124D01*
X137710530Y-92093078D01*
X137729800Y-91897427D01*
X137729800Y-89966573D01*
X137710530Y-89770922D01*
X137634376Y-89519876D01*
X137560680Y-89382000D01*
X138874111Y-89382000D01*
X138874111Y-92482000D01*
X138887252Y-92615420D01*
X138926169Y-92743713D01*
X138989367Y-92861948D01*
X139074417Y-92965583D01*
X139178052Y-93050633D01*
X139296287Y-93113831D01*
X139424580Y-93152748D01*
X139558000Y-93165889D01*
X140858000Y-93165889D01*
X140991420Y-93152748D01*
X141119713Y-93113831D01*
X141237948Y-93050633D01*
X141341583Y-92965583D01*
X141426633Y-92861948D01*
X141465090Y-92790000D01*
X145906998Y-92790000D01*
X145931747Y-93041277D01*
X146005041Y-93282897D01*
X146124065Y-93505576D01*
X146284245Y-93700755D01*
X146479424Y-93860935D01*
X146702103Y-93979959D01*
X146900033Y-94040000D01*
X146702103Y-94100041D01*
X146479424Y-94219065D01*
X146284245Y-94379245D01*
X146124065Y-94574424D01*
X146005041Y-94797103D01*
X145931747Y-95038723D01*
X145906998Y-95290000D01*
X145931747Y-95541277D01*
X146005041Y-95782897D01*
X146124065Y-96005576D01*
X146284245Y-96200755D01*
X146479424Y-96360935D01*
X146702103Y-96479959D01*
X146788315Y-96506111D01*
X146595000Y-96506111D01*
X146461580Y-96519252D01*
X146333287Y-96558169D01*
X146215052Y-96621367D01*
X146111417Y-96706417D01*
X146026367Y-96810052D01*
X145963169Y-96928287D01*
X145924252Y-97056580D01*
X145911111Y-97190000D01*
X145911111Y-98390000D01*
X145924252Y-98523420D01*
X145963169Y-98651713D01*
X146026367Y-98769948D01*
X146111417Y-98873583D01*
X146215052Y-98958633D01*
X146333287Y-99021831D01*
X146461580Y-99060748D01*
X146595000Y-99073889D01*
X148045000Y-99073889D01*
X148178420Y-99060748D01*
X148306713Y-99021831D01*
X148424948Y-98958633D01*
X148528583Y-98873583D01*
X148613633Y-98769948D01*
X148676831Y-98651713D01*
X148715748Y-98523420D01*
X148728889Y-98390000D01*
X148728889Y-97190000D01*
X148715748Y-97056580D01*
X148676831Y-96928287D01*
X148613633Y-96810052D01*
X148528583Y-96706417D01*
X148424948Y-96621367D01*
X148306713Y-96558169D01*
X148178420Y-96519252D01*
X148045000Y-96506111D01*
X147851685Y-96506111D01*
X147937897Y-96479959D01*
X148160576Y-96360935D01*
X148355755Y-96200755D01*
X148515935Y-96005576D01*
X148634959Y-95782897D01*
X148708253Y-95541277D01*
X148733002Y-95290000D01*
X148708253Y-95038723D01*
X148634959Y-94797103D01*
X148515935Y-94574424D01*
X148355755Y-94379245D01*
X148160576Y-94219065D01*
X147937897Y-94100041D01*
X147739967Y-94040000D01*
X147937897Y-93979959D01*
X148160576Y-93860935D01*
X148355755Y-93700755D01*
X148515935Y-93505576D01*
X148634959Y-93282897D01*
X148708253Y-93041277D01*
X148733002Y-92790000D01*
X148708253Y-92538723D01*
X148634959Y-92297103D01*
X148515935Y-92074424D01*
X148355755Y-91879245D01*
X148160576Y-91719065D01*
X147937897Y-91600041D01*
X147696277Y-91526747D01*
X147507969Y-91508200D01*
X147132031Y-91508200D01*
X146943723Y-91526747D01*
X146702103Y-91600041D01*
X146479424Y-91719065D01*
X146284245Y-91879245D01*
X146124065Y-92074424D01*
X146005041Y-92297103D01*
X145931747Y-92538723D01*
X145906998Y-92790000D01*
X141465090Y-92790000D01*
X141489831Y-92743713D01*
X141528748Y-92615420D01*
X141541889Y-92482000D01*
X141541889Y-89382000D01*
X141528748Y-89248580D01*
X141489831Y-89120287D01*
X141426633Y-89002052D01*
X141341583Y-88898417D01*
X141237948Y-88813367D01*
X141119713Y-88750169D01*
X140991420Y-88711252D01*
X140858000Y-88698111D01*
X139558000Y-88698111D01*
X139424580Y-88711252D01*
X139296287Y-88750169D01*
X139178052Y-88813367D01*
X139074417Y-88898417D01*
X138989367Y-89002052D01*
X138926169Y-89120287D01*
X138887252Y-89248580D01*
X138874111Y-89382000D01*
X137560680Y-89382000D01*
X137510709Y-89288511D01*
X137344281Y-89085719D01*
X137141489Y-88919291D01*
X136910124Y-88795624D01*
X136659078Y-88719470D01*
X136398000Y-88693756D01*
X136136923Y-88719470D01*
X135885877Y-88795624D01*
X135654512Y-88919291D01*
X135451720Y-89085719D01*
X135285292Y-89288511D01*
X135161625Y-89519876D01*
X135085471Y-89770922D01*
X135066200Y-89966573D01*
X133919800Y-89966573D01*
X133900530Y-89770922D01*
X133824376Y-89519876D01*
X133700709Y-89288511D01*
X133534281Y-89085719D01*
X133331489Y-88919291D01*
X133100124Y-88795624D01*
X132849078Y-88719470D01*
X132588000Y-88693756D01*
X132326923Y-88719470D01*
X132075877Y-88795624D01*
X131844512Y-88919291D01*
X131641720Y-89085719D01*
X131475292Y-89288511D01*
X131351625Y-89519876D01*
X131275471Y-89770922D01*
X131256200Y-89966573D01*
X130109800Y-89966573D01*
X130090530Y-89770922D01*
X130014376Y-89519876D01*
X129890709Y-89288511D01*
X129724281Y-89085719D01*
X129521489Y-88919291D01*
X129290124Y-88795624D01*
X129039078Y-88719470D01*
X128778000Y-88693756D01*
X128516923Y-88719470D01*
X128265877Y-88795624D01*
X128034512Y-88919291D01*
X127831720Y-89085719D01*
X127665292Y-89288511D01*
X127541625Y-89519876D01*
X127465471Y-89770922D01*
X127446200Y-89966573D01*
X126299800Y-89966573D01*
X126280530Y-89770922D01*
X126204376Y-89519876D01*
X126080709Y-89288511D01*
X125914281Y-89085719D01*
X125711489Y-88919291D01*
X125480124Y-88795624D01*
X125229078Y-88719470D01*
X125222000Y-88718773D01*
X125222000Y-84927938D01*
X146944562Y-84927938D01*
X146944562Y-85252062D01*
X147007795Y-85569957D01*
X147131831Y-85869407D01*
X147311905Y-86138906D01*
X147541094Y-86368095D01*
X147810593Y-86548169D01*
X148110043Y-86672205D01*
X148427938Y-86735438D01*
X148752062Y-86735438D01*
X149069957Y-86672205D01*
X149369407Y-86548169D01*
X149638906Y-86368095D01*
X149868095Y-86138906D01*
X150048169Y-85869407D01*
X150172205Y-85569957D01*
X150235438Y-85252062D01*
X150235438Y-84927938D01*
X150172205Y-84610043D01*
X150048169Y-84310593D01*
X149868095Y-84041094D01*
X149638906Y-83811905D01*
X149369407Y-83631831D01*
X149069957Y-83507795D01*
X148752062Y-83444562D01*
X148427938Y-83444562D01*
X148110043Y-83507795D01*
X147810593Y-83631831D01*
X147541094Y-83811905D01*
X147311905Y-84041094D01*
X147131831Y-84310593D01*
X147007795Y-84610043D01*
X146944562Y-84927938D01*
X125222000Y-84927938D01*
X125222000Y-83185000D01*
X150495000Y-83185000D01*
X150495000Y-105225372D01*
G36*
X124333000Y-88861303D02*
G01*
X124224512Y-88919291D01*
X124021720Y-89085719D01*
X123855292Y-89288511D01*
X123731625Y-89519876D01*
X123655471Y-89770922D01*
X123636200Y-89966573D01*
X123636200Y-91897426D01*
X123655470Y-92093077D01*
X123731624Y-92344123D01*
X123855291Y-92575488D01*
X124021719Y-92778281D01*
X124224511Y-92944709D01*
X124333000Y-93002697D01*
X124333000Y-100004572D01*
X124328257Y-99993121D01*
X124250425Y-99876637D01*
X124151363Y-99777575D01*
X124034879Y-99699743D01*
X123905449Y-99646131D01*
X123768047Y-99618800D01*
X123627953Y-99618800D01*
X123490551Y-99646131D01*
X123361121Y-99699743D01*
X123244637Y-99777575D01*
X123145575Y-99876637D01*
X123067743Y-99993121D01*
X123063000Y-100004572D01*
X123058257Y-99993121D01*
X122980425Y-99876637D01*
X122881363Y-99777575D01*
X122764879Y-99699743D01*
X122635449Y-99646131D01*
X122498047Y-99618800D01*
X122357953Y-99618800D01*
X122220551Y-99646131D01*
X122091121Y-99699743D01*
X121974637Y-99777575D01*
X121875575Y-99876637D01*
X121797743Y-99993121D01*
X121744131Y-100122551D01*
X121716800Y-100259953D01*
X121716800Y-100400047D01*
X121744131Y-100537449D01*
X121797743Y-100666879D01*
X121875575Y-100783363D01*
X121974637Y-100882425D01*
X122091121Y-100960257D01*
X122220551Y-101013869D01*
X122357953Y-101041200D01*
X122498047Y-101041200D01*
X122635449Y-101013869D01*
X122764879Y-100960257D01*
X122881363Y-100882425D01*
X122980425Y-100783363D01*
X123058257Y-100666879D01*
X123063000Y-100655428D01*
X123067743Y-100666879D01*
X123145575Y-100783363D01*
X123244637Y-100882425D01*
X123361121Y-100960257D01*
X123490551Y-101013869D01*
X123627953Y-101041200D01*
X123768047Y-101041200D01*
X123905449Y-101013869D01*
X124034879Y-100960257D01*
X124151363Y-100882425D01*
X124250425Y-100783363D01*
X124328257Y-100666879D01*
X124333000Y-100655428D01*
X124333000Y-110871000D01*
X124335440Y-110895776D01*
X124342667Y-110919601D01*
X124354403Y-110941557D01*
X124376370Y-110966577D01*
X125349000Y-111817628D01*
X125349000Y-112937224D01*
X125304879Y-112907743D01*
X125175449Y-112854131D01*
X125038047Y-112826800D01*
X124897953Y-112826800D01*
X124760551Y-112854131D01*
X124631121Y-112907743D01*
X124514637Y-112985575D01*
X124415575Y-113084637D01*
X124337743Y-113201121D01*
X124303413Y-113284000D01*
X119380000Y-113284000D01*
X119355224Y-113286440D01*
X119331399Y-113293667D01*
X119309443Y-113305403D01*
X119290197Y-113321197D01*
X119274403Y-113340443D01*
X119262667Y-113362399D01*
X119255440Y-113386224D01*
X119253000Y-113411000D01*
X119253000Y-116140129D01*
X119196047Y-116128800D01*
X119055953Y-116128800D01*
X118918551Y-116156131D01*
X118789121Y-116209743D01*
X118672637Y-116287575D01*
X118573575Y-116386637D01*
X118495743Y-116503121D01*
X118491000Y-116514572D01*
X118486257Y-116503121D01*
X118408425Y-116386637D01*
X118309363Y-116287575D01*
X118192879Y-116209743D01*
X118063449Y-116156131D01*
X117926047Y-116128800D01*
X117785953Y-116128800D01*
X117648551Y-116156131D01*
X117519121Y-116209743D01*
X117402637Y-116287575D01*
X117303575Y-116386637D01*
X117225743Y-116503121D01*
X117172131Y-116632551D01*
X117144800Y-116769953D01*
X117144800Y-116910047D01*
X117172131Y-117047449D01*
X117225743Y-117176879D01*
X117303575Y-117293363D01*
X117402637Y-117392425D01*
X117519121Y-117470257D01*
X117648551Y-117523869D01*
X117785953Y-117551200D01*
X117926047Y-117551200D01*
X118063449Y-117523869D01*
X118192879Y-117470257D01*
X118309363Y-117392425D01*
X118408425Y-117293363D01*
X118486257Y-117176879D01*
X118491000Y-117165428D01*
X118495743Y-117176879D01*
X118573575Y-117293363D01*
X118672637Y-117392425D01*
X118789121Y-117470257D01*
X118918551Y-117523869D01*
X119055953Y-117551200D01*
X119196047Y-117551200D01*
X119253000Y-117539871D01*
X119253000Y-124268129D01*
X119196047Y-124256800D01*
X119055953Y-124256800D01*
X118918551Y-124284131D01*
X118789121Y-124337743D01*
X118672637Y-124415575D01*
X118573575Y-124514637D01*
X118495743Y-124631121D01*
X118491000Y-124642572D01*
X118486257Y-124631121D01*
X118408425Y-124514637D01*
X118309363Y-124415575D01*
X118192879Y-124337743D01*
X118063449Y-124284131D01*
X117926047Y-124256800D01*
X117785953Y-124256800D01*
X117648551Y-124284131D01*
X117519121Y-124337743D01*
X117402637Y-124415575D01*
X117303575Y-124514637D01*
X117225743Y-124631121D01*
X117172131Y-124760551D01*
X117144800Y-124897953D01*
X117144800Y-125038047D01*
X117172131Y-125175449D01*
X117225743Y-125304879D01*
X117303575Y-125421363D01*
X117402637Y-125520425D01*
X117519121Y-125598257D01*
X117648551Y-125651869D01*
X117785953Y-125679200D01*
X117926047Y-125679200D01*
X118063449Y-125651869D01*
X118192879Y-125598257D01*
X118309363Y-125520425D01*
X118408425Y-125421363D01*
X118486257Y-125304879D01*
X118491000Y-125293428D01*
X118495743Y-125304879D01*
X118573575Y-125421363D01*
X118672637Y-125520425D01*
X118789121Y-125598257D01*
X118918551Y-125651869D01*
X119055953Y-125679200D01*
X119196047Y-125679200D01*
X119253000Y-125667871D01*
X119253000Y-127719667D01*
X118935500Y-128143000D01*
X116586000Y-128143000D01*
X116561224Y-128145440D01*
X116537399Y-128152667D01*
X116515443Y-128164403D01*
X116496197Y-128180197D01*
X115988197Y-128688197D01*
X115972403Y-128707443D01*
X115960667Y-128729399D01*
X115953440Y-128753224D01*
X115951000Y-128778000D01*
X115951000Y-131191000D01*
X112776000Y-131191000D01*
X112776000Y-129413000D01*
X112773560Y-129388224D01*
X112766333Y-129364399D01*
X112754597Y-129342443D01*
X112738803Y-129323197D01*
X112719557Y-129307403D01*
X112697601Y-129295667D01*
X112673776Y-129288440D01*
X112649000Y-129286000D01*
X111476972Y-129286000D01*
X111476972Y-129068576D01*
X109249029Y-129068576D01*
X109249029Y-129286000D01*
X106934000Y-129286000D01*
X106909224Y-129288440D01*
X106885399Y-129295667D01*
X106863443Y-129307403D01*
X106844197Y-129323197D01*
X106828403Y-129342443D01*
X106816667Y-129364399D01*
X106809440Y-129388224D01*
X106807000Y-129413000D01*
X106807000Y-131191000D01*
X102489000Y-131191000D01*
X102489000Y-129377938D01*
X102494562Y-129377938D01*
X102494562Y-129702062D01*
X102557795Y-130019957D01*
X102681831Y-130319407D01*
X102861905Y-130588906D01*
X103091094Y-130818095D01*
X103360593Y-130998169D01*
X103660043Y-131122205D01*
X103977938Y-131185438D01*
X104302062Y-131185438D01*
X104619957Y-131122205D01*
X104919407Y-130998169D01*
X105188906Y-130818095D01*
X105418095Y-130588906D01*
X105598169Y-130319407D01*
X105722205Y-130019957D01*
X105785438Y-129702062D01*
X105785438Y-129377938D01*
X105722205Y-129060043D01*
X105598169Y-128760593D01*
X105418095Y-128491094D01*
X105188906Y-128261905D01*
X104919407Y-128081831D01*
X104619957Y-127957795D01*
X104302062Y-127894562D01*
X103977938Y-127894562D01*
X103660043Y-127957795D01*
X103360593Y-128081831D01*
X103091094Y-128261905D01*
X102861905Y-128491094D01*
X102681831Y-128760593D01*
X102557795Y-129060043D01*
X102494562Y-129377938D01*
X102489000Y-129377938D01*
X102489000Y-123190000D01*
X107743756Y-123190000D01*
X107769470Y-123451078D01*
X107845624Y-123702124D01*
X107969291Y-123933489D01*
X108135719Y-124136281D01*
X108338511Y-124302709D01*
X108569876Y-124426376D01*
X108820922Y-124502530D01*
X109016573Y-124521800D01*
X110947427Y-124521800D01*
X111143078Y-124502530D01*
X111394124Y-124426376D01*
X111625489Y-124302709D01*
X111828281Y-124136281D01*
X111994709Y-123933489D01*
X112118376Y-123702124D01*
X112194530Y-123451078D01*
X112220244Y-123190000D01*
X112194530Y-122928922D01*
X112118376Y-122677876D01*
X111994709Y-122446511D01*
X111828281Y-122243719D01*
X111625489Y-122077291D01*
X111394124Y-121953624D01*
X111143078Y-121877470D01*
X110947427Y-121858200D01*
X109016573Y-121858200D01*
X108820922Y-121877470D01*
X108569876Y-121953624D01*
X108338511Y-122077291D01*
X108135719Y-122243719D01*
X107969291Y-122446511D01*
X107845624Y-122677876D01*
X107769470Y-122928922D01*
X107743756Y-123190000D01*
X102489000Y-123190000D01*
X102489000Y-121722953D01*
X114985800Y-121722953D01*
X114985800Y-121863047D01*
X115013131Y-122000449D01*
X115066743Y-122129879D01*
X115144575Y-122246363D01*
X115243637Y-122345425D01*
X115360121Y-122423257D01*
X115489551Y-122476869D01*
X115626953Y-122504200D01*
X115767047Y-122504200D01*
X115904449Y-122476869D01*
X116033879Y-122423257D01*
X116150363Y-122345425D01*
X116249425Y-122246363D01*
X116327257Y-122129879D01*
X116380869Y-122000449D01*
X116408200Y-121863047D01*
X116408200Y-121722953D01*
X116380869Y-121585551D01*
X116327257Y-121456121D01*
X116249425Y-121339637D01*
X116150363Y-121240575D01*
X116033879Y-121162743D01*
X115904449Y-121109131D01*
X115767047Y-121081800D01*
X115626953Y-121081800D01*
X115489551Y-121109131D01*
X115360121Y-121162743D01*
X115243637Y-121240575D01*
X115144575Y-121339637D01*
X115066743Y-121456121D01*
X115013131Y-121585551D01*
X114985800Y-121722953D01*
X102489000Y-121722953D01*
X102489000Y-119380000D01*
X107743756Y-119380000D01*
X107769470Y-119641078D01*
X107845624Y-119892124D01*
X107969291Y-120123489D01*
X108135719Y-120326281D01*
X108338511Y-120492709D01*
X108569876Y-120616376D01*
X108820922Y-120692530D01*
X109016573Y-120711800D01*
X110947427Y-120711800D01*
X111143078Y-120692530D01*
X111394124Y-120616376D01*
X111625489Y-120492709D01*
X111828281Y-120326281D01*
X111994709Y-120123489D01*
X112118376Y-119892124D01*
X112194530Y-119641078D01*
X112220244Y-119380000D01*
X112194530Y-119118922D01*
X112118376Y-118867876D01*
X111994709Y-118636511D01*
X111828281Y-118433719D01*
X111816991Y-118424453D01*
X114982300Y-118424453D01*
X114982300Y-118564547D01*
X115009631Y-118701949D01*
X115063243Y-118831379D01*
X115141075Y-118947863D01*
X115240137Y-119046925D01*
X115356621Y-119124757D01*
X115486051Y-119178369D01*
X115623453Y-119205700D01*
X115763547Y-119205700D01*
X115900949Y-119178369D01*
X116030379Y-119124757D01*
X116146863Y-119046925D01*
X116245925Y-118947863D01*
X116323757Y-118831379D01*
X116377369Y-118701949D01*
X116404700Y-118564547D01*
X116404700Y-118424453D01*
X116377369Y-118287051D01*
X116323757Y-118157621D01*
X116245925Y-118041137D01*
X116146863Y-117942075D01*
X116030379Y-117864243D01*
X115900949Y-117810631D01*
X115763547Y-117783300D01*
X115623453Y-117783300D01*
X115486051Y-117810631D01*
X115356621Y-117864243D01*
X115240137Y-117942075D01*
X115141075Y-118041137D01*
X115063243Y-118157621D01*
X115009631Y-118287051D01*
X114982300Y-118424453D01*
X111816991Y-118424453D01*
X111625489Y-118267291D01*
X111394124Y-118143624D01*
X111143078Y-118067470D01*
X110947427Y-118048200D01*
X109016573Y-118048200D01*
X108820922Y-118067470D01*
X108569876Y-118143624D01*
X108338511Y-118267291D01*
X108135719Y-118433719D01*
X107969291Y-118636511D01*
X107845624Y-118867876D01*
X107769470Y-119118922D01*
X107743756Y-119380000D01*
X102489000Y-119380000D01*
X102489000Y-117531953D01*
X112572800Y-117531953D01*
X112572800Y-117672047D01*
X112600131Y-117809449D01*
X112653743Y-117938879D01*
X112731575Y-118055363D01*
X112830637Y-118154425D01*
X112947121Y-118232257D01*
X113076551Y-118285869D01*
X113213953Y-118313200D01*
X113354047Y-118313200D01*
X113491449Y-118285869D01*
X113620879Y-118232257D01*
X113737363Y-118154425D01*
X113836425Y-118055363D01*
X113914257Y-117938879D01*
X113919000Y-117927428D01*
X113923743Y-117938879D01*
X114001575Y-118055363D01*
X114100637Y-118154425D01*
X114217121Y-118232257D01*
X114346551Y-118285869D01*
X114483953Y-118313200D01*
X114624047Y-118313200D01*
X114761449Y-118285869D01*
X114890879Y-118232257D01*
X115007363Y-118154425D01*
X115106425Y-118055363D01*
X115184257Y-117938879D01*
X115237869Y-117809449D01*
X115265200Y-117672047D01*
X115265200Y-117531953D01*
X115237869Y-117394551D01*
X115184257Y-117265121D01*
X115106425Y-117148637D01*
X115007363Y-117049575D01*
X114890879Y-116971743D01*
X114761449Y-116918131D01*
X114624047Y-116890800D01*
X114483953Y-116890800D01*
X114346551Y-116918131D01*
X114217121Y-116971743D01*
X114100637Y-117049575D01*
X114001575Y-117148637D01*
X113923743Y-117265121D01*
X113919000Y-117276572D01*
X113914257Y-117265121D01*
X113836425Y-117148637D01*
X113737363Y-117049575D01*
X113620879Y-116971743D01*
X113491449Y-116918131D01*
X113354047Y-116890800D01*
X113213953Y-116890800D01*
X113076551Y-116918131D01*
X112947121Y-116971743D01*
X112830637Y-117049575D01*
X112731575Y-117148637D01*
X112653743Y-117265121D01*
X112600131Y-117394551D01*
X112572800Y-117531953D01*
X102489000Y-117531953D01*
X102489000Y-114920000D01*
X107748111Y-114920000D01*
X107748111Y-116220000D01*
X107761252Y-116353420D01*
X107800169Y-116481713D01*
X107863367Y-116599948D01*
X107948417Y-116703583D01*
X108052052Y-116788633D01*
X108170287Y-116851831D01*
X108298580Y-116890748D01*
X108432000Y-116903889D01*
X111532000Y-116903889D01*
X111665420Y-116890748D01*
X111793713Y-116851831D01*
X111911948Y-116788633D01*
X112015583Y-116703583D01*
X112100633Y-116599948D01*
X112163831Y-116481713D01*
X112202748Y-116353420D01*
X112215889Y-116220000D01*
X112215889Y-114920000D01*
X112202748Y-114786580D01*
X112163831Y-114658287D01*
X112100633Y-114540052D01*
X112015583Y-114436417D01*
X111911948Y-114351367D01*
X111793713Y-114288169D01*
X111665420Y-114249252D01*
X111532000Y-114236111D01*
X108432000Y-114236111D01*
X108298580Y-114249252D01*
X108170287Y-114288169D01*
X108052052Y-114351367D01*
X107948417Y-114436417D01*
X107863367Y-114540052D01*
X107800169Y-114658287D01*
X107761252Y-114786580D01*
X107748111Y-114920000D01*
X102489000Y-114920000D01*
X102489000Y-112324953D01*
X114985800Y-112324953D01*
X114985800Y-112465047D01*
X115013131Y-112602449D01*
X115066743Y-112731879D01*
X115144575Y-112848363D01*
X115243637Y-112947425D01*
X115360121Y-113025257D01*
X115489551Y-113078869D01*
X115626953Y-113106200D01*
X115767047Y-113106200D01*
X115904449Y-113078869D01*
X116033879Y-113025257D01*
X116150363Y-112947425D01*
X116249425Y-112848363D01*
X116327257Y-112731879D01*
X116380869Y-112602449D01*
X116408200Y-112465047D01*
X116408200Y-112324953D01*
X116380869Y-112187551D01*
X116327257Y-112058121D01*
X116249425Y-111941637D01*
X116150363Y-111842575D01*
X116033879Y-111764743D01*
X115904449Y-111711131D01*
X115767047Y-111683800D01*
X115626953Y-111683800D01*
X115489551Y-111711131D01*
X115360121Y-111764743D01*
X115243637Y-111842575D01*
X115144575Y-111941637D01*
X115066743Y-112058121D01*
X115013131Y-112187551D01*
X114985800Y-112324953D01*
X102489000Y-112324953D01*
X102489000Y-109026453D01*
X114982300Y-109026453D01*
X114982300Y-109166547D01*
X115009631Y-109303949D01*
X115063243Y-109433379D01*
X115141075Y-109549863D01*
X115240137Y-109648925D01*
X115356621Y-109726757D01*
X115486051Y-109780369D01*
X115623453Y-109807700D01*
X115763547Y-109807700D01*
X115900949Y-109780369D01*
X116030379Y-109726757D01*
X116146863Y-109648925D01*
X116245925Y-109549863D01*
X116323757Y-109433379D01*
X116377369Y-109303949D01*
X116404700Y-109166547D01*
X116404700Y-109026453D01*
X116377369Y-108889051D01*
X116323757Y-108759621D01*
X116245925Y-108643137D01*
X116244741Y-108641953D01*
X117652800Y-108641953D01*
X117652800Y-108782047D01*
X117680131Y-108919449D01*
X117733743Y-109048879D01*
X117811575Y-109165363D01*
X117910637Y-109264425D01*
X118027121Y-109342257D01*
X118156551Y-109395869D01*
X118293953Y-109423200D01*
X118434047Y-109423200D01*
X118571449Y-109395869D01*
X118700879Y-109342257D01*
X118817363Y-109264425D01*
X118916425Y-109165363D01*
X118994257Y-109048879D01*
X119047869Y-108919449D01*
X119075200Y-108782047D01*
X119075200Y-108641953D01*
X119430800Y-108641953D01*
X119430800Y-108782047D01*
X119458131Y-108919449D01*
X119511743Y-109048879D01*
X119589575Y-109165363D01*
X119688637Y-109264425D01*
X119805121Y-109342257D01*
X119934551Y-109395869D01*
X120071953Y-109423200D01*
X120212047Y-109423200D01*
X120349449Y-109395869D01*
X120478879Y-109342257D01*
X120595363Y-109264425D01*
X120694425Y-109165363D01*
X120772257Y-109048879D01*
X120825869Y-108919449D01*
X120853200Y-108782047D01*
X120853200Y-108641953D01*
X120825869Y-108504551D01*
X120772257Y-108375121D01*
X120694425Y-108258637D01*
X120595363Y-108159575D01*
X120478879Y-108081743D01*
X120349449Y-108028131D01*
X120212047Y-108000800D01*
X120071953Y-108000800D01*
X119934551Y-108028131D01*
X119805121Y-108081743D01*
X119688637Y-108159575D01*
X119589575Y-108258637D01*
X119511743Y-108375121D01*
X119458131Y-108504551D01*
X119430800Y-108641953D01*
X119075200Y-108641953D01*
X119047869Y-108504551D01*
X118994257Y-108375121D01*
X118916425Y-108258637D01*
X118817363Y-108159575D01*
X118700879Y-108081743D01*
X118571449Y-108028131D01*
X118434047Y-108000800D01*
X118293953Y-108000800D01*
X118156551Y-108028131D01*
X118027121Y-108081743D01*
X117910637Y-108159575D01*
X117811575Y-108258637D01*
X117733743Y-108375121D01*
X117680131Y-108504551D01*
X117652800Y-108641953D01*
X116244741Y-108641953D01*
X116146863Y-108544075D01*
X116030379Y-108466243D01*
X115900949Y-108412631D01*
X115763547Y-108385300D01*
X115623453Y-108385300D01*
X115486051Y-108412631D01*
X115356621Y-108466243D01*
X115240137Y-108544075D01*
X115141075Y-108643137D01*
X115063243Y-108759621D01*
X115009631Y-108889051D01*
X114982300Y-109026453D01*
X102489000Y-109026453D01*
X102489000Y-107894428D01*
X102493743Y-107905879D01*
X102571575Y-108022363D01*
X102670637Y-108121425D01*
X102787121Y-108199257D01*
X102916551Y-108252869D01*
X103053953Y-108280200D01*
X103194047Y-108280200D01*
X103331449Y-108252869D01*
X103460879Y-108199257D01*
X103577363Y-108121425D01*
X103676425Y-108022363D01*
X103754257Y-107905879D01*
X103807869Y-107776449D01*
X103835200Y-107639047D01*
X103835200Y-107498953D01*
X103936800Y-107498953D01*
X103936800Y-107639047D01*
X103964131Y-107776449D01*
X104017743Y-107905879D01*
X104095575Y-108022363D01*
X104194637Y-108121425D01*
X104311121Y-108199257D01*
X104440551Y-108252869D01*
X104577953Y-108280200D01*
X104718047Y-108280200D01*
X104855449Y-108252869D01*
X104984879Y-108199257D01*
X105101363Y-108121425D01*
X105200425Y-108022363D01*
X105278257Y-107905879D01*
X105331869Y-107776449D01*
X105359200Y-107639047D01*
X105359200Y-107498953D01*
X106095800Y-107498953D01*
X106095800Y-107639047D01*
X106123131Y-107776449D01*
X106176743Y-107905879D01*
X106254575Y-108022363D01*
X106353637Y-108121425D01*
X106470121Y-108199257D01*
X106599551Y-108252869D01*
X106736953Y-108280200D01*
X106877047Y-108280200D01*
X107014449Y-108252869D01*
X107143879Y-108199257D01*
X107260363Y-108121425D01*
X107359425Y-108022363D01*
X107437257Y-107905879D01*
X107442000Y-107894428D01*
X107446743Y-107905879D01*
X107524575Y-108022363D01*
X107623637Y-108121425D01*
X107740121Y-108199257D01*
X107869551Y-108252869D01*
X108006953Y-108280200D01*
X108147047Y-108280200D01*
X108284449Y-108252869D01*
X108413879Y-108199257D01*
X108530363Y-108121425D01*
X108629425Y-108022363D01*
X108707257Y-107905879D01*
X108712000Y-107894428D01*
X108716743Y-107905879D01*
X108794575Y-108022363D01*
X108893637Y-108121425D01*
X109010121Y-108199257D01*
X109139551Y-108252869D01*
X109276953Y-108280200D01*
X109417047Y-108280200D01*
X109554449Y-108252869D01*
X109683879Y-108199257D01*
X109800363Y-108121425D01*
X109899425Y-108022363D01*
X109977257Y-107905879D01*
X110030869Y-107776449D01*
X110058200Y-107639047D01*
X110058200Y-107625953D01*
X114096800Y-107625953D01*
X114096800Y-107766047D01*
X114124131Y-107903449D01*
X114177743Y-108032879D01*
X114255575Y-108149363D01*
X114354637Y-108248425D01*
X114471121Y-108326257D01*
X114600551Y-108379869D01*
X114737953Y-108407200D01*
X114878047Y-108407200D01*
X115015449Y-108379869D01*
X115144879Y-108326257D01*
X115261363Y-108248425D01*
X115360425Y-108149363D01*
X115438257Y-108032879D01*
X115491869Y-107903449D01*
X115519200Y-107766047D01*
X115519200Y-107625953D01*
X116128800Y-107625953D01*
X116128800Y-107766047D01*
X116156131Y-107903449D01*
X116209743Y-108032879D01*
X116287575Y-108149363D01*
X116386637Y-108248425D01*
X116503121Y-108326257D01*
X116632551Y-108379869D01*
X116769953Y-108407200D01*
X116910047Y-108407200D01*
X117047449Y-108379869D01*
X117176879Y-108326257D01*
X117293363Y-108248425D01*
X117392425Y-108149363D01*
X117470257Y-108032879D01*
X117523869Y-107903449D01*
X117551200Y-107766047D01*
X117551200Y-107625953D01*
X117523869Y-107488551D01*
X117470257Y-107359121D01*
X117392425Y-107242637D01*
X117293363Y-107143575D01*
X117176879Y-107065743D01*
X117047449Y-107012131D01*
X116910047Y-106984800D01*
X116769953Y-106984800D01*
X116632551Y-107012131D01*
X116503121Y-107065743D01*
X116386637Y-107143575D01*
X116287575Y-107242637D01*
X116209743Y-107359121D01*
X116156131Y-107488551D01*
X116128800Y-107625953D01*
X115519200Y-107625953D01*
X115491869Y-107488551D01*
X115438257Y-107359121D01*
X115360425Y-107242637D01*
X115261363Y-107143575D01*
X115144879Y-107065743D01*
X115015449Y-107012131D01*
X114878047Y-106984800D01*
X114737953Y-106984800D01*
X114600551Y-107012131D01*
X114471121Y-107065743D01*
X114354637Y-107143575D01*
X114255575Y-107242637D01*
X114177743Y-107359121D01*
X114124131Y-107488551D01*
X114096800Y-107625953D01*
X110058200Y-107625953D01*
X110058200Y-107498953D01*
X110030869Y-107361551D01*
X109977257Y-107232121D01*
X109899425Y-107115637D01*
X109800363Y-107016575D01*
X109683879Y-106938743D01*
X109554449Y-106885131D01*
X109417047Y-106857800D01*
X109276953Y-106857800D01*
X109139551Y-106885131D01*
X109010121Y-106938743D01*
X108893637Y-107016575D01*
X108794575Y-107115637D01*
X108716743Y-107232121D01*
X108712000Y-107243572D01*
X108707257Y-107232121D01*
X108629425Y-107115637D01*
X108530363Y-107016575D01*
X108413879Y-106938743D01*
X108284449Y-106885131D01*
X108147047Y-106857800D01*
X108006953Y-106857800D01*
X107869551Y-106885131D01*
X107740121Y-106938743D01*
X107623637Y-107016575D01*
X107524575Y-107115637D01*
X107446743Y-107232121D01*
X107442000Y-107243572D01*
X107437257Y-107232121D01*
X107359425Y-107115637D01*
X107260363Y-107016575D01*
X107143879Y-106938743D01*
X107014449Y-106885131D01*
X106877047Y-106857800D01*
X106736953Y-106857800D01*
X106599551Y-106885131D01*
X106470121Y-106938743D01*
X106353637Y-107016575D01*
X106254575Y-107115637D01*
X106176743Y-107232121D01*
X106123131Y-107361551D01*
X106095800Y-107498953D01*
X105359200Y-107498953D01*
X105331869Y-107361551D01*
X105278257Y-107232121D01*
X105200425Y-107115637D01*
X105101363Y-107016575D01*
X104984879Y-106938743D01*
X104855449Y-106885131D01*
X104718047Y-106857800D01*
X104577953Y-106857800D01*
X104440551Y-106885131D01*
X104311121Y-106938743D01*
X104194637Y-107016575D01*
X104095575Y-107115637D01*
X104017743Y-107232121D01*
X103964131Y-107361551D01*
X103936800Y-107498953D01*
X103835200Y-107498953D01*
X103807869Y-107361551D01*
X103754257Y-107232121D01*
X103676425Y-107115637D01*
X103577363Y-107016575D01*
X103460879Y-106938743D01*
X103331449Y-106885131D01*
X103194047Y-106857800D01*
X103053953Y-106857800D01*
X102916551Y-106885131D01*
X102787121Y-106938743D01*
X102670637Y-107016575D01*
X102571575Y-107115637D01*
X102493743Y-107232121D01*
X102489000Y-107243572D01*
X102489000Y-102306428D01*
X102493743Y-102317879D01*
X102571575Y-102434363D01*
X102670637Y-102533425D01*
X102787121Y-102611257D01*
X102916551Y-102664869D01*
X103053953Y-102692200D01*
X103194047Y-102692200D01*
X103331449Y-102664869D01*
X103460879Y-102611257D01*
X103577363Y-102533425D01*
X103676425Y-102434363D01*
X103754257Y-102317879D01*
X103807869Y-102188449D01*
X103835200Y-102051047D01*
X103835200Y-101910953D01*
X103936800Y-101910953D01*
X103936800Y-102051047D01*
X103964131Y-102188449D01*
X104017743Y-102317879D01*
X104095575Y-102434363D01*
X104194637Y-102533425D01*
X104311121Y-102611257D01*
X104440551Y-102664869D01*
X104577953Y-102692200D01*
X104718047Y-102692200D01*
X104855449Y-102664869D01*
X104984879Y-102611257D01*
X105101363Y-102533425D01*
X105200425Y-102434363D01*
X105278257Y-102317879D01*
X105331869Y-102188449D01*
X105359200Y-102051047D01*
X105359200Y-101910953D01*
X105331869Y-101773551D01*
X105278257Y-101644121D01*
X105200425Y-101527637D01*
X105101363Y-101428575D01*
X104984879Y-101350743D01*
X104855449Y-101297131D01*
X104718047Y-101269800D01*
X104577953Y-101269800D01*
X104440551Y-101297131D01*
X104311121Y-101350743D01*
X104194637Y-101428575D01*
X104095575Y-101527637D01*
X104017743Y-101644121D01*
X103964131Y-101773551D01*
X103936800Y-101910953D01*
X103835200Y-101910953D01*
X103807869Y-101773551D01*
X103754257Y-101644121D01*
X103676425Y-101527637D01*
X103577363Y-101428575D01*
X103460879Y-101350743D01*
X103331449Y-101297131D01*
X103194047Y-101269800D01*
X103053953Y-101269800D01*
X102916551Y-101297131D01*
X102787121Y-101350743D01*
X102670637Y-101428575D01*
X102571575Y-101527637D01*
X102493743Y-101644121D01*
X102489000Y-101655572D01*
X102489000Y-100020428D01*
X102493743Y-100031879D01*
X102571575Y-100148363D01*
X102670637Y-100247425D01*
X102787121Y-100325257D01*
X102916551Y-100378869D01*
X103053953Y-100406200D01*
X103194047Y-100406200D01*
X103331449Y-100378869D01*
X103460879Y-100325257D01*
X103577363Y-100247425D01*
X103676425Y-100148363D01*
X103754257Y-100031879D01*
X103807869Y-99902449D01*
X103835200Y-99765047D01*
X103835200Y-99624953D01*
X103807869Y-99487551D01*
X103754257Y-99358121D01*
X103676425Y-99241637D01*
X103577363Y-99142575D01*
X103460879Y-99064743D01*
X103449428Y-99060000D01*
X103460879Y-99055257D01*
X103577363Y-98977425D01*
X103676425Y-98878363D01*
X103754257Y-98761879D01*
X103807869Y-98632449D01*
X103835200Y-98495047D01*
X103835200Y-98354953D01*
X103807869Y-98217551D01*
X103754257Y-98088121D01*
X103676425Y-97971637D01*
X103577363Y-97872575D01*
X103460879Y-97794743D01*
X103449428Y-97790000D01*
X103460879Y-97785257D01*
X103558613Y-97719953D01*
X113461800Y-97719953D01*
X113461800Y-97860047D01*
X113489131Y-97997449D01*
X113542743Y-98126879D01*
X113620575Y-98243363D01*
X113719637Y-98342425D01*
X113836121Y-98420257D01*
X113847572Y-98425000D01*
X113836121Y-98429743D01*
X113719637Y-98507575D01*
X113620575Y-98606637D01*
X113542743Y-98723121D01*
X113489131Y-98852551D01*
X113461800Y-98989953D01*
X113461800Y-99130047D01*
X113489131Y-99267449D01*
X113542743Y-99396879D01*
X113620575Y-99513363D01*
X113719637Y-99612425D01*
X113836121Y-99690257D01*
X113965551Y-99743869D01*
X114102953Y-99771200D01*
X114243047Y-99771200D01*
X114380449Y-99743869D01*
X114509879Y-99690257D01*
X114626363Y-99612425D01*
X114725425Y-99513363D01*
X114803257Y-99396879D01*
X114856869Y-99267449D01*
X114884200Y-99130047D01*
X114884200Y-98989953D01*
X114856869Y-98852551D01*
X114803257Y-98723121D01*
X114725425Y-98606637D01*
X114626363Y-98507575D01*
X114509879Y-98429743D01*
X114498428Y-98425000D01*
X114509879Y-98420257D01*
X114626363Y-98342425D01*
X114725425Y-98243363D01*
X114803257Y-98126879D01*
X114856869Y-97997449D01*
X114884200Y-97860047D01*
X114884200Y-97719953D01*
X114856869Y-97582551D01*
X114803257Y-97453121D01*
X114725425Y-97336637D01*
X114626363Y-97237575D01*
X114509879Y-97159743D01*
X114380449Y-97106131D01*
X114243047Y-97078800D01*
X114102953Y-97078800D01*
X113965551Y-97106131D01*
X113836121Y-97159743D01*
X113719637Y-97237575D01*
X113620575Y-97336637D01*
X113542743Y-97453121D01*
X113489131Y-97582551D01*
X113461800Y-97719953D01*
X103558613Y-97719953D01*
X103577363Y-97707425D01*
X103676425Y-97608363D01*
X103754257Y-97491879D01*
X103807869Y-97362449D01*
X103835200Y-97225047D01*
X103835200Y-97084953D01*
X103807869Y-96947551D01*
X103754257Y-96818121D01*
X103676425Y-96701637D01*
X103577363Y-96602575D01*
X103460879Y-96524743D01*
X103331449Y-96471131D01*
X103194047Y-96443800D01*
X103053953Y-96443800D01*
X102916551Y-96471131D01*
X102787121Y-96524743D01*
X102670637Y-96602575D01*
X102571575Y-96701637D01*
X102493743Y-96818121D01*
X102489000Y-96829572D01*
X102489000Y-95194428D01*
X102493743Y-95205879D01*
X102571575Y-95322363D01*
X102670637Y-95421425D01*
X102787121Y-95499257D01*
X102916551Y-95552869D01*
X103053953Y-95580200D01*
X103194047Y-95580200D01*
X103331449Y-95552869D01*
X103460879Y-95499257D01*
X103577363Y-95421425D01*
X103676425Y-95322363D01*
X103754257Y-95205879D01*
X103807869Y-95076449D01*
X103835200Y-94939047D01*
X103835200Y-94798953D01*
X103936800Y-94798953D01*
X103936800Y-94939047D01*
X103964131Y-95076449D01*
X104017743Y-95205879D01*
X104095575Y-95322363D01*
X104194637Y-95421425D01*
X104311121Y-95499257D01*
X104440551Y-95552869D01*
X104577953Y-95580200D01*
X104718047Y-95580200D01*
X104855449Y-95552869D01*
X104984879Y-95499257D01*
X105101363Y-95421425D01*
X105200425Y-95322363D01*
X105278257Y-95205879D01*
X105331869Y-95076449D01*
X105359200Y-94939047D01*
X105359200Y-94798953D01*
X105331869Y-94661551D01*
X105278257Y-94532121D01*
X105200425Y-94415637D01*
X105101363Y-94316575D01*
X104984879Y-94238743D01*
X104855449Y-94185131D01*
X104718047Y-94157800D01*
X104577953Y-94157800D01*
X104440551Y-94185131D01*
X104311121Y-94238743D01*
X104194637Y-94316575D01*
X104095575Y-94415637D01*
X104017743Y-94532121D01*
X103964131Y-94661551D01*
X103936800Y-94798953D01*
X103835200Y-94798953D01*
X103807869Y-94661551D01*
X103754257Y-94532121D01*
X103676425Y-94415637D01*
X103577363Y-94316575D01*
X103460879Y-94238743D01*
X103331449Y-94185131D01*
X103194047Y-94157800D01*
X103053953Y-94157800D01*
X102916551Y-94185131D01*
X102787121Y-94238743D01*
X102670637Y-94316575D01*
X102571575Y-94415637D01*
X102493743Y-94532121D01*
X102489000Y-94543572D01*
X102489000Y-89606428D01*
X102493743Y-89617879D01*
X102571575Y-89734363D01*
X102670637Y-89833425D01*
X102787121Y-89911257D01*
X102916551Y-89964869D01*
X103053953Y-89992200D01*
X103194047Y-89992200D01*
X103331449Y-89964869D01*
X103460879Y-89911257D01*
X103577363Y-89833425D01*
X103676425Y-89734363D01*
X103754257Y-89617879D01*
X103807869Y-89488449D01*
X103835200Y-89351047D01*
X103835200Y-89210953D01*
X103936800Y-89210953D01*
X103936800Y-89351047D01*
X103964131Y-89488449D01*
X104017743Y-89617879D01*
X104095575Y-89734363D01*
X104194637Y-89833425D01*
X104311121Y-89911257D01*
X104440551Y-89964869D01*
X104577953Y-89992200D01*
X104718047Y-89992200D01*
X104855449Y-89964869D01*
X104984879Y-89911257D01*
X105101363Y-89833425D01*
X105200425Y-89734363D01*
X105278257Y-89617879D01*
X105331869Y-89488449D01*
X105359200Y-89351047D01*
X105359200Y-89210953D01*
X106095800Y-89210953D01*
X106095800Y-89351047D01*
X106123131Y-89488449D01*
X106176743Y-89617879D01*
X106254575Y-89734363D01*
X106353637Y-89833425D01*
X106470121Y-89911257D01*
X106599551Y-89964869D01*
X106736953Y-89992200D01*
X106877047Y-89992200D01*
X107014449Y-89964869D01*
X107143879Y-89911257D01*
X107260363Y-89833425D01*
X107359425Y-89734363D01*
X107437257Y-89617879D01*
X107442000Y-89606428D01*
X107446743Y-89617879D01*
X107524575Y-89734363D01*
X107623637Y-89833425D01*
X107740121Y-89911257D01*
X107869551Y-89964869D01*
X108006953Y-89992200D01*
X108147047Y-89992200D01*
X108284449Y-89964869D01*
X108413879Y-89911257D01*
X108530363Y-89833425D01*
X108629425Y-89734363D01*
X108707257Y-89617879D01*
X108712000Y-89606428D01*
X108716743Y-89617879D01*
X108794575Y-89734363D01*
X108893637Y-89833425D01*
X109010121Y-89911257D01*
X109139551Y-89964869D01*
X109276953Y-89992200D01*
X109417047Y-89992200D01*
X109545882Y-89966573D01*
X112206200Y-89966573D01*
X112206200Y-91897426D01*
X112225470Y-92093077D01*
X112301624Y-92344123D01*
X112425291Y-92575488D01*
X112591719Y-92778281D01*
X112794511Y-92944709D01*
X113025876Y-93068376D01*
X113276922Y-93144530D01*
X113538000Y-93170244D01*
X113799077Y-93144530D01*
X114050123Y-93068376D01*
X114281488Y-92944709D01*
X114484281Y-92778281D01*
X114650709Y-92575489D01*
X114774376Y-92344124D01*
X114850530Y-92093078D01*
X114869800Y-91897427D01*
X114869800Y-89966573D01*
X116016200Y-89966573D01*
X116016200Y-91897426D01*
X116035470Y-92093077D01*
X116111624Y-92344123D01*
X116235291Y-92575488D01*
X116401719Y-92778281D01*
X116604511Y-92944709D01*
X116835876Y-93068376D01*
X117086922Y-93144530D01*
X117348000Y-93170244D01*
X117609077Y-93144530D01*
X117860123Y-93068376D01*
X118091488Y-92944709D01*
X118294281Y-92778281D01*
X118460709Y-92575489D01*
X118584376Y-92344124D01*
X118660530Y-92093078D01*
X118679800Y-91897427D01*
X118679800Y-89966573D01*
X119826200Y-89966573D01*
X119826200Y-91897426D01*
X119845470Y-92093077D01*
X119921624Y-92344123D01*
X120045291Y-92575488D01*
X120211719Y-92778281D01*
X120414511Y-92944709D01*
X120645876Y-93068376D01*
X120896922Y-93144530D01*
X121158000Y-93170244D01*
X121419077Y-93144530D01*
X121670123Y-93068376D01*
X121901488Y-92944709D01*
X122104281Y-92778281D01*
X122270709Y-92575489D01*
X122394376Y-92344124D01*
X122470530Y-92093078D01*
X122489800Y-91897427D01*
X122489800Y-89966573D01*
X122470530Y-89770922D01*
X122394376Y-89519876D01*
X122270709Y-89288511D01*
X122104281Y-89085719D01*
X121901489Y-88919291D01*
X121670124Y-88795624D01*
X121419078Y-88719470D01*
X121158000Y-88693756D01*
X120896923Y-88719470D01*
X120645877Y-88795624D01*
X120414512Y-88919291D01*
X120211720Y-89085719D01*
X120045292Y-89288511D01*
X119921625Y-89519876D01*
X119845471Y-89770922D01*
X119826200Y-89966573D01*
X118679800Y-89966573D01*
X118660530Y-89770922D01*
X118584376Y-89519876D01*
X118460709Y-89288511D01*
X118294281Y-89085719D01*
X118091489Y-88919291D01*
X117860124Y-88795624D01*
X117609078Y-88719470D01*
X117348000Y-88693756D01*
X117086923Y-88719470D01*
X116835877Y-88795624D01*
X116604512Y-88919291D01*
X116401720Y-89085719D01*
X116235292Y-89288511D01*
X116111625Y-89519876D01*
X116035471Y-89770922D01*
X116016200Y-89966573D01*
X114869800Y-89966573D01*
X114850530Y-89770922D01*
X114774376Y-89519876D01*
X114650709Y-89288511D01*
X114484281Y-89085719D01*
X114281489Y-88919291D01*
X114050124Y-88795624D01*
X113799078Y-88719470D01*
X113538000Y-88693756D01*
X113276923Y-88719470D01*
X113025877Y-88795624D01*
X112794512Y-88919291D01*
X112591720Y-89085719D01*
X112425292Y-89288511D01*
X112301625Y-89519876D01*
X112225471Y-89770922D01*
X112206200Y-89966573D01*
X109545882Y-89966573D01*
X109554449Y-89964869D01*
X109683879Y-89911257D01*
X109800363Y-89833425D01*
X109899425Y-89734363D01*
X109977257Y-89617879D01*
X110030869Y-89488449D01*
X110058200Y-89351047D01*
X110058200Y-89210953D01*
X110030869Y-89073551D01*
X109977257Y-88944121D01*
X109899425Y-88827637D01*
X109800363Y-88728575D01*
X109683879Y-88650743D01*
X109554449Y-88597131D01*
X109417047Y-88569800D01*
X109276953Y-88569800D01*
X109139551Y-88597131D01*
X109010121Y-88650743D01*
X108893637Y-88728575D01*
X108794575Y-88827637D01*
X108716743Y-88944121D01*
X108712000Y-88955572D01*
X108707257Y-88944121D01*
X108629425Y-88827637D01*
X108530363Y-88728575D01*
X108413879Y-88650743D01*
X108284449Y-88597131D01*
X108147047Y-88569800D01*
X108006953Y-88569800D01*
X107869551Y-88597131D01*
X107740121Y-88650743D01*
X107623637Y-88728575D01*
X107524575Y-88827637D01*
X107446743Y-88944121D01*
X107442000Y-88955572D01*
X107437257Y-88944121D01*
X107359425Y-88827637D01*
X107260363Y-88728575D01*
X107143879Y-88650743D01*
X107014449Y-88597131D01*
X106877047Y-88569800D01*
X106736953Y-88569800D01*
X106599551Y-88597131D01*
X106470121Y-88650743D01*
X106353637Y-88728575D01*
X106254575Y-88827637D01*
X106176743Y-88944121D01*
X106123131Y-89073551D01*
X106095800Y-89210953D01*
X105359200Y-89210953D01*
X105331869Y-89073551D01*
X105278257Y-88944121D01*
X105200425Y-88827637D01*
X105101363Y-88728575D01*
X104984879Y-88650743D01*
X104855449Y-88597131D01*
X104718047Y-88569800D01*
X104577953Y-88569800D01*
X104440551Y-88597131D01*
X104311121Y-88650743D01*
X104194637Y-88728575D01*
X104095575Y-88827637D01*
X104017743Y-88944121D01*
X103964131Y-89073551D01*
X103936800Y-89210953D01*
X103835200Y-89210953D01*
X103807869Y-89073551D01*
X103754257Y-88944121D01*
X103676425Y-88827637D01*
X103577363Y-88728575D01*
X103460879Y-88650743D01*
X103331449Y-88597131D01*
X103194047Y-88569800D01*
X103053953Y-88569800D01*
X102916551Y-88597131D01*
X102787121Y-88650743D01*
X102670637Y-88728575D01*
X102571575Y-88827637D01*
X102493743Y-88944121D01*
X102489000Y-88955572D01*
X102489000Y-84927938D01*
X102494562Y-84927938D01*
X102494562Y-85252062D01*
X102557795Y-85569957D01*
X102681831Y-85869407D01*
X102861905Y-86138906D01*
X103091094Y-86368095D01*
X103360593Y-86548169D01*
X103660043Y-86672205D01*
X103977938Y-86735438D01*
X104302062Y-86735438D01*
X104619957Y-86672205D01*
X104919407Y-86548169D01*
X105188906Y-86368095D01*
X105418095Y-86138906D01*
X105598169Y-85869407D01*
X105722205Y-85569957D01*
X105785438Y-85252062D01*
X105785438Y-84927938D01*
X105722205Y-84610043D01*
X105598169Y-84310593D01*
X105418095Y-84041094D01*
X105188906Y-83811905D01*
X104919407Y-83631831D01*
X104619957Y-83507795D01*
X104302062Y-83444562D01*
X103977938Y-83444562D01*
X103660043Y-83507795D01*
X103360593Y-83631831D01*
X103091094Y-83811905D01*
X102861905Y-84041094D01*
X102681831Y-84310593D01*
X102557795Y-84610043D01*
X102494562Y-84927938D01*
X102489000Y-84927938D01*
X102489000Y-83185000D01*
X124333000Y-83185000D01*
X124333000Y-88861303D01*
G37*
X124333000Y-88861303D02*
X124224512Y-88919291D01*
X124021720Y-89085719D01*
X123855292Y-89288511D01*
X123731625Y-89519876D01*
X123655471Y-89770922D01*
X123636200Y-89966573D01*
X123636200Y-91897426D01*
X123655470Y-92093077D01*
X123731624Y-92344123D01*
X123855291Y-92575488D01*
X124021719Y-92778281D01*
X124224511Y-92944709D01*
X124333000Y-93002697D01*
X124333000Y-100004572D01*
X124328257Y-99993121D01*
X124250425Y-99876637D01*
X124151363Y-99777575D01*
X124034879Y-99699743D01*
X123905449Y-99646131D01*
X123768047Y-99618800D01*
X123627953Y-99618800D01*
X123490551Y-99646131D01*
X123361121Y-99699743D01*
X123244637Y-99777575D01*
X123145575Y-99876637D01*
X123067743Y-99993121D01*
X123063000Y-100004572D01*
X123058257Y-99993121D01*
X122980425Y-99876637D01*
X122881363Y-99777575D01*
X122764879Y-99699743D01*
X122635449Y-99646131D01*
X122498047Y-99618800D01*
X122357953Y-99618800D01*
X122220551Y-99646131D01*
X122091121Y-99699743D01*
X121974637Y-99777575D01*
X121875575Y-99876637D01*
X121797743Y-99993121D01*
X121744131Y-100122551D01*
X121716800Y-100259953D01*
X121716800Y-100400047D01*
X121744131Y-100537449D01*
X121797743Y-100666879D01*
X121875575Y-100783363D01*
X121974637Y-100882425D01*
X122091121Y-100960257D01*
X122220551Y-101013869D01*
X122357953Y-101041200D01*
X122498047Y-101041200D01*
X122635449Y-101013869D01*
X122764879Y-100960257D01*
X122881363Y-100882425D01*
X122980425Y-100783363D01*
X123058257Y-100666879D01*
X123063000Y-100655428D01*
X123067743Y-100666879D01*
X123145575Y-100783363D01*
X123244637Y-100882425D01*
X123361121Y-100960257D01*
X123490551Y-101013869D01*
X123627953Y-101041200D01*
X123768047Y-101041200D01*
X123905449Y-101013869D01*
X124034879Y-100960257D01*
X124151363Y-100882425D01*
X124250425Y-100783363D01*
X124328257Y-100666879D01*
X124333000Y-100655428D01*
X124333000Y-110871000D01*
X124335440Y-110895776D01*
X124342667Y-110919601D01*
X124354403Y-110941557D01*
X124376370Y-110966577D01*
X125349000Y-111817628D01*
X125349000Y-112937224D01*
X125304879Y-112907743D01*
X125175449Y-112854131D01*
X125038047Y-112826800D01*
X124897953Y-112826800D01*
X124760551Y-112854131D01*
X124631121Y-112907743D01*
X124514637Y-112985575D01*
X124415575Y-113084637D01*
X124337743Y-113201121D01*
X124303413Y-113284000D01*
X119380000Y-113284000D01*
X119355224Y-113286440D01*
X119331399Y-113293667D01*
X119309443Y-113305403D01*
X119290197Y-113321197D01*
X119274403Y-113340443D01*
X119262667Y-113362399D01*
X119255440Y-113386224D01*
X119253000Y-113411000D01*
X119253000Y-116140129D01*
X119196047Y-116128800D01*
X119055953Y-116128800D01*
X118918551Y-116156131D01*
X118789121Y-116209743D01*
X118672637Y-116287575D01*
X118573575Y-116386637D01*
X118495743Y-116503121D01*
X118491000Y-116514572D01*
X118486257Y-116503121D01*
X118408425Y-116386637D01*
X118309363Y-116287575D01*
X118192879Y-116209743D01*
X118063449Y-116156131D01*
X117926047Y-116128800D01*
X117785953Y-116128800D01*
X117648551Y-116156131D01*
X117519121Y-116209743D01*
X117402637Y-116287575D01*
X117303575Y-116386637D01*
X117225743Y-116503121D01*
X117172131Y-116632551D01*
X117144800Y-116769953D01*
X117144800Y-116910047D01*
X117172131Y-117047449D01*
X117225743Y-117176879D01*
X117303575Y-117293363D01*
X117402637Y-117392425D01*
X117519121Y-117470257D01*
X117648551Y-117523869D01*
X117785953Y-117551200D01*
X117926047Y-117551200D01*
X118063449Y-117523869D01*
X118192879Y-117470257D01*
X118309363Y-117392425D01*
X118408425Y-117293363D01*
X118486257Y-117176879D01*
X118491000Y-117165428D01*
X118495743Y-117176879D01*
X118573575Y-117293363D01*
X118672637Y-117392425D01*
X118789121Y-117470257D01*
X118918551Y-117523869D01*
X119055953Y-117551200D01*
X119196047Y-117551200D01*
X119253000Y-117539871D01*
X119253000Y-124268129D01*
X119196047Y-124256800D01*
X119055953Y-124256800D01*
X118918551Y-124284131D01*
X118789121Y-124337743D01*
X118672637Y-124415575D01*
X118573575Y-124514637D01*
X118495743Y-124631121D01*
X118491000Y-124642572D01*
X118486257Y-124631121D01*
X118408425Y-124514637D01*
X118309363Y-124415575D01*
X118192879Y-124337743D01*
X118063449Y-124284131D01*
X117926047Y-124256800D01*
X117785953Y-124256800D01*
X117648551Y-124284131D01*
X117519121Y-124337743D01*
X117402637Y-124415575D01*
X117303575Y-124514637D01*
X117225743Y-124631121D01*
X117172131Y-124760551D01*
X117144800Y-124897953D01*
X117144800Y-125038047D01*
X117172131Y-125175449D01*
X117225743Y-125304879D01*
X117303575Y-125421363D01*
X117402637Y-125520425D01*
X117519121Y-125598257D01*
X117648551Y-125651869D01*
X117785953Y-125679200D01*
X117926047Y-125679200D01*
X118063449Y-125651869D01*
X118192879Y-125598257D01*
X118309363Y-125520425D01*
X118408425Y-125421363D01*
X118486257Y-125304879D01*
X118491000Y-125293428D01*
X118495743Y-125304879D01*
X118573575Y-125421363D01*
X118672637Y-125520425D01*
X118789121Y-125598257D01*
X118918551Y-125651869D01*
X119055953Y-125679200D01*
X119196047Y-125679200D01*
X119253000Y-125667871D01*
X119253000Y-127719667D01*
X118935500Y-128143000D01*
X116586000Y-128143000D01*
X116561224Y-128145440D01*
X116537399Y-128152667D01*
X116515443Y-128164403D01*
X116496197Y-128180197D01*
X115988197Y-128688197D01*
X115972403Y-128707443D01*
X115960667Y-128729399D01*
X115953440Y-128753224D01*
X115951000Y-128778000D01*
X115951000Y-131191000D01*
X112776000Y-131191000D01*
X112776000Y-129413000D01*
X112773560Y-129388224D01*
X112766333Y-129364399D01*
X112754597Y-129342443D01*
X112738803Y-129323197D01*
X112719557Y-129307403D01*
X112697601Y-129295667D01*
X112673776Y-129288440D01*
X112649000Y-129286000D01*
X111476972Y-129286000D01*
X111476972Y-129068576D01*
X109249029Y-129068576D01*
X109249029Y-129286000D01*
X106934000Y-129286000D01*
X106909224Y-129288440D01*
X106885399Y-129295667D01*
X106863443Y-129307403D01*
X106844197Y-129323197D01*
X106828403Y-129342443D01*
X106816667Y-129364399D01*
X106809440Y-129388224D01*
X106807000Y-129413000D01*
X106807000Y-131191000D01*
X102489000Y-131191000D01*
X102489000Y-129377938D01*
X102494562Y-129377938D01*
X102494562Y-129702062D01*
X102557795Y-130019957D01*
X102681831Y-130319407D01*
X102861905Y-130588906D01*
X103091094Y-130818095D01*
X103360593Y-130998169D01*
X103660043Y-131122205D01*
X103977938Y-131185438D01*
X104302062Y-131185438D01*
X104619957Y-131122205D01*
X104919407Y-130998169D01*
X105188906Y-130818095D01*
X105418095Y-130588906D01*
X105598169Y-130319407D01*
X105722205Y-130019957D01*
X105785438Y-129702062D01*
X105785438Y-129377938D01*
X105722205Y-129060043D01*
X105598169Y-128760593D01*
X105418095Y-128491094D01*
X105188906Y-128261905D01*
X104919407Y-128081831D01*
X104619957Y-127957795D01*
X104302062Y-127894562D01*
X103977938Y-127894562D01*
X103660043Y-127957795D01*
X103360593Y-128081831D01*
X103091094Y-128261905D01*
X102861905Y-128491094D01*
X102681831Y-128760593D01*
X102557795Y-129060043D01*
X102494562Y-129377938D01*
X102489000Y-129377938D01*
X102489000Y-123190000D01*
X107743756Y-123190000D01*
X107769470Y-123451078D01*
X107845624Y-123702124D01*
X107969291Y-123933489D01*
X108135719Y-124136281D01*
X108338511Y-124302709D01*
X108569876Y-124426376D01*
X108820922Y-124502530D01*
X109016573Y-124521800D01*
X110947427Y-124521800D01*
X111143078Y-124502530D01*
X111394124Y-124426376D01*
X111625489Y-124302709D01*
X111828281Y-124136281D01*
X111994709Y-123933489D01*
X112118376Y-123702124D01*
X112194530Y-123451078D01*
X112220244Y-123190000D01*
X112194530Y-122928922D01*
X112118376Y-122677876D01*
X111994709Y-122446511D01*
X111828281Y-122243719D01*
X111625489Y-122077291D01*
X111394124Y-121953624D01*
X111143078Y-121877470D01*
X110947427Y-121858200D01*
X109016573Y-121858200D01*
X108820922Y-121877470D01*
X108569876Y-121953624D01*
X108338511Y-122077291D01*
X108135719Y-122243719D01*
X107969291Y-122446511D01*
X107845624Y-122677876D01*
X107769470Y-122928922D01*
X107743756Y-123190000D01*
X102489000Y-123190000D01*
X102489000Y-121722953D01*
X114985800Y-121722953D01*
X114985800Y-121863047D01*
X115013131Y-122000449D01*
X115066743Y-122129879D01*
X115144575Y-122246363D01*
X115243637Y-122345425D01*
X115360121Y-122423257D01*
X115489551Y-122476869D01*
X115626953Y-122504200D01*
X115767047Y-122504200D01*
X115904449Y-122476869D01*
X116033879Y-122423257D01*
X116150363Y-122345425D01*
X116249425Y-122246363D01*
X116327257Y-122129879D01*
X116380869Y-122000449D01*
X116408200Y-121863047D01*
X116408200Y-121722953D01*
X116380869Y-121585551D01*
X116327257Y-121456121D01*
X116249425Y-121339637D01*
X116150363Y-121240575D01*
X116033879Y-121162743D01*
X115904449Y-121109131D01*
X115767047Y-121081800D01*
X115626953Y-121081800D01*
X115489551Y-121109131D01*
X115360121Y-121162743D01*
X115243637Y-121240575D01*
X115144575Y-121339637D01*
X115066743Y-121456121D01*
X115013131Y-121585551D01*
X114985800Y-121722953D01*
X102489000Y-121722953D01*
X102489000Y-119380000D01*
X107743756Y-119380000D01*
X107769470Y-119641078D01*
X107845624Y-119892124D01*
X107969291Y-120123489D01*
X108135719Y-120326281D01*
X108338511Y-120492709D01*
X108569876Y-120616376D01*
X108820922Y-120692530D01*
X109016573Y-120711800D01*
X110947427Y-120711800D01*
X111143078Y-120692530D01*
X111394124Y-120616376D01*
X111625489Y-120492709D01*
X111828281Y-120326281D01*
X111994709Y-120123489D01*
X112118376Y-119892124D01*
X112194530Y-119641078D01*
X112220244Y-119380000D01*
X112194530Y-119118922D01*
X112118376Y-118867876D01*
X111994709Y-118636511D01*
X111828281Y-118433719D01*
X111816991Y-118424453D01*
X114982300Y-118424453D01*
X114982300Y-118564547D01*
X115009631Y-118701949D01*
X115063243Y-118831379D01*
X115141075Y-118947863D01*
X115240137Y-119046925D01*
X115356621Y-119124757D01*
X115486051Y-119178369D01*
X115623453Y-119205700D01*
X115763547Y-119205700D01*
X115900949Y-119178369D01*
X116030379Y-119124757D01*
X116146863Y-119046925D01*
X116245925Y-118947863D01*
X116323757Y-118831379D01*
X116377369Y-118701949D01*
X116404700Y-118564547D01*
X116404700Y-118424453D01*
X116377369Y-118287051D01*
X116323757Y-118157621D01*
X116245925Y-118041137D01*
X116146863Y-117942075D01*
X116030379Y-117864243D01*
X115900949Y-117810631D01*
X115763547Y-117783300D01*
X115623453Y-117783300D01*
X115486051Y-117810631D01*
X115356621Y-117864243D01*
X115240137Y-117942075D01*
X115141075Y-118041137D01*
X115063243Y-118157621D01*
X115009631Y-118287051D01*
X114982300Y-118424453D01*
X111816991Y-118424453D01*
X111625489Y-118267291D01*
X111394124Y-118143624D01*
X111143078Y-118067470D01*
X110947427Y-118048200D01*
X109016573Y-118048200D01*
X108820922Y-118067470D01*
X108569876Y-118143624D01*
X108338511Y-118267291D01*
X108135719Y-118433719D01*
X107969291Y-118636511D01*
X107845624Y-118867876D01*
X107769470Y-119118922D01*
X107743756Y-119380000D01*
X102489000Y-119380000D01*
X102489000Y-117531953D01*
X112572800Y-117531953D01*
X112572800Y-117672047D01*
X112600131Y-117809449D01*
X112653743Y-117938879D01*
X112731575Y-118055363D01*
X112830637Y-118154425D01*
X112947121Y-118232257D01*
X113076551Y-118285869D01*
X113213953Y-118313200D01*
X113354047Y-118313200D01*
X113491449Y-118285869D01*
X113620879Y-118232257D01*
X113737363Y-118154425D01*
X113836425Y-118055363D01*
X113914257Y-117938879D01*
X113919000Y-117927428D01*
X113923743Y-117938879D01*
X114001575Y-118055363D01*
X114100637Y-118154425D01*
X114217121Y-118232257D01*
X114346551Y-118285869D01*
X114483953Y-118313200D01*
X114624047Y-118313200D01*
X114761449Y-118285869D01*
X114890879Y-118232257D01*
X115007363Y-118154425D01*
X115106425Y-118055363D01*
X115184257Y-117938879D01*
X115237869Y-117809449D01*
X115265200Y-117672047D01*
X115265200Y-117531953D01*
X115237869Y-117394551D01*
X115184257Y-117265121D01*
X115106425Y-117148637D01*
X115007363Y-117049575D01*
X114890879Y-116971743D01*
X114761449Y-116918131D01*
X114624047Y-116890800D01*
X114483953Y-116890800D01*
X114346551Y-116918131D01*
X114217121Y-116971743D01*
X114100637Y-117049575D01*
X114001575Y-117148637D01*
X113923743Y-117265121D01*
X113919000Y-117276572D01*
X113914257Y-117265121D01*
X113836425Y-117148637D01*
X113737363Y-117049575D01*
X113620879Y-116971743D01*
X113491449Y-116918131D01*
X113354047Y-116890800D01*
X113213953Y-116890800D01*
X113076551Y-116918131D01*
X112947121Y-116971743D01*
X112830637Y-117049575D01*
X112731575Y-117148637D01*
X112653743Y-117265121D01*
X112600131Y-117394551D01*
X112572800Y-117531953D01*
X102489000Y-117531953D01*
X102489000Y-114920000D01*
X107748111Y-114920000D01*
X107748111Y-116220000D01*
X107761252Y-116353420D01*
X107800169Y-116481713D01*
X107863367Y-116599948D01*
X107948417Y-116703583D01*
X108052052Y-116788633D01*
X108170287Y-116851831D01*
X108298580Y-116890748D01*
X108432000Y-116903889D01*
X111532000Y-116903889D01*
X111665420Y-116890748D01*
X111793713Y-116851831D01*
X111911948Y-116788633D01*
X112015583Y-116703583D01*
X112100633Y-116599948D01*
X112163831Y-116481713D01*
X112202748Y-116353420D01*
X112215889Y-116220000D01*
X112215889Y-114920000D01*
X112202748Y-114786580D01*
X112163831Y-114658287D01*
X112100633Y-114540052D01*
X112015583Y-114436417D01*
X111911948Y-114351367D01*
X111793713Y-114288169D01*
X111665420Y-114249252D01*
X111532000Y-114236111D01*
X108432000Y-114236111D01*
X108298580Y-114249252D01*
X108170287Y-114288169D01*
X108052052Y-114351367D01*
X107948417Y-114436417D01*
X107863367Y-114540052D01*
X107800169Y-114658287D01*
X107761252Y-114786580D01*
X107748111Y-114920000D01*
X102489000Y-114920000D01*
X102489000Y-112324953D01*
X114985800Y-112324953D01*
X114985800Y-112465047D01*
X115013131Y-112602449D01*
X115066743Y-112731879D01*
X115144575Y-112848363D01*
X115243637Y-112947425D01*
X115360121Y-113025257D01*
X115489551Y-113078869D01*
X115626953Y-113106200D01*
X115767047Y-113106200D01*
X115904449Y-113078869D01*
X116033879Y-113025257D01*
X116150363Y-112947425D01*
X116249425Y-112848363D01*
X116327257Y-112731879D01*
X116380869Y-112602449D01*
X116408200Y-112465047D01*
X116408200Y-112324953D01*
X116380869Y-112187551D01*
X116327257Y-112058121D01*
X116249425Y-111941637D01*
X116150363Y-111842575D01*
X116033879Y-111764743D01*
X115904449Y-111711131D01*
X115767047Y-111683800D01*
X115626953Y-111683800D01*
X115489551Y-111711131D01*
X115360121Y-111764743D01*
X115243637Y-111842575D01*
X115144575Y-111941637D01*
X115066743Y-112058121D01*
X115013131Y-112187551D01*
X114985800Y-112324953D01*
X102489000Y-112324953D01*
X102489000Y-109026453D01*
X114982300Y-109026453D01*
X114982300Y-109166547D01*
X115009631Y-109303949D01*
X115063243Y-109433379D01*
X115141075Y-109549863D01*
X115240137Y-109648925D01*
X115356621Y-109726757D01*
X115486051Y-109780369D01*
X115623453Y-109807700D01*
X115763547Y-109807700D01*
X115900949Y-109780369D01*
X116030379Y-109726757D01*
X116146863Y-109648925D01*
X116245925Y-109549863D01*
X116323757Y-109433379D01*
X116377369Y-109303949D01*
X116404700Y-109166547D01*
X116404700Y-109026453D01*
X116377369Y-108889051D01*
X116323757Y-108759621D01*
X116245925Y-108643137D01*
X116244741Y-108641953D01*
X117652800Y-108641953D01*
X117652800Y-108782047D01*
X117680131Y-108919449D01*
X117733743Y-109048879D01*
X117811575Y-109165363D01*
X117910637Y-109264425D01*
X118027121Y-109342257D01*
X118156551Y-109395869D01*
X118293953Y-109423200D01*
X118434047Y-109423200D01*
X118571449Y-109395869D01*
X118700879Y-109342257D01*
X118817363Y-109264425D01*
X118916425Y-109165363D01*
X118994257Y-109048879D01*
X119047869Y-108919449D01*
X119075200Y-108782047D01*
X119075200Y-108641953D01*
X119430800Y-108641953D01*
X119430800Y-108782047D01*
X119458131Y-108919449D01*
X119511743Y-109048879D01*
X119589575Y-109165363D01*
X119688637Y-109264425D01*
X119805121Y-109342257D01*
X119934551Y-109395869D01*
X120071953Y-109423200D01*
X120212047Y-109423200D01*
X120349449Y-109395869D01*
X120478879Y-109342257D01*
X120595363Y-109264425D01*
X120694425Y-109165363D01*
X120772257Y-109048879D01*
X120825869Y-108919449D01*
X120853200Y-108782047D01*
X120853200Y-108641953D01*
X120825869Y-108504551D01*
X120772257Y-108375121D01*
X120694425Y-108258637D01*
X120595363Y-108159575D01*
X120478879Y-108081743D01*
X120349449Y-108028131D01*
X120212047Y-108000800D01*
X120071953Y-108000800D01*
X119934551Y-108028131D01*
X119805121Y-108081743D01*
X119688637Y-108159575D01*
X119589575Y-108258637D01*
X119511743Y-108375121D01*
X119458131Y-108504551D01*
X119430800Y-108641953D01*
X119075200Y-108641953D01*
X119047869Y-108504551D01*
X118994257Y-108375121D01*
X118916425Y-108258637D01*
X118817363Y-108159575D01*
X118700879Y-108081743D01*
X118571449Y-108028131D01*
X118434047Y-108000800D01*
X118293953Y-108000800D01*
X118156551Y-108028131D01*
X118027121Y-108081743D01*
X117910637Y-108159575D01*
X117811575Y-108258637D01*
X117733743Y-108375121D01*
X117680131Y-108504551D01*
X117652800Y-108641953D01*
X116244741Y-108641953D01*
X116146863Y-108544075D01*
X116030379Y-108466243D01*
X115900949Y-108412631D01*
X115763547Y-108385300D01*
X115623453Y-108385300D01*
X115486051Y-108412631D01*
X115356621Y-108466243D01*
X115240137Y-108544075D01*
X115141075Y-108643137D01*
X115063243Y-108759621D01*
X115009631Y-108889051D01*
X114982300Y-109026453D01*
X102489000Y-109026453D01*
X102489000Y-107894428D01*
X102493743Y-107905879D01*
X102571575Y-108022363D01*
X102670637Y-108121425D01*
X102787121Y-108199257D01*
X102916551Y-108252869D01*
X103053953Y-108280200D01*
X103194047Y-108280200D01*
X103331449Y-108252869D01*
X103460879Y-108199257D01*
X103577363Y-108121425D01*
X103676425Y-108022363D01*
X103754257Y-107905879D01*
X103807869Y-107776449D01*
X103835200Y-107639047D01*
X103835200Y-107498953D01*
X103936800Y-107498953D01*
X103936800Y-107639047D01*
X103964131Y-107776449D01*
X104017743Y-107905879D01*
X104095575Y-108022363D01*
X104194637Y-108121425D01*
X104311121Y-108199257D01*
X104440551Y-108252869D01*
X104577953Y-108280200D01*
X104718047Y-108280200D01*
X104855449Y-108252869D01*
X104984879Y-108199257D01*
X105101363Y-108121425D01*
X105200425Y-108022363D01*
X105278257Y-107905879D01*
X105331869Y-107776449D01*
X105359200Y-107639047D01*
X105359200Y-107498953D01*
X106095800Y-107498953D01*
X106095800Y-107639047D01*
X106123131Y-107776449D01*
X106176743Y-107905879D01*
X106254575Y-108022363D01*
X106353637Y-108121425D01*
X106470121Y-108199257D01*
X106599551Y-108252869D01*
X106736953Y-108280200D01*
X106877047Y-108280200D01*
X107014449Y-108252869D01*
X107143879Y-108199257D01*
X107260363Y-108121425D01*
X107359425Y-108022363D01*
X107437257Y-107905879D01*
X107442000Y-107894428D01*
X107446743Y-107905879D01*
X107524575Y-108022363D01*
X107623637Y-108121425D01*
X107740121Y-108199257D01*
X107869551Y-108252869D01*
X108006953Y-108280200D01*
X108147047Y-108280200D01*
X108284449Y-108252869D01*
X108413879Y-108199257D01*
X108530363Y-108121425D01*
X108629425Y-108022363D01*
X108707257Y-107905879D01*
X108712000Y-107894428D01*
X108716743Y-107905879D01*
X108794575Y-108022363D01*
X108893637Y-108121425D01*
X109010121Y-108199257D01*
X109139551Y-108252869D01*
X109276953Y-108280200D01*
X109417047Y-108280200D01*
X109554449Y-108252869D01*
X109683879Y-108199257D01*
X109800363Y-108121425D01*
X109899425Y-108022363D01*
X109977257Y-107905879D01*
X110030869Y-107776449D01*
X110058200Y-107639047D01*
X110058200Y-107625953D01*
X114096800Y-107625953D01*
X114096800Y-107766047D01*
X114124131Y-107903449D01*
X114177743Y-108032879D01*
X114255575Y-108149363D01*
X114354637Y-108248425D01*
X114471121Y-108326257D01*
X114600551Y-108379869D01*
X114737953Y-108407200D01*
X114878047Y-108407200D01*
X115015449Y-108379869D01*
X115144879Y-108326257D01*
X115261363Y-108248425D01*
X115360425Y-108149363D01*
X115438257Y-108032879D01*
X115491869Y-107903449D01*
X115519200Y-107766047D01*
X115519200Y-107625953D01*
X116128800Y-107625953D01*
X116128800Y-107766047D01*
X116156131Y-107903449D01*
X116209743Y-108032879D01*
X116287575Y-108149363D01*
X116386637Y-108248425D01*
X116503121Y-108326257D01*
X116632551Y-108379869D01*
X116769953Y-108407200D01*
X116910047Y-108407200D01*
X117047449Y-108379869D01*
X117176879Y-108326257D01*
X117293363Y-108248425D01*
X117392425Y-108149363D01*
X117470257Y-108032879D01*
X117523869Y-107903449D01*
X117551200Y-107766047D01*
X117551200Y-107625953D01*
X117523869Y-107488551D01*
X117470257Y-107359121D01*
X117392425Y-107242637D01*
X117293363Y-107143575D01*
X117176879Y-107065743D01*
X117047449Y-107012131D01*
X116910047Y-106984800D01*
X116769953Y-106984800D01*
X116632551Y-107012131D01*
X116503121Y-107065743D01*
X116386637Y-107143575D01*
X116287575Y-107242637D01*
X116209743Y-107359121D01*
X116156131Y-107488551D01*
X116128800Y-107625953D01*
X115519200Y-107625953D01*
X115491869Y-107488551D01*
X115438257Y-107359121D01*
X115360425Y-107242637D01*
X115261363Y-107143575D01*
X115144879Y-107065743D01*
X115015449Y-107012131D01*
X114878047Y-106984800D01*
X114737953Y-106984800D01*
X114600551Y-107012131D01*
X114471121Y-107065743D01*
X114354637Y-107143575D01*
X114255575Y-107242637D01*
X114177743Y-107359121D01*
X114124131Y-107488551D01*
X114096800Y-107625953D01*
X110058200Y-107625953D01*
X110058200Y-107498953D01*
X110030869Y-107361551D01*
X109977257Y-107232121D01*
X109899425Y-107115637D01*
X109800363Y-107016575D01*
X109683879Y-106938743D01*
X109554449Y-106885131D01*
X109417047Y-106857800D01*
X109276953Y-106857800D01*
X109139551Y-106885131D01*
X109010121Y-106938743D01*
X108893637Y-107016575D01*
X108794575Y-107115637D01*
X108716743Y-107232121D01*
X108712000Y-107243572D01*
X108707257Y-107232121D01*
X108629425Y-107115637D01*
X108530363Y-107016575D01*
X108413879Y-106938743D01*
X108284449Y-106885131D01*
X108147047Y-106857800D01*
X108006953Y-106857800D01*
X107869551Y-106885131D01*
X107740121Y-106938743D01*
X107623637Y-107016575D01*
X107524575Y-107115637D01*
X107446743Y-107232121D01*
X107442000Y-107243572D01*
X107437257Y-107232121D01*
X107359425Y-107115637D01*
X107260363Y-107016575D01*
X107143879Y-106938743D01*
X107014449Y-106885131D01*
X106877047Y-106857800D01*
X106736953Y-106857800D01*
X106599551Y-106885131D01*
X106470121Y-106938743D01*
X106353637Y-107016575D01*
X106254575Y-107115637D01*
X106176743Y-107232121D01*
X106123131Y-107361551D01*
X106095800Y-107498953D01*
X105359200Y-107498953D01*
X105331869Y-107361551D01*
X105278257Y-107232121D01*
X105200425Y-107115637D01*
X105101363Y-107016575D01*
X104984879Y-106938743D01*
X104855449Y-106885131D01*
X104718047Y-106857800D01*
X104577953Y-106857800D01*
X104440551Y-106885131D01*
X104311121Y-106938743D01*
X104194637Y-107016575D01*
X104095575Y-107115637D01*
X104017743Y-107232121D01*
X103964131Y-107361551D01*
X103936800Y-107498953D01*
X103835200Y-107498953D01*
X103807869Y-107361551D01*
X103754257Y-107232121D01*
X103676425Y-107115637D01*
X103577363Y-107016575D01*
X103460879Y-106938743D01*
X103331449Y-106885131D01*
X103194047Y-106857800D01*
X103053953Y-106857800D01*
X102916551Y-106885131D01*
X102787121Y-106938743D01*
X102670637Y-107016575D01*
X102571575Y-107115637D01*
X102493743Y-107232121D01*
X102489000Y-107243572D01*
X102489000Y-102306428D01*
X102493743Y-102317879D01*
X102571575Y-102434363D01*
X102670637Y-102533425D01*
X102787121Y-102611257D01*
X102916551Y-102664869D01*
X103053953Y-102692200D01*
X103194047Y-102692200D01*
X103331449Y-102664869D01*
X103460879Y-102611257D01*
X103577363Y-102533425D01*
X103676425Y-102434363D01*
X103754257Y-102317879D01*
X103807869Y-102188449D01*
X103835200Y-102051047D01*
X103835200Y-101910953D01*
X103936800Y-101910953D01*
X103936800Y-102051047D01*
X103964131Y-102188449D01*
X104017743Y-102317879D01*
X104095575Y-102434363D01*
X104194637Y-102533425D01*
X104311121Y-102611257D01*
X104440551Y-102664869D01*
X104577953Y-102692200D01*
X104718047Y-102692200D01*
X104855449Y-102664869D01*
X104984879Y-102611257D01*
X105101363Y-102533425D01*
X105200425Y-102434363D01*
X105278257Y-102317879D01*
X105331869Y-102188449D01*
X105359200Y-102051047D01*
X105359200Y-101910953D01*
X105331869Y-101773551D01*
X105278257Y-101644121D01*
X105200425Y-101527637D01*
X105101363Y-101428575D01*
X104984879Y-101350743D01*
X104855449Y-101297131D01*
X104718047Y-101269800D01*
X104577953Y-101269800D01*
X104440551Y-101297131D01*
X104311121Y-101350743D01*
X104194637Y-101428575D01*
X104095575Y-101527637D01*
X104017743Y-101644121D01*
X103964131Y-101773551D01*
X103936800Y-101910953D01*
X103835200Y-101910953D01*
X103807869Y-101773551D01*
X103754257Y-101644121D01*
X103676425Y-101527637D01*
X103577363Y-101428575D01*
X103460879Y-101350743D01*
X103331449Y-101297131D01*
X103194047Y-101269800D01*
X103053953Y-101269800D01*
X102916551Y-101297131D01*
X102787121Y-101350743D01*
X102670637Y-101428575D01*
X102571575Y-101527637D01*
X102493743Y-101644121D01*
X102489000Y-101655572D01*
X102489000Y-100020428D01*
X102493743Y-100031879D01*
X102571575Y-100148363D01*
X102670637Y-100247425D01*
X102787121Y-100325257D01*
X102916551Y-100378869D01*
X103053953Y-100406200D01*
X103194047Y-100406200D01*
X103331449Y-100378869D01*
X103460879Y-100325257D01*
X103577363Y-100247425D01*
X103676425Y-100148363D01*
X103754257Y-100031879D01*
X103807869Y-99902449D01*
X103835200Y-99765047D01*
X103835200Y-99624953D01*
X103807869Y-99487551D01*
X103754257Y-99358121D01*
X103676425Y-99241637D01*
X103577363Y-99142575D01*
X103460879Y-99064743D01*
X103449428Y-99060000D01*
X103460879Y-99055257D01*
X103577363Y-98977425D01*
X103676425Y-98878363D01*
X103754257Y-98761879D01*
X103807869Y-98632449D01*
X103835200Y-98495047D01*
X103835200Y-98354953D01*
X103807869Y-98217551D01*
X103754257Y-98088121D01*
X103676425Y-97971637D01*
X103577363Y-97872575D01*
X103460879Y-97794743D01*
X103449428Y-97790000D01*
X103460879Y-97785257D01*
X103558613Y-97719953D01*
X113461800Y-97719953D01*
X113461800Y-97860047D01*
X113489131Y-97997449D01*
X113542743Y-98126879D01*
X113620575Y-98243363D01*
X113719637Y-98342425D01*
X113836121Y-98420257D01*
X113847572Y-98425000D01*
X113836121Y-98429743D01*
X113719637Y-98507575D01*
X113620575Y-98606637D01*
X113542743Y-98723121D01*
X113489131Y-98852551D01*
X113461800Y-98989953D01*
X113461800Y-99130047D01*
X113489131Y-99267449D01*
X113542743Y-99396879D01*
X113620575Y-99513363D01*
X113719637Y-99612425D01*
X113836121Y-99690257D01*
X113965551Y-99743869D01*
X114102953Y-99771200D01*
X114243047Y-99771200D01*
X114380449Y-99743869D01*
X114509879Y-99690257D01*
X114626363Y-99612425D01*
X114725425Y-99513363D01*
X114803257Y-99396879D01*
X114856869Y-99267449D01*
X114884200Y-99130047D01*
X114884200Y-98989953D01*
X114856869Y-98852551D01*
X114803257Y-98723121D01*
X114725425Y-98606637D01*
X114626363Y-98507575D01*
X114509879Y-98429743D01*
X114498428Y-98425000D01*
X114509879Y-98420257D01*
X114626363Y-98342425D01*
X114725425Y-98243363D01*
X114803257Y-98126879D01*
X114856869Y-97997449D01*
X114884200Y-97860047D01*
X114884200Y-97719953D01*
X114856869Y-97582551D01*
X114803257Y-97453121D01*
X114725425Y-97336637D01*
X114626363Y-97237575D01*
X114509879Y-97159743D01*
X114380449Y-97106131D01*
X114243047Y-97078800D01*
X114102953Y-97078800D01*
X113965551Y-97106131D01*
X113836121Y-97159743D01*
X113719637Y-97237575D01*
X113620575Y-97336637D01*
X113542743Y-97453121D01*
X113489131Y-97582551D01*
X113461800Y-97719953D01*
X103558613Y-97719953D01*
X103577363Y-97707425D01*
X103676425Y-97608363D01*
X103754257Y-97491879D01*
X103807869Y-97362449D01*
X103835200Y-97225047D01*
X103835200Y-97084953D01*
X103807869Y-96947551D01*
X103754257Y-96818121D01*
X103676425Y-96701637D01*
X103577363Y-96602575D01*
X103460879Y-96524743D01*
X103331449Y-96471131D01*
X103194047Y-96443800D01*
X103053953Y-96443800D01*
X102916551Y-96471131D01*
X102787121Y-96524743D01*
X102670637Y-96602575D01*
X102571575Y-96701637D01*
X102493743Y-96818121D01*
X102489000Y-96829572D01*
X102489000Y-95194428D01*
X102493743Y-95205879D01*
X102571575Y-95322363D01*
X102670637Y-95421425D01*
X102787121Y-95499257D01*
X102916551Y-95552869D01*
X103053953Y-95580200D01*
X103194047Y-95580200D01*
X103331449Y-95552869D01*
X103460879Y-95499257D01*
X103577363Y-95421425D01*
X103676425Y-95322363D01*
X103754257Y-95205879D01*
X103807869Y-95076449D01*
X103835200Y-94939047D01*
X103835200Y-94798953D01*
X103936800Y-94798953D01*
X103936800Y-94939047D01*
X103964131Y-95076449D01*
X104017743Y-95205879D01*
X104095575Y-95322363D01*
X104194637Y-95421425D01*
X104311121Y-95499257D01*
X104440551Y-95552869D01*
X104577953Y-95580200D01*
X104718047Y-95580200D01*
X104855449Y-95552869D01*
X104984879Y-95499257D01*
X105101363Y-95421425D01*
X105200425Y-95322363D01*
X105278257Y-95205879D01*
X105331869Y-95076449D01*
X105359200Y-94939047D01*
X105359200Y-94798953D01*
X105331869Y-94661551D01*
X105278257Y-94532121D01*
X105200425Y-94415637D01*
X105101363Y-94316575D01*
X104984879Y-94238743D01*
X104855449Y-94185131D01*
X104718047Y-94157800D01*
X104577953Y-94157800D01*
X104440551Y-94185131D01*
X104311121Y-94238743D01*
X104194637Y-94316575D01*
X104095575Y-94415637D01*
X104017743Y-94532121D01*
X103964131Y-94661551D01*
X103936800Y-94798953D01*
X103835200Y-94798953D01*
X103807869Y-94661551D01*
X103754257Y-94532121D01*
X103676425Y-94415637D01*
X103577363Y-94316575D01*
X103460879Y-94238743D01*
X103331449Y-94185131D01*
X103194047Y-94157800D01*
X103053953Y-94157800D01*
X102916551Y-94185131D01*
X102787121Y-94238743D01*
X102670637Y-94316575D01*
X102571575Y-94415637D01*
X102493743Y-94532121D01*
X102489000Y-94543572D01*
X102489000Y-89606428D01*
X102493743Y-89617879D01*
X102571575Y-89734363D01*
X102670637Y-89833425D01*
X102787121Y-89911257D01*
X102916551Y-89964869D01*
X103053953Y-89992200D01*
X103194047Y-89992200D01*
X103331449Y-89964869D01*
X103460879Y-89911257D01*
X103577363Y-89833425D01*
X103676425Y-89734363D01*
X103754257Y-89617879D01*
X103807869Y-89488449D01*
X103835200Y-89351047D01*
X103835200Y-89210953D01*
X103936800Y-89210953D01*
X103936800Y-89351047D01*
X103964131Y-89488449D01*
X104017743Y-89617879D01*
X104095575Y-89734363D01*
X104194637Y-89833425D01*
X104311121Y-89911257D01*
X104440551Y-89964869D01*
X104577953Y-89992200D01*
X104718047Y-89992200D01*
X104855449Y-89964869D01*
X104984879Y-89911257D01*
X105101363Y-89833425D01*
X105200425Y-89734363D01*
X105278257Y-89617879D01*
X105331869Y-89488449D01*
X105359200Y-89351047D01*
X105359200Y-89210953D01*
X106095800Y-89210953D01*
X106095800Y-89351047D01*
X106123131Y-89488449D01*
X106176743Y-89617879D01*
X106254575Y-89734363D01*
X106353637Y-89833425D01*
X106470121Y-89911257D01*
X106599551Y-89964869D01*
X106736953Y-89992200D01*
X106877047Y-89992200D01*
X107014449Y-89964869D01*
X107143879Y-89911257D01*
X107260363Y-89833425D01*
X107359425Y-89734363D01*
X107437257Y-89617879D01*
X107442000Y-89606428D01*
X107446743Y-89617879D01*
X107524575Y-89734363D01*
X107623637Y-89833425D01*
X107740121Y-89911257D01*
X107869551Y-89964869D01*
X108006953Y-89992200D01*
X108147047Y-89992200D01*
X108284449Y-89964869D01*
X108413879Y-89911257D01*
X108530363Y-89833425D01*
X108629425Y-89734363D01*
X108707257Y-89617879D01*
X108712000Y-89606428D01*
X108716743Y-89617879D01*
X108794575Y-89734363D01*
X108893637Y-89833425D01*
X109010121Y-89911257D01*
X109139551Y-89964869D01*
X109276953Y-89992200D01*
X109417047Y-89992200D01*
X109545882Y-89966573D01*
X112206200Y-89966573D01*
X112206200Y-91897426D01*
X112225470Y-92093077D01*
X112301624Y-92344123D01*
X112425291Y-92575488D01*
X112591719Y-92778281D01*
X112794511Y-92944709D01*
X113025876Y-93068376D01*
X113276922Y-93144530D01*
X113538000Y-93170244D01*
X113799077Y-93144530D01*
X114050123Y-93068376D01*
X114281488Y-92944709D01*
X114484281Y-92778281D01*
X114650709Y-92575489D01*
X114774376Y-92344124D01*
X114850530Y-92093078D01*
X114869800Y-91897427D01*
X114869800Y-89966573D01*
X116016200Y-89966573D01*
X116016200Y-91897426D01*
X116035470Y-92093077D01*
X116111624Y-92344123D01*
X116235291Y-92575488D01*
X116401719Y-92778281D01*
X116604511Y-92944709D01*
X116835876Y-93068376D01*
X117086922Y-93144530D01*
X117348000Y-93170244D01*
X117609077Y-93144530D01*
X117860123Y-93068376D01*
X118091488Y-92944709D01*
X118294281Y-92778281D01*
X118460709Y-92575489D01*
X118584376Y-92344124D01*
X118660530Y-92093078D01*
X118679800Y-91897427D01*
X118679800Y-89966573D01*
X119826200Y-89966573D01*
X119826200Y-91897426D01*
X119845470Y-92093077D01*
X119921624Y-92344123D01*
X120045291Y-92575488D01*
X120211719Y-92778281D01*
X120414511Y-92944709D01*
X120645876Y-93068376D01*
X120896922Y-93144530D01*
X121158000Y-93170244D01*
X121419077Y-93144530D01*
X121670123Y-93068376D01*
X121901488Y-92944709D01*
X122104281Y-92778281D01*
X122270709Y-92575489D01*
X122394376Y-92344124D01*
X122470530Y-92093078D01*
X122489800Y-91897427D01*
X122489800Y-89966573D01*
X122470530Y-89770922D01*
X122394376Y-89519876D01*
X122270709Y-89288511D01*
X122104281Y-89085719D01*
X121901489Y-88919291D01*
X121670124Y-88795624D01*
X121419078Y-88719470D01*
X121158000Y-88693756D01*
X120896923Y-88719470D01*
X120645877Y-88795624D01*
X120414512Y-88919291D01*
X120211720Y-89085719D01*
X120045292Y-89288511D01*
X119921625Y-89519876D01*
X119845471Y-89770922D01*
X119826200Y-89966573D01*
X118679800Y-89966573D01*
X118660530Y-89770922D01*
X118584376Y-89519876D01*
X118460709Y-89288511D01*
X118294281Y-89085719D01*
X118091489Y-88919291D01*
X117860124Y-88795624D01*
X117609078Y-88719470D01*
X117348000Y-88693756D01*
X117086923Y-88719470D01*
X116835877Y-88795624D01*
X116604512Y-88919291D01*
X116401720Y-89085719D01*
X116235292Y-89288511D01*
X116111625Y-89519876D01*
X116035471Y-89770922D01*
X116016200Y-89966573D01*
X114869800Y-89966573D01*
X114850530Y-89770922D01*
X114774376Y-89519876D01*
X114650709Y-89288511D01*
X114484281Y-89085719D01*
X114281489Y-88919291D01*
X114050124Y-88795624D01*
X113799078Y-88719470D01*
X113538000Y-88693756D01*
X113276923Y-88719470D01*
X113025877Y-88795624D01*
X112794512Y-88919291D01*
X112591720Y-89085719D01*
X112425292Y-89288511D01*
X112301625Y-89519876D01*
X112225471Y-89770922D01*
X112206200Y-89966573D01*
X109545882Y-89966573D01*
X109554449Y-89964869D01*
X109683879Y-89911257D01*
X109800363Y-89833425D01*
X109899425Y-89734363D01*
X109977257Y-89617879D01*
X110030869Y-89488449D01*
X110058200Y-89351047D01*
X110058200Y-89210953D01*
X110030869Y-89073551D01*
X109977257Y-88944121D01*
X109899425Y-88827637D01*
X109800363Y-88728575D01*
X109683879Y-88650743D01*
X109554449Y-88597131D01*
X109417047Y-88569800D01*
X109276953Y-88569800D01*
X109139551Y-88597131D01*
X109010121Y-88650743D01*
X108893637Y-88728575D01*
X108794575Y-88827637D01*
X108716743Y-88944121D01*
X108712000Y-88955572D01*
X108707257Y-88944121D01*
X108629425Y-88827637D01*
X108530363Y-88728575D01*
X108413879Y-88650743D01*
X108284449Y-88597131D01*
X108147047Y-88569800D01*
X108006953Y-88569800D01*
X107869551Y-88597131D01*
X107740121Y-88650743D01*
X107623637Y-88728575D01*
X107524575Y-88827637D01*
X107446743Y-88944121D01*
X107442000Y-88955572D01*
X107437257Y-88944121D01*
X107359425Y-88827637D01*
X107260363Y-88728575D01*
X107143879Y-88650743D01*
X107014449Y-88597131D01*
X106877047Y-88569800D01*
X106736953Y-88569800D01*
X106599551Y-88597131D01*
X106470121Y-88650743D01*
X106353637Y-88728575D01*
X106254575Y-88827637D01*
X106176743Y-88944121D01*
X106123131Y-89073551D01*
X106095800Y-89210953D01*
X105359200Y-89210953D01*
X105331869Y-89073551D01*
X105278257Y-88944121D01*
X105200425Y-88827637D01*
X105101363Y-88728575D01*
X104984879Y-88650743D01*
X104855449Y-88597131D01*
X104718047Y-88569800D01*
X104577953Y-88569800D01*
X104440551Y-88597131D01*
X104311121Y-88650743D01*
X104194637Y-88728575D01*
X104095575Y-88827637D01*
X104017743Y-88944121D01*
X103964131Y-89073551D01*
X103936800Y-89210953D01*
X103835200Y-89210953D01*
X103807869Y-89073551D01*
X103754257Y-88944121D01*
X103676425Y-88827637D01*
X103577363Y-88728575D01*
X103460879Y-88650743D01*
X103331449Y-88597131D01*
X103194047Y-88569800D01*
X103053953Y-88569800D01*
X102916551Y-88597131D01*
X102787121Y-88650743D01*
X102670637Y-88728575D01*
X102571575Y-88827637D01*
X102493743Y-88944121D01*
X102489000Y-88955572D01*
X102489000Y-84927938D01*
X102494562Y-84927938D01*
X102494562Y-85252062D01*
X102557795Y-85569957D01*
X102681831Y-85869407D01*
X102861905Y-86138906D01*
X103091094Y-86368095D01*
X103360593Y-86548169D01*
X103660043Y-86672205D01*
X103977938Y-86735438D01*
X104302062Y-86735438D01*
X104619957Y-86672205D01*
X104919407Y-86548169D01*
X105188906Y-86368095D01*
X105418095Y-86138906D01*
X105598169Y-85869407D01*
X105722205Y-85569957D01*
X105785438Y-85252062D01*
X105785438Y-84927938D01*
X105722205Y-84610043D01*
X105598169Y-84310593D01*
X105418095Y-84041094D01*
X105188906Y-83811905D01*
X104919407Y-83631831D01*
X104619957Y-83507795D01*
X104302062Y-83444562D01*
X103977938Y-83444562D01*
X103660043Y-83507795D01*
X103360593Y-83631831D01*
X103091094Y-83811905D01*
X102861905Y-84041094D01*
X102681831Y-84310593D01*
X102557795Y-84610043D01*
X102494562Y-84927938D01*
X102489000Y-84927938D01*
X102489000Y-83185000D01*
X124333000Y-83185000D01*
X124333000Y-88861303D01*
M02*
