G04 #@! TF.GenerationSoftware,KiCad,Pcbnew,(5.1.5)-2*
G04 #@! TF.CreationDate,2020-08-01T22:44:24+08:00*
G04 #@! TF.ProjectId,Module_ADS1263,4d6f6475-6c65-45f4-9144-53313236332e,rev?*
G04 #@! TF.SameCoordinates,Original*
G04 #@! TF.FileFunction,Legend,Bot*
G04 #@! TF.FilePolarity,Positive*
%FSLAX46Y46*%
G04 Gerber Fmt 4.6, Leading zero omitted, Abs format (unit mm)*
G04 Created by KiCad (PCBNEW (5.1.5)-2) date 2020-08-01 22:44:24*
%MOMM*%
%LPD*%
G04 APERTURE LIST*
%ADD10C,0.203200*%
%ADD11C,0.177800*%
%ADD12C,0.010000*%
G04 APERTURE END LIST*
D10*
X132237238Y-103994857D02*
X132285619Y-104043238D01*
X132430761Y-104091619D01*
X132527523Y-104091619D01*
X132672666Y-104043238D01*
X132769428Y-103946476D01*
X132817809Y-103849714D01*
X132866190Y-103656190D01*
X132866190Y-103511047D01*
X132817809Y-103317523D01*
X132769428Y-103220761D01*
X132672666Y-103124000D01*
X132527523Y-103075619D01*
X132430761Y-103075619D01*
X132285619Y-103124000D01*
X132237238Y-103172380D01*
X131801809Y-104091619D02*
X131801809Y-103075619D01*
X131221238Y-104091619D01*
X131221238Y-103075619D01*
X130737428Y-104091619D02*
X130737428Y-103075619D01*
X130350380Y-103075619D01*
X130253619Y-103124000D01*
X130205238Y-103172380D01*
X130156857Y-103269142D01*
X130156857Y-103414285D01*
X130205238Y-103511047D01*
X130253619Y-103559428D01*
X130350380Y-103607809D01*
X130737428Y-103607809D01*
X129721428Y-104091619D02*
X129721428Y-103075619D01*
X129334380Y-103075619D01*
X129237619Y-103124000D01*
X129189238Y-103172380D01*
X129140857Y-103269142D01*
X129140857Y-103414285D01*
X129189238Y-103511047D01*
X129237619Y-103559428D01*
X129334380Y-103607809D01*
X129721428Y-103607809D01*
X128753809Y-104043238D02*
X128657047Y-104091619D01*
X128463523Y-104091619D01*
X128366761Y-104043238D01*
X128318380Y-103946476D01*
X128318380Y-103898095D01*
X128366761Y-103801333D01*
X128463523Y-103752952D01*
X128608666Y-103752952D01*
X128705428Y-103704571D01*
X128753809Y-103607809D01*
X128753809Y-103559428D01*
X128705428Y-103462666D01*
X128608666Y-103414285D01*
X128463523Y-103414285D01*
X128366761Y-103462666D01*
X126770190Y-103559428D02*
X127108857Y-103559428D01*
X127108857Y-104091619D02*
X127108857Y-103075619D01*
X126625047Y-103075619D01*
X126238000Y-104091619D02*
X126238000Y-103414285D01*
X126238000Y-103075619D02*
X126286380Y-103124000D01*
X126238000Y-103172380D01*
X126189619Y-103124000D01*
X126238000Y-103075619D01*
X126238000Y-103172380D01*
X125754190Y-104091619D02*
X125754190Y-103414285D01*
X125754190Y-103607809D02*
X125705809Y-103511047D01*
X125657428Y-103462666D01*
X125560666Y-103414285D01*
X125463904Y-103414285D01*
X125173619Y-104043238D02*
X125076857Y-104091619D01*
X124883333Y-104091619D01*
X124786571Y-104043238D01*
X124738190Y-103946476D01*
X124738190Y-103898095D01*
X124786571Y-103801333D01*
X124883333Y-103752952D01*
X125028476Y-103752952D01*
X125125238Y-103704571D01*
X125173619Y-103607809D01*
X125173619Y-103559428D01*
X125125238Y-103462666D01*
X125028476Y-103414285D01*
X124883333Y-103414285D01*
X124786571Y-103462666D01*
X124447904Y-103414285D02*
X124060857Y-103414285D01*
X124302761Y-103075619D02*
X124302761Y-103946476D01*
X124254380Y-104043238D01*
X124157619Y-104091619D01*
X124060857Y-104091619D01*
X122512666Y-103414285D02*
X122512666Y-104091619D01*
X122754571Y-103027238D02*
X122996476Y-103752952D01*
X122367523Y-103752952D01*
X121980476Y-103704571D02*
X121206380Y-103704571D01*
X120238761Y-104091619D02*
X120722571Y-104091619D01*
X120722571Y-103075619D01*
X119464666Y-104091619D02*
X119464666Y-103559428D01*
X119513047Y-103462666D01*
X119609809Y-103414285D01*
X119803333Y-103414285D01*
X119900095Y-103462666D01*
X119464666Y-104043238D02*
X119561428Y-104091619D01*
X119803333Y-104091619D01*
X119900095Y-104043238D01*
X119948476Y-103946476D01*
X119948476Y-103849714D01*
X119900095Y-103752952D01*
X119803333Y-103704571D01*
X119561428Y-103704571D01*
X119464666Y-103656190D01*
X119077619Y-103414285D02*
X118835714Y-104091619D01*
X118593809Y-103414285D02*
X118835714Y-104091619D01*
X118932476Y-104333523D01*
X118980857Y-104381904D01*
X119077619Y-104430285D01*
X117819714Y-104043238D02*
X117916476Y-104091619D01*
X118110000Y-104091619D01*
X118206761Y-104043238D01*
X118255142Y-103946476D01*
X118255142Y-103559428D01*
X118206761Y-103462666D01*
X118110000Y-103414285D01*
X117916476Y-103414285D01*
X117819714Y-103462666D01*
X117771333Y-103559428D01*
X117771333Y-103656190D01*
X118255142Y-103752952D01*
X117335904Y-104091619D02*
X117335904Y-103414285D01*
X117335904Y-103607809D02*
X117287523Y-103511047D01*
X117239142Y-103462666D01*
X117142380Y-103414285D01*
X117045619Y-103414285D01*
X116755333Y-104043238D02*
X116658571Y-104091619D01*
X116465047Y-104091619D01*
X116368285Y-104043238D01*
X116319904Y-103946476D01*
X116319904Y-103898095D01*
X116368285Y-103801333D01*
X116465047Y-103752952D01*
X116610190Y-103752952D01*
X116706952Y-103704571D01*
X116755333Y-103607809D01*
X116755333Y-103559428D01*
X116706952Y-103462666D01*
X116610190Y-103414285D01*
X116465047Y-103414285D01*
X116368285Y-103462666D01*
X115110380Y-104091619D02*
X115110380Y-103075619D01*
X114723333Y-103075619D01*
X114626571Y-103124000D01*
X114578190Y-103172380D01*
X114529809Y-103269142D01*
X114529809Y-103414285D01*
X114578190Y-103511047D01*
X114626571Y-103559428D01*
X114723333Y-103607809D01*
X115110380Y-103607809D01*
X113513809Y-103994857D02*
X113562190Y-104043238D01*
X113707333Y-104091619D01*
X113804095Y-104091619D01*
X113949238Y-104043238D01*
X114046000Y-103946476D01*
X114094380Y-103849714D01*
X114142761Y-103656190D01*
X114142761Y-103511047D01*
X114094380Y-103317523D01*
X114046000Y-103220761D01*
X113949238Y-103124000D01*
X113804095Y-103075619D01*
X113707333Y-103075619D01*
X113562190Y-103124000D01*
X113513809Y-103172380D01*
X112739714Y-103559428D02*
X112594571Y-103607809D01*
X112546190Y-103656190D01*
X112497809Y-103752952D01*
X112497809Y-103898095D01*
X112546190Y-103994857D01*
X112594571Y-104043238D01*
X112691333Y-104091619D01*
X113078380Y-104091619D01*
X113078380Y-103075619D01*
X112739714Y-103075619D01*
X112642952Y-103124000D01*
X112594571Y-103172380D01*
X112546190Y-103269142D01*
X112546190Y-103365904D01*
X112594571Y-103462666D01*
X112642952Y-103511047D01*
X112739714Y-103559428D01*
X113078380Y-103559428D01*
X128850571Y-101382285D02*
X128657047Y-102059619D01*
X128463523Y-101575809D01*
X128270000Y-102059619D01*
X128076476Y-101382285D01*
X127786190Y-101382285D02*
X127592666Y-102059619D01*
X127399142Y-101575809D01*
X127205619Y-102059619D01*
X127012095Y-101382285D01*
X126721809Y-101382285D02*
X126528285Y-102059619D01*
X126334761Y-101575809D01*
X126141238Y-102059619D01*
X125947714Y-101382285D01*
X125560666Y-101962857D02*
X125512285Y-102011238D01*
X125560666Y-102059619D01*
X125609047Y-102011238D01*
X125560666Y-101962857D01*
X125560666Y-102059619D01*
X124689809Y-102011238D02*
X124786571Y-102059619D01*
X124980095Y-102059619D01*
X125076857Y-102011238D01*
X125125238Y-101914476D01*
X125125238Y-101527428D01*
X125076857Y-101430666D01*
X124980095Y-101382285D01*
X124786571Y-101382285D01*
X124689809Y-101430666D01*
X124641428Y-101527428D01*
X124641428Y-101624190D01*
X125125238Y-101720952D01*
X124206000Y-102059619D02*
X124206000Y-101382285D01*
X124206000Y-101479047D02*
X124157619Y-101430666D01*
X124060857Y-101382285D01*
X123915714Y-101382285D01*
X123818952Y-101430666D01*
X123770571Y-101527428D01*
X123770571Y-102059619D01*
X123770571Y-101527428D02*
X123722190Y-101430666D01*
X123625428Y-101382285D01*
X123480285Y-101382285D01*
X123383523Y-101430666D01*
X123335142Y-101527428D01*
X123335142Y-102059619D01*
X122706190Y-102059619D02*
X122802952Y-102011238D01*
X122851333Y-101962857D01*
X122899714Y-101866095D01*
X122899714Y-101575809D01*
X122851333Y-101479047D01*
X122802952Y-101430666D01*
X122706190Y-101382285D01*
X122561047Y-101382285D01*
X122464285Y-101430666D01*
X122415904Y-101479047D01*
X122367523Y-101575809D01*
X122367523Y-101866095D01*
X122415904Y-101962857D01*
X122464285Y-102011238D01*
X122561047Y-102059619D01*
X122706190Y-102059619D01*
X121545047Y-102011238D02*
X121641809Y-102059619D01*
X121835333Y-102059619D01*
X121932095Y-102011238D01*
X121980476Y-101914476D01*
X121980476Y-101527428D01*
X121932095Y-101430666D01*
X121835333Y-101382285D01*
X121641809Y-101382285D01*
X121545047Y-101430666D01*
X121496666Y-101527428D01*
X121496666Y-101624190D01*
X121980476Y-101720952D01*
X121061238Y-101962857D02*
X121012857Y-102011238D01*
X121061238Y-102059619D01*
X121109619Y-102011238D01*
X121061238Y-101962857D01*
X121061238Y-102059619D01*
X120674190Y-102059619D02*
X120142000Y-101382285D01*
X120674190Y-101382285D02*
X120142000Y-102059619D01*
X119851714Y-101382285D02*
X119609809Y-102059619D01*
X119367904Y-101382285D02*
X119609809Y-102059619D01*
X119706571Y-102301523D01*
X119754952Y-102349904D01*
X119851714Y-102398285D01*
X119077619Y-101382285D02*
X118545428Y-101382285D01*
X119077619Y-102059619D01*
X118545428Y-102059619D01*
X146304000Y-117475000D02*
X146304000Y-122301000D01*
X143256000Y-117475000D02*
X143256000Y-122301000D01*
X138938000Y-117475000D02*
X138938000Y-122301000D01*
X134366000Y-117475000D02*
X134366000Y-122301000D01*
X131064000Y-117475000D02*
X131064000Y-122301000D01*
X127762000Y-122301000D02*
X127762000Y-117475000D01*
X150114000Y-122301000D02*
X127762000Y-122301000D01*
X150114000Y-117475000D02*
X150114000Y-122301000D01*
X127762000Y-117475000D02*
X150114000Y-117475000D01*
X127762000Y-120015000D02*
X150114000Y-120015000D01*
D11*
X130193142Y-119158657D02*
X130193142Y-118244257D01*
X129670628Y-119158657D01*
X129670628Y-118244257D01*
X129278742Y-118897400D02*
X128843314Y-118897400D01*
X129365828Y-119158657D02*
X129061028Y-118244257D01*
X128756228Y-119158657D01*
X129692400Y-121611571D02*
X129735942Y-121655114D01*
X129866571Y-121698657D01*
X129953657Y-121698657D01*
X130084285Y-121655114D01*
X130171371Y-121568028D01*
X130214914Y-121480942D01*
X130258457Y-121306771D01*
X130258457Y-121176142D01*
X130214914Y-121001971D01*
X130171371Y-120914885D01*
X130084285Y-120827800D01*
X129953657Y-120784257D01*
X129866571Y-120784257D01*
X129735942Y-120827800D01*
X129692400Y-120871342D01*
X129344057Y-121655114D02*
X129213428Y-121698657D01*
X128995714Y-121698657D01*
X128908628Y-121655114D01*
X128865085Y-121611571D01*
X128821542Y-121524485D01*
X128821542Y-121437400D01*
X128865085Y-121350314D01*
X128908628Y-121306771D01*
X128995714Y-121263228D01*
X129169885Y-121219685D01*
X129256971Y-121176142D01*
X129300514Y-121132600D01*
X129344057Y-121045514D01*
X129344057Y-120958428D01*
X129300514Y-120871342D01*
X129256971Y-120827800D01*
X129169885Y-120784257D01*
X128952171Y-120784257D01*
X128821542Y-120827800D01*
X133215742Y-119158657D02*
X133520542Y-118723228D01*
X133738257Y-119158657D02*
X133738257Y-118244257D01*
X133389914Y-118244257D01*
X133302828Y-118287800D01*
X133259285Y-118331342D01*
X133215742Y-118418428D01*
X133215742Y-118549057D01*
X133259285Y-118636142D01*
X133302828Y-118679685D01*
X133389914Y-118723228D01*
X133738257Y-118723228D01*
X132867400Y-119115114D02*
X132736771Y-119158657D01*
X132519057Y-119158657D01*
X132431971Y-119115114D01*
X132388428Y-119071571D01*
X132344885Y-118984485D01*
X132344885Y-118897400D01*
X132388428Y-118810314D01*
X132431971Y-118766771D01*
X132519057Y-118723228D01*
X132693228Y-118679685D01*
X132780314Y-118636142D01*
X132823857Y-118592600D01*
X132867400Y-118505514D01*
X132867400Y-118418428D01*
X132823857Y-118331342D01*
X132780314Y-118287800D01*
X132693228Y-118244257D01*
X132475514Y-118244257D01*
X132344885Y-118287800D01*
X132083628Y-118244257D02*
X131561114Y-118244257D01*
X131822371Y-119158657D02*
X131822371Y-118244257D01*
X133651171Y-121698657D02*
X133651171Y-120784257D01*
X133433457Y-120784257D01*
X133302828Y-120827800D01*
X133215742Y-120914885D01*
X133172200Y-121001971D01*
X133128657Y-121176142D01*
X133128657Y-121306771D01*
X133172200Y-121480942D01*
X133215742Y-121568028D01*
X133302828Y-121655114D01*
X133433457Y-121698657D01*
X133651171Y-121698657D01*
X132736771Y-121698657D02*
X132736771Y-120784257D01*
X132301342Y-121698657D02*
X132301342Y-120784257D01*
X131778828Y-121698657D01*
X131778828Y-120784257D01*
X138332028Y-119115114D02*
X138201400Y-119158657D01*
X137983685Y-119158657D01*
X137896600Y-119115114D01*
X137853057Y-119071571D01*
X137809514Y-118984485D01*
X137809514Y-118897400D01*
X137853057Y-118810314D01*
X137896600Y-118766771D01*
X137983685Y-118723228D01*
X138157857Y-118679685D01*
X138244942Y-118636142D01*
X138288485Y-118592600D01*
X138332028Y-118505514D01*
X138332028Y-118418428D01*
X138288485Y-118331342D01*
X138244942Y-118287800D01*
X138157857Y-118244257D01*
X137940142Y-118244257D01*
X137809514Y-118287800D01*
X137548257Y-118244257D02*
X137025742Y-118244257D01*
X137287000Y-119158657D02*
X137287000Y-118244257D01*
X136764485Y-118897400D02*
X136329057Y-118897400D01*
X136851571Y-119158657D02*
X136546771Y-118244257D01*
X136241971Y-119158657D01*
X135414657Y-119158657D02*
X135719457Y-118723228D01*
X135937171Y-119158657D02*
X135937171Y-118244257D01*
X135588828Y-118244257D01*
X135501742Y-118287800D01*
X135458200Y-118331342D01*
X135414657Y-118418428D01*
X135414657Y-118549057D01*
X135458200Y-118636142D01*
X135501742Y-118679685D01*
X135588828Y-118723228D01*
X135937171Y-118723228D01*
X135153400Y-118244257D02*
X134630885Y-118244257D01*
X134892142Y-119158657D02*
X134892142Y-118244257D01*
X138070771Y-121698657D02*
X138070771Y-120784257D01*
X137853057Y-120784257D01*
X137722428Y-120827800D01*
X137635342Y-120914885D01*
X137591800Y-121001971D01*
X137548257Y-121176142D01*
X137548257Y-121306771D01*
X137591800Y-121480942D01*
X137635342Y-121568028D01*
X137722428Y-121655114D01*
X137853057Y-121698657D01*
X138070771Y-121698657D01*
X136982200Y-120784257D02*
X136808028Y-120784257D01*
X136720942Y-120827800D01*
X136633857Y-120914885D01*
X136590314Y-121089057D01*
X136590314Y-121393857D01*
X136633857Y-121568028D01*
X136720942Y-121655114D01*
X136808028Y-121698657D01*
X136982200Y-121698657D01*
X137069285Y-121655114D01*
X137156371Y-121568028D01*
X137199914Y-121393857D01*
X137199914Y-121089057D01*
X137156371Y-120914885D01*
X137069285Y-120827800D01*
X136982200Y-120784257D01*
X136198428Y-120784257D02*
X136198428Y-121524485D01*
X136154885Y-121611571D01*
X136111342Y-121655114D01*
X136024257Y-121698657D01*
X135850085Y-121698657D01*
X135763000Y-121655114D01*
X135719457Y-121611571D01*
X135675914Y-121524485D01*
X135675914Y-120784257D01*
X135371114Y-120784257D02*
X134848600Y-120784257D01*
X135109857Y-121698657D02*
X135109857Y-120784257D01*
X142515771Y-119158657D02*
X142515771Y-118244257D01*
X142298057Y-118244257D01*
X142167428Y-118287800D01*
X142080342Y-118374885D01*
X142036800Y-118461971D01*
X141993257Y-118636142D01*
X141993257Y-118766771D01*
X142036800Y-118940942D01*
X142080342Y-119028028D01*
X142167428Y-119115114D01*
X142298057Y-119158657D01*
X142515771Y-119158657D01*
X141078857Y-119158657D02*
X141383657Y-118723228D01*
X141601371Y-119158657D02*
X141601371Y-118244257D01*
X141253028Y-118244257D01*
X141165942Y-118287800D01*
X141122400Y-118331342D01*
X141078857Y-118418428D01*
X141078857Y-118549057D01*
X141122400Y-118636142D01*
X141165942Y-118679685D01*
X141253028Y-118723228D01*
X141601371Y-118723228D01*
X140686971Y-119158657D02*
X140686971Y-118244257D01*
X140469257Y-118244257D01*
X140338628Y-118287800D01*
X140251542Y-118374885D01*
X140208000Y-118461971D01*
X140164457Y-118636142D01*
X140164457Y-118766771D01*
X140208000Y-118940942D01*
X140251542Y-119028028D01*
X140338628Y-119115114D01*
X140469257Y-119158657D01*
X140686971Y-119158657D01*
X139598400Y-118723228D02*
X139598400Y-119158657D01*
X139903200Y-118244257D02*
X139598400Y-118723228D01*
X139293600Y-118244257D01*
X142515771Y-121655114D02*
X142385142Y-121698657D01*
X142167428Y-121698657D01*
X142080342Y-121655114D01*
X142036800Y-121611571D01*
X141993257Y-121524485D01*
X141993257Y-121437400D01*
X142036800Y-121350314D01*
X142080342Y-121306771D01*
X142167428Y-121263228D01*
X142341600Y-121219685D01*
X142428685Y-121176142D01*
X142472228Y-121132600D01*
X142515771Y-121045514D01*
X142515771Y-120958428D01*
X142472228Y-120871342D01*
X142428685Y-120827800D01*
X142341600Y-120784257D01*
X142123885Y-120784257D01*
X141993257Y-120827800D01*
X141078857Y-121611571D02*
X141122400Y-121655114D01*
X141253028Y-121698657D01*
X141340114Y-121698657D01*
X141470742Y-121655114D01*
X141557828Y-121568028D01*
X141601371Y-121480942D01*
X141644914Y-121306771D01*
X141644914Y-121176142D01*
X141601371Y-121001971D01*
X141557828Y-120914885D01*
X141470742Y-120827800D01*
X141340114Y-120784257D01*
X141253028Y-120784257D01*
X141122400Y-120827800D01*
X141078857Y-120871342D01*
X140251542Y-121698657D02*
X140686971Y-121698657D01*
X140686971Y-120784257D01*
X139946742Y-121698657D02*
X139946742Y-120784257D01*
X139424228Y-121698657D02*
X139816114Y-121176142D01*
X139424228Y-120784257D02*
X139946742Y-121306771D01*
X145912114Y-118244257D02*
X145346057Y-118244257D01*
X145650857Y-118592600D01*
X145520228Y-118592600D01*
X145433142Y-118636142D01*
X145389600Y-118679685D01*
X145346057Y-118766771D01*
X145346057Y-118984485D01*
X145389600Y-119071571D01*
X145433142Y-119115114D01*
X145520228Y-119158657D01*
X145781485Y-119158657D01*
X145868571Y-119115114D01*
X145912114Y-119071571D01*
X145084800Y-118244257D02*
X144780000Y-119158657D01*
X144475200Y-118244257D01*
X144257485Y-118244257D02*
X143691428Y-118244257D01*
X143996228Y-118592600D01*
X143865600Y-118592600D01*
X143778514Y-118636142D01*
X143734971Y-118679685D01*
X143691428Y-118766771D01*
X143691428Y-118984485D01*
X143734971Y-119071571D01*
X143778514Y-119115114D01*
X143865600Y-119158657D01*
X144126857Y-119158657D01*
X144213942Y-119115114D01*
X144257485Y-119071571D01*
X145912114Y-120784257D02*
X145346057Y-120784257D01*
X145650857Y-121132600D01*
X145520228Y-121132600D01*
X145433142Y-121176142D01*
X145389600Y-121219685D01*
X145346057Y-121306771D01*
X145346057Y-121524485D01*
X145389600Y-121611571D01*
X145433142Y-121655114D01*
X145520228Y-121698657D01*
X145781485Y-121698657D01*
X145868571Y-121655114D01*
X145912114Y-121611571D01*
X145084800Y-120784257D02*
X144780000Y-121698657D01*
X144475200Y-120784257D01*
X144257485Y-120784257D02*
X143691428Y-120784257D01*
X143996228Y-121132600D01*
X143865600Y-121132600D01*
X143778514Y-121176142D01*
X143734971Y-121219685D01*
X143691428Y-121306771D01*
X143691428Y-121524485D01*
X143734971Y-121611571D01*
X143778514Y-121655114D01*
X143865600Y-121698657D01*
X144126857Y-121698657D01*
X144213942Y-121655114D01*
X144257485Y-121611571D01*
X148651685Y-120827800D02*
X148738771Y-120784257D01*
X148869400Y-120784257D01*
X149000028Y-120827800D01*
X149087114Y-120914885D01*
X149130657Y-121001971D01*
X149174200Y-121176142D01*
X149174200Y-121306771D01*
X149130657Y-121480942D01*
X149087114Y-121568028D01*
X149000028Y-121655114D01*
X148869400Y-121698657D01*
X148782314Y-121698657D01*
X148651685Y-121655114D01*
X148608142Y-121611571D01*
X148608142Y-121306771D01*
X148782314Y-121306771D01*
X148216257Y-121698657D02*
X148216257Y-120784257D01*
X147693742Y-121698657D01*
X147693742Y-120784257D01*
X147258314Y-121698657D02*
X147258314Y-120784257D01*
X147040600Y-120784257D01*
X146909971Y-120827800D01*
X146822885Y-120914885D01*
X146779342Y-121001971D01*
X146735800Y-121176142D01*
X146735800Y-121306771D01*
X146779342Y-121480942D01*
X146822885Y-121568028D01*
X146909971Y-121655114D01*
X147040600Y-121698657D01*
X147258314Y-121698657D01*
X148651685Y-118287800D02*
X148738771Y-118244257D01*
X148869400Y-118244257D01*
X149000028Y-118287800D01*
X149087114Y-118374885D01*
X149130657Y-118461971D01*
X149174200Y-118636142D01*
X149174200Y-118766771D01*
X149130657Y-118940942D01*
X149087114Y-119028028D01*
X149000028Y-119115114D01*
X148869400Y-119158657D01*
X148782314Y-119158657D01*
X148651685Y-119115114D01*
X148608142Y-119071571D01*
X148608142Y-118766771D01*
X148782314Y-118766771D01*
X148216257Y-119158657D02*
X148216257Y-118244257D01*
X147693742Y-119158657D01*
X147693742Y-118244257D01*
X147258314Y-119158657D02*
X147258314Y-118244257D01*
X147040600Y-118244257D01*
X146909971Y-118287800D01*
X146822885Y-118374885D01*
X146779342Y-118461971D01*
X146735800Y-118636142D01*
X146735800Y-118766771D01*
X146779342Y-118940942D01*
X146822885Y-119028028D01*
X146909971Y-119115114D01*
X147040600Y-119158657D01*
X147258314Y-119158657D01*
D12*
G36*
X116326177Y-99048533D02*
G01*
X116294798Y-99070776D01*
X116267089Y-99098485D01*
X116267089Y-99407920D01*
X116267162Y-99499799D01*
X116267505Y-99571840D01*
X116268308Y-99626780D01*
X116269759Y-99667360D01*
X116272048Y-99696317D01*
X116275364Y-99716391D01*
X116279895Y-99730321D01*
X116285831Y-99740845D01*
X116290486Y-99747100D01*
X116321217Y-99771673D01*
X116356504Y-99774341D01*
X116388755Y-99759271D01*
X116399412Y-99750374D01*
X116406536Y-99738557D01*
X116410833Y-99719526D01*
X116413009Y-99688992D01*
X116413772Y-99642662D01*
X116413845Y-99606871D01*
X116413845Y-99472045D01*
X116910556Y-99472045D01*
X116910556Y-99594700D01*
X116911069Y-99650787D01*
X116913124Y-99689333D01*
X116917492Y-99715361D01*
X116924944Y-99733897D01*
X116933953Y-99747100D01*
X116964856Y-99771604D01*
X116999804Y-99774506D01*
X117033262Y-99757089D01*
X117042396Y-99747959D01*
X117048848Y-99735855D01*
X117053103Y-99717001D01*
X117055648Y-99687620D01*
X117056971Y-99643937D01*
X117057557Y-99582175D01*
X117057625Y-99568000D01*
X117058109Y-99451631D01*
X117058359Y-99355727D01*
X117058277Y-99278177D01*
X117057769Y-99216869D01*
X117056738Y-99169690D01*
X117055087Y-99134530D01*
X117052721Y-99109276D01*
X117049543Y-99091817D01*
X117045456Y-99080041D01*
X117040366Y-99071835D01*
X117034734Y-99065645D01*
X117002872Y-99045844D01*
X116969643Y-99048533D01*
X116938265Y-99070776D01*
X116925567Y-99085126D01*
X116917474Y-99100978D01*
X116912958Y-99123554D01*
X116910994Y-99158078D01*
X116910556Y-99209776D01*
X116910556Y-99325289D01*
X116413845Y-99325289D01*
X116413845Y-99206756D01*
X116413338Y-99152148D01*
X116411302Y-99115275D01*
X116406965Y-99091307D01*
X116399553Y-99075415D01*
X116391267Y-99065645D01*
X116359406Y-99045844D01*
X116326177Y-99048533D01*
G37*
X116326177Y-99048533D02*
X116294798Y-99070776D01*
X116267089Y-99098485D01*
X116267089Y-99407920D01*
X116267162Y-99499799D01*
X116267505Y-99571840D01*
X116268308Y-99626780D01*
X116269759Y-99667360D01*
X116272048Y-99696317D01*
X116275364Y-99716391D01*
X116279895Y-99730321D01*
X116285831Y-99740845D01*
X116290486Y-99747100D01*
X116321217Y-99771673D01*
X116356504Y-99774341D01*
X116388755Y-99759271D01*
X116399412Y-99750374D01*
X116406536Y-99738557D01*
X116410833Y-99719526D01*
X116413009Y-99688992D01*
X116413772Y-99642662D01*
X116413845Y-99606871D01*
X116413845Y-99472045D01*
X116910556Y-99472045D01*
X116910556Y-99594700D01*
X116911069Y-99650787D01*
X116913124Y-99689333D01*
X116917492Y-99715361D01*
X116924944Y-99733897D01*
X116933953Y-99747100D01*
X116964856Y-99771604D01*
X116999804Y-99774506D01*
X117033262Y-99757089D01*
X117042396Y-99747959D01*
X117048848Y-99735855D01*
X117053103Y-99717001D01*
X117055648Y-99687620D01*
X117056971Y-99643937D01*
X117057557Y-99582175D01*
X117057625Y-99568000D01*
X117058109Y-99451631D01*
X117058359Y-99355727D01*
X117058277Y-99278177D01*
X117057769Y-99216869D01*
X117056738Y-99169690D01*
X117055087Y-99134530D01*
X117052721Y-99109276D01*
X117049543Y-99091817D01*
X117045456Y-99080041D01*
X117040366Y-99071835D01*
X117034734Y-99065645D01*
X117002872Y-99045844D01*
X116969643Y-99048533D01*
X116938265Y-99070776D01*
X116925567Y-99085126D01*
X116917474Y-99100978D01*
X116912958Y-99123554D01*
X116910994Y-99158078D01*
X116910556Y-99209776D01*
X116910556Y-99325289D01*
X116413845Y-99325289D01*
X116413845Y-99206756D01*
X116413338Y-99152148D01*
X116411302Y-99115275D01*
X116406965Y-99091307D01*
X116399553Y-99075415D01*
X116391267Y-99065645D01*
X116359406Y-99045844D01*
X116326177Y-99048533D01*
G36*
X117591935Y-99043163D02*
G01*
X117513228Y-99043542D01*
X117452137Y-99044333D01*
X117406183Y-99045670D01*
X117372886Y-99047683D01*
X117349764Y-99050506D01*
X117334338Y-99054269D01*
X117324129Y-99059105D01*
X117319187Y-99062822D01*
X117293543Y-99095358D01*
X117290441Y-99129138D01*
X117306289Y-99159826D01*
X117316652Y-99172089D01*
X117327804Y-99180450D01*
X117343965Y-99185657D01*
X117369358Y-99188457D01*
X117408202Y-99189596D01*
X117464720Y-99189821D01*
X117475820Y-99189822D01*
X117621756Y-99189822D01*
X117621756Y-99460756D01*
X117621852Y-99546154D01*
X117622289Y-99611864D01*
X117623288Y-99660774D01*
X117625072Y-99695773D01*
X117627863Y-99719749D01*
X117631883Y-99735593D01*
X117637355Y-99746191D01*
X117644334Y-99754267D01*
X117677266Y-99774112D01*
X117711646Y-99772548D01*
X117742824Y-99749906D01*
X117745114Y-99747100D01*
X117752571Y-99736492D01*
X117758253Y-99724081D01*
X117762399Y-99706850D01*
X117765250Y-99681784D01*
X117767046Y-99645867D01*
X117768028Y-99596083D01*
X117768436Y-99529417D01*
X117768511Y-99453589D01*
X117768511Y-99189822D01*
X117907873Y-99189822D01*
X117967678Y-99189418D01*
X118009082Y-99187840D01*
X118036252Y-99184547D01*
X118053354Y-99178992D01*
X118064557Y-99170631D01*
X118065917Y-99169178D01*
X118082275Y-99135939D01*
X118080828Y-99098362D01*
X118062022Y-99065645D01*
X118054750Y-99059298D01*
X118045373Y-99054266D01*
X118031391Y-99050396D01*
X118010304Y-99047537D01*
X117979611Y-99045535D01*
X117936811Y-99044239D01*
X117879405Y-99043498D01*
X117804890Y-99043158D01*
X117710767Y-99043068D01*
X117690740Y-99043067D01*
X117591935Y-99043163D01*
G37*
X117591935Y-99043163D02*
X117513228Y-99043542D01*
X117452137Y-99044333D01*
X117406183Y-99045670D01*
X117372886Y-99047683D01*
X117349764Y-99050506D01*
X117334338Y-99054269D01*
X117324129Y-99059105D01*
X117319187Y-99062822D01*
X117293543Y-99095358D01*
X117290441Y-99129138D01*
X117306289Y-99159826D01*
X117316652Y-99172089D01*
X117327804Y-99180450D01*
X117343965Y-99185657D01*
X117369358Y-99188457D01*
X117408202Y-99189596D01*
X117464720Y-99189821D01*
X117475820Y-99189822D01*
X117621756Y-99189822D01*
X117621756Y-99460756D01*
X117621852Y-99546154D01*
X117622289Y-99611864D01*
X117623288Y-99660774D01*
X117625072Y-99695773D01*
X117627863Y-99719749D01*
X117631883Y-99735593D01*
X117637355Y-99746191D01*
X117644334Y-99754267D01*
X117677266Y-99774112D01*
X117711646Y-99772548D01*
X117742824Y-99749906D01*
X117745114Y-99747100D01*
X117752571Y-99736492D01*
X117758253Y-99724081D01*
X117762399Y-99706850D01*
X117765250Y-99681784D01*
X117767046Y-99645867D01*
X117768028Y-99596083D01*
X117768436Y-99529417D01*
X117768511Y-99453589D01*
X117768511Y-99189822D01*
X117907873Y-99189822D01*
X117967678Y-99189418D01*
X118009082Y-99187840D01*
X118036252Y-99184547D01*
X118053354Y-99178992D01*
X118064557Y-99170631D01*
X118065917Y-99169178D01*
X118082275Y-99135939D01*
X118080828Y-99098362D01*
X118062022Y-99065645D01*
X118054750Y-99059298D01*
X118045373Y-99054266D01*
X118031391Y-99050396D01*
X118010304Y-99047537D01*
X117979611Y-99045535D01*
X117936811Y-99044239D01*
X117879405Y-99043498D01*
X117804890Y-99043158D01*
X117710767Y-99043068D01*
X117690740Y-99043067D01*
X117591935Y-99043163D01*
G36*
X118366386Y-99049877D02*
G01*
X118342673Y-99064647D01*
X118316022Y-99086227D01*
X118316022Y-99407773D01*
X118316107Y-99501830D01*
X118316471Y-99575932D01*
X118317276Y-99632704D01*
X118318687Y-99674768D01*
X118320867Y-99704748D01*
X118323979Y-99725267D01*
X118328186Y-99738949D01*
X118333652Y-99748416D01*
X118337528Y-99753082D01*
X118368966Y-99773575D01*
X118404767Y-99772739D01*
X118436127Y-99755264D01*
X118462778Y-99733684D01*
X118462778Y-99086227D01*
X118436127Y-99064647D01*
X118410406Y-99048949D01*
X118389400Y-99043067D01*
X118366386Y-99049877D01*
G37*
X118366386Y-99049877D02*
X118342673Y-99064647D01*
X118316022Y-99086227D01*
X118316022Y-99407773D01*
X118316107Y-99501830D01*
X118316471Y-99575932D01*
X118317276Y-99632704D01*
X118318687Y-99674768D01*
X118320867Y-99704748D01*
X118323979Y-99725267D01*
X118328186Y-99738949D01*
X118333652Y-99748416D01*
X118337528Y-99753082D01*
X118368966Y-99773575D01*
X118404767Y-99772739D01*
X118436127Y-99755264D01*
X118462778Y-99733684D01*
X118462778Y-99086227D01*
X118436127Y-99064647D01*
X118410406Y-99048949D01*
X118389400Y-99043067D01*
X118366386Y-99049877D01*
G36*
X118810335Y-99045034D02*
G01*
X118790745Y-99052035D01*
X118789990Y-99052377D01*
X118763387Y-99072678D01*
X118748730Y-99093561D01*
X118745862Y-99103352D01*
X118746004Y-99116361D01*
X118750039Y-99134895D01*
X118758854Y-99161257D01*
X118773331Y-99197752D01*
X118794355Y-99246687D01*
X118822812Y-99310365D01*
X118859585Y-99391093D01*
X118879825Y-99435216D01*
X118916375Y-99513985D01*
X118950685Y-99586423D01*
X118981448Y-99649880D01*
X119007352Y-99701708D01*
X119027090Y-99739259D01*
X119039350Y-99759884D01*
X119041776Y-99762733D01*
X119072817Y-99775302D01*
X119107879Y-99773619D01*
X119136000Y-99758332D01*
X119137146Y-99757089D01*
X119148332Y-99740154D01*
X119167096Y-99707170D01*
X119191125Y-99662380D01*
X119218103Y-99610032D01*
X119227799Y-99590742D01*
X119300986Y-99444150D01*
X119380760Y-99603393D01*
X119409233Y-99658415D01*
X119435650Y-99706132D01*
X119457852Y-99742893D01*
X119473681Y-99765044D01*
X119479046Y-99769741D01*
X119520743Y-99776102D01*
X119555151Y-99762733D01*
X119565272Y-99748446D01*
X119582786Y-99716692D01*
X119606265Y-99670597D01*
X119634280Y-99613285D01*
X119665401Y-99547880D01*
X119698201Y-99477507D01*
X119731250Y-99405291D01*
X119763119Y-99334355D01*
X119792381Y-99267825D01*
X119817605Y-99208826D01*
X119837364Y-99160481D01*
X119850228Y-99125915D01*
X119854769Y-99108253D01*
X119854723Y-99107613D01*
X119843674Y-99085388D01*
X119821590Y-99062753D01*
X119820290Y-99061768D01*
X119793147Y-99046425D01*
X119768042Y-99046574D01*
X119758632Y-99049466D01*
X119747166Y-99055718D01*
X119734990Y-99068014D01*
X119720643Y-99088908D01*
X119702664Y-99120949D01*
X119679593Y-99166688D01*
X119649970Y-99228677D01*
X119623255Y-99285898D01*
X119592520Y-99352226D01*
X119564979Y-99411874D01*
X119542062Y-99461725D01*
X119525202Y-99498664D01*
X119515827Y-99519573D01*
X119514460Y-99522845D01*
X119508311Y-99517497D01*
X119494178Y-99495109D01*
X119473943Y-99458946D01*
X119449485Y-99412277D01*
X119439752Y-99393022D01*
X119406783Y-99328004D01*
X119381357Y-99280654D01*
X119361388Y-99248219D01*
X119344790Y-99227946D01*
X119329476Y-99217082D01*
X119313360Y-99212875D01*
X119302857Y-99212400D01*
X119284330Y-99214042D01*
X119268096Y-99220831D01*
X119251965Y-99235566D01*
X119233749Y-99261044D01*
X119211261Y-99300061D01*
X119182311Y-99355414D01*
X119166338Y-99386903D01*
X119140430Y-99437087D01*
X119117833Y-99478704D01*
X119100542Y-99508242D01*
X119090550Y-99522189D01*
X119089191Y-99522770D01*
X119082739Y-99511793D01*
X119068292Y-99483290D01*
X119047297Y-99440244D01*
X119021203Y-99385638D01*
X118991454Y-99322454D01*
X118976820Y-99291071D01*
X118938750Y-99210078D01*
X118908095Y-99147756D01*
X118883263Y-99102071D01*
X118862663Y-99070989D01*
X118844702Y-99052478D01*
X118827790Y-99044504D01*
X118810335Y-99045034D01*
G37*
X118810335Y-99045034D02*
X118790745Y-99052035D01*
X118789990Y-99052377D01*
X118763387Y-99072678D01*
X118748730Y-99093561D01*
X118745862Y-99103352D01*
X118746004Y-99116361D01*
X118750039Y-99134895D01*
X118758854Y-99161257D01*
X118773331Y-99197752D01*
X118794355Y-99246687D01*
X118822812Y-99310365D01*
X118859585Y-99391093D01*
X118879825Y-99435216D01*
X118916375Y-99513985D01*
X118950685Y-99586423D01*
X118981448Y-99649880D01*
X119007352Y-99701708D01*
X119027090Y-99739259D01*
X119039350Y-99759884D01*
X119041776Y-99762733D01*
X119072817Y-99775302D01*
X119107879Y-99773619D01*
X119136000Y-99758332D01*
X119137146Y-99757089D01*
X119148332Y-99740154D01*
X119167096Y-99707170D01*
X119191125Y-99662380D01*
X119218103Y-99610032D01*
X119227799Y-99590742D01*
X119300986Y-99444150D01*
X119380760Y-99603393D01*
X119409233Y-99658415D01*
X119435650Y-99706132D01*
X119457852Y-99742893D01*
X119473681Y-99765044D01*
X119479046Y-99769741D01*
X119520743Y-99776102D01*
X119555151Y-99762733D01*
X119565272Y-99748446D01*
X119582786Y-99716692D01*
X119606265Y-99670597D01*
X119634280Y-99613285D01*
X119665401Y-99547880D01*
X119698201Y-99477507D01*
X119731250Y-99405291D01*
X119763119Y-99334355D01*
X119792381Y-99267825D01*
X119817605Y-99208826D01*
X119837364Y-99160481D01*
X119850228Y-99125915D01*
X119854769Y-99108253D01*
X119854723Y-99107613D01*
X119843674Y-99085388D01*
X119821590Y-99062753D01*
X119820290Y-99061768D01*
X119793147Y-99046425D01*
X119768042Y-99046574D01*
X119758632Y-99049466D01*
X119747166Y-99055718D01*
X119734990Y-99068014D01*
X119720643Y-99088908D01*
X119702664Y-99120949D01*
X119679593Y-99166688D01*
X119649970Y-99228677D01*
X119623255Y-99285898D01*
X119592520Y-99352226D01*
X119564979Y-99411874D01*
X119542062Y-99461725D01*
X119525202Y-99498664D01*
X119515827Y-99519573D01*
X119514460Y-99522845D01*
X119508311Y-99517497D01*
X119494178Y-99495109D01*
X119473943Y-99458946D01*
X119449485Y-99412277D01*
X119439752Y-99393022D01*
X119406783Y-99328004D01*
X119381357Y-99280654D01*
X119361388Y-99248219D01*
X119344790Y-99227946D01*
X119329476Y-99217082D01*
X119313360Y-99212875D01*
X119302857Y-99212400D01*
X119284330Y-99214042D01*
X119268096Y-99220831D01*
X119251965Y-99235566D01*
X119233749Y-99261044D01*
X119211261Y-99300061D01*
X119182311Y-99355414D01*
X119166338Y-99386903D01*
X119140430Y-99437087D01*
X119117833Y-99478704D01*
X119100542Y-99508242D01*
X119090550Y-99522189D01*
X119089191Y-99522770D01*
X119082739Y-99511793D01*
X119068292Y-99483290D01*
X119047297Y-99440244D01*
X119021203Y-99385638D01*
X118991454Y-99322454D01*
X118976820Y-99291071D01*
X118938750Y-99210078D01*
X118908095Y-99147756D01*
X118883263Y-99102071D01*
X118862663Y-99070989D01*
X118844702Y-99052478D01*
X118827790Y-99044504D01*
X118810335Y-99045034D01*
G36*
X121536691Y-99043275D02*
G01*
X121407712Y-99047636D01*
X121298009Y-99060861D01*
X121205774Y-99083741D01*
X121129198Y-99117070D01*
X121066473Y-99161638D01*
X121015788Y-99218236D01*
X120975337Y-99287658D01*
X120974541Y-99289351D01*
X120950399Y-99351483D01*
X120941797Y-99406509D01*
X120948769Y-99461887D01*
X120971346Y-99525073D01*
X120975628Y-99534689D01*
X121004828Y-99590966D01*
X121037644Y-99634451D01*
X121079998Y-99671417D01*
X121137810Y-99708135D01*
X121141169Y-99710052D01*
X121191496Y-99734227D01*
X121248379Y-99752282D01*
X121315473Y-99764839D01*
X121396435Y-99772522D01*
X121494918Y-99775953D01*
X121529714Y-99776251D01*
X121695406Y-99776845D01*
X121718803Y-99747100D01*
X121725743Y-99737319D01*
X121731158Y-99725897D01*
X121735235Y-99710095D01*
X121738163Y-99687175D01*
X121740133Y-99654396D01*
X121740775Y-99630089D01*
X121584156Y-99630089D01*
X121490274Y-99630089D01*
X121435336Y-99628483D01*
X121378940Y-99624255D01*
X121332655Y-99618292D01*
X121329861Y-99617790D01*
X121247652Y-99595736D01*
X121183886Y-99562600D01*
X121136548Y-99516847D01*
X121103618Y-99456939D01*
X121097892Y-99441061D01*
X121092279Y-99416333D01*
X121094709Y-99391902D01*
X121106533Y-99359400D01*
X121113660Y-99343434D01*
X121137000Y-99301006D01*
X121165120Y-99271240D01*
X121196060Y-99250511D01*
X121258034Y-99223537D01*
X121337349Y-99203998D01*
X121429747Y-99192746D01*
X121496667Y-99190270D01*
X121584156Y-99189822D01*
X121584156Y-99630089D01*
X121740775Y-99630089D01*
X121741332Y-99609021D01*
X121741950Y-99548311D01*
X121742175Y-99469526D01*
X121742200Y-99407920D01*
X121742200Y-99098485D01*
X121714491Y-99070776D01*
X121702194Y-99059544D01*
X121688897Y-99051853D01*
X121670328Y-99047040D01*
X121642214Y-99044446D01*
X121600283Y-99043410D01*
X121540263Y-99043270D01*
X121536691Y-99043275D01*
G37*
X121536691Y-99043275D02*
X121407712Y-99047636D01*
X121298009Y-99060861D01*
X121205774Y-99083741D01*
X121129198Y-99117070D01*
X121066473Y-99161638D01*
X121015788Y-99218236D01*
X120975337Y-99287658D01*
X120974541Y-99289351D01*
X120950399Y-99351483D01*
X120941797Y-99406509D01*
X120948769Y-99461887D01*
X120971346Y-99525073D01*
X120975628Y-99534689D01*
X121004828Y-99590966D01*
X121037644Y-99634451D01*
X121079998Y-99671417D01*
X121137810Y-99708135D01*
X121141169Y-99710052D01*
X121191496Y-99734227D01*
X121248379Y-99752282D01*
X121315473Y-99764839D01*
X121396435Y-99772522D01*
X121494918Y-99775953D01*
X121529714Y-99776251D01*
X121695406Y-99776845D01*
X121718803Y-99747100D01*
X121725743Y-99737319D01*
X121731158Y-99725897D01*
X121735235Y-99710095D01*
X121738163Y-99687175D01*
X121740133Y-99654396D01*
X121740775Y-99630089D01*
X121584156Y-99630089D01*
X121490274Y-99630089D01*
X121435336Y-99628483D01*
X121378940Y-99624255D01*
X121332655Y-99618292D01*
X121329861Y-99617790D01*
X121247652Y-99595736D01*
X121183886Y-99562600D01*
X121136548Y-99516847D01*
X121103618Y-99456939D01*
X121097892Y-99441061D01*
X121092279Y-99416333D01*
X121094709Y-99391902D01*
X121106533Y-99359400D01*
X121113660Y-99343434D01*
X121137000Y-99301006D01*
X121165120Y-99271240D01*
X121196060Y-99250511D01*
X121258034Y-99223537D01*
X121337349Y-99203998D01*
X121429747Y-99192746D01*
X121496667Y-99190270D01*
X121584156Y-99189822D01*
X121584156Y-99630089D01*
X121740775Y-99630089D01*
X121741332Y-99609021D01*
X121741950Y-99548311D01*
X121742175Y-99469526D01*
X121742200Y-99407920D01*
X121742200Y-99098485D01*
X121714491Y-99070776D01*
X121702194Y-99059544D01*
X121688897Y-99051853D01*
X121670328Y-99047040D01*
X121642214Y-99044446D01*
X121600283Y-99043410D01*
X121540263Y-99043270D01*
X121536691Y-99043275D01*
G36*
X122324657Y-99043260D02*
G01*
X122248299Y-99044174D01*
X122189783Y-99046311D01*
X122146745Y-99050175D01*
X122116817Y-99056267D01*
X122097632Y-99065090D01*
X122086824Y-99077146D01*
X122082027Y-99092939D01*
X122080873Y-99112970D01*
X122080867Y-99115335D01*
X122081869Y-99137992D01*
X122086604Y-99155503D01*
X122097667Y-99168574D01*
X122117652Y-99177913D01*
X122149154Y-99184227D01*
X122194768Y-99188222D01*
X122257087Y-99190606D01*
X122338707Y-99192086D01*
X122363723Y-99192414D01*
X122605800Y-99195467D01*
X122609186Y-99260378D01*
X122612571Y-99325289D01*
X122444424Y-99325289D01*
X122378734Y-99325531D01*
X122331828Y-99326556D01*
X122299917Y-99328811D01*
X122279209Y-99332742D01*
X122265916Y-99338798D01*
X122256245Y-99347424D01*
X122256183Y-99347493D01*
X122238644Y-99381112D01*
X122239278Y-99417448D01*
X122257686Y-99448423D01*
X122261329Y-99451607D01*
X122274259Y-99459812D01*
X122291976Y-99465521D01*
X122318430Y-99469162D01*
X122357568Y-99471167D01*
X122413338Y-99471964D01*
X122449006Y-99472045D01*
X122611445Y-99472045D01*
X122611445Y-99630089D01*
X122364839Y-99630089D01*
X122283420Y-99630231D01*
X122221590Y-99630814D01*
X122176363Y-99632068D01*
X122144752Y-99634227D01*
X122123769Y-99637523D01*
X122110427Y-99642189D01*
X122101739Y-99648457D01*
X122099550Y-99650733D01*
X122083386Y-99682280D01*
X122082203Y-99718168D01*
X122095464Y-99749285D01*
X122105957Y-99759271D01*
X122116871Y-99764769D01*
X122133783Y-99769022D01*
X122159367Y-99772180D01*
X122196299Y-99774392D01*
X122247254Y-99775806D01*
X122314906Y-99776572D01*
X122401931Y-99776838D01*
X122421606Y-99776845D01*
X122510089Y-99776787D01*
X122578773Y-99776467D01*
X122630436Y-99775667D01*
X122667855Y-99774167D01*
X122693810Y-99771749D01*
X122711078Y-99768194D01*
X122722438Y-99763282D01*
X122730668Y-99756795D01*
X122735183Y-99752138D01*
X122741979Y-99743889D01*
X122747288Y-99733669D01*
X122751294Y-99718800D01*
X122754179Y-99696602D01*
X122756126Y-99664393D01*
X122757319Y-99619496D01*
X122757939Y-99559228D01*
X122758171Y-99480911D01*
X122758200Y-99414994D01*
X122758129Y-99322628D01*
X122757792Y-99250117D01*
X122757002Y-99194737D01*
X122755574Y-99153765D01*
X122753321Y-99124478D01*
X122750057Y-99104153D01*
X122745596Y-99090066D01*
X122739752Y-99079495D01*
X122734803Y-99072811D01*
X122711406Y-99043067D01*
X122421226Y-99043067D01*
X122324657Y-99043260D01*
G37*
X122324657Y-99043260D02*
X122248299Y-99044174D01*
X122189783Y-99046311D01*
X122146745Y-99050175D01*
X122116817Y-99056267D01*
X122097632Y-99065090D01*
X122086824Y-99077146D01*
X122082027Y-99092939D01*
X122080873Y-99112970D01*
X122080867Y-99115335D01*
X122081869Y-99137992D01*
X122086604Y-99155503D01*
X122097667Y-99168574D01*
X122117652Y-99177913D01*
X122149154Y-99184227D01*
X122194768Y-99188222D01*
X122257087Y-99190606D01*
X122338707Y-99192086D01*
X122363723Y-99192414D01*
X122605800Y-99195467D01*
X122609186Y-99260378D01*
X122612571Y-99325289D01*
X122444424Y-99325289D01*
X122378734Y-99325531D01*
X122331828Y-99326556D01*
X122299917Y-99328811D01*
X122279209Y-99332742D01*
X122265916Y-99338798D01*
X122256245Y-99347424D01*
X122256183Y-99347493D01*
X122238644Y-99381112D01*
X122239278Y-99417448D01*
X122257686Y-99448423D01*
X122261329Y-99451607D01*
X122274259Y-99459812D01*
X122291976Y-99465521D01*
X122318430Y-99469162D01*
X122357568Y-99471167D01*
X122413338Y-99471964D01*
X122449006Y-99472045D01*
X122611445Y-99472045D01*
X122611445Y-99630089D01*
X122364839Y-99630089D01*
X122283420Y-99630231D01*
X122221590Y-99630814D01*
X122176363Y-99632068D01*
X122144752Y-99634227D01*
X122123769Y-99637523D01*
X122110427Y-99642189D01*
X122101739Y-99648457D01*
X122099550Y-99650733D01*
X122083386Y-99682280D01*
X122082203Y-99718168D01*
X122095464Y-99749285D01*
X122105957Y-99759271D01*
X122116871Y-99764769D01*
X122133783Y-99769022D01*
X122159367Y-99772180D01*
X122196299Y-99774392D01*
X122247254Y-99775806D01*
X122314906Y-99776572D01*
X122401931Y-99776838D01*
X122421606Y-99776845D01*
X122510089Y-99776787D01*
X122578773Y-99776467D01*
X122630436Y-99775667D01*
X122667855Y-99774167D01*
X122693810Y-99771749D01*
X122711078Y-99768194D01*
X122722438Y-99763282D01*
X122730668Y-99756795D01*
X122735183Y-99752138D01*
X122741979Y-99743889D01*
X122747288Y-99733669D01*
X122751294Y-99718800D01*
X122754179Y-99696602D01*
X122756126Y-99664393D01*
X122757319Y-99619496D01*
X122757939Y-99559228D01*
X122758171Y-99480911D01*
X122758200Y-99414994D01*
X122758129Y-99322628D01*
X122757792Y-99250117D01*
X122757002Y-99194737D01*
X122755574Y-99153765D01*
X122753321Y-99124478D01*
X122750057Y-99104153D01*
X122745596Y-99090066D01*
X122739752Y-99079495D01*
X122734803Y-99072811D01*
X122711406Y-99043067D01*
X122421226Y-99043067D01*
X122324657Y-99043260D01*
G36*
X123855114Y-99047448D02*
G01*
X123831548Y-99061273D01*
X123800735Y-99083881D01*
X123761078Y-99116338D01*
X123710980Y-99159708D01*
X123648843Y-99215058D01*
X123573072Y-99283451D01*
X123486334Y-99362084D01*
X123305711Y-99525878D01*
X123300067Y-99306029D01*
X123298029Y-99230351D01*
X123296063Y-99173994D01*
X123293734Y-99133706D01*
X123290606Y-99106235D01*
X123286245Y-99088329D01*
X123280216Y-99076737D01*
X123272084Y-99068208D01*
X123267772Y-99064623D01*
X123233241Y-99045670D01*
X123200383Y-99048441D01*
X123174318Y-99064633D01*
X123147667Y-99086199D01*
X123144352Y-99401151D01*
X123143435Y-99493779D01*
X123142968Y-99566544D01*
X123143113Y-99622161D01*
X123144032Y-99663342D01*
X123145887Y-99692803D01*
X123148839Y-99713255D01*
X123153050Y-99727413D01*
X123158682Y-99737991D01*
X123164927Y-99746474D01*
X123178439Y-99762207D01*
X123191883Y-99772636D01*
X123207124Y-99776639D01*
X123226026Y-99773094D01*
X123250455Y-99760879D01*
X123282273Y-99738871D01*
X123323348Y-99705949D01*
X123375542Y-99660991D01*
X123440722Y-99602875D01*
X123514556Y-99536099D01*
X123779845Y-99295458D01*
X123785489Y-99514589D01*
X123787531Y-99590128D01*
X123789502Y-99646354D01*
X123791839Y-99686524D01*
X123794981Y-99713896D01*
X123799364Y-99731728D01*
X123805424Y-99743279D01*
X123813600Y-99751807D01*
X123817784Y-99755282D01*
X123854765Y-99774372D01*
X123889708Y-99771493D01*
X123920136Y-99747100D01*
X123927097Y-99737286D01*
X123932523Y-99725826D01*
X123936603Y-99709968D01*
X123939529Y-99686963D01*
X123941492Y-99654062D01*
X123942683Y-99608516D01*
X123943292Y-99547573D01*
X123943511Y-99468486D01*
X123943534Y-99409956D01*
X123943460Y-99318407D01*
X123943113Y-99246687D01*
X123942301Y-99192045D01*
X123940833Y-99151732D01*
X123938519Y-99122998D01*
X123935167Y-99103093D01*
X123930588Y-99089268D01*
X123924589Y-99078772D01*
X123920136Y-99072811D01*
X123908850Y-99058691D01*
X123898301Y-99048029D01*
X123886893Y-99041892D01*
X123873030Y-99041343D01*
X123855114Y-99047448D01*
G37*
X123855114Y-99047448D02*
X123831548Y-99061273D01*
X123800735Y-99083881D01*
X123761078Y-99116338D01*
X123710980Y-99159708D01*
X123648843Y-99215058D01*
X123573072Y-99283451D01*
X123486334Y-99362084D01*
X123305711Y-99525878D01*
X123300067Y-99306029D01*
X123298029Y-99230351D01*
X123296063Y-99173994D01*
X123293734Y-99133706D01*
X123290606Y-99106235D01*
X123286245Y-99088329D01*
X123280216Y-99076737D01*
X123272084Y-99068208D01*
X123267772Y-99064623D01*
X123233241Y-99045670D01*
X123200383Y-99048441D01*
X123174318Y-99064633D01*
X123147667Y-99086199D01*
X123144352Y-99401151D01*
X123143435Y-99493779D01*
X123142968Y-99566544D01*
X123143113Y-99622161D01*
X123144032Y-99663342D01*
X123145887Y-99692803D01*
X123148839Y-99713255D01*
X123153050Y-99727413D01*
X123158682Y-99737991D01*
X123164927Y-99746474D01*
X123178439Y-99762207D01*
X123191883Y-99772636D01*
X123207124Y-99776639D01*
X123226026Y-99773094D01*
X123250455Y-99760879D01*
X123282273Y-99738871D01*
X123323348Y-99705949D01*
X123375542Y-99660991D01*
X123440722Y-99602875D01*
X123514556Y-99536099D01*
X123779845Y-99295458D01*
X123785489Y-99514589D01*
X123787531Y-99590128D01*
X123789502Y-99646354D01*
X123791839Y-99686524D01*
X123794981Y-99713896D01*
X123799364Y-99731728D01*
X123805424Y-99743279D01*
X123813600Y-99751807D01*
X123817784Y-99755282D01*
X123854765Y-99774372D01*
X123889708Y-99771493D01*
X123920136Y-99747100D01*
X123927097Y-99737286D01*
X123932523Y-99725826D01*
X123936603Y-99709968D01*
X123939529Y-99686963D01*
X123941492Y-99654062D01*
X123942683Y-99608516D01*
X123943292Y-99547573D01*
X123943511Y-99468486D01*
X123943534Y-99409956D01*
X123943460Y-99318407D01*
X123943113Y-99246687D01*
X123942301Y-99192045D01*
X123940833Y-99151732D01*
X123938519Y-99122998D01*
X123935167Y-99103093D01*
X123930588Y-99089268D01*
X123924589Y-99078772D01*
X123920136Y-99072811D01*
X123908850Y-99058691D01*
X123898301Y-99048029D01*
X123886893Y-99041892D01*
X123873030Y-99041343D01*
X123855114Y-99047448D01*
G36*
X124505081Y-99048599D02*
G01*
X124436565Y-99060095D01*
X124383943Y-99077967D01*
X124349708Y-99101499D01*
X124340379Y-99114924D01*
X124330893Y-99146148D01*
X124337277Y-99174395D01*
X124357430Y-99201182D01*
X124388745Y-99213713D01*
X124434183Y-99212696D01*
X124469326Y-99205906D01*
X124547419Y-99192971D01*
X124627226Y-99191742D01*
X124716555Y-99202241D01*
X124741229Y-99206690D01*
X124824291Y-99230108D01*
X124889273Y-99264945D01*
X124935461Y-99310604D01*
X124962145Y-99366494D01*
X124967663Y-99395388D01*
X124964051Y-99454012D01*
X124940729Y-99505879D01*
X124899824Y-99549978D01*
X124843459Y-99585299D01*
X124773760Y-99610829D01*
X124692852Y-99625559D01*
X124602860Y-99628478D01*
X124505910Y-99618575D01*
X124500436Y-99617641D01*
X124461875Y-99610459D01*
X124440494Y-99603521D01*
X124431227Y-99593227D01*
X124429006Y-99575976D01*
X124428956Y-99566841D01*
X124428956Y-99528489D01*
X124497431Y-99528489D01*
X124557900Y-99524347D01*
X124599165Y-99511147D01*
X124623175Y-99487730D01*
X124631877Y-99452936D01*
X124631983Y-99448394D01*
X124626892Y-99418654D01*
X124609433Y-99397419D01*
X124576939Y-99383366D01*
X124526743Y-99375173D01*
X124478123Y-99372161D01*
X124407456Y-99370433D01*
X124356198Y-99373070D01*
X124321239Y-99382800D01*
X124299470Y-99402353D01*
X124287780Y-99434456D01*
X124283060Y-99481838D01*
X124282200Y-99544071D01*
X124283609Y-99613535D01*
X124287848Y-99660786D01*
X124294936Y-99686012D01*
X124296311Y-99687988D01*
X124335228Y-99719508D01*
X124392286Y-99744470D01*
X124463869Y-99762340D01*
X124546358Y-99772586D01*
X124636139Y-99774673D01*
X124729592Y-99768068D01*
X124784556Y-99759956D01*
X124870766Y-99735554D01*
X124950892Y-99695662D01*
X125017977Y-99643887D01*
X125028173Y-99633539D01*
X125061302Y-99590035D01*
X125091194Y-99536118D01*
X125114357Y-99479592D01*
X125127298Y-99428259D01*
X125128858Y-99408544D01*
X125122218Y-99367419D01*
X125104568Y-99316252D01*
X125079297Y-99262394D01*
X125049789Y-99213195D01*
X125023719Y-99180334D01*
X124962765Y-99131452D01*
X124883969Y-99092545D01*
X124790157Y-99064494D01*
X124684150Y-99048179D01*
X124587000Y-99044192D01*
X124505081Y-99048599D01*
G37*
X124505081Y-99048599D02*
X124436565Y-99060095D01*
X124383943Y-99077967D01*
X124349708Y-99101499D01*
X124340379Y-99114924D01*
X124330893Y-99146148D01*
X124337277Y-99174395D01*
X124357430Y-99201182D01*
X124388745Y-99213713D01*
X124434183Y-99212696D01*
X124469326Y-99205906D01*
X124547419Y-99192971D01*
X124627226Y-99191742D01*
X124716555Y-99202241D01*
X124741229Y-99206690D01*
X124824291Y-99230108D01*
X124889273Y-99264945D01*
X124935461Y-99310604D01*
X124962145Y-99366494D01*
X124967663Y-99395388D01*
X124964051Y-99454012D01*
X124940729Y-99505879D01*
X124899824Y-99549978D01*
X124843459Y-99585299D01*
X124773760Y-99610829D01*
X124692852Y-99625559D01*
X124602860Y-99628478D01*
X124505910Y-99618575D01*
X124500436Y-99617641D01*
X124461875Y-99610459D01*
X124440494Y-99603521D01*
X124431227Y-99593227D01*
X124429006Y-99575976D01*
X124428956Y-99566841D01*
X124428956Y-99528489D01*
X124497431Y-99528489D01*
X124557900Y-99524347D01*
X124599165Y-99511147D01*
X124623175Y-99487730D01*
X124631877Y-99452936D01*
X124631983Y-99448394D01*
X124626892Y-99418654D01*
X124609433Y-99397419D01*
X124576939Y-99383366D01*
X124526743Y-99375173D01*
X124478123Y-99372161D01*
X124407456Y-99370433D01*
X124356198Y-99373070D01*
X124321239Y-99382800D01*
X124299470Y-99402353D01*
X124287780Y-99434456D01*
X124283060Y-99481838D01*
X124282200Y-99544071D01*
X124283609Y-99613535D01*
X124287848Y-99660786D01*
X124294936Y-99686012D01*
X124296311Y-99687988D01*
X124335228Y-99719508D01*
X124392286Y-99744470D01*
X124463869Y-99762340D01*
X124546358Y-99772586D01*
X124636139Y-99774673D01*
X124729592Y-99768068D01*
X124784556Y-99759956D01*
X124870766Y-99735554D01*
X124950892Y-99695662D01*
X125017977Y-99643887D01*
X125028173Y-99633539D01*
X125061302Y-99590035D01*
X125091194Y-99536118D01*
X125114357Y-99479592D01*
X125127298Y-99428259D01*
X125128858Y-99408544D01*
X125122218Y-99367419D01*
X125104568Y-99316252D01*
X125079297Y-99262394D01*
X125049789Y-99213195D01*
X125023719Y-99180334D01*
X124962765Y-99131452D01*
X124883969Y-99092545D01*
X124790157Y-99064494D01*
X124684150Y-99048179D01*
X124587000Y-99044192D01*
X124505081Y-99048599D01*
G36*
X125478822Y-99065645D02*
G01*
X125472242Y-99073218D01*
X125467079Y-99082987D01*
X125463164Y-99097571D01*
X125460324Y-99119585D01*
X125458387Y-99151648D01*
X125457183Y-99196375D01*
X125456539Y-99256385D01*
X125456284Y-99334294D01*
X125456245Y-99409956D01*
X125456314Y-99503802D01*
X125456638Y-99577689D01*
X125457386Y-99634232D01*
X125458732Y-99676049D01*
X125460846Y-99705757D01*
X125463900Y-99725973D01*
X125468066Y-99739314D01*
X125473516Y-99748398D01*
X125478822Y-99754267D01*
X125511826Y-99773947D01*
X125546991Y-99772181D01*
X125578455Y-99750717D01*
X125585684Y-99742337D01*
X125591334Y-99732614D01*
X125595599Y-99718861D01*
X125598673Y-99698389D01*
X125600752Y-99668512D01*
X125602030Y-99626541D01*
X125602701Y-99569789D01*
X125602959Y-99495567D01*
X125603000Y-99411537D01*
X125603000Y-99098485D01*
X125575291Y-99070776D01*
X125541137Y-99047463D01*
X125508006Y-99046623D01*
X125478822Y-99065645D01*
G37*
X125478822Y-99065645D02*
X125472242Y-99073218D01*
X125467079Y-99082987D01*
X125463164Y-99097571D01*
X125460324Y-99119585D01*
X125458387Y-99151648D01*
X125457183Y-99196375D01*
X125456539Y-99256385D01*
X125456284Y-99334294D01*
X125456245Y-99409956D01*
X125456314Y-99503802D01*
X125456638Y-99577689D01*
X125457386Y-99634232D01*
X125458732Y-99676049D01*
X125460846Y-99705757D01*
X125463900Y-99725973D01*
X125468066Y-99739314D01*
X125473516Y-99748398D01*
X125478822Y-99754267D01*
X125511826Y-99773947D01*
X125546991Y-99772181D01*
X125578455Y-99750717D01*
X125585684Y-99742337D01*
X125591334Y-99732614D01*
X125595599Y-99718861D01*
X125598673Y-99698389D01*
X125600752Y-99668512D01*
X125602030Y-99626541D01*
X125602701Y-99569789D01*
X125602959Y-99495567D01*
X125603000Y-99411537D01*
X125603000Y-99098485D01*
X125575291Y-99070776D01*
X125541137Y-99047463D01*
X125508006Y-99046623D01*
X125478822Y-99065645D01*
G36*
X126246703Y-99044351D02*
G01*
X126171888Y-99049581D01*
X126102306Y-99057750D01*
X126042002Y-99068550D01*
X125995020Y-99081673D01*
X125965406Y-99096813D01*
X125960860Y-99101269D01*
X125945054Y-99135850D01*
X125949847Y-99171351D01*
X125974364Y-99201725D01*
X125975534Y-99202596D01*
X125989954Y-99211954D01*
X126005008Y-99216876D01*
X126026005Y-99217473D01*
X126058257Y-99213861D01*
X126107073Y-99206154D01*
X126111000Y-99205505D01*
X126183739Y-99196569D01*
X126262217Y-99192161D01*
X126340927Y-99192119D01*
X126414361Y-99196279D01*
X126477011Y-99204479D01*
X126523370Y-99216557D01*
X126526416Y-99217771D01*
X126560048Y-99236615D01*
X126571864Y-99255685D01*
X126562614Y-99274439D01*
X126533047Y-99292337D01*
X126483911Y-99308837D01*
X126415957Y-99323396D01*
X126370645Y-99330406D01*
X126276456Y-99343889D01*
X126201544Y-99356214D01*
X126142717Y-99368449D01*
X126096785Y-99381661D01*
X126060555Y-99396917D01*
X126030838Y-99415285D01*
X126004442Y-99437831D01*
X125983230Y-99459971D01*
X125958065Y-99490819D01*
X125945681Y-99517345D01*
X125941808Y-99550026D01*
X125941667Y-99561995D01*
X125944576Y-99601712D01*
X125956202Y-99631259D01*
X125976323Y-99657486D01*
X126017216Y-99697576D01*
X126062817Y-99728149D01*
X126116513Y-99750203D01*
X126181692Y-99764735D01*
X126261744Y-99772741D01*
X126360057Y-99775218D01*
X126376289Y-99775177D01*
X126441849Y-99773818D01*
X126506866Y-99770730D01*
X126564252Y-99766356D01*
X126606922Y-99761140D01*
X126610372Y-99760541D01*
X126652796Y-99750491D01*
X126688780Y-99737796D01*
X126709150Y-99726190D01*
X126728107Y-99695572D01*
X126729427Y-99659918D01*
X126713085Y-99628144D01*
X126709429Y-99624551D01*
X126694315Y-99613876D01*
X126675415Y-99609276D01*
X126646162Y-99610059D01*
X126610651Y-99614127D01*
X126570970Y-99617762D01*
X126515345Y-99620828D01*
X126450406Y-99623053D01*
X126382785Y-99624164D01*
X126365000Y-99624237D01*
X126297128Y-99623964D01*
X126247454Y-99622646D01*
X126211610Y-99619827D01*
X126185224Y-99615050D01*
X126163926Y-99607857D01*
X126151126Y-99601867D01*
X126123000Y-99585233D01*
X126105068Y-99570168D01*
X126102447Y-99565897D01*
X126107976Y-99548263D01*
X126134260Y-99531192D01*
X126179478Y-99515458D01*
X126241808Y-99501838D01*
X126260171Y-99498804D01*
X126356090Y-99483738D01*
X126432641Y-99471146D01*
X126492780Y-99460111D01*
X126539460Y-99449720D01*
X126575637Y-99439056D01*
X126604265Y-99427205D01*
X126628298Y-99413251D01*
X126650692Y-99396281D01*
X126674402Y-99375378D01*
X126682380Y-99368049D01*
X126710353Y-99340699D01*
X126725160Y-99319029D01*
X126730952Y-99294232D01*
X126731889Y-99262983D01*
X126721575Y-99201705D01*
X126690752Y-99149640D01*
X126639595Y-99106958D01*
X126568283Y-99073825D01*
X126517400Y-99058964D01*
X126462100Y-99049366D01*
X126395853Y-99043936D01*
X126322706Y-99042367D01*
X126246703Y-99044351D01*
G37*
X126246703Y-99044351D02*
X126171888Y-99049581D01*
X126102306Y-99057750D01*
X126042002Y-99068550D01*
X125995020Y-99081673D01*
X125965406Y-99096813D01*
X125960860Y-99101269D01*
X125945054Y-99135850D01*
X125949847Y-99171351D01*
X125974364Y-99201725D01*
X125975534Y-99202596D01*
X125989954Y-99211954D01*
X126005008Y-99216876D01*
X126026005Y-99217473D01*
X126058257Y-99213861D01*
X126107073Y-99206154D01*
X126111000Y-99205505D01*
X126183739Y-99196569D01*
X126262217Y-99192161D01*
X126340927Y-99192119D01*
X126414361Y-99196279D01*
X126477011Y-99204479D01*
X126523370Y-99216557D01*
X126526416Y-99217771D01*
X126560048Y-99236615D01*
X126571864Y-99255685D01*
X126562614Y-99274439D01*
X126533047Y-99292337D01*
X126483911Y-99308837D01*
X126415957Y-99323396D01*
X126370645Y-99330406D01*
X126276456Y-99343889D01*
X126201544Y-99356214D01*
X126142717Y-99368449D01*
X126096785Y-99381661D01*
X126060555Y-99396917D01*
X126030838Y-99415285D01*
X126004442Y-99437831D01*
X125983230Y-99459971D01*
X125958065Y-99490819D01*
X125945681Y-99517345D01*
X125941808Y-99550026D01*
X125941667Y-99561995D01*
X125944576Y-99601712D01*
X125956202Y-99631259D01*
X125976323Y-99657486D01*
X126017216Y-99697576D01*
X126062817Y-99728149D01*
X126116513Y-99750203D01*
X126181692Y-99764735D01*
X126261744Y-99772741D01*
X126360057Y-99775218D01*
X126376289Y-99775177D01*
X126441849Y-99773818D01*
X126506866Y-99770730D01*
X126564252Y-99766356D01*
X126606922Y-99761140D01*
X126610372Y-99760541D01*
X126652796Y-99750491D01*
X126688780Y-99737796D01*
X126709150Y-99726190D01*
X126728107Y-99695572D01*
X126729427Y-99659918D01*
X126713085Y-99628144D01*
X126709429Y-99624551D01*
X126694315Y-99613876D01*
X126675415Y-99609276D01*
X126646162Y-99610059D01*
X126610651Y-99614127D01*
X126570970Y-99617762D01*
X126515345Y-99620828D01*
X126450406Y-99623053D01*
X126382785Y-99624164D01*
X126365000Y-99624237D01*
X126297128Y-99623964D01*
X126247454Y-99622646D01*
X126211610Y-99619827D01*
X126185224Y-99615050D01*
X126163926Y-99607857D01*
X126151126Y-99601867D01*
X126123000Y-99585233D01*
X126105068Y-99570168D01*
X126102447Y-99565897D01*
X126107976Y-99548263D01*
X126134260Y-99531192D01*
X126179478Y-99515458D01*
X126241808Y-99501838D01*
X126260171Y-99498804D01*
X126356090Y-99483738D01*
X126432641Y-99471146D01*
X126492780Y-99460111D01*
X126539460Y-99449720D01*
X126575637Y-99439056D01*
X126604265Y-99427205D01*
X126628298Y-99413251D01*
X126650692Y-99396281D01*
X126674402Y-99375378D01*
X126682380Y-99368049D01*
X126710353Y-99340699D01*
X126725160Y-99319029D01*
X126730952Y-99294232D01*
X126731889Y-99262983D01*
X126721575Y-99201705D01*
X126690752Y-99149640D01*
X126639595Y-99106958D01*
X126568283Y-99073825D01*
X126517400Y-99058964D01*
X126462100Y-99049366D01*
X126395853Y-99043936D01*
X126322706Y-99042367D01*
X126246703Y-99044351D01*
G36*
X127267794Y-99043146D02*
G01*
X127198386Y-99043518D01*
X127145997Y-99044385D01*
X127107847Y-99045946D01*
X127081159Y-99048403D01*
X127063153Y-99051957D01*
X127051049Y-99056810D01*
X127042069Y-99063161D01*
X127038818Y-99066084D01*
X127019043Y-99097142D01*
X127015482Y-99132828D01*
X127028491Y-99164510D01*
X127034506Y-99170913D01*
X127044235Y-99177121D01*
X127059901Y-99181910D01*
X127084408Y-99185514D01*
X127120661Y-99188164D01*
X127171565Y-99190095D01*
X127240026Y-99191539D01*
X127302617Y-99192418D01*
X127550334Y-99195467D01*
X127553719Y-99260378D01*
X127557105Y-99325289D01*
X127388958Y-99325289D01*
X127315959Y-99325919D01*
X127262517Y-99328553D01*
X127225628Y-99334309D01*
X127202288Y-99344304D01*
X127189494Y-99359656D01*
X127184242Y-99381482D01*
X127183445Y-99401738D01*
X127185923Y-99426592D01*
X127195277Y-99444906D01*
X127214383Y-99457637D01*
X127246118Y-99465741D01*
X127293359Y-99470176D01*
X127358983Y-99471899D01*
X127394801Y-99472045D01*
X127555978Y-99472045D01*
X127555978Y-99630089D01*
X127307622Y-99630089D01*
X127226213Y-99630202D01*
X127164342Y-99630712D01*
X127118968Y-99631870D01*
X127087054Y-99633930D01*
X127065559Y-99637146D01*
X127051443Y-99641772D01*
X127041668Y-99648059D01*
X127036689Y-99652667D01*
X127019610Y-99679560D01*
X127014111Y-99703467D01*
X127021963Y-99732667D01*
X127036689Y-99754267D01*
X127044546Y-99761066D01*
X127054688Y-99766346D01*
X127069844Y-99770298D01*
X127092741Y-99773113D01*
X127126109Y-99774982D01*
X127172675Y-99776098D01*
X127235167Y-99776651D01*
X127316314Y-99776833D01*
X127358422Y-99776845D01*
X127448598Y-99776765D01*
X127518924Y-99776398D01*
X127572129Y-99775552D01*
X127610940Y-99774036D01*
X127638087Y-99771659D01*
X127656298Y-99768229D01*
X127668300Y-99763554D01*
X127676822Y-99757444D01*
X127680156Y-99754267D01*
X127686755Y-99746670D01*
X127691927Y-99736870D01*
X127695846Y-99722239D01*
X127698684Y-99700152D01*
X127700615Y-99667982D01*
X127701812Y-99623103D01*
X127702448Y-99562889D01*
X127702697Y-99484713D01*
X127702734Y-99411923D01*
X127702700Y-99318707D01*
X127702465Y-99245431D01*
X127701830Y-99189458D01*
X127700594Y-99148151D01*
X127698556Y-99118872D01*
X127695517Y-99098984D01*
X127691277Y-99085850D01*
X127685635Y-99076832D01*
X127678391Y-99069293D01*
X127676606Y-99067612D01*
X127667945Y-99060172D01*
X127657882Y-99054409D01*
X127643625Y-99050112D01*
X127622383Y-99047064D01*
X127591364Y-99045051D01*
X127547777Y-99043860D01*
X127488831Y-99043275D01*
X127411734Y-99043083D01*
X127357001Y-99043067D01*
X127267794Y-99043146D01*
G37*
X127267794Y-99043146D02*
X127198386Y-99043518D01*
X127145997Y-99044385D01*
X127107847Y-99045946D01*
X127081159Y-99048403D01*
X127063153Y-99051957D01*
X127051049Y-99056810D01*
X127042069Y-99063161D01*
X127038818Y-99066084D01*
X127019043Y-99097142D01*
X127015482Y-99132828D01*
X127028491Y-99164510D01*
X127034506Y-99170913D01*
X127044235Y-99177121D01*
X127059901Y-99181910D01*
X127084408Y-99185514D01*
X127120661Y-99188164D01*
X127171565Y-99190095D01*
X127240026Y-99191539D01*
X127302617Y-99192418D01*
X127550334Y-99195467D01*
X127553719Y-99260378D01*
X127557105Y-99325289D01*
X127388958Y-99325289D01*
X127315959Y-99325919D01*
X127262517Y-99328553D01*
X127225628Y-99334309D01*
X127202288Y-99344304D01*
X127189494Y-99359656D01*
X127184242Y-99381482D01*
X127183445Y-99401738D01*
X127185923Y-99426592D01*
X127195277Y-99444906D01*
X127214383Y-99457637D01*
X127246118Y-99465741D01*
X127293359Y-99470176D01*
X127358983Y-99471899D01*
X127394801Y-99472045D01*
X127555978Y-99472045D01*
X127555978Y-99630089D01*
X127307622Y-99630089D01*
X127226213Y-99630202D01*
X127164342Y-99630712D01*
X127118968Y-99631870D01*
X127087054Y-99633930D01*
X127065559Y-99637146D01*
X127051443Y-99641772D01*
X127041668Y-99648059D01*
X127036689Y-99652667D01*
X127019610Y-99679560D01*
X127014111Y-99703467D01*
X127021963Y-99732667D01*
X127036689Y-99754267D01*
X127044546Y-99761066D01*
X127054688Y-99766346D01*
X127069844Y-99770298D01*
X127092741Y-99773113D01*
X127126109Y-99774982D01*
X127172675Y-99776098D01*
X127235167Y-99776651D01*
X127316314Y-99776833D01*
X127358422Y-99776845D01*
X127448598Y-99776765D01*
X127518924Y-99776398D01*
X127572129Y-99775552D01*
X127610940Y-99774036D01*
X127638087Y-99771659D01*
X127656298Y-99768229D01*
X127668300Y-99763554D01*
X127676822Y-99757444D01*
X127680156Y-99754267D01*
X127686755Y-99746670D01*
X127691927Y-99736870D01*
X127695846Y-99722239D01*
X127698684Y-99700152D01*
X127700615Y-99667982D01*
X127701812Y-99623103D01*
X127702448Y-99562889D01*
X127702697Y-99484713D01*
X127702734Y-99411923D01*
X127702700Y-99318707D01*
X127702465Y-99245431D01*
X127701830Y-99189458D01*
X127700594Y-99148151D01*
X127698556Y-99118872D01*
X127695517Y-99098984D01*
X127691277Y-99085850D01*
X127685635Y-99076832D01*
X127678391Y-99069293D01*
X127676606Y-99067612D01*
X127667945Y-99060172D01*
X127657882Y-99054409D01*
X127643625Y-99050112D01*
X127622383Y-99047064D01*
X127591364Y-99045051D01*
X127547777Y-99043860D01*
X127488831Y-99043275D01*
X127411734Y-99043083D01*
X127357001Y-99043067D01*
X127267794Y-99043146D01*
G36*
X128676371Y-99043066D02*
G01*
X128636889Y-99043467D01*
X128521200Y-99046259D01*
X128424311Y-99054550D01*
X128342919Y-99069232D01*
X128273723Y-99091193D01*
X128213420Y-99121322D01*
X128158708Y-99160510D01*
X128139167Y-99177532D01*
X128106750Y-99217363D01*
X128077520Y-99271413D01*
X128054991Y-99331323D01*
X128042679Y-99388739D01*
X128041400Y-99409956D01*
X128049417Y-99468769D01*
X128070899Y-99533013D01*
X128101999Y-99593821D01*
X128138866Y-99642330D01*
X128144854Y-99648182D01*
X128195579Y-99689321D01*
X128251125Y-99721435D01*
X128314696Y-99745365D01*
X128389494Y-99761953D01*
X128478722Y-99772041D01*
X128585582Y-99776469D01*
X128634528Y-99776845D01*
X128696762Y-99776545D01*
X128740528Y-99775292D01*
X128769931Y-99772554D01*
X128789079Y-99767801D01*
X128802077Y-99760501D01*
X128809045Y-99754267D01*
X128815626Y-99746694D01*
X128820788Y-99736924D01*
X128824703Y-99722340D01*
X128827543Y-99700326D01*
X128829480Y-99668264D01*
X128830684Y-99623536D01*
X128831328Y-99563526D01*
X128831583Y-99485617D01*
X128831622Y-99409956D01*
X128831870Y-99309041D01*
X128831817Y-99228427D01*
X128830857Y-99189822D01*
X128684867Y-99189822D01*
X128684867Y-99630089D01*
X128591734Y-99630004D01*
X128535693Y-99628396D01*
X128476999Y-99624256D01*
X128428028Y-99618464D01*
X128426538Y-99618226D01*
X128347392Y-99599090D01*
X128286002Y-99569287D01*
X128239305Y-99526878D01*
X128209635Y-99480961D01*
X128191353Y-99430026D01*
X128192771Y-99382200D01*
X128213988Y-99330933D01*
X128255489Y-99277899D01*
X128312998Y-99238600D01*
X128387750Y-99212331D01*
X128437708Y-99203035D01*
X128494416Y-99196507D01*
X128554519Y-99191782D01*
X128605639Y-99189817D01*
X128608667Y-99189808D01*
X128684867Y-99189822D01*
X128830857Y-99189822D01*
X128830260Y-99165851D01*
X128825998Y-99119055D01*
X128817830Y-99085778D01*
X128804556Y-99063759D01*
X128784974Y-99050739D01*
X128757883Y-99044457D01*
X128722082Y-99042653D01*
X128676371Y-99043066D01*
G37*
X128676371Y-99043066D02*
X128636889Y-99043467D01*
X128521200Y-99046259D01*
X128424311Y-99054550D01*
X128342919Y-99069232D01*
X128273723Y-99091193D01*
X128213420Y-99121322D01*
X128158708Y-99160510D01*
X128139167Y-99177532D01*
X128106750Y-99217363D01*
X128077520Y-99271413D01*
X128054991Y-99331323D01*
X128042679Y-99388739D01*
X128041400Y-99409956D01*
X128049417Y-99468769D01*
X128070899Y-99533013D01*
X128101999Y-99593821D01*
X128138866Y-99642330D01*
X128144854Y-99648182D01*
X128195579Y-99689321D01*
X128251125Y-99721435D01*
X128314696Y-99745365D01*
X128389494Y-99761953D01*
X128478722Y-99772041D01*
X128585582Y-99776469D01*
X128634528Y-99776845D01*
X128696762Y-99776545D01*
X128740528Y-99775292D01*
X128769931Y-99772554D01*
X128789079Y-99767801D01*
X128802077Y-99760501D01*
X128809045Y-99754267D01*
X128815626Y-99746694D01*
X128820788Y-99736924D01*
X128824703Y-99722340D01*
X128827543Y-99700326D01*
X128829480Y-99668264D01*
X128830684Y-99623536D01*
X128831328Y-99563526D01*
X128831583Y-99485617D01*
X128831622Y-99409956D01*
X128831870Y-99309041D01*
X128831817Y-99228427D01*
X128830857Y-99189822D01*
X128684867Y-99189822D01*
X128684867Y-99630089D01*
X128591734Y-99630004D01*
X128535693Y-99628396D01*
X128476999Y-99624256D01*
X128428028Y-99618464D01*
X128426538Y-99618226D01*
X128347392Y-99599090D01*
X128286002Y-99569287D01*
X128239305Y-99526878D01*
X128209635Y-99480961D01*
X128191353Y-99430026D01*
X128192771Y-99382200D01*
X128213988Y-99330933D01*
X128255489Y-99277899D01*
X128312998Y-99238600D01*
X128387750Y-99212331D01*
X128437708Y-99203035D01*
X128494416Y-99196507D01*
X128554519Y-99191782D01*
X128605639Y-99189817D01*
X128608667Y-99189808D01*
X128684867Y-99189822D01*
X128830857Y-99189822D01*
X128830260Y-99165851D01*
X128825998Y-99119055D01*
X128817830Y-99085778D01*
X128804556Y-99063759D01*
X128784974Y-99050739D01*
X128757883Y-99044457D01*
X128722082Y-99042653D01*
X128676371Y-99043066D01*
G36*
X124828043Y-93800571D02*
G01*
X124731768Y-93824809D01*
X124645184Y-93867641D01*
X124570373Y-93927419D01*
X124509418Y-94002494D01*
X124464399Y-94091220D01*
X124438136Y-94187530D01*
X124432286Y-94284795D01*
X124447140Y-94378654D01*
X124480840Y-94466511D01*
X124531528Y-94545770D01*
X124597345Y-94613836D01*
X124676434Y-94668112D01*
X124766934Y-94706002D01*
X124818200Y-94718426D01*
X124862698Y-94725947D01*
X124896999Y-94728919D01*
X124929960Y-94727094D01*
X124970434Y-94720225D01*
X125003531Y-94713250D01*
X125096947Y-94681741D01*
X125180619Y-94630617D01*
X125252665Y-94561429D01*
X125311200Y-94475728D01*
X125325148Y-94448489D01*
X125341586Y-94412122D01*
X125351894Y-94381582D01*
X125357460Y-94349450D01*
X125359669Y-94308307D01*
X125359948Y-94262222D01*
X125355861Y-94177865D01*
X125342446Y-94108586D01*
X125317256Y-94047961D01*
X125277846Y-93989567D01*
X125239298Y-93945302D01*
X125167406Y-93879484D01*
X125092313Y-93834053D01*
X125009562Y-93806850D01*
X124931928Y-93796576D01*
X124828043Y-93800571D01*
G37*
X124828043Y-93800571D02*
X124731768Y-93824809D01*
X124645184Y-93867641D01*
X124570373Y-93927419D01*
X124509418Y-94002494D01*
X124464399Y-94091220D01*
X124438136Y-94187530D01*
X124432286Y-94284795D01*
X124447140Y-94378654D01*
X124480840Y-94466511D01*
X124531528Y-94545770D01*
X124597345Y-94613836D01*
X124676434Y-94668112D01*
X124766934Y-94706002D01*
X124818200Y-94718426D01*
X124862698Y-94725947D01*
X124896999Y-94728919D01*
X124929960Y-94727094D01*
X124970434Y-94720225D01*
X125003531Y-94713250D01*
X125096947Y-94681741D01*
X125180619Y-94630617D01*
X125252665Y-94561429D01*
X125311200Y-94475728D01*
X125325148Y-94448489D01*
X125341586Y-94412122D01*
X125351894Y-94381582D01*
X125357460Y-94349450D01*
X125359669Y-94308307D01*
X125359948Y-94262222D01*
X125355861Y-94177865D01*
X125342446Y-94108586D01*
X125317256Y-94047961D01*
X125277846Y-93989567D01*
X125239298Y-93945302D01*
X125167406Y-93879484D01*
X125092313Y-93834053D01*
X125009562Y-93806850D01*
X124931928Y-93796576D01*
X124828043Y-93800571D01*
G36*
X116368493Y-96246245D02*
G01*
X116368474Y-96480662D01*
X116368448Y-96693603D01*
X116368375Y-96886168D01*
X116368218Y-97059459D01*
X116367936Y-97214576D01*
X116367491Y-97352620D01*
X116366844Y-97474692D01*
X116365955Y-97581894D01*
X116364787Y-97675326D01*
X116363299Y-97756090D01*
X116361454Y-97825286D01*
X116359211Y-97884015D01*
X116356531Y-97933379D01*
X116353377Y-97974478D01*
X116349708Y-98008413D01*
X116345487Y-98036286D01*
X116340673Y-98059198D01*
X116335227Y-98078249D01*
X116329112Y-98094540D01*
X116322288Y-98109173D01*
X116314715Y-98123249D01*
X116306355Y-98137868D01*
X116301161Y-98146974D01*
X116266896Y-98207689D01*
X117125045Y-98207689D01*
X117125045Y-98111733D01*
X117125776Y-98068370D01*
X117127728Y-98035205D01*
X117130537Y-98017424D01*
X117131779Y-98015778D01*
X117143201Y-98022662D01*
X117165916Y-98040505D01*
X117188615Y-98059879D01*
X117243200Y-98100614D01*
X117312679Y-98141617D01*
X117389730Y-98179123D01*
X117467035Y-98209364D01*
X117497887Y-98219012D01*
X117566384Y-98233578D01*
X117649236Y-98243539D01*
X117738629Y-98248583D01*
X117826752Y-98248396D01*
X117905793Y-98242666D01*
X117943489Y-98236858D01*
X118081586Y-98198797D01*
X118208887Y-98141073D01*
X118324708Y-98064211D01*
X118428363Y-97968739D01*
X118519167Y-97855179D01*
X118585969Y-97744381D01*
X118640836Y-97627625D01*
X118682837Y-97508276D01*
X118712833Y-97382283D01*
X118731689Y-97245594D01*
X118740268Y-97094158D01*
X118740994Y-97016711D01*
X118738900Y-96959934D01*
X117909783Y-96959934D01*
X117909576Y-97053002D01*
X117906663Y-97140692D01*
X117901000Y-97217772D01*
X117892545Y-97279009D01*
X117889962Y-97291350D01*
X117858160Y-97398633D01*
X117816502Y-97485658D01*
X117764637Y-97552642D01*
X117702219Y-97599805D01*
X117628900Y-97627365D01*
X117544331Y-97635541D01*
X117448165Y-97624551D01*
X117384689Y-97608829D01*
X117335546Y-97590639D01*
X117281417Y-97564791D01*
X117240756Y-97541089D01*
X117170200Y-97494721D01*
X117170200Y-96344530D01*
X117237608Y-96300962D01*
X117316133Y-96260040D01*
X117400319Y-96233389D01*
X117485443Y-96221465D01*
X117566784Y-96224722D01*
X117639620Y-96243615D01*
X117671574Y-96259184D01*
X117729499Y-96302181D01*
X117778456Y-96358953D01*
X117819610Y-96431575D01*
X117854126Y-96522121D01*
X117883167Y-96632666D01*
X117884448Y-96638533D01*
X117894619Y-96700788D01*
X117902261Y-96778594D01*
X117907330Y-96866720D01*
X117909783Y-96959934D01*
X118738900Y-96959934D01*
X118733143Y-96803895D01*
X118711198Y-96608059D01*
X118675214Y-96429332D01*
X118625241Y-96267845D01*
X118561332Y-96123726D01*
X118483538Y-95997106D01*
X118391911Y-95888115D01*
X118286503Y-95796883D01*
X118241338Y-95765932D01*
X118140389Y-95709785D01*
X118037099Y-95670174D01*
X117927011Y-95646014D01*
X117805670Y-95636219D01*
X117713164Y-95637265D01*
X117583510Y-95648231D01*
X117470916Y-95670046D01*
X117372125Y-95703714D01*
X117283879Y-95750236D01*
X117235014Y-95784448D01*
X117205647Y-95806362D01*
X117183957Y-95821333D01*
X117175747Y-95825733D01*
X117174132Y-95814904D01*
X117172841Y-95784251D01*
X117171862Y-95736526D01*
X117171183Y-95674479D01*
X117170790Y-95600862D01*
X117170670Y-95518427D01*
X117170812Y-95429925D01*
X117171203Y-95338107D01*
X117171829Y-95245724D01*
X117172680Y-95155528D01*
X117173740Y-95070271D01*
X117174999Y-94992703D01*
X117176444Y-94925576D01*
X117178062Y-94871641D01*
X117179839Y-94833650D01*
X117180331Y-94826667D01*
X117187908Y-94756251D01*
X117199469Y-94701102D01*
X117217208Y-94653981D01*
X117243318Y-94607647D01*
X117249585Y-94598067D01*
X117274017Y-94561378D01*
X116368689Y-94561378D01*
X116368493Y-96246245D01*
G37*
X116368493Y-96246245D02*
X116368474Y-96480662D01*
X116368448Y-96693603D01*
X116368375Y-96886168D01*
X116368218Y-97059459D01*
X116367936Y-97214576D01*
X116367491Y-97352620D01*
X116366844Y-97474692D01*
X116365955Y-97581894D01*
X116364787Y-97675326D01*
X116363299Y-97756090D01*
X116361454Y-97825286D01*
X116359211Y-97884015D01*
X116356531Y-97933379D01*
X116353377Y-97974478D01*
X116349708Y-98008413D01*
X116345487Y-98036286D01*
X116340673Y-98059198D01*
X116335227Y-98078249D01*
X116329112Y-98094540D01*
X116322288Y-98109173D01*
X116314715Y-98123249D01*
X116306355Y-98137868D01*
X116301161Y-98146974D01*
X116266896Y-98207689D01*
X117125045Y-98207689D01*
X117125045Y-98111733D01*
X117125776Y-98068370D01*
X117127728Y-98035205D01*
X117130537Y-98017424D01*
X117131779Y-98015778D01*
X117143201Y-98022662D01*
X117165916Y-98040505D01*
X117188615Y-98059879D01*
X117243200Y-98100614D01*
X117312679Y-98141617D01*
X117389730Y-98179123D01*
X117467035Y-98209364D01*
X117497887Y-98219012D01*
X117566384Y-98233578D01*
X117649236Y-98243539D01*
X117738629Y-98248583D01*
X117826752Y-98248396D01*
X117905793Y-98242666D01*
X117943489Y-98236858D01*
X118081586Y-98198797D01*
X118208887Y-98141073D01*
X118324708Y-98064211D01*
X118428363Y-97968739D01*
X118519167Y-97855179D01*
X118585969Y-97744381D01*
X118640836Y-97627625D01*
X118682837Y-97508276D01*
X118712833Y-97382283D01*
X118731689Y-97245594D01*
X118740268Y-97094158D01*
X118740994Y-97016711D01*
X118738900Y-96959934D01*
X117909783Y-96959934D01*
X117909576Y-97053002D01*
X117906663Y-97140692D01*
X117901000Y-97217772D01*
X117892545Y-97279009D01*
X117889962Y-97291350D01*
X117858160Y-97398633D01*
X117816502Y-97485658D01*
X117764637Y-97552642D01*
X117702219Y-97599805D01*
X117628900Y-97627365D01*
X117544331Y-97635541D01*
X117448165Y-97624551D01*
X117384689Y-97608829D01*
X117335546Y-97590639D01*
X117281417Y-97564791D01*
X117240756Y-97541089D01*
X117170200Y-97494721D01*
X117170200Y-96344530D01*
X117237608Y-96300962D01*
X117316133Y-96260040D01*
X117400319Y-96233389D01*
X117485443Y-96221465D01*
X117566784Y-96224722D01*
X117639620Y-96243615D01*
X117671574Y-96259184D01*
X117729499Y-96302181D01*
X117778456Y-96358953D01*
X117819610Y-96431575D01*
X117854126Y-96522121D01*
X117883167Y-96632666D01*
X117884448Y-96638533D01*
X117894619Y-96700788D01*
X117902261Y-96778594D01*
X117907330Y-96866720D01*
X117909783Y-96959934D01*
X118738900Y-96959934D01*
X118733143Y-96803895D01*
X118711198Y-96608059D01*
X118675214Y-96429332D01*
X118625241Y-96267845D01*
X118561332Y-96123726D01*
X118483538Y-95997106D01*
X118391911Y-95888115D01*
X118286503Y-95796883D01*
X118241338Y-95765932D01*
X118140389Y-95709785D01*
X118037099Y-95670174D01*
X117927011Y-95646014D01*
X117805670Y-95636219D01*
X117713164Y-95637265D01*
X117583510Y-95648231D01*
X117470916Y-95670046D01*
X117372125Y-95703714D01*
X117283879Y-95750236D01*
X117235014Y-95784448D01*
X117205647Y-95806362D01*
X117183957Y-95821333D01*
X117175747Y-95825733D01*
X117174132Y-95814904D01*
X117172841Y-95784251D01*
X117171862Y-95736526D01*
X117171183Y-95674479D01*
X117170790Y-95600862D01*
X117170670Y-95518427D01*
X117170812Y-95429925D01*
X117171203Y-95338107D01*
X117171829Y-95245724D01*
X117172680Y-95155528D01*
X117173740Y-95070271D01*
X117174999Y-94992703D01*
X117176444Y-94925576D01*
X117178062Y-94871641D01*
X117179839Y-94833650D01*
X117180331Y-94826667D01*
X117187908Y-94756251D01*
X117199469Y-94701102D01*
X117217208Y-94653981D01*
X117243318Y-94607647D01*
X117249585Y-94598067D01*
X117274017Y-94561378D01*
X116368689Y-94561378D01*
X116368493Y-96246245D01*
G36*
X119881426Y-95640552D02*
G01*
X119729508Y-95660567D01*
X119594244Y-95694202D01*
X119474761Y-95741725D01*
X119370185Y-95803405D01*
X119292576Y-95866965D01*
X119223735Y-95941099D01*
X119169994Y-96020871D01*
X119127090Y-96113091D01*
X119111616Y-96156161D01*
X119098756Y-96195142D01*
X119087554Y-96231289D01*
X119077880Y-96266434D01*
X119069604Y-96302410D01*
X119062597Y-96341050D01*
X119056728Y-96384185D01*
X119051869Y-96433649D01*
X119047890Y-96491273D01*
X119044660Y-96558891D01*
X119042051Y-96638334D01*
X119039933Y-96731436D01*
X119038176Y-96840027D01*
X119036651Y-96965942D01*
X119035228Y-97111012D01*
X119033975Y-97253778D01*
X119032649Y-97409968D01*
X119031444Y-97545239D01*
X119030234Y-97661246D01*
X119028894Y-97759645D01*
X119027300Y-97842093D01*
X119025325Y-97910246D01*
X119022844Y-97965760D01*
X119019731Y-98010292D01*
X119015862Y-98045498D01*
X119011111Y-98073034D01*
X119005352Y-98094556D01*
X118998461Y-98111722D01*
X118990311Y-98126186D01*
X118980777Y-98139606D01*
X118969734Y-98153638D01*
X118965434Y-98159071D01*
X118949614Y-98181910D01*
X118942578Y-98197463D01*
X118942556Y-98197922D01*
X118953433Y-98200121D01*
X118984418Y-98202147D01*
X119033043Y-98203942D01*
X119096837Y-98205451D01*
X119173331Y-98206616D01*
X119260056Y-98207380D01*
X119354543Y-98207686D01*
X119365450Y-98207689D01*
X119788343Y-98207689D01*
X119791605Y-98111622D01*
X119794867Y-98015556D01*
X119856956Y-98066543D01*
X119954286Y-98134057D01*
X120064187Y-98188749D01*
X120150651Y-98218978D01*
X120219722Y-98233666D01*
X120303075Y-98243659D01*
X120392841Y-98248646D01*
X120481155Y-98248313D01*
X120560149Y-98242351D01*
X120596378Y-98236638D01*
X120736397Y-98198776D01*
X120862822Y-98143932D01*
X120974740Y-98072924D01*
X121071238Y-97986568D01*
X121151400Y-97885679D01*
X121214313Y-97771076D01*
X121258688Y-97644984D01*
X121271022Y-97588401D01*
X121278632Y-97526202D01*
X121282261Y-97451363D01*
X121282755Y-97417467D01*
X121282690Y-97414282D01*
X120522752Y-97414282D01*
X120513459Y-97489333D01*
X120485272Y-97553160D01*
X120436803Y-97608798D01*
X120431746Y-97613211D01*
X120383452Y-97648037D01*
X120331743Y-97670620D01*
X120271011Y-97682540D01*
X120195648Y-97685383D01*
X120177541Y-97684978D01*
X120123722Y-97682325D01*
X120083692Y-97676909D01*
X120048676Y-97666745D01*
X120009897Y-97649850D01*
X119999255Y-97644672D01*
X119938604Y-97608844D01*
X119891785Y-97566212D01*
X119879048Y-97550973D01*
X119834378Y-97494462D01*
X119834378Y-97298586D01*
X119834914Y-97219939D01*
X119836604Y-97161988D01*
X119839572Y-97122875D01*
X119843943Y-97100741D01*
X119848028Y-97094274D01*
X119863953Y-97091111D01*
X119897736Y-97088488D01*
X119944660Y-97086655D01*
X120000007Y-97085857D01*
X120008894Y-97085842D01*
X120129670Y-97091096D01*
X120232340Y-97107263D01*
X120318894Y-97134961D01*
X120391319Y-97174808D01*
X120446249Y-97221758D01*
X120490796Y-97279645D01*
X120515520Y-97342693D01*
X120522752Y-97414282D01*
X121282690Y-97414282D01*
X121280822Y-97323712D01*
X121272478Y-97244812D01*
X121256232Y-97173590D01*
X121230595Y-97102864D01*
X121206599Y-97050493D01*
X121147980Y-96955196D01*
X121069883Y-96867170D01*
X120974685Y-96788017D01*
X120864762Y-96719340D01*
X120742490Y-96662741D01*
X120610245Y-96619821D01*
X120545578Y-96604882D01*
X120409396Y-96582777D01*
X120260951Y-96568194D01*
X120109495Y-96561813D01*
X119982936Y-96563445D01*
X119821050Y-96570224D01*
X119828470Y-96511245D01*
X119847762Y-96412092D01*
X119878896Y-96331372D01*
X119922731Y-96268466D01*
X119980129Y-96222756D01*
X120051952Y-96193622D01*
X120139059Y-96180447D01*
X120242314Y-96182611D01*
X120280289Y-96186612D01*
X120421480Y-96211780D01*
X120558293Y-96252814D01*
X120652822Y-96290815D01*
X120697982Y-96310190D01*
X120736415Y-96325760D01*
X120762766Y-96335405D01*
X120770454Y-96337452D01*
X120780198Y-96328374D01*
X120796917Y-96299405D01*
X120820768Y-96250217D01*
X120851907Y-96180484D01*
X120890493Y-96089879D01*
X120897090Y-96074089D01*
X120927147Y-96001772D01*
X120954126Y-95936425D01*
X120976864Y-95880906D01*
X120994194Y-95838072D01*
X121004952Y-95810781D01*
X121008059Y-95801942D01*
X120998060Y-95797187D01*
X120971783Y-95791910D01*
X120943511Y-95788231D01*
X120913354Y-95783474D01*
X120865567Y-95774028D01*
X120804388Y-95760820D01*
X120734054Y-95744776D01*
X120658806Y-95726820D01*
X120630245Y-95719797D01*
X120525184Y-95694209D01*
X120437520Y-95674147D01*
X120362932Y-95658969D01*
X120297097Y-95648035D01*
X120235693Y-95640704D01*
X120174398Y-95636335D01*
X120108890Y-95634287D01*
X120050872Y-95633889D01*
X119881426Y-95640552D01*
G37*
X119881426Y-95640552D02*
X119729508Y-95660567D01*
X119594244Y-95694202D01*
X119474761Y-95741725D01*
X119370185Y-95803405D01*
X119292576Y-95866965D01*
X119223735Y-95941099D01*
X119169994Y-96020871D01*
X119127090Y-96113091D01*
X119111616Y-96156161D01*
X119098756Y-96195142D01*
X119087554Y-96231289D01*
X119077880Y-96266434D01*
X119069604Y-96302410D01*
X119062597Y-96341050D01*
X119056728Y-96384185D01*
X119051869Y-96433649D01*
X119047890Y-96491273D01*
X119044660Y-96558891D01*
X119042051Y-96638334D01*
X119039933Y-96731436D01*
X119038176Y-96840027D01*
X119036651Y-96965942D01*
X119035228Y-97111012D01*
X119033975Y-97253778D01*
X119032649Y-97409968D01*
X119031444Y-97545239D01*
X119030234Y-97661246D01*
X119028894Y-97759645D01*
X119027300Y-97842093D01*
X119025325Y-97910246D01*
X119022844Y-97965760D01*
X119019731Y-98010292D01*
X119015862Y-98045498D01*
X119011111Y-98073034D01*
X119005352Y-98094556D01*
X118998461Y-98111722D01*
X118990311Y-98126186D01*
X118980777Y-98139606D01*
X118969734Y-98153638D01*
X118965434Y-98159071D01*
X118949614Y-98181910D01*
X118942578Y-98197463D01*
X118942556Y-98197922D01*
X118953433Y-98200121D01*
X118984418Y-98202147D01*
X119033043Y-98203942D01*
X119096837Y-98205451D01*
X119173331Y-98206616D01*
X119260056Y-98207380D01*
X119354543Y-98207686D01*
X119365450Y-98207689D01*
X119788343Y-98207689D01*
X119791605Y-98111622D01*
X119794867Y-98015556D01*
X119856956Y-98066543D01*
X119954286Y-98134057D01*
X120064187Y-98188749D01*
X120150651Y-98218978D01*
X120219722Y-98233666D01*
X120303075Y-98243659D01*
X120392841Y-98248646D01*
X120481155Y-98248313D01*
X120560149Y-98242351D01*
X120596378Y-98236638D01*
X120736397Y-98198776D01*
X120862822Y-98143932D01*
X120974740Y-98072924D01*
X121071238Y-97986568D01*
X121151400Y-97885679D01*
X121214313Y-97771076D01*
X121258688Y-97644984D01*
X121271022Y-97588401D01*
X121278632Y-97526202D01*
X121282261Y-97451363D01*
X121282755Y-97417467D01*
X121282690Y-97414282D01*
X120522752Y-97414282D01*
X120513459Y-97489333D01*
X120485272Y-97553160D01*
X120436803Y-97608798D01*
X120431746Y-97613211D01*
X120383452Y-97648037D01*
X120331743Y-97670620D01*
X120271011Y-97682540D01*
X120195648Y-97685383D01*
X120177541Y-97684978D01*
X120123722Y-97682325D01*
X120083692Y-97676909D01*
X120048676Y-97666745D01*
X120009897Y-97649850D01*
X119999255Y-97644672D01*
X119938604Y-97608844D01*
X119891785Y-97566212D01*
X119879048Y-97550973D01*
X119834378Y-97494462D01*
X119834378Y-97298586D01*
X119834914Y-97219939D01*
X119836604Y-97161988D01*
X119839572Y-97122875D01*
X119843943Y-97100741D01*
X119848028Y-97094274D01*
X119863953Y-97091111D01*
X119897736Y-97088488D01*
X119944660Y-97086655D01*
X120000007Y-97085857D01*
X120008894Y-97085842D01*
X120129670Y-97091096D01*
X120232340Y-97107263D01*
X120318894Y-97134961D01*
X120391319Y-97174808D01*
X120446249Y-97221758D01*
X120490796Y-97279645D01*
X120515520Y-97342693D01*
X120522752Y-97414282D01*
X121282690Y-97414282D01*
X121280822Y-97323712D01*
X121272478Y-97244812D01*
X121256232Y-97173590D01*
X121230595Y-97102864D01*
X121206599Y-97050493D01*
X121147980Y-96955196D01*
X121069883Y-96867170D01*
X120974685Y-96788017D01*
X120864762Y-96719340D01*
X120742490Y-96662741D01*
X120610245Y-96619821D01*
X120545578Y-96604882D01*
X120409396Y-96582777D01*
X120260951Y-96568194D01*
X120109495Y-96561813D01*
X119982936Y-96563445D01*
X119821050Y-96570224D01*
X119828470Y-96511245D01*
X119847762Y-96412092D01*
X119878896Y-96331372D01*
X119922731Y-96268466D01*
X119980129Y-96222756D01*
X120051952Y-96193622D01*
X120139059Y-96180447D01*
X120242314Y-96182611D01*
X120280289Y-96186612D01*
X120421480Y-96211780D01*
X120558293Y-96252814D01*
X120652822Y-96290815D01*
X120697982Y-96310190D01*
X120736415Y-96325760D01*
X120762766Y-96335405D01*
X120770454Y-96337452D01*
X120780198Y-96328374D01*
X120796917Y-96299405D01*
X120820768Y-96250217D01*
X120851907Y-96180484D01*
X120890493Y-96089879D01*
X120897090Y-96074089D01*
X120927147Y-96001772D01*
X120954126Y-95936425D01*
X120976864Y-95880906D01*
X120994194Y-95838072D01*
X121004952Y-95810781D01*
X121008059Y-95801942D01*
X120998060Y-95797187D01*
X120971783Y-95791910D01*
X120943511Y-95788231D01*
X120913354Y-95783474D01*
X120865567Y-95774028D01*
X120804388Y-95760820D01*
X120734054Y-95744776D01*
X120658806Y-95726820D01*
X120630245Y-95719797D01*
X120525184Y-95694209D01*
X120437520Y-95674147D01*
X120362932Y-95658969D01*
X120297097Y-95648035D01*
X120235693Y-95640704D01*
X120174398Y-95636335D01*
X120108890Y-95634287D01*
X120050872Y-95633889D01*
X119881426Y-95640552D01*
G36*
X122226571Y-94723071D02*
G01*
X122066430Y-94744245D01*
X121902490Y-94784385D01*
X121732687Y-94843889D01*
X121554957Y-94923154D01*
X121543690Y-94928699D01*
X121485995Y-94956725D01*
X121434448Y-94980802D01*
X121392809Y-94999249D01*
X121364838Y-95010386D01*
X121355267Y-95012933D01*
X121336050Y-95017941D01*
X121331439Y-95022147D01*
X121336542Y-95032580D01*
X121352582Y-95058868D01*
X121377712Y-95098257D01*
X121410086Y-95147991D01*
X121447857Y-95205315D01*
X121489178Y-95267476D01*
X121532202Y-95331718D01*
X121575083Y-95395285D01*
X121615974Y-95455425D01*
X121653029Y-95509380D01*
X121684400Y-95554397D01*
X121708241Y-95587721D01*
X121722706Y-95606597D01*
X121724691Y-95608787D01*
X121734809Y-95604138D01*
X121757150Y-95586962D01*
X121787720Y-95560440D01*
X121803464Y-95545964D01*
X121899953Y-95470682D01*
X122006664Y-95415241D01*
X122122168Y-95380141D01*
X122245038Y-95365880D01*
X122314439Y-95367051D01*
X122435577Y-95384212D01*
X122544795Y-95420094D01*
X122642418Y-95474959D01*
X122728772Y-95549070D01*
X122804185Y-95642688D01*
X122868982Y-95756076D01*
X122906399Y-95842667D01*
X122950252Y-95978366D01*
X122982572Y-96125850D01*
X123003443Y-96281314D01*
X123012949Y-96440956D01*
X123011173Y-96600973D01*
X122998197Y-96757561D01*
X122974106Y-96906918D01*
X122938982Y-97045240D01*
X122892908Y-97168724D01*
X122876627Y-97202978D01*
X122808380Y-97317064D01*
X122727921Y-97413557D01*
X122636430Y-97491670D01*
X122535089Y-97550617D01*
X122425080Y-97589612D01*
X122307585Y-97607868D01*
X122266117Y-97609211D01*
X122144559Y-97598290D01*
X122024122Y-97565474D01*
X121906334Y-97511439D01*
X121792723Y-97436865D01*
X121701315Y-97358539D01*
X121654785Y-97314008D01*
X121473517Y-97611271D01*
X121428420Y-97685433D01*
X121387181Y-97753646D01*
X121351265Y-97813459D01*
X121322134Y-97862420D01*
X121301250Y-97898079D01*
X121290076Y-97917984D01*
X121288625Y-97921079D01*
X121296854Y-97930718D01*
X121322433Y-97947999D01*
X121362127Y-97971283D01*
X121412703Y-97998934D01*
X121470926Y-98029315D01*
X121533563Y-98060790D01*
X121597379Y-98091722D01*
X121659140Y-98120473D01*
X121715612Y-98145408D01*
X121763562Y-98164889D01*
X121787014Y-98173318D01*
X121920779Y-98211133D01*
X122058673Y-98236136D01*
X122206378Y-98249140D01*
X122333167Y-98251468D01*
X122401122Y-98250373D01*
X122466723Y-98248275D01*
X122524153Y-98245434D01*
X122567597Y-98242106D01*
X122581702Y-98240422D01*
X122720716Y-98211587D01*
X122862243Y-98166468D01*
X122999725Y-98107750D01*
X123126606Y-98038120D01*
X123204111Y-97985441D01*
X123331519Y-97877239D01*
X123449822Y-97750671D01*
X123556828Y-97608866D01*
X123650348Y-97454951D01*
X123728190Y-97292053D01*
X123772044Y-97174756D01*
X123822292Y-96991128D01*
X123855791Y-96796581D01*
X123872551Y-96595325D01*
X123872584Y-96391568D01*
X123855899Y-96189521D01*
X123822507Y-95993392D01*
X123772420Y-95807391D01*
X123768603Y-95795803D01*
X123705719Y-95633750D01*
X123628972Y-95485832D01*
X123535758Y-95347865D01*
X123423473Y-95215661D01*
X123379608Y-95170399D01*
X123243466Y-95046457D01*
X123103509Y-94943915D01*
X122957589Y-94861656D01*
X122803558Y-94798564D01*
X122639268Y-94753523D01*
X122543711Y-94736033D01*
X122384977Y-94720466D01*
X122226571Y-94723071D01*
G37*
X122226571Y-94723071D02*
X122066430Y-94744245D01*
X121902490Y-94784385D01*
X121732687Y-94843889D01*
X121554957Y-94923154D01*
X121543690Y-94928699D01*
X121485995Y-94956725D01*
X121434448Y-94980802D01*
X121392809Y-94999249D01*
X121364838Y-95010386D01*
X121355267Y-95012933D01*
X121336050Y-95017941D01*
X121331439Y-95022147D01*
X121336542Y-95032580D01*
X121352582Y-95058868D01*
X121377712Y-95098257D01*
X121410086Y-95147991D01*
X121447857Y-95205315D01*
X121489178Y-95267476D01*
X121532202Y-95331718D01*
X121575083Y-95395285D01*
X121615974Y-95455425D01*
X121653029Y-95509380D01*
X121684400Y-95554397D01*
X121708241Y-95587721D01*
X121722706Y-95606597D01*
X121724691Y-95608787D01*
X121734809Y-95604138D01*
X121757150Y-95586962D01*
X121787720Y-95560440D01*
X121803464Y-95545964D01*
X121899953Y-95470682D01*
X122006664Y-95415241D01*
X122122168Y-95380141D01*
X122245038Y-95365880D01*
X122314439Y-95367051D01*
X122435577Y-95384212D01*
X122544795Y-95420094D01*
X122642418Y-95474959D01*
X122728772Y-95549070D01*
X122804185Y-95642688D01*
X122868982Y-95756076D01*
X122906399Y-95842667D01*
X122950252Y-95978366D01*
X122982572Y-96125850D01*
X123003443Y-96281314D01*
X123012949Y-96440956D01*
X123011173Y-96600973D01*
X122998197Y-96757561D01*
X122974106Y-96906918D01*
X122938982Y-97045240D01*
X122892908Y-97168724D01*
X122876627Y-97202978D01*
X122808380Y-97317064D01*
X122727921Y-97413557D01*
X122636430Y-97491670D01*
X122535089Y-97550617D01*
X122425080Y-97589612D01*
X122307585Y-97607868D01*
X122266117Y-97609211D01*
X122144559Y-97598290D01*
X122024122Y-97565474D01*
X121906334Y-97511439D01*
X121792723Y-97436865D01*
X121701315Y-97358539D01*
X121654785Y-97314008D01*
X121473517Y-97611271D01*
X121428420Y-97685433D01*
X121387181Y-97753646D01*
X121351265Y-97813459D01*
X121322134Y-97862420D01*
X121301250Y-97898079D01*
X121290076Y-97917984D01*
X121288625Y-97921079D01*
X121296854Y-97930718D01*
X121322433Y-97947999D01*
X121362127Y-97971283D01*
X121412703Y-97998934D01*
X121470926Y-98029315D01*
X121533563Y-98060790D01*
X121597379Y-98091722D01*
X121659140Y-98120473D01*
X121715612Y-98145408D01*
X121763562Y-98164889D01*
X121787014Y-98173318D01*
X121920779Y-98211133D01*
X122058673Y-98236136D01*
X122206378Y-98249140D01*
X122333167Y-98251468D01*
X122401122Y-98250373D01*
X122466723Y-98248275D01*
X122524153Y-98245434D01*
X122567597Y-98242106D01*
X122581702Y-98240422D01*
X122720716Y-98211587D01*
X122862243Y-98166468D01*
X122999725Y-98107750D01*
X123126606Y-98038120D01*
X123204111Y-97985441D01*
X123331519Y-97877239D01*
X123449822Y-97750671D01*
X123556828Y-97608866D01*
X123650348Y-97454951D01*
X123728190Y-97292053D01*
X123772044Y-97174756D01*
X123822292Y-96991128D01*
X123855791Y-96796581D01*
X123872551Y-96595325D01*
X123872584Y-96391568D01*
X123855899Y-96189521D01*
X123822507Y-95993392D01*
X123772420Y-95807391D01*
X123768603Y-95795803D01*
X123705719Y-95633750D01*
X123628972Y-95485832D01*
X123535758Y-95347865D01*
X123423473Y-95215661D01*
X123379608Y-95170399D01*
X123243466Y-95046457D01*
X123103509Y-94943915D01*
X122957589Y-94861656D01*
X122803558Y-94798564D01*
X122639268Y-94753523D01*
X122543711Y-94736033D01*
X122384977Y-94720466D01*
X122226571Y-94723071D01*
G36*
X125501400Y-94263054D02*
G01*
X125490535Y-94376993D01*
X125458918Y-94484616D01*
X125408015Y-94583615D01*
X125339293Y-94671684D01*
X125254219Y-94746516D01*
X125157232Y-94804384D01*
X125050964Y-94844005D01*
X124943950Y-94862573D01*
X124838300Y-94861434D01*
X124736125Y-94841930D01*
X124639534Y-94805406D01*
X124550638Y-94753205D01*
X124471546Y-94686673D01*
X124404369Y-94607152D01*
X124351217Y-94515987D01*
X124314199Y-94414523D01*
X124295427Y-94304102D01*
X124293489Y-94254206D01*
X124293489Y-94166267D01*
X124241560Y-94166267D01*
X124205253Y-94169111D01*
X124178355Y-94180911D01*
X124151249Y-94204649D01*
X124112867Y-94243031D01*
X124112867Y-96434602D01*
X124112876Y-96696739D01*
X124112908Y-96937241D01*
X124112972Y-97157048D01*
X124113076Y-97357101D01*
X124113227Y-97538344D01*
X124113434Y-97701716D01*
X124113706Y-97848160D01*
X124114050Y-97978617D01*
X124114474Y-98094029D01*
X124114987Y-98195338D01*
X124115597Y-98283484D01*
X124116312Y-98359410D01*
X124117140Y-98424057D01*
X124118089Y-98478367D01*
X124119167Y-98523280D01*
X124120383Y-98559740D01*
X124121745Y-98588687D01*
X124123261Y-98611063D01*
X124124938Y-98627809D01*
X124126786Y-98639868D01*
X124128813Y-98648180D01*
X124131025Y-98653687D01*
X124132108Y-98655537D01*
X124136271Y-98662549D01*
X124139805Y-98668996D01*
X124143635Y-98674900D01*
X124148682Y-98680286D01*
X124155871Y-98685178D01*
X124166123Y-98689598D01*
X124180364Y-98693572D01*
X124199514Y-98697121D01*
X124224499Y-98700270D01*
X124256240Y-98703042D01*
X124295662Y-98705461D01*
X124343686Y-98707551D01*
X124401237Y-98709335D01*
X124469237Y-98710837D01*
X124548610Y-98712080D01*
X124640279Y-98713089D01*
X124745166Y-98713885D01*
X124864196Y-98714494D01*
X124998290Y-98714939D01*
X125148373Y-98715243D01*
X125315367Y-98715430D01*
X125500196Y-98715524D01*
X125703783Y-98715548D01*
X125927050Y-98715525D01*
X126170922Y-98715480D01*
X126436321Y-98715437D01*
X126474704Y-98715432D01*
X126741682Y-98715389D01*
X126987002Y-98715318D01*
X127211583Y-98715213D01*
X127416345Y-98715066D01*
X127602206Y-98714869D01*
X127770088Y-98714616D01*
X127920908Y-98714300D01*
X128055587Y-98713913D01*
X128175044Y-98713447D01*
X128280199Y-98712897D01*
X128371971Y-98712253D01*
X128451279Y-98711511D01*
X128519043Y-98710661D01*
X128576182Y-98709697D01*
X128623617Y-98708611D01*
X128662266Y-98707397D01*
X128693049Y-98706047D01*
X128716885Y-98704555D01*
X128734694Y-98702911D01*
X128747395Y-98701111D01*
X128755908Y-98699145D01*
X128760266Y-98697477D01*
X128768728Y-98693906D01*
X128776497Y-98691270D01*
X128783602Y-98688634D01*
X128790073Y-98685062D01*
X128795939Y-98679621D01*
X128801229Y-98671375D01*
X128805974Y-98659390D01*
X128810202Y-98642731D01*
X128813943Y-98620463D01*
X128817227Y-98591652D01*
X128820083Y-98555363D01*
X128822540Y-98510661D01*
X128824629Y-98456611D01*
X128826378Y-98392279D01*
X128827817Y-98316730D01*
X128828976Y-98229030D01*
X128829883Y-98128243D01*
X128830569Y-98013434D01*
X128831063Y-97883670D01*
X128831395Y-97738015D01*
X128831593Y-97575535D01*
X128831687Y-97395295D01*
X128831708Y-97196360D01*
X128831685Y-96977796D01*
X128831646Y-96738668D01*
X128831622Y-96478040D01*
X128831622Y-96435889D01*
X128831636Y-96172992D01*
X128831661Y-95931732D01*
X128831671Y-95711165D01*
X128831642Y-95510352D01*
X128831548Y-95328349D01*
X128831362Y-95164216D01*
X128831059Y-95017011D01*
X128830614Y-94885792D01*
X128830034Y-94775867D01*
X128527197Y-94775867D01*
X128487407Y-94833711D01*
X128476236Y-94849479D01*
X128466166Y-94863441D01*
X128457138Y-94876784D01*
X128449097Y-94890693D01*
X128441986Y-94906356D01*
X128435747Y-94924958D01*
X128430325Y-94947686D01*
X128425662Y-94975727D01*
X128421701Y-95010267D01*
X128418385Y-95052492D01*
X128415659Y-95103589D01*
X128413464Y-95164744D01*
X128411745Y-95237144D01*
X128410444Y-95321975D01*
X128409505Y-95420422D01*
X128408870Y-95533674D01*
X128408484Y-95662916D01*
X128408288Y-95809334D01*
X128408227Y-95974116D01*
X128408243Y-96158447D01*
X128408280Y-96363513D01*
X128408289Y-96486133D01*
X128408265Y-96703082D01*
X128408231Y-96898642D01*
X128408243Y-97073999D01*
X128408358Y-97230341D01*
X128408630Y-97368857D01*
X128409118Y-97490734D01*
X128409876Y-97597160D01*
X128410962Y-97689322D01*
X128412431Y-97768409D01*
X128414340Y-97835608D01*
X128416744Y-97892107D01*
X128419701Y-97939093D01*
X128423266Y-97977755D01*
X128427495Y-98009280D01*
X128432446Y-98034855D01*
X128438173Y-98055670D01*
X128444733Y-98072911D01*
X128452183Y-98087765D01*
X128460579Y-98101422D01*
X128469976Y-98115069D01*
X128480432Y-98129893D01*
X128486523Y-98138783D01*
X128525296Y-98196400D01*
X127993732Y-98196400D01*
X127870483Y-98196365D01*
X127767987Y-98196215D01*
X127684420Y-98195878D01*
X127617956Y-98195286D01*
X127566771Y-98194367D01*
X127529041Y-98193051D01*
X127502940Y-98191269D01*
X127486644Y-98188951D01*
X127478328Y-98186026D01*
X127476168Y-98182424D01*
X127478339Y-98178075D01*
X127479535Y-98176645D01*
X127504685Y-98139573D01*
X127530583Y-98086772D01*
X127554192Y-98024770D01*
X127562461Y-97998357D01*
X127567078Y-97980416D01*
X127570979Y-97959355D01*
X127574248Y-97933089D01*
X127576966Y-97899532D01*
X127579215Y-97856599D01*
X127581077Y-97802204D01*
X127582636Y-97734262D01*
X127583972Y-97650688D01*
X127585169Y-97549395D01*
X127586308Y-97428300D01*
X127586685Y-97383600D01*
X127587702Y-97258449D01*
X127588460Y-97154082D01*
X127588903Y-97068707D01*
X127588970Y-97000533D01*
X127588605Y-96947765D01*
X127587748Y-96908614D01*
X127586341Y-96881285D01*
X127584325Y-96863986D01*
X127581643Y-96854926D01*
X127578236Y-96852312D01*
X127574044Y-96854351D01*
X127569571Y-96858667D01*
X127559216Y-96871602D01*
X127537158Y-96900676D01*
X127504957Y-96943759D01*
X127464174Y-96998718D01*
X127416370Y-97063423D01*
X127363105Y-97135742D01*
X127305940Y-97213544D01*
X127246437Y-97294698D01*
X127186155Y-97377072D01*
X127126655Y-97458536D01*
X127069498Y-97536957D01*
X127016245Y-97610204D01*
X126968457Y-97676147D01*
X126927693Y-97732654D01*
X126895516Y-97777593D01*
X126873485Y-97808834D01*
X126868917Y-97815466D01*
X126845996Y-97852369D01*
X126819188Y-97900359D01*
X126793789Y-97949897D01*
X126790568Y-97956577D01*
X126768890Y-98004772D01*
X126756304Y-98042334D01*
X126750574Y-98078160D01*
X126749456Y-98120200D01*
X126750090Y-98196400D01*
X125595651Y-98196400D01*
X125686815Y-98102669D01*
X125733612Y-98052775D01*
X125783899Y-97996295D01*
X125829944Y-97942026D01*
X125850369Y-97916673D01*
X125880807Y-97877128D01*
X125920862Y-97823916D01*
X125969361Y-97758667D01*
X126025135Y-97683011D01*
X126087011Y-97598577D01*
X126153819Y-97506994D01*
X126224387Y-97409892D01*
X126297545Y-97308901D01*
X126372121Y-97205650D01*
X126446944Y-97101768D01*
X126520843Y-96998885D01*
X126592646Y-96898631D01*
X126661184Y-96802636D01*
X126725284Y-96712527D01*
X126783775Y-96629936D01*
X126835486Y-96556492D01*
X126879247Y-96493824D01*
X126913885Y-96443561D01*
X126938230Y-96407334D01*
X126951111Y-96386771D01*
X126952869Y-96382668D01*
X126944910Y-96371342D01*
X126924115Y-96344162D01*
X126891847Y-96302829D01*
X126849470Y-96249044D01*
X126798347Y-96184506D01*
X126739841Y-96110918D01*
X126675314Y-96029978D01*
X126606131Y-95943388D01*
X126533653Y-95852848D01*
X126459246Y-95760060D01*
X126399517Y-95685702D01*
X125388511Y-95685702D01*
X125382602Y-95698659D01*
X125368272Y-95720908D01*
X125367225Y-95722391D01*
X125348438Y-95752544D01*
X125328791Y-95789375D01*
X125324892Y-95797511D01*
X125321356Y-95805940D01*
X125318230Y-95816059D01*
X125315486Y-95829260D01*
X125313092Y-95846938D01*
X125311019Y-95870484D01*
X125309235Y-95901293D01*
X125307712Y-95940757D01*
X125306419Y-95990269D01*
X125305326Y-96051223D01*
X125304403Y-96125011D01*
X125303619Y-96213028D01*
X125302945Y-96316665D01*
X125302350Y-96437316D01*
X125301805Y-96576374D01*
X125301279Y-96735232D01*
X125300745Y-96914089D01*
X125300206Y-97099207D01*
X125299772Y-97263145D01*
X125299509Y-97407303D01*
X125299484Y-97533079D01*
X125299765Y-97641871D01*
X125300419Y-97735077D01*
X125301514Y-97814097D01*
X125303118Y-97880328D01*
X125305297Y-97935170D01*
X125308119Y-97980021D01*
X125311651Y-98016278D01*
X125315961Y-98045341D01*
X125321117Y-98068609D01*
X125327185Y-98087479D01*
X125334233Y-98103351D01*
X125342329Y-98117622D01*
X125351540Y-98131691D01*
X125360040Y-98144158D01*
X125377176Y-98170452D01*
X125387322Y-98188037D01*
X125388511Y-98191257D01*
X125377604Y-98192334D01*
X125346411Y-98193335D01*
X125297223Y-98194235D01*
X125232333Y-98195010D01*
X125154030Y-98195637D01*
X125064607Y-98196091D01*
X124966356Y-98196349D01*
X124897445Y-98196400D01*
X124792452Y-98196180D01*
X124695610Y-98195548D01*
X124609107Y-98194549D01*
X124535132Y-98193227D01*
X124475874Y-98191626D01*
X124433520Y-98189791D01*
X124410260Y-98187765D01*
X124406378Y-98186493D01*
X124414076Y-98171591D01*
X124422074Y-98163560D01*
X124435246Y-98146434D01*
X124452485Y-98116183D01*
X124464407Y-98091622D01*
X124491045Y-98032711D01*
X124494120Y-96855845D01*
X124497195Y-95678978D01*
X124942853Y-95678978D01*
X125040670Y-95679142D01*
X125131064Y-95679611D01*
X125211630Y-95680347D01*
X125279962Y-95681316D01*
X125333656Y-95682480D01*
X125370305Y-95683803D01*
X125387504Y-95685249D01*
X125388511Y-95685702D01*
X126399517Y-95685702D01*
X126384270Y-95666722D01*
X126310090Y-95574537D01*
X126238069Y-95485204D01*
X126169569Y-95400424D01*
X126105955Y-95321898D01*
X126048588Y-95251326D01*
X125998833Y-95190409D01*
X125958052Y-95140847D01*
X125940888Y-95120178D01*
X125854596Y-95019516D01*
X125777997Y-94936259D01*
X125709183Y-94868438D01*
X125646248Y-94814089D01*
X125636867Y-94806722D01*
X125597356Y-94776117D01*
X126729116Y-94775867D01*
X126723827Y-94823844D01*
X126727130Y-94881188D01*
X126748661Y-94949463D01*
X126788635Y-95029212D01*
X126833943Y-95101495D01*
X126850161Y-95124140D01*
X126878214Y-95161696D01*
X126916430Y-95212021D01*
X126963137Y-95272973D01*
X127016661Y-95342411D01*
X127075331Y-95418194D01*
X127137475Y-95498180D01*
X127201421Y-95580228D01*
X127265495Y-95662196D01*
X127328027Y-95741943D01*
X127387343Y-95817327D01*
X127441771Y-95886207D01*
X127489639Y-95946442D01*
X127529275Y-95995889D01*
X127559006Y-96032408D01*
X127577161Y-96053858D01*
X127580220Y-96057156D01*
X127583079Y-96049149D01*
X127585293Y-96018855D01*
X127586857Y-95966556D01*
X127587767Y-95892531D01*
X127588020Y-95797063D01*
X127587613Y-95680434D01*
X127586704Y-95560445D01*
X127585382Y-95428333D01*
X127583857Y-95316594D01*
X127581881Y-95223025D01*
X127579206Y-95145419D01*
X127575582Y-95081574D01*
X127570761Y-95029283D01*
X127564494Y-94986344D01*
X127556532Y-94950551D01*
X127546627Y-94919700D01*
X127534531Y-94891586D01*
X127519993Y-94864005D01*
X127505311Y-94838966D01*
X127467314Y-94775867D01*
X128527197Y-94775867D01*
X128830034Y-94775867D01*
X128830001Y-94769617D01*
X128829195Y-94667544D01*
X128828170Y-94578633D01*
X128826900Y-94501941D01*
X128825360Y-94436527D01*
X128823524Y-94381449D01*
X128821367Y-94335765D01*
X128818863Y-94298534D01*
X128815987Y-94268813D01*
X128812713Y-94245662D01*
X128809015Y-94228139D01*
X128804869Y-94215301D01*
X128800247Y-94206208D01*
X128795126Y-94199918D01*
X128789478Y-94195488D01*
X128783279Y-94191978D01*
X128776504Y-94188445D01*
X128770508Y-94184876D01*
X128765275Y-94182300D01*
X128757099Y-94179972D01*
X128744886Y-94177878D01*
X128727541Y-94176007D01*
X128703969Y-94174347D01*
X128673077Y-94172884D01*
X128633768Y-94171608D01*
X128584950Y-94170504D01*
X128525527Y-94169561D01*
X128454404Y-94168767D01*
X128370488Y-94168109D01*
X128272683Y-94167575D01*
X128159894Y-94167153D01*
X128031029Y-94166829D01*
X127884991Y-94166592D01*
X127720686Y-94166430D01*
X127537020Y-94166330D01*
X127332897Y-94166280D01*
X127121753Y-94166267D01*
X125501400Y-94166267D01*
X125501400Y-94263054D01*
G37*
X125501400Y-94263054D02*
X125490535Y-94376993D01*
X125458918Y-94484616D01*
X125408015Y-94583615D01*
X125339293Y-94671684D01*
X125254219Y-94746516D01*
X125157232Y-94804384D01*
X125050964Y-94844005D01*
X124943950Y-94862573D01*
X124838300Y-94861434D01*
X124736125Y-94841930D01*
X124639534Y-94805406D01*
X124550638Y-94753205D01*
X124471546Y-94686673D01*
X124404369Y-94607152D01*
X124351217Y-94515987D01*
X124314199Y-94414523D01*
X124295427Y-94304102D01*
X124293489Y-94254206D01*
X124293489Y-94166267D01*
X124241560Y-94166267D01*
X124205253Y-94169111D01*
X124178355Y-94180911D01*
X124151249Y-94204649D01*
X124112867Y-94243031D01*
X124112867Y-96434602D01*
X124112876Y-96696739D01*
X124112908Y-96937241D01*
X124112972Y-97157048D01*
X124113076Y-97357101D01*
X124113227Y-97538344D01*
X124113434Y-97701716D01*
X124113706Y-97848160D01*
X124114050Y-97978617D01*
X124114474Y-98094029D01*
X124114987Y-98195338D01*
X124115597Y-98283484D01*
X124116312Y-98359410D01*
X124117140Y-98424057D01*
X124118089Y-98478367D01*
X124119167Y-98523280D01*
X124120383Y-98559740D01*
X124121745Y-98588687D01*
X124123261Y-98611063D01*
X124124938Y-98627809D01*
X124126786Y-98639868D01*
X124128813Y-98648180D01*
X124131025Y-98653687D01*
X124132108Y-98655537D01*
X124136271Y-98662549D01*
X124139805Y-98668996D01*
X124143635Y-98674900D01*
X124148682Y-98680286D01*
X124155871Y-98685178D01*
X124166123Y-98689598D01*
X124180364Y-98693572D01*
X124199514Y-98697121D01*
X124224499Y-98700270D01*
X124256240Y-98703042D01*
X124295662Y-98705461D01*
X124343686Y-98707551D01*
X124401237Y-98709335D01*
X124469237Y-98710837D01*
X124548610Y-98712080D01*
X124640279Y-98713089D01*
X124745166Y-98713885D01*
X124864196Y-98714494D01*
X124998290Y-98714939D01*
X125148373Y-98715243D01*
X125315367Y-98715430D01*
X125500196Y-98715524D01*
X125703783Y-98715548D01*
X125927050Y-98715525D01*
X126170922Y-98715480D01*
X126436321Y-98715437D01*
X126474704Y-98715432D01*
X126741682Y-98715389D01*
X126987002Y-98715318D01*
X127211583Y-98715213D01*
X127416345Y-98715066D01*
X127602206Y-98714869D01*
X127770088Y-98714616D01*
X127920908Y-98714300D01*
X128055587Y-98713913D01*
X128175044Y-98713447D01*
X128280199Y-98712897D01*
X128371971Y-98712253D01*
X128451279Y-98711511D01*
X128519043Y-98710661D01*
X128576182Y-98709697D01*
X128623617Y-98708611D01*
X128662266Y-98707397D01*
X128693049Y-98706047D01*
X128716885Y-98704555D01*
X128734694Y-98702911D01*
X128747395Y-98701111D01*
X128755908Y-98699145D01*
X128760266Y-98697477D01*
X128768728Y-98693906D01*
X128776497Y-98691270D01*
X128783602Y-98688634D01*
X128790073Y-98685062D01*
X128795939Y-98679621D01*
X128801229Y-98671375D01*
X128805974Y-98659390D01*
X128810202Y-98642731D01*
X128813943Y-98620463D01*
X128817227Y-98591652D01*
X128820083Y-98555363D01*
X128822540Y-98510661D01*
X128824629Y-98456611D01*
X128826378Y-98392279D01*
X128827817Y-98316730D01*
X128828976Y-98229030D01*
X128829883Y-98128243D01*
X128830569Y-98013434D01*
X128831063Y-97883670D01*
X128831395Y-97738015D01*
X128831593Y-97575535D01*
X128831687Y-97395295D01*
X128831708Y-97196360D01*
X128831685Y-96977796D01*
X128831646Y-96738668D01*
X128831622Y-96478040D01*
X128831622Y-96435889D01*
X128831636Y-96172992D01*
X128831661Y-95931732D01*
X128831671Y-95711165D01*
X128831642Y-95510352D01*
X128831548Y-95328349D01*
X128831362Y-95164216D01*
X128831059Y-95017011D01*
X128830614Y-94885792D01*
X128830034Y-94775867D01*
X128527197Y-94775867D01*
X128487407Y-94833711D01*
X128476236Y-94849479D01*
X128466166Y-94863441D01*
X128457138Y-94876784D01*
X128449097Y-94890693D01*
X128441986Y-94906356D01*
X128435747Y-94924958D01*
X128430325Y-94947686D01*
X128425662Y-94975727D01*
X128421701Y-95010267D01*
X128418385Y-95052492D01*
X128415659Y-95103589D01*
X128413464Y-95164744D01*
X128411745Y-95237144D01*
X128410444Y-95321975D01*
X128409505Y-95420422D01*
X128408870Y-95533674D01*
X128408484Y-95662916D01*
X128408288Y-95809334D01*
X128408227Y-95974116D01*
X128408243Y-96158447D01*
X128408280Y-96363513D01*
X128408289Y-96486133D01*
X128408265Y-96703082D01*
X128408231Y-96898642D01*
X128408243Y-97073999D01*
X128408358Y-97230341D01*
X128408630Y-97368857D01*
X128409118Y-97490734D01*
X128409876Y-97597160D01*
X128410962Y-97689322D01*
X128412431Y-97768409D01*
X128414340Y-97835608D01*
X128416744Y-97892107D01*
X128419701Y-97939093D01*
X128423266Y-97977755D01*
X128427495Y-98009280D01*
X128432446Y-98034855D01*
X128438173Y-98055670D01*
X128444733Y-98072911D01*
X128452183Y-98087765D01*
X128460579Y-98101422D01*
X128469976Y-98115069D01*
X128480432Y-98129893D01*
X128486523Y-98138783D01*
X128525296Y-98196400D01*
X127993732Y-98196400D01*
X127870483Y-98196365D01*
X127767987Y-98196215D01*
X127684420Y-98195878D01*
X127617956Y-98195286D01*
X127566771Y-98194367D01*
X127529041Y-98193051D01*
X127502940Y-98191269D01*
X127486644Y-98188951D01*
X127478328Y-98186026D01*
X127476168Y-98182424D01*
X127478339Y-98178075D01*
X127479535Y-98176645D01*
X127504685Y-98139573D01*
X127530583Y-98086772D01*
X127554192Y-98024770D01*
X127562461Y-97998357D01*
X127567078Y-97980416D01*
X127570979Y-97959355D01*
X127574248Y-97933089D01*
X127576966Y-97899532D01*
X127579215Y-97856599D01*
X127581077Y-97802204D01*
X127582636Y-97734262D01*
X127583972Y-97650688D01*
X127585169Y-97549395D01*
X127586308Y-97428300D01*
X127586685Y-97383600D01*
X127587702Y-97258449D01*
X127588460Y-97154082D01*
X127588903Y-97068707D01*
X127588970Y-97000533D01*
X127588605Y-96947765D01*
X127587748Y-96908614D01*
X127586341Y-96881285D01*
X127584325Y-96863986D01*
X127581643Y-96854926D01*
X127578236Y-96852312D01*
X127574044Y-96854351D01*
X127569571Y-96858667D01*
X127559216Y-96871602D01*
X127537158Y-96900676D01*
X127504957Y-96943759D01*
X127464174Y-96998718D01*
X127416370Y-97063423D01*
X127363105Y-97135742D01*
X127305940Y-97213544D01*
X127246437Y-97294698D01*
X127186155Y-97377072D01*
X127126655Y-97458536D01*
X127069498Y-97536957D01*
X127016245Y-97610204D01*
X126968457Y-97676147D01*
X126927693Y-97732654D01*
X126895516Y-97777593D01*
X126873485Y-97808834D01*
X126868917Y-97815466D01*
X126845996Y-97852369D01*
X126819188Y-97900359D01*
X126793789Y-97949897D01*
X126790568Y-97956577D01*
X126768890Y-98004772D01*
X126756304Y-98042334D01*
X126750574Y-98078160D01*
X126749456Y-98120200D01*
X126750090Y-98196400D01*
X125595651Y-98196400D01*
X125686815Y-98102669D01*
X125733612Y-98052775D01*
X125783899Y-97996295D01*
X125829944Y-97942026D01*
X125850369Y-97916673D01*
X125880807Y-97877128D01*
X125920862Y-97823916D01*
X125969361Y-97758667D01*
X126025135Y-97683011D01*
X126087011Y-97598577D01*
X126153819Y-97506994D01*
X126224387Y-97409892D01*
X126297545Y-97308901D01*
X126372121Y-97205650D01*
X126446944Y-97101768D01*
X126520843Y-96998885D01*
X126592646Y-96898631D01*
X126661184Y-96802636D01*
X126725284Y-96712527D01*
X126783775Y-96629936D01*
X126835486Y-96556492D01*
X126879247Y-96493824D01*
X126913885Y-96443561D01*
X126938230Y-96407334D01*
X126951111Y-96386771D01*
X126952869Y-96382668D01*
X126944910Y-96371342D01*
X126924115Y-96344162D01*
X126891847Y-96302829D01*
X126849470Y-96249044D01*
X126798347Y-96184506D01*
X126739841Y-96110918D01*
X126675314Y-96029978D01*
X126606131Y-95943388D01*
X126533653Y-95852848D01*
X126459246Y-95760060D01*
X126399517Y-95685702D01*
X125388511Y-95685702D01*
X125382602Y-95698659D01*
X125368272Y-95720908D01*
X125367225Y-95722391D01*
X125348438Y-95752544D01*
X125328791Y-95789375D01*
X125324892Y-95797511D01*
X125321356Y-95805940D01*
X125318230Y-95816059D01*
X125315486Y-95829260D01*
X125313092Y-95846938D01*
X125311019Y-95870484D01*
X125309235Y-95901293D01*
X125307712Y-95940757D01*
X125306419Y-95990269D01*
X125305326Y-96051223D01*
X125304403Y-96125011D01*
X125303619Y-96213028D01*
X125302945Y-96316665D01*
X125302350Y-96437316D01*
X125301805Y-96576374D01*
X125301279Y-96735232D01*
X125300745Y-96914089D01*
X125300206Y-97099207D01*
X125299772Y-97263145D01*
X125299509Y-97407303D01*
X125299484Y-97533079D01*
X125299765Y-97641871D01*
X125300419Y-97735077D01*
X125301514Y-97814097D01*
X125303118Y-97880328D01*
X125305297Y-97935170D01*
X125308119Y-97980021D01*
X125311651Y-98016278D01*
X125315961Y-98045341D01*
X125321117Y-98068609D01*
X125327185Y-98087479D01*
X125334233Y-98103351D01*
X125342329Y-98117622D01*
X125351540Y-98131691D01*
X125360040Y-98144158D01*
X125377176Y-98170452D01*
X125387322Y-98188037D01*
X125388511Y-98191257D01*
X125377604Y-98192334D01*
X125346411Y-98193335D01*
X125297223Y-98194235D01*
X125232333Y-98195010D01*
X125154030Y-98195637D01*
X125064607Y-98196091D01*
X124966356Y-98196349D01*
X124897445Y-98196400D01*
X124792452Y-98196180D01*
X124695610Y-98195548D01*
X124609107Y-98194549D01*
X124535132Y-98193227D01*
X124475874Y-98191626D01*
X124433520Y-98189791D01*
X124410260Y-98187765D01*
X124406378Y-98186493D01*
X124414076Y-98171591D01*
X124422074Y-98163560D01*
X124435246Y-98146434D01*
X124452485Y-98116183D01*
X124464407Y-98091622D01*
X124491045Y-98032711D01*
X124494120Y-96855845D01*
X124497195Y-95678978D01*
X124942853Y-95678978D01*
X125040670Y-95679142D01*
X125131064Y-95679611D01*
X125211630Y-95680347D01*
X125279962Y-95681316D01*
X125333656Y-95682480D01*
X125370305Y-95683803D01*
X125387504Y-95685249D01*
X125388511Y-95685702D01*
X126399517Y-95685702D01*
X126384270Y-95666722D01*
X126310090Y-95574537D01*
X126238069Y-95485204D01*
X126169569Y-95400424D01*
X126105955Y-95321898D01*
X126048588Y-95251326D01*
X125998833Y-95190409D01*
X125958052Y-95140847D01*
X125940888Y-95120178D01*
X125854596Y-95019516D01*
X125777997Y-94936259D01*
X125709183Y-94868438D01*
X125646248Y-94814089D01*
X125636867Y-94806722D01*
X125597356Y-94776117D01*
X126729116Y-94775867D01*
X126723827Y-94823844D01*
X126727130Y-94881188D01*
X126748661Y-94949463D01*
X126788635Y-95029212D01*
X126833943Y-95101495D01*
X126850161Y-95124140D01*
X126878214Y-95161696D01*
X126916430Y-95212021D01*
X126963137Y-95272973D01*
X127016661Y-95342411D01*
X127075331Y-95418194D01*
X127137475Y-95498180D01*
X127201421Y-95580228D01*
X127265495Y-95662196D01*
X127328027Y-95741943D01*
X127387343Y-95817327D01*
X127441771Y-95886207D01*
X127489639Y-95946442D01*
X127529275Y-95995889D01*
X127559006Y-96032408D01*
X127577161Y-96053858D01*
X127580220Y-96057156D01*
X127583079Y-96049149D01*
X127585293Y-96018855D01*
X127586857Y-95966556D01*
X127587767Y-95892531D01*
X127588020Y-95797063D01*
X127587613Y-95680434D01*
X127586704Y-95560445D01*
X127585382Y-95428333D01*
X127583857Y-95316594D01*
X127581881Y-95223025D01*
X127579206Y-95145419D01*
X127575582Y-95081574D01*
X127570761Y-95029283D01*
X127564494Y-94986344D01*
X127556532Y-94950551D01*
X127546627Y-94919700D01*
X127534531Y-94891586D01*
X127519993Y-94864005D01*
X127505311Y-94838966D01*
X127467314Y-94775867D01*
X128527197Y-94775867D01*
X128830034Y-94775867D01*
X128830001Y-94769617D01*
X128829195Y-94667544D01*
X128828170Y-94578633D01*
X128826900Y-94501941D01*
X128825360Y-94436527D01*
X128823524Y-94381449D01*
X128821367Y-94335765D01*
X128818863Y-94298534D01*
X128815987Y-94268813D01*
X128812713Y-94245662D01*
X128809015Y-94228139D01*
X128804869Y-94215301D01*
X128800247Y-94206208D01*
X128795126Y-94199918D01*
X128789478Y-94195488D01*
X128783279Y-94191978D01*
X128776504Y-94188445D01*
X128770508Y-94184876D01*
X128765275Y-94182300D01*
X128757099Y-94179972D01*
X128744886Y-94177878D01*
X128727541Y-94176007D01*
X128703969Y-94174347D01*
X128673077Y-94172884D01*
X128633768Y-94171608D01*
X128584950Y-94170504D01*
X128525527Y-94169561D01*
X128454404Y-94168767D01*
X128370488Y-94168109D01*
X128272683Y-94167575D01*
X128159894Y-94167153D01*
X128031029Y-94166829D01*
X127884991Y-94166592D01*
X127720686Y-94166430D01*
X127537020Y-94166330D01*
X127332897Y-94166280D01*
X127121753Y-94166267D01*
X125501400Y-94166267D01*
X125501400Y-94263054D01*
M02*
