%FSLAX45Y45*%
G04 Gerber Fmt 4.5, Leading zero omitted, Abs format (unit mm)*
G04 Created by KiCad (PCBNEW (5.1.6)-1) date 2021-01-30 12:40:00*
%MOMM*%
%LPD*%
G01*
G04 APERTURE LIST*
%TA.AperFunction,Profile*%
%ADD10C,0.203200*%
%TD*%
%ADD11C,0.200000*%
%ADD12C,0.300000*%
G04 APERTURE END LIST*
D10*
X10524000Y-12954000D02*
G75*
G03*
X10524000Y-12954000I-110000J0D01*
G01*
X14969000Y-12954000D02*
G75*
G03*
X14969000Y-12954000I-110000J0D01*
G01*
X14969000Y-8509000D02*
G75*
G03*
X14969000Y-8509000I-110000J0D01*
G01*
X10524000Y-8509000D02*
G75*
G03*
X10524000Y-8509000I-110000J0D01*
G01*
X10160000Y-8229600D02*
X15138400Y-8229600D01*
X15138400Y-13208000D02*
X15138400Y-8229600D01*
X10160000Y-13208000D02*
X10160000Y-8229600D01*
X10160000Y-13208000D02*
X15138400Y-13208000D01*
D11*
X10297160Y-8912860D02*
X10327640Y-8943340D01*
X10327640Y-8912860D02*
X10297160Y-8943340D01*
X10297160Y-9471660D02*
X10327640Y-9502140D01*
X10327640Y-9471660D02*
X10297160Y-9502140D01*
X10297160Y-9700260D02*
X10327640Y-9730740D01*
X10327640Y-9700260D02*
X10297160Y-9730740D01*
X10297160Y-9827260D02*
X10327640Y-9857740D01*
X10327640Y-9827260D02*
X10297160Y-9857740D01*
X10297160Y-9954260D02*
X10327640Y-9984740D01*
X10327640Y-9954260D02*
X10297160Y-9984740D01*
X10297160Y-10182860D02*
X10327640Y-10213340D01*
X10327640Y-10182860D02*
X10297160Y-10213340D01*
X10297160Y-10741660D02*
X10327640Y-10772140D01*
X10327640Y-10741660D02*
X10297160Y-10772140D01*
X10449560Y-8912860D02*
X10480040Y-8943340D01*
X10480040Y-8912860D02*
X10449560Y-8943340D01*
X10449560Y-9471660D02*
X10480040Y-9502140D01*
X10480040Y-9471660D02*
X10449560Y-9502140D01*
X10449560Y-10182860D02*
X10480040Y-10213340D01*
X10480040Y-10182860D02*
X10449560Y-10213340D01*
X10449560Y-10741660D02*
X10480040Y-10772140D01*
X10480040Y-10741660D02*
X10449560Y-10772140D01*
X10665460Y-8912860D02*
X10695940Y-8943340D01*
X10695940Y-8912860D02*
X10665460Y-8943340D01*
X10665460Y-10741660D02*
X10695940Y-10772140D01*
X10695940Y-10741660D02*
X10665460Y-10772140D01*
X10792460Y-8912860D02*
X10822940Y-8943340D01*
X10822940Y-8912860D02*
X10792460Y-8943340D01*
X10792460Y-10741660D02*
X10822940Y-10772140D01*
X10822940Y-10741660D02*
X10792460Y-10772140D01*
X10919460Y-8912860D02*
X10949940Y-8943340D01*
X10949940Y-8912860D02*
X10919460Y-8943340D01*
X10919460Y-10741660D02*
X10949940Y-10772140D01*
X10949940Y-10741660D02*
X10919460Y-10772140D01*
X11313160Y-11744960D02*
X11343640Y-11775440D01*
X11343640Y-11744960D02*
X11313160Y-11775440D01*
X11402060Y-9763760D02*
X11432540Y-9794240D01*
X11432540Y-9763760D02*
X11402060Y-9794240D01*
X11402060Y-9890760D02*
X11432540Y-9921240D01*
X11432540Y-9890760D02*
X11402060Y-9921240D01*
X11414760Y-12926060D02*
X11445240Y-12956540D01*
X11445240Y-12926060D02*
X11414760Y-12956540D01*
X11414760Y-13053060D02*
X11445240Y-13083540D01*
X11445240Y-13053060D02*
X11414760Y-13083540D01*
X11440160Y-11744960D02*
X11470640Y-11775440D01*
X11470640Y-11744960D02*
X11440160Y-11775440D01*
X11465560Y-10754360D02*
X11496040Y-10784840D01*
X11496040Y-10754360D02*
X11465560Y-10784840D01*
X11541760Y-12926060D02*
X11572240Y-12956540D01*
X11572240Y-12926060D02*
X11541760Y-12956540D01*
X11541760Y-13053060D02*
X11572240Y-13083540D01*
X11572240Y-13053060D02*
X11541760Y-13083540D01*
X11554110Y-10894410D02*
X11584590Y-10924890D01*
X11584590Y-10894410D02*
X11554110Y-10924890D01*
X11554110Y-11834210D02*
X11584590Y-11864690D01*
X11584590Y-11834210D02*
X11554110Y-11864690D01*
X11554460Y-11224260D02*
X11584940Y-11254740D01*
X11584940Y-11224260D02*
X11554460Y-11254740D01*
X11554460Y-12164060D02*
X11584940Y-12194540D01*
X11584940Y-12164060D02*
X11554460Y-12194540D01*
X11668760Y-10754360D02*
X11699240Y-10784840D01*
X11699240Y-10754360D02*
X11668760Y-10784840D01*
X11744960Y-12926060D02*
X11775440Y-12956540D01*
X11775440Y-12926060D02*
X11744960Y-12956540D01*
X11744960Y-13053060D02*
X11775440Y-13083540D01*
X11775440Y-13053060D02*
X11744960Y-13083540D01*
X11770360Y-11668760D02*
X11800840Y-11699240D01*
X11800840Y-11668760D02*
X11770360Y-11699240D01*
X11770360Y-12481560D02*
X11800840Y-12512040D01*
X11800840Y-12481560D02*
X11770360Y-12512040D01*
X11821160Y-10855960D02*
X11851640Y-10886440D01*
X11851640Y-10855960D02*
X11821160Y-10886440D01*
X11871960Y-12926060D02*
X11902440Y-12956540D01*
X11902440Y-12926060D02*
X11871960Y-12956540D01*
X11871960Y-13053060D02*
X11902440Y-13083540D01*
X11902440Y-13053060D02*
X11871960Y-13083540D01*
X11897360Y-11668760D02*
X11927840Y-11699240D01*
X11927840Y-11668760D02*
X11897360Y-11699240D01*
X11897360Y-12481560D02*
X11927840Y-12512040D01*
X11927840Y-12481560D02*
X11897360Y-12512040D01*
X11998960Y-10855960D02*
X12029440Y-10886440D01*
X12029440Y-10855960D02*
X11998960Y-10886440D01*
X12024360Y-11668760D02*
X12054840Y-11699240D01*
X12054840Y-11668760D02*
X12024360Y-11699240D01*
X12227560Y-10017760D02*
X12258040Y-10048240D01*
X12258040Y-10017760D02*
X12227560Y-10048240D01*
X12227560Y-11529060D02*
X12258040Y-11559540D01*
X12258040Y-11529060D02*
X12227560Y-11559540D01*
X12303760Y-11744960D02*
X12334240Y-11775440D01*
X12334240Y-11744960D02*
X12303760Y-11775440D01*
X12329160Y-12926060D02*
X12359640Y-12956540D01*
X12359640Y-12926060D02*
X12329160Y-12956540D01*
X12329160Y-13053060D02*
X12359640Y-13083540D01*
X12359640Y-13053060D02*
X12329160Y-13083540D01*
X12341860Y-11287760D02*
X12372340Y-11318240D01*
X12372340Y-11287760D02*
X12341860Y-11318240D01*
X12341860Y-11402060D02*
X12372340Y-11432540D01*
X12372340Y-11402060D02*
X12341860Y-11432540D01*
X12354560Y-10017760D02*
X12385040Y-10048240D01*
X12385040Y-10017760D02*
X12354560Y-10048240D01*
X12430760Y-11554460D02*
X12461240Y-11584940D01*
X12461240Y-11554460D02*
X12430760Y-11584940D01*
X12456160Y-12926060D02*
X12486640Y-12956540D01*
X12486640Y-12926060D02*
X12456160Y-12956540D01*
X12456160Y-13053060D02*
X12486640Y-13083540D01*
X12486640Y-13053060D02*
X12456160Y-13083540D01*
X12481560Y-11338560D02*
X12512040Y-11369040D01*
X12512040Y-11338560D02*
X12481560Y-11369040D01*
X12653010Y-10868660D02*
X12683490Y-10899140D01*
X12683490Y-10868660D02*
X12653010Y-10899140D01*
X12653010Y-11262360D02*
X12683490Y-11292840D01*
X12683490Y-11262360D02*
X12653010Y-11292840D01*
X12653010Y-11516360D02*
X12683490Y-11546840D01*
X12683490Y-11516360D02*
X12653010Y-11546840D01*
X12653010Y-11592560D02*
X12683490Y-11623040D01*
X12683490Y-11592560D02*
X12653010Y-11623040D01*
X12659360Y-12926060D02*
X12689840Y-12956540D01*
X12689840Y-12926060D02*
X12659360Y-12956540D01*
X12659360Y-13053060D02*
X12689840Y-13083540D01*
X12689840Y-13053060D02*
X12659360Y-13083540D01*
X12786360Y-12926060D02*
X12816840Y-12956540D01*
X12816840Y-12926060D02*
X12786360Y-12956540D01*
X12786360Y-13053060D02*
X12816840Y-13083540D01*
X12816840Y-13053060D02*
X12786360Y-13083540D01*
X12989560Y-10017760D02*
X13020040Y-10048240D01*
X13020040Y-10017760D02*
X12989560Y-10048240D01*
X13116560Y-10017760D02*
X13147040Y-10048240D01*
X13147040Y-10017760D02*
X13116560Y-10048240D01*
X13243560Y-11821160D02*
X13274040Y-11851640D01*
X13274040Y-11821160D02*
X13243560Y-11851640D01*
X13307060Y-11986260D02*
X13337540Y-12016740D01*
X13337540Y-11986260D02*
X13307060Y-12016740D01*
X13383260Y-11821160D02*
X13413740Y-11851640D01*
X13413740Y-11821160D02*
X13383260Y-11851640D01*
X13484860Y-11833860D02*
X13515340Y-11864340D01*
X13515340Y-11833860D02*
X13484860Y-11864340D01*
X13586460Y-11986260D02*
X13616940Y-12016740D01*
X13616940Y-11986260D02*
X13586460Y-12016740D01*
X13624560Y-10868660D02*
X13655040Y-10899140D01*
X13655040Y-10868660D02*
X13624560Y-10899140D01*
X13624560Y-11605260D02*
X13655040Y-11635740D01*
X13655040Y-11605260D02*
X13624560Y-11635740D01*
X13700760Y-11986260D02*
X13731240Y-12016740D01*
X13731240Y-11986260D02*
X13700760Y-12016740D01*
X13751560Y-9573260D02*
X13782040Y-9603740D01*
X13782040Y-9573260D02*
X13751560Y-9603740D01*
X13751560Y-9700260D02*
X13782040Y-9730740D01*
X13782040Y-9700260D02*
X13751560Y-9730740D01*
X13751560Y-10335260D02*
X13782040Y-10365740D01*
X13782040Y-10335260D02*
X13751560Y-10365740D01*
X13751560Y-10462260D02*
X13782040Y-10492740D01*
X13782040Y-10462260D02*
X13751560Y-10492740D01*
X13764260Y-11871960D02*
X13794740Y-11902440D01*
X13794740Y-11871960D02*
X13764260Y-11902440D01*
X13840460Y-11706860D02*
X13870940Y-11737340D01*
X13870940Y-11706860D02*
X13840460Y-11737340D01*
X13903960Y-10767059D02*
X13934440Y-10797539D01*
X13934440Y-10767059D02*
X13903960Y-10797539D01*
X14005560Y-11605260D02*
X14036040Y-11635740D01*
X14036040Y-11605260D02*
X14005560Y-11635740D01*
X14043660Y-12037060D02*
X14074140Y-12067540D01*
X14074140Y-12037060D02*
X14043660Y-12067540D01*
X14183360Y-11605260D02*
X14213840Y-11635740D01*
X14213840Y-11605260D02*
X14183360Y-11635740D01*
X14221460Y-11402060D02*
X14251940Y-11432540D01*
X14251940Y-11402060D02*
X14221460Y-11432540D01*
X14221460Y-11529060D02*
X14251940Y-11559540D01*
X14251940Y-11529060D02*
X14221460Y-11559540D01*
X14310360Y-10982960D02*
X14340840Y-11013440D01*
X14340840Y-10982960D02*
X14310360Y-11013440D01*
X14310360Y-11135360D02*
X14340840Y-11165840D01*
X14340840Y-11135360D02*
X14310360Y-11165840D01*
X14335760Y-11859260D02*
X14366240Y-11889740D01*
X14366240Y-11859260D02*
X14335760Y-11889740D01*
X14348460Y-11402060D02*
X14378940Y-11432540D01*
X14378940Y-11402060D02*
X14348460Y-11432540D01*
X14348460Y-11529060D02*
X14378940Y-11559540D01*
X14378940Y-11529060D02*
X14348460Y-11559540D01*
X14488160Y-11973560D02*
X14518640Y-12004040D01*
X14518640Y-11973560D02*
X14488160Y-12004040D01*
X14831060Y-11516360D02*
X14861540Y-11546840D01*
X14861540Y-11516360D02*
X14831060Y-11546840D01*
X14869160Y-10855960D02*
X14899640Y-10886440D01*
X14899640Y-10855960D02*
X14869160Y-10886440D01*
X14869160Y-10982960D02*
X14899640Y-11013440D01*
X14899640Y-10982960D02*
X14869160Y-11013440D01*
X14869160Y-11173460D02*
X14899640Y-11203940D01*
X14899640Y-11173460D02*
X14869160Y-11203940D01*
X14869160Y-11300460D02*
X14899640Y-11330940D01*
X14899640Y-11300460D02*
X14869160Y-11330940D01*
X14945360Y-11516360D02*
X14975840Y-11546840D01*
X14975840Y-11516360D02*
X14945360Y-11546840D01*
X14996160Y-10855960D02*
X15026640Y-10886440D01*
X15026640Y-10855960D02*
X14996160Y-10886440D01*
X14996160Y-10982960D02*
X15026640Y-11013440D01*
X15026640Y-10982960D02*
X14996160Y-11013440D01*
X14996160Y-11173460D02*
X15026640Y-11203940D01*
X15026640Y-11173460D02*
X14996160Y-11203940D01*
X14996160Y-11300460D02*
X15026640Y-11330940D01*
X15026640Y-11300460D02*
X14996160Y-11330940D01*
X14779500Y-9279000D02*
G75*
G03*
X14779500Y-9279000I-47500J0D01*
G01*
X14779500Y-9529000D02*
G75*
G03*
X14779500Y-9529000I-47500J0D01*
G01*
X14779500Y-9779000D02*
G75*
G03*
X14779500Y-9779000I-47500J0D01*
G01*
X13081000Y-12523000D02*
X13081000Y-12623000D01*
X13031000Y-12573000D02*
X13131000Y-12573000D01*
X13335000Y-12523000D02*
X13335000Y-12623000D01*
X13285000Y-12573000D02*
X13385000Y-12573000D01*
X13589000Y-12523000D02*
X13589000Y-12623000D01*
X13539000Y-12573000D02*
X13639000Y-12573000D01*
X13843000Y-12523000D02*
X13843000Y-12623000D01*
X13793000Y-12573000D02*
X13893000Y-12573000D01*
X14097000Y-12523000D02*
X14097000Y-12623000D01*
X14047000Y-12573000D02*
X14147000Y-12573000D01*
X14351000Y-12523000D02*
X14351000Y-12623000D01*
X14301000Y-12573000D02*
X14401000Y-12573000D01*
X12573000Y-11761000D02*
X12573000Y-11861000D01*
X12523000Y-11811000D02*
X12623000Y-11811000D01*
X12573000Y-12015000D02*
X12573000Y-12115000D01*
X12523000Y-12065000D02*
X12623000Y-12065000D01*
X12573000Y-12269000D02*
X12573000Y-12369000D01*
X12523000Y-12319000D02*
X12623000Y-12319000D01*
X14478000Y-10237000D02*
X14478000Y-10337000D01*
X14428000Y-10287000D02*
X14528000Y-10287000D01*
X14478000Y-10491000D02*
X14478000Y-10591000D01*
X14428000Y-10541000D02*
X14528000Y-10541000D01*
X14732000Y-10237000D02*
X14732000Y-10337000D01*
X14682000Y-10287000D02*
X14782000Y-10287000D01*
X14732000Y-10491000D02*
X14732000Y-10591000D01*
X14682000Y-10541000D02*
X14782000Y-10541000D01*
X13081000Y-12777000D02*
X13081000Y-12877000D01*
X13031000Y-12827000D02*
X13131000Y-12827000D01*
X13335000Y-12777000D02*
X13335000Y-12877000D01*
X13285000Y-12827000D02*
X13385000Y-12827000D01*
X13589000Y-12777000D02*
X13589000Y-12877000D01*
X13539000Y-12827000D02*
X13639000Y-12827000D01*
X13843000Y-12777000D02*
X13843000Y-12877000D01*
X13793000Y-12827000D02*
X13893000Y-12827000D01*
X14097000Y-12777000D02*
X14097000Y-12877000D01*
X14047000Y-12827000D02*
X14147000Y-12827000D01*
X14351000Y-12777000D02*
X14351000Y-12877000D01*
X14301000Y-12827000D02*
X14401000Y-12827000D01*
X11040627Y-11599427D02*
X11040627Y-11514573D01*
X10955773Y-11514573D01*
X10955773Y-11599427D01*
X11040627Y-11599427D01*
X11040627Y-11980427D02*
X11040627Y-11895573D01*
X10955773Y-11895573D01*
X10955773Y-11980427D01*
X11040627Y-11980427D01*
X11040627Y-12361427D02*
X11040627Y-12276573D01*
X10955773Y-12276573D01*
X10955773Y-12361427D01*
X11040627Y-12361427D01*
X11396227Y-9135627D02*
X11396227Y-9050773D01*
X11311373Y-9050773D01*
X11311373Y-9135627D01*
X11396227Y-9135627D01*
X11777227Y-9135627D02*
X11777227Y-9050773D01*
X11692373Y-9050773D01*
X11692373Y-9135627D01*
X11777227Y-9135627D01*
X12158227Y-9135627D02*
X12158227Y-9050773D01*
X12073373Y-9050773D01*
X12073373Y-9135627D01*
X12158227Y-9135627D01*
X12539227Y-9135627D02*
X12539227Y-9050773D01*
X12454373Y-9050773D01*
X12454373Y-9135627D01*
X12539227Y-9135627D01*
X12920227Y-9135627D02*
X12920227Y-9050773D01*
X12835373Y-9050773D01*
X12835373Y-9135627D01*
X12920227Y-9135627D01*
X13301227Y-9135627D02*
X13301227Y-9050773D01*
X13216373Y-9050773D01*
X13216373Y-9135627D01*
X13301227Y-9135627D01*
X13682227Y-9135627D02*
X13682227Y-9050773D01*
X13597373Y-9050773D01*
X13597373Y-9135627D01*
X13682227Y-9135627D01*
X14063227Y-9135627D02*
X14063227Y-9050773D01*
X13978373Y-9050773D01*
X13978373Y-9135627D01*
X14063227Y-9135627D01*
D12*
X10436268Y-13683874D02*
X10436268Y-13383874D01*
X10507697Y-13383874D01*
X10550554Y-13398160D01*
X10579126Y-13426731D01*
X10593411Y-13455303D01*
X10607697Y-13512446D01*
X10607697Y-13555303D01*
X10593411Y-13612446D01*
X10579126Y-13641017D01*
X10550554Y-13669589D01*
X10507697Y-13683874D01*
X10436268Y-13683874D01*
X10736268Y-13683874D02*
X10736268Y-13483874D01*
X10736268Y-13541017D02*
X10750554Y-13512446D01*
X10764840Y-13498160D01*
X10793411Y-13483874D01*
X10821983Y-13483874D01*
X10921983Y-13683874D02*
X10921983Y-13483874D01*
X10921983Y-13383874D02*
X10907697Y-13398160D01*
X10921983Y-13412446D01*
X10936268Y-13398160D01*
X10921983Y-13383874D01*
X10921983Y-13412446D01*
X11107697Y-13683874D02*
X11079126Y-13669589D01*
X11064840Y-13641017D01*
X11064840Y-13383874D01*
X11264840Y-13683874D02*
X11236268Y-13669589D01*
X11221983Y-13641017D01*
X11221983Y-13383874D01*
X11607697Y-13683874D02*
X11607697Y-13383874D01*
X11707697Y-13598160D01*
X11807697Y-13383874D01*
X11807697Y-13683874D01*
X12079126Y-13683874D02*
X12079126Y-13526731D01*
X12064840Y-13498160D01*
X12036268Y-13483874D01*
X11979126Y-13483874D01*
X11950554Y-13498160D01*
X12079126Y-13669589D02*
X12050554Y-13683874D01*
X11979126Y-13683874D01*
X11950554Y-13669589D01*
X11936268Y-13641017D01*
X11936268Y-13612446D01*
X11950554Y-13583874D01*
X11979126Y-13569589D01*
X12050554Y-13569589D01*
X12079126Y-13555303D01*
X12221983Y-13483874D02*
X12221983Y-13783874D01*
X12221983Y-13498160D02*
X12250554Y-13483874D01*
X12307697Y-13483874D01*
X12336268Y-13498160D01*
X12350554Y-13512446D01*
X12364840Y-13541017D01*
X12364840Y-13626731D01*
X12350554Y-13655303D01*
X12336268Y-13669589D01*
X12307697Y-13683874D01*
X12250554Y-13683874D01*
X12221983Y-13669589D01*
X12493411Y-13655303D02*
X12507697Y-13669589D01*
X12493411Y-13683874D01*
X12479126Y-13669589D01*
X12493411Y-13655303D01*
X12493411Y-13683874D01*
X12493411Y-13498160D02*
X12507697Y-13512446D01*
X12493411Y-13526731D01*
X12479126Y-13512446D01*
X12493411Y-13498160D01*
X12493411Y-13526731D01*
X10119360Y-14162920D02*
X10149840Y-14193400D01*
X10149840Y-14162920D02*
X10119360Y-14193400D01*
X10493411Y-14013874D02*
X10521983Y-14013874D01*
X10550554Y-14028160D01*
X10564840Y-14042446D01*
X10579126Y-14071017D01*
X10593411Y-14128160D01*
X10593411Y-14199589D01*
X10579126Y-14256731D01*
X10564840Y-14285303D01*
X10550554Y-14299589D01*
X10521983Y-14313874D01*
X10493411Y-14313874D01*
X10464840Y-14299589D01*
X10450554Y-14285303D01*
X10436268Y-14256731D01*
X10421983Y-14199589D01*
X10421983Y-14128160D01*
X10436268Y-14071017D01*
X10450554Y-14042446D01*
X10464840Y-14028160D01*
X10493411Y-14013874D01*
X10721983Y-14285303D02*
X10736268Y-14299589D01*
X10721983Y-14313874D01*
X10707697Y-14299589D01*
X10721983Y-14285303D01*
X10721983Y-14313874D01*
X10836268Y-14013874D02*
X11021983Y-14013874D01*
X10921983Y-14128160D01*
X10964840Y-14128160D01*
X10993411Y-14142446D01*
X11007697Y-14156731D01*
X11021983Y-14185303D01*
X11021983Y-14256731D01*
X11007697Y-14285303D01*
X10993411Y-14299589D01*
X10964840Y-14313874D01*
X10879126Y-14313874D01*
X10850554Y-14299589D01*
X10836268Y-14285303D01*
X11207697Y-14013874D02*
X11236268Y-14013874D01*
X11264840Y-14028160D01*
X11279126Y-14042446D01*
X11293411Y-14071017D01*
X11307697Y-14128160D01*
X11307697Y-14199589D01*
X11293411Y-14256731D01*
X11279126Y-14285303D01*
X11264840Y-14299589D01*
X11236268Y-14313874D01*
X11207697Y-14313874D01*
X11179126Y-14299589D01*
X11164840Y-14285303D01*
X11150554Y-14256731D01*
X11136268Y-14199589D01*
X11136268Y-14128160D01*
X11150554Y-14071017D01*
X11164840Y-14042446D01*
X11179126Y-14028160D01*
X11207697Y-14013874D01*
X11436268Y-14313874D02*
X11436268Y-14113874D01*
X11436268Y-14142446D02*
X11450554Y-14128160D01*
X11479126Y-14113874D01*
X11521983Y-14113874D01*
X11550554Y-14128160D01*
X11564840Y-14156731D01*
X11564840Y-14313874D01*
X11564840Y-14156731D02*
X11579126Y-14128160D01*
X11607697Y-14113874D01*
X11650554Y-14113874D01*
X11679126Y-14128160D01*
X11693411Y-14156731D01*
X11693411Y-14313874D01*
X11836268Y-14313874D02*
X11836268Y-14113874D01*
X11836268Y-14142446D02*
X11850554Y-14128160D01*
X11879126Y-14113874D01*
X11921983Y-14113874D01*
X11950554Y-14128160D01*
X11964840Y-14156731D01*
X11964840Y-14313874D01*
X11964840Y-14156731D02*
X11979126Y-14128160D01*
X12007697Y-14113874D01*
X12050554Y-14113874D01*
X12079126Y-14128160D01*
X12093411Y-14156731D01*
X12093411Y-14313874D01*
X12679126Y-13999589D02*
X12421983Y-14385303D01*
X13064840Y-14013874D02*
X13093411Y-14013874D01*
X13121983Y-14028160D01*
X13136268Y-14042446D01*
X13150554Y-14071017D01*
X13164840Y-14128160D01*
X13164840Y-14199589D01*
X13150554Y-14256731D01*
X13136268Y-14285303D01*
X13121983Y-14299589D01*
X13093411Y-14313874D01*
X13064840Y-14313874D01*
X13036268Y-14299589D01*
X13021983Y-14285303D01*
X13007697Y-14256731D01*
X12993411Y-14199589D01*
X12993411Y-14128160D01*
X13007697Y-14071017D01*
X13021983Y-14042446D01*
X13036268Y-14028160D01*
X13064840Y-14013874D01*
X13293411Y-14285303D02*
X13307697Y-14299589D01*
X13293411Y-14313874D01*
X13279126Y-14299589D01*
X13293411Y-14285303D01*
X13293411Y-14313874D01*
X13493411Y-14013874D02*
X13521983Y-14013874D01*
X13550554Y-14028160D01*
X13564840Y-14042446D01*
X13579126Y-14071017D01*
X13593411Y-14128160D01*
X13593411Y-14199589D01*
X13579126Y-14256731D01*
X13564840Y-14285303D01*
X13550554Y-14299589D01*
X13521983Y-14313874D01*
X13493411Y-14313874D01*
X13464840Y-14299589D01*
X13450554Y-14285303D01*
X13436268Y-14256731D01*
X13421983Y-14199589D01*
X13421983Y-14128160D01*
X13436268Y-14071017D01*
X13450554Y-14042446D01*
X13464840Y-14028160D01*
X13493411Y-14013874D01*
X13879126Y-14313874D02*
X13707697Y-14313874D01*
X13793411Y-14313874D02*
X13793411Y-14013874D01*
X13764840Y-14056731D01*
X13736268Y-14085303D01*
X13707697Y-14099589D01*
X13993411Y-14042446D02*
X14007697Y-14028160D01*
X14036268Y-14013874D01*
X14107697Y-14013874D01*
X14136268Y-14028160D01*
X14150554Y-14042446D01*
X14164840Y-14071017D01*
X14164840Y-14099589D01*
X14150554Y-14142446D01*
X13979126Y-14313874D01*
X14164840Y-14313874D01*
X14279126Y-14013874D02*
X14279126Y-14071017D01*
X14393411Y-14013874D02*
X14393411Y-14071017D01*
X14836268Y-14428160D02*
X14821983Y-14413874D01*
X14793411Y-14371017D01*
X14779126Y-14342446D01*
X14764840Y-14299589D01*
X14750554Y-14228160D01*
X14750554Y-14171017D01*
X14764840Y-14099589D01*
X14779126Y-14056731D01*
X14793411Y-14028160D01*
X14821983Y-13985303D01*
X14836268Y-13971017D01*
X15107697Y-14313874D02*
X14936268Y-14313874D01*
X15021983Y-14313874D02*
X15021983Y-14013874D01*
X14993411Y-14056731D01*
X14964840Y-14085303D01*
X14936268Y-14099589D01*
X15293411Y-14013874D02*
X15321983Y-14013874D01*
X15350554Y-14028160D01*
X15364840Y-14042446D01*
X15379126Y-14071017D01*
X15393411Y-14128160D01*
X15393411Y-14199589D01*
X15379126Y-14256731D01*
X15364840Y-14285303D01*
X15350554Y-14299589D01*
X15321983Y-14313874D01*
X15293411Y-14313874D01*
X15264840Y-14299589D01*
X15250554Y-14285303D01*
X15236268Y-14256731D01*
X15221983Y-14199589D01*
X15221983Y-14128160D01*
X15236268Y-14071017D01*
X15250554Y-14042446D01*
X15264840Y-14028160D01*
X15293411Y-14013874D01*
X15579126Y-14013874D02*
X15607697Y-14013874D01*
X15636268Y-14028160D01*
X15650554Y-14042446D01*
X15664840Y-14071017D01*
X15679126Y-14128160D01*
X15679126Y-14199589D01*
X15664840Y-14256731D01*
X15650554Y-14285303D01*
X15636268Y-14299589D01*
X15607697Y-14313874D01*
X15579126Y-14313874D01*
X15550554Y-14299589D01*
X15536268Y-14285303D01*
X15521983Y-14256731D01*
X15507697Y-14199589D01*
X15507697Y-14128160D01*
X15521983Y-14071017D01*
X15536268Y-14042446D01*
X15550554Y-14028160D01*
X15579126Y-14013874D01*
X16036268Y-14313874D02*
X16036268Y-14013874D01*
X16164840Y-14313874D02*
X16164840Y-14156731D01*
X16150554Y-14128160D01*
X16121983Y-14113874D01*
X16079126Y-14113874D01*
X16050554Y-14128160D01*
X16036268Y-14142446D01*
X16350554Y-14313874D02*
X16321983Y-14299589D01*
X16307697Y-14285303D01*
X16293411Y-14256731D01*
X16293411Y-14171017D01*
X16307697Y-14142446D01*
X16321983Y-14128160D01*
X16350554Y-14113874D01*
X16393411Y-14113874D01*
X16421983Y-14128160D01*
X16436268Y-14142446D01*
X16450554Y-14171017D01*
X16450554Y-14256731D01*
X16436268Y-14285303D01*
X16421983Y-14299589D01*
X16393411Y-14313874D01*
X16350554Y-14313874D01*
X16621983Y-14313874D02*
X16593411Y-14299589D01*
X16579126Y-14271017D01*
X16579126Y-14013874D01*
X16850554Y-14299589D02*
X16821983Y-14313874D01*
X16764840Y-14313874D01*
X16736268Y-14299589D01*
X16721983Y-14271017D01*
X16721983Y-14156731D01*
X16736268Y-14128160D01*
X16764840Y-14113874D01*
X16821983Y-14113874D01*
X16850554Y-14128160D01*
X16864840Y-14156731D01*
X16864840Y-14185303D01*
X16721983Y-14213874D01*
X16979126Y-14299589D02*
X17007697Y-14313874D01*
X17064840Y-14313874D01*
X17093411Y-14299589D01*
X17107697Y-14271017D01*
X17107697Y-14256731D01*
X17093411Y-14228160D01*
X17064840Y-14213874D01*
X17021983Y-14213874D01*
X16993411Y-14199589D01*
X16979126Y-14171017D01*
X16979126Y-14156731D01*
X16993411Y-14128160D01*
X17021983Y-14113874D01*
X17064840Y-14113874D01*
X17093411Y-14128160D01*
X17207697Y-14428160D02*
X17221983Y-14413874D01*
X17250554Y-14371017D01*
X17264840Y-14342446D01*
X17279126Y-14299589D01*
X17293411Y-14228160D01*
X17293411Y-14171017D01*
X17279126Y-14099589D01*
X17264840Y-14056731D01*
X17250554Y-14028160D01*
X17221983Y-13985303D01*
X17207697Y-13971017D01*
X10149840Y-14574160D02*
G75*
G03*
X10149840Y-14574160I-47500J0D01*
G01*
X10493411Y-14409874D02*
X10521983Y-14409874D01*
X10550554Y-14424160D01*
X10564840Y-14438446D01*
X10579126Y-14467017D01*
X10593411Y-14524160D01*
X10593411Y-14595589D01*
X10579126Y-14652731D01*
X10564840Y-14681303D01*
X10550554Y-14695589D01*
X10521983Y-14709874D01*
X10493411Y-14709874D01*
X10464840Y-14695589D01*
X10450554Y-14681303D01*
X10436268Y-14652731D01*
X10421983Y-14595589D01*
X10421983Y-14524160D01*
X10436268Y-14467017D01*
X10450554Y-14438446D01*
X10464840Y-14424160D01*
X10493411Y-14409874D01*
X10721983Y-14681303D02*
X10736268Y-14695589D01*
X10721983Y-14709874D01*
X10707697Y-14695589D01*
X10721983Y-14681303D01*
X10721983Y-14709874D01*
X10879126Y-14709874D02*
X10936268Y-14709874D01*
X10964840Y-14695589D01*
X10979126Y-14681303D01*
X11007697Y-14638446D01*
X11021983Y-14581303D01*
X11021983Y-14467017D01*
X11007697Y-14438446D01*
X10993411Y-14424160D01*
X10964840Y-14409874D01*
X10907697Y-14409874D01*
X10879126Y-14424160D01*
X10864840Y-14438446D01*
X10850554Y-14467017D01*
X10850554Y-14538446D01*
X10864840Y-14567017D01*
X10879126Y-14581303D01*
X10907697Y-14595589D01*
X10964840Y-14595589D01*
X10993411Y-14581303D01*
X11007697Y-14567017D01*
X11021983Y-14538446D01*
X11293411Y-14409874D02*
X11150554Y-14409874D01*
X11136268Y-14552731D01*
X11150554Y-14538446D01*
X11179126Y-14524160D01*
X11250554Y-14524160D01*
X11279126Y-14538446D01*
X11293411Y-14552731D01*
X11307697Y-14581303D01*
X11307697Y-14652731D01*
X11293411Y-14681303D01*
X11279126Y-14695589D01*
X11250554Y-14709874D01*
X11179126Y-14709874D01*
X11150554Y-14695589D01*
X11136268Y-14681303D01*
X11436268Y-14709874D02*
X11436268Y-14509874D01*
X11436268Y-14538446D02*
X11450554Y-14524160D01*
X11479126Y-14509874D01*
X11521983Y-14509874D01*
X11550554Y-14524160D01*
X11564840Y-14552731D01*
X11564840Y-14709874D01*
X11564840Y-14552731D02*
X11579126Y-14524160D01*
X11607697Y-14509874D01*
X11650554Y-14509874D01*
X11679126Y-14524160D01*
X11693411Y-14552731D01*
X11693411Y-14709874D01*
X11836268Y-14709874D02*
X11836268Y-14509874D01*
X11836268Y-14538446D02*
X11850554Y-14524160D01*
X11879126Y-14509874D01*
X11921983Y-14509874D01*
X11950554Y-14524160D01*
X11964840Y-14552731D01*
X11964840Y-14709874D01*
X11964840Y-14552731D02*
X11979126Y-14524160D01*
X12007697Y-14509874D01*
X12050554Y-14509874D01*
X12079126Y-14524160D01*
X12093411Y-14552731D01*
X12093411Y-14709874D01*
X12679126Y-14395589D02*
X12421983Y-14781303D01*
X13064840Y-14409874D02*
X13093411Y-14409874D01*
X13121983Y-14424160D01*
X13136268Y-14438446D01*
X13150554Y-14467017D01*
X13164840Y-14524160D01*
X13164840Y-14595589D01*
X13150554Y-14652731D01*
X13136268Y-14681303D01*
X13121983Y-14695589D01*
X13093411Y-14709874D01*
X13064840Y-14709874D01*
X13036268Y-14695589D01*
X13021983Y-14681303D01*
X13007697Y-14652731D01*
X12993411Y-14595589D01*
X12993411Y-14524160D01*
X13007697Y-14467017D01*
X13021983Y-14438446D01*
X13036268Y-14424160D01*
X13064840Y-14409874D01*
X13293411Y-14681303D02*
X13307697Y-14695589D01*
X13293411Y-14709874D01*
X13279126Y-14695589D01*
X13293411Y-14681303D01*
X13293411Y-14709874D01*
X13493411Y-14409874D02*
X13521983Y-14409874D01*
X13550554Y-14424160D01*
X13564840Y-14438446D01*
X13579126Y-14467017D01*
X13593411Y-14524160D01*
X13593411Y-14595589D01*
X13579126Y-14652731D01*
X13564840Y-14681303D01*
X13550554Y-14695589D01*
X13521983Y-14709874D01*
X13493411Y-14709874D01*
X13464840Y-14695589D01*
X13450554Y-14681303D01*
X13436268Y-14652731D01*
X13421983Y-14595589D01*
X13421983Y-14524160D01*
X13436268Y-14467017D01*
X13450554Y-14438446D01*
X13464840Y-14424160D01*
X13493411Y-14409874D01*
X13693411Y-14409874D02*
X13879126Y-14409874D01*
X13779126Y-14524160D01*
X13821983Y-14524160D01*
X13850554Y-14538446D01*
X13864840Y-14552731D01*
X13879126Y-14581303D01*
X13879126Y-14652731D01*
X13864840Y-14681303D01*
X13850554Y-14695589D01*
X13821983Y-14709874D01*
X13736268Y-14709874D01*
X13707697Y-14695589D01*
X13693411Y-14681303D01*
X13979126Y-14409874D02*
X14179126Y-14409874D01*
X14050554Y-14709874D01*
X14279126Y-14409874D02*
X14279126Y-14467017D01*
X14393411Y-14409874D02*
X14393411Y-14467017D01*
X14836268Y-14824160D02*
X14821983Y-14809874D01*
X14793411Y-14767017D01*
X14779126Y-14738446D01*
X14764840Y-14695589D01*
X14750554Y-14624160D01*
X14750554Y-14567017D01*
X14764840Y-14495589D01*
X14779126Y-14452731D01*
X14793411Y-14424160D01*
X14821983Y-14381303D01*
X14836268Y-14367017D01*
X14921983Y-14409874D02*
X15107697Y-14409874D01*
X15007697Y-14524160D01*
X15050554Y-14524160D01*
X15079126Y-14538446D01*
X15093411Y-14552731D01*
X15107697Y-14581303D01*
X15107697Y-14652731D01*
X15093411Y-14681303D01*
X15079126Y-14695589D01*
X15050554Y-14709874D01*
X14964840Y-14709874D01*
X14936268Y-14695589D01*
X14921983Y-14681303D01*
X15464840Y-14709874D02*
X15464840Y-14409874D01*
X15593411Y-14709874D02*
X15593411Y-14552731D01*
X15579126Y-14524160D01*
X15550554Y-14509874D01*
X15507697Y-14509874D01*
X15479126Y-14524160D01*
X15464840Y-14538446D01*
X15779126Y-14709874D02*
X15750554Y-14695589D01*
X15736268Y-14681303D01*
X15721983Y-14652731D01*
X15721983Y-14567017D01*
X15736268Y-14538446D01*
X15750554Y-14524160D01*
X15779126Y-14509874D01*
X15821983Y-14509874D01*
X15850554Y-14524160D01*
X15864840Y-14538446D01*
X15879126Y-14567017D01*
X15879126Y-14652731D01*
X15864840Y-14681303D01*
X15850554Y-14695589D01*
X15821983Y-14709874D01*
X15779126Y-14709874D01*
X16050554Y-14709874D02*
X16021983Y-14695589D01*
X16007697Y-14667017D01*
X16007697Y-14409874D01*
X16279126Y-14695589D02*
X16250554Y-14709874D01*
X16193411Y-14709874D01*
X16164840Y-14695589D01*
X16150554Y-14667017D01*
X16150554Y-14552731D01*
X16164840Y-14524160D01*
X16193411Y-14509874D01*
X16250554Y-14509874D01*
X16279126Y-14524160D01*
X16293411Y-14552731D01*
X16293411Y-14581303D01*
X16150554Y-14609874D01*
X16407697Y-14695589D02*
X16436268Y-14709874D01*
X16493411Y-14709874D01*
X16521983Y-14695589D01*
X16536268Y-14667017D01*
X16536268Y-14652731D01*
X16521983Y-14624160D01*
X16493411Y-14609874D01*
X16450554Y-14609874D01*
X16421983Y-14595589D01*
X16407697Y-14567017D01*
X16407697Y-14552731D01*
X16421983Y-14524160D01*
X16450554Y-14509874D01*
X16493411Y-14509874D01*
X16521983Y-14524160D01*
X16636268Y-14824160D02*
X16650554Y-14809874D01*
X16679126Y-14767017D01*
X16693411Y-14738446D01*
X16707697Y-14695589D01*
X16721983Y-14624160D01*
X16721983Y-14567017D01*
X16707697Y-14495589D01*
X16693411Y-14452731D01*
X16679126Y-14424160D01*
X16650554Y-14381303D01*
X16636268Y-14367017D01*
X10099840Y-14920160D02*
X10099840Y-15020160D01*
X10049840Y-14970160D02*
X10149840Y-14970160D01*
X10593411Y-15105874D02*
X10421983Y-15105874D01*
X10507697Y-15105874D02*
X10507697Y-14805874D01*
X10479126Y-14848731D01*
X10450554Y-14877303D01*
X10421983Y-14891589D01*
X10721983Y-15077303D02*
X10736268Y-15091589D01*
X10721983Y-15105874D01*
X10707697Y-15091589D01*
X10721983Y-15077303D01*
X10721983Y-15105874D01*
X10921983Y-14805874D02*
X10950554Y-14805874D01*
X10979126Y-14820160D01*
X10993411Y-14834446D01*
X11007697Y-14863017D01*
X11021983Y-14920160D01*
X11021983Y-14991589D01*
X11007697Y-15048731D01*
X10993411Y-15077303D01*
X10979126Y-15091589D01*
X10950554Y-15105874D01*
X10921983Y-15105874D01*
X10893411Y-15091589D01*
X10879126Y-15077303D01*
X10864840Y-15048731D01*
X10850554Y-14991589D01*
X10850554Y-14920160D01*
X10864840Y-14863017D01*
X10879126Y-14834446D01*
X10893411Y-14820160D01*
X10921983Y-14805874D01*
X11207697Y-14805874D02*
X11236268Y-14805874D01*
X11264840Y-14820160D01*
X11279126Y-14834446D01*
X11293411Y-14863017D01*
X11307697Y-14920160D01*
X11307697Y-14991589D01*
X11293411Y-15048731D01*
X11279126Y-15077303D01*
X11264840Y-15091589D01*
X11236268Y-15105874D01*
X11207697Y-15105874D01*
X11179126Y-15091589D01*
X11164840Y-15077303D01*
X11150554Y-15048731D01*
X11136268Y-14991589D01*
X11136268Y-14920160D01*
X11150554Y-14863017D01*
X11164840Y-14834446D01*
X11179126Y-14820160D01*
X11207697Y-14805874D01*
X11436268Y-15105874D02*
X11436268Y-14905874D01*
X11436268Y-14934446D02*
X11450554Y-14920160D01*
X11479126Y-14905874D01*
X11521983Y-14905874D01*
X11550554Y-14920160D01*
X11564840Y-14948731D01*
X11564840Y-15105874D01*
X11564840Y-14948731D02*
X11579126Y-14920160D01*
X11607697Y-14905874D01*
X11650554Y-14905874D01*
X11679126Y-14920160D01*
X11693411Y-14948731D01*
X11693411Y-15105874D01*
X11836268Y-15105874D02*
X11836268Y-14905874D01*
X11836268Y-14934446D02*
X11850554Y-14920160D01*
X11879126Y-14905874D01*
X11921983Y-14905874D01*
X11950554Y-14920160D01*
X11964840Y-14948731D01*
X11964840Y-15105874D01*
X11964840Y-14948731D02*
X11979126Y-14920160D01*
X12007697Y-14905874D01*
X12050554Y-14905874D01*
X12079126Y-14920160D01*
X12093411Y-14948731D01*
X12093411Y-15105874D01*
X12679126Y-14791589D02*
X12421983Y-15177303D01*
X13064840Y-14805874D02*
X13093411Y-14805874D01*
X13121983Y-14820160D01*
X13136268Y-14834446D01*
X13150554Y-14863017D01*
X13164840Y-14920160D01*
X13164840Y-14991589D01*
X13150554Y-15048731D01*
X13136268Y-15077303D01*
X13121983Y-15091589D01*
X13093411Y-15105874D01*
X13064840Y-15105874D01*
X13036268Y-15091589D01*
X13021983Y-15077303D01*
X13007697Y-15048731D01*
X12993411Y-14991589D01*
X12993411Y-14920160D01*
X13007697Y-14863017D01*
X13021983Y-14834446D01*
X13036268Y-14820160D01*
X13064840Y-14805874D01*
X13293411Y-15077303D02*
X13307697Y-15091589D01*
X13293411Y-15105874D01*
X13279126Y-15091589D01*
X13293411Y-15077303D01*
X13293411Y-15105874D01*
X13493411Y-14805874D02*
X13521983Y-14805874D01*
X13550554Y-14820160D01*
X13564840Y-14834446D01*
X13579126Y-14863017D01*
X13593411Y-14920160D01*
X13593411Y-14991589D01*
X13579126Y-15048731D01*
X13564840Y-15077303D01*
X13550554Y-15091589D01*
X13521983Y-15105874D01*
X13493411Y-15105874D01*
X13464840Y-15091589D01*
X13450554Y-15077303D01*
X13436268Y-15048731D01*
X13421983Y-14991589D01*
X13421983Y-14920160D01*
X13436268Y-14863017D01*
X13450554Y-14834446D01*
X13464840Y-14820160D01*
X13493411Y-14805874D01*
X13693411Y-14805874D02*
X13879126Y-14805874D01*
X13779126Y-14920160D01*
X13821983Y-14920160D01*
X13850554Y-14934446D01*
X13864840Y-14948731D01*
X13879126Y-14977303D01*
X13879126Y-15048731D01*
X13864840Y-15077303D01*
X13850554Y-15091589D01*
X13821983Y-15105874D01*
X13736268Y-15105874D01*
X13707697Y-15091589D01*
X13693411Y-15077303D01*
X14021983Y-15105874D02*
X14079126Y-15105874D01*
X14107697Y-15091589D01*
X14121983Y-15077303D01*
X14150554Y-15034446D01*
X14164840Y-14977303D01*
X14164840Y-14863017D01*
X14150554Y-14834446D01*
X14136268Y-14820160D01*
X14107697Y-14805874D01*
X14050554Y-14805874D01*
X14021983Y-14820160D01*
X14007697Y-14834446D01*
X13993411Y-14863017D01*
X13993411Y-14934446D01*
X14007697Y-14963017D01*
X14021983Y-14977303D01*
X14050554Y-14991589D01*
X14107697Y-14991589D01*
X14136268Y-14977303D01*
X14150554Y-14963017D01*
X14164840Y-14934446D01*
X14279126Y-14805874D02*
X14279126Y-14863017D01*
X14393411Y-14805874D02*
X14393411Y-14863017D01*
X14836268Y-15220160D02*
X14821983Y-15205874D01*
X14793411Y-15163017D01*
X14779126Y-15134446D01*
X14764840Y-15091589D01*
X14750554Y-15020160D01*
X14750554Y-14963017D01*
X14764840Y-14891589D01*
X14779126Y-14848731D01*
X14793411Y-14820160D01*
X14821983Y-14777303D01*
X14836268Y-14763017D01*
X15107697Y-15105874D02*
X14936268Y-15105874D01*
X15021983Y-15105874D02*
X15021983Y-14805874D01*
X14993411Y-14848731D01*
X14964840Y-14877303D01*
X14936268Y-14891589D01*
X15250554Y-15105874D02*
X15307697Y-15105874D01*
X15336268Y-15091589D01*
X15350554Y-15077303D01*
X15379126Y-15034446D01*
X15393411Y-14977303D01*
X15393411Y-14863017D01*
X15379126Y-14834446D01*
X15364840Y-14820160D01*
X15336268Y-14805874D01*
X15279126Y-14805874D01*
X15250554Y-14820160D01*
X15236268Y-14834446D01*
X15221983Y-14863017D01*
X15221983Y-14934446D01*
X15236268Y-14963017D01*
X15250554Y-14977303D01*
X15279126Y-14991589D01*
X15336268Y-14991589D01*
X15364840Y-14977303D01*
X15379126Y-14963017D01*
X15393411Y-14934446D01*
X15750554Y-15105874D02*
X15750554Y-14805874D01*
X15879126Y-15105874D02*
X15879126Y-14948731D01*
X15864840Y-14920160D01*
X15836268Y-14905874D01*
X15793411Y-14905874D01*
X15764840Y-14920160D01*
X15750554Y-14934446D01*
X16064840Y-15105874D02*
X16036268Y-15091589D01*
X16021983Y-15077303D01*
X16007697Y-15048731D01*
X16007697Y-14963017D01*
X16021983Y-14934446D01*
X16036268Y-14920160D01*
X16064840Y-14905874D01*
X16107697Y-14905874D01*
X16136268Y-14920160D01*
X16150554Y-14934446D01*
X16164840Y-14963017D01*
X16164840Y-15048731D01*
X16150554Y-15077303D01*
X16136268Y-15091589D01*
X16107697Y-15105874D01*
X16064840Y-15105874D01*
X16336268Y-15105874D02*
X16307697Y-15091589D01*
X16293411Y-15063017D01*
X16293411Y-14805874D01*
X16564840Y-15091589D02*
X16536268Y-15105874D01*
X16479126Y-15105874D01*
X16450554Y-15091589D01*
X16436268Y-15063017D01*
X16436268Y-14948731D01*
X16450554Y-14920160D01*
X16479126Y-14905874D01*
X16536268Y-14905874D01*
X16564840Y-14920160D01*
X16579126Y-14948731D01*
X16579126Y-14977303D01*
X16436268Y-15005874D01*
X16693411Y-15091589D02*
X16721983Y-15105874D01*
X16779126Y-15105874D01*
X16807697Y-15091589D01*
X16821983Y-15063017D01*
X16821983Y-15048731D01*
X16807697Y-15020160D01*
X16779126Y-15005874D01*
X16736268Y-15005874D01*
X16707697Y-14991589D01*
X16693411Y-14963017D01*
X16693411Y-14948731D01*
X16707697Y-14920160D01*
X16736268Y-14905874D01*
X16779126Y-14905874D01*
X16807697Y-14920160D01*
X16921983Y-15220160D02*
X16936268Y-15205874D01*
X16964840Y-15163017D01*
X16979126Y-15134446D01*
X16993411Y-15091589D01*
X17007697Y-15020160D01*
X17007697Y-14963017D01*
X16993411Y-14891589D01*
X16979126Y-14848731D01*
X16964840Y-14820160D01*
X16936268Y-14777303D01*
X16921983Y-14763017D01*
X10132267Y-15408587D02*
X10132267Y-15323733D01*
X10047413Y-15323733D01*
X10047413Y-15408587D01*
X10132267Y-15408587D01*
X10593411Y-15501874D02*
X10421983Y-15501874D01*
X10507697Y-15501874D02*
X10507697Y-15201874D01*
X10479126Y-15244731D01*
X10450554Y-15273303D01*
X10421983Y-15287589D01*
X10721983Y-15473303D02*
X10736268Y-15487589D01*
X10721983Y-15501874D01*
X10707697Y-15487589D01*
X10721983Y-15473303D01*
X10721983Y-15501874D01*
X10850554Y-15230446D02*
X10864840Y-15216160D01*
X10893411Y-15201874D01*
X10964840Y-15201874D01*
X10993411Y-15216160D01*
X11007697Y-15230446D01*
X11021983Y-15259017D01*
X11021983Y-15287589D01*
X11007697Y-15330446D01*
X10836268Y-15501874D01*
X11021983Y-15501874D01*
X11207697Y-15201874D02*
X11236268Y-15201874D01*
X11264840Y-15216160D01*
X11279126Y-15230446D01*
X11293411Y-15259017D01*
X11307697Y-15316160D01*
X11307697Y-15387589D01*
X11293411Y-15444731D01*
X11279126Y-15473303D01*
X11264840Y-15487589D01*
X11236268Y-15501874D01*
X11207697Y-15501874D01*
X11179126Y-15487589D01*
X11164840Y-15473303D01*
X11150554Y-15444731D01*
X11136268Y-15387589D01*
X11136268Y-15316160D01*
X11150554Y-15259017D01*
X11164840Y-15230446D01*
X11179126Y-15216160D01*
X11207697Y-15201874D01*
X11436268Y-15501874D02*
X11436268Y-15301874D01*
X11436268Y-15330446D02*
X11450554Y-15316160D01*
X11479126Y-15301874D01*
X11521983Y-15301874D01*
X11550554Y-15316160D01*
X11564840Y-15344731D01*
X11564840Y-15501874D01*
X11564840Y-15344731D02*
X11579126Y-15316160D01*
X11607697Y-15301874D01*
X11650554Y-15301874D01*
X11679126Y-15316160D01*
X11693411Y-15344731D01*
X11693411Y-15501874D01*
X11836268Y-15501874D02*
X11836268Y-15301874D01*
X11836268Y-15330446D02*
X11850554Y-15316160D01*
X11879126Y-15301874D01*
X11921983Y-15301874D01*
X11950554Y-15316160D01*
X11964840Y-15344731D01*
X11964840Y-15501874D01*
X11964840Y-15344731D02*
X11979126Y-15316160D01*
X12007697Y-15301874D01*
X12050554Y-15301874D01*
X12079126Y-15316160D01*
X12093411Y-15344731D01*
X12093411Y-15501874D01*
X12679126Y-15187589D02*
X12421983Y-15573303D01*
X13064840Y-15201874D02*
X13093411Y-15201874D01*
X13121983Y-15216160D01*
X13136268Y-15230446D01*
X13150554Y-15259017D01*
X13164840Y-15316160D01*
X13164840Y-15387589D01*
X13150554Y-15444731D01*
X13136268Y-15473303D01*
X13121983Y-15487589D01*
X13093411Y-15501874D01*
X13064840Y-15501874D01*
X13036268Y-15487589D01*
X13021983Y-15473303D01*
X13007697Y-15444731D01*
X12993411Y-15387589D01*
X12993411Y-15316160D01*
X13007697Y-15259017D01*
X13021983Y-15230446D01*
X13036268Y-15216160D01*
X13064840Y-15201874D01*
X13293411Y-15473303D02*
X13307697Y-15487589D01*
X13293411Y-15501874D01*
X13279126Y-15487589D01*
X13293411Y-15473303D01*
X13293411Y-15501874D01*
X13493411Y-15201874D02*
X13521983Y-15201874D01*
X13550554Y-15216160D01*
X13564840Y-15230446D01*
X13579126Y-15259017D01*
X13593411Y-15316160D01*
X13593411Y-15387589D01*
X13579126Y-15444731D01*
X13564840Y-15473303D01*
X13550554Y-15487589D01*
X13521983Y-15501874D01*
X13493411Y-15501874D01*
X13464840Y-15487589D01*
X13450554Y-15473303D01*
X13436268Y-15444731D01*
X13421983Y-15387589D01*
X13421983Y-15316160D01*
X13436268Y-15259017D01*
X13450554Y-15230446D01*
X13464840Y-15216160D01*
X13493411Y-15201874D01*
X13850554Y-15301874D02*
X13850554Y-15501874D01*
X13779126Y-15187589D02*
X13707697Y-15401874D01*
X13893411Y-15401874D01*
X13979126Y-15201874D02*
X14179126Y-15201874D01*
X14050554Y-15501874D01*
X14279126Y-15201874D02*
X14279126Y-15259017D01*
X14393411Y-15201874D02*
X14393411Y-15259017D01*
X14836268Y-15616160D02*
X14821983Y-15601874D01*
X14793411Y-15559017D01*
X14779126Y-15530446D01*
X14764840Y-15487589D01*
X14750554Y-15416160D01*
X14750554Y-15359017D01*
X14764840Y-15287589D01*
X14779126Y-15244731D01*
X14793411Y-15216160D01*
X14821983Y-15173303D01*
X14836268Y-15159017D01*
X15107697Y-15501874D02*
X14936268Y-15501874D01*
X15021983Y-15501874D02*
X15021983Y-15201874D01*
X14993411Y-15244731D01*
X14964840Y-15273303D01*
X14936268Y-15287589D01*
X15393411Y-15501874D02*
X15221983Y-15501874D01*
X15307697Y-15501874D02*
X15307697Y-15201874D01*
X15279126Y-15244731D01*
X15250554Y-15273303D01*
X15221983Y-15287589D01*
X15750554Y-15501874D02*
X15750554Y-15201874D01*
X15879126Y-15501874D02*
X15879126Y-15344731D01*
X15864840Y-15316160D01*
X15836268Y-15301874D01*
X15793411Y-15301874D01*
X15764840Y-15316160D01*
X15750554Y-15330446D01*
X16064840Y-15501874D02*
X16036268Y-15487589D01*
X16021983Y-15473303D01*
X16007697Y-15444731D01*
X16007697Y-15359017D01*
X16021983Y-15330446D01*
X16036268Y-15316160D01*
X16064840Y-15301874D01*
X16107697Y-15301874D01*
X16136268Y-15316160D01*
X16150554Y-15330446D01*
X16164840Y-15359017D01*
X16164840Y-15444731D01*
X16150554Y-15473303D01*
X16136268Y-15487589D01*
X16107697Y-15501874D01*
X16064840Y-15501874D01*
X16336268Y-15501874D02*
X16307697Y-15487589D01*
X16293411Y-15459017D01*
X16293411Y-15201874D01*
X16564840Y-15487589D02*
X16536268Y-15501874D01*
X16479126Y-15501874D01*
X16450554Y-15487589D01*
X16436268Y-15459017D01*
X16436268Y-15344731D01*
X16450554Y-15316160D01*
X16479126Y-15301874D01*
X16536268Y-15301874D01*
X16564840Y-15316160D01*
X16579126Y-15344731D01*
X16579126Y-15373303D01*
X16436268Y-15401874D01*
X16693411Y-15487589D02*
X16721983Y-15501874D01*
X16779126Y-15501874D01*
X16807697Y-15487589D01*
X16821983Y-15459017D01*
X16821983Y-15444731D01*
X16807697Y-15416160D01*
X16779126Y-15401874D01*
X16736268Y-15401874D01*
X16707697Y-15387589D01*
X16693411Y-15359017D01*
X16693411Y-15344731D01*
X16707697Y-15316160D01*
X16736268Y-15301874D01*
X16779126Y-15301874D01*
X16807697Y-15316160D01*
X16921983Y-15616160D02*
X16936268Y-15601874D01*
X16964840Y-15559017D01*
X16979126Y-15530446D01*
X16993411Y-15487589D01*
X17007697Y-15416160D01*
X17007697Y-15359017D01*
X16993411Y-15287589D01*
X16979126Y-15244731D01*
X16964840Y-15216160D01*
X16936268Y-15173303D01*
X16921983Y-15159017D01*
M02*
