G04 #@! TF.GenerationSoftware,KiCad,Pcbnew,(5.1.6)-1*
G04 #@! TF.CreationDate,2020-12-30T15:53:02+08:00*
G04 #@! TF.ProjectId,Module_ADS1263,4d6f6475-6c65-45f4-9144-53313236332e,rev?*
G04 #@! TF.SameCoordinates,Original*
G04 #@! TF.FileFunction,Copper,L2,Inr*
G04 #@! TF.FilePolarity,Positive*
%FSLAX46Y46*%
G04 Gerber Fmt 4.6, Leading zero omitted, Abs format (unit mm)*
G04 Created by KiCad (PCBNEW (5.1.6)-1) date 2020-12-30 15:53:02*
%MOMM*%
%LPD*%
G01*
G04 APERTURE LIST*
G04 #@! TA.AperFunction,NonConductor*
%ADD10C,0.203200*%
G04 #@! TD*
G04 #@! TA.AperFunction,ViaPad*
%ADD11O,1.700000X1.700000*%
G04 #@! TD*
G04 #@! TA.AperFunction,ViaPad*
%ADD12R,1.700000X1.700000*%
G04 #@! TD*
G04 #@! TA.AperFunction,ViaPad*
%ADD13O,1.950000X1.700000*%
G04 #@! TD*
G04 #@! TA.AperFunction,ViaPad*
%ADD14O,3.600000X1.800000*%
G04 #@! TD*
G04 #@! TA.AperFunction,ViaPad*
%ADD15O,1.800000X3.600000*%
G04 #@! TD*
G04 #@! TA.AperFunction,ViaPad*
%ADD16C,0.558800*%
G04 #@! TD*
G04 #@! TA.AperFunction,Conductor*
%ADD17C,0.127000*%
G04 #@! TD*
G04 APERTURE END LIST*
D10*
X108490657Y-129877457D02*
X108548714Y-129819400D01*
X108664828Y-129761342D01*
X108955114Y-129761342D01*
X109071228Y-129819400D01*
X109129285Y-129877457D01*
X109187342Y-129993571D01*
X109187342Y-130109685D01*
X109129285Y-130283857D01*
X108432600Y-130980542D01*
X109187342Y-130980542D01*
D11*
X147320000Y-105410000D03*
X144780000Y-105410000D03*
X147320000Y-102870000D03*
D12*
X144780000Y-102870000D03*
D13*
X147320000Y-92790000D03*
X147320000Y-95290000D03*
G04 #@! TA.AperFunction,ViaPad*
G36*
G01*
X148045000Y-98640000D02*
X146595000Y-98640000D01*
G75*
G02*
X146345000Y-98390000I0J250000D01*
G01*
X146345000Y-97190000D01*
G75*
G02*
X146595000Y-96940000I250000J0D01*
G01*
X148045000Y-96940000D01*
G75*
G02*
X148295000Y-97190000I0J-250000D01*
G01*
X148295000Y-98390000D01*
G75*
G02*
X148045000Y-98640000I-250000J0D01*
G01*
G37*
G04 #@! TD.AperFunction*
D11*
X143510000Y-128270000D03*
X140970000Y-128270000D03*
X138430000Y-128270000D03*
X135890000Y-128270000D03*
X133350000Y-128270000D03*
D12*
X130810000Y-128270000D03*
D11*
X143510000Y-125730000D03*
X140970000Y-125730000D03*
X138430000Y-125730000D03*
X135890000Y-125730000D03*
X133350000Y-125730000D03*
D12*
X130810000Y-125730000D03*
D14*
X109982000Y-123190000D03*
X109982000Y-119380000D03*
G04 #@! TA.AperFunction,ViaPad*
G36*
G01*
X108432000Y-114670000D02*
X111532000Y-114670000D01*
G75*
G02*
X111782000Y-114920000I0J-250000D01*
G01*
X111782000Y-116220000D01*
G75*
G02*
X111532000Y-116470000I-250000J0D01*
G01*
X108432000Y-116470000D01*
G75*
G02*
X108182000Y-116220000I0J250000D01*
G01*
X108182000Y-114920000D01*
G75*
G02*
X108432000Y-114670000I250000J0D01*
G01*
G37*
G04 #@! TD.AperFunction*
D15*
X113538000Y-90932000D03*
X117348000Y-90932000D03*
X121158000Y-90932000D03*
X124968000Y-90932000D03*
X128778000Y-90932000D03*
X132588000Y-90932000D03*
X136398000Y-90932000D03*
G04 #@! TA.AperFunction,ViaPad*
G36*
G01*
X141108000Y-89382000D02*
X141108000Y-92482000D01*
G75*
G02*
X140858000Y-92732000I-250000J0D01*
G01*
X139558000Y-92732000D01*
G75*
G02*
X139308000Y-92482000I0J250000D01*
G01*
X139308000Y-89382000D01*
G75*
G02*
X139558000Y-89132000I250000J0D01*
G01*
X140858000Y-89132000D01*
G75*
G02*
X141108000Y-89382000I0J-250000D01*
G01*
G37*
G04 #@! TD.AperFunction*
D11*
X125730000Y-118110000D03*
X125730000Y-120650000D03*
D12*
X125730000Y-123190000D03*
D16*
X104648000Y-107569000D03*
X103124000Y-107569000D03*
X104648000Y-101981000D03*
X103124000Y-101981000D03*
X104648000Y-94869000D03*
X103124000Y-94869000D03*
X104648000Y-89281000D03*
X103124000Y-89281000D03*
X114173000Y-97790000D03*
X114173000Y-99060000D03*
X137668000Y-95885000D03*
X137668000Y-97155000D03*
X130048000Y-100330000D03*
X131318000Y-100330000D03*
X137668000Y-103505000D03*
X137668000Y-104775000D03*
X122428000Y-100330000D03*
X123698000Y-100330000D03*
X113284000Y-117602000D03*
X114554000Y-117602000D03*
X117856000Y-116840000D03*
X119126000Y-116840000D03*
X120396000Y-116840000D03*
X117856000Y-124968000D03*
X119126000Y-124968000D03*
X114808000Y-107696000D03*
X116840000Y-107696000D03*
X118364000Y-108712000D03*
X120142000Y-108712000D03*
X123190000Y-117602000D03*
X124968000Y-113538000D03*
X124460000Y-115697000D03*
X123444000Y-129413000D03*
X124714000Y-129413000D03*
X123444000Y-130683000D03*
X124714000Y-130683000D03*
X148844000Y-109982000D03*
X148844000Y-108712000D03*
X150114000Y-109982000D03*
X150114000Y-108712000D03*
X103124000Y-97155000D03*
X103124000Y-98425000D03*
X103124000Y-99695000D03*
X106807000Y-107569000D03*
X108077000Y-107569000D03*
X109347000Y-107569000D03*
X106807000Y-89281000D03*
X108077000Y-89281000D03*
X109347000Y-89281000D03*
X133985000Y-118364000D03*
X126682500Y-115316000D03*
X126682500Y-116078000D03*
X126682500Y-108839000D03*
X117602000Y-129413000D03*
X118872000Y-129413000D03*
X118872000Y-130683000D03*
X117602000Y-130683000D03*
X132588000Y-118364000D03*
X126682500Y-112776000D03*
X114300000Y-129413000D03*
X115570000Y-129413000D03*
X114300000Y-130683000D03*
X115570000Y-130683000D03*
X123571000Y-113030000D03*
X123571000Y-114173000D03*
X122428000Y-115443000D03*
X136398000Y-108839000D03*
X139192000Y-107822994D03*
X126746000Y-129413000D03*
X128016000Y-129413000D03*
X128016000Y-130683000D03*
X126746000Y-130683000D03*
X148844000Y-111887000D03*
X150114000Y-111887000D03*
X148844000Y-113157000D03*
X150114000Y-113157000D03*
X148463000Y-115316000D03*
X149606000Y-115316000D03*
X143256000Y-111506000D03*
X143256000Y-109982000D03*
X141986000Y-116205000D03*
X142367000Y-114173000D03*
X143637000Y-114173000D03*
X143637000Y-115443000D03*
X142367000Y-115443000D03*
X145034000Y-119888000D03*
X143510000Y-118745000D03*
X137795000Y-118872000D03*
X133223000Y-120015000D03*
X138557000Y-117221000D03*
X136016996Y-120015000D03*
X140208000Y-116205000D03*
X136398000Y-116205000D03*
X137160000Y-120015000D03*
X135001000Y-118491000D03*
X140589000Y-120523000D03*
X115693500Y-118494500D03*
X115697000Y-121793000D03*
X115693500Y-109096500D03*
X115697000Y-112395000D03*
D17*
G36*
X146274866Y-82883791D02*
G01*
X146363158Y-82928779D01*
X146433221Y-82998842D01*
X146478209Y-83087134D01*
X146494500Y-83189996D01*
X146494500Y-86741000D01*
X146495282Y-86750933D01*
X146513929Y-86868668D01*
X146517072Y-86880713D01*
X146520068Y-86887564D01*
X146574186Y-86993775D01*
X146580898Y-87004259D01*
X146585864Y-87009847D01*
X146670153Y-87094136D01*
X146679775Y-87102033D01*
X146686225Y-87105814D01*
X146792436Y-87159932D01*
X146804028Y-87164469D01*
X146811332Y-87166071D01*
X146929067Y-87184718D01*
X146939000Y-87185500D01*
X150490004Y-87185500D01*
X150592866Y-87201791D01*
X150681158Y-87246779D01*
X150751221Y-87316842D01*
X150796209Y-87405134D01*
X150812500Y-87507996D01*
X150812500Y-110358004D01*
X150796209Y-110460866D01*
X150751221Y-110549158D01*
X150681158Y-110619221D01*
X150592866Y-110664209D01*
X150490004Y-110680500D01*
X147484070Y-110680500D01*
X147356789Y-110655182D01*
X147248886Y-110583084D01*
X143158493Y-106492691D01*
X143148871Y-106484794D01*
X143025266Y-106402204D01*
X143014287Y-106396336D01*
X143002375Y-106392722D01*
X142856573Y-106363720D01*
X142844185Y-106362500D01*
X135763000Y-106362500D01*
X135753067Y-106363282D01*
X135635332Y-106381929D01*
X135623287Y-106385072D01*
X135616436Y-106388068D01*
X135510225Y-106442186D01*
X135499741Y-106448898D01*
X135494153Y-106453864D01*
X135409864Y-106538153D01*
X135401967Y-106547775D01*
X135398186Y-106554225D01*
X135344068Y-106660436D01*
X135339531Y-106672028D01*
X135337929Y-106679332D01*
X135319282Y-106797067D01*
X135318500Y-106807000D01*
X135318500Y-117985262D01*
X135283738Y-117962034D01*
X135175109Y-117917039D01*
X135059790Y-117894100D01*
X134942210Y-117894100D01*
X134826891Y-117917039D01*
X134718262Y-117962034D01*
X134620499Y-118027358D01*
X134537358Y-118110499D01*
X134530393Y-118120922D01*
X134513966Y-118081262D01*
X134448642Y-117983499D01*
X134365501Y-117900358D01*
X134267738Y-117835034D01*
X134159109Y-117790039D01*
X134043790Y-117767100D01*
X133926210Y-117767100D01*
X133810891Y-117790039D01*
X133702262Y-117835034D01*
X133604499Y-117900358D01*
X133521358Y-117983499D01*
X133456034Y-118081262D01*
X133411039Y-118189891D01*
X133388100Y-118305210D01*
X133388100Y-118422790D01*
X133411039Y-118538109D01*
X133456034Y-118646738D01*
X133521358Y-118744501D01*
X133604499Y-118827642D01*
X133702262Y-118892966D01*
X133810891Y-118937961D01*
X133926210Y-118960900D01*
X134043790Y-118960900D01*
X134159109Y-118937961D01*
X134267738Y-118892966D01*
X134365501Y-118827642D01*
X134448642Y-118744501D01*
X134455607Y-118734078D01*
X134472034Y-118773738D01*
X134537358Y-118871501D01*
X134620499Y-118954642D01*
X134718262Y-119019966D01*
X134826891Y-119064961D01*
X134942210Y-119087900D01*
X135059790Y-119087900D01*
X135175109Y-119064961D01*
X135283738Y-119019966D01*
X135318500Y-118996738D01*
X135318500Y-122550004D01*
X135302209Y-122652866D01*
X135257221Y-122741158D01*
X135187158Y-122811221D01*
X135098866Y-122856209D01*
X134996004Y-122872500D01*
X128427815Y-122872500D01*
X128415427Y-122873720D01*
X128269625Y-122902722D01*
X128257713Y-122906336D01*
X128246734Y-122912204D01*
X128123129Y-122994794D01*
X128113507Y-123002691D01*
X125542691Y-125573507D01*
X125534794Y-125583129D01*
X125452204Y-125706734D01*
X125446336Y-125717713D01*
X125442722Y-125729625D01*
X125413720Y-125875427D01*
X125412500Y-125887815D01*
X125412500Y-131186004D01*
X125396209Y-131288866D01*
X125351221Y-131377158D01*
X125281158Y-131447221D01*
X125192866Y-131492209D01*
X125090004Y-131508500D01*
X113161996Y-131508500D01*
X113059134Y-131492209D01*
X112970842Y-131447221D01*
X112900779Y-131377158D01*
X112855791Y-131288866D01*
X112839500Y-131186004D01*
X112839500Y-130624210D01*
X113703100Y-130624210D01*
X113703100Y-130741790D01*
X113726039Y-130857109D01*
X113771034Y-130965738D01*
X113836358Y-131063501D01*
X113919499Y-131146642D01*
X114017262Y-131211966D01*
X114125891Y-131256961D01*
X114241210Y-131279900D01*
X114358790Y-131279900D01*
X114474109Y-131256961D01*
X114582738Y-131211966D01*
X114680501Y-131146642D01*
X114763642Y-131063501D01*
X114828966Y-130965738D01*
X114873961Y-130857109D01*
X114896900Y-130741790D01*
X114896900Y-130624210D01*
X114973100Y-130624210D01*
X114973100Y-130741790D01*
X114996039Y-130857109D01*
X115041034Y-130965738D01*
X115106358Y-131063501D01*
X115189499Y-131146642D01*
X115287262Y-131211966D01*
X115395891Y-131256961D01*
X115511210Y-131279900D01*
X115628790Y-131279900D01*
X115744109Y-131256961D01*
X115852738Y-131211966D01*
X115950501Y-131146642D01*
X116033642Y-131063501D01*
X116098966Y-130965738D01*
X116143961Y-130857109D01*
X116166900Y-130741790D01*
X116166900Y-130624210D01*
X117005100Y-130624210D01*
X117005100Y-130741790D01*
X117028039Y-130857109D01*
X117073034Y-130965738D01*
X117138358Y-131063501D01*
X117221499Y-131146642D01*
X117319262Y-131211966D01*
X117427891Y-131256961D01*
X117543210Y-131279900D01*
X117660790Y-131279900D01*
X117776109Y-131256961D01*
X117884738Y-131211966D01*
X117982501Y-131146642D01*
X118065642Y-131063501D01*
X118130966Y-130965738D01*
X118175961Y-130857109D01*
X118198900Y-130741790D01*
X118198900Y-130624210D01*
X118275100Y-130624210D01*
X118275100Y-130741790D01*
X118298039Y-130857109D01*
X118343034Y-130965738D01*
X118408358Y-131063501D01*
X118491499Y-131146642D01*
X118589262Y-131211966D01*
X118697891Y-131256961D01*
X118813210Y-131279900D01*
X118930790Y-131279900D01*
X119046109Y-131256961D01*
X119154738Y-131211966D01*
X119252501Y-131146642D01*
X119335642Y-131063501D01*
X119400966Y-130965738D01*
X119445961Y-130857109D01*
X119468900Y-130741790D01*
X119468900Y-130624210D01*
X119445961Y-130508891D01*
X119400966Y-130400262D01*
X119335642Y-130302499D01*
X119252501Y-130219358D01*
X119154738Y-130154034D01*
X119046109Y-130109039D01*
X118930790Y-130086100D01*
X118813210Y-130086100D01*
X118697891Y-130109039D01*
X118589262Y-130154034D01*
X118491499Y-130219358D01*
X118408358Y-130302499D01*
X118343034Y-130400262D01*
X118298039Y-130508891D01*
X118275100Y-130624210D01*
X118198900Y-130624210D01*
X118175961Y-130508891D01*
X118130966Y-130400262D01*
X118065642Y-130302499D01*
X117982501Y-130219358D01*
X117884738Y-130154034D01*
X117776109Y-130109039D01*
X117660790Y-130086100D01*
X117543210Y-130086100D01*
X117427891Y-130109039D01*
X117319262Y-130154034D01*
X117221499Y-130219358D01*
X117138358Y-130302499D01*
X117073034Y-130400262D01*
X117028039Y-130508891D01*
X117005100Y-130624210D01*
X116166900Y-130624210D01*
X116143961Y-130508891D01*
X116098966Y-130400262D01*
X116033642Y-130302499D01*
X115950501Y-130219358D01*
X115852738Y-130154034D01*
X115744109Y-130109039D01*
X115628790Y-130086100D01*
X115511210Y-130086100D01*
X115395891Y-130109039D01*
X115287262Y-130154034D01*
X115189499Y-130219358D01*
X115106358Y-130302499D01*
X115041034Y-130400262D01*
X114996039Y-130508891D01*
X114973100Y-130624210D01*
X114896900Y-130624210D01*
X114873961Y-130508891D01*
X114828966Y-130400262D01*
X114763642Y-130302499D01*
X114680501Y-130219358D01*
X114582738Y-130154034D01*
X114474109Y-130109039D01*
X114358790Y-130086100D01*
X114241210Y-130086100D01*
X114125891Y-130109039D01*
X114017262Y-130154034D01*
X113919499Y-130219358D01*
X113836358Y-130302499D01*
X113771034Y-130400262D01*
X113726039Y-130508891D01*
X113703100Y-130624210D01*
X112839500Y-130624210D01*
X112839500Y-129413000D01*
X112838718Y-129403067D01*
X112830980Y-129354210D01*
X113703100Y-129354210D01*
X113703100Y-129471790D01*
X113726039Y-129587109D01*
X113771034Y-129695738D01*
X113836358Y-129793501D01*
X113919499Y-129876642D01*
X114017262Y-129941966D01*
X114125891Y-129986961D01*
X114241210Y-130009900D01*
X114358790Y-130009900D01*
X114474109Y-129986961D01*
X114582738Y-129941966D01*
X114680501Y-129876642D01*
X114763642Y-129793501D01*
X114828966Y-129695738D01*
X114873961Y-129587109D01*
X114896900Y-129471790D01*
X114896900Y-129354210D01*
X114973100Y-129354210D01*
X114973100Y-129471790D01*
X114996039Y-129587109D01*
X115041034Y-129695738D01*
X115106358Y-129793501D01*
X115189499Y-129876642D01*
X115287262Y-129941966D01*
X115395891Y-129986961D01*
X115511210Y-130009900D01*
X115628790Y-130009900D01*
X115744109Y-129986961D01*
X115852738Y-129941966D01*
X115950501Y-129876642D01*
X116033642Y-129793501D01*
X116098966Y-129695738D01*
X116143961Y-129587109D01*
X116166900Y-129471790D01*
X116166900Y-129354210D01*
X117005100Y-129354210D01*
X117005100Y-129471790D01*
X117028039Y-129587109D01*
X117073034Y-129695738D01*
X117138358Y-129793501D01*
X117221499Y-129876642D01*
X117319262Y-129941966D01*
X117427891Y-129986961D01*
X117543210Y-130009900D01*
X117660790Y-130009900D01*
X117776109Y-129986961D01*
X117884738Y-129941966D01*
X117982501Y-129876642D01*
X118065642Y-129793501D01*
X118130966Y-129695738D01*
X118175961Y-129587109D01*
X118198900Y-129471790D01*
X118198900Y-129354210D01*
X118275100Y-129354210D01*
X118275100Y-129471790D01*
X118298039Y-129587109D01*
X118343034Y-129695738D01*
X118408358Y-129793501D01*
X118491499Y-129876642D01*
X118589262Y-129941966D01*
X118697891Y-129986961D01*
X118813210Y-130009900D01*
X118930790Y-130009900D01*
X119046109Y-129986961D01*
X119154738Y-129941966D01*
X119252501Y-129876642D01*
X119335642Y-129793501D01*
X119400966Y-129695738D01*
X119445961Y-129587109D01*
X119468900Y-129471790D01*
X119468900Y-129354210D01*
X119445961Y-129238891D01*
X119400966Y-129130262D01*
X119335642Y-129032499D01*
X119252501Y-128949358D01*
X119154738Y-128884034D01*
X119046109Y-128839039D01*
X118930790Y-128816100D01*
X118813210Y-128816100D01*
X118697891Y-128839039D01*
X118589262Y-128884034D01*
X118491499Y-128949358D01*
X118408358Y-129032499D01*
X118343034Y-129130262D01*
X118298039Y-129238891D01*
X118275100Y-129354210D01*
X118198900Y-129354210D01*
X118175961Y-129238891D01*
X118130966Y-129130262D01*
X118065642Y-129032499D01*
X117982501Y-128949358D01*
X117884738Y-128884034D01*
X117776109Y-128839039D01*
X117660790Y-128816100D01*
X117543210Y-128816100D01*
X117427891Y-128839039D01*
X117319262Y-128884034D01*
X117221499Y-128949358D01*
X117138358Y-129032499D01*
X117073034Y-129130262D01*
X117028039Y-129238891D01*
X117005100Y-129354210D01*
X116166900Y-129354210D01*
X116143961Y-129238891D01*
X116098966Y-129130262D01*
X116033642Y-129032499D01*
X115950501Y-128949358D01*
X115852738Y-128884034D01*
X115744109Y-128839039D01*
X115628790Y-128816100D01*
X115511210Y-128816100D01*
X115395891Y-128839039D01*
X115287262Y-128884034D01*
X115189499Y-128949358D01*
X115106358Y-129032499D01*
X115041034Y-129130262D01*
X114996039Y-129238891D01*
X114973100Y-129354210D01*
X114896900Y-129354210D01*
X114873961Y-129238891D01*
X114828966Y-129130262D01*
X114763642Y-129032499D01*
X114680501Y-128949358D01*
X114582738Y-128884034D01*
X114474109Y-128839039D01*
X114358790Y-128816100D01*
X114241210Y-128816100D01*
X114125891Y-128839039D01*
X114017262Y-128884034D01*
X113919499Y-128949358D01*
X113836358Y-129032499D01*
X113771034Y-129130262D01*
X113726039Y-129238891D01*
X113703100Y-129354210D01*
X112830980Y-129354210D01*
X112820071Y-129285332D01*
X112816928Y-129273287D01*
X112813932Y-129266436D01*
X112759814Y-129160225D01*
X112753102Y-129149741D01*
X112748136Y-129144153D01*
X112663847Y-129059864D01*
X112654225Y-129051967D01*
X112647775Y-129048186D01*
X112541564Y-128994068D01*
X112529972Y-128989531D01*
X112522668Y-128987929D01*
X112404933Y-128969282D01*
X112395000Y-128968500D01*
X106557996Y-128968500D01*
X106455134Y-128952209D01*
X106366842Y-128907221D01*
X106296779Y-128837158D01*
X106251791Y-128748866D01*
X106235500Y-128646004D01*
X106235500Y-127889000D01*
X106234718Y-127879067D01*
X106216071Y-127761332D01*
X106212928Y-127749287D01*
X106209932Y-127742436D01*
X106155814Y-127636225D01*
X106149102Y-127625741D01*
X106144136Y-127620153D01*
X106059847Y-127535864D01*
X106050225Y-127527967D01*
X106043775Y-127524186D01*
X105937564Y-127470068D01*
X105925972Y-127465531D01*
X105918668Y-127463929D01*
X105800933Y-127445282D01*
X105791000Y-127444500D01*
X102493996Y-127444500D01*
X102391134Y-127428209D01*
X102302842Y-127383221D01*
X102232779Y-127313158D01*
X102187791Y-127224866D01*
X102171500Y-127122004D01*
X102171500Y-123190000D01*
X107858610Y-123190000D01*
X107882117Y-123428672D01*
X107951735Y-123658171D01*
X108064788Y-123869679D01*
X108216933Y-124055067D01*
X108402321Y-124207212D01*
X108613829Y-124320265D01*
X108843328Y-124389883D01*
X109022197Y-124407500D01*
X110941803Y-124407500D01*
X111120672Y-124389883D01*
X111350171Y-124320265D01*
X111561679Y-124207212D01*
X111747067Y-124055067D01*
X111899212Y-123869679D01*
X112012265Y-123658171D01*
X112081883Y-123428672D01*
X112105390Y-123190000D01*
X112081883Y-122951328D01*
X112012265Y-122721829D01*
X111899212Y-122510321D01*
X111747067Y-122324933D01*
X111561679Y-122172788D01*
X111350171Y-122059735D01*
X111120672Y-121990117D01*
X110941803Y-121972500D01*
X109022197Y-121972500D01*
X108843328Y-121990117D01*
X108613829Y-122059735D01*
X108402321Y-122172788D01*
X108216933Y-122324933D01*
X108064788Y-122510321D01*
X107951735Y-122721829D01*
X107882117Y-122951328D01*
X107858610Y-123190000D01*
X102171500Y-123190000D01*
X102171500Y-121734210D01*
X115100100Y-121734210D01*
X115100100Y-121851790D01*
X115123039Y-121967109D01*
X115168034Y-122075738D01*
X115233358Y-122173501D01*
X115316499Y-122256642D01*
X115414262Y-122321966D01*
X115522891Y-122366961D01*
X115638210Y-122389900D01*
X115755790Y-122389900D01*
X115871109Y-122366961D01*
X115936199Y-122340000D01*
X124560964Y-122340000D01*
X124560964Y-124040000D01*
X124567094Y-124102241D01*
X124585249Y-124162090D01*
X124614731Y-124217247D01*
X124654407Y-124265593D01*
X124702753Y-124305269D01*
X124757910Y-124334751D01*
X124817759Y-124352906D01*
X124880000Y-124359036D01*
X126580000Y-124359036D01*
X126642241Y-124352906D01*
X126702090Y-124334751D01*
X126757247Y-124305269D01*
X126805593Y-124265593D01*
X126845269Y-124217247D01*
X126874751Y-124162090D01*
X126892906Y-124102241D01*
X126899036Y-124040000D01*
X126899036Y-122340000D01*
X126892906Y-122277759D01*
X126874751Y-122217910D01*
X126845269Y-122162753D01*
X126805593Y-122114407D01*
X126757247Y-122074731D01*
X126702090Y-122045249D01*
X126642241Y-122027094D01*
X126580000Y-122020964D01*
X124880000Y-122020964D01*
X124817759Y-122027094D01*
X124757910Y-122045249D01*
X124702753Y-122074731D01*
X124654407Y-122114407D01*
X124614731Y-122162753D01*
X124585249Y-122217910D01*
X124567094Y-122277759D01*
X124560964Y-122340000D01*
X115936199Y-122340000D01*
X115979738Y-122321966D01*
X116077501Y-122256642D01*
X116160642Y-122173501D01*
X116225966Y-122075738D01*
X116270961Y-121967109D01*
X116293900Y-121851790D01*
X116293900Y-121734210D01*
X116270961Y-121618891D01*
X116225966Y-121510262D01*
X116160642Y-121412499D01*
X116077501Y-121329358D01*
X115979738Y-121264034D01*
X115871109Y-121219039D01*
X115755790Y-121196100D01*
X115638210Y-121196100D01*
X115522891Y-121219039D01*
X115414262Y-121264034D01*
X115316499Y-121329358D01*
X115233358Y-121412499D01*
X115168034Y-121510262D01*
X115123039Y-121618891D01*
X115100100Y-121734210D01*
X102171500Y-121734210D01*
X102171500Y-119714822D01*
X107779858Y-119714822D01*
X107791243Y-119777185D01*
X107893531Y-120021367D01*
X108041492Y-120240902D01*
X108229439Y-120427353D01*
X108450149Y-120573555D01*
X108695141Y-120673889D01*
X108955000Y-120724500D01*
X109855000Y-120724500D01*
X109855000Y-119507000D01*
X110109000Y-119507000D01*
X110109000Y-120724500D01*
X111009000Y-120724500D01*
X111268859Y-120673889D01*
X111513851Y-120573555D01*
X111572037Y-120535011D01*
X124562500Y-120535011D01*
X124562500Y-120764989D01*
X124607366Y-120990547D01*
X124695375Y-121203019D01*
X124823144Y-121394238D01*
X124985762Y-121556856D01*
X125176981Y-121684625D01*
X125389453Y-121772634D01*
X125615011Y-121817500D01*
X125844989Y-121817500D01*
X126070547Y-121772634D01*
X126283019Y-121684625D01*
X126474238Y-121556856D01*
X126636856Y-121394238D01*
X126764625Y-121203019D01*
X126852634Y-120990547D01*
X126897500Y-120764989D01*
X126897500Y-120535011D01*
X126852634Y-120309453D01*
X126764625Y-120096981D01*
X126670565Y-119956210D01*
X132626100Y-119956210D01*
X132626100Y-120073790D01*
X132649039Y-120189109D01*
X132694034Y-120297738D01*
X132759358Y-120395501D01*
X132842499Y-120478642D01*
X132940262Y-120543966D01*
X133048891Y-120588961D01*
X133164210Y-120611900D01*
X133281790Y-120611900D01*
X133397109Y-120588961D01*
X133505738Y-120543966D01*
X133603501Y-120478642D01*
X133686642Y-120395501D01*
X133751966Y-120297738D01*
X133796961Y-120189109D01*
X133819900Y-120073790D01*
X133819900Y-119956210D01*
X133796961Y-119840891D01*
X133751966Y-119732262D01*
X133686642Y-119634499D01*
X133603501Y-119551358D01*
X133505738Y-119486034D01*
X133397109Y-119441039D01*
X133281790Y-119418100D01*
X133164210Y-119418100D01*
X133048891Y-119441039D01*
X132940262Y-119486034D01*
X132842499Y-119551358D01*
X132759358Y-119634499D01*
X132694034Y-119732262D01*
X132649039Y-119840891D01*
X132626100Y-119956210D01*
X126670565Y-119956210D01*
X126636856Y-119905762D01*
X126474238Y-119743144D01*
X126283019Y-119615375D01*
X126070547Y-119527366D01*
X125844989Y-119482500D01*
X125615011Y-119482500D01*
X125389453Y-119527366D01*
X125176981Y-119615375D01*
X124985762Y-119743144D01*
X124823144Y-119905762D01*
X124695375Y-120096981D01*
X124607366Y-120309453D01*
X124562500Y-120535011D01*
X111572037Y-120535011D01*
X111734561Y-120427353D01*
X111922508Y-120240902D01*
X112070469Y-120021367D01*
X112172757Y-119777185D01*
X112184142Y-119714822D01*
X112108819Y-119507000D01*
X110109000Y-119507000D01*
X109855000Y-119507000D01*
X107855181Y-119507000D01*
X107779858Y-119714822D01*
X102171500Y-119714822D01*
X102171500Y-119045178D01*
X107779858Y-119045178D01*
X107855181Y-119253000D01*
X109855000Y-119253000D01*
X109855000Y-118035500D01*
X110109000Y-118035500D01*
X110109000Y-119253000D01*
X112108819Y-119253000D01*
X112184142Y-119045178D01*
X112172757Y-118982815D01*
X112070469Y-118738633D01*
X111922508Y-118519098D01*
X111838451Y-118435710D01*
X115096600Y-118435710D01*
X115096600Y-118553290D01*
X115119539Y-118668609D01*
X115164534Y-118777238D01*
X115229858Y-118875001D01*
X115312999Y-118958142D01*
X115410762Y-119023466D01*
X115519391Y-119068461D01*
X115634710Y-119091400D01*
X115752290Y-119091400D01*
X115867609Y-119068461D01*
X115976238Y-119023466D01*
X116074001Y-118958142D01*
X116157142Y-118875001D01*
X116222466Y-118777238D01*
X116267461Y-118668609D01*
X116290400Y-118553290D01*
X116290400Y-118436964D01*
X124477473Y-118436964D01*
X124506905Y-118534008D01*
X124613126Y-118764475D01*
X124762268Y-118969791D01*
X124948600Y-119142065D01*
X125164960Y-119274678D01*
X125403035Y-119362533D01*
X125603000Y-119287136D01*
X125603000Y-118237000D01*
X125857000Y-118237000D01*
X125857000Y-119287136D01*
X126056965Y-119362533D01*
X126295040Y-119274678D01*
X126511400Y-119142065D01*
X126697732Y-118969791D01*
X126846874Y-118764475D01*
X126953095Y-118534008D01*
X126982527Y-118436964D01*
X126932461Y-118305210D01*
X131991100Y-118305210D01*
X131991100Y-118422790D01*
X132014039Y-118538109D01*
X132059034Y-118646738D01*
X132124358Y-118744501D01*
X132207499Y-118827642D01*
X132305262Y-118892966D01*
X132413891Y-118937961D01*
X132529210Y-118960900D01*
X132646790Y-118960900D01*
X132762109Y-118937961D01*
X132870738Y-118892966D01*
X132968501Y-118827642D01*
X133051642Y-118744501D01*
X133116966Y-118646738D01*
X133161961Y-118538109D01*
X133184900Y-118422790D01*
X133184900Y-118305210D01*
X133161961Y-118189891D01*
X133116966Y-118081262D01*
X133051642Y-117983499D01*
X132968501Y-117900358D01*
X132870738Y-117835034D01*
X132762109Y-117790039D01*
X132646790Y-117767100D01*
X132529210Y-117767100D01*
X132413891Y-117790039D01*
X132305262Y-117835034D01*
X132207499Y-117900358D01*
X132124358Y-117983499D01*
X132059034Y-118081262D01*
X132014039Y-118189891D01*
X131991100Y-118305210D01*
X126932461Y-118305210D01*
X126906540Y-118237000D01*
X125857000Y-118237000D01*
X125603000Y-118237000D01*
X124553460Y-118237000D01*
X124477473Y-118436964D01*
X116290400Y-118436964D01*
X116290400Y-118435710D01*
X116267461Y-118320391D01*
X116222466Y-118211762D01*
X116157142Y-118113999D01*
X116074001Y-118030858D01*
X115976238Y-117965534D01*
X115867609Y-117920539D01*
X115752290Y-117897600D01*
X115634710Y-117897600D01*
X115519391Y-117920539D01*
X115410762Y-117965534D01*
X115312999Y-118030858D01*
X115229858Y-118113999D01*
X115164534Y-118211762D01*
X115119539Y-118320391D01*
X115096600Y-118435710D01*
X111838451Y-118435710D01*
X111734561Y-118332647D01*
X111513851Y-118186445D01*
X111268859Y-118086111D01*
X111009000Y-118035500D01*
X110109000Y-118035500D01*
X109855000Y-118035500D01*
X108955000Y-118035500D01*
X108695141Y-118086111D01*
X108450149Y-118186445D01*
X108229439Y-118332647D01*
X108041492Y-118519098D01*
X107893531Y-118738633D01*
X107791243Y-118982815D01*
X107779858Y-119045178D01*
X102171500Y-119045178D01*
X102171500Y-117783036D01*
X124477473Y-117783036D01*
X124553460Y-117983000D01*
X125603000Y-117983000D01*
X125603000Y-116932864D01*
X125857000Y-116932864D01*
X125857000Y-117983000D01*
X126906540Y-117983000D01*
X126982527Y-117783036D01*
X126953095Y-117685992D01*
X126846874Y-117455525D01*
X126697732Y-117250209D01*
X126511400Y-117077935D01*
X126295040Y-116945322D01*
X126056965Y-116857467D01*
X125857000Y-116932864D01*
X125603000Y-116932864D01*
X125403035Y-116857467D01*
X125164960Y-116945322D01*
X124948600Y-117077935D01*
X124762268Y-117250209D01*
X124613126Y-117455525D01*
X124506905Y-117685992D01*
X124477473Y-117783036D01*
X102171500Y-117783036D01*
X102171500Y-114920000D01*
X107862964Y-114920000D01*
X107862964Y-116220000D01*
X107873898Y-116331013D01*
X107906279Y-116437761D01*
X107958864Y-116536139D01*
X108029631Y-116622369D01*
X108115861Y-116693136D01*
X108214239Y-116745721D01*
X108320987Y-116778102D01*
X108432000Y-116789036D01*
X111532000Y-116789036D01*
X111643013Y-116778102D01*
X111749761Y-116745721D01*
X111848139Y-116693136D01*
X111934369Y-116622369D01*
X112005136Y-116536139D01*
X112057721Y-116437761D01*
X112090102Y-116331013D01*
X112101036Y-116220000D01*
X112101036Y-115384210D01*
X121831100Y-115384210D01*
X121831100Y-115501790D01*
X121854039Y-115617109D01*
X121899034Y-115725738D01*
X121964358Y-115823501D01*
X122047499Y-115906642D01*
X122145262Y-115971966D01*
X122253891Y-116016961D01*
X122369210Y-116039900D01*
X122486790Y-116039900D01*
X122602109Y-116016961D01*
X122710738Y-115971966D01*
X122808501Y-115906642D01*
X122891642Y-115823501D01*
X122956966Y-115725738D01*
X123001961Y-115617109D01*
X123024900Y-115501790D01*
X123024900Y-115384210D01*
X123001961Y-115268891D01*
X122997123Y-115257210D01*
X126085600Y-115257210D01*
X126085600Y-115374790D01*
X126108539Y-115490109D01*
X126153534Y-115598738D01*
X126218858Y-115696501D01*
X126219357Y-115697000D01*
X126218858Y-115697499D01*
X126153534Y-115795262D01*
X126108539Y-115903891D01*
X126085600Y-116019210D01*
X126085600Y-116136790D01*
X126108539Y-116252109D01*
X126153534Y-116360738D01*
X126218858Y-116458501D01*
X126301999Y-116541642D01*
X126399762Y-116606966D01*
X126508391Y-116651961D01*
X126623710Y-116674900D01*
X126741290Y-116674900D01*
X126856609Y-116651961D01*
X126965238Y-116606966D01*
X127063001Y-116541642D01*
X127146142Y-116458501D01*
X127211466Y-116360738D01*
X127256461Y-116252109D01*
X127279400Y-116136790D01*
X127279400Y-116019210D01*
X127256461Y-115903891D01*
X127211466Y-115795262D01*
X127146142Y-115697499D01*
X127145643Y-115697000D01*
X127146142Y-115696501D01*
X127211466Y-115598738D01*
X127256461Y-115490109D01*
X127279400Y-115374790D01*
X127279400Y-115257210D01*
X127256461Y-115141891D01*
X127211466Y-115033262D01*
X127146142Y-114935499D01*
X127063001Y-114852358D01*
X126965238Y-114787034D01*
X126856609Y-114742039D01*
X126741290Y-114719100D01*
X126623710Y-114719100D01*
X126508391Y-114742039D01*
X126399762Y-114787034D01*
X126301999Y-114852358D01*
X126218858Y-114935499D01*
X126153534Y-115033262D01*
X126108539Y-115141891D01*
X126085600Y-115257210D01*
X122997123Y-115257210D01*
X122956966Y-115160262D01*
X122891642Y-115062499D01*
X122808501Y-114979358D01*
X122710738Y-114914034D01*
X122602109Y-114869039D01*
X122486790Y-114846100D01*
X122369210Y-114846100D01*
X122253891Y-114869039D01*
X122145262Y-114914034D01*
X122047499Y-114979358D01*
X121964358Y-115062499D01*
X121899034Y-115160262D01*
X121854039Y-115268891D01*
X121831100Y-115384210D01*
X112101036Y-115384210D01*
X112101036Y-114920000D01*
X112090102Y-114808987D01*
X112057721Y-114702239D01*
X112005136Y-114603861D01*
X111934369Y-114517631D01*
X111848139Y-114446864D01*
X111749761Y-114394279D01*
X111643013Y-114361898D01*
X111532000Y-114350964D01*
X108432000Y-114350964D01*
X108320987Y-114361898D01*
X108214239Y-114394279D01*
X108115861Y-114446864D01*
X108029631Y-114517631D01*
X107958864Y-114603861D01*
X107906279Y-114702239D01*
X107873898Y-114808987D01*
X107862964Y-114920000D01*
X102171500Y-114920000D01*
X102171500Y-112336210D01*
X115100100Y-112336210D01*
X115100100Y-112453790D01*
X115123039Y-112569109D01*
X115168034Y-112677738D01*
X115233358Y-112775501D01*
X115316499Y-112858642D01*
X115414262Y-112923966D01*
X115522891Y-112968961D01*
X115638210Y-112991900D01*
X115755790Y-112991900D01*
X115859802Y-112971210D01*
X122974100Y-112971210D01*
X122974100Y-113088790D01*
X122997039Y-113204109D01*
X123042034Y-113312738D01*
X123107358Y-113410501D01*
X123190499Y-113493642D01*
X123288262Y-113558966D01*
X123390950Y-113601500D01*
X123288262Y-113644034D01*
X123190499Y-113709358D01*
X123107358Y-113792499D01*
X123042034Y-113890262D01*
X122997039Y-113998891D01*
X122974100Y-114114210D01*
X122974100Y-114231790D01*
X122997039Y-114347109D01*
X123042034Y-114455738D01*
X123107358Y-114553501D01*
X123190499Y-114636642D01*
X123288262Y-114701966D01*
X123396891Y-114746961D01*
X123512210Y-114769900D01*
X123629790Y-114769900D01*
X123745109Y-114746961D01*
X123853738Y-114701966D01*
X123951501Y-114636642D01*
X124034642Y-114553501D01*
X124099966Y-114455738D01*
X124144961Y-114347109D01*
X124167900Y-114231790D01*
X124167900Y-114114210D01*
X124144961Y-113998891D01*
X124099966Y-113890262D01*
X124034642Y-113792499D01*
X123951501Y-113709358D01*
X123853738Y-113644034D01*
X123751050Y-113601500D01*
X123853738Y-113558966D01*
X123951501Y-113493642D01*
X124034642Y-113410501D01*
X124099966Y-113312738D01*
X124144961Y-113204109D01*
X124167900Y-113088790D01*
X124167900Y-112971210D01*
X124144961Y-112855891D01*
X124099966Y-112747262D01*
X124079886Y-112717210D01*
X126085600Y-112717210D01*
X126085600Y-112834790D01*
X126108539Y-112950109D01*
X126153534Y-113058738D01*
X126218858Y-113156501D01*
X126301999Y-113239642D01*
X126399762Y-113304966D01*
X126508391Y-113349961D01*
X126623710Y-113372900D01*
X126741290Y-113372900D01*
X126856609Y-113349961D01*
X126965238Y-113304966D01*
X127063001Y-113239642D01*
X127146142Y-113156501D01*
X127211466Y-113058738D01*
X127256461Y-112950109D01*
X127279400Y-112834790D01*
X127279400Y-112717210D01*
X127256461Y-112601891D01*
X127211466Y-112493262D01*
X127146142Y-112395499D01*
X127063001Y-112312358D01*
X126965238Y-112247034D01*
X126856609Y-112202039D01*
X126741290Y-112179100D01*
X126623710Y-112179100D01*
X126508391Y-112202039D01*
X126399762Y-112247034D01*
X126301999Y-112312358D01*
X126218858Y-112395499D01*
X126153534Y-112493262D01*
X126108539Y-112601891D01*
X126085600Y-112717210D01*
X124079886Y-112717210D01*
X124034642Y-112649499D01*
X123951501Y-112566358D01*
X123853738Y-112501034D01*
X123745109Y-112456039D01*
X123629790Y-112433100D01*
X123512210Y-112433100D01*
X123396891Y-112456039D01*
X123288262Y-112501034D01*
X123190499Y-112566358D01*
X123107358Y-112649499D01*
X123042034Y-112747262D01*
X122997039Y-112855891D01*
X122974100Y-112971210D01*
X115859802Y-112971210D01*
X115871109Y-112968961D01*
X115979738Y-112923966D01*
X116077501Y-112858642D01*
X116160642Y-112775501D01*
X116225966Y-112677738D01*
X116270961Y-112569109D01*
X116293900Y-112453790D01*
X116293900Y-112336210D01*
X116270961Y-112220891D01*
X116225966Y-112112262D01*
X116160642Y-112014499D01*
X116077501Y-111931358D01*
X115979738Y-111866034D01*
X115871109Y-111821039D01*
X115755790Y-111798100D01*
X115638210Y-111798100D01*
X115522891Y-111821039D01*
X115414262Y-111866034D01*
X115316499Y-111931358D01*
X115233358Y-112014499D01*
X115168034Y-112112262D01*
X115123039Y-112220891D01*
X115100100Y-112336210D01*
X102171500Y-112336210D01*
X102171500Y-109037710D01*
X115096600Y-109037710D01*
X115096600Y-109155290D01*
X115119539Y-109270609D01*
X115164534Y-109379238D01*
X115229858Y-109477001D01*
X115312999Y-109560142D01*
X115410762Y-109625466D01*
X115519391Y-109670461D01*
X115634710Y-109693400D01*
X115752290Y-109693400D01*
X115867609Y-109670461D01*
X115976238Y-109625466D01*
X116074001Y-109560142D01*
X116157142Y-109477001D01*
X116222466Y-109379238D01*
X116267461Y-109270609D01*
X116290400Y-109155290D01*
X116290400Y-109037710D01*
X116267461Y-108922391D01*
X116222466Y-108813762D01*
X116200047Y-108780210D01*
X126085600Y-108780210D01*
X126085600Y-108897790D01*
X126108539Y-109013109D01*
X126153534Y-109121738D01*
X126218858Y-109219501D01*
X126301999Y-109302642D01*
X126399762Y-109367966D01*
X126508391Y-109412961D01*
X126623710Y-109435900D01*
X126741290Y-109435900D01*
X126856609Y-109412961D01*
X126965238Y-109367966D01*
X127063001Y-109302642D01*
X127146142Y-109219501D01*
X127211466Y-109121738D01*
X127256461Y-109013109D01*
X127279400Y-108897790D01*
X127279400Y-108780210D01*
X127256461Y-108664891D01*
X127211466Y-108556262D01*
X127146142Y-108458499D01*
X127063001Y-108375358D01*
X126965238Y-108310034D01*
X126856609Y-108265039D01*
X126741290Y-108242100D01*
X126623710Y-108242100D01*
X126508391Y-108265039D01*
X126399762Y-108310034D01*
X126301999Y-108375358D01*
X126218858Y-108458499D01*
X126153534Y-108556262D01*
X126108539Y-108664891D01*
X126085600Y-108780210D01*
X116200047Y-108780210D01*
X116157142Y-108715999D01*
X116074001Y-108632858D01*
X115976238Y-108567534D01*
X115867609Y-108522539D01*
X115752290Y-108499600D01*
X115634710Y-108499600D01*
X115519391Y-108522539D01*
X115410762Y-108567534D01*
X115312999Y-108632858D01*
X115229858Y-108715999D01*
X115164534Y-108813762D01*
X115119539Y-108922391D01*
X115096600Y-109037710D01*
X102171500Y-109037710D01*
X102171500Y-105295011D01*
X143612500Y-105295011D01*
X143612500Y-105524989D01*
X143657366Y-105750547D01*
X143745375Y-105963019D01*
X143873144Y-106154238D01*
X144035762Y-106316856D01*
X144226981Y-106444625D01*
X144439453Y-106532634D01*
X144665011Y-106577500D01*
X144894989Y-106577500D01*
X145120547Y-106532634D01*
X145333019Y-106444625D01*
X145524238Y-106316856D01*
X145686856Y-106154238D01*
X145814625Y-105963019D01*
X145902634Y-105750547D01*
X145905335Y-105736964D01*
X146067473Y-105736964D01*
X146096905Y-105834008D01*
X146203126Y-106064475D01*
X146352268Y-106269791D01*
X146538600Y-106442065D01*
X146754960Y-106574678D01*
X146993035Y-106662533D01*
X147193000Y-106587136D01*
X147193000Y-105537000D01*
X147447000Y-105537000D01*
X147447000Y-106587136D01*
X147646965Y-106662533D01*
X147885040Y-106574678D01*
X148101400Y-106442065D01*
X148287732Y-106269791D01*
X148436874Y-106064475D01*
X148543095Y-105834008D01*
X148572527Y-105736964D01*
X148496540Y-105537000D01*
X147447000Y-105537000D01*
X147193000Y-105537000D01*
X146143460Y-105537000D01*
X146067473Y-105736964D01*
X145905335Y-105736964D01*
X145947500Y-105524989D01*
X145947500Y-105295011D01*
X145905336Y-105083036D01*
X146067473Y-105083036D01*
X146143460Y-105283000D01*
X147193000Y-105283000D01*
X147193000Y-104232864D01*
X147447000Y-104232864D01*
X147447000Y-105283000D01*
X148496540Y-105283000D01*
X148572527Y-105083036D01*
X148543095Y-104985992D01*
X148436874Y-104755525D01*
X148287732Y-104550209D01*
X148101400Y-104377935D01*
X147885040Y-104245322D01*
X147646965Y-104157467D01*
X147447000Y-104232864D01*
X147193000Y-104232864D01*
X146993035Y-104157467D01*
X146754960Y-104245322D01*
X146538600Y-104377935D01*
X146352268Y-104550209D01*
X146203126Y-104755525D01*
X146096905Y-104985992D01*
X146067473Y-105083036D01*
X145905336Y-105083036D01*
X145902634Y-105069453D01*
X145814625Y-104856981D01*
X145686856Y-104665762D01*
X145524238Y-104503144D01*
X145333019Y-104375375D01*
X145120547Y-104287366D01*
X144894989Y-104242500D01*
X144665011Y-104242500D01*
X144439453Y-104287366D01*
X144226981Y-104375375D01*
X144035762Y-104503144D01*
X143873144Y-104665762D01*
X143745375Y-104856981D01*
X143657366Y-105069453D01*
X143612500Y-105295011D01*
X102171500Y-105295011D01*
X102171500Y-102020000D01*
X143610964Y-102020000D01*
X143610964Y-103720000D01*
X143617094Y-103782241D01*
X143635249Y-103842090D01*
X143664731Y-103897247D01*
X143704407Y-103945593D01*
X143752753Y-103985269D01*
X143807910Y-104014751D01*
X143867759Y-104032906D01*
X143930000Y-104039036D01*
X145630000Y-104039036D01*
X145692241Y-104032906D01*
X145752090Y-104014751D01*
X145807247Y-103985269D01*
X145855593Y-103945593D01*
X145895269Y-103897247D01*
X145924751Y-103842090D01*
X145942906Y-103782241D01*
X145949036Y-103720000D01*
X145949036Y-103196964D01*
X146067473Y-103196964D01*
X146096905Y-103294008D01*
X146203126Y-103524475D01*
X146352268Y-103729791D01*
X146538600Y-103902065D01*
X146754960Y-104034678D01*
X146993035Y-104122533D01*
X147193000Y-104047136D01*
X147193000Y-102997000D01*
X147447000Y-102997000D01*
X147447000Y-104047136D01*
X147646965Y-104122533D01*
X147885040Y-104034678D01*
X148101400Y-103902065D01*
X148287732Y-103729791D01*
X148436874Y-103524475D01*
X148543095Y-103294008D01*
X148572527Y-103196964D01*
X148496540Y-102997000D01*
X147447000Y-102997000D01*
X147193000Y-102997000D01*
X146143460Y-102997000D01*
X146067473Y-103196964D01*
X145949036Y-103196964D01*
X145949036Y-102543036D01*
X146067473Y-102543036D01*
X146143460Y-102743000D01*
X147193000Y-102743000D01*
X147193000Y-101692864D01*
X147447000Y-101692864D01*
X147447000Y-102743000D01*
X148496540Y-102743000D01*
X148572527Y-102543036D01*
X148543095Y-102445992D01*
X148436874Y-102215525D01*
X148287732Y-102010209D01*
X148101400Y-101837935D01*
X147885040Y-101705322D01*
X147646965Y-101617467D01*
X147447000Y-101692864D01*
X147193000Y-101692864D01*
X146993035Y-101617467D01*
X146754960Y-101705322D01*
X146538600Y-101837935D01*
X146352268Y-102010209D01*
X146203126Y-102215525D01*
X146096905Y-102445992D01*
X146067473Y-102543036D01*
X145949036Y-102543036D01*
X145949036Y-102020000D01*
X145942906Y-101957759D01*
X145924751Y-101897910D01*
X145895269Y-101842753D01*
X145855593Y-101794407D01*
X145807247Y-101754731D01*
X145752090Y-101725249D01*
X145692241Y-101707094D01*
X145630000Y-101700964D01*
X143930000Y-101700964D01*
X143867759Y-101707094D01*
X143807910Y-101725249D01*
X143752753Y-101754731D01*
X143704407Y-101794407D01*
X143664731Y-101842753D01*
X143635249Y-101897910D01*
X143617094Y-101957759D01*
X143610964Y-102020000D01*
X102171500Y-102020000D01*
X102171500Y-97190000D01*
X146025964Y-97190000D01*
X146025964Y-98390000D01*
X146036898Y-98501013D01*
X146069279Y-98607761D01*
X146121864Y-98706139D01*
X146192631Y-98792369D01*
X146278861Y-98863136D01*
X146377239Y-98915721D01*
X146483987Y-98948102D01*
X146595000Y-98959036D01*
X148045000Y-98959036D01*
X148156013Y-98948102D01*
X148262761Y-98915721D01*
X148361139Y-98863136D01*
X148447369Y-98792369D01*
X148518136Y-98706139D01*
X148570721Y-98607761D01*
X148603102Y-98501013D01*
X148614036Y-98390000D01*
X148614036Y-97190000D01*
X148603102Y-97078987D01*
X148570721Y-96972239D01*
X148518136Y-96873861D01*
X148447369Y-96787631D01*
X148361139Y-96716864D01*
X148262761Y-96664279D01*
X148156013Y-96631898D01*
X148045000Y-96620964D01*
X146595000Y-96620964D01*
X146483987Y-96631898D01*
X146377239Y-96664279D01*
X146278861Y-96716864D01*
X146192631Y-96787631D01*
X146121864Y-96873861D01*
X146069279Y-96972239D01*
X146036898Y-97078987D01*
X146025964Y-97190000D01*
X102171500Y-97190000D01*
X102171500Y-95290000D01*
X146021851Y-95290000D01*
X146044393Y-95518870D01*
X146111152Y-95738945D01*
X146219562Y-95941767D01*
X146365458Y-96119542D01*
X146543233Y-96265438D01*
X146746055Y-96373848D01*
X146966130Y-96440607D01*
X147137645Y-96457500D01*
X147502355Y-96457500D01*
X147673870Y-96440607D01*
X147893945Y-96373848D01*
X148096767Y-96265438D01*
X148274542Y-96119542D01*
X148420438Y-95941767D01*
X148528848Y-95738945D01*
X148595607Y-95518870D01*
X148618149Y-95290000D01*
X148595607Y-95061130D01*
X148528848Y-94841055D01*
X148420438Y-94638233D01*
X148274542Y-94460458D01*
X148096767Y-94314562D01*
X147893945Y-94206152D01*
X147673870Y-94139393D01*
X147502355Y-94122500D01*
X147137645Y-94122500D01*
X146966130Y-94139393D01*
X146746055Y-94206152D01*
X146543233Y-94314562D01*
X146365458Y-94460458D01*
X146219562Y-94638233D01*
X146111152Y-94841055D01*
X146044393Y-95061130D01*
X146021851Y-95290000D01*
X102171500Y-95290000D01*
X102171500Y-91059000D01*
X112193500Y-91059000D01*
X112193500Y-91959000D01*
X112244111Y-92218859D01*
X112344445Y-92463851D01*
X112490647Y-92684561D01*
X112677098Y-92872508D01*
X112896633Y-93020469D01*
X113140815Y-93122757D01*
X113203178Y-93134142D01*
X113411000Y-93058819D01*
X113411000Y-91059000D01*
X113665000Y-91059000D01*
X113665000Y-93058819D01*
X113872822Y-93134142D01*
X113935185Y-93122757D01*
X114179367Y-93020469D01*
X114398902Y-92872508D01*
X114585353Y-92684561D01*
X114731555Y-92463851D01*
X114831889Y-92218859D01*
X114882500Y-91959000D01*
X114882500Y-91059000D01*
X113665000Y-91059000D01*
X113411000Y-91059000D01*
X112193500Y-91059000D01*
X102171500Y-91059000D01*
X102171500Y-89905000D01*
X112193500Y-89905000D01*
X112193500Y-90805000D01*
X113411000Y-90805000D01*
X113411000Y-88805181D01*
X113665000Y-88805181D01*
X113665000Y-90805000D01*
X114882500Y-90805000D01*
X114882500Y-89972197D01*
X116130500Y-89972197D01*
X116130500Y-91891802D01*
X116148117Y-92070671D01*
X116217735Y-92300170D01*
X116330788Y-92511678D01*
X116482933Y-92697067D01*
X116668321Y-92849212D01*
X116879829Y-92962265D01*
X117109328Y-93031883D01*
X117348000Y-93055390D01*
X117586671Y-93031883D01*
X117816170Y-92962265D01*
X118027678Y-92849212D01*
X118213067Y-92697067D01*
X118365212Y-92511679D01*
X118478265Y-92300171D01*
X118547883Y-92070672D01*
X118565500Y-91891803D01*
X118565500Y-89972197D01*
X119940500Y-89972197D01*
X119940500Y-91891802D01*
X119958117Y-92070671D01*
X120027735Y-92300170D01*
X120140788Y-92511678D01*
X120292933Y-92697067D01*
X120478321Y-92849212D01*
X120689829Y-92962265D01*
X120919328Y-93031883D01*
X121158000Y-93055390D01*
X121396671Y-93031883D01*
X121626170Y-92962265D01*
X121837678Y-92849212D01*
X122023067Y-92697067D01*
X122175212Y-92511679D01*
X122288265Y-92300171D01*
X122357883Y-92070672D01*
X122375500Y-91891803D01*
X122375500Y-89972197D01*
X123750500Y-89972197D01*
X123750500Y-91891802D01*
X123768117Y-92070671D01*
X123837735Y-92300170D01*
X123950788Y-92511678D01*
X124102933Y-92697067D01*
X124288321Y-92849212D01*
X124499829Y-92962265D01*
X124729328Y-93031883D01*
X124968000Y-93055390D01*
X125206671Y-93031883D01*
X125436170Y-92962265D01*
X125647678Y-92849212D01*
X125833067Y-92697067D01*
X125985212Y-92511679D01*
X126098265Y-92300171D01*
X126167883Y-92070672D01*
X126185500Y-91891803D01*
X126185500Y-89972197D01*
X127560500Y-89972197D01*
X127560500Y-91891802D01*
X127578117Y-92070671D01*
X127647735Y-92300170D01*
X127760788Y-92511678D01*
X127912933Y-92697067D01*
X128098321Y-92849212D01*
X128309829Y-92962265D01*
X128539328Y-93031883D01*
X128778000Y-93055390D01*
X129016671Y-93031883D01*
X129246170Y-92962265D01*
X129457678Y-92849212D01*
X129643067Y-92697067D01*
X129795212Y-92511679D01*
X129908265Y-92300171D01*
X129977883Y-92070672D01*
X129995500Y-91891803D01*
X129995500Y-89972197D01*
X131370500Y-89972197D01*
X131370500Y-91891802D01*
X131388117Y-92070671D01*
X131457735Y-92300170D01*
X131570788Y-92511678D01*
X131722933Y-92697067D01*
X131908321Y-92849212D01*
X132119829Y-92962265D01*
X132349328Y-93031883D01*
X132588000Y-93055390D01*
X132826671Y-93031883D01*
X133056170Y-92962265D01*
X133267678Y-92849212D01*
X133453067Y-92697067D01*
X133605212Y-92511679D01*
X133718265Y-92300171D01*
X133787883Y-92070672D01*
X133805500Y-91891803D01*
X133805500Y-91059000D01*
X135053500Y-91059000D01*
X135053500Y-91959000D01*
X135104111Y-92218859D01*
X135204445Y-92463851D01*
X135350647Y-92684561D01*
X135537098Y-92872508D01*
X135756633Y-93020469D01*
X136000815Y-93122757D01*
X136063178Y-93134142D01*
X136271000Y-93058819D01*
X136271000Y-91059000D01*
X136525000Y-91059000D01*
X136525000Y-93058819D01*
X136732822Y-93134142D01*
X136795185Y-93122757D01*
X136809014Y-93116964D01*
X145942473Y-93116964D01*
X146018660Y-93330098D01*
X146146631Y-93549213D01*
X146314890Y-93739152D01*
X146516971Y-93892615D01*
X146745109Y-94003705D01*
X146990536Y-94068153D01*
X147193000Y-93973277D01*
X147193000Y-92917000D01*
X147447000Y-92917000D01*
X147447000Y-93973277D01*
X147649464Y-94068153D01*
X147894891Y-94003705D01*
X148123029Y-93892615D01*
X148325110Y-93739152D01*
X148493369Y-93549213D01*
X148621340Y-93330098D01*
X148697527Y-93116964D01*
X148621540Y-92917000D01*
X147447000Y-92917000D01*
X147193000Y-92917000D01*
X146018460Y-92917000D01*
X145942473Y-93116964D01*
X136809014Y-93116964D01*
X137039367Y-93020469D01*
X137258902Y-92872508D01*
X137445353Y-92684561D01*
X137591555Y-92463851D01*
X137691889Y-92218859D01*
X137742500Y-91959000D01*
X137742500Y-91059000D01*
X136525000Y-91059000D01*
X136271000Y-91059000D01*
X135053500Y-91059000D01*
X133805500Y-91059000D01*
X133805500Y-89972197D01*
X133798882Y-89905000D01*
X135053500Y-89905000D01*
X135053500Y-90805000D01*
X136271000Y-90805000D01*
X136271000Y-88805181D01*
X136525000Y-88805181D01*
X136525000Y-90805000D01*
X137742500Y-90805000D01*
X137742500Y-89905000D01*
X137691889Y-89645141D01*
X137591555Y-89400149D01*
X137579533Y-89382000D01*
X138988964Y-89382000D01*
X138988964Y-92482000D01*
X138999898Y-92593013D01*
X139032279Y-92699761D01*
X139084864Y-92798139D01*
X139155631Y-92884369D01*
X139241861Y-92955136D01*
X139340239Y-93007721D01*
X139446987Y-93040102D01*
X139558000Y-93051036D01*
X140858000Y-93051036D01*
X140969013Y-93040102D01*
X141075761Y-93007721D01*
X141174139Y-92955136D01*
X141260369Y-92884369D01*
X141331136Y-92798139D01*
X141383721Y-92699761D01*
X141416102Y-92593013D01*
X141427036Y-92482000D01*
X141427036Y-92463036D01*
X145942473Y-92463036D01*
X146018460Y-92663000D01*
X147193000Y-92663000D01*
X147193000Y-91606723D01*
X147447000Y-91606723D01*
X147447000Y-92663000D01*
X148621540Y-92663000D01*
X148697527Y-92463036D01*
X148621340Y-92249902D01*
X148493369Y-92030787D01*
X148325110Y-91840848D01*
X148123029Y-91687385D01*
X147894891Y-91576295D01*
X147649464Y-91511847D01*
X147447000Y-91606723D01*
X147193000Y-91606723D01*
X146990536Y-91511847D01*
X146745109Y-91576295D01*
X146516971Y-91687385D01*
X146314890Y-91840848D01*
X146146631Y-92030787D01*
X146018660Y-92249902D01*
X145942473Y-92463036D01*
X141427036Y-92463036D01*
X141427036Y-89382000D01*
X141416102Y-89270987D01*
X141383721Y-89164239D01*
X141331136Y-89065861D01*
X141260369Y-88979631D01*
X141174139Y-88908864D01*
X141075761Y-88856279D01*
X140969013Y-88823898D01*
X140858000Y-88812964D01*
X139558000Y-88812964D01*
X139446987Y-88823898D01*
X139340239Y-88856279D01*
X139241861Y-88908864D01*
X139155631Y-88979631D01*
X139084864Y-89065861D01*
X139032279Y-89164239D01*
X138999898Y-89270987D01*
X138988964Y-89382000D01*
X137579533Y-89382000D01*
X137445353Y-89179439D01*
X137258902Y-88991492D01*
X137039367Y-88843531D01*
X136795185Y-88741243D01*
X136732822Y-88729858D01*
X136525000Y-88805181D01*
X136271000Y-88805181D01*
X136063178Y-88729858D01*
X136000815Y-88741243D01*
X135756633Y-88843531D01*
X135537098Y-88991492D01*
X135350647Y-89179439D01*
X135204445Y-89400149D01*
X135104111Y-89645141D01*
X135053500Y-89905000D01*
X133798882Y-89905000D01*
X133787883Y-89793328D01*
X133718265Y-89563829D01*
X133605212Y-89352321D01*
X133453067Y-89166933D01*
X133267679Y-89014788D01*
X133056171Y-88901735D01*
X132826672Y-88832117D01*
X132588000Y-88808610D01*
X132349329Y-88832117D01*
X132119830Y-88901735D01*
X131908322Y-89014788D01*
X131722934Y-89166933D01*
X131570789Y-89352321D01*
X131457736Y-89563829D01*
X131388118Y-89793328D01*
X131370500Y-89972197D01*
X129995500Y-89972197D01*
X129977883Y-89793328D01*
X129908265Y-89563829D01*
X129795212Y-89352321D01*
X129643067Y-89166933D01*
X129457679Y-89014788D01*
X129246171Y-88901735D01*
X129016672Y-88832117D01*
X128778000Y-88808610D01*
X128539329Y-88832117D01*
X128309830Y-88901735D01*
X128098322Y-89014788D01*
X127912934Y-89166933D01*
X127760789Y-89352321D01*
X127647736Y-89563829D01*
X127578118Y-89793328D01*
X127560500Y-89972197D01*
X126185500Y-89972197D01*
X126167883Y-89793328D01*
X126098265Y-89563829D01*
X125985212Y-89352321D01*
X125833067Y-89166933D01*
X125647679Y-89014788D01*
X125436171Y-88901735D01*
X125206672Y-88832117D01*
X124968000Y-88808610D01*
X124729329Y-88832117D01*
X124499830Y-88901735D01*
X124288322Y-89014788D01*
X124102934Y-89166933D01*
X123950789Y-89352321D01*
X123837736Y-89563829D01*
X123768118Y-89793328D01*
X123750500Y-89972197D01*
X122375500Y-89972197D01*
X122357883Y-89793328D01*
X122288265Y-89563829D01*
X122175212Y-89352321D01*
X122023067Y-89166933D01*
X121837679Y-89014788D01*
X121626171Y-88901735D01*
X121396672Y-88832117D01*
X121158000Y-88808610D01*
X120919329Y-88832117D01*
X120689830Y-88901735D01*
X120478322Y-89014788D01*
X120292934Y-89166933D01*
X120140789Y-89352321D01*
X120027736Y-89563829D01*
X119958118Y-89793328D01*
X119940500Y-89972197D01*
X118565500Y-89972197D01*
X118547883Y-89793328D01*
X118478265Y-89563829D01*
X118365212Y-89352321D01*
X118213067Y-89166933D01*
X118027679Y-89014788D01*
X117816171Y-88901735D01*
X117586672Y-88832117D01*
X117348000Y-88808610D01*
X117109329Y-88832117D01*
X116879830Y-88901735D01*
X116668322Y-89014788D01*
X116482934Y-89166933D01*
X116330789Y-89352321D01*
X116217736Y-89563829D01*
X116148118Y-89793328D01*
X116130500Y-89972197D01*
X114882500Y-89972197D01*
X114882500Y-89905000D01*
X114831889Y-89645141D01*
X114731555Y-89400149D01*
X114585353Y-89179439D01*
X114398902Y-88991492D01*
X114179367Y-88843531D01*
X113935185Y-88741243D01*
X113872822Y-88729858D01*
X113665000Y-88805181D01*
X113411000Y-88805181D01*
X113203178Y-88729858D01*
X113140815Y-88741243D01*
X112896633Y-88843531D01*
X112677098Y-88991492D01*
X112490647Y-89179439D01*
X112344445Y-89400149D01*
X112244111Y-89645141D01*
X112193500Y-89905000D01*
X102171500Y-89905000D01*
X102171500Y-87507996D01*
X102187791Y-87405134D01*
X102232779Y-87316842D01*
X102302842Y-87246779D01*
X102391134Y-87201791D01*
X102493996Y-87185500D01*
X105791000Y-87185500D01*
X105800933Y-87184718D01*
X105918668Y-87166071D01*
X105930713Y-87162928D01*
X105937564Y-87159932D01*
X106043775Y-87105814D01*
X106054259Y-87099102D01*
X106059847Y-87094136D01*
X106144136Y-87009847D01*
X106152033Y-87000225D01*
X106155814Y-86993775D01*
X106209932Y-86887564D01*
X106214469Y-86875972D01*
X106216071Y-86868668D01*
X106234718Y-86750933D01*
X106235500Y-86741000D01*
X106235500Y-83189996D01*
X106251791Y-83087134D01*
X106296779Y-82998842D01*
X106366842Y-82928779D01*
X106455134Y-82883791D01*
X106557996Y-82867500D01*
X146172004Y-82867500D01*
X146274866Y-82883791D01*
G37*
X146274866Y-82883791D02*
X146363158Y-82928779D01*
X146433221Y-82998842D01*
X146478209Y-83087134D01*
X146494500Y-83189996D01*
X146494500Y-86741000D01*
X146495282Y-86750933D01*
X146513929Y-86868668D01*
X146517072Y-86880713D01*
X146520068Y-86887564D01*
X146574186Y-86993775D01*
X146580898Y-87004259D01*
X146585864Y-87009847D01*
X146670153Y-87094136D01*
X146679775Y-87102033D01*
X146686225Y-87105814D01*
X146792436Y-87159932D01*
X146804028Y-87164469D01*
X146811332Y-87166071D01*
X146929067Y-87184718D01*
X146939000Y-87185500D01*
X150490004Y-87185500D01*
X150592866Y-87201791D01*
X150681158Y-87246779D01*
X150751221Y-87316842D01*
X150796209Y-87405134D01*
X150812500Y-87507996D01*
X150812500Y-110358004D01*
X150796209Y-110460866D01*
X150751221Y-110549158D01*
X150681158Y-110619221D01*
X150592866Y-110664209D01*
X150490004Y-110680500D01*
X147484070Y-110680500D01*
X147356789Y-110655182D01*
X147248886Y-110583084D01*
X143158493Y-106492691D01*
X143148871Y-106484794D01*
X143025266Y-106402204D01*
X143014287Y-106396336D01*
X143002375Y-106392722D01*
X142856573Y-106363720D01*
X142844185Y-106362500D01*
X135763000Y-106362500D01*
X135753067Y-106363282D01*
X135635332Y-106381929D01*
X135623287Y-106385072D01*
X135616436Y-106388068D01*
X135510225Y-106442186D01*
X135499741Y-106448898D01*
X135494153Y-106453864D01*
X135409864Y-106538153D01*
X135401967Y-106547775D01*
X135398186Y-106554225D01*
X135344068Y-106660436D01*
X135339531Y-106672028D01*
X135337929Y-106679332D01*
X135319282Y-106797067D01*
X135318500Y-106807000D01*
X135318500Y-117985262D01*
X135283738Y-117962034D01*
X135175109Y-117917039D01*
X135059790Y-117894100D01*
X134942210Y-117894100D01*
X134826891Y-117917039D01*
X134718262Y-117962034D01*
X134620499Y-118027358D01*
X134537358Y-118110499D01*
X134530393Y-118120922D01*
X134513966Y-118081262D01*
X134448642Y-117983499D01*
X134365501Y-117900358D01*
X134267738Y-117835034D01*
X134159109Y-117790039D01*
X134043790Y-117767100D01*
X133926210Y-117767100D01*
X133810891Y-117790039D01*
X133702262Y-117835034D01*
X133604499Y-117900358D01*
X133521358Y-117983499D01*
X133456034Y-118081262D01*
X133411039Y-118189891D01*
X133388100Y-118305210D01*
X133388100Y-118422790D01*
X133411039Y-118538109D01*
X133456034Y-118646738D01*
X133521358Y-118744501D01*
X133604499Y-118827642D01*
X133702262Y-118892966D01*
X133810891Y-118937961D01*
X133926210Y-118960900D01*
X134043790Y-118960900D01*
X134159109Y-118937961D01*
X134267738Y-118892966D01*
X134365501Y-118827642D01*
X134448642Y-118744501D01*
X134455607Y-118734078D01*
X134472034Y-118773738D01*
X134537358Y-118871501D01*
X134620499Y-118954642D01*
X134718262Y-119019966D01*
X134826891Y-119064961D01*
X134942210Y-119087900D01*
X135059790Y-119087900D01*
X135175109Y-119064961D01*
X135283738Y-119019966D01*
X135318500Y-118996738D01*
X135318500Y-122550004D01*
X135302209Y-122652866D01*
X135257221Y-122741158D01*
X135187158Y-122811221D01*
X135098866Y-122856209D01*
X134996004Y-122872500D01*
X128427815Y-122872500D01*
X128415427Y-122873720D01*
X128269625Y-122902722D01*
X128257713Y-122906336D01*
X128246734Y-122912204D01*
X128123129Y-122994794D01*
X128113507Y-123002691D01*
X125542691Y-125573507D01*
X125534794Y-125583129D01*
X125452204Y-125706734D01*
X125446336Y-125717713D01*
X125442722Y-125729625D01*
X125413720Y-125875427D01*
X125412500Y-125887815D01*
X125412500Y-131186004D01*
X125396209Y-131288866D01*
X125351221Y-131377158D01*
X125281158Y-131447221D01*
X125192866Y-131492209D01*
X125090004Y-131508500D01*
X113161996Y-131508500D01*
X113059134Y-131492209D01*
X112970842Y-131447221D01*
X112900779Y-131377158D01*
X112855791Y-131288866D01*
X112839500Y-131186004D01*
X112839500Y-130624210D01*
X113703100Y-130624210D01*
X113703100Y-130741790D01*
X113726039Y-130857109D01*
X113771034Y-130965738D01*
X113836358Y-131063501D01*
X113919499Y-131146642D01*
X114017262Y-131211966D01*
X114125891Y-131256961D01*
X114241210Y-131279900D01*
X114358790Y-131279900D01*
X114474109Y-131256961D01*
X114582738Y-131211966D01*
X114680501Y-131146642D01*
X114763642Y-131063501D01*
X114828966Y-130965738D01*
X114873961Y-130857109D01*
X114896900Y-130741790D01*
X114896900Y-130624210D01*
X114973100Y-130624210D01*
X114973100Y-130741790D01*
X114996039Y-130857109D01*
X115041034Y-130965738D01*
X115106358Y-131063501D01*
X115189499Y-131146642D01*
X115287262Y-131211966D01*
X115395891Y-131256961D01*
X115511210Y-131279900D01*
X115628790Y-131279900D01*
X115744109Y-131256961D01*
X115852738Y-131211966D01*
X115950501Y-131146642D01*
X116033642Y-131063501D01*
X116098966Y-130965738D01*
X116143961Y-130857109D01*
X116166900Y-130741790D01*
X116166900Y-130624210D01*
X117005100Y-130624210D01*
X117005100Y-130741790D01*
X117028039Y-130857109D01*
X117073034Y-130965738D01*
X117138358Y-131063501D01*
X117221499Y-131146642D01*
X117319262Y-131211966D01*
X117427891Y-131256961D01*
X117543210Y-131279900D01*
X117660790Y-131279900D01*
X117776109Y-131256961D01*
X117884738Y-131211966D01*
X117982501Y-131146642D01*
X118065642Y-131063501D01*
X118130966Y-130965738D01*
X118175961Y-130857109D01*
X118198900Y-130741790D01*
X118198900Y-130624210D01*
X118275100Y-130624210D01*
X118275100Y-130741790D01*
X118298039Y-130857109D01*
X118343034Y-130965738D01*
X118408358Y-131063501D01*
X118491499Y-131146642D01*
X118589262Y-131211966D01*
X118697891Y-131256961D01*
X118813210Y-131279900D01*
X118930790Y-131279900D01*
X119046109Y-131256961D01*
X119154738Y-131211966D01*
X119252501Y-131146642D01*
X119335642Y-131063501D01*
X119400966Y-130965738D01*
X119445961Y-130857109D01*
X119468900Y-130741790D01*
X119468900Y-130624210D01*
X119445961Y-130508891D01*
X119400966Y-130400262D01*
X119335642Y-130302499D01*
X119252501Y-130219358D01*
X119154738Y-130154034D01*
X119046109Y-130109039D01*
X118930790Y-130086100D01*
X118813210Y-130086100D01*
X118697891Y-130109039D01*
X118589262Y-130154034D01*
X118491499Y-130219358D01*
X118408358Y-130302499D01*
X118343034Y-130400262D01*
X118298039Y-130508891D01*
X118275100Y-130624210D01*
X118198900Y-130624210D01*
X118175961Y-130508891D01*
X118130966Y-130400262D01*
X118065642Y-130302499D01*
X117982501Y-130219358D01*
X117884738Y-130154034D01*
X117776109Y-130109039D01*
X117660790Y-130086100D01*
X117543210Y-130086100D01*
X117427891Y-130109039D01*
X117319262Y-130154034D01*
X117221499Y-130219358D01*
X117138358Y-130302499D01*
X117073034Y-130400262D01*
X117028039Y-130508891D01*
X117005100Y-130624210D01*
X116166900Y-130624210D01*
X116143961Y-130508891D01*
X116098966Y-130400262D01*
X116033642Y-130302499D01*
X115950501Y-130219358D01*
X115852738Y-130154034D01*
X115744109Y-130109039D01*
X115628790Y-130086100D01*
X115511210Y-130086100D01*
X115395891Y-130109039D01*
X115287262Y-130154034D01*
X115189499Y-130219358D01*
X115106358Y-130302499D01*
X115041034Y-130400262D01*
X114996039Y-130508891D01*
X114973100Y-130624210D01*
X114896900Y-130624210D01*
X114873961Y-130508891D01*
X114828966Y-130400262D01*
X114763642Y-130302499D01*
X114680501Y-130219358D01*
X114582738Y-130154034D01*
X114474109Y-130109039D01*
X114358790Y-130086100D01*
X114241210Y-130086100D01*
X114125891Y-130109039D01*
X114017262Y-130154034D01*
X113919499Y-130219358D01*
X113836358Y-130302499D01*
X113771034Y-130400262D01*
X113726039Y-130508891D01*
X113703100Y-130624210D01*
X112839500Y-130624210D01*
X112839500Y-129413000D01*
X112838718Y-129403067D01*
X112830980Y-129354210D01*
X113703100Y-129354210D01*
X113703100Y-129471790D01*
X113726039Y-129587109D01*
X113771034Y-129695738D01*
X113836358Y-129793501D01*
X113919499Y-129876642D01*
X114017262Y-129941966D01*
X114125891Y-129986961D01*
X114241210Y-130009900D01*
X114358790Y-130009900D01*
X114474109Y-129986961D01*
X114582738Y-129941966D01*
X114680501Y-129876642D01*
X114763642Y-129793501D01*
X114828966Y-129695738D01*
X114873961Y-129587109D01*
X114896900Y-129471790D01*
X114896900Y-129354210D01*
X114973100Y-129354210D01*
X114973100Y-129471790D01*
X114996039Y-129587109D01*
X115041034Y-129695738D01*
X115106358Y-129793501D01*
X115189499Y-129876642D01*
X115287262Y-129941966D01*
X115395891Y-129986961D01*
X115511210Y-130009900D01*
X115628790Y-130009900D01*
X115744109Y-129986961D01*
X115852738Y-129941966D01*
X115950501Y-129876642D01*
X116033642Y-129793501D01*
X116098966Y-129695738D01*
X116143961Y-129587109D01*
X116166900Y-129471790D01*
X116166900Y-129354210D01*
X117005100Y-129354210D01*
X117005100Y-129471790D01*
X117028039Y-129587109D01*
X117073034Y-129695738D01*
X117138358Y-129793501D01*
X117221499Y-129876642D01*
X117319262Y-129941966D01*
X117427891Y-129986961D01*
X117543210Y-130009900D01*
X117660790Y-130009900D01*
X117776109Y-129986961D01*
X117884738Y-129941966D01*
X117982501Y-129876642D01*
X118065642Y-129793501D01*
X118130966Y-129695738D01*
X118175961Y-129587109D01*
X118198900Y-129471790D01*
X118198900Y-129354210D01*
X118275100Y-129354210D01*
X118275100Y-129471790D01*
X118298039Y-129587109D01*
X118343034Y-129695738D01*
X118408358Y-129793501D01*
X118491499Y-129876642D01*
X118589262Y-129941966D01*
X118697891Y-129986961D01*
X118813210Y-130009900D01*
X118930790Y-130009900D01*
X119046109Y-129986961D01*
X119154738Y-129941966D01*
X119252501Y-129876642D01*
X119335642Y-129793501D01*
X119400966Y-129695738D01*
X119445961Y-129587109D01*
X119468900Y-129471790D01*
X119468900Y-129354210D01*
X119445961Y-129238891D01*
X119400966Y-129130262D01*
X119335642Y-129032499D01*
X119252501Y-128949358D01*
X119154738Y-128884034D01*
X119046109Y-128839039D01*
X118930790Y-128816100D01*
X118813210Y-128816100D01*
X118697891Y-128839039D01*
X118589262Y-128884034D01*
X118491499Y-128949358D01*
X118408358Y-129032499D01*
X118343034Y-129130262D01*
X118298039Y-129238891D01*
X118275100Y-129354210D01*
X118198900Y-129354210D01*
X118175961Y-129238891D01*
X118130966Y-129130262D01*
X118065642Y-129032499D01*
X117982501Y-128949358D01*
X117884738Y-128884034D01*
X117776109Y-128839039D01*
X117660790Y-128816100D01*
X117543210Y-128816100D01*
X117427891Y-128839039D01*
X117319262Y-128884034D01*
X117221499Y-128949358D01*
X117138358Y-129032499D01*
X117073034Y-129130262D01*
X117028039Y-129238891D01*
X117005100Y-129354210D01*
X116166900Y-129354210D01*
X116143961Y-129238891D01*
X116098966Y-129130262D01*
X116033642Y-129032499D01*
X115950501Y-128949358D01*
X115852738Y-128884034D01*
X115744109Y-128839039D01*
X115628790Y-128816100D01*
X115511210Y-128816100D01*
X115395891Y-128839039D01*
X115287262Y-128884034D01*
X115189499Y-128949358D01*
X115106358Y-129032499D01*
X115041034Y-129130262D01*
X114996039Y-129238891D01*
X114973100Y-129354210D01*
X114896900Y-129354210D01*
X114873961Y-129238891D01*
X114828966Y-129130262D01*
X114763642Y-129032499D01*
X114680501Y-128949358D01*
X114582738Y-128884034D01*
X114474109Y-128839039D01*
X114358790Y-128816100D01*
X114241210Y-128816100D01*
X114125891Y-128839039D01*
X114017262Y-128884034D01*
X113919499Y-128949358D01*
X113836358Y-129032499D01*
X113771034Y-129130262D01*
X113726039Y-129238891D01*
X113703100Y-129354210D01*
X112830980Y-129354210D01*
X112820071Y-129285332D01*
X112816928Y-129273287D01*
X112813932Y-129266436D01*
X112759814Y-129160225D01*
X112753102Y-129149741D01*
X112748136Y-129144153D01*
X112663847Y-129059864D01*
X112654225Y-129051967D01*
X112647775Y-129048186D01*
X112541564Y-128994068D01*
X112529972Y-128989531D01*
X112522668Y-128987929D01*
X112404933Y-128969282D01*
X112395000Y-128968500D01*
X106557996Y-128968500D01*
X106455134Y-128952209D01*
X106366842Y-128907221D01*
X106296779Y-128837158D01*
X106251791Y-128748866D01*
X106235500Y-128646004D01*
X106235500Y-127889000D01*
X106234718Y-127879067D01*
X106216071Y-127761332D01*
X106212928Y-127749287D01*
X106209932Y-127742436D01*
X106155814Y-127636225D01*
X106149102Y-127625741D01*
X106144136Y-127620153D01*
X106059847Y-127535864D01*
X106050225Y-127527967D01*
X106043775Y-127524186D01*
X105937564Y-127470068D01*
X105925972Y-127465531D01*
X105918668Y-127463929D01*
X105800933Y-127445282D01*
X105791000Y-127444500D01*
X102493996Y-127444500D01*
X102391134Y-127428209D01*
X102302842Y-127383221D01*
X102232779Y-127313158D01*
X102187791Y-127224866D01*
X102171500Y-127122004D01*
X102171500Y-123190000D01*
X107858610Y-123190000D01*
X107882117Y-123428672D01*
X107951735Y-123658171D01*
X108064788Y-123869679D01*
X108216933Y-124055067D01*
X108402321Y-124207212D01*
X108613829Y-124320265D01*
X108843328Y-124389883D01*
X109022197Y-124407500D01*
X110941803Y-124407500D01*
X111120672Y-124389883D01*
X111350171Y-124320265D01*
X111561679Y-124207212D01*
X111747067Y-124055067D01*
X111899212Y-123869679D01*
X112012265Y-123658171D01*
X112081883Y-123428672D01*
X112105390Y-123190000D01*
X112081883Y-122951328D01*
X112012265Y-122721829D01*
X111899212Y-122510321D01*
X111747067Y-122324933D01*
X111561679Y-122172788D01*
X111350171Y-122059735D01*
X111120672Y-121990117D01*
X110941803Y-121972500D01*
X109022197Y-121972500D01*
X108843328Y-121990117D01*
X108613829Y-122059735D01*
X108402321Y-122172788D01*
X108216933Y-122324933D01*
X108064788Y-122510321D01*
X107951735Y-122721829D01*
X107882117Y-122951328D01*
X107858610Y-123190000D01*
X102171500Y-123190000D01*
X102171500Y-121734210D01*
X115100100Y-121734210D01*
X115100100Y-121851790D01*
X115123039Y-121967109D01*
X115168034Y-122075738D01*
X115233358Y-122173501D01*
X115316499Y-122256642D01*
X115414262Y-122321966D01*
X115522891Y-122366961D01*
X115638210Y-122389900D01*
X115755790Y-122389900D01*
X115871109Y-122366961D01*
X115936199Y-122340000D01*
X124560964Y-122340000D01*
X124560964Y-124040000D01*
X124567094Y-124102241D01*
X124585249Y-124162090D01*
X124614731Y-124217247D01*
X124654407Y-124265593D01*
X124702753Y-124305269D01*
X124757910Y-124334751D01*
X124817759Y-124352906D01*
X124880000Y-124359036D01*
X126580000Y-124359036D01*
X126642241Y-124352906D01*
X126702090Y-124334751D01*
X126757247Y-124305269D01*
X126805593Y-124265593D01*
X126845269Y-124217247D01*
X126874751Y-124162090D01*
X126892906Y-124102241D01*
X126899036Y-124040000D01*
X126899036Y-122340000D01*
X126892906Y-122277759D01*
X126874751Y-122217910D01*
X126845269Y-122162753D01*
X126805593Y-122114407D01*
X126757247Y-122074731D01*
X126702090Y-122045249D01*
X126642241Y-122027094D01*
X126580000Y-122020964D01*
X124880000Y-122020964D01*
X124817759Y-122027094D01*
X124757910Y-122045249D01*
X124702753Y-122074731D01*
X124654407Y-122114407D01*
X124614731Y-122162753D01*
X124585249Y-122217910D01*
X124567094Y-122277759D01*
X124560964Y-122340000D01*
X115936199Y-122340000D01*
X115979738Y-122321966D01*
X116077501Y-122256642D01*
X116160642Y-122173501D01*
X116225966Y-122075738D01*
X116270961Y-121967109D01*
X116293900Y-121851790D01*
X116293900Y-121734210D01*
X116270961Y-121618891D01*
X116225966Y-121510262D01*
X116160642Y-121412499D01*
X116077501Y-121329358D01*
X115979738Y-121264034D01*
X115871109Y-121219039D01*
X115755790Y-121196100D01*
X115638210Y-121196100D01*
X115522891Y-121219039D01*
X115414262Y-121264034D01*
X115316499Y-121329358D01*
X115233358Y-121412499D01*
X115168034Y-121510262D01*
X115123039Y-121618891D01*
X115100100Y-121734210D01*
X102171500Y-121734210D01*
X102171500Y-119714822D01*
X107779858Y-119714822D01*
X107791243Y-119777185D01*
X107893531Y-120021367D01*
X108041492Y-120240902D01*
X108229439Y-120427353D01*
X108450149Y-120573555D01*
X108695141Y-120673889D01*
X108955000Y-120724500D01*
X109855000Y-120724500D01*
X109855000Y-119507000D01*
X110109000Y-119507000D01*
X110109000Y-120724500D01*
X111009000Y-120724500D01*
X111268859Y-120673889D01*
X111513851Y-120573555D01*
X111572037Y-120535011D01*
X124562500Y-120535011D01*
X124562500Y-120764989D01*
X124607366Y-120990547D01*
X124695375Y-121203019D01*
X124823144Y-121394238D01*
X124985762Y-121556856D01*
X125176981Y-121684625D01*
X125389453Y-121772634D01*
X125615011Y-121817500D01*
X125844989Y-121817500D01*
X126070547Y-121772634D01*
X126283019Y-121684625D01*
X126474238Y-121556856D01*
X126636856Y-121394238D01*
X126764625Y-121203019D01*
X126852634Y-120990547D01*
X126897500Y-120764989D01*
X126897500Y-120535011D01*
X126852634Y-120309453D01*
X126764625Y-120096981D01*
X126670565Y-119956210D01*
X132626100Y-119956210D01*
X132626100Y-120073790D01*
X132649039Y-120189109D01*
X132694034Y-120297738D01*
X132759358Y-120395501D01*
X132842499Y-120478642D01*
X132940262Y-120543966D01*
X133048891Y-120588961D01*
X133164210Y-120611900D01*
X133281790Y-120611900D01*
X133397109Y-120588961D01*
X133505738Y-120543966D01*
X133603501Y-120478642D01*
X133686642Y-120395501D01*
X133751966Y-120297738D01*
X133796961Y-120189109D01*
X133819900Y-120073790D01*
X133819900Y-119956210D01*
X133796961Y-119840891D01*
X133751966Y-119732262D01*
X133686642Y-119634499D01*
X133603501Y-119551358D01*
X133505738Y-119486034D01*
X133397109Y-119441039D01*
X133281790Y-119418100D01*
X133164210Y-119418100D01*
X133048891Y-119441039D01*
X132940262Y-119486034D01*
X132842499Y-119551358D01*
X132759358Y-119634499D01*
X132694034Y-119732262D01*
X132649039Y-119840891D01*
X132626100Y-119956210D01*
X126670565Y-119956210D01*
X126636856Y-119905762D01*
X126474238Y-119743144D01*
X126283019Y-119615375D01*
X126070547Y-119527366D01*
X125844989Y-119482500D01*
X125615011Y-119482500D01*
X125389453Y-119527366D01*
X125176981Y-119615375D01*
X124985762Y-119743144D01*
X124823144Y-119905762D01*
X124695375Y-120096981D01*
X124607366Y-120309453D01*
X124562500Y-120535011D01*
X111572037Y-120535011D01*
X111734561Y-120427353D01*
X111922508Y-120240902D01*
X112070469Y-120021367D01*
X112172757Y-119777185D01*
X112184142Y-119714822D01*
X112108819Y-119507000D01*
X110109000Y-119507000D01*
X109855000Y-119507000D01*
X107855181Y-119507000D01*
X107779858Y-119714822D01*
X102171500Y-119714822D01*
X102171500Y-119045178D01*
X107779858Y-119045178D01*
X107855181Y-119253000D01*
X109855000Y-119253000D01*
X109855000Y-118035500D01*
X110109000Y-118035500D01*
X110109000Y-119253000D01*
X112108819Y-119253000D01*
X112184142Y-119045178D01*
X112172757Y-118982815D01*
X112070469Y-118738633D01*
X111922508Y-118519098D01*
X111838451Y-118435710D01*
X115096600Y-118435710D01*
X115096600Y-118553290D01*
X115119539Y-118668609D01*
X115164534Y-118777238D01*
X115229858Y-118875001D01*
X115312999Y-118958142D01*
X115410762Y-119023466D01*
X115519391Y-119068461D01*
X115634710Y-119091400D01*
X115752290Y-119091400D01*
X115867609Y-119068461D01*
X115976238Y-119023466D01*
X116074001Y-118958142D01*
X116157142Y-118875001D01*
X116222466Y-118777238D01*
X116267461Y-118668609D01*
X116290400Y-118553290D01*
X116290400Y-118436964D01*
X124477473Y-118436964D01*
X124506905Y-118534008D01*
X124613126Y-118764475D01*
X124762268Y-118969791D01*
X124948600Y-119142065D01*
X125164960Y-119274678D01*
X125403035Y-119362533D01*
X125603000Y-119287136D01*
X125603000Y-118237000D01*
X125857000Y-118237000D01*
X125857000Y-119287136D01*
X126056965Y-119362533D01*
X126295040Y-119274678D01*
X126511400Y-119142065D01*
X126697732Y-118969791D01*
X126846874Y-118764475D01*
X126953095Y-118534008D01*
X126982527Y-118436964D01*
X126932461Y-118305210D01*
X131991100Y-118305210D01*
X131991100Y-118422790D01*
X132014039Y-118538109D01*
X132059034Y-118646738D01*
X132124358Y-118744501D01*
X132207499Y-118827642D01*
X132305262Y-118892966D01*
X132413891Y-118937961D01*
X132529210Y-118960900D01*
X132646790Y-118960900D01*
X132762109Y-118937961D01*
X132870738Y-118892966D01*
X132968501Y-118827642D01*
X133051642Y-118744501D01*
X133116966Y-118646738D01*
X133161961Y-118538109D01*
X133184900Y-118422790D01*
X133184900Y-118305210D01*
X133161961Y-118189891D01*
X133116966Y-118081262D01*
X133051642Y-117983499D01*
X132968501Y-117900358D01*
X132870738Y-117835034D01*
X132762109Y-117790039D01*
X132646790Y-117767100D01*
X132529210Y-117767100D01*
X132413891Y-117790039D01*
X132305262Y-117835034D01*
X132207499Y-117900358D01*
X132124358Y-117983499D01*
X132059034Y-118081262D01*
X132014039Y-118189891D01*
X131991100Y-118305210D01*
X126932461Y-118305210D01*
X126906540Y-118237000D01*
X125857000Y-118237000D01*
X125603000Y-118237000D01*
X124553460Y-118237000D01*
X124477473Y-118436964D01*
X116290400Y-118436964D01*
X116290400Y-118435710D01*
X116267461Y-118320391D01*
X116222466Y-118211762D01*
X116157142Y-118113999D01*
X116074001Y-118030858D01*
X115976238Y-117965534D01*
X115867609Y-117920539D01*
X115752290Y-117897600D01*
X115634710Y-117897600D01*
X115519391Y-117920539D01*
X115410762Y-117965534D01*
X115312999Y-118030858D01*
X115229858Y-118113999D01*
X115164534Y-118211762D01*
X115119539Y-118320391D01*
X115096600Y-118435710D01*
X111838451Y-118435710D01*
X111734561Y-118332647D01*
X111513851Y-118186445D01*
X111268859Y-118086111D01*
X111009000Y-118035500D01*
X110109000Y-118035500D01*
X109855000Y-118035500D01*
X108955000Y-118035500D01*
X108695141Y-118086111D01*
X108450149Y-118186445D01*
X108229439Y-118332647D01*
X108041492Y-118519098D01*
X107893531Y-118738633D01*
X107791243Y-118982815D01*
X107779858Y-119045178D01*
X102171500Y-119045178D01*
X102171500Y-117783036D01*
X124477473Y-117783036D01*
X124553460Y-117983000D01*
X125603000Y-117983000D01*
X125603000Y-116932864D01*
X125857000Y-116932864D01*
X125857000Y-117983000D01*
X126906540Y-117983000D01*
X126982527Y-117783036D01*
X126953095Y-117685992D01*
X126846874Y-117455525D01*
X126697732Y-117250209D01*
X126511400Y-117077935D01*
X126295040Y-116945322D01*
X126056965Y-116857467D01*
X125857000Y-116932864D01*
X125603000Y-116932864D01*
X125403035Y-116857467D01*
X125164960Y-116945322D01*
X124948600Y-117077935D01*
X124762268Y-117250209D01*
X124613126Y-117455525D01*
X124506905Y-117685992D01*
X124477473Y-117783036D01*
X102171500Y-117783036D01*
X102171500Y-114920000D01*
X107862964Y-114920000D01*
X107862964Y-116220000D01*
X107873898Y-116331013D01*
X107906279Y-116437761D01*
X107958864Y-116536139D01*
X108029631Y-116622369D01*
X108115861Y-116693136D01*
X108214239Y-116745721D01*
X108320987Y-116778102D01*
X108432000Y-116789036D01*
X111532000Y-116789036D01*
X111643013Y-116778102D01*
X111749761Y-116745721D01*
X111848139Y-116693136D01*
X111934369Y-116622369D01*
X112005136Y-116536139D01*
X112057721Y-116437761D01*
X112090102Y-116331013D01*
X112101036Y-116220000D01*
X112101036Y-115384210D01*
X121831100Y-115384210D01*
X121831100Y-115501790D01*
X121854039Y-115617109D01*
X121899034Y-115725738D01*
X121964358Y-115823501D01*
X122047499Y-115906642D01*
X122145262Y-115971966D01*
X122253891Y-116016961D01*
X122369210Y-116039900D01*
X122486790Y-116039900D01*
X122602109Y-116016961D01*
X122710738Y-115971966D01*
X122808501Y-115906642D01*
X122891642Y-115823501D01*
X122956966Y-115725738D01*
X123001961Y-115617109D01*
X123024900Y-115501790D01*
X123024900Y-115384210D01*
X123001961Y-115268891D01*
X122997123Y-115257210D01*
X126085600Y-115257210D01*
X126085600Y-115374790D01*
X126108539Y-115490109D01*
X126153534Y-115598738D01*
X126218858Y-115696501D01*
X126219357Y-115697000D01*
X126218858Y-115697499D01*
X126153534Y-115795262D01*
X126108539Y-115903891D01*
X126085600Y-116019210D01*
X126085600Y-116136790D01*
X126108539Y-116252109D01*
X126153534Y-116360738D01*
X126218858Y-116458501D01*
X126301999Y-116541642D01*
X126399762Y-116606966D01*
X126508391Y-116651961D01*
X126623710Y-116674900D01*
X126741290Y-116674900D01*
X126856609Y-116651961D01*
X126965238Y-116606966D01*
X127063001Y-116541642D01*
X127146142Y-116458501D01*
X127211466Y-116360738D01*
X127256461Y-116252109D01*
X127279400Y-116136790D01*
X127279400Y-116019210D01*
X127256461Y-115903891D01*
X127211466Y-115795262D01*
X127146142Y-115697499D01*
X127145643Y-115697000D01*
X127146142Y-115696501D01*
X127211466Y-115598738D01*
X127256461Y-115490109D01*
X127279400Y-115374790D01*
X127279400Y-115257210D01*
X127256461Y-115141891D01*
X127211466Y-115033262D01*
X127146142Y-114935499D01*
X127063001Y-114852358D01*
X126965238Y-114787034D01*
X126856609Y-114742039D01*
X126741290Y-114719100D01*
X126623710Y-114719100D01*
X126508391Y-114742039D01*
X126399762Y-114787034D01*
X126301999Y-114852358D01*
X126218858Y-114935499D01*
X126153534Y-115033262D01*
X126108539Y-115141891D01*
X126085600Y-115257210D01*
X122997123Y-115257210D01*
X122956966Y-115160262D01*
X122891642Y-115062499D01*
X122808501Y-114979358D01*
X122710738Y-114914034D01*
X122602109Y-114869039D01*
X122486790Y-114846100D01*
X122369210Y-114846100D01*
X122253891Y-114869039D01*
X122145262Y-114914034D01*
X122047499Y-114979358D01*
X121964358Y-115062499D01*
X121899034Y-115160262D01*
X121854039Y-115268891D01*
X121831100Y-115384210D01*
X112101036Y-115384210D01*
X112101036Y-114920000D01*
X112090102Y-114808987D01*
X112057721Y-114702239D01*
X112005136Y-114603861D01*
X111934369Y-114517631D01*
X111848139Y-114446864D01*
X111749761Y-114394279D01*
X111643013Y-114361898D01*
X111532000Y-114350964D01*
X108432000Y-114350964D01*
X108320987Y-114361898D01*
X108214239Y-114394279D01*
X108115861Y-114446864D01*
X108029631Y-114517631D01*
X107958864Y-114603861D01*
X107906279Y-114702239D01*
X107873898Y-114808987D01*
X107862964Y-114920000D01*
X102171500Y-114920000D01*
X102171500Y-112336210D01*
X115100100Y-112336210D01*
X115100100Y-112453790D01*
X115123039Y-112569109D01*
X115168034Y-112677738D01*
X115233358Y-112775501D01*
X115316499Y-112858642D01*
X115414262Y-112923966D01*
X115522891Y-112968961D01*
X115638210Y-112991900D01*
X115755790Y-112991900D01*
X115859802Y-112971210D01*
X122974100Y-112971210D01*
X122974100Y-113088790D01*
X122997039Y-113204109D01*
X123042034Y-113312738D01*
X123107358Y-113410501D01*
X123190499Y-113493642D01*
X123288262Y-113558966D01*
X123390950Y-113601500D01*
X123288262Y-113644034D01*
X123190499Y-113709358D01*
X123107358Y-113792499D01*
X123042034Y-113890262D01*
X122997039Y-113998891D01*
X122974100Y-114114210D01*
X122974100Y-114231790D01*
X122997039Y-114347109D01*
X123042034Y-114455738D01*
X123107358Y-114553501D01*
X123190499Y-114636642D01*
X123288262Y-114701966D01*
X123396891Y-114746961D01*
X123512210Y-114769900D01*
X123629790Y-114769900D01*
X123745109Y-114746961D01*
X123853738Y-114701966D01*
X123951501Y-114636642D01*
X124034642Y-114553501D01*
X124099966Y-114455738D01*
X124144961Y-114347109D01*
X124167900Y-114231790D01*
X124167900Y-114114210D01*
X124144961Y-113998891D01*
X124099966Y-113890262D01*
X124034642Y-113792499D01*
X123951501Y-113709358D01*
X123853738Y-113644034D01*
X123751050Y-113601500D01*
X123853738Y-113558966D01*
X123951501Y-113493642D01*
X124034642Y-113410501D01*
X124099966Y-113312738D01*
X124144961Y-113204109D01*
X124167900Y-113088790D01*
X124167900Y-112971210D01*
X124144961Y-112855891D01*
X124099966Y-112747262D01*
X124079886Y-112717210D01*
X126085600Y-112717210D01*
X126085600Y-112834790D01*
X126108539Y-112950109D01*
X126153534Y-113058738D01*
X126218858Y-113156501D01*
X126301999Y-113239642D01*
X126399762Y-113304966D01*
X126508391Y-113349961D01*
X126623710Y-113372900D01*
X126741290Y-113372900D01*
X126856609Y-113349961D01*
X126965238Y-113304966D01*
X127063001Y-113239642D01*
X127146142Y-113156501D01*
X127211466Y-113058738D01*
X127256461Y-112950109D01*
X127279400Y-112834790D01*
X127279400Y-112717210D01*
X127256461Y-112601891D01*
X127211466Y-112493262D01*
X127146142Y-112395499D01*
X127063001Y-112312358D01*
X126965238Y-112247034D01*
X126856609Y-112202039D01*
X126741290Y-112179100D01*
X126623710Y-112179100D01*
X126508391Y-112202039D01*
X126399762Y-112247034D01*
X126301999Y-112312358D01*
X126218858Y-112395499D01*
X126153534Y-112493262D01*
X126108539Y-112601891D01*
X126085600Y-112717210D01*
X124079886Y-112717210D01*
X124034642Y-112649499D01*
X123951501Y-112566358D01*
X123853738Y-112501034D01*
X123745109Y-112456039D01*
X123629790Y-112433100D01*
X123512210Y-112433100D01*
X123396891Y-112456039D01*
X123288262Y-112501034D01*
X123190499Y-112566358D01*
X123107358Y-112649499D01*
X123042034Y-112747262D01*
X122997039Y-112855891D01*
X122974100Y-112971210D01*
X115859802Y-112971210D01*
X115871109Y-112968961D01*
X115979738Y-112923966D01*
X116077501Y-112858642D01*
X116160642Y-112775501D01*
X116225966Y-112677738D01*
X116270961Y-112569109D01*
X116293900Y-112453790D01*
X116293900Y-112336210D01*
X116270961Y-112220891D01*
X116225966Y-112112262D01*
X116160642Y-112014499D01*
X116077501Y-111931358D01*
X115979738Y-111866034D01*
X115871109Y-111821039D01*
X115755790Y-111798100D01*
X115638210Y-111798100D01*
X115522891Y-111821039D01*
X115414262Y-111866034D01*
X115316499Y-111931358D01*
X115233358Y-112014499D01*
X115168034Y-112112262D01*
X115123039Y-112220891D01*
X115100100Y-112336210D01*
X102171500Y-112336210D01*
X102171500Y-109037710D01*
X115096600Y-109037710D01*
X115096600Y-109155290D01*
X115119539Y-109270609D01*
X115164534Y-109379238D01*
X115229858Y-109477001D01*
X115312999Y-109560142D01*
X115410762Y-109625466D01*
X115519391Y-109670461D01*
X115634710Y-109693400D01*
X115752290Y-109693400D01*
X115867609Y-109670461D01*
X115976238Y-109625466D01*
X116074001Y-109560142D01*
X116157142Y-109477001D01*
X116222466Y-109379238D01*
X116267461Y-109270609D01*
X116290400Y-109155290D01*
X116290400Y-109037710D01*
X116267461Y-108922391D01*
X116222466Y-108813762D01*
X116200047Y-108780210D01*
X126085600Y-108780210D01*
X126085600Y-108897790D01*
X126108539Y-109013109D01*
X126153534Y-109121738D01*
X126218858Y-109219501D01*
X126301999Y-109302642D01*
X126399762Y-109367966D01*
X126508391Y-109412961D01*
X126623710Y-109435900D01*
X126741290Y-109435900D01*
X126856609Y-109412961D01*
X126965238Y-109367966D01*
X127063001Y-109302642D01*
X127146142Y-109219501D01*
X127211466Y-109121738D01*
X127256461Y-109013109D01*
X127279400Y-108897790D01*
X127279400Y-108780210D01*
X127256461Y-108664891D01*
X127211466Y-108556262D01*
X127146142Y-108458499D01*
X127063001Y-108375358D01*
X126965238Y-108310034D01*
X126856609Y-108265039D01*
X126741290Y-108242100D01*
X126623710Y-108242100D01*
X126508391Y-108265039D01*
X126399762Y-108310034D01*
X126301999Y-108375358D01*
X126218858Y-108458499D01*
X126153534Y-108556262D01*
X126108539Y-108664891D01*
X126085600Y-108780210D01*
X116200047Y-108780210D01*
X116157142Y-108715999D01*
X116074001Y-108632858D01*
X115976238Y-108567534D01*
X115867609Y-108522539D01*
X115752290Y-108499600D01*
X115634710Y-108499600D01*
X115519391Y-108522539D01*
X115410762Y-108567534D01*
X115312999Y-108632858D01*
X115229858Y-108715999D01*
X115164534Y-108813762D01*
X115119539Y-108922391D01*
X115096600Y-109037710D01*
X102171500Y-109037710D01*
X102171500Y-105295011D01*
X143612500Y-105295011D01*
X143612500Y-105524989D01*
X143657366Y-105750547D01*
X143745375Y-105963019D01*
X143873144Y-106154238D01*
X144035762Y-106316856D01*
X144226981Y-106444625D01*
X144439453Y-106532634D01*
X144665011Y-106577500D01*
X144894989Y-106577500D01*
X145120547Y-106532634D01*
X145333019Y-106444625D01*
X145524238Y-106316856D01*
X145686856Y-106154238D01*
X145814625Y-105963019D01*
X145902634Y-105750547D01*
X145905335Y-105736964D01*
X146067473Y-105736964D01*
X146096905Y-105834008D01*
X146203126Y-106064475D01*
X146352268Y-106269791D01*
X146538600Y-106442065D01*
X146754960Y-106574678D01*
X146993035Y-106662533D01*
X147193000Y-106587136D01*
X147193000Y-105537000D01*
X147447000Y-105537000D01*
X147447000Y-106587136D01*
X147646965Y-106662533D01*
X147885040Y-106574678D01*
X148101400Y-106442065D01*
X148287732Y-106269791D01*
X148436874Y-106064475D01*
X148543095Y-105834008D01*
X148572527Y-105736964D01*
X148496540Y-105537000D01*
X147447000Y-105537000D01*
X147193000Y-105537000D01*
X146143460Y-105537000D01*
X146067473Y-105736964D01*
X145905335Y-105736964D01*
X145947500Y-105524989D01*
X145947500Y-105295011D01*
X145905336Y-105083036D01*
X146067473Y-105083036D01*
X146143460Y-105283000D01*
X147193000Y-105283000D01*
X147193000Y-104232864D01*
X147447000Y-104232864D01*
X147447000Y-105283000D01*
X148496540Y-105283000D01*
X148572527Y-105083036D01*
X148543095Y-104985992D01*
X148436874Y-104755525D01*
X148287732Y-104550209D01*
X148101400Y-104377935D01*
X147885040Y-104245322D01*
X147646965Y-104157467D01*
X147447000Y-104232864D01*
X147193000Y-104232864D01*
X146993035Y-104157467D01*
X146754960Y-104245322D01*
X146538600Y-104377935D01*
X146352268Y-104550209D01*
X146203126Y-104755525D01*
X146096905Y-104985992D01*
X146067473Y-105083036D01*
X145905336Y-105083036D01*
X145902634Y-105069453D01*
X145814625Y-104856981D01*
X145686856Y-104665762D01*
X145524238Y-104503144D01*
X145333019Y-104375375D01*
X145120547Y-104287366D01*
X144894989Y-104242500D01*
X144665011Y-104242500D01*
X144439453Y-104287366D01*
X144226981Y-104375375D01*
X144035762Y-104503144D01*
X143873144Y-104665762D01*
X143745375Y-104856981D01*
X143657366Y-105069453D01*
X143612500Y-105295011D01*
X102171500Y-105295011D01*
X102171500Y-102020000D01*
X143610964Y-102020000D01*
X143610964Y-103720000D01*
X143617094Y-103782241D01*
X143635249Y-103842090D01*
X143664731Y-103897247D01*
X143704407Y-103945593D01*
X143752753Y-103985269D01*
X143807910Y-104014751D01*
X143867759Y-104032906D01*
X143930000Y-104039036D01*
X145630000Y-104039036D01*
X145692241Y-104032906D01*
X145752090Y-104014751D01*
X145807247Y-103985269D01*
X145855593Y-103945593D01*
X145895269Y-103897247D01*
X145924751Y-103842090D01*
X145942906Y-103782241D01*
X145949036Y-103720000D01*
X145949036Y-103196964D01*
X146067473Y-103196964D01*
X146096905Y-103294008D01*
X146203126Y-103524475D01*
X146352268Y-103729791D01*
X146538600Y-103902065D01*
X146754960Y-104034678D01*
X146993035Y-104122533D01*
X147193000Y-104047136D01*
X147193000Y-102997000D01*
X147447000Y-102997000D01*
X147447000Y-104047136D01*
X147646965Y-104122533D01*
X147885040Y-104034678D01*
X148101400Y-103902065D01*
X148287732Y-103729791D01*
X148436874Y-103524475D01*
X148543095Y-103294008D01*
X148572527Y-103196964D01*
X148496540Y-102997000D01*
X147447000Y-102997000D01*
X147193000Y-102997000D01*
X146143460Y-102997000D01*
X146067473Y-103196964D01*
X145949036Y-103196964D01*
X145949036Y-102543036D01*
X146067473Y-102543036D01*
X146143460Y-102743000D01*
X147193000Y-102743000D01*
X147193000Y-101692864D01*
X147447000Y-101692864D01*
X147447000Y-102743000D01*
X148496540Y-102743000D01*
X148572527Y-102543036D01*
X148543095Y-102445992D01*
X148436874Y-102215525D01*
X148287732Y-102010209D01*
X148101400Y-101837935D01*
X147885040Y-101705322D01*
X147646965Y-101617467D01*
X147447000Y-101692864D01*
X147193000Y-101692864D01*
X146993035Y-101617467D01*
X146754960Y-101705322D01*
X146538600Y-101837935D01*
X146352268Y-102010209D01*
X146203126Y-102215525D01*
X146096905Y-102445992D01*
X146067473Y-102543036D01*
X145949036Y-102543036D01*
X145949036Y-102020000D01*
X145942906Y-101957759D01*
X145924751Y-101897910D01*
X145895269Y-101842753D01*
X145855593Y-101794407D01*
X145807247Y-101754731D01*
X145752090Y-101725249D01*
X145692241Y-101707094D01*
X145630000Y-101700964D01*
X143930000Y-101700964D01*
X143867759Y-101707094D01*
X143807910Y-101725249D01*
X143752753Y-101754731D01*
X143704407Y-101794407D01*
X143664731Y-101842753D01*
X143635249Y-101897910D01*
X143617094Y-101957759D01*
X143610964Y-102020000D01*
X102171500Y-102020000D01*
X102171500Y-97190000D01*
X146025964Y-97190000D01*
X146025964Y-98390000D01*
X146036898Y-98501013D01*
X146069279Y-98607761D01*
X146121864Y-98706139D01*
X146192631Y-98792369D01*
X146278861Y-98863136D01*
X146377239Y-98915721D01*
X146483987Y-98948102D01*
X146595000Y-98959036D01*
X148045000Y-98959036D01*
X148156013Y-98948102D01*
X148262761Y-98915721D01*
X148361139Y-98863136D01*
X148447369Y-98792369D01*
X148518136Y-98706139D01*
X148570721Y-98607761D01*
X148603102Y-98501013D01*
X148614036Y-98390000D01*
X148614036Y-97190000D01*
X148603102Y-97078987D01*
X148570721Y-96972239D01*
X148518136Y-96873861D01*
X148447369Y-96787631D01*
X148361139Y-96716864D01*
X148262761Y-96664279D01*
X148156013Y-96631898D01*
X148045000Y-96620964D01*
X146595000Y-96620964D01*
X146483987Y-96631898D01*
X146377239Y-96664279D01*
X146278861Y-96716864D01*
X146192631Y-96787631D01*
X146121864Y-96873861D01*
X146069279Y-96972239D01*
X146036898Y-97078987D01*
X146025964Y-97190000D01*
X102171500Y-97190000D01*
X102171500Y-95290000D01*
X146021851Y-95290000D01*
X146044393Y-95518870D01*
X146111152Y-95738945D01*
X146219562Y-95941767D01*
X146365458Y-96119542D01*
X146543233Y-96265438D01*
X146746055Y-96373848D01*
X146966130Y-96440607D01*
X147137645Y-96457500D01*
X147502355Y-96457500D01*
X147673870Y-96440607D01*
X147893945Y-96373848D01*
X148096767Y-96265438D01*
X148274542Y-96119542D01*
X148420438Y-95941767D01*
X148528848Y-95738945D01*
X148595607Y-95518870D01*
X148618149Y-95290000D01*
X148595607Y-95061130D01*
X148528848Y-94841055D01*
X148420438Y-94638233D01*
X148274542Y-94460458D01*
X148096767Y-94314562D01*
X147893945Y-94206152D01*
X147673870Y-94139393D01*
X147502355Y-94122500D01*
X147137645Y-94122500D01*
X146966130Y-94139393D01*
X146746055Y-94206152D01*
X146543233Y-94314562D01*
X146365458Y-94460458D01*
X146219562Y-94638233D01*
X146111152Y-94841055D01*
X146044393Y-95061130D01*
X146021851Y-95290000D01*
X102171500Y-95290000D01*
X102171500Y-91059000D01*
X112193500Y-91059000D01*
X112193500Y-91959000D01*
X112244111Y-92218859D01*
X112344445Y-92463851D01*
X112490647Y-92684561D01*
X112677098Y-92872508D01*
X112896633Y-93020469D01*
X113140815Y-93122757D01*
X113203178Y-93134142D01*
X113411000Y-93058819D01*
X113411000Y-91059000D01*
X113665000Y-91059000D01*
X113665000Y-93058819D01*
X113872822Y-93134142D01*
X113935185Y-93122757D01*
X114179367Y-93020469D01*
X114398902Y-92872508D01*
X114585353Y-92684561D01*
X114731555Y-92463851D01*
X114831889Y-92218859D01*
X114882500Y-91959000D01*
X114882500Y-91059000D01*
X113665000Y-91059000D01*
X113411000Y-91059000D01*
X112193500Y-91059000D01*
X102171500Y-91059000D01*
X102171500Y-89905000D01*
X112193500Y-89905000D01*
X112193500Y-90805000D01*
X113411000Y-90805000D01*
X113411000Y-88805181D01*
X113665000Y-88805181D01*
X113665000Y-90805000D01*
X114882500Y-90805000D01*
X114882500Y-89972197D01*
X116130500Y-89972197D01*
X116130500Y-91891802D01*
X116148117Y-92070671D01*
X116217735Y-92300170D01*
X116330788Y-92511678D01*
X116482933Y-92697067D01*
X116668321Y-92849212D01*
X116879829Y-92962265D01*
X117109328Y-93031883D01*
X117348000Y-93055390D01*
X117586671Y-93031883D01*
X117816170Y-92962265D01*
X118027678Y-92849212D01*
X118213067Y-92697067D01*
X118365212Y-92511679D01*
X118478265Y-92300171D01*
X118547883Y-92070672D01*
X118565500Y-91891803D01*
X118565500Y-89972197D01*
X119940500Y-89972197D01*
X119940500Y-91891802D01*
X119958117Y-92070671D01*
X120027735Y-92300170D01*
X120140788Y-92511678D01*
X120292933Y-92697067D01*
X120478321Y-92849212D01*
X120689829Y-92962265D01*
X120919328Y-93031883D01*
X121158000Y-93055390D01*
X121396671Y-93031883D01*
X121626170Y-92962265D01*
X121837678Y-92849212D01*
X122023067Y-92697067D01*
X122175212Y-92511679D01*
X122288265Y-92300171D01*
X122357883Y-92070672D01*
X122375500Y-91891803D01*
X122375500Y-89972197D01*
X123750500Y-89972197D01*
X123750500Y-91891802D01*
X123768117Y-92070671D01*
X123837735Y-92300170D01*
X123950788Y-92511678D01*
X124102933Y-92697067D01*
X124288321Y-92849212D01*
X124499829Y-92962265D01*
X124729328Y-93031883D01*
X124968000Y-93055390D01*
X125206671Y-93031883D01*
X125436170Y-92962265D01*
X125647678Y-92849212D01*
X125833067Y-92697067D01*
X125985212Y-92511679D01*
X126098265Y-92300171D01*
X126167883Y-92070672D01*
X126185500Y-91891803D01*
X126185500Y-89972197D01*
X127560500Y-89972197D01*
X127560500Y-91891802D01*
X127578117Y-92070671D01*
X127647735Y-92300170D01*
X127760788Y-92511678D01*
X127912933Y-92697067D01*
X128098321Y-92849212D01*
X128309829Y-92962265D01*
X128539328Y-93031883D01*
X128778000Y-93055390D01*
X129016671Y-93031883D01*
X129246170Y-92962265D01*
X129457678Y-92849212D01*
X129643067Y-92697067D01*
X129795212Y-92511679D01*
X129908265Y-92300171D01*
X129977883Y-92070672D01*
X129995500Y-91891803D01*
X129995500Y-89972197D01*
X131370500Y-89972197D01*
X131370500Y-91891802D01*
X131388117Y-92070671D01*
X131457735Y-92300170D01*
X131570788Y-92511678D01*
X131722933Y-92697067D01*
X131908321Y-92849212D01*
X132119829Y-92962265D01*
X132349328Y-93031883D01*
X132588000Y-93055390D01*
X132826671Y-93031883D01*
X133056170Y-92962265D01*
X133267678Y-92849212D01*
X133453067Y-92697067D01*
X133605212Y-92511679D01*
X133718265Y-92300171D01*
X133787883Y-92070672D01*
X133805500Y-91891803D01*
X133805500Y-91059000D01*
X135053500Y-91059000D01*
X135053500Y-91959000D01*
X135104111Y-92218859D01*
X135204445Y-92463851D01*
X135350647Y-92684561D01*
X135537098Y-92872508D01*
X135756633Y-93020469D01*
X136000815Y-93122757D01*
X136063178Y-93134142D01*
X136271000Y-93058819D01*
X136271000Y-91059000D01*
X136525000Y-91059000D01*
X136525000Y-93058819D01*
X136732822Y-93134142D01*
X136795185Y-93122757D01*
X136809014Y-93116964D01*
X145942473Y-93116964D01*
X146018660Y-93330098D01*
X146146631Y-93549213D01*
X146314890Y-93739152D01*
X146516971Y-93892615D01*
X146745109Y-94003705D01*
X146990536Y-94068153D01*
X147193000Y-93973277D01*
X147193000Y-92917000D01*
X147447000Y-92917000D01*
X147447000Y-93973277D01*
X147649464Y-94068153D01*
X147894891Y-94003705D01*
X148123029Y-93892615D01*
X148325110Y-93739152D01*
X148493369Y-93549213D01*
X148621340Y-93330098D01*
X148697527Y-93116964D01*
X148621540Y-92917000D01*
X147447000Y-92917000D01*
X147193000Y-92917000D01*
X146018460Y-92917000D01*
X145942473Y-93116964D01*
X136809014Y-93116964D01*
X137039367Y-93020469D01*
X137258902Y-92872508D01*
X137445353Y-92684561D01*
X137591555Y-92463851D01*
X137691889Y-92218859D01*
X137742500Y-91959000D01*
X137742500Y-91059000D01*
X136525000Y-91059000D01*
X136271000Y-91059000D01*
X135053500Y-91059000D01*
X133805500Y-91059000D01*
X133805500Y-89972197D01*
X133798882Y-89905000D01*
X135053500Y-89905000D01*
X135053500Y-90805000D01*
X136271000Y-90805000D01*
X136271000Y-88805181D01*
X136525000Y-88805181D01*
X136525000Y-90805000D01*
X137742500Y-90805000D01*
X137742500Y-89905000D01*
X137691889Y-89645141D01*
X137591555Y-89400149D01*
X137579533Y-89382000D01*
X138988964Y-89382000D01*
X138988964Y-92482000D01*
X138999898Y-92593013D01*
X139032279Y-92699761D01*
X139084864Y-92798139D01*
X139155631Y-92884369D01*
X139241861Y-92955136D01*
X139340239Y-93007721D01*
X139446987Y-93040102D01*
X139558000Y-93051036D01*
X140858000Y-93051036D01*
X140969013Y-93040102D01*
X141075761Y-93007721D01*
X141174139Y-92955136D01*
X141260369Y-92884369D01*
X141331136Y-92798139D01*
X141383721Y-92699761D01*
X141416102Y-92593013D01*
X141427036Y-92482000D01*
X141427036Y-92463036D01*
X145942473Y-92463036D01*
X146018460Y-92663000D01*
X147193000Y-92663000D01*
X147193000Y-91606723D01*
X147447000Y-91606723D01*
X147447000Y-92663000D01*
X148621540Y-92663000D01*
X148697527Y-92463036D01*
X148621340Y-92249902D01*
X148493369Y-92030787D01*
X148325110Y-91840848D01*
X148123029Y-91687385D01*
X147894891Y-91576295D01*
X147649464Y-91511847D01*
X147447000Y-91606723D01*
X147193000Y-91606723D01*
X146990536Y-91511847D01*
X146745109Y-91576295D01*
X146516971Y-91687385D01*
X146314890Y-91840848D01*
X146146631Y-92030787D01*
X146018660Y-92249902D01*
X145942473Y-92463036D01*
X141427036Y-92463036D01*
X141427036Y-89382000D01*
X141416102Y-89270987D01*
X141383721Y-89164239D01*
X141331136Y-89065861D01*
X141260369Y-88979631D01*
X141174139Y-88908864D01*
X141075761Y-88856279D01*
X140969013Y-88823898D01*
X140858000Y-88812964D01*
X139558000Y-88812964D01*
X139446987Y-88823898D01*
X139340239Y-88856279D01*
X139241861Y-88908864D01*
X139155631Y-88979631D01*
X139084864Y-89065861D01*
X139032279Y-89164239D01*
X138999898Y-89270987D01*
X138988964Y-89382000D01*
X137579533Y-89382000D01*
X137445353Y-89179439D01*
X137258902Y-88991492D01*
X137039367Y-88843531D01*
X136795185Y-88741243D01*
X136732822Y-88729858D01*
X136525000Y-88805181D01*
X136271000Y-88805181D01*
X136063178Y-88729858D01*
X136000815Y-88741243D01*
X135756633Y-88843531D01*
X135537098Y-88991492D01*
X135350647Y-89179439D01*
X135204445Y-89400149D01*
X135104111Y-89645141D01*
X135053500Y-89905000D01*
X133798882Y-89905000D01*
X133787883Y-89793328D01*
X133718265Y-89563829D01*
X133605212Y-89352321D01*
X133453067Y-89166933D01*
X133267679Y-89014788D01*
X133056171Y-88901735D01*
X132826672Y-88832117D01*
X132588000Y-88808610D01*
X132349329Y-88832117D01*
X132119830Y-88901735D01*
X131908322Y-89014788D01*
X131722934Y-89166933D01*
X131570789Y-89352321D01*
X131457736Y-89563829D01*
X131388118Y-89793328D01*
X131370500Y-89972197D01*
X129995500Y-89972197D01*
X129977883Y-89793328D01*
X129908265Y-89563829D01*
X129795212Y-89352321D01*
X129643067Y-89166933D01*
X129457679Y-89014788D01*
X129246171Y-88901735D01*
X129016672Y-88832117D01*
X128778000Y-88808610D01*
X128539329Y-88832117D01*
X128309830Y-88901735D01*
X128098322Y-89014788D01*
X127912934Y-89166933D01*
X127760789Y-89352321D01*
X127647736Y-89563829D01*
X127578118Y-89793328D01*
X127560500Y-89972197D01*
X126185500Y-89972197D01*
X126167883Y-89793328D01*
X126098265Y-89563829D01*
X125985212Y-89352321D01*
X125833067Y-89166933D01*
X125647679Y-89014788D01*
X125436171Y-88901735D01*
X125206672Y-88832117D01*
X124968000Y-88808610D01*
X124729329Y-88832117D01*
X124499830Y-88901735D01*
X124288322Y-89014788D01*
X124102934Y-89166933D01*
X123950789Y-89352321D01*
X123837736Y-89563829D01*
X123768118Y-89793328D01*
X123750500Y-89972197D01*
X122375500Y-89972197D01*
X122357883Y-89793328D01*
X122288265Y-89563829D01*
X122175212Y-89352321D01*
X122023067Y-89166933D01*
X121837679Y-89014788D01*
X121626171Y-88901735D01*
X121396672Y-88832117D01*
X121158000Y-88808610D01*
X120919329Y-88832117D01*
X120689830Y-88901735D01*
X120478322Y-89014788D01*
X120292934Y-89166933D01*
X120140789Y-89352321D01*
X120027736Y-89563829D01*
X119958118Y-89793328D01*
X119940500Y-89972197D01*
X118565500Y-89972197D01*
X118547883Y-89793328D01*
X118478265Y-89563829D01*
X118365212Y-89352321D01*
X118213067Y-89166933D01*
X118027679Y-89014788D01*
X117816171Y-88901735D01*
X117586672Y-88832117D01*
X117348000Y-88808610D01*
X117109329Y-88832117D01*
X116879830Y-88901735D01*
X116668322Y-89014788D01*
X116482934Y-89166933D01*
X116330789Y-89352321D01*
X116217736Y-89563829D01*
X116148118Y-89793328D01*
X116130500Y-89972197D01*
X114882500Y-89972197D01*
X114882500Y-89905000D01*
X114831889Y-89645141D01*
X114731555Y-89400149D01*
X114585353Y-89179439D01*
X114398902Y-88991492D01*
X114179367Y-88843531D01*
X113935185Y-88741243D01*
X113872822Y-88729858D01*
X113665000Y-88805181D01*
X113411000Y-88805181D01*
X113203178Y-88729858D01*
X113140815Y-88741243D01*
X112896633Y-88843531D01*
X112677098Y-88991492D01*
X112490647Y-89179439D01*
X112344445Y-89400149D01*
X112244111Y-89645141D01*
X112193500Y-89905000D01*
X102171500Y-89905000D01*
X102171500Y-87507996D01*
X102187791Y-87405134D01*
X102232779Y-87316842D01*
X102302842Y-87246779D01*
X102391134Y-87201791D01*
X102493996Y-87185500D01*
X105791000Y-87185500D01*
X105800933Y-87184718D01*
X105918668Y-87166071D01*
X105930713Y-87162928D01*
X105937564Y-87159932D01*
X106043775Y-87105814D01*
X106054259Y-87099102D01*
X106059847Y-87094136D01*
X106144136Y-87009847D01*
X106152033Y-87000225D01*
X106155814Y-86993775D01*
X106209932Y-86887564D01*
X106214469Y-86875972D01*
X106216071Y-86868668D01*
X106234718Y-86750933D01*
X106235500Y-86741000D01*
X106235500Y-83189996D01*
X106251791Y-83087134D01*
X106296779Y-82998842D01*
X106366842Y-82928779D01*
X106455134Y-82883791D01*
X106557996Y-82867500D01*
X146172004Y-82867500D01*
X146274866Y-82883791D01*
G36*
X142711211Y-107022818D02*
G01*
X142819114Y-107094916D01*
X146909507Y-111185309D01*
X146919129Y-111193206D01*
X147042734Y-111275796D01*
X147053713Y-111281664D01*
X147065625Y-111285278D01*
X147211427Y-111314280D01*
X147223815Y-111315500D01*
X150490004Y-111315500D01*
X150592866Y-111331791D01*
X150681158Y-111376779D01*
X150751221Y-111446842D01*
X150796209Y-111535134D01*
X150812500Y-111637996D01*
X150812500Y-127122004D01*
X150796209Y-127224866D01*
X150751221Y-127313158D01*
X150681158Y-127383221D01*
X150592866Y-127428209D01*
X150490004Y-127444500D01*
X146939000Y-127444500D01*
X146929067Y-127445282D01*
X146811332Y-127463929D01*
X146799287Y-127467072D01*
X146792436Y-127470068D01*
X146686225Y-127524186D01*
X146675741Y-127530898D01*
X146670153Y-127535864D01*
X146585864Y-127620153D01*
X146577967Y-127629775D01*
X146574186Y-127636225D01*
X146520068Y-127742436D01*
X146515531Y-127754028D01*
X146513929Y-127761332D01*
X146495282Y-127879067D01*
X146494500Y-127889000D01*
X146494500Y-131186004D01*
X146478209Y-131288866D01*
X146433221Y-131377158D01*
X146363158Y-131447221D01*
X146274866Y-131492209D01*
X146172004Y-131508500D01*
X126369996Y-131508500D01*
X126267134Y-131492209D01*
X126178842Y-131447221D01*
X126108779Y-131377158D01*
X126063791Y-131288866D01*
X126047500Y-131186004D01*
X126047500Y-127420000D01*
X129640964Y-127420000D01*
X129640964Y-129120000D01*
X129647094Y-129182241D01*
X129665249Y-129242090D01*
X129694731Y-129297247D01*
X129734407Y-129345593D01*
X129782753Y-129385269D01*
X129837910Y-129414751D01*
X129897759Y-129432906D01*
X129960000Y-129439036D01*
X131660000Y-129439036D01*
X131722241Y-129432906D01*
X131782090Y-129414751D01*
X131837247Y-129385269D01*
X131885593Y-129345593D01*
X131925269Y-129297247D01*
X131954751Y-129242090D01*
X131972906Y-129182241D01*
X131979036Y-129120000D01*
X131979036Y-128155011D01*
X132182500Y-128155011D01*
X132182500Y-128384989D01*
X132227366Y-128610547D01*
X132315375Y-128823019D01*
X132443144Y-129014238D01*
X132605762Y-129176856D01*
X132796981Y-129304625D01*
X133009453Y-129392634D01*
X133235011Y-129437500D01*
X133464989Y-129437500D01*
X133690547Y-129392634D01*
X133903019Y-129304625D01*
X134094238Y-129176856D01*
X134256856Y-129014238D01*
X134384625Y-128823019D01*
X134472634Y-128610547D01*
X134517500Y-128384989D01*
X134517500Y-128155011D01*
X134722500Y-128155011D01*
X134722500Y-128384989D01*
X134767366Y-128610547D01*
X134855375Y-128823019D01*
X134983144Y-129014238D01*
X135145762Y-129176856D01*
X135336981Y-129304625D01*
X135549453Y-129392634D01*
X135775011Y-129437500D01*
X136004989Y-129437500D01*
X136230547Y-129392634D01*
X136443019Y-129304625D01*
X136634238Y-129176856D01*
X136796856Y-129014238D01*
X136924625Y-128823019D01*
X137012634Y-128610547D01*
X137057500Y-128384989D01*
X137057500Y-128155011D01*
X137262500Y-128155011D01*
X137262500Y-128384989D01*
X137307366Y-128610547D01*
X137395375Y-128823019D01*
X137523144Y-129014238D01*
X137685762Y-129176856D01*
X137876981Y-129304625D01*
X138089453Y-129392634D01*
X138315011Y-129437500D01*
X138544989Y-129437500D01*
X138770547Y-129392634D01*
X138983019Y-129304625D01*
X139174238Y-129176856D01*
X139336856Y-129014238D01*
X139464625Y-128823019D01*
X139552634Y-128610547D01*
X139555335Y-128596965D01*
X139717467Y-128596965D01*
X139805322Y-128835040D01*
X139937935Y-129051400D01*
X140110209Y-129237732D01*
X140315525Y-129386874D01*
X140545992Y-129493095D01*
X140643036Y-129522527D01*
X140843000Y-129446540D01*
X140843000Y-128397000D01*
X141097000Y-128397000D01*
X141097000Y-129446540D01*
X141296964Y-129522527D01*
X141394008Y-129493095D01*
X141624475Y-129386874D01*
X141829791Y-129237732D01*
X142002065Y-129051400D01*
X142134678Y-128835040D01*
X142222533Y-128596965D01*
X142147136Y-128397000D01*
X141097000Y-128397000D01*
X140843000Y-128397000D01*
X139792864Y-128397000D01*
X139717467Y-128596965D01*
X139555335Y-128596965D01*
X139597500Y-128384989D01*
X139597500Y-128155011D01*
X142342500Y-128155011D01*
X142342500Y-128384989D01*
X142387366Y-128610547D01*
X142475375Y-128823019D01*
X142603144Y-129014238D01*
X142765762Y-129176856D01*
X142956981Y-129304625D01*
X143169453Y-129392634D01*
X143395011Y-129437500D01*
X143624989Y-129437500D01*
X143850547Y-129392634D01*
X144063019Y-129304625D01*
X144254238Y-129176856D01*
X144416856Y-129014238D01*
X144544625Y-128823019D01*
X144632634Y-128610547D01*
X144677500Y-128384989D01*
X144677500Y-128155011D01*
X144632634Y-127929453D01*
X144544625Y-127716981D01*
X144416856Y-127525762D01*
X144254238Y-127363144D01*
X144063019Y-127235375D01*
X143850547Y-127147366D01*
X143624989Y-127102500D01*
X143395011Y-127102500D01*
X143169453Y-127147366D01*
X142956981Y-127235375D01*
X142765762Y-127363144D01*
X142603144Y-127525762D01*
X142475375Y-127716981D01*
X142387366Y-127929453D01*
X142342500Y-128155011D01*
X139597500Y-128155011D01*
X139555336Y-127943035D01*
X139717467Y-127943035D01*
X139792864Y-128143000D01*
X140843000Y-128143000D01*
X140843000Y-127093460D01*
X141097000Y-127093460D01*
X141097000Y-128143000D01*
X142147136Y-128143000D01*
X142222533Y-127943035D01*
X142134678Y-127704960D01*
X142002065Y-127488600D01*
X141829791Y-127302268D01*
X141624475Y-127153126D01*
X141394008Y-127046905D01*
X141296964Y-127017473D01*
X141097000Y-127093460D01*
X140843000Y-127093460D01*
X140643036Y-127017473D01*
X140545992Y-127046905D01*
X140315525Y-127153126D01*
X140110209Y-127302268D01*
X139937935Y-127488600D01*
X139805322Y-127704960D01*
X139717467Y-127943035D01*
X139555336Y-127943035D01*
X139552634Y-127929453D01*
X139464625Y-127716981D01*
X139336856Y-127525762D01*
X139174238Y-127363144D01*
X138983019Y-127235375D01*
X138770547Y-127147366D01*
X138544989Y-127102500D01*
X138315011Y-127102500D01*
X138089453Y-127147366D01*
X137876981Y-127235375D01*
X137685762Y-127363144D01*
X137523144Y-127525762D01*
X137395375Y-127716981D01*
X137307366Y-127929453D01*
X137262500Y-128155011D01*
X137057500Y-128155011D01*
X137012634Y-127929453D01*
X136924625Y-127716981D01*
X136796856Y-127525762D01*
X136634238Y-127363144D01*
X136443019Y-127235375D01*
X136230547Y-127147366D01*
X136004989Y-127102500D01*
X135775011Y-127102500D01*
X135549453Y-127147366D01*
X135336981Y-127235375D01*
X135145762Y-127363144D01*
X134983144Y-127525762D01*
X134855375Y-127716981D01*
X134767366Y-127929453D01*
X134722500Y-128155011D01*
X134517500Y-128155011D01*
X134472634Y-127929453D01*
X134384625Y-127716981D01*
X134256856Y-127525762D01*
X134094238Y-127363144D01*
X133903019Y-127235375D01*
X133690547Y-127147366D01*
X133464989Y-127102500D01*
X133235011Y-127102500D01*
X133009453Y-127147366D01*
X132796981Y-127235375D01*
X132605762Y-127363144D01*
X132443144Y-127525762D01*
X132315375Y-127716981D01*
X132227366Y-127929453D01*
X132182500Y-128155011D01*
X131979036Y-128155011D01*
X131979036Y-127420000D01*
X131972906Y-127357759D01*
X131954751Y-127297910D01*
X131925269Y-127242753D01*
X131885593Y-127194407D01*
X131837247Y-127154731D01*
X131782090Y-127125249D01*
X131722241Y-127107094D01*
X131660000Y-127100964D01*
X129960000Y-127100964D01*
X129897759Y-127107094D01*
X129837910Y-127125249D01*
X129782753Y-127154731D01*
X129734407Y-127194407D01*
X129694731Y-127242753D01*
X129665249Y-127297910D01*
X129647094Y-127357759D01*
X129640964Y-127420000D01*
X126047500Y-127420000D01*
X126047500Y-126148070D01*
X126072818Y-126020789D01*
X126144916Y-125912886D01*
X127177802Y-124880000D01*
X129640964Y-124880000D01*
X129640964Y-126580000D01*
X129647094Y-126642241D01*
X129665249Y-126702090D01*
X129694731Y-126757247D01*
X129734407Y-126805593D01*
X129782753Y-126845269D01*
X129837910Y-126874751D01*
X129897759Y-126892906D01*
X129960000Y-126899036D01*
X131660000Y-126899036D01*
X131722241Y-126892906D01*
X131782090Y-126874751D01*
X131837247Y-126845269D01*
X131885593Y-126805593D01*
X131925269Y-126757247D01*
X131954751Y-126702090D01*
X131972906Y-126642241D01*
X131979036Y-126580000D01*
X131979036Y-125615011D01*
X132182500Y-125615011D01*
X132182500Y-125844989D01*
X132227366Y-126070547D01*
X132315375Y-126283019D01*
X132443144Y-126474238D01*
X132605762Y-126636856D01*
X132796981Y-126764625D01*
X133009453Y-126852634D01*
X133235011Y-126897500D01*
X133464989Y-126897500D01*
X133690547Y-126852634D01*
X133903019Y-126764625D01*
X134094238Y-126636856D01*
X134256856Y-126474238D01*
X134384625Y-126283019D01*
X134472634Y-126070547D01*
X134517500Y-125844989D01*
X134517500Y-125615011D01*
X134722500Y-125615011D01*
X134722500Y-125844989D01*
X134767366Y-126070547D01*
X134855375Y-126283019D01*
X134983144Y-126474238D01*
X135145762Y-126636856D01*
X135336981Y-126764625D01*
X135549453Y-126852634D01*
X135775011Y-126897500D01*
X136004989Y-126897500D01*
X136230547Y-126852634D01*
X136443019Y-126764625D01*
X136634238Y-126636856D01*
X136796856Y-126474238D01*
X136924625Y-126283019D01*
X137012634Y-126070547D01*
X137057500Y-125844989D01*
X137057500Y-125615011D01*
X137262500Y-125615011D01*
X137262500Y-125844989D01*
X137307366Y-126070547D01*
X137395375Y-126283019D01*
X137523144Y-126474238D01*
X137685762Y-126636856D01*
X137876981Y-126764625D01*
X138089453Y-126852634D01*
X138315011Y-126897500D01*
X138544989Y-126897500D01*
X138770547Y-126852634D01*
X138983019Y-126764625D01*
X139174238Y-126636856D01*
X139336856Y-126474238D01*
X139464625Y-126283019D01*
X139552634Y-126070547D01*
X139555335Y-126056965D01*
X139717467Y-126056965D01*
X139805322Y-126295040D01*
X139937935Y-126511400D01*
X140110209Y-126697732D01*
X140315525Y-126846874D01*
X140545992Y-126953095D01*
X140643036Y-126982527D01*
X140843000Y-126906540D01*
X140843000Y-125857000D01*
X141097000Y-125857000D01*
X141097000Y-126906540D01*
X141296964Y-126982527D01*
X141394008Y-126953095D01*
X141624475Y-126846874D01*
X141829791Y-126697732D01*
X142002065Y-126511400D01*
X142134678Y-126295040D01*
X142222533Y-126056965D01*
X142147136Y-125857000D01*
X141097000Y-125857000D01*
X140843000Y-125857000D01*
X139792864Y-125857000D01*
X139717467Y-126056965D01*
X139555335Y-126056965D01*
X139597500Y-125844989D01*
X139597500Y-125615011D01*
X142342500Y-125615011D01*
X142342500Y-125844989D01*
X142387366Y-126070547D01*
X142475375Y-126283019D01*
X142603144Y-126474238D01*
X142765762Y-126636856D01*
X142956981Y-126764625D01*
X143169453Y-126852634D01*
X143395011Y-126897500D01*
X143624989Y-126897500D01*
X143850547Y-126852634D01*
X144063019Y-126764625D01*
X144254238Y-126636856D01*
X144416856Y-126474238D01*
X144544625Y-126283019D01*
X144632634Y-126070547D01*
X144677500Y-125844989D01*
X144677500Y-125615011D01*
X144632634Y-125389453D01*
X144544625Y-125176981D01*
X144416856Y-124985762D01*
X144254238Y-124823144D01*
X144063019Y-124695375D01*
X143850547Y-124607366D01*
X143624989Y-124562500D01*
X143395011Y-124562500D01*
X143169453Y-124607366D01*
X142956981Y-124695375D01*
X142765762Y-124823144D01*
X142603144Y-124985762D01*
X142475375Y-125176981D01*
X142387366Y-125389453D01*
X142342500Y-125615011D01*
X139597500Y-125615011D01*
X139555336Y-125403035D01*
X139717467Y-125403035D01*
X139792864Y-125603000D01*
X140843000Y-125603000D01*
X140843000Y-124553460D01*
X141097000Y-124553460D01*
X141097000Y-125603000D01*
X142147136Y-125603000D01*
X142222533Y-125403035D01*
X142134678Y-125164960D01*
X142002065Y-124948600D01*
X141829791Y-124762268D01*
X141624475Y-124613126D01*
X141394008Y-124506905D01*
X141296964Y-124477473D01*
X141097000Y-124553460D01*
X140843000Y-124553460D01*
X140643036Y-124477473D01*
X140545992Y-124506905D01*
X140315525Y-124613126D01*
X140110209Y-124762268D01*
X139937935Y-124948600D01*
X139805322Y-125164960D01*
X139717467Y-125403035D01*
X139555336Y-125403035D01*
X139552634Y-125389453D01*
X139464625Y-125176981D01*
X139336856Y-124985762D01*
X139174238Y-124823144D01*
X138983019Y-124695375D01*
X138770547Y-124607366D01*
X138544989Y-124562500D01*
X138315011Y-124562500D01*
X138089453Y-124607366D01*
X137876981Y-124695375D01*
X137685762Y-124823144D01*
X137523144Y-124985762D01*
X137395375Y-125176981D01*
X137307366Y-125389453D01*
X137262500Y-125615011D01*
X137057500Y-125615011D01*
X137012634Y-125389453D01*
X136924625Y-125176981D01*
X136796856Y-124985762D01*
X136634238Y-124823144D01*
X136443019Y-124695375D01*
X136230547Y-124607366D01*
X136004989Y-124562500D01*
X135775011Y-124562500D01*
X135549453Y-124607366D01*
X135336981Y-124695375D01*
X135145762Y-124823144D01*
X134983144Y-124985762D01*
X134855375Y-125176981D01*
X134767366Y-125389453D01*
X134722500Y-125615011D01*
X134517500Y-125615011D01*
X134472634Y-125389453D01*
X134384625Y-125176981D01*
X134256856Y-124985762D01*
X134094238Y-124823144D01*
X133903019Y-124695375D01*
X133690547Y-124607366D01*
X133464989Y-124562500D01*
X133235011Y-124562500D01*
X133009453Y-124607366D01*
X132796981Y-124695375D01*
X132605762Y-124823144D01*
X132443144Y-124985762D01*
X132315375Y-125176981D01*
X132227366Y-125389453D01*
X132182500Y-125615011D01*
X131979036Y-125615011D01*
X131979036Y-124880000D01*
X131972906Y-124817759D01*
X131954751Y-124757910D01*
X131925269Y-124702753D01*
X131885593Y-124654407D01*
X131837247Y-124614731D01*
X131782090Y-124585249D01*
X131722241Y-124567094D01*
X131660000Y-124560964D01*
X129960000Y-124560964D01*
X129897759Y-124567094D01*
X129837910Y-124585249D01*
X129782753Y-124614731D01*
X129734407Y-124654407D01*
X129694731Y-124702753D01*
X129665249Y-124757910D01*
X129647094Y-124817759D01*
X129640964Y-124880000D01*
X127177802Y-124880000D01*
X128452886Y-123604916D01*
X128560789Y-123532818D01*
X128688070Y-123507500D01*
X135509000Y-123507500D01*
X135518933Y-123506718D01*
X135636668Y-123488071D01*
X135648713Y-123484928D01*
X135655564Y-123481932D01*
X135761775Y-123427814D01*
X135772259Y-123421102D01*
X135777847Y-123416136D01*
X135862136Y-123331847D01*
X135870033Y-123322225D01*
X135873814Y-123315775D01*
X135927932Y-123209564D01*
X135932469Y-123197972D01*
X135934071Y-123190668D01*
X135952718Y-123072933D01*
X135953500Y-123063000D01*
X135953500Y-120610964D01*
X135958206Y-120611900D01*
X136075786Y-120611900D01*
X136191105Y-120588961D01*
X136299734Y-120543966D01*
X136397497Y-120478642D01*
X136480638Y-120395501D01*
X136545962Y-120297738D01*
X136588498Y-120195046D01*
X136631034Y-120297738D01*
X136696358Y-120395501D01*
X136779499Y-120478642D01*
X136877262Y-120543966D01*
X136985891Y-120588961D01*
X137101210Y-120611900D01*
X137218790Y-120611900D01*
X137334109Y-120588961D01*
X137442738Y-120543966D01*
X137540501Y-120478642D01*
X137554933Y-120464210D01*
X139992100Y-120464210D01*
X139992100Y-120581790D01*
X140015039Y-120697109D01*
X140060034Y-120805738D01*
X140125358Y-120903501D01*
X140208499Y-120986642D01*
X140306262Y-121051966D01*
X140414891Y-121096961D01*
X140530210Y-121119900D01*
X140647790Y-121119900D01*
X140763109Y-121096961D01*
X140871738Y-121051966D01*
X140969501Y-120986642D01*
X141052642Y-120903501D01*
X141117966Y-120805738D01*
X141162961Y-120697109D01*
X141185900Y-120581790D01*
X141185900Y-120464210D01*
X141162961Y-120348891D01*
X141117966Y-120240262D01*
X141052642Y-120142499D01*
X140969501Y-120059358D01*
X140871738Y-119994034D01*
X140763109Y-119949039D01*
X140647790Y-119926100D01*
X140530210Y-119926100D01*
X140414891Y-119949039D01*
X140306262Y-119994034D01*
X140208499Y-120059358D01*
X140125358Y-120142499D01*
X140060034Y-120240262D01*
X140015039Y-120348891D01*
X139992100Y-120464210D01*
X137554933Y-120464210D01*
X137623642Y-120395501D01*
X137688966Y-120297738D01*
X137733961Y-120189109D01*
X137756900Y-120073790D01*
X137756900Y-119956210D01*
X137733961Y-119840891D01*
X137729123Y-119829210D01*
X144437100Y-119829210D01*
X144437100Y-119946790D01*
X144460039Y-120062109D01*
X144505034Y-120170738D01*
X144570358Y-120268501D01*
X144653499Y-120351642D01*
X144751262Y-120416966D01*
X144859891Y-120461961D01*
X144975210Y-120484900D01*
X145092790Y-120484900D01*
X145208109Y-120461961D01*
X145316738Y-120416966D01*
X145414501Y-120351642D01*
X145497642Y-120268501D01*
X145562966Y-120170738D01*
X145607961Y-120062109D01*
X145630900Y-119946790D01*
X145630900Y-119829210D01*
X145607961Y-119713891D01*
X145562966Y-119605262D01*
X145497642Y-119507499D01*
X145414501Y-119424358D01*
X145316738Y-119359034D01*
X145208109Y-119314039D01*
X145092790Y-119291100D01*
X144975210Y-119291100D01*
X144859891Y-119314039D01*
X144751262Y-119359034D01*
X144653499Y-119424358D01*
X144570358Y-119507499D01*
X144505034Y-119605262D01*
X144460039Y-119713891D01*
X144437100Y-119829210D01*
X137729123Y-119829210D01*
X137688966Y-119732262D01*
X137623642Y-119634499D01*
X137540501Y-119551358D01*
X137442738Y-119486034D01*
X137334109Y-119441039D01*
X137218790Y-119418100D01*
X137101210Y-119418100D01*
X136985891Y-119441039D01*
X136877262Y-119486034D01*
X136779499Y-119551358D01*
X136696358Y-119634499D01*
X136631034Y-119732262D01*
X136588498Y-119834954D01*
X136545962Y-119732262D01*
X136480638Y-119634499D01*
X136397497Y-119551358D01*
X136299734Y-119486034D01*
X136191105Y-119441039D01*
X136075786Y-119418100D01*
X135958206Y-119418100D01*
X135953500Y-119419036D01*
X135953500Y-118813210D01*
X137198100Y-118813210D01*
X137198100Y-118930790D01*
X137221039Y-119046109D01*
X137266034Y-119154738D01*
X137331358Y-119252501D01*
X137414499Y-119335642D01*
X137512262Y-119400966D01*
X137620891Y-119445961D01*
X137736210Y-119468900D01*
X137853790Y-119468900D01*
X137969109Y-119445961D01*
X138077738Y-119400966D01*
X138175501Y-119335642D01*
X138258642Y-119252501D01*
X138323966Y-119154738D01*
X138368961Y-119046109D01*
X138391900Y-118930790D01*
X138391900Y-118813210D01*
X138368961Y-118697891D01*
X138364123Y-118686210D01*
X142913100Y-118686210D01*
X142913100Y-118803790D01*
X142936039Y-118919109D01*
X142981034Y-119027738D01*
X143046358Y-119125501D01*
X143129499Y-119208642D01*
X143227262Y-119273966D01*
X143335891Y-119318961D01*
X143451210Y-119341900D01*
X143568790Y-119341900D01*
X143684109Y-119318961D01*
X143792738Y-119273966D01*
X143890501Y-119208642D01*
X143973642Y-119125501D01*
X144038966Y-119027738D01*
X144083961Y-118919109D01*
X144106900Y-118803790D01*
X144106900Y-118686210D01*
X144083961Y-118570891D01*
X144038966Y-118462262D01*
X143973642Y-118364499D01*
X143890501Y-118281358D01*
X143792738Y-118216034D01*
X143684109Y-118171039D01*
X143568790Y-118148100D01*
X143451210Y-118148100D01*
X143335891Y-118171039D01*
X143227262Y-118216034D01*
X143129499Y-118281358D01*
X143046358Y-118364499D01*
X142981034Y-118462262D01*
X142936039Y-118570891D01*
X142913100Y-118686210D01*
X138364123Y-118686210D01*
X138323966Y-118589262D01*
X138258642Y-118491499D01*
X138175501Y-118408358D01*
X138077738Y-118343034D01*
X137969109Y-118298039D01*
X137853790Y-118275100D01*
X137736210Y-118275100D01*
X137620891Y-118298039D01*
X137512262Y-118343034D01*
X137414499Y-118408358D01*
X137331358Y-118491499D01*
X137266034Y-118589262D01*
X137221039Y-118697891D01*
X137198100Y-118813210D01*
X135953500Y-118813210D01*
X135953500Y-117162210D01*
X137960100Y-117162210D01*
X137960100Y-117279790D01*
X137983039Y-117395109D01*
X138028034Y-117503738D01*
X138093358Y-117601501D01*
X138176499Y-117684642D01*
X138274262Y-117749966D01*
X138382891Y-117794961D01*
X138498210Y-117817900D01*
X138615790Y-117817900D01*
X138731109Y-117794961D01*
X138839738Y-117749966D01*
X138937501Y-117684642D01*
X139020642Y-117601501D01*
X139085966Y-117503738D01*
X139130961Y-117395109D01*
X139153900Y-117279790D01*
X139153900Y-117162210D01*
X139130961Y-117046891D01*
X139085966Y-116938262D01*
X139020642Y-116840499D01*
X138937501Y-116757358D01*
X138839738Y-116692034D01*
X138731109Y-116647039D01*
X138615790Y-116624100D01*
X138498210Y-116624100D01*
X138382891Y-116647039D01*
X138274262Y-116692034D01*
X138176499Y-116757358D01*
X138093358Y-116840499D01*
X138028034Y-116938262D01*
X137983039Y-117046891D01*
X137960100Y-117162210D01*
X135953500Y-117162210D01*
X135953500Y-116604643D01*
X136017499Y-116668642D01*
X136115262Y-116733966D01*
X136223891Y-116778961D01*
X136339210Y-116801900D01*
X136456790Y-116801900D01*
X136572109Y-116778961D01*
X136680738Y-116733966D01*
X136778501Y-116668642D01*
X136861642Y-116585501D01*
X136926966Y-116487738D01*
X136971961Y-116379109D01*
X136994900Y-116263790D01*
X136994900Y-116146210D01*
X139611100Y-116146210D01*
X139611100Y-116263790D01*
X139634039Y-116379109D01*
X139679034Y-116487738D01*
X139744358Y-116585501D01*
X139827499Y-116668642D01*
X139925262Y-116733966D01*
X140033891Y-116778961D01*
X140149210Y-116801900D01*
X140266790Y-116801900D01*
X140382109Y-116778961D01*
X140490738Y-116733966D01*
X140588501Y-116668642D01*
X140671642Y-116585501D01*
X140736966Y-116487738D01*
X140781961Y-116379109D01*
X140804900Y-116263790D01*
X140804900Y-116146210D01*
X141389100Y-116146210D01*
X141389100Y-116263790D01*
X141412039Y-116379109D01*
X141457034Y-116487738D01*
X141522358Y-116585501D01*
X141605499Y-116668642D01*
X141703262Y-116733966D01*
X141811891Y-116778961D01*
X141927210Y-116801900D01*
X142044790Y-116801900D01*
X142160109Y-116778961D01*
X142268738Y-116733966D01*
X142366501Y-116668642D01*
X142449642Y-116585501D01*
X142514966Y-116487738D01*
X142559961Y-116379109D01*
X142582900Y-116263790D01*
X142582900Y-116146210D01*
X142559961Y-116030891D01*
X142552275Y-116012336D01*
X142649738Y-115971966D01*
X142747501Y-115906642D01*
X142830642Y-115823501D01*
X142895966Y-115725738D01*
X142940961Y-115617109D01*
X142963900Y-115501790D01*
X142963900Y-115384210D01*
X143040100Y-115384210D01*
X143040100Y-115501790D01*
X143063039Y-115617109D01*
X143108034Y-115725738D01*
X143173358Y-115823501D01*
X143256499Y-115906642D01*
X143354262Y-115971966D01*
X143462891Y-116016961D01*
X143578210Y-116039900D01*
X143695790Y-116039900D01*
X143811109Y-116016961D01*
X143919738Y-115971966D01*
X144017501Y-115906642D01*
X144100642Y-115823501D01*
X144165966Y-115725738D01*
X144210961Y-115617109D01*
X144233900Y-115501790D01*
X144233900Y-115384210D01*
X144210961Y-115268891D01*
X144165966Y-115160262D01*
X144100642Y-115062499D01*
X144017501Y-114979358D01*
X143919738Y-114914034D01*
X143811109Y-114869039D01*
X143695790Y-114846100D01*
X143578210Y-114846100D01*
X143462891Y-114869039D01*
X143354262Y-114914034D01*
X143256499Y-114979358D01*
X143173358Y-115062499D01*
X143108034Y-115160262D01*
X143063039Y-115268891D01*
X143040100Y-115384210D01*
X142963900Y-115384210D01*
X142940961Y-115268891D01*
X142895966Y-115160262D01*
X142830642Y-115062499D01*
X142747501Y-114979358D01*
X142649738Y-114914034D01*
X142541109Y-114869039D01*
X142425790Y-114846100D01*
X142308210Y-114846100D01*
X142192891Y-114869039D01*
X142084262Y-114914034D01*
X141986499Y-114979358D01*
X141903358Y-115062499D01*
X141838034Y-115160262D01*
X141793039Y-115268891D01*
X141770100Y-115384210D01*
X141770100Y-115501790D01*
X141793039Y-115617109D01*
X141800725Y-115635664D01*
X141703262Y-115676034D01*
X141605499Y-115741358D01*
X141522358Y-115824499D01*
X141457034Y-115922262D01*
X141412039Y-116030891D01*
X141389100Y-116146210D01*
X140804900Y-116146210D01*
X140781961Y-116030891D01*
X140736966Y-115922262D01*
X140671642Y-115824499D01*
X140588501Y-115741358D01*
X140490738Y-115676034D01*
X140382109Y-115631039D01*
X140266790Y-115608100D01*
X140149210Y-115608100D01*
X140033891Y-115631039D01*
X139925262Y-115676034D01*
X139827499Y-115741358D01*
X139744358Y-115824499D01*
X139679034Y-115922262D01*
X139634039Y-116030891D01*
X139611100Y-116146210D01*
X136994900Y-116146210D01*
X136971961Y-116030891D01*
X136926966Y-115922262D01*
X136861642Y-115824499D01*
X136778501Y-115741358D01*
X136680738Y-115676034D01*
X136572109Y-115631039D01*
X136456790Y-115608100D01*
X136339210Y-115608100D01*
X136223891Y-115631039D01*
X136115262Y-115676034D01*
X136017499Y-115741358D01*
X135953500Y-115805357D01*
X135953500Y-114114210D01*
X141770100Y-114114210D01*
X141770100Y-114231790D01*
X141793039Y-114347109D01*
X141838034Y-114455738D01*
X141903358Y-114553501D01*
X141986499Y-114636642D01*
X142084262Y-114701966D01*
X142192891Y-114746961D01*
X142308210Y-114769900D01*
X142425790Y-114769900D01*
X142541109Y-114746961D01*
X142649738Y-114701966D01*
X142747501Y-114636642D01*
X142830642Y-114553501D01*
X142895966Y-114455738D01*
X142940961Y-114347109D01*
X142963900Y-114231790D01*
X142963900Y-114114210D01*
X143040100Y-114114210D01*
X143040100Y-114231790D01*
X143063039Y-114347109D01*
X143108034Y-114455738D01*
X143173358Y-114553501D01*
X143256499Y-114636642D01*
X143354262Y-114701966D01*
X143462891Y-114746961D01*
X143578210Y-114769900D01*
X143695790Y-114769900D01*
X143811109Y-114746961D01*
X143919738Y-114701966D01*
X144017501Y-114636642D01*
X144100642Y-114553501D01*
X144165966Y-114455738D01*
X144210961Y-114347109D01*
X144233900Y-114231790D01*
X144233900Y-114114210D01*
X144210961Y-113998891D01*
X144165966Y-113890262D01*
X144100642Y-113792499D01*
X144017501Y-113709358D01*
X143919738Y-113644034D01*
X143811109Y-113599039D01*
X143695790Y-113576100D01*
X143578210Y-113576100D01*
X143462891Y-113599039D01*
X143354262Y-113644034D01*
X143256499Y-113709358D01*
X143173358Y-113792499D01*
X143108034Y-113890262D01*
X143063039Y-113998891D01*
X143040100Y-114114210D01*
X142963900Y-114114210D01*
X142940961Y-113998891D01*
X142895966Y-113890262D01*
X142830642Y-113792499D01*
X142747501Y-113709358D01*
X142649738Y-113644034D01*
X142541109Y-113599039D01*
X142425790Y-113576100D01*
X142308210Y-113576100D01*
X142192891Y-113599039D01*
X142084262Y-113644034D01*
X141986499Y-113709358D01*
X141903358Y-113792499D01*
X141838034Y-113890262D01*
X141793039Y-113998891D01*
X141770100Y-114114210D01*
X135953500Y-114114210D01*
X135953500Y-107319996D01*
X135969791Y-107217134D01*
X136014779Y-107128842D01*
X136084842Y-107058779D01*
X136173134Y-107013791D01*
X136275996Y-106997500D01*
X142583930Y-106997500D01*
X142711211Y-107022818D01*
G37*
X142711211Y-107022818D02*
X142819114Y-107094916D01*
X146909507Y-111185309D01*
X146919129Y-111193206D01*
X147042734Y-111275796D01*
X147053713Y-111281664D01*
X147065625Y-111285278D01*
X147211427Y-111314280D01*
X147223815Y-111315500D01*
X150490004Y-111315500D01*
X150592866Y-111331791D01*
X150681158Y-111376779D01*
X150751221Y-111446842D01*
X150796209Y-111535134D01*
X150812500Y-111637996D01*
X150812500Y-127122004D01*
X150796209Y-127224866D01*
X150751221Y-127313158D01*
X150681158Y-127383221D01*
X150592866Y-127428209D01*
X150490004Y-127444500D01*
X146939000Y-127444500D01*
X146929067Y-127445282D01*
X146811332Y-127463929D01*
X146799287Y-127467072D01*
X146792436Y-127470068D01*
X146686225Y-127524186D01*
X146675741Y-127530898D01*
X146670153Y-127535864D01*
X146585864Y-127620153D01*
X146577967Y-127629775D01*
X146574186Y-127636225D01*
X146520068Y-127742436D01*
X146515531Y-127754028D01*
X146513929Y-127761332D01*
X146495282Y-127879067D01*
X146494500Y-127889000D01*
X146494500Y-131186004D01*
X146478209Y-131288866D01*
X146433221Y-131377158D01*
X146363158Y-131447221D01*
X146274866Y-131492209D01*
X146172004Y-131508500D01*
X126369996Y-131508500D01*
X126267134Y-131492209D01*
X126178842Y-131447221D01*
X126108779Y-131377158D01*
X126063791Y-131288866D01*
X126047500Y-131186004D01*
X126047500Y-127420000D01*
X129640964Y-127420000D01*
X129640964Y-129120000D01*
X129647094Y-129182241D01*
X129665249Y-129242090D01*
X129694731Y-129297247D01*
X129734407Y-129345593D01*
X129782753Y-129385269D01*
X129837910Y-129414751D01*
X129897759Y-129432906D01*
X129960000Y-129439036D01*
X131660000Y-129439036D01*
X131722241Y-129432906D01*
X131782090Y-129414751D01*
X131837247Y-129385269D01*
X131885593Y-129345593D01*
X131925269Y-129297247D01*
X131954751Y-129242090D01*
X131972906Y-129182241D01*
X131979036Y-129120000D01*
X131979036Y-128155011D01*
X132182500Y-128155011D01*
X132182500Y-128384989D01*
X132227366Y-128610547D01*
X132315375Y-128823019D01*
X132443144Y-129014238D01*
X132605762Y-129176856D01*
X132796981Y-129304625D01*
X133009453Y-129392634D01*
X133235011Y-129437500D01*
X133464989Y-129437500D01*
X133690547Y-129392634D01*
X133903019Y-129304625D01*
X134094238Y-129176856D01*
X134256856Y-129014238D01*
X134384625Y-128823019D01*
X134472634Y-128610547D01*
X134517500Y-128384989D01*
X134517500Y-128155011D01*
X134722500Y-128155011D01*
X134722500Y-128384989D01*
X134767366Y-128610547D01*
X134855375Y-128823019D01*
X134983144Y-129014238D01*
X135145762Y-129176856D01*
X135336981Y-129304625D01*
X135549453Y-129392634D01*
X135775011Y-129437500D01*
X136004989Y-129437500D01*
X136230547Y-129392634D01*
X136443019Y-129304625D01*
X136634238Y-129176856D01*
X136796856Y-129014238D01*
X136924625Y-128823019D01*
X137012634Y-128610547D01*
X137057500Y-128384989D01*
X137057500Y-128155011D01*
X137262500Y-128155011D01*
X137262500Y-128384989D01*
X137307366Y-128610547D01*
X137395375Y-128823019D01*
X137523144Y-129014238D01*
X137685762Y-129176856D01*
X137876981Y-129304625D01*
X138089453Y-129392634D01*
X138315011Y-129437500D01*
X138544989Y-129437500D01*
X138770547Y-129392634D01*
X138983019Y-129304625D01*
X139174238Y-129176856D01*
X139336856Y-129014238D01*
X139464625Y-128823019D01*
X139552634Y-128610547D01*
X139555335Y-128596965D01*
X139717467Y-128596965D01*
X139805322Y-128835040D01*
X139937935Y-129051400D01*
X140110209Y-129237732D01*
X140315525Y-129386874D01*
X140545992Y-129493095D01*
X140643036Y-129522527D01*
X140843000Y-129446540D01*
X140843000Y-128397000D01*
X141097000Y-128397000D01*
X141097000Y-129446540D01*
X141296964Y-129522527D01*
X141394008Y-129493095D01*
X141624475Y-129386874D01*
X141829791Y-129237732D01*
X142002065Y-129051400D01*
X142134678Y-128835040D01*
X142222533Y-128596965D01*
X142147136Y-128397000D01*
X141097000Y-128397000D01*
X140843000Y-128397000D01*
X139792864Y-128397000D01*
X139717467Y-128596965D01*
X139555335Y-128596965D01*
X139597500Y-128384989D01*
X139597500Y-128155011D01*
X142342500Y-128155011D01*
X142342500Y-128384989D01*
X142387366Y-128610547D01*
X142475375Y-128823019D01*
X142603144Y-129014238D01*
X142765762Y-129176856D01*
X142956981Y-129304625D01*
X143169453Y-129392634D01*
X143395011Y-129437500D01*
X143624989Y-129437500D01*
X143850547Y-129392634D01*
X144063019Y-129304625D01*
X144254238Y-129176856D01*
X144416856Y-129014238D01*
X144544625Y-128823019D01*
X144632634Y-128610547D01*
X144677500Y-128384989D01*
X144677500Y-128155011D01*
X144632634Y-127929453D01*
X144544625Y-127716981D01*
X144416856Y-127525762D01*
X144254238Y-127363144D01*
X144063019Y-127235375D01*
X143850547Y-127147366D01*
X143624989Y-127102500D01*
X143395011Y-127102500D01*
X143169453Y-127147366D01*
X142956981Y-127235375D01*
X142765762Y-127363144D01*
X142603144Y-127525762D01*
X142475375Y-127716981D01*
X142387366Y-127929453D01*
X142342500Y-128155011D01*
X139597500Y-128155011D01*
X139555336Y-127943035D01*
X139717467Y-127943035D01*
X139792864Y-128143000D01*
X140843000Y-128143000D01*
X140843000Y-127093460D01*
X141097000Y-127093460D01*
X141097000Y-128143000D01*
X142147136Y-128143000D01*
X142222533Y-127943035D01*
X142134678Y-127704960D01*
X142002065Y-127488600D01*
X141829791Y-127302268D01*
X141624475Y-127153126D01*
X141394008Y-127046905D01*
X141296964Y-127017473D01*
X141097000Y-127093460D01*
X140843000Y-127093460D01*
X140643036Y-127017473D01*
X140545992Y-127046905D01*
X140315525Y-127153126D01*
X140110209Y-127302268D01*
X139937935Y-127488600D01*
X139805322Y-127704960D01*
X139717467Y-127943035D01*
X139555336Y-127943035D01*
X139552634Y-127929453D01*
X139464625Y-127716981D01*
X139336856Y-127525762D01*
X139174238Y-127363144D01*
X138983019Y-127235375D01*
X138770547Y-127147366D01*
X138544989Y-127102500D01*
X138315011Y-127102500D01*
X138089453Y-127147366D01*
X137876981Y-127235375D01*
X137685762Y-127363144D01*
X137523144Y-127525762D01*
X137395375Y-127716981D01*
X137307366Y-127929453D01*
X137262500Y-128155011D01*
X137057500Y-128155011D01*
X137012634Y-127929453D01*
X136924625Y-127716981D01*
X136796856Y-127525762D01*
X136634238Y-127363144D01*
X136443019Y-127235375D01*
X136230547Y-127147366D01*
X136004989Y-127102500D01*
X135775011Y-127102500D01*
X135549453Y-127147366D01*
X135336981Y-127235375D01*
X135145762Y-127363144D01*
X134983144Y-127525762D01*
X134855375Y-127716981D01*
X134767366Y-127929453D01*
X134722500Y-128155011D01*
X134517500Y-128155011D01*
X134472634Y-127929453D01*
X134384625Y-127716981D01*
X134256856Y-127525762D01*
X134094238Y-127363144D01*
X133903019Y-127235375D01*
X133690547Y-127147366D01*
X133464989Y-127102500D01*
X133235011Y-127102500D01*
X133009453Y-127147366D01*
X132796981Y-127235375D01*
X132605762Y-127363144D01*
X132443144Y-127525762D01*
X132315375Y-127716981D01*
X132227366Y-127929453D01*
X132182500Y-128155011D01*
X131979036Y-128155011D01*
X131979036Y-127420000D01*
X131972906Y-127357759D01*
X131954751Y-127297910D01*
X131925269Y-127242753D01*
X131885593Y-127194407D01*
X131837247Y-127154731D01*
X131782090Y-127125249D01*
X131722241Y-127107094D01*
X131660000Y-127100964D01*
X129960000Y-127100964D01*
X129897759Y-127107094D01*
X129837910Y-127125249D01*
X129782753Y-127154731D01*
X129734407Y-127194407D01*
X129694731Y-127242753D01*
X129665249Y-127297910D01*
X129647094Y-127357759D01*
X129640964Y-127420000D01*
X126047500Y-127420000D01*
X126047500Y-126148070D01*
X126072818Y-126020789D01*
X126144916Y-125912886D01*
X127177802Y-124880000D01*
X129640964Y-124880000D01*
X129640964Y-126580000D01*
X129647094Y-126642241D01*
X129665249Y-126702090D01*
X129694731Y-126757247D01*
X129734407Y-126805593D01*
X129782753Y-126845269D01*
X129837910Y-126874751D01*
X129897759Y-126892906D01*
X129960000Y-126899036D01*
X131660000Y-126899036D01*
X131722241Y-126892906D01*
X131782090Y-126874751D01*
X131837247Y-126845269D01*
X131885593Y-126805593D01*
X131925269Y-126757247D01*
X131954751Y-126702090D01*
X131972906Y-126642241D01*
X131979036Y-126580000D01*
X131979036Y-125615011D01*
X132182500Y-125615011D01*
X132182500Y-125844989D01*
X132227366Y-126070547D01*
X132315375Y-126283019D01*
X132443144Y-126474238D01*
X132605762Y-126636856D01*
X132796981Y-126764625D01*
X133009453Y-126852634D01*
X133235011Y-126897500D01*
X133464989Y-126897500D01*
X133690547Y-126852634D01*
X133903019Y-126764625D01*
X134094238Y-126636856D01*
X134256856Y-126474238D01*
X134384625Y-126283019D01*
X134472634Y-126070547D01*
X134517500Y-125844989D01*
X134517500Y-125615011D01*
X134722500Y-125615011D01*
X134722500Y-125844989D01*
X134767366Y-126070547D01*
X134855375Y-126283019D01*
X134983144Y-126474238D01*
X135145762Y-126636856D01*
X135336981Y-126764625D01*
X135549453Y-126852634D01*
X135775011Y-126897500D01*
X136004989Y-126897500D01*
X136230547Y-126852634D01*
X136443019Y-126764625D01*
X136634238Y-126636856D01*
X136796856Y-126474238D01*
X136924625Y-126283019D01*
X137012634Y-126070547D01*
X137057500Y-125844989D01*
X137057500Y-125615011D01*
X137262500Y-125615011D01*
X137262500Y-125844989D01*
X137307366Y-126070547D01*
X137395375Y-126283019D01*
X137523144Y-126474238D01*
X137685762Y-126636856D01*
X137876981Y-126764625D01*
X138089453Y-126852634D01*
X138315011Y-126897500D01*
X138544989Y-126897500D01*
X138770547Y-126852634D01*
X138983019Y-126764625D01*
X139174238Y-126636856D01*
X139336856Y-126474238D01*
X139464625Y-126283019D01*
X139552634Y-126070547D01*
X139555335Y-126056965D01*
X139717467Y-126056965D01*
X139805322Y-126295040D01*
X139937935Y-126511400D01*
X140110209Y-126697732D01*
X140315525Y-126846874D01*
X140545992Y-126953095D01*
X140643036Y-126982527D01*
X140843000Y-126906540D01*
X140843000Y-125857000D01*
X141097000Y-125857000D01*
X141097000Y-126906540D01*
X141296964Y-126982527D01*
X141394008Y-126953095D01*
X141624475Y-126846874D01*
X141829791Y-126697732D01*
X142002065Y-126511400D01*
X142134678Y-126295040D01*
X142222533Y-126056965D01*
X142147136Y-125857000D01*
X141097000Y-125857000D01*
X140843000Y-125857000D01*
X139792864Y-125857000D01*
X139717467Y-126056965D01*
X139555335Y-126056965D01*
X139597500Y-125844989D01*
X139597500Y-125615011D01*
X142342500Y-125615011D01*
X142342500Y-125844989D01*
X142387366Y-126070547D01*
X142475375Y-126283019D01*
X142603144Y-126474238D01*
X142765762Y-126636856D01*
X142956981Y-126764625D01*
X143169453Y-126852634D01*
X143395011Y-126897500D01*
X143624989Y-126897500D01*
X143850547Y-126852634D01*
X144063019Y-126764625D01*
X144254238Y-126636856D01*
X144416856Y-126474238D01*
X144544625Y-126283019D01*
X144632634Y-126070547D01*
X144677500Y-125844989D01*
X144677500Y-125615011D01*
X144632634Y-125389453D01*
X144544625Y-125176981D01*
X144416856Y-124985762D01*
X144254238Y-124823144D01*
X144063019Y-124695375D01*
X143850547Y-124607366D01*
X143624989Y-124562500D01*
X143395011Y-124562500D01*
X143169453Y-124607366D01*
X142956981Y-124695375D01*
X142765762Y-124823144D01*
X142603144Y-124985762D01*
X142475375Y-125176981D01*
X142387366Y-125389453D01*
X142342500Y-125615011D01*
X139597500Y-125615011D01*
X139555336Y-125403035D01*
X139717467Y-125403035D01*
X139792864Y-125603000D01*
X140843000Y-125603000D01*
X140843000Y-124553460D01*
X141097000Y-124553460D01*
X141097000Y-125603000D01*
X142147136Y-125603000D01*
X142222533Y-125403035D01*
X142134678Y-125164960D01*
X142002065Y-124948600D01*
X141829791Y-124762268D01*
X141624475Y-124613126D01*
X141394008Y-124506905D01*
X141296964Y-124477473D01*
X141097000Y-124553460D01*
X140843000Y-124553460D01*
X140643036Y-124477473D01*
X140545992Y-124506905D01*
X140315525Y-124613126D01*
X140110209Y-124762268D01*
X139937935Y-124948600D01*
X139805322Y-125164960D01*
X139717467Y-125403035D01*
X139555336Y-125403035D01*
X139552634Y-125389453D01*
X139464625Y-125176981D01*
X139336856Y-124985762D01*
X139174238Y-124823144D01*
X138983019Y-124695375D01*
X138770547Y-124607366D01*
X138544989Y-124562500D01*
X138315011Y-124562500D01*
X138089453Y-124607366D01*
X137876981Y-124695375D01*
X137685762Y-124823144D01*
X137523144Y-124985762D01*
X137395375Y-125176981D01*
X137307366Y-125389453D01*
X137262500Y-125615011D01*
X137057500Y-125615011D01*
X137012634Y-125389453D01*
X136924625Y-125176981D01*
X136796856Y-124985762D01*
X136634238Y-124823144D01*
X136443019Y-124695375D01*
X136230547Y-124607366D01*
X136004989Y-124562500D01*
X135775011Y-124562500D01*
X135549453Y-124607366D01*
X135336981Y-124695375D01*
X135145762Y-124823144D01*
X134983144Y-124985762D01*
X134855375Y-125176981D01*
X134767366Y-125389453D01*
X134722500Y-125615011D01*
X134517500Y-125615011D01*
X134472634Y-125389453D01*
X134384625Y-125176981D01*
X134256856Y-124985762D01*
X134094238Y-124823144D01*
X133903019Y-124695375D01*
X133690547Y-124607366D01*
X133464989Y-124562500D01*
X133235011Y-124562500D01*
X133009453Y-124607366D01*
X132796981Y-124695375D01*
X132605762Y-124823144D01*
X132443144Y-124985762D01*
X132315375Y-125176981D01*
X132227366Y-125389453D01*
X132182500Y-125615011D01*
X131979036Y-125615011D01*
X131979036Y-124880000D01*
X131972906Y-124817759D01*
X131954751Y-124757910D01*
X131925269Y-124702753D01*
X131885593Y-124654407D01*
X131837247Y-124614731D01*
X131782090Y-124585249D01*
X131722241Y-124567094D01*
X131660000Y-124560964D01*
X129960000Y-124560964D01*
X129897759Y-124567094D01*
X129837910Y-124585249D01*
X129782753Y-124614731D01*
X129734407Y-124654407D01*
X129694731Y-124702753D01*
X129665249Y-124757910D01*
X129647094Y-124817759D01*
X129640964Y-124880000D01*
X127177802Y-124880000D01*
X128452886Y-123604916D01*
X128560789Y-123532818D01*
X128688070Y-123507500D01*
X135509000Y-123507500D01*
X135518933Y-123506718D01*
X135636668Y-123488071D01*
X135648713Y-123484928D01*
X135655564Y-123481932D01*
X135761775Y-123427814D01*
X135772259Y-123421102D01*
X135777847Y-123416136D01*
X135862136Y-123331847D01*
X135870033Y-123322225D01*
X135873814Y-123315775D01*
X135927932Y-123209564D01*
X135932469Y-123197972D01*
X135934071Y-123190668D01*
X135952718Y-123072933D01*
X135953500Y-123063000D01*
X135953500Y-120610964D01*
X135958206Y-120611900D01*
X136075786Y-120611900D01*
X136191105Y-120588961D01*
X136299734Y-120543966D01*
X136397497Y-120478642D01*
X136480638Y-120395501D01*
X136545962Y-120297738D01*
X136588498Y-120195046D01*
X136631034Y-120297738D01*
X136696358Y-120395501D01*
X136779499Y-120478642D01*
X136877262Y-120543966D01*
X136985891Y-120588961D01*
X137101210Y-120611900D01*
X137218790Y-120611900D01*
X137334109Y-120588961D01*
X137442738Y-120543966D01*
X137540501Y-120478642D01*
X137554933Y-120464210D01*
X139992100Y-120464210D01*
X139992100Y-120581790D01*
X140015039Y-120697109D01*
X140060034Y-120805738D01*
X140125358Y-120903501D01*
X140208499Y-120986642D01*
X140306262Y-121051966D01*
X140414891Y-121096961D01*
X140530210Y-121119900D01*
X140647790Y-121119900D01*
X140763109Y-121096961D01*
X140871738Y-121051966D01*
X140969501Y-120986642D01*
X141052642Y-120903501D01*
X141117966Y-120805738D01*
X141162961Y-120697109D01*
X141185900Y-120581790D01*
X141185900Y-120464210D01*
X141162961Y-120348891D01*
X141117966Y-120240262D01*
X141052642Y-120142499D01*
X140969501Y-120059358D01*
X140871738Y-119994034D01*
X140763109Y-119949039D01*
X140647790Y-119926100D01*
X140530210Y-119926100D01*
X140414891Y-119949039D01*
X140306262Y-119994034D01*
X140208499Y-120059358D01*
X140125358Y-120142499D01*
X140060034Y-120240262D01*
X140015039Y-120348891D01*
X139992100Y-120464210D01*
X137554933Y-120464210D01*
X137623642Y-120395501D01*
X137688966Y-120297738D01*
X137733961Y-120189109D01*
X137756900Y-120073790D01*
X137756900Y-119956210D01*
X137733961Y-119840891D01*
X137729123Y-119829210D01*
X144437100Y-119829210D01*
X144437100Y-119946790D01*
X144460039Y-120062109D01*
X144505034Y-120170738D01*
X144570358Y-120268501D01*
X144653499Y-120351642D01*
X144751262Y-120416966D01*
X144859891Y-120461961D01*
X144975210Y-120484900D01*
X145092790Y-120484900D01*
X145208109Y-120461961D01*
X145316738Y-120416966D01*
X145414501Y-120351642D01*
X145497642Y-120268501D01*
X145562966Y-120170738D01*
X145607961Y-120062109D01*
X145630900Y-119946790D01*
X145630900Y-119829210D01*
X145607961Y-119713891D01*
X145562966Y-119605262D01*
X145497642Y-119507499D01*
X145414501Y-119424358D01*
X145316738Y-119359034D01*
X145208109Y-119314039D01*
X145092790Y-119291100D01*
X144975210Y-119291100D01*
X144859891Y-119314039D01*
X144751262Y-119359034D01*
X144653499Y-119424358D01*
X144570358Y-119507499D01*
X144505034Y-119605262D01*
X144460039Y-119713891D01*
X144437100Y-119829210D01*
X137729123Y-119829210D01*
X137688966Y-119732262D01*
X137623642Y-119634499D01*
X137540501Y-119551358D01*
X137442738Y-119486034D01*
X137334109Y-119441039D01*
X137218790Y-119418100D01*
X137101210Y-119418100D01*
X136985891Y-119441039D01*
X136877262Y-119486034D01*
X136779499Y-119551358D01*
X136696358Y-119634499D01*
X136631034Y-119732262D01*
X136588498Y-119834954D01*
X136545962Y-119732262D01*
X136480638Y-119634499D01*
X136397497Y-119551358D01*
X136299734Y-119486034D01*
X136191105Y-119441039D01*
X136075786Y-119418100D01*
X135958206Y-119418100D01*
X135953500Y-119419036D01*
X135953500Y-118813210D01*
X137198100Y-118813210D01*
X137198100Y-118930790D01*
X137221039Y-119046109D01*
X137266034Y-119154738D01*
X137331358Y-119252501D01*
X137414499Y-119335642D01*
X137512262Y-119400966D01*
X137620891Y-119445961D01*
X137736210Y-119468900D01*
X137853790Y-119468900D01*
X137969109Y-119445961D01*
X138077738Y-119400966D01*
X138175501Y-119335642D01*
X138258642Y-119252501D01*
X138323966Y-119154738D01*
X138368961Y-119046109D01*
X138391900Y-118930790D01*
X138391900Y-118813210D01*
X138368961Y-118697891D01*
X138364123Y-118686210D01*
X142913100Y-118686210D01*
X142913100Y-118803790D01*
X142936039Y-118919109D01*
X142981034Y-119027738D01*
X143046358Y-119125501D01*
X143129499Y-119208642D01*
X143227262Y-119273966D01*
X143335891Y-119318961D01*
X143451210Y-119341900D01*
X143568790Y-119341900D01*
X143684109Y-119318961D01*
X143792738Y-119273966D01*
X143890501Y-119208642D01*
X143973642Y-119125501D01*
X144038966Y-119027738D01*
X144083961Y-118919109D01*
X144106900Y-118803790D01*
X144106900Y-118686210D01*
X144083961Y-118570891D01*
X144038966Y-118462262D01*
X143973642Y-118364499D01*
X143890501Y-118281358D01*
X143792738Y-118216034D01*
X143684109Y-118171039D01*
X143568790Y-118148100D01*
X143451210Y-118148100D01*
X143335891Y-118171039D01*
X143227262Y-118216034D01*
X143129499Y-118281358D01*
X143046358Y-118364499D01*
X142981034Y-118462262D01*
X142936039Y-118570891D01*
X142913100Y-118686210D01*
X138364123Y-118686210D01*
X138323966Y-118589262D01*
X138258642Y-118491499D01*
X138175501Y-118408358D01*
X138077738Y-118343034D01*
X137969109Y-118298039D01*
X137853790Y-118275100D01*
X137736210Y-118275100D01*
X137620891Y-118298039D01*
X137512262Y-118343034D01*
X137414499Y-118408358D01*
X137331358Y-118491499D01*
X137266034Y-118589262D01*
X137221039Y-118697891D01*
X137198100Y-118813210D01*
X135953500Y-118813210D01*
X135953500Y-117162210D01*
X137960100Y-117162210D01*
X137960100Y-117279790D01*
X137983039Y-117395109D01*
X138028034Y-117503738D01*
X138093358Y-117601501D01*
X138176499Y-117684642D01*
X138274262Y-117749966D01*
X138382891Y-117794961D01*
X138498210Y-117817900D01*
X138615790Y-117817900D01*
X138731109Y-117794961D01*
X138839738Y-117749966D01*
X138937501Y-117684642D01*
X139020642Y-117601501D01*
X139085966Y-117503738D01*
X139130961Y-117395109D01*
X139153900Y-117279790D01*
X139153900Y-117162210D01*
X139130961Y-117046891D01*
X139085966Y-116938262D01*
X139020642Y-116840499D01*
X138937501Y-116757358D01*
X138839738Y-116692034D01*
X138731109Y-116647039D01*
X138615790Y-116624100D01*
X138498210Y-116624100D01*
X138382891Y-116647039D01*
X138274262Y-116692034D01*
X138176499Y-116757358D01*
X138093358Y-116840499D01*
X138028034Y-116938262D01*
X137983039Y-117046891D01*
X137960100Y-117162210D01*
X135953500Y-117162210D01*
X135953500Y-116604643D01*
X136017499Y-116668642D01*
X136115262Y-116733966D01*
X136223891Y-116778961D01*
X136339210Y-116801900D01*
X136456790Y-116801900D01*
X136572109Y-116778961D01*
X136680738Y-116733966D01*
X136778501Y-116668642D01*
X136861642Y-116585501D01*
X136926966Y-116487738D01*
X136971961Y-116379109D01*
X136994900Y-116263790D01*
X136994900Y-116146210D01*
X139611100Y-116146210D01*
X139611100Y-116263790D01*
X139634039Y-116379109D01*
X139679034Y-116487738D01*
X139744358Y-116585501D01*
X139827499Y-116668642D01*
X139925262Y-116733966D01*
X140033891Y-116778961D01*
X140149210Y-116801900D01*
X140266790Y-116801900D01*
X140382109Y-116778961D01*
X140490738Y-116733966D01*
X140588501Y-116668642D01*
X140671642Y-116585501D01*
X140736966Y-116487738D01*
X140781961Y-116379109D01*
X140804900Y-116263790D01*
X140804900Y-116146210D01*
X141389100Y-116146210D01*
X141389100Y-116263790D01*
X141412039Y-116379109D01*
X141457034Y-116487738D01*
X141522358Y-116585501D01*
X141605499Y-116668642D01*
X141703262Y-116733966D01*
X141811891Y-116778961D01*
X141927210Y-116801900D01*
X142044790Y-116801900D01*
X142160109Y-116778961D01*
X142268738Y-116733966D01*
X142366501Y-116668642D01*
X142449642Y-116585501D01*
X142514966Y-116487738D01*
X142559961Y-116379109D01*
X142582900Y-116263790D01*
X142582900Y-116146210D01*
X142559961Y-116030891D01*
X142552275Y-116012336D01*
X142649738Y-115971966D01*
X142747501Y-115906642D01*
X142830642Y-115823501D01*
X142895966Y-115725738D01*
X142940961Y-115617109D01*
X142963900Y-115501790D01*
X142963900Y-115384210D01*
X143040100Y-115384210D01*
X143040100Y-115501790D01*
X143063039Y-115617109D01*
X143108034Y-115725738D01*
X143173358Y-115823501D01*
X143256499Y-115906642D01*
X143354262Y-115971966D01*
X143462891Y-116016961D01*
X143578210Y-116039900D01*
X143695790Y-116039900D01*
X143811109Y-116016961D01*
X143919738Y-115971966D01*
X144017501Y-115906642D01*
X144100642Y-115823501D01*
X144165966Y-115725738D01*
X144210961Y-115617109D01*
X144233900Y-115501790D01*
X144233900Y-115384210D01*
X144210961Y-115268891D01*
X144165966Y-115160262D01*
X144100642Y-115062499D01*
X144017501Y-114979358D01*
X143919738Y-114914034D01*
X143811109Y-114869039D01*
X143695790Y-114846100D01*
X143578210Y-114846100D01*
X143462891Y-114869039D01*
X143354262Y-114914034D01*
X143256499Y-114979358D01*
X143173358Y-115062499D01*
X143108034Y-115160262D01*
X143063039Y-115268891D01*
X143040100Y-115384210D01*
X142963900Y-115384210D01*
X142940961Y-115268891D01*
X142895966Y-115160262D01*
X142830642Y-115062499D01*
X142747501Y-114979358D01*
X142649738Y-114914034D01*
X142541109Y-114869039D01*
X142425790Y-114846100D01*
X142308210Y-114846100D01*
X142192891Y-114869039D01*
X142084262Y-114914034D01*
X141986499Y-114979358D01*
X141903358Y-115062499D01*
X141838034Y-115160262D01*
X141793039Y-115268891D01*
X141770100Y-115384210D01*
X141770100Y-115501790D01*
X141793039Y-115617109D01*
X141800725Y-115635664D01*
X141703262Y-115676034D01*
X141605499Y-115741358D01*
X141522358Y-115824499D01*
X141457034Y-115922262D01*
X141412039Y-116030891D01*
X141389100Y-116146210D01*
X140804900Y-116146210D01*
X140781961Y-116030891D01*
X140736966Y-115922262D01*
X140671642Y-115824499D01*
X140588501Y-115741358D01*
X140490738Y-115676034D01*
X140382109Y-115631039D01*
X140266790Y-115608100D01*
X140149210Y-115608100D01*
X140033891Y-115631039D01*
X139925262Y-115676034D01*
X139827499Y-115741358D01*
X139744358Y-115824499D01*
X139679034Y-115922262D01*
X139634039Y-116030891D01*
X139611100Y-116146210D01*
X136994900Y-116146210D01*
X136971961Y-116030891D01*
X136926966Y-115922262D01*
X136861642Y-115824499D01*
X136778501Y-115741358D01*
X136680738Y-115676034D01*
X136572109Y-115631039D01*
X136456790Y-115608100D01*
X136339210Y-115608100D01*
X136223891Y-115631039D01*
X136115262Y-115676034D01*
X136017499Y-115741358D01*
X135953500Y-115805357D01*
X135953500Y-114114210D01*
X141770100Y-114114210D01*
X141770100Y-114231790D01*
X141793039Y-114347109D01*
X141838034Y-114455738D01*
X141903358Y-114553501D01*
X141986499Y-114636642D01*
X142084262Y-114701966D01*
X142192891Y-114746961D01*
X142308210Y-114769900D01*
X142425790Y-114769900D01*
X142541109Y-114746961D01*
X142649738Y-114701966D01*
X142747501Y-114636642D01*
X142830642Y-114553501D01*
X142895966Y-114455738D01*
X142940961Y-114347109D01*
X142963900Y-114231790D01*
X142963900Y-114114210D01*
X143040100Y-114114210D01*
X143040100Y-114231790D01*
X143063039Y-114347109D01*
X143108034Y-114455738D01*
X143173358Y-114553501D01*
X143256499Y-114636642D01*
X143354262Y-114701966D01*
X143462891Y-114746961D01*
X143578210Y-114769900D01*
X143695790Y-114769900D01*
X143811109Y-114746961D01*
X143919738Y-114701966D01*
X144017501Y-114636642D01*
X144100642Y-114553501D01*
X144165966Y-114455738D01*
X144210961Y-114347109D01*
X144233900Y-114231790D01*
X144233900Y-114114210D01*
X144210961Y-113998891D01*
X144165966Y-113890262D01*
X144100642Y-113792499D01*
X144017501Y-113709358D01*
X143919738Y-113644034D01*
X143811109Y-113599039D01*
X143695790Y-113576100D01*
X143578210Y-113576100D01*
X143462891Y-113599039D01*
X143354262Y-113644034D01*
X143256499Y-113709358D01*
X143173358Y-113792499D01*
X143108034Y-113890262D01*
X143063039Y-113998891D01*
X143040100Y-114114210D01*
X142963900Y-114114210D01*
X142940961Y-113998891D01*
X142895966Y-113890262D01*
X142830642Y-113792499D01*
X142747501Y-113709358D01*
X142649738Y-113644034D01*
X142541109Y-113599039D01*
X142425790Y-113576100D01*
X142308210Y-113576100D01*
X142192891Y-113599039D01*
X142084262Y-113644034D01*
X141986499Y-113709358D01*
X141903358Y-113792499D01*
X141838034Y-113890262D01*
X141793039Y-113998891D01*
X141770100Y-114114210D01*
X135953500Y-114114210D01*
X135953500Y-107319996D01*
X135969791Y-107217134D01*
X136014779Y-107128842D01*
X136084842Y-107058779D01*
X136173134Y-107013791D01*
X136275996Y-106997500D01*
X142583930Y-106997500D01*
X142711211Y-107022818D01*
M02*
