G04 #@! TF.GenerationSoftware,KiCad,Pcbnew,(5.1.6)-1*
G04 #@! TF.CreationDate,2020-12-30T15:53:02+08:00*
G04 #@! TF.ProjectId,Module_ADS1263,4d6f6475-6c65-45f4-9144-53313236332e,rev?*
G04 #@! TF.SameCoordinates,Original*
G04 #@! TF.FileFunction,Legend,Top*
G04 #@! TF.FilePolarity,Positive*
%FSLAX46Y46*%
G04 Gerber Fmt 4.6, Leading zero omitted, Abs format (unit mm)*
G04 Created by KiCad (PCBNEW (5.1.6)-1) date 2020-12-30 15:53:02*
%MOMM*%
%LPD*%
G01*
G04 APERTURE LIST*
%ADD10C,0.177800*%
%ADD11C,0.203200*%
%ADD12C,0.010000*%
%ADD13C,0.120000*%
%ADD14C,0.150000*%
G04 APERTURE END LIST*
D10*
X122276809Y-107393619D02*
X122615476Y-108409619D01*
X122954142Y-107393619D01*
X123825000Y-108409619D02*
X123244428Y-108409619D01*
X123534714Y-108409619D02*
X123534714Y-107393619D01*
X123437952Y-107538761D01*
X123341190Y-107635523D01*
X123244428Y-107683904D01*
X124260428Y-108312857D02*
X124308809Y-108361238D01*
X124260428Y-108409619D01*
X124212047Y-108361238D01*
X124260428Y-108312857D01*
X124260428Y-108409619D01*
X125276428Y-108409619D02*
X124695857Y-108409619D01*
X124986142Y-108409619D02*
X124986142Y-107393619D01*
X124889380Y-107538761D01*
X124792619Y-107635523D01*
X124695857Y-107683904D01*
X129346476Y-130737428D02*
X129491619Y-130785809D01*
X129540000Y-130834190D01*
X129588380Y-130930952D01*
X129588380Y-131076095D01*
X129540000Y-131172857D01*
X129491619Y-131221238D01*
X129394857Y-131269619D01*
X129007809Y-131269619D01*
X129007809Y-130253619D01*
X129346476Y-130253619D01*
X129443238Y-130302000D01*
X129491619Y-130350380D01*
X129540000Y-130447142D01*
X129540000Y-130543904D01*
X129491619Y-130640666D01*
X129443238Y-130689047D01*
X129346476Y-130737428D01*
X129007809Y-130737428D01*
X130217333Y-130785809D02*
X130217333Y-131269619D01*
X129878666Y-130253619D02*
X130217333Y-130785809D01*
X130556000Y-130253619D01*
X132249333Y-131172857D02*
X132200952Y-131221238D01*
X132055809Y-131269619D01*
X131959047Y-131269619D01*
X131813904Y-131221238D01*
X131717142Y-131124476D01*
X131668761Y-131027714D01*
X131620380Y-130834190D01*
X131620380Y-130689047D01*
X131668761Y-130495523D01*
X131717142Y-130398761D01*
X131813904Y-130302000D01*
X131959047Y-130253619D01*
X132055809Y-130253619D01*
X132200952Y-130302000D01*
X132249333Y-130350380D01*
X132684761Y-131269619D02*
X132684761Y-130253619D01*
X133265333Y-131269619D01*
X133265333Y-130253619D01*
X133749142Y-131269619D02*
X133749142Y-130253619D01*
X134136190Y-130253619D01*
X134232952Y-130302000D01*
X134281333Y-130350380D01*
X134329714Y-130447142D01*
X134329714Y-130592285D01*
X134281333Y-130689047D01*
X134232952Y-130737428D01*
X134136190Y-130785809D01*
X133749142Y-130785809D01*
X134765142Y-131269619D02*
X134765142Y-130253619D01*
X135152190Y-130253619D01*
X135248952Y-130302000D01*
X135297333Y-130350380D01*
X135345714Y-130447142D01*
X135345714Y-130592285D01*
X135297333Y-130689047D01*
X135248952Y-130737428D01*
X135152190Y-130785809D01*
X134765142Y-130785809D01*
X136506857Y-130350380D02*
X136555238Y-130302000D01*
X136652000Y-130253619D01*
X136893904Y-130253619D01*
X136990666Y-130302000D01*
X137039047Y-130350380D01*
X137087428Y-130447142D01*
X137087428Y-130543904D01*
X137039047Y-130689047D01*
X136458476Y-131269619D01*
X137087428Y-131269619D01*
X137716380Y-130253619D02*
X137813142Y-130253619D01*
X137909904Y-130302000D01*
X137958285Y-130350380D01*
X138006666Y-130447142D01*
X138055047Y-130640666D01*
X138055047Y-130882571D01*
X138006666Y-131076095D01*
X137958285Y-131172857D01*
X137909904Y-131221238D01*
X137813142Y-131269619D01*
X137716380Y-131269619D01*
X137619619Y-131221238D01*
X137571238Y-131172857D01*
X137522857Y-131076095D01*
X137474476Y-130882571D01*
X137474476Y-130640666D01*
X137522857Y-130447142D01*
X137571238Y-130350380D01*
X137619619Y-130302000D01*
X137716380Y-130253619D01*
X138442095Y-130350380D02*
X138490476Y-130302000D01*
X138587238Y-130253619D01*
X138829142Y-130253619D01*
X138925904Y-130302000D01*
X138974285Y-130350380D01*
X139022666Y-130447142D01*
X139022666Y-130543904D01*
X138974285Y-130689047D01*
X138393714Y-131269619D01*
X139022666Y-131269619D01*
X139651619Y-130253619D02*
X139748380Y-130253619D01*
X139845142Y-130302000D01*
X139893523Y-130350380D01*
X139941904Y-130447142D01*
X139990285Y-130640666D01*
X139990285Y-130882571D01*
X139941904Y-131076095D01*
X139893523Y-131172857D01*
X139845142Y-131221238D01*
X139748380Y-131269619D01*
X139651619Y-131269619D01*
X139554857Y-131221238D01*
X139506476Y-131172857D01*
X139458095Y-131076095D01*
X139409714Y-130882571D01*
X139409714Y-130640666D01*
X139458095Y-130447142D01*
X139506476Y-130350380D01*
X139554857Y-130302000D01*
X139651619Y-130253619D01*
X140425714Y-130882571D02*
X141199809Y-130882571D01*
X142215809Y-131269619D02*
X141635238Y-131269619D01*
X141925523Y-131269619D02*
X141925523Y-130253619D01*
X141828761Y-130398761D01*
X141732000Y-130495523D01*
X141635238Y-130543904D01*
X142602857Y-130350380D02*
X142651238Y-130302000D01*
X142748000Y-130253619D01*
X142989904Y-130253619D01*
X143086666Y-130302000D01*
X143135047Y-130350380D01*
X143183428Y-130447142D01*
X143183428Y-130543904D01*
X143135047Y-130689047D01*
X142554476Y-131269619D01*
X143183428Y-131269619D01*
X143618857Y-130882571D02*
X144392952Y-130882571D01*
X144780000Y-130253619D02*
X145408952Y-130253619D01*
X145070285Y-130640666D01*
X145215428Y-130640666D01*
X145312190Y-130689047D01*
X145360571Y-130737428D01*
X145408952Y-130834190D01*
X145408952Y-131076095D01*
X145360571Y-131172857D01*
X145312190Y-131221238D01*
X145215428Y-131269619D01*
X144925142Y-131269619D01*
X144828380Y-131221238D01*
X144780000Y-131172857D01*
X146037904Y-130253619D02*
X146134666Y-130253619D01*
X146231428Y-130302000D01*
X146279809Y-130350380D01*
X146328190Y-130447142D01*
X146376571Y-130640666D01*
X146376571Y-130882571D01*
X146328190Y-131076095D01*
X146279809Y-131172857D01*
X146231428Y-131221238D01*
X146134666Y-131269619D01*
X146037904Y-131269619D01*
X145941142Y-131221238D01*
X145892761Y-131172857D01*
X145844380Y-131076095D01*
X145796000Y-130882571D01*
X145796000Y-130640666D01*
X145844380Y-130447142D01*
X145892761Y-130350380D01*
X145941142Y-130302000D01*
X146037904Y-130253619D01*
X112086571Y-106087333D02*
X112570380Y-106087333D01*
X111989809Y-106377619D02*
X112328476Y-105361619D01*
X112667142Y-106377619D01*
X113005809Y-106377619D02*
X113005809Y-105361619D01*
X113247714Y-105361619D01*
X113392857Y-105410000D01*
X113489619Y-105506761D01*
X113538000Y-105603523D01*
X113586380Y-105797047D01*
X113586380Y-105942190D01*
X113538000Y-106135714D01*
X113489619Y-106232476D01*
X113392857Y-106329238D01*
X113247714Y-106377619D01*
X113005809Y-106377619D01*
X113973428Y-106329238D02*
X114118571Y-106377619D01*
X114360476Y-106377619D01*
X114457238Y-106329238D01*
X114505619Y-106280857D01*
X114554000Y-106184095D01*
X114554000Y-106087333D01*
X114505619Y-105990571D01*
X114457238Y-105942190D01*
X114360476Y-105893809D01*
X114166952Y-105845428D01*
X114070190Y-105797047D01*
X114021809Y-105748666D01*
X113973428Y-105651904D01*
X113973428Y-105555142D01*
X114021809Y-105458380D01*
X114070190Y-105410000D01*
X114166952Y-105361619D01*
X114408857Y-105361619D01*
X114554000Y-105410000D01*
X115521619Y-106377619D02*
X114941047Y-106377619D01*
X115231333Y-106377619D02*
X115231333Y-105361619D01*
X115134571Y-105506761D01*
X115037809Y-105603523D01*
X114941047Y-105651904D01*
X115908666Y-105458380D02*
X115957047Y-105410000D01*
X116053809Y-105361619D01*
X116295714Y-105361619D01*
X116392476Y-105410000D01*
X116440857Y-105458380D01*
X116489238Y-105555142D01*
X116489238Y-105651904D01*
X116440857Y-105797047D01*
X115860285Y-106377619D01*
X116489238Y-106377619D01*
X117360095Y-105361619D02*
X117166571Y-105361619D01*
X117069809Y-105410000D01*
X117021428Y-105458380D01*
X116924666Y-105603523D01*
X116876285Y-105797047D01*
X116876285Y-106184095D01*
X116924666Y-106280857D01*
X116973047Y-106329238D01*
X117069809Y-106377619D01*
X117263333Y-106377619D01*
X117360095Y-106329238D01*
X117408476Y-106280857D01*
X117456857Y-106184095D01*
X117456857Y-105942190D01*
X117408476Y-105845428D01*
X117360095Y-105797047D01*
X117263333Y-105748666D01*
X117069809Y-105748666D01*
X116973047Y-105797047D01*
X116924666Y-105845428D01*
X116876285Y-105942190D01*
X117795523Y-105361619D02*
X118424476Y-105361619D01*
X118085809Y-105748666D01*
X118230952Y-105748666D01*
X118327714Y-105797047D01*
X118376095Y-105845428D01*
X118424476Y-105942190D01*
X118424476Y-106184095D01*
X118376095Y-106280857D01*
X118327714Y-106329238D01*
X118230952Y-106377619D01*
X117940666Y-106377619D01*
X117843904Y-106329238D01*
X117795523Y-106280857D01*
X119537238Y-105361619D02*
X120166190Y-105361619D01*
X119827523Y-105748666D01*
X119972666Y-105748666D01*
X120069428Y-105797047D01*
X120117809Y-105845428D01*
X120166190Y-105942190D01*
X120166190Y-106184095D01*
X120117809Y-106280857D01*
X120069428Y-106329238D01*
X119972666Y-106377619D01*
X119682380Y-106377619D01*
X119585619Y-106329238D01*
X119537238Y-106280857D01*
X120553238Y-105458380D02*
X120601619Y-105410000D01*
X120698380Y-105361619D01*
X120940285Y-105361619D01*
X121037047Y-105410000D01*
X121085428Y-105458380D01*
X121133809Y-105555142D01*
X121133809Y-105651904D01*
X121085428Y-105797047D01*
X120504857Y-106377619D01*
X121133809Y-106377619D01*
X121569238Y-105990571D02*
X122343333Y-105990571D01*
X121956285Y-106377619D02*
X121956285Y-105603523D01*
X122778761Y-105458380D02*
X122827142Y-105410000D01*
X122923904Y-105361619D01*
X123165809Y-105361619D01*
X123262571Y-105410000D01*
X123310952Y-105458380D01*
X123359333Y-105555142D01*
X123359333Y-105651904D01*
X123310952Y-105797047D01*
X122730380Y-106377619D01*
X123359333Y-106377619D01*
X124230190Y-105700285D02*
X124230190Y-106377619D01*
X123988285Y-105313238D02*
X123746380Y-106038952D01*
X124375333Y-106038952D01*
X124762380Y-105990571D02*
X125536476Y-105990571D01*
X126020285Y-106377619D02*
X126020285Y-105361619D01*
X126020285Y-105748666D02*
X126117047Y-105700285D01*
X126310571Y-105700285D01*
X126407333Y-105748666D01*
X126455714Y-105797047D01*
X126504095Y-105893809D01*
X126504095Y-106184095D01*
X126455714Y-106280857D01*
X126407333Y-106329238D01*
X126310571Y-106377619D01*
X126117047Y-106377619D01*
X126020285Y-106329238D01*
X126939523Y-106377619D02*
X126939523Y-105700285D01*
X126939523Y-105361619D02*
X126891142Y-105410000D01*
X126939523Y-105458380D01*
X126987904Y-105410000D01*
X126939523Y-105361619D01*
X126939523Y-105458380D01*
X127278190Y-105700285D02*
X127665238Y-105700285D01*
X127423333Y-105361619D02*
X127423333Y-106232476D01*
X127471714Y-106329238D01*
X127568476Y-106377619D01*
X127665238Y-106377619D01*
X128729619Y-106087333D02*
X129213428Y-106087333D01*
X128632857Y-106377619D02*
X128971523Y-105361619D01*
X129310190Y-106377619D01*
X129648857Y-106377619D02*
X129648857Y-105361619D01*
X129890761Y-105361619D01*
X130035904Y-105410000D01*
X130132666Y-105506761D01*
X130181047Y-105603523D01*
X130229428Y-105797047D01*
X130229428Y-105942190D01*
X130181047Y-106135714D01*
X130132666Y-106232476D01*
X130035904Y-106329238D01*
X129890761Y-106377619D01*
X129648857Y-106377619D01*
X131245428Y-106280857D02*
X131197047Y-106329238D01*
X131051904Y-106377619D01*
X130955142Y-106377619D01*
X130810000Y-106329238D01*
X130713238Y-106232476D01*
X130664857Y-106135714D01*
X130616476Y-105942190D01*
X130616476Y-105797047D01*
X130664857Y-105603523D01*
X130713238Y-105506761D01*
X130810000Y-105410000D01*
X130955142Y-105361619D01*
X131051904Y-105361619D01*
X131197047Y-105410000D01*
X131245428Y-105458380D01*
D11*
X144780000Y-122682000D02*
X144780000Y-124206000D01*
X139700000Y-122682000D02*
X144780000Y-122682000D01*
X139700000Y-124206000D02*
X139700000Y-122682000D01*
X140247430Y-124157619D02*
X140374430Y-123141619D01*
X140761478Y-123141619D01*
X140852192Y-123190000D01*
X140894525Y-123238380D01*
X140930811Y-123335142D01*
X140912668Y-123480285D01*
X140852192Y-123577047D01*
X140797763Y-123625428D01*
X140694954Y-123673809D01*
X140307906Y-123673809D01*
X141263430Y-124157619D02*
X141390430Y-123141619D01*
X141638382Y-123867333D01*
X142067763Y-123141619D01*
X141940763Y-124157619D01*
X142745097Y-123141619D02*
X142938620Y-123141619D01*
X143029335Y-123190000D01*
X143114001Y-123286761D01*
X143138192Y-123480285D01*
X143095859Y-123818952D01*
X143023287Y-124012476D01*
X142914430Y-124109238D01*
X142811620Y-124157619D01*
X142618097Y-124157619D01*
X142527382Y-124109238D01*
X142442716Y-124012476D01*
X142418525Y-123818952D01*
X142460859Y-123480285D01*
X142533430Y-123286761D01*
X142642287Y-123190000D01*
X142745097Y-123141619D01*
X143488954Y-124157619D02*
X143615954Y-123141619D01*
X143857859Y-123141619D01*
X143996954Y-123190000D01*
X144081620Y-123286761D01*
X144117906Y-123383523D01*
X144142097Y-123577047D01*
X144123954Y-123722190D01*
X144051382Y-123915714D01*
X143990906Y-124012476D01*
X143882049Y-124109238D01*
X143730859Y-124157619D01*
X143488954Y-124157619D01*
X144780000Y-106680000D02*
X148336000Y-106680000D01*
X144780000Y-110236000D02*
X144780000Y-106680000D01*
X143510000Y-108712000D02*
X146050000Y-108712000D01*
X145781485Y-109270800D02*
X145694400Y-109227257D01*
X145563771Y-109227257D01*
X145433142Y-109270800D01*
X145346057Y-109357885D01*
X145302514Y-109444971D01*
X145258971Y-109619142D01*
X145258971Y-109749771D01*
X145302514Y-109923942D01*
X145346057Y-110011028D01*
X145433142Y-110098114D01*
X145563771Y-110141657D01*
X145650857Y-110141657D01*
X145781485Y-110098114D01*
X145825028Y-110054571D01*
X145825028Y-109749771D01*
X145650857Y-109749771D01*
X145781485Y-107492800D02*
X145694400Y-107449257D01*
X145563771Y-107449257D01*
X145433142Y-107492800D01*
X145346057Y-107579885D01*
X145302514Y-107666971D01*
X145258971Y-107841142D01*
X145258971Y-107971771D01*
X145302514Y-108145942D01*
X145346057Y-108233028D01*
X145433142Y-108320114D01*
X145563771Y-108363657D01*
X145650857Y-108363657D01*
X145781485Y-108320114D01*
X145825028Y-108276571D01*
X145825028Y-107971771D01*
X145650857Y-107971771D01*
X143974457Y-109227257D02*
X144061542Y-109227257D01*
X144148628Y-109270800D01*
X144192171Y-109314342D01*
X144235714Y-109401428D01*
X144279257Y-109575600D01*
X144279257Y-109793314D01*
X144235714Y-109967485D01*
X144192171Y-110054571D01*
X144148628Y-110098114D01*
X144061542Y-110141657D01*
X143974457Y-110141657D01*
X143887371Y-110098114D01*
X143843828Y-110054571D01*
X143800285Y-109967485D01*
X143756742Y-109793314D01*
X143756742Y-109575600D01*
X143800285Y-109401428D01*
X143843828Y-109314342D01*
X143887371Y-109270800D01*
X143974457Y-109227257D01*
X144279257Y-108363657D02*
X143756742Y-108363657D01*
X144018000Y-108363657D02*
X144018000Y-107449257D01*
X143930914Y-107579885D01*
X143843828Y-107666971D01*
X143756742Y-107710514D01*
X145273485Y-92506800D02*
X145186400Y-92463257D01*
X145055771Y-92463257D01*
X144925142Y-92506800D01*
X144838057Y-92593885D01*
X144794514Y-92680971D01*
X144750971Y-92855142D01*
X144750971Y-92985771D01*
X144794514Y-93159942D01*
X144838057Y-93247028D01*
X144925142Y-93334114D01*
X145055771Y-93377657D01*
X145142857Y-93377657D01*
X145273485Y-93334114D01*
X145317028Y-93290571D01*
X145317028Y-92985771D01*
X145142857Y-92985771D01*
X144729200Y-93987257D02*
X145295257Y-93987257D01*
X144990457Y-94335600D01*
X145121085Y-94335600D01*
X145208171Y-94379142D01*
X145251714Y-94422685D01*
X145295257Y-94509771D01*
X145295257Y-94727485D01*
X145251714Y-94814571D01*
X145208171Y-94858114D01*
X145121085Y-94901657D01*
X144859828Y-94901657D01*
X144772742Y-94858114D01*
X144729200Y-94814571D01*
X144772742Y-95598342D02*
X144816285Y-95554800D01*
X144903371Y-95511257D01*
X145121085Y-95511257D01*
X145208171Y-95554800D01*
X145251714Y-95598342D01*
X145295257Y-95685428D01*
X145295257Y-95772514D01*
X145251714Y-95903142D01*
X144729200Y-96425657D01*
X145295257Y-96425657D01*
X128778000Y-122174000D02*
X129286000Y-121412000D01*
X128778000Y-122174000D02*
X128270000Y-121412000D01*
X128778000Y-118872000D02*
X129286000Y-119634000D01*
X128778000Y-118872000D02*
X128270000Y-119634000D01*
X128778000Y-118872000D02*
X128778000Y-122174000D01*
X127341085Y-123255314D02*
X128037771Y-123255314D01*
X128429657Y-122776342D02*
X128473200Y-122732800D01*
X128560285Y-122689257D01*
X128778000Y-122689257D01*
X128865085Y-122732800D01*
X128908628Y-122776342D01*
X128952171Y-122863428D01*
X128952171Y-122950514D01*
X128908628Y-123081142D01*
X128386114Y-123603657D01*
X128952171Y-123603657D01*
X129344057Y-123516571D02*
X129387600Y-123560114D01*
X129344057Y-123603657D01*
X129300514Y-123560114D01*
X129344057Y-123516571D01*
X129344057Y-123603657D01*
X130214914Y-122689257D02*
X129779485Y-122689257D01*
X129735942Y-123124685D01*
X129779485Y-123081142D01*
X129866571Y-123037600D01*
X130084285Y-123037600D01*
X130171371Y-123081142D01*
X130214914Y-123124685D01*
X130258457Y-123211771D01*
X130258457Y-123429485D01*
X130214914Y-123516571D01*
X130171371Y-123560114D01*
X130084285Y-123603657D01*
X129866571Y-123603657D01*
X129779485Y-123560114D01*
X129735942Y-123516571D01*
X128081314Y-117652800D02*
X127994228Y-117609257D01*
X127863600Y-117609257D01*
X127732971Y-117652800D01*
X127645885Y-117739885D01*
X127602342Y-117826971D01*
X127558800Y-118001142D01*
X127558800Y-118131771D01*
X127602342Y-118305942D01*
X127645885Y-118393028D01*
X127732971Y-118480114D01*
X127863600Y-118523657D01*
X127950685Y-118523657D01*
X128081314Y-118480114D01*
X128124857Y-118436571D01*
X128124857Y-118131771D01*
X127950685Y-118131771D01*
X128516742Y-118523657D02*
X128516742Y-117609257D01*
X129039257Y-118523657D01*
X129039257Y-117609257D01*
X129474685Y-118523657D02*
X129474685Y-117609257D01*
X129692400Y-117609257D01*
X129823028Y-117652800D01*
X129910114Y-117739885D01*
X129953657Y-117826971D01*
X129997200Y-118001142D01*
X129997200Y-118131771D01*
X129953657Y-118305942D01*
X129910114Y-118393028D01*
X129823028Y-118480114D01*
X129692400Y-118523657D01*
X129474685Y-118523657D01*
X113015485Y-118922800D02*
X112928400Y-118879257D01*
X112797771Y-118879257D01*
X112667142Y-118922800D01*
X112580057Y-119009885D01*
X112536514Y-119096971D01*
X112492971Y-119271142D01*
X112492971Y-119401771D01*
X112536514Y-119575942D01*
X112580057Y-119663028D01*
X112667142Y-119750114D01*
X112797771Y-119793657D01*
X112884857Y-119793657D01*
X113015485Y-119750114D01*
X113059028Y-119706571D01*
X113059028Y-119401771D01*
X112884857Y-119401771D01*
X112311542Y-122007085D02*
X113240457Y-122007085D01*
X112311542Y-116673085D02*
X113240457Y-116673085D01*
X112776000Y-117137542D02*
X112776000Y-116208628D01*
X107590287Y-105869619D02*
X107717287Y-104853619D01*
X108074097Y-105869619D02*
X108201097Y-104853619D01*
X108654668Y-105869619D01*
X108781668Y-104853619D01*
X109186859Y-105869619D02*
X109380382Y-105869619D01*
X109483192Y-105821238D01*
X109537620Y-105772857D01*
X109652525Y-105627714D01*
X109725097Y-105434190D01*
X109773478Y-105047142D01*
X109737192Y-104950380D01*
X109694859Y-104902000D01*
X109604144Y-104853619D01*
X109410620Y-104853619D01*
X109307811Y-104902000D01*
X109253382Y-104950380D01*
X109192906Y-105047142D01*
X109162668Y-105289047D01*
X109198954Y-105385809D01*
X109241287Y-105434190D01*
X109332001Y-105482571D01*
X109525525Y-105482571D01*
X109628335Y-105434190D01*
X109682763Y-105385809D01*
X109743240Y-105289047D01*
X107590287Y-91899619D02*
X107717287Y-90883619D01*
X108074097Y-91899619D02*
X108201097Y-90883619D01*
X108654668Y-91899619D01*
X108781668Y-90883619D01*
X109356192Y-91319047D02*
X109265478Y-91270666D01*
X109223144Y-91222285D01*
X109186859Y-91125523D01*
X109192906Y-91077142D01*
X109253382Y-90980380D01*
X109307811Y-90932000D01*
X109410620Y-90883619D01*
X109604144Y-90883619D01*
X109694859Y-90932000D01*
X109737192Y-90980380D01*
X109773478Y-91077142D01*
X109767430Y-91125523D01*
X109706954Y-91222285D01*
X109652525Y-91270666D01*
X109549716Y-91319047D01*
X109356192Y-91319047D01*
X109253382Y-91367428D01*
X109198954Y-91415809D01*
X109138478Y-91512571D01*
X109114287Y-91706095D01*
X109150573Y-91802857D01*
X109192906Y-91851238D01*
X109283620Y-91899619D01*
X109477144Y-91899619D01*
X109579954Y-91851238D01*
X109634382Y-91802857D01*
X109694859Y-91706095D01*
X109719049Y-91512571D01*
X109682763Y-91415809D01*
X109640430Y-91367428D01*
X109549716Y-91319047D01*
X112779144Y-93980000D02*
X112688430Y-93931619D01*
X112543287Y-93931619D01*
X112392097Y-93980000D01*
X112283240Y-94076761D01*
X112222763Y-94173523D01*
X112150192Y-94367047D01*
X112132049Y-94512190D01*
X112156240Y-94705714D01*
X112192525Y-94802476D01*
X112277192Y-94899238D01*
X112416287Y-94947619D01*
X112513049Y-94947619D01*
X112664240Y-94899238D01*
X112718668Y-94850857D01*
X112761001Y-94512190D01*
X112567478Y-94512190D01*
X113142001Y-94947619D02*
X113269001Y-93931619D01*
X113722573Y-94947619D01*
X113849573Y-93931619D01*
X114206382Y-94947619D02*
X114333382Y-93931619D01*
X114575287Y-93931619D01*
X114714382Y-93980000D01*
X114799049Y-94076761D01*
X114835335Y-94173523D01*
X114859525Y-94367047D01*
X114841382Y-94512190D01*
X114768811Y-94705714D01*
X114708335Y-94802476D01*
X114599478Y-94899238D01*
X114448287Y-94947619D01*
X114206382Y-94947619D01*
X116456097Y-94850857D02*
X116401668Y-94899238D01*
X116250478Y-94947619D01*
X116153716Y-94947619D01*
X116014620Y-94899238D01*
X115929954Y-94802476D01*
X115893668Y-94705714D01*
X115869478Y-94512190D01*
X115887620Y-94367047D01*
X115960192Y-94173523D01*
X116020668Y-94076761D01*
X116129525Y-93980000D01*
X116280716Y-93931619D01*
X116377478Y-93931619D01*
X116516573Y-93980000D01*
X116558906Y-94028380D01*
X117199954Y-93931619D02*
X117393478Y-93931619D01*
X117484192Y-93980000D01*
X117568859Y-94076761D01*
X117593049Y-94270285D01*
X117550716Y-94608952D01*
X117478144Y-94802476D01*
X117369287Y-94899238D01*
X117266478Y-94947619D01*
X117072954Y-94947619D01*
X116982240Y-94899238D01*
X116897573Y-94802476D01*
X116873382Y-94608952D01*
X116915716Y-94270285D01*
X116988287Y-94076761D01*
X117097144Y-93980000D01*
X117199954Y-93931619D01*
X117943811Y-94947619D02*
X118070811Y-93931619D01*
X118318763Y-94657333D01*
X118748144Y-93931619D01*
X118621144Y-94947619D01*
X120036287Y-94947619D02*
X120163287Y-93931619D01*
X120520097Y-94947619D02*
X120647097Y-93931619D01*
X121100668Y-94947619D01*
X121227668Y-93931619D01*
X121614716Y-93931619D02*
X122292049Y-93931619D01*
X121729620Y-94947619D01*
X123846287Y-94947619D02*
X123973287Y-93931619D01*
X124330097Y-94947619D02*
X124457097Y-93931619D01*
X124910668Y-94947619D01*
X125037668Y-93931619D01*
X125956906Y-93931619D02*
X125763382Y-93931619D01*
X125660573Y-93980000D01*
X125606144Y-94028380D01*
X125491240Y-94173523D01*
X125418668Y-94367047D01*
X125370287Y-94754095D01*
X125406573Y-94850857D01*
X125448906Y-94899238D01*
X125539620Y-94947619D01*
X125733144Y-94947619D01*
X125835954Y-94899238D01*
X125890382Y-94850857D01*
X125950859Y-94754095D01*
X125981097Y-94512190D01*
X125944811Y-94415428D01*
X125902478Y-94367047D01*
X125811763Y-94318666D01*
X125618240Y-94318666D01*
X125515430Y-94367047D01*
X125461001Y-94415428D01*
X125400525Y-94512190D01*
X127656287Y-94947619D02*
X127783287Y-93931619D01*
X128140097Y-94947619D02*
X128267097Y-93931619D01*
X128720668Y-94947619D01*
X128847668Y-93931619D01*
X129815287Y-93931619D02*
X129331478Y-93931619D01*
X129222620Y-94415428D01*
X129277049Y-94367047D01*
X129379859Y-94318666D01*
X129621763Y-94318666D01*
X129712478Y-94367047D01*
X129754811Y-94415428D01*
X129791097Y-94512190D01*
X129760859Y-94754095D01*
X129700382Y-94850857D01*
X129645954Y-94899238D01*
X129543144Y-94947619D01*
X129301240Y-94947619D01*
X129210525Y-94899238D01*
X129168192Y-94850857D01*
X131466287Y-94947619D02*
X131593287Y-93931619D01*
X131950097Y-94947619D02*
X132077097Y-93931619D01*
X132530668Y-94947619D01*
X132657668Y-93931619D01*
X133534573Y-94270285D02*
X133449906Y-94947619D01*
X133341049Y-93883238D02*
X133008430Y-94608952D01*
X133637382Y-94608952D01*
X135639144Y-93980000D02*
X135548430Y-93931619D01*
X135403287Y-93931619D01*
X135252097Y-93980000D01*
X135143240Y-94076761D01*
X135082763Y-94173523D01*
X135010192Y-94367047D01*
X134992049Y-94512190D01*
X135016240Y-94705714D01*
X135052525Y-94802476D01*
X135137192Y-94899238D01*
X135276287Y-94947619D01*
X135373049Y-94947619D01*
X135524240Y-94899238D01*
X135578668Y-94850857D01*
X135621001Y-94512190D01*
X135427478Y-94512190D01*
X136002001Y-94947619D02*
X136129001Y-93931619D01*
X136582573Y-94947619D01*
X136709573Y-93931619D01*
X137066382Y-94947619D02*
X137193382Y-93931619D01*
X137435287Y-93931619D01*
X137574382Y-93980000D01*
X137659049Y-94076761D01*
X137695335Y-94173523D01*
X137719525Y-94367047D01*
X137701382Y-94512190D01*
X137628811Y-94705714D01*
X137568335Y-94802476D01*
X137459478Y-94899238D01*
X137308287Y-94947619D01*
X137066382Y-94947619D01*
X139521716Y-94947619D02*
X139243525Y-94463809D01*
X138941144Y-94947619D02*
X139068144Y-93931619D01*
X139455192Y-93931619D01*
X139545906Y-93980000D01*
X139588240Y-94028380D01*
X139624525Y-94125142D01*
X139606382Y-94270285D01*
X139545906Y-94367047D01*
X139491478Y-94415428D01*
X139388668Y-94463809D01*
X139001620Y-94463809D01*
X140023668Y-94415428D02*
X140362335Y-94415428D01*
X140440954Y-94947619D02*
X139957144Y-94947619D01*
X140084144Y-93931619D01*
X140567954Y-93931619D01*
X141281573Y-94415428D02*
X140942906Y-94415428D01*
X140876382Y-94947619D02*
X141003382Y-93931619D01*
X141487192Y-93931619D01*
D12*
G36*
X112774755Y-100759260D02*
G01*
X112763992Y-100812795D01*
X112754252Y-100860726D01*
X112746410Y-100898776D01*
X112741344Y-100922670D01*
X112740387Y-100926900D01*
X112737820Y-100935227D01*
X112732714Y-100941238D01*
X112722132Y-100945310D01*
X112703135Y-100947821D01*
X112672788Y-100949148D01*
X112628152Y-100949668D01*
X112566291Y-100949759D01*
X112562446Y-100949760D01*
X112497253Y-100949455D01*
X112449937Y-100948413D01*
X112418059Y-100946440D01*
X112399184Y-100943345D01*
X112390874Y-100938933D01*
X112389920Y-100936105D01*
X112391857Y-100921760D01*
X112397192Y-100891368D01*
X112405211Y-100848780D01*
X112415197Y-100797848D01*
X112420400Y-100771960D01*
X112430994Y-100719430D01*
X112439989Y-100674419D01*
X112446683Y-100640461D01*
X112450376Y-100621091D01*
X112450880Y-100617974D01*
X112460495Y-100616839D01*
X112487167Y-100615857D01*
X112527629Y-100615095D01*
X112578619Y-100614616D01*
X112627293Y-100614480D01*
X112803707Y-100614480D01*
X112774755Y-100759260D01*
G37*
X112774755Y-100759260D02*
X112763992Y-100812795D01*
X112754252Y-100860726D01*
X112746410Y-100898776D01*
X112741344Y-100922670D01*
X112740387Y-100926900D01*
X112737820Y-100935227D01*
X112732714Y-100941238D01*
X112722132Y-100945310D01*
X112703135Y-100947821D01*
X112672788Y-100949148D01*
X112628152Y-100949668D01*
X112566291Y-100949759D01*
X112562446Y-100949760D01*
X112497253Y-100949455D01*
X112449937Y-100948413D01*
X112418059Y-100946440D01*
X112399184Y-100943345D01*
X112390874Y-100938933D01*
X112389920Y-100936105D01*
X112391857Y-100921760D01*
X112397192Y-100891368D01*
X112405211Y-100848780D01*
X112415197Y-100797848D01*
X112420400Y-100771960D01*
X112430994Y-100719430D01*
X112439989Y-100674419D01*
X112446683Y-100640461D01*
X112450376Y-100621091D01*
X112450880Y-100617974D01*
X112460495Y-100616839D01*
X112487167Y-100615857D01*
X112527629Y-100615095D01*
X112578619Y-100614616D01*
X112627293Y-100614480D01*
X112803707Y-100614480D01*
X112774755Y-100759260D01*
G36*
X112598815Y-101102524D02*
G01*
X112647105Y-101103724D01*
X112679360Y-101105917D01*
X112697718Y-101109260D01*
X112704313Y-101113911D01*
X112704418Y-101114860D01*
X112702406Y-101126641D01*
X112696726Y-101156780D01*
X112687686Y-101203705D01*
X112675595Y-101265847D01*
X112660759Y-101341634D01*
X112643489Y-101429496D01*
X112624091Y-101527863D01*
X112602874Y-101635165D01*
X112580147Y-101749831D01*
X112556216Y-101870290D01*
X112554404Y-101879400D01*
X112404851Y-102631240D01*
X112229745Y-102634019D01*
X112172660Y-102634483D01*
X112123364Y-102634040D01*
X112085131Y-102632787D01*
X112061237Y-102630823D01*
X112054640Y-102628741D01*
X112056574Y-102617899D01*
X112062125Y-102589022D01*
X112070918Y-102543997D01*
X112082576Y-102484712D01*
X112096723Y-102413055D01*
X112112982Y-102330913D01*
X112130977Y-102240175D01*
X112150332Y-102142728D01*
X112170670Y-102040461D01*
X112191616Y-101935261D01*
X112212793Y-101829015D01*
X112233825Y-101723613D01*
X112254336Y-101620942D01*
X112273948Y-101522889D01*
X112292287Y-101431342D01*
X112308975Y-101348190D01*
X112323637Y-101275320D01*
X112335896Y-101214620D01*
X112345377Y-101167979D01*
X112351701Y-101137283D01*
X112354344Y-101125020D01*
X112356937Y-101116692D01*
X112362064Y-101110681D01*
X112372665Y-101106609D01*
X112391678Y-101104098D01*
X112422041Y-101102771D01*
X112466692Y-101102251D01*
X112528571Y-101102160D01*
X112532353Y-101102160D01*
X112598815Y-101102524D01*
G37*
X112598815Y-101102524D02*
X112647105Y-101103724D01*
X112679360Y-101105917D01*
X112697718Y-101109260D01*
X112704313Y-101113911D01*
X112704418Y-101114860D01*
X112702406Y-101126641D01*
X112696726Y-101156780D01*
X112687686Y-101203705D01*
X112675595Y-101265847D01*
X112660759Y-101341634D01*
X112643489Y-101429496D01*
X112624091Y-101527863D01*
X112602874Y-101635165D01*
X112580147Y-101749831D01*
X112556216Y-101870290D01*
X112554404Y-101879400D01*
X112404851Y-102631240D01*
X112229745Y-102634019D01*
X112172660Y-102634483D01*
X112123364Y-102634040D01*
X112085131Y-102632787D01*
X112061237Y-102630823D01*
X112054640Y-102628741D01*
X112056574Y-102617899D01*
X112062125Y-102589022D01*
X112070918Y-102543997D01*
X112082576Y-102484712D01*
X112096723Y-102413055D01*
X112112982Y-102330913D01*
X112130977Y-102240175D01*
X112150332Y-102142728D01*
X112170670Y-102040461D01*
X112191616Y-101935261D01*
X112212793Y-101829015D01*
X112233825Y-101723613D01*
X112254336Y-101620942D01*
X112273948Y-101522889D01*
X112292287Y-101431342D01*
X112308975Y-101348190D01*
X112323637Y-101275320D01*
X112335896Y-101214620D01*
X112345377Y-101167979D01*
X112351701Y-101137283D01*
X112354344Y-101125020D01*
X112356937Y-101116692D01*
X112362064Y-101110681D01*
X112372665Y-101106609D01*
X112391678Y-101104098D01*
X112422041Y-101102771D01*
X112466692Y-101102251D01*
X112528571Y-101102160D01*
X112532353Y-101102160D01*
X112598815Y-101102524D01*
G36*
X118612920Y-101978121D02*
G01*
X118658214Y-102097556D01*
X118697185Y-102199428D01*
X118730541Y-102285238D01*
X118758992Y-102356487D01*
X118783248Y-102414675D01*
X118804017Y-102461305D01*
X118822011Y-102497876D01*
X118837938Y-102525889D01*
X118852509Y-102546845D01*
X118866432Y-102562246D01*
X118880418Y-102573591D01*
X118895175Y-102582382D01*
X118899709Y-102584672D01*
X118925633Y-102603792D01*
X118932729Y-102623620D01*
X118932960Y-102646480D01*
X118689120Y-102646480D01*
X118612588Y-102646410D01*
X118553989Y-102646076D01*
X118510935Y-102645285D01*
X118481039Y-102643848D01*
X118461914Y-102641573D01*
X118451172Y-102638269D01*
X118446425Y-102633746D01*
X118445287Y-102627814D01*
X118445280Y-102626996D01*
X118454995Y-102607959D01*
X118482560Y-102589299D01*
X118483380Y-102588896D01*
X118508454Y-102574104D01*
X118520182Y-102556894D01*
X118524511Y-102528990D01*
X118521209Y-102488222D01*
X118506724Y-102432156D01*
X118495545Y-102399268D01*
X118463546Y-102310837D01*
X118223853Y-102313558D01*
X117984159Y-102316280D01*
X117950791Y-102397560D01*
X117930480Y-102453390D01*
X117920779Y-102497351D01*
X117919732Y-102524560D01*
X117922612Y-102553272D01*
X117931080Y-102570252D01*
X117950502Y-102583259D01*
X117965220Y-102590337D01*
X117994859Y-102608079D01*
X118008006Y-102625294D01*
X118008400Y-102628437D01*
X118007412Y-102632972D01*
X118003215Y-102636679D01*
X117993954Y-102639640D01*
X117977777Y-102641939D01*
X117952831Y-102643659D01*
X117917263Y-102644882D01*
X117869219Y-102645693D01*
X117806847Y-102646173D01*
X117728294Y-102646407D01*
X117631706Y-102646478D01*
X117606373Y-102646480D01*
X117204346Y-102646480D01*
X117207593Y-102624303D01*
X117220295Y-102603413D01*
X117239871Y-102594410D01*
X117276449Y-102577901D01*
X117300223Y-102553142D01*
X117307360Y-102528158D01*
X117302019Y-102514081D01*
X117287360Y-102486906D01*
X117265422Y-102449766D01*
X117238247Y-102405796D01*
X117207875Y-102358128D01*
X117176347Y-102309894D01*
X117145705Y-102264229D01*
X117117989Y-102224266D01*
X117095240Y-102193136D01*
X117079500Y-102173975D01*
X117073623Y-102169345D01*
X117065723Y-102177357D01*
X117049530Y-102199747D01*
X117027003Y-102233351D01*
X117000102Y-102275005D01*
X116970788Y-102321543D01*
X116941019Y-102369801D01*
X116912757Y-102416615D01*
X116887960Y-102458819D01*
X116868590Y-102493249D01*
X116856605Y-102516740D01*
X116853754Y-102524366D01*
X116857077Y-102554503D01*
X116877570Y-102579499D01*
X116912134Y-102595656D01*
X116913886Y-102596096D01*
X116934080Y-102609985D01*
X116939766Y-102624036D01*
X116943013Y-102646480D01*
X116725559Y-102646480D01*
X116661044Y-102646176D01*
X116603502Y-102645328D01*
X116555996Y-102644028D01*
X116521590Y-102642368D01*
X116503347Y-102640441D01*
X116501333Y-102639706D01*
X116494612Y-102623132D01*
X116508188Y-102607136D01*
X116542068Y-102591711D01*
X116545231Y-102590642D01*
X116585357Y-102571906D01*
X116626444Y-102544211D01*
X116641441Y-102531406D01*
X116657376Y-102513879D01*
X116681842Y-102483614D01*
X116712961Y-102443230D01*
X116748851Y-102395347D01*
X116787634Y-102342584D01*
X116827430Y-102287562D01*
X116866360Y-102232900D01*
X116902543Y-102181219D01*
X116934101Y-102135137D01*
X116959153Y-102097274D01*
X116975820Y-102070251D01*
X116982222Y-102056688D01*
X116982240Y-102056395D01*
X116976416Y-102044097D01*
X116960180Y-102018157D01*
X116935384Y-101981134D01*
X116903881Y-101935589D01*
X116867522Y-101884080D01*
X116828160Y-101829167D01*
X116787647Y-101773410D01*
X116747836Y-101719368D01*
X116710578Y-101669601D01*
X116677726Y-101626667D01*
X116651133Y-101593127D01*
X116632651Y-101571541D01*
X116627935Y-101566818D01*
X116596904Y-101542762D01*
X116564189Y-101523264D01*
X116551604Y-101517757D01*
X116524036Y-101502897D01*
X116514880Y-101486198D01*
X116515962Y-101480789D01*
X116520689Y-101476563D01*
X116531283Y-101473376D01*
X116549966Y-101471082D01*
X116578957Y-101469536D01*
X116620479Y-101468594D01*
X116676754Y-101468108D01*
X116750001Y-101467935D01*
X116794280Y-101467920D01*
X116876869Y-101467978D01*
X116941368Y-101468257D01*
X116990006Y-101468908D01*
X117025015Y-101470086D01*
X117048622Y-101471944D01*
X117063059Y-101474635D01*
X117070555Y-101478313D01*
X117073339Y-101483130D01*
X117073680Y-101487138D01*
X117064323Y-101505087D01*
X117045740Y-101513330D01*
X117017965Y-101524417D01*
X117000020Y-101536326D01*
X116987814Y-101551094D01*
X116982970Y-101568860D01*
X116986348Y-101591994D01*
X116998809Y-101622862D01*
X117021211Y-101663833D01*
X117054416Y-101717276D01*
X117079964Y-101756437D01*
X117177689Y-101904564D01*
X117266804Y-101774264D01*
X117309763Y-101710822D01*
X117341979Y-101661621D01*
X117364712Y-101624505D01*
X117379220Y-101597318D01*
X117386763Y-101577905D01*
X117388640Y-101565681D01*
X117380363Y-101548077D01*
X117360365Y-101528896D01*
X117335892Y-101513849D01*
X117316149Y-101508560D01*
X117300184Y-101500744D01*
X117297200Y-101488240D01*
X117297984Y-101481411D01*
X117302062Y-101476312D01*
X117312019Y-101472692D01*
X117330443Y-101470296D01*
X117359919Y-101468874D01*
X117403035Y-101468173D01*
X117462377Y-101467940D01*
X117505480Y-101467920D01*
X117575519Y-101468008D01*
X117627820Y-101468435D01*
X117664964Y-101469443D01*
X117689532Y-101471273D01*
X117704107Y-101474169D01*
X117711268Y-101478371D01*
X117713599Y-101484122D01*
X117713760Y-101487452D01*
X117704502Y-101505614D01*
X117679002Y-101518455D01*
X117652129Y-101529107D01*
X117626469Y-101543822D01*
X117600182Y-101564547D01*
X117571433Y-101593230D01*
X117538383Y-101631818D01*
X117499196Y-101682259D01*
X117452034Y-101746501D01*
X117414986Y-101798337D01*
X117374514Y-101856040D01*
X117338555Y-101908604D01*
X117308638Y-101953689D01*
X117286288Y-101988956D01*
X117273035Y-102012065D01*
X117270050Y-102020373D01*
X117278013Y-102033877D01*
X117296125Y-102061197D01*
X117322542Y-102099746D01*
X117355417Y-102146938D01*
X117392905Y-102200186D01*
X117433159Y-102256905D01*
X117474334Y-102314508D01*
X117514584Y-102370409D01*
X117552063Y-102422023D01*
X117584925Y-102466762D01*
X117611325Y-102502040D01*
X117629416Y-102525273D01*
X117635347Y-102532180D01*
X117657086Y-102552229D01*
X117674730Y-102563947D01*
X117679289Y-102565200D01*
X117694978Y-102556965D01*
X117716275Y-102535347D01*
X117739387Y-102504976D01*
X117760518Y-102470482D01*
X117766477Y-102458844D01*
X117774054Y-102441395D01*
X117788206Y-102407020D01*
X117808131Y-102357726D01*
X117833030Y-102295519D01*
X117862101Y-102222409D01*
X117881456Y-102173485D01*
X118038880Y-102173485D01*
X118048512Y-102175263D01*
X118075299Y-102176811D01*
X118116075Y-102178033D01*
X118167677Y-102178834D01*
X118226537Y-102179120D01*
X118414195Y-102179120D01*
X118374855Y-102069900D01*
X118340113Y-101973537D01*
X118311570Y-101894617D01*
X118288595Y-101831446D01*
X118270554Y-101782328D01*
X118256815Y-101745569D01*
X118246746Y-101719476D01*
X118239714Y-101702353D01*
X118235087Y-101692506D01*
X118232481Y-101688492D01*
X118227611Y-101695927D01*
X118216698Y-101719342D01*
X118200943Y-101755734D01*
X118181545Y-101802098D01*
X118159704Y-101855429D01*
X118136618Y-101912723D01*
X118113488Y-101970974D01*
X118091513Y-102027177D01*
X118071893Y-102078329D01*
X118055826Y-102121425D01*
X118044512Y-102153459D01*
X118039151Y-102171427D01*
X118038880Y-102173485D01*
X117881456Y-102173485D01*
X117894546Y-102140401D01*
X117929563Y-102051505D01*
X117966351Y-101957726D01*
X117971160Y-101945440D01*
X118156023Y-101473000D01*
X118287951Y-101470419D01*
X118419880Y-101467839D01*
X118612920Y-101978121D01*
G37*
X118612920Y-101978121D02*
X118658214Y-102097556D01*
X118697185Y-102199428D01*
X118730541Y-102285238D01*
X118758992Y-102356487D01*
X118783248Y-102414675D01*
X118804017Y-102461305D01*
X118822011Y-102497876D01*
X118837938Y-102525889D01*
X118852509Y-102546845D01*
X118866432Y-102562246D01*
X118880418Y-102573591D01*
X118895175Y-102582382D01*
X118899709Y-102584672D01*
X118925633Y-102603792D01*
X118932729Y-102623620D01*
X118932960Y-102646480D01*
X118689120Y-102646480D01*
X118612588Y-102646410D01*
X118553989Y-102646076D01*
X118510935Y-102645285D01*
X118481039Y-102643848D01*
X118461914Y-102641573D01*
X118451172Y-102638269D01*
X118446425Y-102633746D01*
X118445287Y-102627814D01*
X118445280Y-102626996D01*
X118454995Y-102607959D01*
X118482560Y-102589299D01*
X118483380Y-102588896D01*
X118508454Y-102574104D01*
X118520182Y-102556894D01*
X118524511Y-102528990D01*
X118521209Y-102488222D01*
X118506724Y-102432156D01*
X118495545Y-102399268D01*
X118463546Y-102310837D01*
X118223853Y-102313558D01*
X117984159Y-102316280D01*
X117950791Y-102397560D01*
X117930480Y-102453390D01*
X117920779Y-102497351D01*
X117919732Y-102524560D01*
X117922612Y-102553272D01*
X117931080Y-102570252D01*
X117950502Y-102583259D01*
X117965220Y-102590337D01*
X117994859Y-102608079D01*
X118008006Y-102625294D01*
X118008400Y-102628437D01*
X118007412Y-102632972D01*
X118003215Y-102636679D01*
X117993954Y-102639640D01*
X117977777Y-102641939D01*
X117952831Y-102643659D01*
X117917263Y-102644882D01*
X117869219Y-102645693D01*
X117806847Y-102646173D01*
X117728294Y-102646407D01*
X117631706Y-102646478D01*
X117606373Y-102646480D01*
X117204346Y-102646480D01*
X117207593Y-102624303D01*
X117220295Y-102603413D01*
X117239871Y-102594410D01*
X117276449Y-102577901D01*
X117300223Y-102553142D01*
X117307360Y-102528158D01*
X117302019Y-102514081D01*
X117287360Y-102486906D01*
X117265422Y-102449766D01*
X117238247Y-102405796D01*
X117207875Y-102358128D01*
X117176347Y-102309894D01*
X117145705Y-102264229D01*
X117117989Y-102224266D01*
X117095240Y-102193136D01*
X117079500Y-102173975D01*
X117073623Y-102169345D01*
X117065723Y-102177357D01*
X117049530Y-102199747D01*
X117027003Y-102233351D01*
X117000102Y-102275005D01*
X116970788Y-102321543D01*
X116941019Y-102369801D01*
X116912757Y-102416615D01*
X116887960Y-102458819D01*
X116868590Y-102493249D01*
X116856605Y-102516740D01*
X116853754Y-102524366D01*
X116857077Y-102554503D01*
X116877570Y-102579499D01*
X116912134Y-102595656D01*
X116913886Y-102596096D01*
X116934080Y-102609985D01*
X116939766Y-102624036D01*
X116943013Y-102646480D01*
X116725559Y-102646480D01*
X116661044Y-102646176D01*
X116603502Y-102645328D01*
X116555996Y-102644028D01*
X116521590Y-102642368D01*
X116503347Y-102640441D01*
X116501333Y-102639706D01*
X116494612Y-102623132D01*
X116508188Y-102607136D01*
X116542068Y-102591711D01*
X116545231Y-102590642D01*
X116585357Y-102571906D01*
X116626444Y-102544211D01*
X116641441Y-102531406D01*
X116657376Y-102513879D01*
X116681842Y-102483614D01*
X116712961Y-102443230D01*
X116748851Y-102395347D01*
X116787634Y-102342584D01*
X116827430Y-102287562D01*
X116866360Y-102232900D01*
X116902543Y-102181219D01*
X116934101Y-102135137D01*
X116959153Y-102097274D01*
X116975820Y-102070251D01*
X116982222Y-102056688D01*
X116982240Y-102056395D01*
X116976416Y-102044097D01*
X116960180Y-102018157D01*
X116935384Y-101981134D01*
X116903881Y-101935589D01*
X116867522Y-101884080D01*
X116828160Y-101829167D01*
X116787647Y-101773410D01*
X116747836Y-101719368D01*
X116710578Y-101669601D01*
X116677726Y-101626667D01*
X116651133Y-101593127D01*
X116632651Y-101571541D01*
X116627935Y-101566818D01*
X116596904Y-101542762D01*
X116564189Y-101523264D01*
X116551604Y-101517757D01*
X116524036Y-101502897D01*
X116514880Y-101486198D01*
X116515962Y-101480789D01*
X116520689Y-101476563D01*
X116531283Y-101473376D01*
X116549966Y-101471082D01*
X116578957Y-101469536D01*
X116620479Y-101468594D01*
X116676754Y-101468108D01*
X116750001Y-101467935D01*
X116794280Y-101467920D01*
X116876869Y-101467978D01*
X116941368Y-101468257D01*
X116990006Y-101468908D01*
X117025015Y-101470086D01*
X117048622Y-101471944D01*
X117063059Y-101474635D01*
X117070555Y-101478313D01*
X117073339Y-101483130D01*
X117073680Y-101487138D01*
X117064323Y-101505087D01*
X117045740Y-101513330D01*
X117017965Y-101524417D01*
X117000020Y-101536326D01*
X116987814Y-101551094D01*
X116982970Y-101568860D01*
X116986348Y-101591994D01*
X116998809Y-101622862D01*
X117021211Y-101663833D01*
X117054416Y-101717276D01*
X117079964Y-101756437D01*
X117177689Y-101904564D01*
X117266804Y-101774264D01*
X117309763Y-101710822D01*
X117341979Y-101661621D01*
X117364712Y-101624505D01*
X117379220Y-101597318D01*
X117386763Y-101577905D01*
X117388640Y-101565681D01*
X117380363Y-101548077D01*
X117360365Y-101528896D01*
X117335892Y-101513849D01*
X117316149Y-101508560D01*
X117300184Y-101500744D01*
X117297200Y-101488240D01*
X117297984Y-101481411D01*
X117302062Y-101476312D01*
X117312019Y-101472692D01*
X117330443Y-101470296D01*
X117359919Y-101468874D01*
X117403035Y-101468173D01*
X117462377Y-101467940D01*
X117505480Y-101467920D01*
X117575519Y-101468008D01*
X117627820Y-101468435D01*
X117664964Y-101469443D01*
X117689532Y-101471273D01*
X117704107Y-101474169D01*
X117711268Y-101478371D01*
X117713599Y-101484122D01*
X117713760Y-101487452D01*
X117704502Y-101505614D01*
X117679002Y-101518455D01*
X117652129Y-101529107D01*
X117626469Y-101543822D01*
X117600182Y-101564547D01*
X117571433Y-101593230D01*
X117538383Y-101631818D01*
X117499196Y-101682259D01*
X117452034Y-101746501D01*
X117414986Y-101798337D01*
X117374514Y-101856040D01*
X117338555Y-101908604D01*
X117308638Y-101953689D01*
X117286288Y-101988956D01*
X117273035Y-102012065D01*
X117270050Y-102020373D01*
X117278013Y-102033877D01*
X117296125Y-102061197D01*
X117322542Y-102099746D01*
X117355417Y-102146938D01*
X117392905Y-102200186D01*
X117433159Y-102256905D01*
X117474334Y-102314508D01*
X117514584Y-102370409D01*
X117552063Y-102422023D01*
X117584925Y-102466762D01*
X117611325Y-102502040D01*
X117629416Y-102525273D01*
X117635347Y-102532180D01*
X117657086Y-102552229D01*
X117674730Y-102563947D01*
X117679289Y-102565200D01*
X117694978Y-102556965D01*
X117716275Y-102535347D01*
X117739387Y-102504976D01*
X117760518Y-102470482D01*
X117766477Y-102458844D01*
X117774054Y-102441395D01*
X117788206Y-102407020D01*
X117808131Y-102357726D01*
X117833030Y-102295519D01*
X117862101Y-102222409D01*
X117881456Y-102173485D01*
X118038880Y-102173485D01*
X118048512Y-102175263D01*
X118075299Y-102176811D01*
X118116075Y-102178033D01*
X118167677Y-102178834D01*
X118226537Y-102179120D01*
X118414195Y-102179120D01*
X118374855Y-102069900D01*
X118340113Y-101973537D01*
X118311570Y-101894617D01*
X118288595Y-101831446D01*
X118270554Y-101782328D01*
X118256815Y-101745569D01*
X118246746Y-101719476D01*
X118239714Y-101702353D01*
X118235087Y-101692506D01*
X118232481Y-101688492D01*
X118227611Y-101695927D01*
X118216698Y-101719342D01*
X118200943Y-101755734D01*
X118181545Y-101802098D01*
X118159704Y-101855429D01*
X118136618Y-101912723D01*
X118113488Y-101970974D01*
X118091513Y-102027177D01*
X118071893Y-102078329D01*
X118055826Y-102121425D01*
X118044512Y-102153459D01*
X118039151Y-102171427D01*
X118038880Y-102173485D01*
X117881456Y-102173485D01*
X117894546Y-102140401D01*
X117929563Y-102051505D01*
X117966351Y-101957726D01*
X117971160Y-101945440D01*
X118156023Y-101473000D01*
X118287951Y-101470419D01*
X118419880Y-101467839D01*
X118612920Y-101978121D01*
G36*
X116377720Y-101467950D02*
G01*
X116424777Y-101597475D01*
X116446251Y-101658985D01*
X116459202Y-101702996D01*
X116463387Y-101730566D01*
X116458564Y-101742752D01*
X116444491Y-101740610D01*
X116420924Y-101725200D01*
X116399470Y-101707781D01*
X116363153Y-101677752D01*
X116331948Y-101655014D01*
X116302089Y-101638496D01*
X116269807Y-101627127D01*
X116231337Y-101619837D01*
X116182911Y-101615554D01*
X116120763Y-101613209D01*
X116062760Y-101612076D01*
X115992625Y-101611196D01*
X115940006Y-101611277D01*
X115902114Y-101612474D01*
X115876161Y-101614941D01*
X115859358Y-101618834D01*
X115849400Y-101623944D01*
X115841614Y-101631276D01*
X115835970Y-101642117D01*
X115832021Y-101659719D01*
X115829321Y-101687332D01*
X115827425Y-101728206D01*
X115825887Y-101785594D01*
X115825628Y-101797287D01*
X115822176Y-101955600D01*
X116018947Y-101955600D01*
X116092754Y-101955342D01*
X116149014Y-101954124D01*
X116190495Y-101951282D01*
X116219969Y-101946148D01*
X116240205Y-101938057D01*
X116253974Y-101926344D01*
X116264045Y-101910341D01*
X116270872Y-101895044D01*
X116286319Y-101871266D01*
X116307832Y-101864160D01*
X116332000Y-101864160D01*
X116332000Y-102189280D01*
X116308481Y-102189280D01*
X116287834Y-102182196D01*
X116270481Y-102158701D01*
X116267896Y-102153489D01*
X116249993Y-102127269D01*
X116228165Y-102109318D01*
X116224712Y-102107769D01*
X116206427Y-102104592D01*
X116171596Y-102101836D01*
X116123993Y-102099676D01*
X116067390Y-102098287D01*
X116010491Y-102097840D01*
X115822386Y-102097840D01*
X115825733Y-102286634D01*
X115827069Y-102353430D01*
X115828590Y-102402828D01*
X115830626Y-102437748D01*
X115833508Y-102461112D01*
X115837569Y-102475839D01*
X115843140Y-102484852D01*
X115848801Y-102489834D01*
X115861380Y-102495446D01*
X115883205Y-102499494D01*
X115916935Y-102502175D01*
X115965228Y-102503688D01*
X116030743Y-102504230D01*
X116042995Y-102504240D01*
X116134732Y-102503232D01*
X116209359Y-102499655D01*
X116270010Y-102492678D01*
X116319820Y-102481469D01*
X116361923Y-102465197D01*
X116399455Y-102443032D01*
X116435549Y-102414140D01*
X116456396Y-102394624D01*
X116484396Y-102369075D01*
X116502606Y-102357375D01*
X116514167Y-102357700D01*
X116516580Y-102359636D01*
X116519747Y-102369133D01*
X116517250Y-102387750D01*
X116508388Y-102417970D01*
X116492460Y-102462276D01*
X116474345Y-102509051D01*
X116420123Y-102646480D01*
X115945955Y-102646480D01*
X115849689Y-102646339D01*
X115759691Y-102645935D01*
X115677990Y-102645298D01*
X115606616Y-102644455D01*
X115547597Y-102643435D01*
X115502963Y-102642267D01*
X115474742Y-102640979D01*
X115465013Y-102639706D01*
X115458462Y-102622999D01*
X115471887Y-102606504D01*
X115497843Y-102593365D01*
X115515189Y-102586587D01*
X115529724Y-102579885D01*
X115541697Y-102571518D01*
X115551356Y-102559743D01*
X115558948Y-102542815D01*
X115564723Y-102518993D01*
X115568928Y-102486534D01*
X115571811Y-102443694D01*
X115573620Y-102388730D01*
X115574604Y-102319900D01*
X115575011Y-102235460D01*
X115575088Y-102133669D01*
X115575080Y-102050845D01*
X115575080Y-101581317D01*
X115550473Y-101555124D01*
X115522596Y-101532663D01*
X115492053Y-101516705D01*
X115466521Y-101502273D01*
X115458240Y-101486198D01*
X115459118Y-101481877D01*
X115462909Y-101478295D01*
X115471349Y-101475383D01*
X115486174Y-101473072D01*
X115509119Y-101471293D01*
X115541919Y-101469978D01*
X115586311Y-101469056D01*
X115644029Y-101468460D01*
X115716809Y-101468121D01*
X115806387Y-101467969D01*
X115914498Y-101467935D01*
X115917980Y-101467935D01*
X116377720Y-101467950D01*
G37*
X116377720Y-101467950D02*
X116424777Y-101597475D01*
X116446251Y-101658985D01*
X116459202Y-101702996D01*
X116463387Y-101730566D01*
X116458564Y-101742752D01*
X116444491Y-101740610D01*
X116420924Y-101725200D01*
X116399470Y-101707781D01*
X116363153Y-101677752D01*
X116331948Y-101655014D01*
X116302089Y-101638496D01*
X116269807Y-101627127D01*
X116231337Y-101619837D01*
X116182911Y-101615554D01*
X116120763Y-101613209D01*
X116062760Y-101612076D01*
X115992625Y-101611196D01*
X115940006Y-101611277D01*
X115902114Y-101612474D01*
X115876161Y-101614941D01*
X115859358Y-101618834D01*
X115849400Y-101623944D01*
X115841614Y-101631276D01*
X115835970Y-101642117D01*
X115832021Y-101659719D01*
X115829321Y-101687332D01*
X115827425Y-101728206D01*
X115825887Y-101785594D01*
X115825628Y-101797287D01*
X115822176Y-101955600D01*
X116018947Y-101955600D01*
X116092754Y-101955342D01*
X116149014Y-101954124D01*
X116190495Y-101951282D01*
X116219969Y-101946148D01*
X116240205Y-101938057D01*
X116253974Y-101926344D01*
X116264045Y-101910341D01*
X116270872Y-101895044D01*
X116286319Y-101871266D01*
X116307832Y-101864160D01*
X116332000Y-101864160D01*
X116332000Y-102189280D01*
X116308481Y-102189280D01*
X116287834Y-102182196D01*
X116270481Y-102158701D01*
X116267896Y-102153489D01*
X116249993Y-102127269D01*
X116228165Y-102109318D01*
X116224712Y-102107769D01*
X116206427Y-102104592D01*
X116171596Y-102101836D01*
X116123993Y-102099676D01*
X116067390Y-102098287D01*
X116010491Y-102097840D01*
X115822386Y-102097840D01*
X115825733Y-102286634D01*
X115827069Y-102353430D01*
X115828590Y-102402828D01*
X115830626Y-102437748D01*
X115833508Y-102461112D01*
X115837569Y-102475839D01*
X115843140Y-102484852D01*
X115848801Y-102489834D01*
X115861380Y-102495446D01*
X115883205Y-102499494D01*
X115916935Y-102502175D01*
X115965228Y-102503688D01*
X116030743Y-102504230D01*
X116042995Y-102504240D01*
X116134732Y-102503232D01*
X116209359Y-102499655D01*
X116270010Y-102492678D01*
X116319820Y-102481469D01*
X116361923Y-102465197D01*
X116399455Y-102443032D01*
X116435549Y-102414140D01*
X116456396Y-102394624D01*
X116484396Y-102369075D01*
X116502606Y-102357375D01*
X116514167Y-102357700D01*
X116516580Y-102359636D01*
X116519747Y-102369133D01*
X116517250Y-102387750D01*
X116508388Y-102417970D01*
X116492460Y-102462276D01*
X116474345Y-102509051D01*
X116420123Y-102646480D01*
X115945955Y-102646480D01*
X115849689Y-102646339D01*
X115759691Y-102645935D01*
X115677990Y-102645298D01*
X115606616Y-102644455D01*
X115547597Y-102643435D01*
X115502963Y-102642267D01*
X115474742Y-102640979D01*
X115465013Y-102639706D01*
X115458462Y-102622999D01*
X115471887Y-102606504D01*
X115497843Y-102593365D01*
X115515189Y-102586587D01*
X115529724Y-102579885D01*
X115541697Y-102571518D01*
X115551356Y-102559743D01*
X115558948Y-102542815D01*
X115564723Y-102518993D01*
X115568928Y-102486534D01*
X115571811Y-102443694D01*
X115573620Y-102388730D01*
X115574604Y-102319900D01*
X115575011Y-102235460D01*
X115575088Y-102133669D01*
X115575080Y-102050845D01*
X115575080Y-101581317D01*
X115550473Y-101555124D01*
X115522596Y-101532663D01*
X115492053Y-101516705D01*
X115466521Y-101502273D01*
X115458240Y-101486198D01*
X115459118Y-101481877D01*
X115462909Y-101478295D01*
X115471349Y-101475383D01*
X115486174Y-101473072D01*
X115509119Y-101471293D01*
X115541919Y-101469978D01*
X115586311Y-101469056D01*
X115644029Y-101468460D01*
X115716809Y-101468121D01*
X115806387Y-101467969D01*
X115914498Y-101467935D01*
X115917980Y-101467935D01*
X116377720Y-101467950D01*
G36*
X115636040Y-101102307D02*
G01*
X115680705Y-101231773D01*
X115697542Y-101280517D01*
X115712201Y-101322838D01*
X115723301Y-101354763D01*
X115729464Y-101372319D01*
X115730019Y-101373854D01*
X115730739Y-101388795D01*
X115719232Y-101391458D01*
X115698667Y-101382827D01*
X115672214Y-101363885D01*
X115658637Y-101351691D01*
X115626120Y-101324062D01*
X115591696Y-101303295D01*
X115551869Y-101288486D01*
X115503141Y-101278735D01*
X115442015Y-101273137D01*
X115364993Y-101270793D01*
X115344389Y-101270617D01*
X115285077Y-101270568D01*
X115242676Y-101271410D01*
X115213782Y-101273494D01*
X115194993Y-101277172D01*
X115182908Y-101282796D01*
X115176749Y-101287944D01*
X115172939Y-101292691D01*
X115169699Y-101299793D01*
X115166981Y-101310812D01*
X115164742Y-101327309D01*
X115162934Y-101350848D01*
X115161513Y-101382990D01*
X115160432Y-101425297D01*
X115159645Y-101479333D01*
X115159107Y-101546658D01*
X115158771Y-101628836D01*
X115158593Y-101727428D01*
X115158526Y-101843997D01*
X115158520Y-101909501D01*
X115158534Y-102035296D01*
X115158614Y-102142368D01*
X115158811Y-102232311D01*
X115159179Y-102306721D01*
X115159770Y-102367196D01*
X115160638Y-102415330D01*
X115161836Y-102452719D01*
X115163416Y-102480960D01*
X115165432Y-102501648D01*
X115167936Y-102516379D01*
X115170982Y-102526750D01*
X115174621Y-102534355D01*
X115178909Y-102540791D01*
X115179495Y-102541597D01*
X115203024Y-102565448D01*
X115233353Y-102586501D01*
X115237915Y-102588896D01*
X115265273Y-102607500D01*
X115275353Y-102626540D01*
X115275360Y-102626996D01*
X115274516Y-102633002D01*
X115270426Y-102637629D01*
X115260750Y-102641056D01*
X115243148Y-102643463D01*
X115215281Y-102645028D01*
X115174809Y-102645933D01*
X115119393Y-102646356D01*
X115046693Y-102646476D01*
X115021360Y-102646480D01*
X114943102Y-102646424D01*
X114882821Y-102646132D01*
X114838174Y-102645419D01*
X114806818Y-102644097D01*
X114786409Y-102641981D01*
X114774605Y-102638885D01*
X114769062Y-102634621D01*
X114767437Y-102629005D01*
X114767360Y-102626296D01*
X114777289Y-102606333D01*
X114801214Y-102591967D01*
X114831634Y-102573721D01*
X114857094Y-102549821D01*
X114879120Y-102521819D01*
X114879120Y-101909753D01*
X114879082Y-101782219D01*
X114878942Y-101673479D01*
X114878658Y-101582009D01*
X114878190Y-101506283D01*
X114877496Y-101444776D01*
X114876536Y-101395963D01*
X114875270Y-101358318D01*
X114873655Y-101330316D01*
X114871651Y-101310433D01*
X114869218Y-101297142D01*
X114866314Y-101288919D01*
X114862899Y-101284238D01*
X114862336Y-101283744D01*
X114841831Y-101275634D01*
X114805347Y-101269862D01*
X114757110Y-101266579D01*
X114701343Y-101265937D01*
X114642269Y-101268084D01*
X114584112Y-101273173D01*
X114579983Y-101273668D01*
X114502771Y-101287898D01*
X114440878Y-101310590D01*
X114390493Y-101343359D01*
X114369606Y-101362801D01*
X114342823Y-101386401D01*
X114322664Y-101396205D01*
X114311560Y-101391362D01*
X114310160Y-101383624D01*
X114313246Y-101370290D01*
X114321526Y-101342247D01*
X114333530Y-101303983D01*
X114347788Y-101259986D01*
X114362831Y-101214744D01*
X114377190Y-101172744D01*
X114389395Y-101138475D01*
X114396498Y-101119940D01*
X114398987Y-101116261D01*
X114404217Y-101113126D01*
X114413704Y-101110492D01*
X114428963Y-101108316D01*
X114451508Y-101106555D01*
X114482855Y-101105166D01*
X114524518Y-101104106D01*
X114578012Y-101103332D01*
X114644851Y-101102800D01*
X114726552Y-101102469D01*
X114824628Y-101102294D01*
X114940595Y-101102233D01*
X115019907Y-101102233D01*
X115636040Y-101102307D01*
G37*
X115636040Y-101102307D02*
X115680705Y-101231773D01*
X115697542Y-101280517D01*
X115712201Y-101322838D01*
X115723301Y-101354763D01*
X115729464Y-101372319D01*
X115730019Y-101373854D01*
X115730739Y-101388795D01*
X115719232Y-101391458D01*
X115698667Y-101382827D01*
X115672214Y-101363885D01*
X115658637Y-101351691D01*
X115626120Y-101324062D01*
X115591696Y-101303295D01*
X115551869Y-101288486D01*
X115503141Y-101278735D01*
X115442015Y-101273137D01*
X115364993Y-101270793D01*
X115344389Y-101270617D01*
X115285077Y-101270568D01*
X115242676Y-101271410D01*
X115213782Y-101273494D01*
X115194993Y-101277172D01*
X115182908Y-101282796D01*
X115176749Y-101287944D01*
X115172939Y-101292691D01*
X115169699Y-101299793D01*
X115166981Y-101310812D01*
X115164742Y-101327309D01*
X115162934Y-101350848D01*
X115161513Y-101382990D01*
X115160432Y-101425297D01*
X115159645Y-101479333D01*
X115159107Y-101546658D01*
X115158771Y-101628836D01*
X115158593Y-101727428D01*
X115158526Y-101843997D01*
X115158520Y-101909501D01*
X115158534Y-102035296D01*
X115158614Y-102142368D01*
X115158811Y-102232311D01*
X115159179Y-102306721D01*
X115159770Y-102367196D01*
X115160638Y-102415330D01*
X115161836Y-102452719D01*
X115163416Y-102480960D01*
X115165432Y-102501648D01*
X115167936Y-102516379D01*
X115170982Y-102526750D01*
X115174621Y-102534355D01*
X115178909Y-102540791D01*
X115179495Y-102541597D01*
X115203024Y-102565448D01*
X115233353Y-102586501D01*
X115237915Y-102588896D01*
X115265273Y-102607500D01*
X115275353Y-102626540D01*
X115275360Y-102626996D01*
X115274516Y-102633002D01*
X115270426Y-102637629D01*
X115260750Y-102641056D01*
X115243148Y-102643463D01*
X115215281Y-102645028D01*
X115174809Y-102645933D01*
X115119393Y-102646356D01*
X115046693Y-102646476D01*
X115021360Y-102646480D01*
X114943102Y-102646424D01*
X114882821Y-102646132D01*
X114838174Y-102645419D01*
X114806818Y-102644097D01*
X114786409Y-102641981D01*
X114774605Y-102638885D01*
X114769062Y-102634621D01*
X114767437Y-102629005D01*
X114767360Y-102626296D01*
X114777289Y-102606333D01*
X114801214Y-102591967D01*
X114831634Y-102573721D01*
X114857094Y-102549821D01*
X114879120Y-102521819D01*
X114879120Y-101909753D01*
X114879082Y-101782219D01*
X114878942Y-101673479D01*
X114878658Y-101582009D01*
X114878190Y-101506283D01*
X114877496Y-101444776D01*
X114876536Y-101395963D01*
X114875270Y-101358318D01*
X114873655Y-101330316D01*
X114871651Y-101310433D01*
X114869218Y-101297142D01*
X114866314Y-101288919D01*
X114862899Y-101284238D01*
X114862336Y-101283744D01*
X114841831Y-101275634D01*
X114805347Y-101269862D01*
X114757110Y-101266579D01*
X114701343Y-101265937D01*
X114642269Y-101268084D01*
X114584112Y-101273173D01*
X114579983Y-101273668D01*
X114502771Y-101287898D01*
X114440878Y-101310590D01*
X114390493Y-101343359D01*
X114369606Y-101362801D01*
X114342823Y-101386401D01*
X114322664Y-101396205D01*
X114311560Y-101391362D01*
X114310160Y-101383624D01*
X114313246Y-101370290D01*
X114321526Y-101342247D01*
X114333530Y-101303983D01*
X114347788Y-101259986D01*
X114362831Y-101214744D01*
X114377190Y-101172744D01*
X114389395Y-101138475D01*
X114396498Y-101119940D01*
X114398987Y-101116261D01*
X114404217Y-101113126D01*
X114413704Y-101110492D01*
X114428963Y-101108316D01*
X114451508Y-101106555D01*
X114482855Y-101105166D01*
X114524518Y-101104106D01*
X114578012Y-101103332D01*
X114644851Y-101102800D01*
X114726552Y-101102469D01*
X114824628Y-101102294D01*
X114940595Y-101102233D01*
X115019907Y-101102233D01*
X115636040Y-101102307D01*
G36*
X119396125Y-101453509D02*
G01*
X119487910Y-101470519D01*
X119550884Y-101493498D01*
X119586628Y-101509334D01*
X119608698Y-101516421D01*
X119621767Y-101514749D01*
X119630506Y-101504310D01*
X119635848Y-101493320D01*
X119654123Y-101472148D01*
X119670760Y-101467920D01*
X119683751Y-101470461D01*
X119693850Y-101480795D01*
X119703575Y-101502984D01*
X119714849Y-101539040D01*
X119729268Y-101588464D01*
X119745159Y-101642941D01*
X119755920Y-101679835D01*
X119769692Y-101731842D01*
X119774878Y-101765842D01*
X119770855Y-101782522D01*
X119757004Y-101782569D01*
X119732705Y-101766668D01*
X119701817Y-101739687D01*
X119642402Y-101693428D01*
X119572431Y-101652934D01*
X119499980Y-101622442D01*
X119454061Y-101609716D01*
X119386265Y-101601031D01*
X119320144Y-101602365D01*
X119259459Y-101612833D01*
X119207968Y-101631550D01*
X119169431Y-101657632D01*
X119151609Y-101680875D01*
X119138453Y-101722494D01*
X119137781Y-101766589D01*
X119149314Y-101805092D01*
X119156289Y-101815890D01*
X119170185Y-101830379D01*
X119189156Y-101843407D01*
X119215755Y-101855887D01*
X119252536Y-101868730D01*
X119302052Y-101882847D01*
X119366859Y-101899150D01*
X119433696Y-101914903D01*
X119537591Y-101941217D01*
X119623076Y-101968301D01*
X119692058Y-101997301D01*
X119746445Y-102029364D01*
X119788141Y-102065637D01*
X119819056Y-102107269D01*
X119841095Y-102155405D01*
X119843067Y-102161170D01*
X119855042Y-102216813D01*
X119859252Y-102282188D01*
X119855713Y-102348255D01*
X119844445Y-102405975D01*
X119842553Y-102411976D01*
X119812143Y-102473225D01*
X119764847Y-102529598D01*
X119703970Y-102578483D01*
X119632820Y-102617268D01*
X119554704Y-102643340D01*
X119547640Y-102644932D01*
X119501357Y-102652823D01*
X119448135Y-102658683D01*
X119395606Y-102661951D01*
X119351403Y-102662061D01*
X119334280Y-102660689D01*
X119240375Y-102643144D01*
X119154674Y-102616743D01*
X119132777Y-102607834D01*
X119100091Y-102594080D01*
X119080724Y-102588126D01*
X119069447Y-102589477D01*
X119061029Y-102597638D01*
X119058665Y-102600812D01*
X119047493Y-102621453D01*
X119044720Y-102633181D01*
X119035760Y-102643174D01*
X119015988Y-102646480D01*
X119005616Y-102645997D01*
X118997294Y-102642758D01*
X118989869Y-102634080D01*
X118982189Y-102617276D01*
X118973103Y-102589662D01*
X118961459Y-102548553D01*
X118946103Y-102491264D01*
X118940786Y-102471220D01*
X118922438Y-102399734D01*
X118910154Y-102346320D01*
X118903694Y-102309734D01*
X118902821Y-102288729D01*
X118904668Y-102283324D01*
X118913392Y-102281003D01*
X118929389Y-102289171D01*
X118954789Y-102309297D01*
X118991724Y-102342847D01*
X118993583Y-102344595D01*
X119079428Y-102415293D01*
X119166435Y-102466360D01*
X119256305Y-102498476D01*
X119350735Y-102512322D01*
X119411204Y-102512094D01*
X119488088Y-102501364D01*
X119548740Y-102478693D01*
X119593045Y-102444169D01*
X119620887Y-102397875D01*
X119631662Y-102347691D01*
X119632165Y-102310819D01*
X119624920Y-102283317D01*
X119612044Y-102261283D01*
X119594897Y-102240140D01*
X119573255Y-102222132D01*
X119544309Y-102206076D01*
X119505250Y-102190788D01*
X119453271Y-102175084D01*
X119385562Y-102157780D01*
X119342194Y-102147522D01*
X119244562Y-102123095D01*
X119164848Y-102098846D01*
X119100702Y-102073522D01*
X119049772Y-102045872D01*
X119009706Y-102014644D01*
X118978155Y-101978585D01*
X118955414Y-101941576D01*
X118941741Y-101912855D01*
X118933495Y-101886110D01*
X118929360Y-101854471D01*
X118928024Y-101811067D01*
X118927973Y-101798120D01*
X118928772Y-101750512D01*
X118932204Y-101715920D01*
X118939643Y-101687078D01*
X118952466Y-101656721D01*
X118956227Y-101648954D01*
X118992185Y-101591533D01*
X119039699Y-101545011D01*
X119102581Y-101505864D01*
X119120438Y-101497149D01*
X119207159Y-101466868D01*
X119300798Y-101452307D01*
X119396125Y-101453509D01*
G37*
X119396125Y-101453509D02*
X119487910Y-101470519D01*
X119550884Y-101493498D01*
X119586628Y-101509334D01*
X119608698Y-101516421D01*
X119621767Y-101514749D01*
X119630506Y-101504310D01*
X119635848Y-101493320D01*
X119654123Y-101472148D01*
X119670760Y-101467920D01*
X119683751Y-101470461D01*
X119693850Y-101480795D01*
X119703575Y-101502984D01*
X119714849Y-101539040D01*
X119729268Y-101588464D01*
X119745159Y-101642941D01*
X119755920Y-101679835D01*
X119769692Y-101731842D01*
X119774878Y-101765842D01*
X119770855Y-101782522D01*
X119757004Y-101782569D01*
X119732705Y-101766668D01*
X119701817Y-101739687D01*
X119642402Y-101693428D01*
X119572431Y-101652934D01*
X119499980Y-101622442D01*
X119454061Y-101609716D01*
X119386265Y-101601031D01*
X119320144Y-101602365D01*
X119259459Y-101612833D01*
X119207968Y-101631550D01*
X119169431Y-101657632D01*
X119151609Y-101680875D01*
X119138453Y-101722494D01*
X119137781Y-101766589D01*
X119149314Y-101805092D01*
X119156289Y-101815890D01*
X119170185Y-101830379D01*
X119189156Y-101843407D01*
X119215755Y-101855887D01*
X119252536Y-101868730D01*
X119302052Y-101882847D01*
X119366859Y-101899150D01*
X119433696Y-101914903D01*
X119537591Y-101941217D01*
X119623076Y-101968301D01*
X119692058Y-101997301D01*
X119746445Y-102029364D01*
X119788141Y-102065637D01*
X119819056Y-102107269D01*
X119841095Y-102155405D01*
X119843067Y-102161170D01*
X119855042Y-102216813D01*
X119859252Y-102282188D01*
X119855713Y-102348255D01*
X119844445Y-102405975D01*
X119842553Y-102411976D01*
X119812143Y-102473225D01*
X119764847Y-102529598D01*
X119703970Y-102578483D01*
X119632820Y-102617268D01*
X119554704Y-102643340D01*
X119547640Y-102644932D01*
X119501357Y-102652823D01*
X119448135Y-102658683D01*
X119395606Y-102661951D01*
X119351403Y-102662061D01*
X119334280Y-102660689D01*
X119240375Y-102643144D01*
X119154674Y-102616743D01*
X119132777Y-102607834D01*
X119100091Y-102594080D01*
X119080724Y-102588126D01*
X119069447Y-102589477D01*
X119061029Y-102597638D01*
X119058665Y-102600812D01*
X119047493Y-102621453D01*
X119044720Y-102633181D01*
X119035760Y-102643174D01*
X119015988Y-102646480D01*
X119005616Y-102645997D01*
X118997294Y-102642758D01*
X118989869Y-102634080D01*
X118982189Y-102617276D01*
X118973103Y-102589662D01*
X118961459Y-102548553D01*
X118946103Y-102491264D01*
X118940786Y-102471220D01*
X118922438Y-102399734D01*
X118910154Y-102346320D01*
X118903694Y-102309734D01*
X118902821Y-102288729D01*
X118904668Y-102283324D01*
X118913392Y-102281003D01*
X118929389Y-102289171D01*
X118954789Y-102309297D01*
X118991724Y-102342847D01*
X118993583Y-102344595D01*
X119079428Y-102415293D01*
X119166435Y-102466360D01*
X119256305Y-102498476D01*
X119350735Y-102512322D01*
X119411204Y-102512094D01*
X119488088Y-102501364D01*
X119548740Y-102478693D01*
X119593045Y-102444169D01*
X119620887Y-102397875D01*
X119631662Y-102347691D01*
X119632165Y-102310819D01*
X119624920Y-102283317D01*
X119612044Y-102261283D01*
X119594897Y-102240140D01*
X119573255Y-102222132D01*
X119544309Y-102206076D01*
X119505250Y-102190788D01*
X119453271Y-102175084D01*
X119385562Y-102157780D01*
X119342194Y-102147522D01*
X119244562Y-102123095D01*
X119164848Y-102098846D01*
X119100702Y-102073522D01*
X119049772Y-102045872D01*
X119009706Y-102014644D01*
X118978155Y-101978585D01*
X118955414Y-101941576D01*
X118941741Y-101912855D01*
X118933495Y-101886110D01*
X118929360Y-101854471D01*
X118928024Y-101811067D01*
X118927973Y-101798120D01*
X118928772Y-101750512D01*
X118932204Y-101715920D01*
X118939643Y-101687078D01*
X118952466Y-101656721D01*
X118956227Y-101648954D01*
X118992185Y-101591533D01*
X119039699Y-101545011D01*
X119102581Y-101505864D01*
X119120438Y-101497149D01*
X119207159Y-101466868D01*
X119300798Y-101452307D01*
X119396125Y-101453509D01*
G36*
X111963200Y-101102160D02*
G01*
X112080233Y-101102160D01*
X112130340Y-101102286D01*
X112163420Y-101103116D01*
X112182770Y-101105324D01*
X112191683Y-101109586D01*
X112193453Y-101116574D01*
X112191837Y-101125020D01*
X112188368Y-101141105D01*
X112181887Y-101172467D01*
X112173105Y-101215555D01*
X112162735Y-101266816D01*
X112151488Y-101322699D01*
X112140076Y-101379651D01*
X112129211Y-101434121D01*
X112119604Y-101482557D01*
X112111969Y-101521407D01*
X112107016Y-101547118D01*
X112105440Y-101556101D01*
X112095925Y-101557342D01*
X112069960Y-101558366D01*
X112031414Y-101559071D01*
X111984158Y-101559358D01*
X111979908Y-101559360D01*
X111854376Y-101559360D01*
X111816760Y-101749860D01*
X111804706Y-101810491D01*
X111793707Y-101865027D01*
X111784471Y-101910028D01*
X111777704Y-101942057D01*
X111774111Y-101957672D01*
X111774065Y-101957832D01*
X111773722Y-101965162D01*
X111779770Y-101970270D01*
X111795314Y-101973678D01*
X111823458Y-101975905D01*
X111867307Y-101977472D01*
X111895260Y-101978152D01*
X112021534Y-101981000D01*
X111940812Y-102382320D01*
X111917184Y-102500889D01*
X111897821Y-102601395D01*
X111882646Y-102685624D01*
X111871580Y-102755362D01*
X111864546Y-102812397D01*
X111861468Y-102858514D01*
X111862268Y-102895500D01*
X111866867Y-102925143D01*
X111875190Y-102949229D01*
X111887158Y-102969544D01*
X111902695Y-102987876D01*
X111914101Y-102999043D01*
X111941522Y-103021106D01*
X111973407Y-103039180D01*
X112011819Y-103053582D01*
X112058825Y-103064628D01*
X112116488Y-103072633D01*
X112186873Y-103077913D01*
X112272046Y-103080784D01*
X112374070Y-103081563D01*
X112450414Y-103081096D01*
X112729349Y-103078280D01*
X112772507Y-102864920D01*
X112785271Y-102801581D01*
X112796583Y-102745005D01*
X112805847Y-102698208D01*
X112812466Y-102664209D01*
X112815844Y-102646026D01*
X112816152Y-102643940D01*
X112807043Y-102640373D01*
X112782433Y-102637700D01*
X112747134Y-102636383D01*
X112736876Y-102636320D01*
X112677270Y-102634233D01*
X112634676Y-102627296D01*
X112606148Y-102614493D01*
X112588742Y-102594806D01*
X112583765Y-102583463D01*
X112581125Y-102571139D01*
X112580646Y-102553394D01*
X112582653Y-102527986D01*
X112587472Y-102492672D01*
X112595427Y-102445210D01*
X112606844Y-102383357D01*
X112622049Y-102304872D01*
X112630088Y-102264160D01*
X112687239Y-101975920D01*
X112817979Y-101975920D01*
X112866846Y-101975682D01*
X112907406Y-101975033D01*
X112935866Y-101974066D01*
X112948436Y-101972876D01*
X112948720Y-101972661D01*
X112950633Y-101962178D01*
X112955972Y-101934803D01*
X112964138Y-101893563D01*
X112974531Y-101841484D01*
X112986550Y-101781593D01*
X112989360Y-101767639D01*
X113001657Y-101706433D01*
X113012460Y-101652372D01*
X113021168Y-101608483D01*
X113027183Y-101577791D01*
X113029903Y-101563323D01*
X113030000Y-101562618D01*
X113020481Y-101561383D01*
X112994490Y-101560364D01*
X112955873Y-101559657D01*
X112908479Y-101559363D01*
X112903000Y-101559360D01*
X112854843Y-101558788D01*
X112815003Y-101557228D01*
X112787343Y-101554909D01*
X112775727Y-101552064D01*
X112775594Y-101551740D01*
X112777351Y-101539960D01*
X112782494Y-101511212D01*
X112790469Y-101468462D01*
X112800718Y-101414675D01*
X112812684Y-101352817D01*
X112818481Y-101323140D01*
X112861773Y-101102160D01*
X113588800Y-101102160D01*
X113588800Y-101360739D01*
X113589259Y-101440721D01*
X113590565Y-101514048D01*
X113592605Y-101577650D01*
X113595271Y-101628458D01*
X113598452Y-101663403D01*
X113600027Y-101673159D01*
X113628897Y-101763535D01*
X113675334Y-101847328D01*
X113732078Y-101915176D01*
X113792000Y-101974174D01*
X113792000Y-102335727D01*
X113791910Y-102432081D01*
X113791590Y-102509998D01*
X113790959Y-102571359D01*
X113789938Y-102618047D01*
X113788449Y-102651943D01*
X113786413Y-102674929D01*
X113783751Y-102688888D01*
X113780383Y-102695701D01*
X113776817Y-102697280D01*
X113755423Y-102700969D01*
X113719009Y-102711141D01*
X113671310Y-102726448D01*
X113616058Y-102745546D01*
X113556986Y-102767087D01*
X113497826Y-102789725D01*
X113442312Y-102812115D01*
X113394176Y-102832911D01*
X113372150Y-102843204D01*
X113234226Y-102917771D01*
X113109693Y-103000651D01*
X112999716Y-103090669D01*
X112905460Y-103186653D01*
X112828088Y-103287429D01*
X112768765Y-103391824D01*
X112731422Y-103489064D01*
X112718908Y-103553469D01*
X112714401Y-103630412D01*
X112717436Y-103713960D01*
X112727546Y-103798179D01*
X112744268Y-103877138D01*
X112767136Y-103944904D01*
X112767166Y-103944975D01*
X112778309Y-103971545D01*
X112785142Y-103988947D01*
X112786160Y-103992289D01*
X112777236Y-103998561D01*
X112754279Y-104007633D01*
X112723005Y-104017534D01*
X112689133Y-104026295D01*
X112684560Y-104027308D01*
X112594074Y-104040732D01*
X112505244Y-104040174D01*
X112481029Y-104037835D01*
X112388697Y-104018161D01*
X112293852Y-103980571D01*
X112199449Y-103926720D01*
X112108446Y-103858262D01*
X112033851Y-103787596D01*
X111983881Y-103731526D01*
X111938117Y-103672168D01*
X111894195Y-103605852D01*
X111849751Y-103528908D01*
X111802422Y-103437666D01*
X111783109Y-103398320D01*
X111727395Y-103283505D01*
X111679591Y-103185485D01*
X111638804Y-103102739D01*
X111604141Y-103033748D01*
X111574712Y-102976991D01*
X111549622Y-102930948D01*
X111527980Y-102894100D01*
X111508893Y-102864926D01*
X111491469Y-102841906D01*
X111474815Y-102823520D01*
X111458039Y-102808247D01*
X111440249Y-102794569D01*
X111420754Y-102781100D01*
X111387252Y-102761048D01*
X111357549Y-102751156D01*
X111320795Y-102748145D01*
X111311485Y-102748080D01*
X111270501Y-102750124D01*
X111235025Y-102757671D01*
X111201072Y-102772844D01*
X111164664Y-102797766D01*
X111121816Y-102834559D01*
X111086230Y-102868156D01*
X111036135Y-102914720D01*
X110995512Y-102947350D01*
X110960789Y-102967693D01*
X110928392Y-102977394D01*
X110894750Y-102978098D01*
X110860093Y-102972321D01*
X110809652Y-102956229D01*
X110764378Y-102930699D01*
X110722808Y-102893918D01*
X110683477Y-102844077D01*
X110644922Y-102779363D01*
X110605679Y-102697967D01*
X110570680Y-102614288D01*
X110543615Y-102547731D01*
X110519751Y-102494260D01*
X110496252Y-102449776D01*
X110470282Y-102410179D01*
X110439005Y-102371371D01*
X110399586Y-102329253D01*
X110349190Y-102279725D01*
X110319935Y-102251800D01*
X110272138Y-102205492D01*
X110227103Y-102160190D01*
X110187879Y-102119093D01*
X110157521Y-102085398D01*
X110139176Y-102062442D01*
X110102339Y-101996639D01*
X110073539Y-101920818D01*
X110058381Y-101856540D01*
X110051333Y-101813359D01*
X110570386Y-101813360D01*
X111089440Y-101813360D01*
X111089440Y-100411280D01*
X111963200Y-100411280D01*
X111963200Y-101102160D01*
G37*
X111963200Y-101102160D02*
X112080233Y-101102160D01*
X112130340Y-101102286D01*
X112163420Y-101103116D01*
X112182770Y-101105324D01*
X112191683Y-101109586D01*
X112193453Y-101116574D01*
X112191837Y-101125020D01*
X112188368Y-101141105D01*
X112181887Y-101172467D01*
X112173105Y-101215555D01*
X112162735Y-101266816D01*
X112151488Y-101322699D01*
X112140076Y-101379651D01*
X112129211Y-101434121D01*
X112119604Y-101482557D01*
X112111969Y-101521407D01*
X112107016Y-101547118D01*
X112105440Y-101556101D01*
X112095925Y-101557342D01*
X112069960Y-101558366D01*
X112031414Y-101559071D01*
X111984158Y-101559358D01*
X111979908Y-101559360D01*
X111854376Y-101559360D01*
X111816760Y-101749860D01*
X111804706Y-101810491D01*
X111793707Y-101865027D01*
X111784471Y-101910028D01*
X111777704Y-101942057D01*
X111774111Y-101957672D01*
X111774065Y-101957832D01*
X111773722Y-101965162D01*
X111779770Y-101970270D01*
X111795314Y-101973678D01*
X111823458Y-101975905D01*
X111867307Y-101977472D01*
X111895260Y-101978152D01*
X112021534Y-101981000D01*
X111940812Y-102382320D01*
X111917184Y-102500889D01*
X111897821Y-102601395D01*
X111882646Y-102685624D01*
X111871580Y-102755362D01*
X111864546Y-102812397D01*
X111861468Y-102858514D01*
X111862268Y-102895500D01*
X111866867Y-102925143D01*
X111875190Y-102949229D01*
X111887158Y-102969544D01*
X111902695Y-102987876D01*
X111914101Y-102999043D01*
X111941522Y-103021106D01*
X111973407Y-103039180D01*
X112011819Y-103053582D01*
X112058825Y-103064628D01*
X112116488Y-103072633D01*
X112186873Y-103077913D01*
X112272046Y-103080784D01*
X112374070Y-103081563D01*
X112450414Y-103081096D01*
X112729349Y-103078280D01*
X112772507Y-102864920D01*
X112785271Y-102801581D01*
X112796583Y-102745005D01*
X112805847Y-102698208D01*
X112812466Y-102664209D01*
X112815844Y-102646026D01*
X112816152Y-102643940D01*
X112807043Y-102640373D01*
X112782433Y-102637700D01*
X112747134Y-102636383D01*
X112736876Y-102636320D01*
X112677270Y-102634233D01*
X112634676Y-102627296D01*
X112606148Y-102614493D01*
X112588742Y-102594806D01*
X112583765Y-102583463D01*
X112581125Y-102571139D01*
X112580646Y-102553394D01*
X112582653Y-102527986D01*
X112587472Y-102492672D01*
X112595427Y-102445210D01*
X112606844Y-102383357D01*
X112622049Y-102304872D01*
X112630088Y-102264160D01*
X112687239Y-101975920D01*
X112817979Y-101975920D01*
X112866846Y-101975682D01*
X112907406Y-101975033D01*
X112935866Y-101974066D01*
X112948436Y-101972876D01*
X112948720Y-101972661D01*
X112950633Y-101962178D01*
X112955972Y-101934803D01*
X112964138Y-101893563D01*
X112974531Y-101841484D01*
X112986550Y-101781593D01*
X112989360Y-101767639D01*
X113001657Y-101706433D01*
X113012460Y-101652372D01*
X113021168Y-101608483D01*
X113027183Y-101577791D01*
X113029903Y-101563323D01*
X113030000Y-101562618D01*
X113020481Y-101561383D01*
X112994490Y-101560364D01*
X112955873Y-101559657D01*
X112908479Y-101559363D01*
X112903000Y-101559360D01*
X112854843Y-101558788D01*
X112815003Y-101557228D01*
X112787343Y-101554909D01*
X112775727Y-101552064D01*
X112775594Y-101551740D01*
X112777351Y-101539960D01*
X112782494Y-101511212D01*
X112790469Y-101468462D01*
X112800718Y-101414675D01*
X112812684Y-101352817D01*
X112818481Y-101323140D01*
X112861773Y-101102160D01*
X113588800Y-101102160D01*
X113588800Y-101360739D01*
X113589259Y-101440721D01*
X113590565Y-101514048D01*
X113592605Y-101577650D01*
X113595271Y-101628458D01*
X113598452Y-101663403D01*
X113600027Y-101673159D01*
X113628897Y-101763535D01*
X113675334Y-101847328D01*
X113732078Y-101915176D01*
X113792000Y-101974174D01*
X113792000Y-102335727D01*
X113791910Y-102432081D01*
X113791590Y-102509998D01*
X113790959Y-102571359D01*
X113789938Y-102618047D01*
X113788449Y-102651943D01*
X113786413Y-102674929D01*
X113783751Y-102688888D01*
X113780383Y-102695701D01*
X113776817Y-102697280D01*
X113755423Y-102700969D01*
X113719009Y-102711141D01*
X113671310Y-102726448D01*
X113616058Y-102745546D01*
X113556986Y-102767087D01*
X113497826Y-102789725D01*
X113442312Y-102812115D01*
X113394176Y-102832911D01*
X113372150Y-102843204D01*
X113234226Y-102917771D01*
X113109693Y-103000651D01*
X112999716Y-103090669D01*
X112905460Y-103186653D01*
X112828088Y-103287429D01*
X112768765Y-103391824D01*
X112731422Y-103489064D01*
X112718908Y-103553469D01*
X112714401Y-103630412D01*
X112717436Y-103713960D01*
X112727546Y-103798179D01*
X112744268Y-103877138D01*
X112767136Y-103944904D01*
X112767166Y-103944975D01*
X112778309Y-103971545D01*
X112785142Y-103988947D01*
X112786160Y-103992289D01*
X112777236Y-103998561D01*
X112754279Y-104007633D01*
X112723005Y-104017534D01*
X112689133Y-104026295D01*
X112684560Y-104027308D01*
X112594074Y-104040732D01*
X112505244Y-104040174D01*
X112481029Y-104037835D01*
X112388697Y-104018161D01*
X112293852Y-103980571D01*
X112199449Y-103926720D01*
X112108446Y-103858262D01*
X112033851Y-103787596D01*
X111983881Y-103731526D01*
X111938117Y-103672168D01*
X111894195Y-103605852D01*
X111849751Y-103528908D01*
X111802422Y-103437666D01*
X111783109Y-103398320D01*
X111727395Y-103283505D01*
X111679591Y-103185485D01*
X111638804Y-103102739D01*
X111604141Y-103033748D01*
X111574712Y-102976991D01*
X111549622Y-102930948D01*
X111527980Y-102894100D01*
X111508893Y-102864926D01*
X111491469Y-102841906D01*
X111474815Y-102823520D01*
X111458039Y-102808247D01*
X111440249Y-102794569D01*
X111420754Y-102781100D01*
X111387252Y-102761048D01*
X111357549Y-102751156D01*
X111320795Y-102748145D01*
X111311485Y-102748080D01*
X111270501Y-102750124D01*
X111235025Y-102757671D01*
X111201072Y-102772844D01*
X111164664Y-102797766D01*
X111121816Y-102834559D01*
X111086230Y-102868156D01*
X111036135Y-102914720D01*
X110995512Y-102947350D01*
X110960789Y-102967693D01*
X110928392Y-102977394D01*
X110894750Y-102978098D01*
X110860093Y-102972321D01*
X110809652Y-102956229D01*
X110764378Y-102930699D01*
X110722808Y-102893918D01*
X110683477Y-102844077D01*
X110644922Y-102779363D01*
X110605679Y-102697967D01*
X110570680Y-102614288D01*
X110543615Y-102547731D01*
X110519751Y-102494260D01*
X110496252Y-102449776D01*
X110470282Y-102410179D01*
X110439005Y-102371371D01*
X110399586Y-102329253D01*
X110349190Y-102279725D01*
X110319935Y-102251800D01*
X110272138Y-102205492D01*
X110227103Y-102160190D01*
X110187879Y-102119093D01*
X110157521Y-102085398D01*
X110139176Y-102062442D01*
X110102339Y-101996639D01*
X110073539Y-101920818D01*
X110058381Y-101856540D01*
X110051333Y-101813359D01*
X110570386Y-101813360D01*
X111089440Y-101813360D01*
X111089440Y-100411280D01*
X111963200Y-100411280D01*
X111963200Y-101102160D01*
G36*
X125662808Y-103258519D02*
G01*
X126130143Y-103261160D01*
X126175244Y-103406639D01*
X126195062Y-103473091D01*
X126207315Y-103521349D01*
X126211700Y-103552201D01*
X126207915Y-103566429D01*
X126195659Y-103564819D01*
X126174630Y-103548155D01*
X126144528Y-103517222D01*
X126136242Y-103508120D01*
X126090462Y-103461330D01*
X126048912Y-103429595D01*
X126005831Y-103410276D01*
X125955457Y-103400733D01*
X125896464Y-103398320D01*
X125846063Y-103399759D01*
X125810776Y-103403877D01*
X125793129Y-103410378D01*
X125792991Y-103410512D01*
X125789828Y-103419169D01*
X125787205Y-103439119D01*
X125785087Y-103471664D01*
X125783438Y-103518106D01*
X125782225Y-103579749D01*
X125781410Y-103657894D01*
X125780960Y-103753844D01*
X125780837Y-103860092D01*
X125780796Y-103972483D01*
X125780910Y-104066354D01*
X125781567Y-104143499D01*
X125783159Y-104205718D01*
X125786073Y-104254806D01*
X125790700Y-104292561D01*
X125797428Y-104320779D01*
X125806646Y-104341259D01*
X125818744Y-104355796D01*
X125834110Y-104366189D01*
X125853135Y-104374234D01*
X125876208Y-104381728D01*
X125895100Y-104387648D01*
X125910177Y-104399832D01*
X125912880Y-104408921D01*
X125910744Y-104413771D01*
X125902838Y-104417514D01*
X125886910Y-104420288D01*
X125860709Y-104422232D01*
X125821984Y-104423482D01*
X125768486Y-104424177D01*
X125697962Y-104424454D01*
X125658880Y-104424480D01*
X125580628Y-104424425D01*
X125520352Y-104424138D01*
X125475710Y-104423430D01*
X125444356Y-104422113D01*
X125423948Y-104420001D01*
X125412142Y-104416906D01*
X125406595Y-104412640D01*
X125404962Y-104407015D01*
X125404880Y-104404160D01*
X125411533Y-104387639D01*
X125427740Y-104383802D01*
X125465386Y-104374536D01*
X125499101Y-104350346D01*
X125522311Y-104316456D01*
X125526119Y-104305628D01*
X125528796Y-104285933D01*
X125531102Y-104249206D01*
X125533037Y-104198081D01*
X125534601Y-104135189D01*
X125535792Y-104063160D01*
X125536609Y-103984627D01*
X125537051Y-103902222D01*
X125537117Y-103818576D01*
X125536807Y-103736320D01*
X125536119Y-103658087D01*
X125535053Y-103586508D01*
X125533607Y-103524214D01*
X125531780Y-103473838D01*
X125529572Y-103438010D01*
X125526982Y-103419364D01*
X125526442Y-103417972D01*
X125519071Y-103408554D01*
X125506384Y-103402699D01*
X125484107Y-103399595D01*
X125447965Y-103398429D01*
X125422970Y-103398320D01*
X125357565Y-103401270D01*
X125306249Y-103411802D01*
X125263430Y-103432440D01*
X125223515Y-103465706D01*
X125189444Y-103503677D01*
X125161616Y-103536957D01*
X125143421Y-103557051D01*
X125131613Y-103566490D01*
X125122946Y-103567806D01*
X125114176Y-103563529D01*
X125113364Y-103563016D01*
X125110215Y-103553987D01*
X125112578Y-103532930D01*
X125120882Y-103497913D01*
X125135557Y-103447003D01*
X125148360Y-103405601D01*
X125195473Y-103255879D01*
X125662808Y-103258519D01*
G37*
X125662808Y-103258519D02*
X126130143Y-103261160D01*
X126175244Y-103406639D01*
X126195062Y-103473091D01*
X126207315Y-103521349D01*
X126211700Y-103552201D01*
X126207915Y-103566429D01*
X126195659Y-103564819D01*
X126174630Y-103548155D01*
X126144528Y-103517222D01*
X126136242Y-103508120D01*
X126090462Y-103461330D01*
X126048912Y-103429595D01*
X126005831Y-103410276D01*
X125955457Y-103400733D01*
X125896464Y-103398320D01*
X125846063Y-103399759D01*
X125810776Y-103403877D01*
X125793129Y-103410378D01*
X125792991Y-103410512D01*
X125789828Y-103419169D01*
X125787205Y-103439119D01*
X125785087Y-103471664D01*
X125783438Y-103518106D01*
X125782225Y-103579749D01*
X125781410Y-103657894D01*
X125780960Y-103753844D01*
X125780837Y-103860092D01*
X125780796Y-103972483D01*
X125780910Y-104066354D01*
X125781567Y-104143499D01*
X125783159Y-104205718D01*
X125786073Y-104254806D01*
X125790700Y-104292561D01*
X125797428Y-104320779D01*
X125806646Y-104341259D01*
X125818744Y-104355796D01*
X125834110Y-104366189D01*
X125853135Y-104374234D01*
X125876208Y-104381728D01*
X125895100Y-104387648D01*
X125910177Y-104399832D01*
X125912880Y-104408921D01*
X125910744Y-104413771D01*
X125902838Y-104417514D01*
X125886910Y-104420288D01*
X125860709Y-104422232D01*
X125821984Y-104423482D01*
X125768486Y-104424177D01*
X125697962Y-104424454D01*
X125658880Y-104424480D01*
X125580628Y-104424425D01*
X125520352Y-104424138D01*
X125475710Y-104423430D01*
X125444356Y-104422113D01*
X125423948Y-104420001D01*
X125412142Y-104416906D01*
X125406595Y-104412640D01*
X125404962Y-104407015D01*
X125404880Y-104404160D01*
X125411533Y-104387639D01*
X125427740Y-104383802D01*
X125465386Y-104374536D01*
X125499101Y-104350346D01*
X125522311Y-104316456D01*
X125526119Y-104305628D01*
X125528796Y-104285933D01*
X125531102Y-104249206D01*
X125533037Y-104198081D01*
X125534601Y-104135189D01*
X125535792Y-104063160D01*
X125536609Y-103984627D01*
X125537051Y-103902222D01*
X125537117Y-103818576D01*
X125536807Y-103736320D01*
X125536119Y-103658087D01*
X125535053Y-103586508D01*
X125533607Y-103524214D01*
X125531780Y-103473838D01*
X125529572Y-103438010D01*
X125526982Y-103419364D01*
X125526442Y-103417972D01*
X125519071Y-103408554D01*
X125506384Y-103402699D01*
X125484107Y-103399595D01*
X125447965Y-103398429D01*
X125422970Y-103398320D01*
X125357565Y-103401270D01*
X125306249Y-103411802D01*
X125263430Y-103432440D01*
X125223515Y-103465706D01*
X125189444Y-103503677D01*
X125161616Y-103536957D01*
X125143421Y-103557051D01*
X125131613Y-103566490D01*
X125122946Y-103567806D01*
X125114176Y-103563529D01*
X125113364Y-103563016D01*
X125110215Y-103553987D01*
X125112578Y-103532930D01*
X125120882Y-103497913D01*
X125135557Y-103447003D01*
X125148360Y-103405601D01*
X125195473Y-103255879D01*
X125662808Y-103258519D01*
G36*
X123752415Y-103383959D02*
G01*
X123774494Y-103446495D01*
X123787634Y-103491459D01*
X123791622Y-103519627D01*
X123786242Y-103531781D01*
X123771279Y-103528699D01*
X123746518Y-103511160D01*
X123723006Y-103490481D01*
X123691451Y-103462409D01*
X123663356Y-103441084D01*
X123635159Y-103425521D01*
X123603302Y-103414733D01*
X123564225Y-103407735D01*
X123514369Y-103403543D01*
X123450174Y-103401170D01*
X123396505Y-103400092D01*
X123313000Y-103399351D01*
X123249422Y-103400297D01*
X123205874Y-103402926D01*
X123182458Y-103407234D01*
X123180605Y-103408070D01*
X123172695Y-103413385D01*
X123167055Y-103421609D01*
X123163302Y-103435886D01*
X123161056Y-103459360D01*
X123159933Y-103495175D01*
X123159552Y-103546475D01*
X123159520Y-103581557D01*
X123159520Y-103743760D01*
X123342904Y-103743760D01*
X123418128Y-103743283D01*
X123475750Y-103741387D01*
X123518478Y-103737372D01*
X123549018Y-103730536D01*
X123570076Y-103720180D01*
X123584358Y-103705603D01*
X123594571Y-103686105D01*
X123597748Y-103677817D01*
X123610837Y-103652248D01*
X123627772Y-103642604D01*
X123634001Y-103642160D01*
X123657360Y-103642160D01*
X123657360Y-103977440D01*
X123634187Y-103977440D01*
X123612879Y-103969562D01*
X123599917Y-103948039D01*
X123590129Y-103926676D01*
X123577170Y-103910367D01*
X123558313Y-103898354D01*
X123530828Y-103889880D01*
X123491987Y-103884187D01*
X123439062Y-103880518D01*
X123369324Y-103878115D01*
X123346025Y-103877557D01*
X123159520Y-103873357D01*
X123159675Y-104065098D01*
X123160214Y-104126275D01*
X123161620Y-104181021D01*
X123163729Y-104225868D01*
X123166379Y-104257345D01*
X123169405Y-104271984D01*
X123169415Y-104272000D01*
X123183294Y-104278375D01*
X123213757Y-104283670D01*
X123257092Y-104287776D01*
X123309587Y-104290586D01*
X123367528Y-104291989D01*
X123427204Y-104291879D01*
X123484901Y-104290147D01*
X123536909Y-104286685D01*
X123565190Y-104283551D01*
X123635020Y-104269971D01*
X123692371Y-104248116D01*
X123744478Y-104214626D01*
X123780493Y-104183602D01*
X123812244Y-104155767D01*
X123833850Y-104141775D01*
X123845495Y-104142385D01*
X123847365Y-104158357D01*
X123839645Y-104190450D01*
X123822520Y-104239425D01*
X123805013Y-104284213D01*
X123750757Y-104419400D01*
X123272258Y-104422039D01*
X123161283Y-104422624D01*
X123068921Y-104423008D01*
X122993467Y-104423131D01*
X122933217Y-104422937D01*
X122886463Y-104422366D01*
X122851501Y-104421362D01*
X122826624Y-104419864D01*
X122810128Y-104417817D01*
X122800306Y-104415160D01*
X122795454Y-104411837D01*
X122793864Y-104407789D01*
X122793760Y-104405729D01*
X122803465Y-104387882D01*
X122825746Y-104377606D01*
X122854595Y-104362738D01*
X122879069Y-104339864D01*
X122879086Y-104339842D01*
X122884152Y-104332518D01*
X122888363Y-104324105D01*
X122891809Y-104312737D01*
X122894585Y-104296552D01*
X122896783Y-104273687D01*
X122898496Y-104242277D01*
X122899818Y-104200460D01*
X122900841Y-104146371D01*
X122901659Y-104078149D01*
X122902364Y-103993928D01*
X122903050Y-103891846D01*
X122903280Y-103855178D01*
X122903968Y-103739621D01*
X122904324Y-103642642D01*
X122904129Y-103562502D01*
X122903166Y-103497457D01*
X122901215Y-103445768D01*
X122898059Y-103405694D01*
X122893480Y-103375493D01*
X122887258Y-103353424D01*
X122879175Y-103337746D01*
X122869013Y-103326719D01*
X122856555Y-103318601D01*
X122841580Y-103311650D01*
X122834750Y-103308771D01*
X122806183Y-103292620D01*
X122794062Y-103276013D01*
X122793863Y-103273860D01*
X122794852Y-103269636D01*
X122799034Y-103266138D01*
X122808146Y-103263296D01*
X122823927Y-103261044D01*
X122848115Y-103259313D01*
X122882449Y-103258036D01*
X122928669Y-103257145D01*
X122988511Y-103256572D01*
X123063715Y-103256248D01*
X123156020Y-103256107D01*
X123249439Y-103256080D01*
X123705118Y-103256080D01*
X123752415Y-103383959D01*
G37*
X123752415Y-103383959D02*
X123774494Y-103446495D01*
X123787634Y-103491459D01*
X123791622Y-103519627D01*
X123786242Y-103531781D01*
X123771279Y-103528699D01*
X123746518Y-103511160D01*
X123723006Y-103490481D01*
X123691451Y-103462409D01*
X123663356Y-103441084D01*
X123635159Y-103425521D01*
X123603302Y-103414733D01*
X123564225Y-103407735D01*
X123514369Y-103403543D01*
X123450174Y-103401170D01*
X123396505Y-103400092D01*
X123313000Y-103399351D01*
X123249422Y-103400297D01*
X123205874Y-103402926D01*
X123182458Y-103407234D01*
X123180605Y-103408070D01*
X123172695Y-103413385D01*
X123167055Y-103421609D01*
X123163302Y-103435886D01*
X123161056Y-103459360D01*
X123159933Y-103495175D01*
X123159552Y-103546475D01*
X123159520Y-103581557D01*
X123159520Y-103743760D01*
X123342904Y-103743760D01*
X123418128Y-103743283D01*
X123475750Y-103741387D01*
X123518478Y-103737372D01*
X123549018Y-103730536D01*
X123570076Y-103720180D01*
X123584358Y-103705603D01*
X123594571Y-103686105D01*
X123597748Y-103677817D01*
X123610837Y-103652248D01*
X123627772Y-103642604D01*
X123634001Y-103642160D01*
X123657360Y-103642160D01*
X123657360Y-103977440D01*
X123634187Y-103977440D01*
X123612879Y-103969562D01*
X123599917Y-103948039D01*
X123590129Y-103926676D01*
X123577170Y-103910367D01*
X123558313Y-103898354D01*
X123530828Y-103889880D01*
X123491987Y-103884187D01*
X123439062Y-103880518D01*
X123369324Y-103878115D01*
X123346025Y-103877557D01*
X123159520Y-103873357D01*
X123159675Y-104065098D01*
X123160214Y-104126275D01*
X123161620Y-104181021D01*
X123163729Y-104225868D01*
X123166379Y-104257345D01*
X123169405Y-104271984D01*
X123169415Y-104272000D01*
X123183294Y-104278375D01*
X123213757Y-104283670D01*
X123257092Y-104287776D01*
X123309587Y-104290586D01*
X123367528Y-104291989D01*
X123427204Y-104291879D01*
X123484901Y-104290147D01*
X123536909Y-104286685D01*
X123565190Y-104283551D01*
X123635020Y-104269971D01*
X123692371Y-104248116D01*
X123744478Y-104214626D01*
X123780493Y-104183602D01*
X123812244Y-104155767D01*
X123833850Y-104141775D01*
X123845495Y-104142385D01*
X123847365Y-104158357D01*
X123839645Y-104190450D01*
X123822520Y-104239425D01*
X123805013Y-104284213D01*
X123750757Y-104419400D01*
X123272258Y-104422039D01*
X123161283Y-104422624D01*
X123068921Y-104423008D01*
X122993467Y-104423131D01*
X122933217Y-104422937D01*
X122886463Y-104422366D01*
X122851501Y-104421362D01*
X122826624Y-104419864D01*
X122810128Y-104417817D01*
X122800306Y-104415160D01*
X122795454Y-104411837D01*
X122793864Y-104407789D01*
X122793760Y-104405729D01*
X122803465Y-104387882D01*
X122825746Y-104377606D01*
X122854595Y-104362738D01*
X122879069Y-104339864D01*
X122879086Y-104339842D01*
X122884152Y-104332518D01*
X122888363Y-104324105D01*
X122891809Y-104312737D01*
X122894585Y-104296552D01*
X122896783Y-104273687D01*
X122898496Y-104242277D01*
X122899818Y-104200460D01*
X122900841Y-104146371D01*
X122901659Y-104078149D01*
X122902364Y-103993928D01*
X122903050Y-103891846D01*
X122903280Y-103855178D01*
X122903968Y-103739621D01*
X122904324Y-103642642D01*
X122904129Y-103562502D01*
X122903166Y-103497457D01*
X122901215Y-103445768D01*
X122898059Y-103405694D01*
X122893480Y-103375493D01*
X122887258Y-103353424D01*
X122879175Y-103337746D01*
X122869013Y-103326719D01*
X122856555Y-103318601D01*
X122841580Y-103311650D01*
X122834750Y-103308771D01*
X122806183Y-103292620D01*
X122794062Y-103276013D01*
X122793863Y-103273860D01*
X122794852Y-103269636D01*
X122799034Y-103266138D01*
X122808146Y-103263296D01*
X122823927Y-103261044D01*
X122848115Y-103259313D01*
X122882449Y-103258036D01*
X122928669Y-103257145D01*
X122988511Y-103256572D01*
X123063715Y-103256248D01*
X123156020Y-103256107D01*
X123249439Y-103256080D01*
X123705118Y-103256080D01*
X123752415Y-103383959D01*
G36*
X118640340Y-103405839D02*
G01*
X118657997Y-103463631D01*
X118669819Y-103505055D01*
X118676371Y-103533027D01*
X118678216Y-103550465D01*
X118675920Y-103560286D01*
X118671106Y-103564841D01*
X118653869Y-103566413D01*
X118641437Y-103554681D01*
X118612084Y-103519195D01*
X118575745Y-103482320D01*
X118537949Y-103449104D01*
X118504222Y-103424591D01*
X118491000Y-103417352D01*
X118460128Y-103406889D01*
X118420579Y-103400888D01*
X118367086Y-103398612D01*
X118356128Y-103398543D01*
X118311940Y-103398662D01*
X118283785Y-103400018D01*
X118267379Y-103403720D01*
X118258436Y-103410883D01*
X118252669Y-103422619D01*
X118251485Y-103425704D01*
X118248703Y-103443815D01*
X118246501Y-103481541D01*
X118244891Y-103538186D01*
X118243884Y-103613052D01*
X118243491Y-103705444D01*
X118243724Y-103814664D01*
X118244116Y-103880829D01*
X118244901Y-103991051D01*
X118245752Y-104082747D01*
X118246974Y-104157708D01*
X118248874Y-104217727D01*
X118251759Y-104264594D01*
X118255935Y-104300104D01*
X118261709Y-104326047D01*
X118269385Y-104344215D01*
X118279272Y-104356400D01*
X118291675Y-104364395D01*
X118306901Y-104369991D01*
X118325256Y-104374981D01*
X118328754Y-104375910D01*
X118359703Y-104387123D01*
X118373097Y-104400250D01*
X118374160Y-104406267D01*
X118373011Y-104411883D01*
X118368016Y-104416213D01*
X118356851Y-104419423D01*
X118337191Y-104421678D01*
X118306713Y-104423145D01*
X118263092Y-104423990D01*
X118204004Y-104424379D01*
X118127126Y-104424479D01*
X118119415Y-104424480D01*
X118040541Y-104424369D01*
X117979737Y-104423941D01*
X117934753Y-104423049D01*
X117903339Y-104421550D01*
X117883247Y-104419298D01*
X117872226Y-104416148D01*
X117868027Y-104411954D01*
X117867955Y-104408261D01*
X117878922Y-104395006D01*
X117902270Y-104381761D01*
X117910956Y-104378423D01*
X117942337Y-104364201D01*
X117968525Y-104346696D01*
X117971916Y-104343567D01*
X117976996Y-104337985D01*
X117981210Y-104331090D01*
X117984652Y-104321032D01*
X117987417Y-104305957D01*
X117989601Y-104284013D01*
X117991298Y-104253348D01*
X117992604Y-104212110D01*
X117993614Y-104158447D01*
X117994423Y-104090505D01*
X117995125Y-104006434D01*
X117995818Y-103904381D01*
X117996009Y-103874439D01*
X117996588Y-103757490D01*
X117996696Y-103659713D01*
X117996311Y-103579969D01*
X117995411Y-103517115D01*
X117993974Y-103470009D01*
X117991978Y-103437510D01*
X117989402Y-103418477D01*
X117987145Y-103412434D01*
X117972956Y-103404697D01*
X117944365Y-103400195D01*
X117898740Y-103398559D01*
X117887775Y-103398543D01*
X117827591Y-103401226D01*
X117779896Y-103410696D01*
X117738893Y-103429610D01*
X117698786Y-103460622D01*
X117654829Y-103505237D01*
X117621533Y-103540024D01*
X117597601Y-103560736D01*
X117582705Y-103566595D01*
X117576516Y-103556820D01*
X117578707Y-103530633D01*
X117588949Y-103487255D01*
X117606916Y-103425907D01*
X117613080Y-103406059D01*
X117658466Y-103261160D01*
X118126149Y-103258519D01*
X118593832Y-103255879D01*
X118640340Y-103405839D01*
G37*
X118640340Y-103405839D02*
X118657997Y-103463631D01*
X118669819Y-103505055D01*
X118676371Y-103533027D01*
X118678216Y-103550465D01*
X118675920Y-103560286D01*
X118671106Y-103564841D01*
X118653869Y-103566413D01*
X118641437Y-103554681D01*
X118612084Y-103519195D01*
X118575745Y-103482320D01*
X118537949Y-103449104D01*
X118504222Y-103424591D01*
X118491000Y-103417352D01*
X118460128Y-103406889D01*
X118420579Y-103400888D01*
X118367086Y-103398612D01*
X118356128Y-103398543D01*
X118311940Y-103398662D01*
X118283785Y-103400018D01*
X118267379Y-103403720D01*
X118258436Y-103410883D01*
X118252669Y-103422619D01*
X118251485Y-103425704D01*
X118248703Y-103443815D01*
X118246501Y-103481541D01*
X118244891Y-103538186D01*
X118243884Y-103613052D01*
X118243491Y-103705444D01*
X118243724Y-103814664D01*
X118244116Y-103880829D01*
X118244901Y-103991051D01*
X118245752Y-104082747D01*
X118246974Y-104157708D01*
X118248874Y-104217727D01*
X118251759Y-104264594D01*
X118255935Y-104300104D01*
X118261709Y-104326047D01*
X118269385Y-104344215D01*
X118279272Y-104356400D01*
X118291675Y-104364395D01*
X118306901Y-104369991D01*
X118325256Y-104374981D01*
X118328754Y-104375910D01*
X118359703Y-104387123D01*
X118373097Y-104400250D01*
X118374160Y-104406267D01*
X118373011Y-104411883D01*
X118368016Y-104416213D01*
X118356851Y-104419423D01*
X118337191Y-104421678D01*
X118306713Y-104423145D01*
X118263092Y-104423990D01*
X118204004Y-104424379D01*
X118127126Y-104424479D01*
X118119415Y-104424480D01*
X118040541Y-104424369D01*
X117979737Y-104423941D01*
X117934753Y-104423049D01*
X117903339Y-104421550D01*
X117883247Y-104419298D01*
X117872226Y-104416148D01*
X117868027Y-104411954D01*
X117867955Y-104408261D01*
X117878922Y-104395006D01*
X117902270Y-104381761D01*
X117910956Y-104378423D01*
X117942337Y-104364201D01*
X117968525Y-104346696D01*
X117971916Y-104343567D01*
X117976996Y-104337985D01*
X117981210Y-104331090D01*
X117984652Y-104321032D01*
X117987417Y-104305957D01*
X117989601Y-104284013D01*
X117991298Y-104253348D01*
X117992604Y-104212110D01*
X117993614Y-104158447D01*
X117994423Y-104090505D01*
X117995125Y-104006434D01*
X117995818Y-103904381D01*
X117996009Y-103874439D01*
X117996588Y-103757490D01*
X117996696Y-103659713D01*
X117996311Y-103579969D01*
X117995411Y-103517115D01*
X117993974Y-103470009D01*
X117991978Y-103437510D01*
X117989402Y-103418477D01*
X117987145Y-103412434D01*
X117972956Y-103404697D01*
X117944365Y-103400195D01*
X117898740Y-103398559D01*
X117887775Y-103398543D01*
X117827591Y-103401226D01*
X117779896Y-103410696D01*
X117738893Y-103429610D01*
X117698786Y-103460622D01*
X117654829Y-103505237D01*
X117621533Y-103540024D01*
X117597601Y-103560736D01*
X117582705Y-103566595D01*
X117576516Y-103556820D01*
X117578707Y-103530633D01*
X117588949Y-103487255D01*
X117606916Y-103425907D01*
X117613080Y-103406059D01*
X117658466Y-103261160D01*
X118126149Y-103258519D01*
X118593832Y-103255879D01*
X118640340Y-103405839D01*
G36*
X115101513Y-102890396D02*
G01*
X115163630Y-102890732D01*
X115209995Y-102891486D01*
X115242892Y-102892814D01*
X115264603Y-102894875D01*
X115277413Y-102897828D01*
X115283606Y-102901830D01*
X115285464Y-102907039D01*
X115285520Y-102908598D01*
X115275809Y-102925879D01*
X115250462Y-102939554D01*
X115219739Y-102956390D01*
X115191711Y-102980484D01*
X115189502Y-102983015D01*
X115163600Y-103013799D01*
X115163600Y-104314283D01*
X115193420Y-104344103D01*
X115220584Y-104365151D01*
X115249409Y-104378891D01*
X115254380Y-104380152D01*
X115278730Y-104390095D01*
X115285520Y-104405430D01*
X115284600Y-104411203D01*
X115280313Y-104415677D01*
X115270368Y-104419016D01*
X115252473Y-104421386D01*
X115224338Y-104422951D01*
X115183669Y-104423876D01*
X115128176Y-104424328D01*
X115055568Y-104424472D01*
X115021360Y-104424480D01*
X114941294Y-104424413D01*
X114879256Y-104424104D01*
X114832956Y-104423387D01*
X114800101Y-104422096D01*
X114778400Y-104420067D01*
X114765562Y-104417135D01*
X114759296Y-104413133D01*
X114757309Y-104407896D01*
X114757200Y-104405430D01*
X114765493Y-104388875D01*
X114788339Y-104380152D01*
X114816042Y-104368754D01*
X114844510Y-104348615D01*
X114849299Y-104344103D01*
X114879120Y-104314283D01*
X114879120Y-103013799D01*
X114853217Y-102983015D01*
X114826260Y-102958728D01*
X114795176Y-102940680D01*
X114792257Y-102939554D01*
X114765850Y-102924942D01*
X114757200Y-102908598D01*
X114758311Y-102903052D01*
X114763166Y-102898754D01*
X114774051Y-102895546D01*
X114793247Y-102893269D01*
X114823039Y-102891767D01*
X114865710Y-102890880D01*
X114923545Y-102890452D01*
X114998827Y-102890323D01*
X115021360Y-102890320D01*
X115101513Y-102890396D01*
G37*
X115101513Y-102890396D02*
X115163630Y-102890732D01*
X115209995Y-102891486D01*
X115242892Y-102892814D01*
X115264603Y-102894875D01*
X115277413Y-102897828D01*
X115283606Y-102901830D01*
X115285464Y-102907039D01*
X115285520Y-102908598D01*
X115275809Y-102925879D01*
X115250462Y-102939554D01*
X115219739Y-102956390D01*
X115191711Y-102980484D01*
X115189502Y-102983015D01*
X115163600Y-103013799D01*
X115163600Y-104314283D01*
X115193420Y-104344103D01*
X115220584Y-104365151D01*
X115249409Y-104378891D01*
X115254380Y-104380152D01*
X115278730Y-104390095D01*
X115285520Y-104405430D01*
X115284600Y-104411203D01*
X115280313Y-104415677D01*
X115270368Y-104419016D01*
X115252473Y-104421386D01*
X115224338Y-104422951D01*
X115183669Y-104423876D01*
X115128176Y-104424328D01*
X115055568Y-104424472D01*
X115021360Y-104424480D01*
X114941294Y-104424413D01*
X114879256Y-104424104D01*
X114832956Y-104423387D01*
X114800101Y-104422096D01*
X114778400Y-104420067D01*
X114765562Y-104417135D01*
X114759296Y-104413133D01*
X114757309Y-104407896D01*
X114757200Y-104405430D01*
X114765493Y-104388875D01*
X114788339Y-104380152D01*
X114816042Y-104368754D01*
X114844510Y-104348615D01*
X114849299Y-104344103D01*
X114879120Y-104314283D01*
X114879120Y-103013799D01*
X114853217Y-102983015D01*
X114826260Y-102958728D01*
X114795176Y-102940680D01*
X114792257Y-102939554D01*
X114765850Y-102924942D01*
X114757200Y-102908598D01*
X114758311Y-102903052D01*
X114763166Y-102898754D01*
X114774051Y-102895546D01*
X114793247Y-102893269D01*
X114823039Y-102891767D01*
X114865710Y-102890880D01*
X114923545Y-102890452D01*
X114998827Y-102890323D01*
X115021360Y-102890320D01*
X115101513Y-102890396D01*
G36*
X126817124Y-103248654D02*
G01*
X126888267Y-103270652D01*
X126931067Y-103287898D01*
X126959292Y-103296922D01*
X126976815Y-103298025D01*
X126987505Y-103291508D01*
X126994680Y-103278940D01*
X127012720Y-103259731D01*
X127031368Y-103256080D01*
X127041803Y-103256998D01*
X127050327Y-103261687D01*
X127058292Y-103273044D01*
X127067051Y-103293970D01*
X127077958Y-103327362D01*
X127092365Y-103376120D01*
X127100367Y-103403902D01*
X127118977Y-103470694D01*
X127130788Y-103519435D01*
X127135442Y-103551347D01*
X127132581Y-103567653D01*
X127121846Y-103569576D01*
X127102878Y-103558336D01*
X127075320Y-103535156D01*
X127064699Y-103525482D01*
X127002647Y-103477240D01*
X126931141Y-103436008D01*
X126858879Y-103406640D01*
X126843857Y-103402283D01*
X126794849Y-103393396D01*
X126737138Y-103389130D01*
X126679007Y-103389610D01*
X126628737Y-103394962D01*
X126611695Y-103398767D01*
X126562975Y-103420379D01*
X126526432Y-103452809D01*
X126504055Y-103492559D01*
X126497832Y-103536131D01*
X126509227Y-103578973D01*
X126529313Y-103608250D01*
X126554732Y-103631616D01*
X126558641Y-103634060D01*
X126578112Y-103641915D01*
X126613749Y-103653110D01*
X126661871Y-103666614D01*
X126718800Y-103681398D01*
X126780856Y-103696431D01*
X126783794Y-103697116D01*
X126884231Y-103722045D01*
X126966620Y-103746305D01*
X127033149Y-103771075D01*
X127086007Y-103797537D01*
X127127382Y-103826873D01*
X127159462Y-103860263D01*
X127184434Y-103898888D01*
X127194064Y-103918578D01*
X127209899Y-103969480D01*
X127218555Y-104031340D01*
X127219976Y-104097133D01*
X127214110Y-104159832D01*
X127200903Y-104212412D01*
X127196392Y-104223274D01*
X127154986Y-104288928D01*
X127096434Y-104344806D01*
X127021813Y-104390124D01*
X126932200Y-104424097D01*
X126914045Y-104429081D01*
X126875439Y-104435846D01*
X126823420Y-104440634D01*
X126764817Y-104443247D01*
X126706457Y-104443491D01*
X126655170Y-104441171D01*
X126624080Y-104437384D01*
X126602797Y-104431607D01*
X126569081Y-104420444D01*
X126529369Y-104406055D01*
X126519524Y-104402309D01*
X126478180Y-104387289D01*
X126451175Y-104380048D01*
X126434420Y-104379797D01*
X126425544Y-104384185D01*
X126412849Y-104401822D01*
X126410720Y-104411127D01*
X126403613Y-104421400D01*
X126380559Y-104422773D01*
X126378513Y-104422583D01*
X126346307Y-104419400D01*
X126300667Y-104248297D01*
X126282248Y-104177576D01*
X126270193Y-104125239D01*
X126265067Y-104090192D01*
X126267435Y-104071345D01*
X126277863Y-104067605D01*
X126296914Y-104077881D01*
X126325154Y-104101080D01*
X126360163Y-104133300D01*
X126404049Y-104171429D01*
X126450574Y-104206672D01*
X126492613Y-104233739D01*
X126503021Y-104239341D01*
X126582306Y-104271651D01*
X126665485Y-104291647D01*
X126747914Y-104298927D01*
X126824947Y-104293089D01*
X126891941Y-104273731D01*
X126893346Y-104273114D01*
X126940581Y-104243261D01*
X126973960Y-104203922D01*
X126992951Y-104158791D01*
X126997019Y-104111561D01*
X126985630Y-104065926D01*
X126958250Y-104025577D01*
X126932219Y-104004320D01*
X126916552Y-103994539D01*
X126900916Y-103986237D01*
X126882399Y-103978526D01*
X126858085Y-103970515D01*
X126825060Y-103961317D01*
X126780409Y-103950040D01*
X126721218Y-103935797D01*
X126661091Y-103921587D01*
X126563083Y-103895540D01*
X126483437Y-103867379D01*
X126420215Y-103835871D01*
X126371477Y-103799786D01*
X126335286Y-103757891D01*
X126309703Y-103708954D01*
X126304591Y-103695045D01*
X126293068Y-103641858D01*
X126289425Y-103579363D01*
X126293645Y-103516974D01*
X126304974Y-103466228D01*
X126328624Y-103419055D01*
X126365594Y-103370502D01*
X126410339Y-103326727D01*
X126457308Y-103293888D01*
X126462876Y-103290952D01*
X126545415Y-103258960D01*
X126635623Y-103241071D01*
X126728019Y-103237549D01*
X126817124Y-103248654D01*
G37*
X126817124Y-103248654D02*
X126888267Y-103270652D01*
X126931067Y-103287898D01*
X126959292Y-103296922D01*
X126976815Y-103298025D01*
X126987505Y-103291508D01*
X126994680Y-103278940D01*
X127012720Y-103259731D01*
X127031368Y-103256080D01*
X127041803Y-103256998D01*
X127050327Y-103261687D01*
X127058292Y-103273044D01*
X127067051Y-103293970D01*
X127077958Y-103327362D01*
X127092365Y-103376120D01*
X127100367Y-103403902D01*
X127118977Y-103470694D01*
X127130788Y-103519435D01*
X127135442Y-103551347D01*
X127132581Y-103567653D01*
X127121846Y-103569576D01*
X127102878Y-103558336D01*
X127075320Y-103535156D01*
X127064699Y-103525482D01*
X127002647Y-103477240D01*
X126931141Y-103436008D01*
X126858879Y-103406640D01*
X126843857Y-103402283D01*
X126794849Y-103393396D01*
X126737138Y-103389130D01*
X126679007Y-103389610D01*
X126628737Y-103394962D01*
X126611695Y-103398767D01*
X126562975Y-103420379D01*
X126526432Y-103452809D01*
X126504055Y-103492559D01*
X126497832Y-103536131D01*
X126509227Y-103578973D01*
X126529313Y-103608250D01*
X126554732Y-103631616D01*
X126558641Y-103634060D01*
X126578112Y-103641915D01*
X126613749Y-103653110D01*
X126661871Y-103666614D01*
X126718800Y-103681398D01*
X126780856Y-103696431D01*
X126783794Y-103697116D01*
X126884231Y-103722045D01*
X126966620Y-103746305D01*
X127033149Y-103771075D01*
X127086007Y-103797537D01*
X127127382Y-103826873D01*
X127159462Y-103860263D01*
X127184434Y-103898888D01*
X127194064Y-103918578D01*
X127209899Y-103969480D01*
X127218555Y-104031340D01*
X127219976Y-104097133D01*
X127214110Y-104159832D01*
X127200903Y-104212412D01*
X127196392Y-104223274D01*
X127154986Y-104288928D01*
X127096434Y-104344806D01*
X127021813Y-104390124D01*
X126932200Y-104424097D01*
X126914045Y-104429081D01*
X126875439Y-104435846D01*
X126823420Y-104440634D01*
X126764817Y-104443247D01*
X126706457Y-104443491D01*
X126655170Y-104441171D01*
X126624080Y-104437384D01*
X126602797Y-104431607D01*
X126569081Y-104420444D01*
X126529369Y-104406055D01*
X126519524Y-104402309D01*
X126478180Y-104387289D01*
X126451175Y-104380048D01*
X126434420Y-104379797D01*
X126425544Y-104384185D01*
X126412849Y-104401822D01*
X126410720Y-104411127D01*
X126403613Y-104421400D01*
X126380559Y-104422773D01*
X126378513Y-104422583D01*
X126346307Y-104419400D01*
X126300667Y-104248297D01*
X126282248Y-104177576D01*
X126270193Y-104125239D01*
X126265067Y-104090192D01*
X126267435Y-104071345D01*
X126277863Y-104067605D01*
X126296914Y-104077881D01*
X126325154Y-104101080D01*
X126360163Y-104133300D01*
X126404049Y-104171429D01*
X126450574Y-104206672D01*
X126492613Y-104233739D01*
X126503021Y-104239341D01*
X126582306Y-104271651D01*
X126665485Y-104291647D01*
X126747914Y-104298927D01*
X126824947Y-104293089D01*
X126891941Y-104273731D01*
X126893346Y-104273114D01*
X126940581Y-104243261D01*
X126973960Y-104203922D01*
X126992951Y-104158791D01*
X126997019Y-104111561D01*
X126985630Y-104065926D01*
X126958250Y-104025577D01*
X126932219Y-104004320D01*
X126916552Y-103994539D01*
X126900916Y-103986237D01*
X126882399Y-103978526D01*
X126858085Y-103970515D01*
X126825060Y-103961317D01*
X126780409Y-103950040D01*
X126721218Y-103935797D01*
X126661091Y-103921587D01*
X126563083Y-103895540D01*
X126483437Y-103867379D01*
X126420215Y-103835871D01*
X126371477Y-103799786D01*
X126335286Y-103757891D01*
X126309703Y-103708954D01*
X126304591Y-103695045D01*
X126293068Y-103641858D01*
X126289425Y-103579363D01*
X126293645Y-103516974D01*
X126304974Y-103466228D01*
X126328624Y-103419055D01*
X126365594Y-103370502D01*
X126410339Y-103326727D01*
X126457308Y-103293888D01*
X126462876Y-103290952D01*
X126545415Y-103258960D01*
X126635623Y-103241071D01*
X126728019Y-103237549D01*
X126817124Y-103248654D01*
G36*
X124820680Y-103925214D02*
G01*
X124823387Y-103649174D01*
X124824146Y-103561804D01*
X124824211Y-103492396D01*
X124823124Y-103438597D01*
X124820427Y-103398049D01*
X124815661Y-103368398D01*
X124808368Y-103347289D01*
X124798090Y-103332366D01*
X124784367Y-103321273D01*
X124766743Y-103311656D01*
X124756779Y-103306880D01*
X124734894Y-103291853D01*
X124724520Y-103275481D01*
X124724379Y-103273860D01*
X124725784Y-103267514D01*
X124731990Y-103262879D01*
X124745721Y-103259689D01*
X124769697Y-103257680D01*
X124806640Y-103256587D01*
X124859271Y-103256144D01*
X124907040Y-103256080D01*
X124972142Y-103256198D01*
X125019673Y-103256743D01*
X125052379Y-103258003D01*
X125073009Y-103260264D01*
X125084309Y-103263812D01*
X125089029Y-103268935D01*
X125089920Y-103275167D01*
X125080456Y-103293602D01*
X125058238Y-103307377D01*
X125030582Y-103325554D01*
X125007850Y-103351183D01*
X125007476Y-103351790D01*
X125003244Y-103359635D01*
X124999687Y-103369267D01*
X124996746Y-103382406D01*
X124994363Y-103400768D01*
X124992479Y-103426073D01*
X124991035Y-103460040D01*
X124989974Y-103504386D01*
X124989237Y-103560831D01*
X124988765Y-103631093D01*
X124988499Y-103716889D01*
X124988383Y-103819940D01*
X124988357Y-103913940D01*
X124988320Y-104444800D01*
X124965460Y-104444373D01*
X124956890Y-104440348D01*
X124941697Y-104427915D01*
X124919096Y-104406229D01*
X124888305Y-104374443D01*
X124848539Y-104331711D01*
X124799017Y-104277187D01*
X124738954Y-104210024D01*
X124667567Y-104129378D01*
X124584073Y-104034401D01*
X124551440Y-103997154D01*
X124160280Y-103550363D01*
X124157610Y-103912701D01*
X124156923Y-104015841D01*
X124156749Y-104100656D01*
X124157420Y-104169140D01*
X124159268Y-104223287D01*
X124162626Y-104265091D01*
X124167826Y-104296545D01*
X124175199Y-104319644D01*
X124185079Y-104336381D01*
X124197797Y-104348751D01*
X124213686Y-104358748D01*
X124233078Y-104368365D01*
X124233571Y-104368600D01*
X124261908Y-104385823D01*
X124275956Y-104402665D01*
X124276751Y-104406700D01*
X124275458Y-104412828D01*
X124269545Y-104417368D01*
X124256396Y-104420555D01*
X124233395Y-104422624D01*
X124197926Y-104423812D01*
X124147374Y-104424352D01*
X124079122Y-104424479D01*
X124079000Y-104424480D01*
X124009139Y-104424248D01*
X123957205Y-104423441D01*
X123920806Y-104421887D01*
X123897554Y-104419414D01*
X123885057Y-104415853D01*
X123880927Y-104411033D01*
X123880880Y-104410317D01*
X123889295Y-104398177D01*
X123910879Y-104382334D01*
X123929140Y-104372217D01*
X123962589Y-104352056D01*
X123982035Y-104329754D01*
X123989526Y-104312720D01*
X123992857Y-104295420D01*
X123995635Y-104264055D01*
X123997889Y-104217606D01*
X123999644Y-104155058D01*
X124000929Y-104075392D01*
X124001771Y-103977593D01*
X124002197Y-103860644D01*
X124002226Y-103841815D01*
X124002354Y-103730070D01*
X124002240Y-103636795D01*
X124001616Y-103560138D01*
X124000212Y-103498249D01*
X123997763Y-103449277D01*
X123993998Y-103411372D01*
X123988650Y-103382682D01*
X123981451Y-103361358D01*
X123972133Y-103345548D01*
X123960428Y-103333402D01*
X123946068Y-103323069D01*
X123928784Y-103312699D01*
X123925277Y-103310648D01*
X123897542Y-103293250D01*
X123882108Y-103279930D01*
X123880246Y-103270162D01*
X123893227Y-103263422D01*
X123922320Y-103259184D01*
X123968796Y-103256924D01*
X124033925Y-103256117D01*
X124057352Y-103256080D01*
X124233824Y-103256080D01*
X124820680Y-103925214D01*
G37*
X124820680Y-103925214D02*
X124823387Y-103649174D01*
X124824146Y-103561804D01*
X124824211Y-103492396D01*
X124823124Y-103438597D01*
X124820427Y-103398049D01*
X124815661Y-103368398D01*
X124808368Y-103347289D01*
X124798090Y-103332366D01*
X124784367Y-103321273D01*
X124766743Y-103311656D01*
X124756779Y-103306880D01*
X124734894Y-103291853D01*
X124724520Y-103275481D01*
X124724379Y-103273860D01*
X124725784Y-103267514D01*
X124731990Y-103262879D01*
X124745721Y-103259689D01*
X124769697Y-103257680D01*
X124806640Y-103256587D01*
X124859271Y-103256144D01*
X124907040Y-103256080D01*
X124972142Y-103256198D01*
X125019673Y-103256743D01*
X125052379Y-103258003D01*
X125073009Y-103260264D01*
X125084309Y-103263812D01*
X125089029Y-103268935D01*
X125089920Y-103275167D01*
X125080456Y-103293602D01*
X125058238Y-103307377D01*
X125030582Y-103325554D01*
X125007850Y-103351183D01*
X125007476Y-103351790D01*
X125003244Y-103359635D01*
X124999687Y-103369267D01*
X124996746Y-103382406D01*
X124994363Y-103400768D01*
X124992479Y-103426073D01*
X124991035Y-103460040D01*
X124989974Y-103504386D01*
X124989237Y-103560831D01*
X124988765Y-103631093D01*
X124988499Y-103716889D01*
X124988383Y-103819940D01*
X124988357Y-103913940D01*
X124988320Y-104444800D01*
X124965460Y-104444373D01*
X124956890Y-104440348D01*
X124941697Y-104427915D01*
X124919096Y-104406229D01*
X124888305Y-104374443D01*
X124848539Y-104331711D01*
X124799017Y-104277187D01*
X124738954Y-104210024D01*
X124667567Y-104129378D01*
X124584073Y-104034401D01*
X124551440Y-103997154D01*
X124160280Y-103550363D01*
X124157610Y-103912701D01*
X124156923Y-104015841D01*
X124156749Y-104100656D01*
X124157420Y-104169140D01*
X124159268Y-104223287D01*
X124162626Y-104265091D01*
X124167826Y-104296545D01*
X124175199Y-104319644D01*
X124185079Y-104336381D01*
X124197797Y-104348751D01*
X124213686Y-104358748D01*
X124233078Y-104368365D01*
X124233571Y-104368600D01*
X124261908Y-104385823D01*
X124275956Y-104402665D01*
X124276751Y-104406700D01*
X124275458Y-104412828D01*
X124269545Y-104417368D01*
X124256396Y-104420555D01*
X124233395Y-104422624D01*
X124197926Y-104423812D01*
X124147374Y-104424352D01*
X124079122Y-104424479D01*
X124079000Y-104424480D01*
X124009139Y-104424248D01*
X123957205Y-104423441D01*
X123920806Y-104421887D01*
X123897554Y-104419414D01*
X123885057Y-104415853D01*
X123880927Y-104411033D01*
X123880880Y-104410317D01*
X123889295Y-104398177D01*
X123910879Y-104382334D01*
X123929140Y-104372217D01*
X123962589Y-104352056D01*
X123982035Y-104329754D01*
X123989526Y-104312720D01*
X123992857Y-104295420D01*
X123995635Y-104264055D01*
X123997889Y-104217606D01*
X123999644Y-104155058D01*
X124000929Y-104075392D01*
X124001771Y-103977593D01*
X124002197Y-103860644D01*
X124002226Y-103841815D01*
X124002354Y-103730070D01*
X124002240Y-103636795D01*
X124001616Y-103560138D01*
X124000212Y-103498249D01*
X123997763Y-103449277D01*
X123993998Y-103411372D01*
X123988650Y-103382682D01*
X123981451Y-103361358D01*
X123972133Y-103345548D01*
X123960428Y-103333402D01*
X123946068Y-103323069D01*
X123928784Y-103312699D01*
X123925277Y-103310648D01*
X123897542Y-103293250D01*
X123882108Y-103279930D01*
X123880246Y-103270162D01*
X123893227Y-103263422D01*
X123922320Y-103259184D01*
X123968796Y-103256924D01*
X124033925Y-103256117D01*
X124057352Y-103256080D01*
X124233824Y-103256080D01*
X124820680Y-103925214D01*
G36*
X121620280Y-103256108D02*
G01*
X121786836Y-103632251D01*
X121823056Y-103713610D01*
X121856837Y-103788648D01*
X121887287Y-103855442D01*
X121913511Y-103912073D01*
X121934618Y-103956620D01*
X121949715Y-103987161D01*
X121957908Y-104001777D01*
X121959051Y-104002734D01*
X121964191Y-103992454D01*
X121976451Y-103965533D01*
X121994936Y-103924002D01*
X122018754Y-103869895D01*
X122047011Y-103805244D01*
X122078814Y-103732080D01*
X122113268Y-103652436D01*
X122123327Y-103629117D01*
X122281943Y-103261160D01*
X122492131Y-103258413D01*
X122563860Y-103257667D01*
X122617673Y-103257647D01*
X122655964Y-103258488D01*
X122681127Y-103260323D01*
X122695558Y-103263288D01*
X122701651Y-103267517D01*
X122702320Y-103270207D01*
X122693890Y-103282815D01*
X122672476Y-103298413D01*
X122658262Y-103306075D01*
X122641784Y-103314023D01*
X122627999Y-103321718D01*
X122616668Y-103330935D01*
X122607550Y-103343450D01*
X122600405Y-103361038D01*
X122594994Y-103385476D01*
X122591075Y-103418540D01*
X122588409Y-103462005D01*
X122586756Y-103517648D01*
X122585876Y-103587244D01*
X122585528Y-103672569D01*
X122585472Y-103775400D01*
X122585480Y-103844363D01*
X122585593Y-103958641D01*
X122585964Y-104054189D01*
X122586635Y-104132597D01*
X122587652Y-104195456D01*
X122589059Y-104244355D01*
X122590900Y-104280884D01*
X122593219Y-104306632D01*
X122596060Y-104323189D01*
X122599048Y-104331455D01*
X122616441Y-104349920D01*
X122644435Y-104368637D01*
X122657468Y-104375111D01*
X122683731Y-104389543D01*
X122699876Y-104403838D01*
X122702320Y-104409715D01*
X122699702Y-104414430D01*
X122690357Y-104418050D01*
X122672044Y-104420711D01*
X122642523Y-104422549D01*
X122599555Y-104423699D01*
X122540898Y-104424297D01*
X122464314Y-104424479D01*
X122458480Y-104424480D01*
X122380788Y-104424328D01*
X122321153Y-104423782D01*
X122277314Y-104422701D01*
X122247009Y-104420946D01*
X122227978Y-104418377D01*
X122217958Y-104414856D01*
X122214688Y-104410242D01*
X122214640Y-104409446D01*
X122222986Y-104396163D01*
X122244069Y-104380044D01*
X122256048Y-104373287D01*
X122273085Y-104364246D01*
X122287137Y-104354838D01*
X122298476Y-104343141D01*
X122307376Y-104327231D01*
X122314109Y-104305186D01*
X122318947Y-104275083D01*
X122322164Y-104234998D01*
X122324032Y-104183008D01*
X122324823Y-104117191D01*
X122324810Y-104035623D01*
X122324266Y-103936382D01*
X122323980Y-103894122D01*
X122321320Y-103505929D01*
X122118120Y-103975194D01*
X122068999Y-104088214D01*
X122027160Y-104183523D01*
X121992105Y-104262181D01*
X121963337Y-104325250D01*
X121940358Y-104373790D01*
X121922670Y-104408862D01*
X121909775Y-104431526D01*
X121901176Y-104442844D01*
X121897884Y-104444629D01*
X121882692Y-104435199D01*
X121864875Y-104408101D01*
X121856781Y-104391460D01*
X121847590Y-104370974D01*
X121831119Y-104334135D01*
X121808354Y-104283153D01*
X121780279Y-104220237D01*
X121747882Y-104147598D01*
X121712148Y-104067444D01*
X121674063Y-103981986D01*
X121650296Y-103928640D01*
X121467880Y-103519161D01*
X121465218Y-103913354D01*
X121464507Y-104017442D01*
X121464117Y-104103166D01*
X121464349Y-104172482D01*
X121465507Y-104227348D01*
X121467895Y-104269719D01*
X121471816Y-104301552D01*
X121477573Y-104324802D01*
X121485470Y-104341427D01*
X121495810Y-104353383D01*
X121508896Y-104362625D01*
X121525032Y-104371111D01*
X121537115Y-104377056D01*
X121560613Y-104391949D01*
X121573634Y-104406437D01*
X121574560Y-104410076D01*
X121571460Y-104415260D01*
X121560508Y-104419077D01*
X121539223Y-104421718D01*
X121505127Y-104423372D01*
X121455737Y-104424229D01*
X121388576Y-104424479D01*
X121386600Y-104424480D01*
X121320315Y-104424341D01*
X121271665Y-104423757D01*
X121237965Y-104422473D01*
X121216529Y-104420234D01*
X121204672Y-104416786D01*
X121199711Y-104411875D01*
X121198902Y-104406700D01*
X121208206Y-104390470D01*
X121232562Y-104373695D01*
X121238558Y-104370773D01*
X121254817Y-104363085D01*
X121268417Y-104355116D01*
X121279595Y-104345092D01*
X121288588Y-104331241D01*
X121295632Y-104311787D01*
X121300964Y-104284959D01*
X121304821Y-104248981D01*
X121307439Y-104202081D01*
X121309056Y-104142485D01*
X121309907Y-104068420D01*
X121310230Y-103978111D01*
X121310262Y-103869786D01*
X121310250Y-103833664D01*
X121310057Y-103717275D01*
X121309538Y-103619849D01*
X121308656Y-103540032D01*
X121307376Y-103476470D01*
X121305662Y-103427808D01*
X121303477Y-103392692D01*
X121300785Y-103369767D01*
X121297550Y-103357680D01*
X121280747Y-103337759D01*
X121253491Y-103317966D01*
X121242188Y-103311960D01*
X121213851Y-103294736D01*
X121199803Y-103277894D01*
X121199008Y-103273860D01*
X121200262Y-103267896D01*
X121205997Y-103263431D01*
X121218752Y-103260251D01*
X121241065Y-103258142D01*
X121275474Y-103256890D01*
X121324516Y-103256280D01*
X121390731Y-103256097D01*
X121409460Y-103256094D01*
X121620280Y-103256108D01*
G37*
X121620280Y-103256108D02*
X121786836Y-103632251D01*
X121823056Y-103713610D01*
X121856837Y-103788648D01*
X121887287Y-103855442D01*
X121913511Y-103912073D01*
X121934618Y-103956620D01*
X121949715Y-103987161D01*
X121957908Y-104001777D01*
X121959051Y-104002734D01*
X121964191Y-103992454D01*
X121976451Y-103965533D01*
X121994936Y-103924002D01*
X122018754Y-103869895D01*
X122047011Y-103805244D01*
X122078814Y-103732080D01*
X122113268Y-103652436D01*
X122123327Y-103629117D01*
X122281943Y-103261160D01*
X122492131Y-103258413D01*
X122563860Y-103257667D01*
X122617673Y-103257647D01*
X122655964Y-103258488D01*
X122681127Y-103260323D01*
X122695558Y-103263288D01*
X122701651Y-103267517D01*
X122702320Y-103270207D01*
X122693890Y-103282815D01*
X122672476Y-103298413D01*
X122658262Y-103306075D01*
X122641784Y-103314023D01*
X122627999Y-103321718D01*
X122616668Y-103330935D01*
X122607550Y-103343450D01*
X122600405Y-103361038D01*
X122594994Y-103385476D01*
X122591075Y-103418540D01*
X122588409Y-103462005D01*
X122586756Y-103517648D01*
X122585876Y-103587244D01*
X122585528Y-103672569D01*
X122585472Y-103775400D01*
X122585480Y-103844363D01*
X122585593Y-103958641D01*
X122585964Y-104054189D01*
X122586635Y-104132597D01*
X122587652Y-104195456D01*
X122589059Y-104244355D01*
X122590900Y-104280884D01*
X122593219Y-104306632D01*
X122596060Y-104323189D01*
X122599048Y-104331455D01*
X122616441Y-104349920D01*
X122644435Y-104368637D01*
X122657468Y-104375111D01*
X122683731Y-104389543D01*
X122699876Y-104403838D01*
X122702320Y-104409715D01*
X122699702Y-104414430D01*
X122690357Y-104418050D01*
X122672044Y-104420711D01*
X122642523Y-104422549D01*
X122599555Y-104423699D01*
X122540898Y-104424297D01*
X122464314Y-104424479D01*
X122458480Y-104424480D01*
X122380788Y-104424328D01*
X122321153Y-104423782D01*
X122277314Y-104422701D01*
X122247009Y-104420946D01*
X122227978Y-104418377D01*
X122217958Y-104414856D01*
X122214688Y-104410242D01*
X122214640Y-104409446D01*
X122222986Y-104396163D01*
X122244069Y-104380044D01*
X122256048Y-104373287D01*
X122273085Y-104364246D01*
X122287137Y-104354838D01*
X122298476Y-104343141D01*
X122307376Y-104327231D01*
X122314109Y-104305186D01*
X122318947Y-104275083D01*
X122322164Y-104234998D01*
X122324032Y-104183008D01*
X122324823Y-104117191D01*
X122324810Y-104035623D01*
X122324266Y-103936382D01*
X122323980Y-103894122D01*
X122321320Y-103505929D01*
X122118120Y-103975194D01*
X122068999Y-104088214D01*
X122027160Y-104183523D01*
X121992105Y-104262181D01*
X121963337Y-104325250D01*
X121940358Y-104373790D01*
X121922670Y-104408862D01*
X121909775Y-104431526D01*
X121901176Y-104442844D01*
X121897884Y-104444629D01*
X121882692Y-104435199D01*
X121864875Y-104408101D01*
X121856781Y-104391460D01*
X121847590Y-104370974D01*
X121831119Y-104334135D01*
X121808354Y-104283153D01*
X121780279Y-104220237D01*
X121747882Y-104147598D01*
X121712148Y-104067444D01*
X121674063Y-103981986D01*
X121650296Y-103928640D01*
X121467880Y-103519161D01*
X121465218Y-103913354D01*
X121464507Y-104017442D01*
X121464117Y-104103166D01*
X121464349Y-104172482D01*
X121465507Y-104227348D01*
X121467895Y-104269719D01*
X121471816Y-104301552D01*
X121477573Y-104324802D01*
X121485470Y-104341427D01*
X121495810Y-104353383D01*
X121508896Y-104362625D01*
X121525032Y-104371111D01*
X121537115Y-104377056D01*
X121560613Y-104391949D01*
X121573634Y-104406437D01*
X121574560Y-104410076D01*
X121571460Y-104415260D01*
X121560508Y-104419077D01*
X121539223Y-104421718D01*
X121505127Y-104423372D01*
X121455737Y-104424229D01*
X121388576Y-104424479D01*
X121386600Y-104424480D01*
X121320315Y-104424341D01*
X121271665Y-104423757D01*
X121237965Y-104422473D01*
X121216529Y-104420234D01*
X121204672Y-104416786D01*
X121199711Y-104411875D01*
X121198902Y-104406700D01*
X121208206Y-104390470D01*
X121232562Y-104373695D01*
X121238558Y-104370773D01*
X121254817Y-104363085D01*
X121268417Y-104355116D01*
X121279595Y-104345092D01*
X121288588Y-104331241D01*
X121295632Y-104311787D01*
X121300964Y-104284959D01*
X121304821Y-104248981D01*
X121307439Y-104202081D01*
X121309056Y-104142485D01*
X121309907Y-104068420D01*
X121310230Y-103978111D01*
X121310262Y-103869786D01*
X121310250Y-103833664D01*
X121310057Y-103717275D01*
X121309538Y-103619849D01*
X121308656Y-103540032D01*
X121307376Y-103476470D01*
X121305662Y-103427808D01*
X121303477Y-103392692D01*
X121300785Y-103369767D01*
X121297550Y-103357680D01*
X121280747Y-103337759D01*
X121253491Y-103317966D01*
X121242188Y-103311960D01*
X121213851Y-103294736D01*
X121199803Y-103277894D01*
X121199008Y-103273860D01*
X121200262Y-103267896D01*
X121205997Y-103263431D01*
X121218752Y-103260251D01*
X121241065Y-103258142D01*
X121275474Y-103256890D01*
X121324516Y-103256280D01*
X121390731Y-103256097D01*
X121409460Y-103256094D01*
X121620280Y-103256108D01*
G36*
X120202346Y-103256140D02*
G01*
X120260030Y-103256458D01*
X120302227Y-103257239D01*
X120331356Y-103258690D01*
X120349831Y-103261015D01*
X120360071Y-103264420D01*
X120364492Y-103269112D01*
X120365511Y-103275296D01*
X120365520Y-103276400D01*
X120358313Y-103293402D01*
X120345360Y-103296720D01*
X120325539Y-103303210D01*
X120300310Y-103319448D01*
X120292020Y-103326356D01*
X120258840Y-103355992D01*
X120255592Y-103714976D01*
X120254758Y-103822132D01*
X120254544Y-103911031D01*
X120255203Y-103983733D01*
X120256989Y-104042299D01*
X120260157Y-104088789D01*
X120264961Y-104125262D01*
X120271654Y-104153778D01*
X120280492Y-104176399D01*
X120291728Y-104195183D01*
X120305617Y-104212191D01*
X120318610Y-104225705D01*
X120352011Y-104254087D01*
X120389193Y-104274335D01*
X120434069Y-104287541D01*
X120490548Y-104294797D01*
X120562541Y-104297196D01*
X120574604Y-104297205D01*
X120626302Y-104296589D01*
X120663140Y-104294458D01*
X120690569Y-104289940D01*
X120714039Y-104282163D01*
X120737164Y-104271203D01*
X120789775Y-104233534D01*
X120826789Y-104182861D01*
X120842877Y-104141195D01*
X120845487Y-104121534D01*
X120847802Y-104083702D01*
X120849769Y-104029843D01*
X120851331Y-103962104D01*
X120852434Y-103882633D01*
X120853021Y-103793573D01*
X120853105Y-103743760D01*
X120853053Y-103648147D01*
X120852813Y-103570705D01*
X120852280Y-103509285D01*
X120851346Y-103461737D01*
X120849904Y-103425913D01*
X120847848Y-103399663D01*
X120845069Y-103380838D01*
X120841461Y-103367289D01*
X120836917Y-103356867D01*
X120833546Y-103350972D01*
X120807602Y-103322924D01*
X120777704Y-103305751D01*
X120750454Y-103290960D01*
X120741440Y-103274358D01*
X120742742Y-103267993D01*
X120748427Y-103263299D01*
X120761157Y-103260025D01*
X120783596Y-103257919D01*
X120818409Y-103256727D01*
X120868260Y-103256198D01*
X120934480Y-103256080D01*
X121001524Y-103256167D01*
X121050934Y-103256618D01*
X121085397Y-103257715D01*
X121107597Y-103259741D01*
X121120220Y-103262978D01*
X121125952Y-103267710D01*
X121127480Y-103274219D01*
X121127520Y-103276400D01*
X121120470Y-103293254D01*
X121106418Y-103296720D01*
X121085850Y-103303606D01*
X121061688Y-103320640D01*
X121056644Y-103325392D01*
X121027971Y-103354065D01*
X121023584Y-103739412D01*
X121022381Y-103839204D01*
X121021184Y-103920920D01*
X121019865Y-103986807D01*
X121018297Y-104039109D01*
X121016352Y-104080070D01*
X121013904Y-104111936D01*
X121010826Y-104136952D01*
X121006989Y-104157361D01*
X121002267Y-104175410D01*
X120998126Y-104188571D01*
X120965638Y-104262788D01*
X120921118Y-104323530D01*
X120863630Y-104371307D01*
X120792232Y-104406629D01*
X120705986Y-104430006D01*
X120603954Y-104441947D01*
X120528080Y-104443815D01*
X120473830Y-104442329D01*
X120420039Y-104438816D01*
X120374046Y-104433857D01*
X120350280Y-104429803D01*
X120252630Y-104401326D01*
X120171789Y-104362161D01*
X120106912Y-104311681D01*
X120057151Y-104249259D01*
X120027857Y-104190800D01*
X120022144Y-104175632D01*
X120017452Y-104160103D01*
X120013644Y-104142030D01*
X120010585Y-104119229D01*
X120008138Y-104089519D01*
X120006169Y-104050717D01*
X120004540Y-104000640D01*
X120003116Y-103937104D01*
X120001762Y-103857928D01*
X120000340Y-103760929D01*
X120000123Y-103745449D01*
X119994680Y-103355979D01*
X119961499Y-103326349D01*
X119936420Y-103307897D01*
X119913772Y-103297537D01*
X119908159Y-103296720D01*
X119891291Y-103289456D01*
X119888000Y-103276400D01*
X119888708Y-103269967D01*
X119892444Y-103265057D01*
X119901625Y-103261466D01*
X119918668Y-103258987D01*
X119945990Y-103257415D01*
X119986006Y-103256543D01*
X120041135Y-103256167D01*
X120113793Y-103256080D01*
X120126760Y-103256080D01*
X120202346Y-103256140D01*
G37*
X120202346Y-103256140D02*
X120260030Y-103256458D01*
X120302227Y-103257239D01*
X120331356Y-103258690D01*
X120349831Y-103261015D01*
X120360071Y-103264420D01*
X120364492Y-103269112D01*
X120365511Y-103275296D01*
X120365520Y-103276400D01*
X120358313Y-103293402D01*
X120345360Y-103296720D01*
X120325539Y-103303210D01*
X120300310Y-103319448D01*
X120292020Y-103326356D01*
X120258840Y-103355992D01*
X120255592Y-103714976D01*
X120254758Y-103822132D01*
X120254544Y-103911031D01*
X120255203Y-103983733D01*
X120256989Y-104042299D01*
X120260157Y-104088789D01*
X120264961Y-104125262D01*
X120271654Y-104153778D01*
X120280492Y-104176399D01*
X120291728Y-104195183D01*
X120305617Y-104212191D01*
X120318610Y-104225705D01*
X120352011Y-104254087D01*
X120389193Y-104274335D01*
X120434069Y-104287541D01*
X120490548Y-104294797D01*
X120562541Y-104297196D01*
X120574604Y-104297205D01*
X120626302Y-104296589D01*
X120663140Y-104294458D01*
X120690569Y-104289940D01*
X120714039Y-104282163D01*
X120737164Y-104271203D01*
X120789775Y-104233534D01*
X120826789Y-104182861D01*
X120842877Y-104141195D01*
X120845487Y-104121534D01*
X120847802Y-104083702D01*
X120849769Y-104029843D01*
X120851331Y-103962104D01*
X120852434Y-103882633D01*
X120853021Y-103793573D01*
X120853105Y-103743760D01*
X120853053Y-103648147D01*
X120852813Y-103570705D01*
X120852280Y-103509285D01*
X120851346Y-103461737D01*
X120849904Y-103425913D01*
X120847848Y-103399663D01*
X120845069Y-103380838D01*
X120841461Y-103367289D01*
X120836917Y-103356867D01*
X120833546Y-103350972D01*
X120807602Y-103322924D01*
X120777704Y-103305751D01*
X120750454Y-103290960D01*
X120741440Y-103274358D01*
X120742742Y-103267993D01*
X120748427Y-103263299D01*
X120761157Y-103260025D01*
X120783596Y-103257919D01*
X120818409Y-103256727D01*
X120868260Y-103256198D01*
X120934480Y-103256080D01*
X121001524Y-103256167D01*
X121050934Y-103256618D01*
X121085397Y-103257715D01*
X121107597Y-103259741D01*
X121120220Y-103262978D01*
X121125952Y-103267710D01*
X121127480Y-103274219D01*
X121127520Y-103276400D01*
X121120470Y-103293254D01*
X121106418Y-103296720D01*
X121085850Y-103303606D01*
X121061688Y-103320640D01*
X121056644Y-103325392D01*
X121027971Y-103354065D01*
X121023584Y-103739412D01*
X121022381Y-103839204D01*
X121021184Y-103920920D01*
X121019865Y-103986807D01*
X121018297Y-104039109D01*
X121016352Y-104080070D01*
X121013904Y-104111936D01*
X121010826Y-104136952D01*
X121006989Y-104157361D01*
X121002267Y-104175410D01*
X120998126Y-104188571D01*
X120965638Y-104262788D01*
X120921118Y-104323530D01*
X120863630Y-104371307D01*
X120792232Y-104406629D01*
X120705986Y-104430006D01*
X120603954Y-104441947D01*
X120528080Y-104443815D01*
X120473830Y-104442329D01*
X120420039Y-104438816D01*
X120374046Y-104433857D01*
X120350280Y-104429803D01*
X120252630Y-104401326D01*
X120171789Y-104362161D01*
X120106912Y-104311681D01*
X120057151Y-104249259D01*
X120027857Y-104190800D01*
X120022144Y-104175632D01*
X120017452Y-104160103D01*
X120013644Y-104142030D01*
X120010585Y-104119229D01*
X120008138Y-104089519D01*
X120006169Y-104050717D01*
X120004540Y-104000640D01*
X120003116Y-103937104D01*
X120001762Y-103857928D01*
X120000340Y-103760929D01*
X120000123Y-103745449D01*
X119994680Y-103355979D01*
X119961499Y-103326349D01*
X119936420Y-103307897D01*
X119913772Y-103297537D01*
X119908159Y-103296720D01*
X119891291Y-103289456D01*
X119888000Y-103276400D01*
X119888708Y-103269967D01*
X119892444Y-103265057D01*
X119901625Y-103261466D01*
X119918668Y-103258987D01*
X119945990Y-103257415D01*
X119986006Y-103256543D01*
X120041135Y-103256167D01*
X120113793Y-103256080D01*
X120126760Y-103256080D01*
X120202346Y-103256140D01*
G36*
X119067580Y-103256256D02*
G01*
X119174995Y-103256521D01*
X119264479Y-103257349D01*
X119338416Y-103258965D01*
X119399190Y-103261589D01*
X119449187Y-103265447D01*
X119490793Y-103270761D01*
X119526391Y-103277753D01*
X119558366Y-103286648D01*
X119589105Y-103297668D01*
X119612188Y-103307207D01*
X119667189Y-103339933D01*
X119715895Y-103385832D01*
X119753211Y-103439333D01*
X119770393Y-103480189D01*
X119785194Y-103560748D01*
X119780933Y-103635777D01*
X119758444Y-103703894D01*
X119718557Y-103763717D01*
X119662104Y-103813863D01*
X119589917Y-103852951D01*
X119534765Y-103871825D01*
X119471090Y-103889428D01*
X119531608Y-103918474D01*
X119571797Y-103941345D01*
X119608952Y-103970984D01*
X119645605Y-104010198D01*
X119684290Y-104061793D01*
X119727538Y-104128574D01*
X119740590Y-104150012D01*
X119769417Y-104195917D01*
X119798643Y-104239164D01*
X119824641Y-104274561D01*
X119842086Y-104295218D01*
X119874493Y-104323722D01*
X119911228Y-104348721D01*
X119946183Y-104366583D01*
X119973248Y-104373671D01*
X119973955Y-104373680D01*
X119987547Y-104379988D01*
X119988525Y-104394854D01*
X119978360Y-104412193D01*
X119961660Y-104424522D01*
X119933734Y-104432466D01*
X119891783Y-104438017D01*
X119841978Y-104441019D01*
X119790492Y-104441317D01*
X119743495Y-104438754D01*
X119707160Y-104433173D01*
X119700040Y-104431149D01*
X119643822Y-104407967D01*
X119594547Y-104376677D01*
X119549847Y-104334772D01*
X119507355Y-104279747D01*
X119464703Y-104209095D01*
X119433509Y-104149049D01*
X119403103Y-104090886D01*
X119374088Y-104041371D01*
X119348775Y-104004268D01*
X119334397Y-103987600D01*
X119297644Y-103952040D01*
X119075200Y-103945162D01*
X119075256Y-104101001D01*
X119075964Y-104158568D01*
X119077873Y-104211920D01*
X119080726Y-104256358D01*
X119084264Y-104287178D01*
X119085912Y-104295006D01*
X119106485Y-104338454D01*
X119138741Y-104368715D01*
X119169180Y-104380727D01*
X119191973Y-104391598D01*
X119197120Y-104405430D01*
X119196158Y-104411411D01*
X119191683Y-104415992D01*
X119181312Y-104419357D01*
X119162659Y-104421694D01*
X119133342Y-104423189D01*
X119090976Y-104424027D01*
X119033177Y-104424395D01*
X118957561Y-104424479D01*
X118953280Y-104424480D01*
X118876550Y-104424385D01*
X118817774Y-104423987D01*
X118774583Y-104423112D01*
X118744611Y-104421588D01*
X118725491Y-104419242D01*
X118714857Y-104415902D01*
X118710341Y-104411395D01*
X118709543Y-104406700D01*
X118719162Y-104390246D01*
X118745671Y-104373869D01*
X118750430Y-104371788D01*
X118766478Y-104364783D01*
X118779895Y-104357239D01*
X118790918Y-104347389D01*
X118799781Y-104333466D01*
X118806721Y-104313700D01*
X118811971Y-104286325D01*
X118815769Y-104249571D01*
X118818349Y-104201671D01*
X118819946Y-104140856D01*
X118820797Y-104065360D01*
X118821136Y-103973412D01*
X118821199Y-103863247D01*
X118821200Y-103840280D01*
X118821162Y-103726479D01*
X118820915Y-103638694D01*
X119075200Y-103638694D01*
X119075200Y-103806625D01*
X119219980Y-103803132D01*
X119278410Y-103801444D01*
X119320749Y-103799226D01*
X119351223Y-103795835D01*
X119374061Y-103790629D01*
X119393490Y-103782965D01*
X119410172Y-103774211D01*
X119454525Y-103739409D01*
X119485594Y-103694609D01*
X119503635Y-103643417D01*
X119508899Y-103589436D01*
X119501639Y-103536273D01*
X119482109Y-103487533D01*
X119450560Y-103446821D01*
X119407246Y-103417742D01*
X119384603Y-103409583D01*
X119358763Y-103405140D01*
X119320442Y-103401807D01*
X119274625Y-103399645D01*
X119226299Y-103398713D01*
X119180450Y-103399070D01*
X119142066Y-103400775D01*
X119116133Y-103403889D01*
X119108855Y-103406302D01*
X119096794Y-103418873D01*
X119087772Y-103440739D01*
X119081450Y-103474248D01*
X119077486Y-103521750D01*
X119075542Y-103585596D01*
X119075200Y-103638694D01*
X118820915Y-103638694D01*
X118820893Y-103631231D01*
X118820157Y-103552766D01*
X118818718Y-103489318D01*
X118816342Y-103439117D01*
X118812792Y-103400396D01*
X118807833Y-103371387D01*
X118801230Y-103350321D01*
X118792748Y-103335431D01*
X118782151Y-103324948D01*
X118769203Y-103317105D01*
X118753669Y-103310133D01*
X118750430Y-103308771D01*
X118721863Y-103292620D01*
X118709742Y-103276013D01*
X118709543Y-103273860D01*
X118710618Y-103269148D01*
X118715209Y-103265350D01*
X118725275Y-103262369D01*
X118742774Y-103260108D01*
X118769667Y-103258472D01*
X118807911Y-103257364D01*
X118859465Y-103256687D01*
X118926288Y-103256346D01*
X119010340Y-103256244D01*
X119067580Y-103256256D01*
G37*
X119067580Y-103256256D02*
X119174995Y-103256521D01*
X119264479Y-103257349D01*
X119338416Y-103258965D01*
X119399190Y-103261589D01*
X119449187Y-103265447D01*
X119490793Y-103270761D01*
X119526391Y-103277753D01*
X119558366Y-103286648D01*
X119589105Y-103297668D01*
X119612188Y-103307207D01*
X119667189Y-103339933D01*
X119715895Y-103385832D01*
X119753211Y-103439333D01*
X119770393Y-103480189D01*
X119785194Y-103560748D01*
X119780933Y-103635777D01*
X119758444Y-103703894D01*
X119718557Y-103763717D01*
X119662104Y-103813863D01*
X119589917Y-103852951D01*
X119534765Y-103871825D01*
X119471090Y-103889428D01*
X119531608Y-103918474D01*
X119571797Y-103941345D01*
X119608952Y-103970984D01*
X119645605Y-104010198D01*
X119684290Y-104061793D01*
X119727538Y-104128574D01*
X119740590Y-104150012D01*
X119769417Y-104195917D01*
X119798643Y-104239164D01*
X119824641Y-104274561D01*
X119842086Y-104295218D01*
X119874493Y-104323722D01*
X119911228Y-104348721D01*
X119946183Y-104366583D01*
X119973248Y-104373671D01*
X119973955Y-104373680D01*
X119987547Y-104379988D01*
X119988525Y-104394854D01*
X119978360Y-104412193D01*
X119961660Y-104424522D01*
X119933734Y-104432466D01*
X119891783Y-104438017D01*
X119841978Y-104441019D01*
X119790492Y-104441317D01*
X119743495Y-104438754D01*
X119707160Y-104433173D01*
X119700040Y-104431149D01*
X119643822Y-104407967D01*
X119594547Y-104376677D01*
X119549847Y-104334772D01*
X119507355Y-104279747D01*
X119464703Y-104209095D01*
X119433509Y-104149049D01*
X119403103Y-104090886D01*
X119374088Y-104041371D01*
X119348775Y-104004268D01*
X119334397Y-103987600D01*
X119297644Y-103952040D01*
X119075200Y-103945162D01*
X119075256Y-104101001D01*
X119075964Y-104158568D01*
X119077873Y-104211920D01*
X119080726Y-104256358D01*
X119084264Y-104287178D01*
X119085912Y-104295006D01*
X119106485Y-104338454D01*
X119138741Y-104368715D01*
X119169180Y-104380727D01*
X119191973Y-104391598D01*
X119197120Y-104405430D01*
X119196158Y-104411411D01*
X119191683Y-104415992D01*
X119181312Y-104419357D01*
X119162659Y-104421694D01*
X119133342Y-104423189D01*
X119090976Y-104424027D01*
X119033177Y-104424395D01*
X118957561Y-104424479D01*
X118953280Y-104424480D01*
X118876550Y-104424385D01*
X118817774Y-104423987D01*
X118774583Y-104423112D01*
X118744611Y-104421588D01*
X118725491Y-104419242D01*
X118714857Y-104415902D01*
X118710341Y-104411395D01*
X118709543Y-104406700D01*
X118719162Y-104390246D01*
X118745671Y-104373869D01*
X118750430Y-104371788D01*
X118766478Y-104364783D01*
X118779895Y-104357239D01*
X118790918Y-104347389D01*
X118799781Y-104333466D01*
X118806721Y-104313700D01*
X118811971Y-104286325D01*
X118815769Y-104249571D01*
X118818349Y-104201671D01*
X118819946Y-104140856D01*
X118820797Y-104065360D01*
X118821136Y-103973412D01*
X118821199Y-103863247D01*
X118821200Y-103840280D01*
X118821162Y-103726479D01*
X118820915Y-103638694D01*
X119075200Y-103638694D01*
X119075200Y-103806625D01*
X119219980Y-103803132D01*
X119278410Y-103801444D01*
X119320749Y-103799226D01*
X119351223Y-103795835D01*
X119374061Y-103790629D01*
X119393490Y-103782965D01*
X119410172Y-103774211D01*
X119454525Y-103739409D01*
X119485594Y-103694609D01*
X119503635Y-103643417D01*
X119508899Y-103589436D01*
X119501639Y-103536273D01*
X119482109Y-103487533D01*
X119450560Y-103446821D01*
X119407246Y-103417742D01*
X119384603Y-103409583D01*
X119358763Y-103405140D01*
X119320442Y-103401807D01*
X119274625Y-103399645D01*
X119226299Y-103398713D01*
X119180450Y-103399070D01*
X119142066Y-103400775D01*
X119116133Y-103403889D01*
X119108855Y-103406302D01*
X119096794Y-103418873D01*
X119087772Y-103440739D01*
X119081450Y-103474248D01*
X119077486Y-103521750D01*
X119075542Y-103585596D01*
X119075200Y-103638694D01*
X118820915Y-103638694D01*
X118820893Y-103631231D01*
X118820157Y-103552766D01*
X118818718Y-103489318D01*
X118816342Y-103439117D01*
X118812792Y-103400396D01*
X118807833Y-103371387D01*
X118801230Y-103350321D01*
X118792748Y-103335431D01*
X118782151Y-103324948D01*
X118769203Y-103317105D01*
X118753669Y-103310133D01*
X118750430Y-103308771D01*
X118721863Y-103292620D01*
X118709742Y-103276013D01*
X118709543Y-103273860D01*
X118710618Y-103269148D01*
X118715209Y-103265350D01*
X118725275Y-103262369D01*
X118742774Y-103260108D01*
X118769667Y-103258472D01*
X118807911Y-103257364D01*
X118859465Y-103256687D01*
X118926288Y-103256346D01*
X119010340Y-103256244D01*
X119067580Y-103256256D01*
G36*
X117194569Y-103250726D02*
G01*
X117276789Y-103276987D01*
X117298190Y-103287065D01*
X117332298Y-103299130D01*
X117356060Y-103296213D01*
X117367549Y-103278779D01*
X117368320Y-103270075D01*
X117377310Y-103259254D01*
X117396271Y-103256080D01*
X117407482Y-103256848D01*
X117416346Y-103261154D01*
X117424313Y-103271999D01*
X117432830Y-103292384D01*
X117443347Y-103325312D01*
X117457312Y-103373783D01*
X117463244Y-103394839D01*
X117477681Y-103445844D01*
X117490472Y-103490410D01*
X117500471Y-103524590D01*
X117506531Y-103544436D01*
X117507466Y-103547154D01*
X117504032Y-103561517D01*
X117495620Y-103567250D01*
X117477236Y-103564740D01*
X117450192Y-103545677D01*
X117436146Y-103532742D01*
X117356209Y-103468156D01*
X117269682Y-103422782D01*
X117176373Y-103396547D01*
X117076091Y-103389376D01*
X117065997Y-103389691D01*
X116997012Y-103396416D01*
X116944592Y-103411082D01*
X116906168Y-103434788D01*
X116879171Y-103468634D01*
X116878436Y-103469952D01*
X116864979Y-103511043D01*
X116865418Y-103554458D01*
X116879237Y-103592480D01*
X116887374Y-103603348D01*
X116902926Y-103618163D01*
X116922311Y-103631015D01*
X116948483Y-103642981D01*
X116984395Y-103655133D01*
X117033000Y-103668547D01*
X117097250Y-103684296D01*
X117132472Y-103692529D01*
X117193418Y-103707119D01*
X117251917Y-103721995D01*
X117303171Y-103735874D01*
X117342381Y-103747473D01*
X117358656Y-103753001D01*
X117439433Y-103790871D01*
X117502141Y-103837308D01*
X117547428Y-103892972D01*
X117575942Y-103958521D01*
X117581052Y-103978939D01*
X117591396Y-104069504D01*
X117582846Y-104153511D01*
X117556128Y-104229684D01*
X117511969Y-104296744D01*
X117451097Y-104353413D01*
X117374240Y-104398415D01*
X117332760Y-104415186D01*
X117284504Y-104427510D01*
X117222975Y-104436315D01*
X117154523Y-104441357D01*
X117085503Y-104442391D01*
X117022265Y-104439175D01*
X116971164Y-104431464D01*
X116963026Y-104429380D01*
X116921395Y-104416234D01*
X116878959Y-104400631D01*
X116862675Y-104393841D01*
X116827639Y-104379571D01*
X116805681Y-104375207D01*
X116791946Y-104381097D01*
X116781581Y-104397591D01*
X116780584Y-104399746D01*
X116766374Y-104419111D01*
X116744418Y-104422939D01*
X116741089Y-104422606D01*
X116730529Y-104420526D01*
X116721926Y-104415139D01*
X116714010Y-104403560D01*
X116705517Y-104382903D01*
X116695178Y-104350284D01*
X116681726Y-104302817D01*
X116670517Y-104261920D01*
X116655858Y-104207242D01*
X116643290Y-104158592D01*
X116633747Y-104119729D01*
X116628163Y-104094410D01*
X116627102Y-104087259D01*
X116630118Y-104069959D01*
X116641283Y-104066145D01*
X116661851Y-104076389D01*
X116693071Y-104101260D01*
X116727686Y-104133149D01*
X116790600Y-104187973D01*
X116850690Y-104228634D01*
X116883334Y-104245859D01*
X116959355Y-104275608D01*
X117036611Y-104293470D01*
X117112052Y-104299706D01*
X117182626Y-104294574D01*
X117245284Y-104278335D01*
X117296973Y-104251248D01*
X117334644Y-104213573D01*
X117338848Y-104207104D01*
X117353159Y-104168417D01*
X117357791Y-104121202D01*
X117352486Y-104074935D01*
X117343166Y-104049036D01*
X117328944Y-104027968D01*
X117308185Y-104009677D01*
X117278340Y-103993057D01*
X117236862Y-103977005D01*
X117181204Y-103960418D01*
X117108816Y-103942191D01*
X117081996Y-103935900D01*
X116981994Y-103910986D01*
X116900016Y-103886237D01*
X116833815Y-103860391D01*
X116781145Y-103832190D01*
X116739758Y-103800375D01*
X116707409Y-103763685D01*
X116681851Y-103720861D01*
X116675876Y-103708200D01*
X116662162Y-103670666D01*
X116655122Y-103630259D01*
X116653257Y-103578717D01*
X116654590Y-103534155D01*
X116659732Y-103500416D01*
X116670937Y-103468059D01*
X116688342Y-103431779D01*
X116721355Y-103377469D01*
X116759237Y-103336886D01*
X116771848Y-103326770D01*
X116842716Y-103285063D01*
X116924990Y-103256261D01*
X117014102Y-103240708D01*
X117105484Y-103238748D01*
X117194569Y-103250726D01*
G37*
X117194569Y-103250726D02*
X117276789Y-103276987D01*
X117298190Y-103287065D01*
X117332298Y-103299130D01*
X117356060Y-103296213D01*
X117367549Y-103278779D01*
X117368320Y-103270075D01*
X117377310Y-103259254D01*
X117396271Y-103256080D01*
X117407482Y-103256848D01*
X117416346Y-103261154D01*
X117424313Y-103271999D01*
X117432830Y-103292384D01*
X117443347Y-103325312D01*
X117457312Y-103373783D01*
X117463244Y-103394839D01*
X117477681Y-103445844D01*
X117490472Y-103490410D01*
X117500471Y-103524590D01*
X117506531Y-103544436D01*
X117507466Y-103547154D01*
X117504032Y-103561517D01*
X117495620Y-103567250D01*
X117477236Y-103564740D01*
X117450192Y-103545677D01*
X117436146Y-103532742D01*
X117356209Y-103468156D01*
X117269682Y-103422782D01*
X117176373Y-103396547D01*
X117076091Y-103389376D01*
X117065997Y-103389691D01*
X116997012Y-103396416D01*
X116944592Y-103411082D01*
X116906168Y-103434788D01*
X116879171Y-103468634D01*
X116878436Y-103469952D01*
X116864979Y-103511043D01*
X116865418Y-103554458D01*
X116879237Y-103592480D01*
X116887374Y-103603348D01*
X116902926Y-103618163D01*
X116922311Y-103631015D01*
X116948483Y-103642981D01*
X116984395Y-103655133D01*
X117033000Y-103668547D01*
X117097250Y-103684296D01*
X117132472Y-103692529D01*
X117193418Y-103707119D01*
X117251917Y-103721995D01*
X117303171Y-103735874D01*
X117342381Y-103747473D01*
X117358656Y-103753001D01*
X117439433Y-103790871D01*
X117502141Y-103837308D01*
X117547428Y-103892972D01*
X117575942Y-103958521D01*
X117581052Y-103978939D01*
X117591396Y-104069504D01*
X117582846Y-104153511D01*
X117556128Y-104229684D01*
X117511969Y-104296744D01*
X117451097Y-104353413D01*
X117374240Y-104398415D01*
X117332760Y-104415186D01*
X117284504Y-104427510D01*
X117222975Y-104436315D01*
X117154523Y-104441357D01*
X117085503Y-104442391D01*
X117022265Y-104439175D01*
X116971164Y-104431464D01*
X116963026Y-104429380D01*
X116921395Y-104416234D01*
X116878959Y-104400631D01*
X116862675Y-104393841D01*
X116827639Y-104379571D01*
X116805681Y-104375207D01*
X116791946Y-104381097D01*
X116781581Y-104397591D01*
X116780584Y-104399746D01*
X116766374Y-104419111D01*
X116744418Y-104422939D01*
X116741089Y-104422606D01*
X116730529Y-104420526D01*
X116721926Y-104415139D01*
X116714010Y-104403560D01*
X116705517Y-104382903D01*
X116695178Y-104350284D01*
X116681726Y-104302817D01*
X116670517Y-104261920D01*
X116655858Y-104207242D01*
X116643290Y-104158592D01*
X116633747Y-104119729D01*
X116628163Y-104094410D01*
X116627102Y-104087259D01*
X116630118Y-104069959D01*
X116641283Y-104066145D01*
X116661851Y-104076389D01*
X116693071Y-104101260D01*
X116727686Y-104133149D01*
X116790600Y-104187973D01*
X116850690Y-104228634D01*
X116883334Y-104245859D01*
X116959355Y-104275608D01*
X117036611Y-104293470D01*
X117112052Y-104299706D01*
X117182626Y-104294574D01*
X117245284Y-104278335D01*
X117296973Y-104251248D01*
X117334644Y-104213573D01*
X117338848Y-104207104D01*
X117353159Y-104168417D01*
X117357791Y-104121202D01*
X117352486Y-104074935D01*
X117343166Y-104049036D01*
X117328944Y-104027968D01*
X117308185Y-104009677D01*
X117278340Y-103993057D01*
X117236862Y-103977005D01*
X117181204Y-103960418D01*
X117108816Y-103942191D01*
X117081996Y-103935900D01*
X116981994Y-103910986D01*
X116900016Y-103886237D01*
X116833815Y-103860391D01*
X116781145Y-103832190D01*
X116739758Y-103800375D01*
X116707409Y-103763685D01*
X116681851Y-103720861D01*
X116675876Y-103708200D01*
X116662162Y-103670666D01*
X116655122Y-103630259D01*
X116653257Y-103578717D01*
X116654590Y-103534155D01*
X116659732Y-103500416D01*
X116670937Y-103468059D01*
X116688342Y-103431779D01*
X116721355Y-103377469D01*
X116759237Y-103336886D01*
X116771848Y-103326770D01*
X116842716Y-103285063D01*
X116924990Y-103256261D01*
X117014102Y-103240708D01*
X117105484Y-103238748D01*
X117194569Y-103250726D01*
G36*
X116458218Y-103256223D02*
G01*
X116505877Y-103256831D01*
X116538654Y-103258167D01*
X116559268Y-103260497D01*
X116570438Y-103264085D01*
X116574883Y-103269197D01*
X116575448Y-103273860D01*
X116567168Y-103290514D01*
X116547253Y-103308807D01*
X116542428Y-103312012D01*
X116527852Y-103321215D01*
X116515517Y-103330262D01*
X116505236Y-103340835D01*
X116496823Y-103354613D01*
X116490091Y-103373278D01*
X116484851Y-103398509D01*
X116480917Y-103431987D01*
X116478102Y-103475392D01*
X116476218Y-103530406D01*
X116475079Y-103598707D01*
X116474497Y-103681977D01*
X116474285Y-103781897D01*
X116474256Y-103900145D01*
X116474255Y-103924100D01*
X116474224Y-104040333D01*
X116474099Y-104137880D01*
X116473823Y-104218373D01*
X116473337Y-104283444D01*
X116472582Y-104334726D01*
X116471502Y-104373853D01*
X116470038Y-104402457D01*
X116468131Y-104422172D01*
X116465723Y-104434629D01*
X116462757Y-104441461D01*
X116459174Y-104444303D01*
X116455713Y-104444800D01*
X116441801Y-104437303D01*
X116417604Y-104416395D01*
X116385634Y-104384452D01*
X116348402Y-104343848D01*
X116345590Y-104340660D01*
X116319125Y-104310553D01*
X116281196Y-104267379D01*
X116233740Y-104213344D01*
X116178693Y-104150654D01*
X116117994Y-104081516D01*
X116053579Y-104008136D01*
X115987387Y-103932720D01*
X115952637Y-103893125D01*
X115651280Y-103549730D01*
X115651280Y-104301000D01*
X115677895Y-104332632D01*
X115704742Y-104357630D01*
X115735264Y-104377008D01*
X115738855Y-104378613D01*
X115761458Y-104391975D01*
X115772866Y-104406390D01*
X115773200Y-104408721D01*
X115770978Y-104414198D01*
X115762618Y-104418262D01*
X115745576Y-104421114D01*
X115717308Y-104422957D01*
X115675269Y-104423994D01*
X115616915Y-104424426D01*
X115575080Y-104424480D01*
X115507040Y-104424396D01*
X115456669Y-104423964D01*
X115421315Y-104422912D01*
X115398326Y-104420967D01*
X115385052Y-104417858D01*
X115378840Y-104413313D01*
X115377039Y-104407060D01*
X115376960Y-104404160D01*
X115383961Y-104387347D01*
X115398295Y-104383840D01*
X115417920Y-104376957D01*
X115442957Y-104359549D01*
X115454175Y-104349296D01*
X115488720Y-104314752D01*
X115488720Y-103379559D01*
X115463525Y-103349617D01*
X115437972Y-103325702D01*
X115409780Y-103307893D01*
X115407645Y-103306965D01*
X115384280Y-103291460D01*
X115376960Y-103275167D01*
X115378116Y-103268248D01*
X115383457Y-103263242D01*
X115395787Y-103259846D01*
X115417913Y-103257759D01*
X115452641Y-103256679D01*
X115502776Y-103256304D01*
X115552220Y-103256303D01*
X115727480Y-103256526D01*
X116316760Y-103930450D01*
X116319468Y-103664462D01*
X116320186Y-103574952D01*
X116320023Y-103503423D01*
X116318533Y-103447540D01*
X116315274Y-103404968D01*
X116309799Y-103373372D01*
X116301666Y-103350418D01*
X116290429Y-103333769D01*
X116275644Y-103321093D01*
X116256867Y-103310054D01*
X116251488Y-103307272D01*
X116226631Y-103291560D01*
X116211857Y-103276369D01*
X116210080Y-103271113D01*
X116212776Y-103265671D01*
X116222587Y-103261687D01*
X116242097Y-103258948D01*
X116273887Y-103257243D01*
X116320540Y-103256358D01*
X116384640Y-103256082D01*
X116392960Y-103256080D01*
X116458218Y-103256223D01*
G37*
X116458218Y-103256223D02*
X116505877Y-103256831D01*
X116538654Y-103258167D01*
X116559268Y-103260497D01*
X116570438Y-103264085D01*
X116574883Y-103269197D01*
X116575448Y-103273860D01*
X116567168Y-103290514D01*
X116547253Y-103308807D01*
X116542428Y-103312012D01*
X116527852Y-103321215D01*
X116515517Y-103330262D01*
X116505236Y-103340835D01*
X116496823Y-103354613D01*
X116490091Y-103373278D01*
X116484851Y-103398509D01*
X116480917Y-103431987D01*
X116478102Y-103475392D01*
X116476218Y-103530406D01*
X116475079Y-103598707D01*
X116474497Y-103681977D01*
X116474285Y-103781897D01*
X116474256Y-103900145D01*
X116474255Y-103924100D01*
X116474224Y-104040333D01*
X116474099Y-104137880D01*
X116473823Y-104218373D01*
X116473337Y-104283444D01*
X116472582Y-104334726D01*
X116471502Y-104373853D01*
X116470038Y-104402457D01*
X116468131Y-104422172D01*
X116465723Y-104434629D01*
X116462757Y-104441461D01*
X116459174Y-104444303D01*
X116455713Y-104444800D01*
X116441801Y-104437303D01*
X116417604Y-104416395D01*
X116385634Y-104384452D01*
X116348402Y-104343848D01*
X116345590Y-104340660D01*
X116319125Y-104310553D01*
X116281196Y-104267379D01*
X116233740Y-104213344D01*
X116178693Y-104150654D01*
X116117994Y-104081516D01*
X116053579Y-104008136D01*
X115987387Y-103932720D01*
X115952637Y-103893125D01*
X115651280Y-103549730D01*
X115651280Y-104301000D01*
X115677895Y-104332632D01*
X115704742Y-104357630D01*
X115735264Y-104377008D01*
X115738855Y-104378613D01*
X115761458Y-104391975D01*
X115772866Y-104406390D01*
X115773200Y-104408721D01*
X115770978Y-104414198D01*
X115762618Y-104418262D01*
X115745576Y-104421114D01*
X115717308Y-104422957D01*
X115675269Y-104423994D01*
X115616915Y-104424426D01*
X115575080Y-104424480D01*
X115507040Y-104424396D01*
X115456669Y-104423964D01*
X115421315Y-104422912D01*
X115398326Y-104420967D01*
X115385052Y-104417858D01*
X115378840Y-104413313D01*
X115377039Y-104407060D01*
X115376960Y-104404160D01*
X115383961Y-104387347D01*
X115398295Y-104383840D01*
X115417920Y-104376957D01*
X115442957Y-104359549D01*
X115454175Y-104349296D01*
X115488720Y-104314752D01*
X115488720Y-103379559D01*
X115463525Y-103349617D01*
X115437972Y-103325702D01*
X115409780Y-103307893D01*
X115407645Y-103306965D01*
X115384280Y-103291460D01*
X115376960Y-103275167D01*
X115378116Y-103268248D01*
X115383457Y-103263242D01*
X115395787Y-103259846D01*
X115417913Y-103257759D01*
X115452641Y-103256679D01*
X115502776Y-103256304D01*
X115552220Y-103256303D01*
X115727480Y-103256526D01*
X116316760Y-103930450D01*
X116319468Y-103664462D01*
X116320186Y-103574952D01*
X116320023Y-103503423D01*
X116318533Y-103447540D01*
X116315274Y-103404968D01*
X116309799Y-103373372D01*
X116301666Y-103350418D01*
X116290429Y-103333769D01*
X116275644Y-103321093D01*
X116256867Y-103310054D01*
X116251488Y-103307272D01*
X116226631Y-103291560D01*
X116211857Y-103276369D01*
X116210080Y-103271113D01*
X116212776Y-103265671D01*
X116222587Y-103261687D01*
X116242097Y-103258948D01*
X116273887Y-103257243D01*
X116320540Y-103256358D01*
X116384640Y-103256082D01*
X116392960Y-103256080D01*
X116458218Y-103256223D01*
D13*
X146410000Y-110395936D02*
X146410000Y-111600064D01*
X148230000Y-110395936D02*
X148230000Y-111600064D01*
X125127936Y-128672000D02*
X126332064Y-128672000D01*
X125127936Y-126852000D02*
X126332064Y-126852000D01*
X143510000Y-101600000D02*
X144780000Y-101600000D01*
X143510000Y-102870000D02*
X143510000Y-101600000D01*
X145822929Y-105790000D02*
X146277071Y-105790000D01*
X145822929Y-105030000D02*
X146277071Y-105030000D01*
X148362929Y-105790000D02*
X148760000Y-105790000D01*
X148362929Y-105030000D02*
X148760000Y-105030000D01*
X157420000Y-105790000D02*
X151420000Y-105790000D01*
X157420000Y-105030000D02*
X157420000Y-105790000D01*
X151420000Y-105030000D02*
X157420000Y-105030000D01*
X148760000Y-104140000D02*
X151420000Y-104140000D01*
X145890000Y-103250000D02*
X146277071Y-103250000D01*
X145890000Y-102490000D02*
X146277071Y-102490000D01*
X148362929Y-103250000D02*
X148760000Y-103250000D01*
X148362929Y-102490000D02*
X148760000Y-102490000D01*
X151420000Y-103150000D02*
X157420000Y-103150000D01*
X151420000Y-103030000D02*
X157420000Y-103030000D01*
X151420000Y-102910000D02*
X157420000Y-102910000D01*
X151420000Y-102790000D02*
X157420000Y-102790000D01*
X151420000Y-102670000D02*
X157420000Y-102670000D01*
X151420000Y-102550000D02*
X157420000Y-102550000D01*
X157420000Y-103250000D02*
X151420000Y-103250000D01*
X157420000Y-102490000D02*
X157420000Y-103250000D01*
X151420000Y-102490000D02*
X157420000Y-102490000D01*
X151420000Y-101540000D02*
X148760000Y-101540000D01*
X151420000Y-106740000D02*
X151420000Y-101540000D01*
X148760000Y-106740000D02*
X151420000Y-106740000D01*
X148760000Y-101540000D02*
X148760000Y-106740000D01*
X145220000Y-97490000D02*
X145820000Y-97790000D01*
X145220000Y-98090000D02*
X145220000Y-97490000D01*
X145820000Y-97790000D02*
X145220000Y-98090000D01*
X148920000Y-92540000D02*
X148920000Y-93040000D01*
X154420000Y-92540000D02*
X148920000Y-92540000D01*
X154420000Y-93040000D02*
X154420000Y-92540000D01*
X148920000Y-93040000D02*
X154420000Y-93040000D01*
X148920000Y-95040000D02*
X148920000Y-95540000D01*
X154420000Y-95040000D02*
X148920000Y-95040000D01*
X154420000Y-95540000D02*
X154420000Y-95040000D01*
X148920000Y-95540000D02*
X154420000Y-95540000D01*
X148920000Y-97540000D02*
X148920000Y-98040000D01*
X154420000Y-97540000D02*
X148920000Y-97540000D01*
X154420000Y-98040000D02*
X154420000Y-97540000D01*
X148920000Y-98040000D02*
X154420000Y-98040000D01*
X143310000Y-91650000D02*
X147810000Y-91650000D01*
X143310000Y-90230000D02*
X143310000Y-91650000D01*
X155030000Y-90230000D02*
X143310000Y-90230000D01*
X155030000Y-95290000D02*
X155030000Y-90230000D01*
X143310000Y-98930000D02*
X147810000Y-98930000D01*
X143310000Y-100350000D02*
X143310000Y-98930000D01*
X155030000Y-100350000D02*
X143310000Y-100350000D01*
X155030000Y-95290000D02*
X155030000Y-100350000D01*
X141061221Y-110492000D02*
X141386779Y-110492000D01*
X141061221Y-109472000D02*
X141386779Y-109472000D01*
X133949221Y-115953000D02*
X134274779Y-115953000D01*
X133949221Y-114933000D02*
X134274779Y-114933000D01*
X144220000Y-121162578D02*
X144220000Y-120645422D01*
X142800000Y-121162578D02*
X142800000Y-120645422D01*
X145452000Y-120920000D02*
X149352000Y-120920000D01*
X145452000Y-122920000D02*
X149352000Y-122920000D01*
X145452000Y-120920000D02*
X145452000Y-122920000D01*
X114336000Y-126762000D02*
X118236000Y-126762000D01*
X114336000Y-128762000D02*
X118236000Y-128762000D01*
X114336000Y-126762000D02*
X114336000Y-128762000D01*
X147349936Y-120544000D02*
X148554064Y-120544000D01*
X147349936Y-118724000D02*
X148554064Y-118724000D01*
X105669000Y-105615000D02*
X105669000Y-106725000D01*
X105669000Y-102825000D02*
X105669000Y-103935000D01*
X101959000Y-105615000D02*
X101959000Y-106725000D01*
X101959000Y-102825000D02*
X101959000Y-103935000D01*
X106219000Y-104775000D02*
X106719000Y-105025000D01*
X106719000Y-105025000D02*
X106719000Y-104525000D01*
X106719000Y-104525000D02*
X106219000Y-104775000D01*
X105669000Y-92915000D02*
X105669000Y-94025000D01*
X105669000Y-90125000D02*
X105669000Y-91235000D01*
X101959000Y-92915000D02*
X101959000Y-94025000D01*
X101959000Y-90125000D02*
X101959000Y-91235000D01*
X106219000Y-92075000D02*
X106719000Y-92325000D01*
X106719000Y-92325000D02*
X106719000Y-91825000D01*
X106719000Y-91825000D02*
X106219000Y-92075000D01*
X107732000Y-126762000D02*
X111632000Y-126762000D01*
X107732000Y-128762000D02*
X111632000Y-128762000D01*
X107732000Y-126762000D02*
X107732000Y-128762000D01*
X112232000Y-111998000D02*
X108332000Y-111998000D01*
X112232000Y-109998000D02*
X108332000Y-109998000D01*
X112232000Y-111998000D02*
X112232000Y-109998000D01*
X144188922Y-118058000D02*
X144706078Y-118058000D01*
X144188922Y-116638000D02*
X144706078Y-116638000D01*
X150099500Y-116388000D02*
X147414500Y-116388000D01*
X150099500Y-118308000D02*
X150099500Y-116388000D01*
X147414500Y-118308000D02*
X150099500Y-118308000D01*
X135880000Y-121409000D02*
X135880000Y-122409000D01*
X139240000Y-121409000D02*
X139240000Y-122409000D01*
X130800000Y-121409000D02*
X130800000Y-122409000D01*
X134160000Y-121409000D02*
X134160000Y-122409000D01*
X129480000Y-129600000D02*
X129480000Y-128270000D01*
X130810000Y-129600000D02*
X129480000Y-129600000D01*
X132080000Y-129600000D02*
X132080000Y-126940000D01*
X132080000Y-126940000D02*
X144840000Y-126940000D01*
X132080000Y-129600000D02*
X144840000Y-129600000D01*
X144840000Y-129600000D02*
X144840000Y-126940000D01*
X129480000Y-127060000D02*
X129480000Y-125730000D01*
X130810000Y-127060000D02*
X129480000Y-127060000D01*
X132080000Y-127060000D02*
X132080000Y-124400000D01*
X132080000Y-124400000D02*
X144840000Y-124400000D01*
X132080000Y-127060000D02*
X144840000Y-127060000D01*
X144840000Y-127060000D02*
X144840000Y-124400000D01*
X112582000Y-115270000D02*
X112582000Y-115870000D01*
X111982000Y-115570000D02*
X112582000Y-115270000D01*
X112582000Y-115870000D02*
X111982000Y-115570000D01*
X105182000Y-112860000D02*
X105182000Y-125900000D01*
X111292000Y-120430000D02*
X111292000Y-122140000D01*
X111292000Y-116620000D02*
X111292000Y-118330000D01*
X111292000Y-125900000D02*
X111292000Y-124240000D01*
X111292000Y-112860000D02*
X111292000Y-114520000D01*
X101872000Y-125900000D02*
X111292000Y-125900000D01*
X101872000Y-112860000D02*
X101872000Y-125900000D01*
X111292000Y-112860000D02*
X101872000Y-112860000D01*
X140508000Y-93532000D02*
X139908000Y-93532000D01*
X140208000Y-92932000D02*
X140508000Y-93532000D01*
X139908000Y-93532000D02*
X140208000Y-92932000D01*
X142918000Y-86132000D02*
X110828000Y-86132000D01*
X116298000Y-92242000D02*
X114588000Y-92242000D01*
X120108000Y-92242000D02*
X118398000Y-92242000D01*
X123918000Y-92242000D02*
X122208000Y-92242000D01*
X127728000Y-92242000D02*
X126018000Y-92242000D01*
X131538000Y-92242000D02*
X129828000Y-92242000D01*
X135348000Y-92242000D02*
X133638000Y-92242000D01*
X139158000Y-92242000D02*
X137448000Y-92242000D01*
X110828000Y-92242000D02*
X112488000Y-92242000D01*
X142918000Y-92242000D02*
X141258000Y-92242000D01*
X110828000Y-82822000D02*
X110828000Y-92242000D01*
X142918000Y-82822000D02*
X110828000Y-82822000D01*
X142918000Y-92242000D02*
X142918000Y-82822000D01*
X117856000Y-112354000D02*
X120731000Y-112354000D01*
X117856000Y-112354000D02*
X116356000Y-112354000D01*
X117856000Y-109134000D02*
X119356000Y-109134000D01*
X117856000Y-109134000D02*
X116356000Y-109134000D01*
X117856000Y-121752000D02*
X120731000Y-121752000D01*
X117856000Y-121752000D02*
X116356000Y-121752000D01*
X117856000Y-118532000D02*
X119356000Y-118532000D01*
X117856000Y-118532000D02*
X116356000Y-118532000D01*
D14*
X129235000Y-112688000D02*
X129235000Y-113763000D01*
X138960000Y-112688000D02*
X138960000Y-108038000D01*
X129010000Y-112688000D02*
X129010000Y-108038000D01*
X138960000Y-112688000D02*
X138635000Y-112688000D01*
X138960000Y-108038000D02*
X138635000Y-108038000D01*
X129010000Y-108038000D02*
X129335000Y-108038000D01*
X129010000Y-112688000D02*
X129235000Y-112688000D01*
D13*
X127060000Y-124520000D02*
X125730000Y-124520000D01*
X127060000Y-123190000D02*
X127060000Y-124520000D01*
X127060000Y-121920000D02*
X124400000Y-121920000D01*
X124400000Y-121920000D02*
X124400000Y-116780000D01*
X127060000Y-121920000D02*
X127060000Y-116780000D01*
X127060000Y-116780000D02*
X124400000Y-116780000D01*
X121506064Y-112882000D02*
X120301936Y-112882000D01*
X121506064Y-114702000D02*
X120301936Y-114702000D01*
X121506064Y-122280000D02*
X120301936Y-122280000D01*
X121506064Y-124100000D02*
X120301936Y-124100000D01*
X141061221Y-112016000D02*
X141386779Y-112016000D01*
X141061221Y-110996000D02*
X141386779Y-110996000D01*
X141061221Y-108968000D02*
X141386779Y-108968000D01*
X141061221Y-107948000D02*
X141386779Y-107948000D01*
X115729936Y-114702000D02*
X116934064Y-114702000D01*
X115729936Y-112882000D02*
X116934064Y-112882000D01*
X115729936Y-124100000D02*
X116934064Y-124100000D01*
X115729936Y-122280000D02*
X116934064Y-122280000D01*
X127162779Y-106932000D02*
X126837221Y-106932000D01*
X127162779Y-107952000D02*
X126837221Y-107952000D01*
X133949221Y-117477000D02*
X134274779Y-117477000D01*
X133949221Y-116457000D02*
X134274779Y-116457000D01*
X112520000Y-98262221D02*
X112520000Y-98587779D01*
X113540000Y-98262221D02*
X113540000Y-98587779D01*
X123225779Y-98677000D02*
X122900221Y-98677000D01*
X123225779Y-99697000D02*
X122900221Y-99697000D01*
X130845779Y-98677000D02*
X130520221Y-98677000D01*
X130845779Y-99697000D02*
X130520221Y-99697000D01*
X139321000Y-96682779D02*
X139321000Y-96357221D01*
X138301000Y-96682779D02*
X138301000Y-96357221D01*
X139321000Y-104302779D02*
X139321000Y-103977221D01*
X138301000Y-104302779D02*
X138301000Y-103977221D01*
D14*
X141525666Y-105878380D02*
X141525666Y-106592666D01*
X141478047Y-106735523D01*
X141382809Y-106830761D01*
X141239952Y-106878380D01*
X141144714Y-106878380D01*
X142049476Y-106878380D02*
X142239952Y-106878380D01*
X142335190Y-106830761D01*
X142382809Y-106783142D01*
X142478047Y-106640285D01*
X142525666Y-106449809D01*
X142525666Y-106068857D01*
X142478047Y-105973619D01*
X142430428Y-105926000D01*
X142335190Y-105878380D01*
X142144714Y-105878380D01*
X142049476Y-105926000D01*
X142001857Y-105973619D01*
X141954238Y-106068857D01*
X141954238Y-106306952D01*
X142001857Y-106402190D01*
X142049476Y-106449809D01*
X142144714Y-106497428D01*
X142335190Y-106497428D01*
X142430428Y-106449809D01*
X142478047Y-106402190D01*
X142525666Y-106306952D01*
X141398666Y-99147380D02*
X141398666Y-99861666D01*
X141351047Y-100004523D01*
X141255809Y-100099761D01*
X141112952Y-100147380D01*
X141017714Y-100147380D01*
X142017714Y-99575952D02*
X141922476Y-99528333D01*
X141874857Y-99480714D01*
X141827238Y-99385476D01*
X141827238Y-99337857D01*
X141874857Y-99242619D01*
X141922476Y-99195000D01*
X142017714Y-99147380D01*
X142208190Y-99147380D01*
X142303428Y-99195000D01*
X142351047Y-99242619D01*
X142398666Y-99337857D01*
X142398666Y-99385476D01*
X142351047Y-99480714D01*
X142303428Y-99528333D01*
X142208190Y-99575952D01*
X142017714Y-99575952D01*
X141922476Y-99623571D01*
X141874857Y-99671190D01*
X141827238Y-99766428D01*
X141827238Y-99956904D01*
X141874857Y-100052142D01*
X141922476Y-100099761D01*
X142017714Y-100147380D01*
X142208190Y-100147380D01*
X142303428Y-100099761D01*
X142351047Y-100052142D01*
X142398666Y-99956904D01*
X142398666Y-99766428D01*
X142351047Y-99671190D01*
X142303428Y-99623571D01*
X142208190Y-99575952D01*
X141525666Y-120832571D02*
X141192333Y-120832571D01*
X141192333Y-121356380D02*
X141192333Y-120356380D01*
X141668523Y-120356380D01*
X142573285Y-121356380D02*
X142001857Y-121356380D01*
X142287571Y-121356380D02*
X142287571Y-120356380D01*
X142192333Y-120499238D01*
X142097095Y-120594476D01*
X142001857Y-120642095D01*
X105076666Y-109307380D02*
X105076666Y-110021666D01*
X105029047Y-110164523D01*
X104933809Y-110259761D01*
X104790952Y-110307380D01*
X104695714Y-110307380D01*
X105981428Y-109640714D02*
X105981428Y-110307380D01*
X105743333Y-109259761D02*
X105505238Y-109974047D01*
X106124285Y-109974047D01*
X105076666Y-96607380D02*
X105076666Y-97321666D01*
X105029047Y-97464523D01*
X104933809Y-97559761D01*
X104790952Y-97607380D01*
X104695714Y-97607380D01*
X105457619Y-96607380D02*
X106076666Y-96607380D01*
X105743333Y-96988333D01*
X105886190Y-96988333D01*
X105981428Y-97035952D01*
X106029047Y-97083571D01*
X106076666Y-97178809D01*
X106076666Y-97416904D01*
X106029047Y-97512142D01*
X105981428Y-97559761D01*
X105886190Y-97607380D01*
X105600476Y-97607380D01*
X105505238Y-97559761D01*
X105457619Y-97512142D01*
X145970666Y-126452380D02*
X145970666Y-127166666D01*
X145923047Y-127309523D01*
X145827809Y-127404761D01*
X145684952Y-127452380D01*
X145589714Y-127452380D01*
X146351619Y-126452380D02*
X147018285Y-126452380D01*
X146589714Y-127452380D01*
X145970666Y-124674380D02*
X145970666Y-125388666D01*
X145923047Y-125531523D01*
X145827809Y-125626761D01*
X145684952Y-125674380D01*
X145589714Y-125674380D01*
X146399238Y-124769619D02*
X146446857Y-124722000D01*
X146542095Y-124674380D01*
X146780190Y-124674380D01*
X146875428Y-124722000D01*
X146923047Y-124769619D01*
X146970666Y-124864857D01*
X146970666Y-124960095D01*
X146923047Y-125102952D01*
X146351619Y-125674380D01*
X146970666Y-125674380D01*
X103171666Y-111212380D02*
X103171666Y-111926666D01*
X103124047Y-112069523D01*
X103028809Y-112164761D01*
X102885952Y-112212380D01*
X102790714Y-112212380D01*
X104076428Y-111212380D02*
X103885952Y-111212380D01*
X103790714Y-111260000D01*
X103743095Y-111307619D01*
X103647857Y-111450476D01*
X103600238Y-111640952D01*
X103600238Y-112021904D01*
X103647857Y-112117142D01*
X103695476Y-112164761D01*
X103790714Y-112212380D01*
X103981190Y-112212380D01*
X104076428Y-112164761D01*
X104124047Y-112117142D01*
X104171666Y-112021904D01*
X104171666Y-111783809D01*
X104124047Y-111688571D01*
X104076428Y-111640952D01*
X103981190Y-111593333D01*
X103790714Y-111593333D01*
X103695476Y-111640952D01*
X103647857Y-111688571D01*
X103600238Y-111783809D01*
X108886666Y-84415380D02*
X108886666Y-85129666D01*
X108839047Y-85272523D01*
X108743809Y-85367761D01*
X108600952Y-85415380D01*
X108505714Y-85415380D01*
X109839047Y-84415380D02*
X109362857Y-84415380D01*
X109315238Y-84891571D01*
X109362857Y-84843952D01*
X109458095Y-84796333D01*
X109696190Y-84796333D01*
X109791428Y-84843952D01*
X109839047Y-84891571D01*
X109886666Y-84986809D01*
X109886666Y-85224904D01*
X109839047Y-85320142D01*
X109791428Y-85367761D01*
X109696190Y-85415380D01*
X109458095Y-85415380D01*
X109362857Y-85367761D01*
X109315238Y-85320142D01*
X117094095Y-107910380D02*
X117094095Y-108719904D01*
X117141714Y-108815142D01*
X117189333Y-108862761D01*
X117284571Y-108910380D01*
X117475047Y-108910380D01*
X117570285Y-108862761D01*
X117617904Y-108815142D01*
X117665523Y-108719904D01*
X117665523Y-107910380D01*
X118094095Y-108005619D02*
X118141714Y-107958000D01*
X118236952Y-107910380D01*
X118475047Y-107910380D01*
X118570285Y-107958000D01*
X118617904Y-108005619D01*
X118665523Y-108100857D01*
X118665523Y-108196095D01*
X118617904Y-108338952D01*
X118046476Y-108910380D01*
X118665523Y-108910380D01*
X116967095Y-117308380D02*
X116967095Y-118117904D01*
X117014714Y-118213142D01*
X117062333Y-118260761D01*
X117157571Y-118308380D01*
X117348047Y-118308380D01*
X117443285Y-118260761D01*
X117490904Y-118213142D01*
X117538523Y-118117904D01*
X117538523Y-117308380D01*
X117919476Y-117308380D02*
X118538523Y-117308380D01*
X118205190Y-117689333D01*
X118348047Y-117689333D01*
X118443285Y-117736952D01*
X118490904Y-117784571D01*
X118538523Y-117879809D01*
X118538523Y-118117904D01*
X118490904Y-118213142D01*
X118443285Y-118260761D01*
X118348047Y-118308380D01*
X118062333Y-118308380D01*
X117967095Y-118260761D01*
X117919476Y-118213142D01*
X139700095Y-112990380D02*
X139700095Y-113799904D01*
X139747714Y-113895142D01*
X139795333Y-113942761D01*
X139890571Y-113990380D01*
X140081047Y-113990380D01*
X140176285Y-113942761D01*
X140223904Y-113895142D01*
X140271523Y-113799904D01*
X140271523Y-112990380D01*
X141271523Y-113990380D02*
X140700095Y-113990380D01*
X140985809Y-113990380D02*
X140985809Y-112990380D01*
X140890571Y-113133238D01*
X140795333Y-113228476D01*
X140700095Y-113276095D01*
X125396666Y-124928380D02*
X125396666Y-125642666D01*
X125349047Y-125785523D01*
X125253809Y-125880761D01*
X125110952Y-125928380D01*
X125015714Y-125928380D01*
X126396666Y-125928380D02*
X125825238Y-125928380D01*
X126110952Y-125928380D02*
X126110952Y-124928380D01*
X126015714Y-125071238D01*
X125920476Y-125166476D01*
X125825238Y-125214095D01*
M02*
